# Blender 5.0.1
# www.blender.org
mtllib model.mtl
o wormyMesh
v -0.293172 0.033983 -0.802139
v -0.293172 -0.000000 -0.777448
v -0.268126 -0.000000 -0.754664
v 0.076363 -0.000000 -0.562233
v -0.268126 0.062045 -0.793020
v 0.119047 0.058750 -0.562232
v -0.268126 0.038346 -0.869108
v 0.188113 0.036310 -0.562232
v -0.268126 -0.038346 -0.869108
v 0.188113 -0.036310 -0.562232
v -0.268126 -0.062045 -0.793020
v 0.119047 -0.058750 -0.562232
v -0.293172 0.021003 -0.842088
v -0.293172 -0.021003 -0.842088
v -0.293172 -0.033983 -0.802139
v 0.125695 0.038292 -0.529088
v 0.097874 -0.000000 -0.529088
v 0.170710 0.023665 -0.529088
v 0.170710 -0.023666 -0.529088
v 0.125695 -0.038292 -0.529088
v 0.075572 -0.000000 -0.618756
v 0.118803 0.059503 -0.618756
v 0.188753 0.036775 -0.618756
v 0.188753 -0.036775 -0.618756
v 0.118803 -0.059503 -0.618756
v 0.118812 0.059475 -0.714158
v 0.188729 0.036758 -0.714158
v 0.188729 -0.036758 -0.714158
v 0.118812 -0.059475 -0.714158
v 0.075601 -0.000000 -0.714158
v -0.163746 0.053429 -0.755658
v -0.122413 0.032818 -0.803778
v -0.122413 -0.033879 -0.803778
v -0.163746 -0.054490 -0.755658
v -0.189291 -0.000531 -0.725919
v -0.165253 -0.000216 -0.673528
v -0.083010 -0.000000 -0.622778
v -0.007717 -0.000000 -0.674221
v -0.028403 0.050112 -0.704182
v -0.083010 0.062045 -0.667856
v -0.140832 0.053924 -0.704365
v -0.061875 0.030971 -0.752660
v -0.083010 0.038346 -0.740794
v -0.101318 0.033244 -0.754260
v -0.061875 -0.030971 -0.752660
v -0.083010 -0.038346 -0.740794
v -0.101318 -0.033677 -0.754260
v -0.028403 -0.050112 -0.704182
v -0.083010 -0.062045 -0.667856
v -0.140832 -0.054357 -0.704365
v 0.018948 -0.000000 -0.726879
v 0.039245 -0.000000 -0.755602
v 0.073900 -0.000000 -0.736735
v 0.112055 0.063708 -0.762938
v 0.031006 0.062045 -0.803201
v -0.003180 0.050306 -0.755968
v 0.173793 0.039373 -0.805334
v 0.019860 0.038346 -0.868401
v -0.038986 0.031091 -0.803037
v 0.173793 -0.039373 -0.805334
v 0.019860 -0.038346 -0.868401
v -0.038986 -0.031091 -0.803037
v 0.112055 -0.063708 -0.762938
v 0.031006 -0.062045 -0.803201
v -0.003180 -0.050306 -0.755968
v -0.192255 0.062045 -0.794115
v -0.168886 0.038346 -0.866525
v -0.168886 -0.038346 -0.866525
v -0.192255 -0.062045 -0.794115
v -0.204219 -0.000000 -0.757641
v 0.070221 -0.065648 -0.803021
v 0.092785 -0.040573 -0.869108
v 0.092785 0.040573 -0.869108
v 0.070221 0.065648 -0.803021
v 0.056275 -0.000000 -0.754664
vn 0.9381 -0.2246 0.2636
vn 0.9381 0.2246 0.2636
vn 0.5082 0.1733 0.8436
vn 0.5083 -0.1733 0.8436
vn -0.3982 -0.2084 -0.8933
vn -0.4469 -0.7414 0.5006
vn -0.9711 -0.2219 0.0878
vn -0.9215 -0.1647 -0.3517
vn -1.0000 -0.0000 0.0068
vn -0.9675 -0.0000 0.2529
vn -0.4514 0.8381 0.3062
vn -0.4463 0.8949 0.0075
vn -0.4514 -0.8381 0.3062
vn -0.1025 -0.2528 0.9621
vn -0.3066 -0.0000 0.9518
vn -0.8238 -0.0000 0.5669
vn 0.9687 0.2480 0.0082
vn -0.1024 0.2528 0.9621
vn -0.7308 0.3861 0.5628
vn -0.3982 0.2084 -0.8933
vn -0.9215 0.1647 -0.3517
vn 0.9687 -0.2480 0.0082
vn -0.9711 0.2219 0.0878
vn -0.4463 -0.8949 0.0068
vn -0.4469 0.7414 0.5006
vn -0.4228 -0.9052 0.0443
vn -0.9966 -0.0000 0.0827
vn 0.9688 -0.2368 -0.0733
vn 0.9688 0.2368 -0.0733
vn -0.4228 0.9052 0.0443
vn -0.8983 -0.0000 0.4395
vn -0.2516 0.9524 0.1720
vn 0.8447 0.2091 -0.4927
vn 0.8447 -0.2091 -0.4927
vn -0.2517 -0.9524 0.1720
vn -0.0574 -0.9565 0.2859
vn -0.4451 -0.8611 0.2459
vn -0.8991 -0.0003 0.4378
vn -0.4950 0.0006 0.8689
vn 0.4548 -0.2047 -0.8667
vn 0.8513 -0.2206 -0.4761
vn 0.4558 0.2049 -0.8662
vn 0.8520 0.2199 -0.4752
vn -0.0480 0.9556 0.2906
vn -0.3316 0.9215 0.2020
vn 0.4747 -0.0000 0.8802
vn -0.4347 -0.0000 0.9006
vn -0.1165 0.9659 0.2314
vn -0.0539 0.9732 0.2235
vn -0.5055 -0.7662 0.3968
vn 0.0372 -0.8170 0.5755
vn 0.0194 0.0001 0.9998
vn -0.7565 -0.0168 0.6538
vn 0.4953 -0.8058 0.3248
vn 0.7419 -0.0000 0.6705
vn 0.7416 -0.2805 -0.6094
vn 0.0700 -0.3778 -0.9232
vn -0.6857 -0.2972 -0.6644
vn 0.7392 0.2806 -0.6122
vn 0.0673 0.3781 -0.9233
vn -0.6858 0.2972 -0.6644
vn -0.3876 0.8390 0.3818
vn 0.0346 0.8175 0.5749
vn 0.4953 0.8058 0.3247
vn 0.3301 -0.9021 0.2779
vn 0.8491 -0.0000 0.5283
vn -0.0539 -0.9732 0.2235
vn -0.1165 -0.9659 0.2314
vn -0.8235 -0.2221 -0.5221
vn -0.4103 -0.2047 -0.8887
vn 0.3103 -0.2120 -0.9267
vn -0.8235 0.2221 -0.5221
vn -0.4103 0.2047 -0.8887
vn 0.3103 0.2120 -0.9267
vn 0.3301 0.9021 0.2779
vt 0.782262 0.611692
vt 0.793037 0.611360
vt 0.794001 0.634897
vt 0.784231 0.635792
vt 0.769323 0.157608
vt 0.731082 0.143364
vt 0.741589 0.127752
vt 0.769332 0.137185
vt 0.867082 0.576811
vt 0.866695 0.619519
vt 0.833838 0.617351
vt 0.835060 0.579518
vt 0.742096 0.622645
vt 0.751983 0.644690
vt 0.701009 0.138048
vt 0.722193 0.121079
vt 0.791545 0.581271
vt 0.173628 0.104566
vt 0.244861 0.202610
vt 0.173628 0.300654
vt 0.058370 0.263204
vt 0.058370 0.142015
vt 0.777248 0.157341
vt 0.777665 0.137900
vt 0.560327 0.360457
vt 0.559424 0.470201
vt 0.418429 0.470201
vt 0.417526 0.360457
vt 0.826563 0.640086
vt 0.244861 0.398698
vt 0.058370 0.338104
vt 0.058370 0.459293
vt 0.173628 0.496742
vt 0.780159 0.581904
vt 0.736614 0.585010
vt 0.848661 0.643679
vt 0.844009 0.139178
vt 0.814656 0.144216
vt 0.804570 0.128986
vt 0.823439 0.122590
vt 0.709412 0.628520
vt 0.704318 0.585827
vt 0.730184 0.650759
vt 0.743101 0.525482
vt 0.711050 0.514431
vt 0.778543 0.533804
vt 0.560294 0.175228
vt 0.417559 0.175228
vt 0.822258 0.521280
vt 0.787896 0.533423
vt 0.852734 0.506892
vt 0.845630 0.489974
vt 0.812582 0.497154
vt 0.784827 0.500406
vt 0.778329 0.500921
vt 0.750213 0.500451
vt 0.716287 0.496739
vt 0.731522 0.193195
vt 0.715378 0.226882
vt 0.679377 0.215350
vt 0.699605 0.190959
vt 0.769164 0.189305
vt 0.766717 0.227986
vt 0.777169 0.188968
vt 0.779409 0.228329
vt 0.814103 0.193071
vt 0.830274 0.226147
vt 0.845280 0.190870
vt 0.865199 0.214403
vt 0.841723 0.455933
vt 0.843505 0.469310
vt 0.808019 0.471946
vt 0.806325 0.453901
vt 0.680965 0.267850
vt 0.657834 0.330368
vt 0.613084 0.333856
vt 0.644086 0.252715
vt 0.690038 0.386120
vt 0.657044 0.402796
vt 0.760705 0.289023
vt 0.756259 0.323388
vt 0.763380 0.360366
vt 0.786489 0.288063
vt 0.790707 0.322526
vt 0.787463 0.360330
vt 0.864649 0.265398
vt 0.889220 0.324755
vt 0.861274 0.380171
vt 0.899771 0.249698
vt 0.932286 0.326054
vt 0.894067 0.394123
vt 0.728375 0.424142
vt 0.696543 0.437507
vt 0.752106 0.456595
vt 0.716589 0.462083
vt 0.752232 0.474794
vt 0.716165 0.475733
vt 0.772720 0.421689
vt 0.776256 0.458316
vt 0.777420 0.475512
vt 0.782706 0.421124
vt 0.782403 0.457924
vt 0.783358 0.475199
vt 0.826768 0.419961
vt 0.858841 0.430277
s 1
g wormyMesh_wormyMat
usemtl wormyMat
f 10/1/1 8/2/2 18/3/3 19/4/4
f 9/5/5 11/6/6 15/7/7 14/8/8
f 21/9/9 4/10/10 6/11/11 22/12/12
f 12/13/13 10/1/1 19/4/4 20/14/14
f 11/6/6 3/15/15 2/16/16 15/7/7
f 22/12/12 6/11/11 8/2/2 23/17/17
f 16/18/18 17/19/19 20/20/14 19/21/4 18/22/3
f 7/23/20 9/5/5 14/8/8 13/24/21
f 23/25/17 8/26/2 10/27/1 24/28/22
f 8/2/2 6/11/11 16/29/18 18/3/3
f 2/30/16 1/20/23 13/31/21 14/32/8 15/33/7
f 24/34/22 10/1/1 12/13/13 25/35/24
f 6/11/11 4/10/10 17/36/19 16/29/18
f 3/37/15 5/38/25 1/39/23 2/40/16
f 25/35/24 12/13/13 4/41/10 21/42/9
f 5/38/25 7/23/20 13/24/21 1/39/23
f 4/41/10 12/13/13 20/14/14 17/43/19
f 29/44/26 25/35/24 21/42/9 30/45/27
f 28/46/28 24/34/22 25/35/24 29/44/26
f 27/47/29 23/25/17 24/28/22 28/48/28
f 26/49/30 22/12/12 23/17/17 27/50/29
f 30/51/27 21/9/9 22/12/12 26/49/30
f 53/52/31 30/51/27 26/49/30 54/53/32
f 54/53/32 26/49/30 27/50/29 57/54/33
f 57/54/33 27/50/29 28/46/28 60/55/34
f 60/55/34 28/46/28 29/44/26 63/56/35
f 63/56/35 29/44/26 30/45/27 53/57/31
f 69/58/36 34/59/37 35/60/38 70/61/39
f 68/62/40 33/63/41 34/59/37 69/58/36
f 67/64/42 32/65/43 33/63/41 68/62/40
f 66/66/44 31/67/45 32/65/43 67/64/42
f 70/68/39 35/69/38 31/67/45 66/66/44
f 52/70/46 75/71/47 74/72/48 55/73/49
f 50/74/50 49/75/51 37/76/52 36/77/53
f 49/75/51 48/78/54 38/79/55 37/76/52
f 34/59/37 50/74/50 36/77/53 35/60/38
f 47/80/56 46/81/57 49/75/51 50/74/50
f 46/81/57 45/82/58 48/78/54 49/75/51
f 33/63/41 47/80/56 50/74/50 34/59/37
f 44/83/59 43/84/60 46/81/57 47/80/56
f 43/84/60 42/85/61 45/82/58 46/81/57
f 32/65/43 44/83/59 47/80/56 33/63/41
f 41/86/62 40/87/63 43/84/60 44/83/59
f 40/87/63 39/88/64 42/85/61 43/84/60
f 31/67/45 41/86/62 44/83/59 32/65/43
f 36/89/53 37/90/52 40/87/63 41/86/62
f 37/90/52 38/91/55 39/88/64 40/87/63
f 48/78/54 65/92/65 51/93/66 38/79/55
f 65/92/65 64/94/67 52/95/46 51/93/66
f 71/96/68 63/56/35 53/57/31 75/97/47
f 45/82/58 62/98/69 65/92/65 48/78/54
f 62/98/69 61/99/70 64/94/67 65/92/65
f 72/100/71 60/55/34 63/56/35 71/96/68
f 42/85/61 59/101/72 62/98/69 45/82/58
f 59/101/72 58/102/73 61/99/70 62/98/69
f 73/103/74 57/54/33 60/55/34 72/100/71
f 39/88/64 56/104/75 59/101/72 42/85/61
f 56/104/75 55/73/49 58/102/73 59/101/72
f 74/72/48 54/53/32 57/54/33 73/103/74
f 38/91/55 51/105/66 56/104/75 39/88/64
f 51/105/66 52/70/46 55/73/49 56/104/75
f 75/71/47 53/52/31 54/53/32 74/72/48
f 3/37/15 70/68/39 66/66/44 5/38/25
f 5/38/25 66/66/44 67/64/42 7/23/20
f 7/23/20 67/64/42 68/62/40 9/5/5
f 9/5/5 68/62/40 69/58/36 11/6/6
f 11/6/6 69/58/36 70/61/39 3/15/15
f 64/94/67 71/96/68 75/97/47 52/95/46
f 61/99/70 72/100/71 71/96/68 64/94/67
f 58/102/73 73/103/74 72/100/71 61/99/70
f 55/73/49 74/72/48 73/103/74 58/102/73
f 35/69/38 36/89/53 41/86/62 31/67/45
