# Blender 5.0.1
# www.blender.org
mtllib model.mtl
o pgorleyMesh
v 1.011736 -0.000918 -0.000565
v 0.715338 -0.000918 0.715005
v -0.000232 -0.000918 1.011403
v -1.012199 -0.000918 -0.000565
v 0.934705 0.192713 0.334815
v 0.715338 0.356866 0.619136
v 0.387032 0.466550 0.809114
v -0.000231 0.505066 0.875825
v -0.387495 0.466550 0.809114
v -0.715801 0.356866 0.619137
v -0.935168 0.192713 0.334815
v 0.934705 0.334462 0.193067
v 0.715338 0.618783 0.357220
v 0.387032 0.808760 0.466904
v -0.000231 0.875472 0.505419
v -0.387495 0.808760 0.466904
v -0.715801 0.618783 0.357220
v -0.935168 0.334462 0.193067
v 0.934705 0.386345 -0.000565
v 0.715338 0.714651 -0.000565
v 0.387032 0.934018 -0.000565
v -0.000232 1.011050 -0.000565
v -0.387495 0.934018 -0.000565
v -0.715801 0.714651 -0.000565
v -0.935168 0.386345 -0.000565
v 0.934705 0.334462 -0.194196
v 0.715338 0.618783 -0.358349
v 0.387032 0.808760 -0.468033
v -0.000231 0.875472 -0.506548
v -0.387495 0.808760 -0.468033
v -0.715801 0.618783 -0.358349
v -0.935168 0.334462 -0.194196
v 0.934705 0.192713 -0.335944
v 0.715338 0.356866 -0.620266
v 0.387032 0.466550 -0.810243
v -0.000232 0.505066 -0.876954
v -0.387495 0.466550 -0.810243
v -0.715801 0.356866 -0.620266
v -0.935168 0.192713 -0.335944
v 0.934705 -0.000918 -0.387828
v 0.715338 -0.000918 -0.716134
v 0.387032 -0.000918 -0.935501
v -0.000232 -0.000918 -1.012532
v -0.387495 -0.000918 -0.935501
v -0.715801 -0.000918 -0.716134
v -0.935168 -0.000918 -0.387828
v 0.934705 -0.194550 -0.335944
v 0.715338 -0.358703 -0.620266
v 0.387032 -0.468386 -0.810243
v -0.000232 -0.506902 -0.876954
v -0.387495 -0.468386 -0.810243
v -0.715801 -0.358703 -0.620266
v -0.935168 -0.194550 -0.335944
v 0.934705 -0.336298 -0.194196
v 0.715338 -0.620619 -0.358349
v 0.387032 -0.810597 -0.468033
v -0.000232 -0.877308 -0.506548
v -0.387495 -0.810597 -0.468033
v -0.715801 -0.620619 -0.358349
v -0.935168 -0.336298 -0.194196
v 0.934705 -0.388182 -0.000565
v 0.715338 -0.716487 -0.000565
v 0.387032 -0.935854 -0.000565
v -0.000231 -1.012886 -0.000565
v -0.387495 -0.935855 -0.000565
v -0.715801 -0.716488 -0.000565
v -0.935168 -0.388182 -0.000565
v 0.934705 -0.336298 0.193067
v 0.715338 -0.620619 0.357220
v 0.387032 -0.810597 0.466904
v -0.000231 -0.877308 0.505419
v -0.387495 -0.810597 0.466904
v -0.715801 -0.620619 0.357220
v -0.935168 -0.336298 0.193067
v 0.934705 -0.194550 0.334815
v 0.715338 -0.358703 0.619136
v 0.387032 -0.468386 0.809114
v -0.000231 -0.506902 0.875825
v -0.387495 -0.468386 0.809114
v -0.715801 -0.358703 0.619137
v -0.935168 -0.194550 0.334815
v 0.934705 -0.000918 0.386699
v 0.387032 -0.000918 0.934372
v -0.387495 -0.000918 0.934372
v -0.715801 -0.000918 0.715005
v -0.935168 -0.000918 0.386699
vn 1.0000 -0.0000 -0.0000
vn 0.6913 -0.0000 0.7226
vn -0.0000 -0.0000 1.0000
vn -1.0000 -0.0000 -0.0000
vn 0.9122 0.2049 0.3548
vn 0.6913 0.3613 0.6258
vn 0.3718 0.4642 0.8040
vn -0.0000 0.5000 0.8660
vn -0.3718 0.4642 0.8040
vn -0.6913 0.3613 0.6258
vn -0.9122 0.2049 0.3548
vn 0.9122 0.3548 0.2049
vn 0.6913 0.6258 0.3613
vn 0.3718 0.8040 0.4642
vn -0.0000 0.8660 0.5000
vn -0.3718 0.8040 0.4642
vn -0.6913 0.6258 0.3613
vn -0.9122 0.3548 0.2049
vn 0.9122 0.4097 -0.0000
vn 0.6913 0.7226 -0.0000
vn 0.3718 0.9283 -0.0000
vn -0.0000 1.0000 -0.0000
vn -0.3718 0.9283 -0.0000
vn -0.6913 0.7226 -0.0000
vn -0.9122 0.4097 -0.0000
vn 0.9122 0.3548 -0.2049
vn 0.6913 0.6258 -0.3613
vn 0.3718 0.8040 -0.4642
vn -0.0000 0.8660 -0.5000
vn -0.3718 0.8040 -0.4642
vn -0.6913 0.6258 -0.3613
vn -0.9122 0.3548 -0.2049
vn 0.9122 0.2049 -0.3548
vn 0.6913 0.3613 -0.6258
vn 0.3718 0.4642 -0.8040
vn -0.0000 0.5000 -0.8660
vn -0.3718 0.4642 -0.8040
vn -0.6913 0.3613 -0.6258
vn -0.9122 0.2049 -0.3548
vn 0.9122 -0.0000 -0.4097
vn 0.6913 -0.0000 -0.7226
vn 0.3718 -0.0000 -0.9283
vn -0.0000 -0.0000 -1.0000
vn -0.3718 -0.0000 -0.9283
vn -0.6913 -0.0000 -0.7226
vn -0.9122 -0.0000 -0.4097
vn 0.9122 -0.2049 -0.3548
vn 0.6913 -0.3613 -0.6258
vn 0.3718 -0.4642 -0.8040
vn -0.0000 -0.5000 -0.8660
vn -0.3718 -0.4642 -0.8040
vn -0.6913 -0.3613 -0.6258
vn -0.9122 -0.2049 -0.3548
vn 0.9122 -0.3548 -0.2049
vn 0.6913 -0.6258 -0.3613
vn 0.3718 -0.8040 -0.4642
vn -0.0000 -0.8660 -0.5000
vn -0.3718 -0.8040 -0.4642
vn -0.6913 -0.6258 -0.3613
vn -0.9122 -0.3548 -0.2049
vn 0.9122 -0.4097 -0.0000
vn 0.6913 -0.7226 -0.0000
vn 0.3718 -0.9283 -0.0000
vn -0.0000 -1.0000 -0.0000
vn -0.3718 -0.9283 -0.0000
vn -0.6913 -0.7226 -0.0000
vn -0.9122 -0.4097 -0.0000
vn 0.9122 -0.3548 0.2049
vn 0.6913 -0.6258 0.3613
vn 0.3718 -0.8040 0.4642
vn -0.0000 -0.8660 0.5000
vn -0.3718 -0.8040 0.4642
vn -0.6913 -0.6258 0.3613
vn -0.9122 -0.3548 0.2049
vn 0.9122 -0.2049 0.3548
vn 0.6913 -0.3613 0.6258
vn 0.3718 -0.4642 0.8040
vn -0.0000 -0.5000 0.8660
vn -0.3718 -0.4642 0.8040
vn -0.6913 -0.3613 0.6258
vn -0.9122 -0.2049 0.3548
vn 0.9122 -0.0000 0.4097
vn 0.3718 -0.0000 0.9283
vn -0.3718 -0.0000 0.9283
vn -0.6913 -0.0000 0.7226
vn -0.9122 -0.0000 0.4097
vt 0.335963 0.927175
vt 0.376394 0.781009
vt 0.529794 0.775526
vt 0.568802 0.927175
vt 0.401851 0.672141
vt 0.423061 0.579652
vt 0.468806 0.576840
vt 0.496406 0.665588
vt 0.102229 0.930744
vt 0.101669 0.985848
vt 0.048947 0.971249
vt 0.075844 0.924347
vt 0.104486 1.052325
vt 0.109461 1.142545
vt -0.029337 1.114444
vt 0.017421 1.029238
vt 0.442492 0.492567
vt 0.100918 0.878362
vt 0.007924 0.934514
vt 0.055918 0.905816
vt -0.127183 1.012431
vt -0.048172 0.968631
vt 0.578996 0.617390
vt 0.658958 0.693787
vt 0.508082 0.553149
vt 0.777186 0.806966
vt 0.530338 0.512150
vt 0.048809 0.879637
vt -0.074195 0.881986
vt -0.005804 0.880870
vt 0.735377 0.561140
vt 0.880581 0.595422
vt 0.623200 0.531828
vt -0.158968 0.883485
vt -0.051621 0.793790
vt 0.005932 0.827046
vt 0.727864 0.405265
vt 0.879661 0.364294
vt 0.527038 0.465838
vt 0.617149 0.436220
vt 0.054571 0.853213
vt -0.131258 0.754672
vt 0.044543 0.785481
vt 0.073685 0.833932
vt -0.041461 0.652121
vt 0.010114 0.728697
vt 0.564681 0.356064
vt 0.643564 0.276199
vt 0.502660 0.426704
vt 0.757659 0.152238
vt 0.093931 0.606265
vt 0.096667 0.704396
vt 0.480347 0.313084
vt 0.508742 0.203145
vt 0.461612 0.404971
vt 0.099500 0.825987
vt 0.099663 0.770629
vt 0.536017 0.047841
vt 0.125836 0.832287
vt 0.187177 0.723921
vt 0.153173 0.785089
vt 0.355420 0.210097
vt 0.304264 0.068448
vt 0.415546 0.408349
vt 0.385872 0.319015
vt 0.231319 0.644680
vt 0.225146 0.290389
vt 0.120352 0.193510
vt 0.376682 0.432608
vt 0.306228 0.370537
vt 0.193663 0.822915
vt 0.145597 0.850829
vt 0.335995 0.741239
vt 0.251386 0.790505
vt 0.210177 0.877298
vt 0.153547 0.876909
vt 0.368140 0.879921
vt 0.276312 0.876565
vt 0.263884 0.454117
vt 0.155679 0.425970
vt 0.355018 0.473493
vt 0.009578 0.386897
vt 0.269360 0.547142
vt 0.163034 0.576428
vt 0.358004 0.519548
vt 0.147155 0.903499
vt 0.253703 0.963088
vt 0.194999 0.932100
vt 0.009052 0.622307
vt 0.328727 1.009526
vt 0.128316 0.923160
vt 0.191688 1.028476
vt 0.155406 0.971682
vt 0.240120 0.709327
vt 0.139363 0.815768
vt 0.383093 0.557489
vt 0.320271 0.625083
vt 0.235210 1.100760
s 1
g pgorleyMesh_pgorleyMat
usemtl pgorleyMat
f 3/1/3 83/2/83 7/3/7 8/4/8
f 2/5/2 82/6/82 5/7/5 6/8/6
f 86/9/86 85/10/85 10/11/10 11/12/11
f 84/13/84 3/14/3 8/15/8 9/16/9
f 83/2/83 2/5/2 6/8/6 7/3/7
f 82/6/82 1/17/1 5/7/5
f 4/18/4 86/9/86 11/12/11
f 85/10/85 84/13/84 9/16/9 10/11/10
f 11/12/11 10/11/10 17/19/17 18/20/18
f 9/16/9 8/15/8 15/21/15 16/22/16
f 7/3/7 6/8/6 13/23/13 14/24/14
f 5/7/5 1/17/1 12/25/12
f 4/18/4 11/12/11 18/20/18
f 10/11/10 9/16/9 16/22/16 17/19/17
f 8/4/8 7/3/7 14/24/14 15/26/15
f 6/8/6 5/7/5 12/25/12 13/23/13
f 12/25/12 1/17/1 19/27/19
f 4/18/4 18/20/18 25/28/25
f 17/19/17 16/22/16 23/29/23 24/30/24
f 15/26/15 14/24/14 21/31/21 22/32/22
f 13/23/13 12/25/12 19/27/19 20/33/20
f 18/20/18 17/19/17 24/30/24 25/28/25
f 16/22/16 15/21/15 22/34/22 23/29/23
f 14/24/14 13/23/13 20/33/20 21/31/21
f 24/30/24 23/29/23 30/35/30 31/36/31
f 22/32/22 21/31/21 28/37/28 29/38/29
f 20/33/20 19/27/19 26/39/26 27/40/27
f 25/28/25 24/30/24 31/36/31 32/41/32
f 23/29/23 22/34/22 29/42/29 30/35/30
f 21/31/21 20/33/20 27/40/27 28/37/28
f 19/27/19 1/17/1 26/39/26
f 4/18/4 25/28/25 32/41/32
f 32/41/32 31/36/31 38/43/38 39/44/39
f 30/35/30 29/42/29 36/45/36 37/46/37
f 28/37/28 27/40/27 34/47/34 35/48/35
f 26/39/26 1/17/1 33/49/33
f 4/18/4 32/41/32 39/44/39
f 31/36/31 30/35/30 37/46/37 38/43/38
f 29/38/29 28/37/28 35/48/35 36/50/36
f 27/40/27 26/39/26 33/49/33 34/47/34
f 37/46/37 36/45/36 43/51/43 44/52/44
f 35/48/35 34/47/34 41/53/41 42/54/42
f 33/49/33 1/17/1 40/55/40
f 4/18/4 39/44/39 46/56/46
f 38/43/38 37/46/37 44/52/44 45/57/45
f 36/50/36 35/48/35 42/54/42 43/58/43
f 34/47/34 33/49/33 40/55/40 41/53/41
f 39/44/39 38/43/38 45/57/45 46/56/46
f 4/18/4 46/56/46 53/59/53
f 45/57/45 44/52/44 51/60/51 52/61/52
f 43/58/43 42/54/42 49/62/49 50/63/50
f 41/53/41 40/55/40 47/64/47 48/65/48
f 46/56/46 45/57/45 52/61/52 53/59/53
f 44/52/44 43/51/43 50/66/50 51/60/51
f 42/54/42 41/53/41 48/65/48 49/62/49
f 40/55/40 1/17/1 47/64/47
f 50/63/50 49/62/49 56/67/56 57/68/57
f 48/65/48 47/64/47 54/69/54 55/70/55
f 53/59/53 52/61/52 59/71/59 60/72/60
f 51/60/51 50/66/50 57/73/57 58/74/58
f 49/62/49 48/65/48 55/70/55 56/67/56
f 47/64/47 1/17/1 54/69/54
f 4/18/4 53/59/53 60/72/60
f 52/61/52 51/60/51 58/74/58 59/71/59
f 60/72/60 59/71/59 66/75/66 67/76/67
f 58/74/58 57/73/57 64/77/64 65/78/65
f 56/67/56 55/70/55 62/79/62 63/80/63
f 54/69/54 1/17/1 61/81/61
f 4/18/4 60/72/60 67/76/67
f 59/71/59 58/74/58 65/78/65 66/75/66
f 57/68/57 56/67/56 63/80/63 64/82/64
f 55/70/55 54/69/54 61/81/61 62/79/62
f 63/80/63 62/79/62 69/83/69 70/84/70
f 61/81/61 1/17/1 68/85/68
f 4/18/4 67/76/67 74/86/74
f 66/75/66 65/78/65 72/87/72 73/88/73
f 64/82/64 63/80/63 70/84/70 71/89/71
f 62/79/62 61/81/61 68/85/68 69/83/69
f 67/76/67 66/75/66 73/88/73 74/86/74
f 65/78/65 64/77/64 71/90/71 72/87/72
f 4/18/4 74/86/74 81/91/81
f 73/88/73 72/87/72 79/92/79 80/93/80
f 71/89/71 70/84/70 77/94/77 78/95/78
f 69/83/69 68/85/68 75/96/75 76/97/76
f 74/86/74 73/88/73 80/93/80 81/91/81
f 72/87/72 71/90/71 78/98/78 79/92/79
f 70/84/70 69/83/69 76/97/76 77/94/77
f 68/85/68 1/17/1 75/96/75
f 76/97/76 75/96/75 82/6/82 2/5/2
f 81/91/81 80/93/80 85/10/85 86/9/86
f 79/92/79 78/98/78 3/14/3 84/13/84
f 77/94/77 76/97/76 2/5/2 83/2/83
f 75/96/75 1/17/1 82/6/82
f 4/18/4 81/91/81 86/9/86
f 80/93/80 79/92/79 84/13/84 85/10/85
f 78/95/78 77/94/77 83/2/83 3/1/3
