# Blender 5.0.1
# www.blender.org
mtllib model.mtl
o togisMesh
v -0.000000 0.000000 -1.000000
v 0.741013 0.000000 -0.707107
v 0.957847 -0.000000 -0.389718
v 1.036766 -0.000000 0.007035
v 0.923879 0.000000 0.382683
v 0.662392 -0.000000 0.713961
v 0.000000 0.000000 1.000000
v 0.270598 0.270598 -0.923880
v 0.523975 0.523975 -0.707107
v 0.677300 0.677300 -0.389718
v 0.733104 0.733104 0.007035
v 0.653282 0.653281 0.382683
v 0.468382 0.468382 0.713961
v 0.253487 0.253487 0.917026
v -0.000000 0.382683 -0.923880
v -0.000000 0.741013 -0.707107
v -0.000000 0.957847 -0.389718
v -0.000000 1.036766 0.007035
v 0.000000 0.923879 0.382684
v 0.000000 0.662392 0.713961
v 0.000000 0.358484 0.917026
v -0.270598 0.270598 -0.923880
v -0.523975 0.523975 -0.707107
v -0.677300 0.677300 -0.389718
v -0.733104 0.733104 0.007035
v -0.653281 0.653281 0.382684
v -0.468382 0.468382 0.713961
v -0.253487 0.253487 0.917026
v -0.382684 0.000000 -0.923880
v -0.741013 0.000000 -0.707107
v -0.957847 -0.000000 -0.389718
v -1.036766 -0.000000 0.007035
v -0.923879 0.000000 0.382684
v -0.662392 -0.000000 0.713961
v -0.358484 -0.000000 0.917026
v -0.270598 -0.270598 -0.923880
v -0.523975 -0.523975 -0.707107
v -0.677300 -0.677300 -0.389718
v -0.733104 -0.733104 0.007035
v -0.653281 -0.653281 0.382684
v -0.468382 -0.468382 0.713961
v -0.253487 -0.253487 0.917026
v -0.000000 -0.382683 -0.923880
v -0.000000 -0.741013 -0.707107
v -0.000000 -0.957847 -0.389718
v -0.000000 -1.036766 0.007035
v 0.000000 -0.923879 0.382684
v 0.000000 -0.662392 0.713961
v 0.000000 -0.358484 0.917026
v 0.270598 -0.270598 -0.923880
v 0.523975 -0.523975 -0.707107
v 0.677300 -0.677300 -0.389718
v 0.733104 -0.733104 0.007035
v 0.653281 -0.653281 0.382683
v 0.468382 -0.468382 0.713961
v 0.253487 -0.253487 0.917026
v 0.382683 0.000000 -0.923880
v 0.358484 -0.000000 0.917026
v 0.845753 -0.585803 0.622700
v 0.794763 -0.567608 0.789320
v 0.661273 -0.519972 0.892297
v 0.496269 -0.461092 0.892297
v 0.362779 -0.413457 0.789320
v 0.311790 -0.395262 0.622700
v 0.848021 -0.418361 0.674189
v 0.747446 -0.278485 0.706010
v 0.582442 -0.219605 0.706010
v 0.416037 -0.264209 0.674189
v 0.827679 -0.475368 0.487902
v 0.714531 -0.370725 0.404592
v 0.549527 -0.311845 0.404592
v 0.395694 -0.321217 0.487902
v 0.761848 -0.659847 0.487902
v 0.608015 -0.669219 0.404592
v 0.443011 -0.610339 0.404592
v 0.329864 -0.505696 0.487902
v 0.741506 -0.716855 0.674189
v 0.575100 -0.761459 0.706010
v 0.410096 -0.702579 0.706010
v 0.309521 -0.562704 0.674189
v -0.124527 0.062785 0.911736
v -0.095792 -0.654745 1.104267
v -0.126067 0.086579 1.000641
v -0.097332 -0.630951 1.193171
v 0.069301 0.063624 0.914869
v 0.040566 -0.654155 1.106471
v 0.067761 0.087417 1.003774
v 0.039026 -0.630361 1.195375
v -0.238310 -0.176925 0.973919
v -0.220994 -0.416068 1.038221
v -0.222534 -0.392275 1.127126
v -0.239850 -0.153131 1.062824
v 0.164228 -0.390602 1.133377
v 0.181544 -0.151308 1.069635
v 0.165768 -0.414395 1.044472
v 0.183084 -0.175102 0.980730
v 0.137308 -0.538324 -1.051957
v 0.137308 -0.538324 -0.777341
v -0.137308 -0.538324 -1.051957
v -0.137308 -0.538324 -0.777341
v 0.137308 -0.263707 -1.051957
v 0.137308 -0.263707 -0.777341
v -0.137308 -0.263707 -1.051957
v -0.137308 -0.263707 -0.777341
v -0.096024 -0.497039 -1.107771
v 0.096024 -0.497039 -1.107771
v -0.096024 -0.304992 -1.107771
v 0.096024 -0.304992 -1.107771
v 0.137308 0.289304 -1.051957
v 0.137308 0.289304 -0.777341
v -0.137308 0.289304 -1.051957
v -0.137308 0.289304 -0.777341
v 0.137308 0.563920 -1.051957
v 0.137308 0.563920 -0.777341
v -0.137308 0.563920 -1.051957
v -0.137308 0.563920 -0.777341
v -0.096024 0.330589 -1.107771
v 0.096024 0.330589 -1.107771
v -0.096024 0.522636 -1.107771
v 0.096024 0.522636 -1.107771
v 0.016993 0.181577 0.911736
v -0.695173 0.089407 1.104267
v 0.040556 0.185218 1.000641
v -0.671609 0.093048 1.193171
v 0.034994 -0.011415 0.914869
v -0.682509 -0.046363 1.106471
v 0.058558 -0.007774 1.003774
v -0.658945 -0.042721 1.195375
v -0.231853 0.273683 0.973919
v -0.468523 0.235255 1.038221
v -0.444959 0.238897 1.127126
v -0.208289 0.277324 1.062824
v -0.409039 -0.146197 1.133377
v -0.169153 -0.142252 1.069635
v -0.432603 -0.149838 1.044472
v -0.192717 -0.145894 0.980730
v 0.109492 -0.133996 0.935801
v 0.526012 0.669847 1.130202
v 0.106797 -0.159615 1.047512
v 0.523317 0.644227 1.241913
v -0.101713 -0.018954 0.957089
v 0.377429 0.750778 1.145178
v -0.104408 -0.044574 1.068800
v 0.374734 0.725159 1.256889
v 0.382753 0.060734 0.987052
v 0.513162 0.333274 1.052702
v 0.510467 0.307654 1.164414
v 0.380058 0.035114 1.098763
v 0.089030 0.537206 1.206892
v -0.079116 0.285221 1.145046
v 0.091724 0.562826 1.095181
v -0.076421 0.310841 1.033335
v 0.841655 0.665871 0.622700
v 0.796121 0.636585 0.789320
v 0.676913 0.559915 0.892297
v 0.529563 0.465146 0.892297
v 0.410355 0.388476 0.789320
v 0.364821 0.359191 0.622700
v 0.710401 0.769864 0.674189
v 0.538216 0.775565 0.706010
v 0.390866 0.680796 0.706010
v 0.324635 0.521755 0.674189
v 0.743143 0.718956 0.487902
v 0.591193 0.693194 0.404592
v 0.443844 0.598425 0.404592
v 0.357377 0.470847 0.487902
v 0.849098 0.554214 0.487902
v 0.762632 0.426637 0.404592
v 0.615283 0.331867 0.404592
v 0.463332 0.306106 0.487902
v 0.881840 0.503306 0.674189
v 0.815610 0.344266 0.706010
v 0.668260 0.249496 0.706010
v 0.496074 0.255198 0.674189
vn -0.0000 -0.0000 -1.0000
vn 0.7130 -0.0000 -0.7011
vn 0.9286 -0.0000 -0.3710
vn 0.9990 -0.0000 0.0452
vn 0.8960 -0.0000 0.4440
vn 0.6983 -0.0000 0.7158
vn -0.0000 -0.0000 1.0000
vn 0.2815 0.2815 -0.9174
vn 0.5042 0.5042 -0.7011
vn 0.6566 0.6566 -0.3710
vn 0.7064 0.7064 0.0452
vn 0.6336 0.6336 0.4440
vn 0.4938 0.4938 0.7158
vn 0.3064 0.3064 0.9012
vn -0.0000 0.3981 -0.9174
vn -0.0000 0.7130 -0.7011
vn -0.0000 0.9286 -0.3710
vn -0.0000 0.9990 0.0452
vn -0.0000 0.8960 0.4440
vn -0.0000 0.6983 0.7158
vn -0.0000 0.4334 0.9012
vn -0.2815 0.2815 -0.9174
vn -0.5042 0.5042 -0.7011
vn -0.6566 0.6566 -0.3710
vn -0.7064 0.7064 0.0452
vn -0.6336 0.6336 0.4440
vn -0.4938 0.4938 0.7158
vn -0.3064 0.3064 0.9012
vn -0.3981 -0.0000 -0.9174
vn -0.7130 -0.0000 -0.7011
vn -0.9286 -0.0000 -0.3710
vn -0.9990 -0.0000 0.0452
vn -0.8960 -0.0000 0.4440
vn -0.6983 -0.0000 0.7158
vn -0.4334 -0.0000 0.9012
vn -0.2815 -0.2815 -0.9174
vn -0.5042 -0.5042 -0.7011
vn -0.6566 -0.6566 -0.3710
vn -0.7064 -0.7064 0.0452
vn -0.6336 -0.6336 0.4440
vn -0.4938 -0.4938 0.7158
vn -0.3064 -0.3064 0.9012
vn -0.0000 -0.3981 -0.9174
vn -0.0000 -0.7130 -0.7011
vn -0.0000 -0.9286 -0.3710
vn -0.0000 -0.9990 0.0452
vn -0.0000 -0.8960 0.4440
vn -0.0000 -0.6983 0.7158
vn -0.0000 -0.4334 0.9012
vn 0.2815 -0.2815 -0.9174
vn 0.5042 -0.5042 -0.7011
vn 0.6566 -0.6566 -0.3710
vn 0.7064 -0.7064 0.0452
vn 0.6336 -0.6336 0.4440
vn 0.4938 -0.4938 0.7158
vn 0.3064 -0.3064 0.9012
vn 0.3981 -0.0000 -0.9174
vn 0.4334 -0.0000 0.9012
vn 0.9418 -0.3361 -0.0000
vn 0.7107 -0.2536 0.6562
vn 0.2632 -0.0939 0.9601
vn -0.2632 0.0939 0.9601
vn -0.7107 0.2536 0.6562
vn -0.9418 0.3361 -0.0000
vn 0.9205 0.3341 0.2028
vn 0.5701 0.7661 0.2967
vn 0.0437 0.9540 0.2967
vn -0.5010 0.8414 0.2028
vn 0.8403 0.1096 -0.5308
vn 0.4529 0.4376 -0.7768
vn -0.0736 0.6255 -0.7768
vn -0.5811 0.6169 -0.5308
vn 0.5811 -0.6169 -0.5308
vn 0.0736 -0.6255 -0.7768
vn -0.4529 -0.4376 -0.7768
vn -0.8403 -0.1096 -0.5308
vn 0.5010 -0.8414 0.2028
vn -0.0437 -0.9540 0.2967
vn -0.5701 -0.7661 0.2967
vn -0.9205 -0.3341 0.2028
vn -0.4202 0.4906 -0.7634
vn -0.4065 -0.8130 -0.4169
vn -0.4403 0.8026 0.4023
vn -0.4267 -0.4997 0.7538
vn 0.4403 0.4944 -0.7495
vn 0.4267 -0.8094 -0.4035
vn 0.4202 0.8063 0.4163
vn 0.4065 -0.4961 0.7673
vn -0.7320 -0.0417 -0.6801
vn -0.7086 -0.3668 -0.6028
vn -0.7309 -0.0229 0.6821
vn -0.7539 0.2972 0.5859
vn 0.7086 -0.0166 0.7054
vn 0.7320 0.3036 0.6100
vn 0.7309 -0.3605 -0.5795
vn 0.7539 -0.0352 -0.6560
vn 0.6649 -0.6649 -0.3405
vn 0.5774 -0.5774 0.5774
vn -0.6649 -0.6649 -0.3405
vn -0.5774 -0.5774 0.5774
vn 0.6649 0.6649 -0.3405
vn 0.5774 0.5774 0.5774
vn -0.6649 0.6649 -0.3405
vn -0.5774 0.5774 0.5774
vn -0.3583 -0.3583 -0.8622
vn 0.3583 -0.3583 -0.8622
vn -0.3583 0.3583 -0.8622
vn 0.3583 0.3583 -0.8622
vn 0.7071 -0.7071 -0.0000
vn -0.7071 -0.7071 -0.0000
vn 0.7071 0.7071 -0.0000
vn -0.7071 0.7071 -0.0000
vn 0.4515 0.4620 -0.7634
vn -0.8458 0.3329 -0.4169
vn 0.7605 0.5097 0.4023
vn -0.5355 0.3808 0.7538
vn 0.5314 -0.3948 -0.7495
vn -0.7684 -0.4967 -0.4035
vn 0.8404 -0.3471 0.4163
vn -0.4581 -0.4488 0.7673
vn -0.1063 0.7254 -0.6801
vn -0.4281 0.6734 -0.6028
vn -0.0875 0.7260 0.6821
vn 0.2292 0.7773 0.5859
vn 0.0462 -0.7073 0.7054
vn 0.3672 -0.7022 0.6100
vn -0.2944 -0.7599 -0.5795
vn 0.0317 -0.7541 -0.6560
vn 0.0657 -0.6410 -0.7647
vn 0.7067 0.5131 -0.4872
vn 0.0373 -0.9107 0.4113
vn 0.6782 0.2422 0.6939
vn -0.6871 -0.2309 -0.6888
vn -0.0223 0.9101 -0.4138
vn -0.7155 -0.5007 0.4872
vn -0.0508 0.6392 0.7673
vn 0.5998 -0.3229 -0.7321
vn 0.7414 -0.0256 -0.6706
vn 0.7101 -0.3229 0.6257
vn 0.5690 -0.6158 0.5451
vn -0.5493 0.3631 0.7526
vn -0.7310 0.0923 0.6761
vn -0.5180 0.6604 -0.5437
vn -0.7002 0.3852 -0.6011
vn 0.8411 0.5409 -0.0000
vn 0.6347 0.4082 0.6562
vn 0.2351 0.1512 0.9601
vn -0.2351 -0.1512 0.9601
vn -0.6347 -0.4082 0.6562
vn -0.8411 -0.5409 -0.0000
vn 0.2971 0.9331 0.2028
vn -0.2589 0.9192 0.2967
vn -0.7290 0.6168 0.2967
vn -0.9723 0.1167 0.2028
vn 0.4261 0.7326 -0.5308
vn -0.0702 0.6258 -0.7768
vn -0.5404 0.3235 -0.7768
vn -0.8433 -0.0838 -0.5308
vn 0.8433 0.0838 -0.5308
vn 0.5404 -0.3235 -0.7768
vn 0.0702 -0.6258 -0.7768
vn -0.4261 -0.7326 -0.5308
vn 0.9723 -0.1167 0.2028
vn 0.7290 -0.6168 0.2967
vn 0.2589 -0.9192 0.2967
vn -0.2971 -0.9331 0.2028
vt 0.274397 0.398482
vt 0.294900 0.439486
vt 0.253895 0.439487
vt 0.294900 0.480491
vt 0.294900 0.521495
vt 0.253895 0.521495
vt 0.253895 0.480491
vt 0.294900 0.562500
vt 0.294900 0.603505
vt 0.253895 0.603505
vt 0.253895 0.562500
vt 0.294900 0.644509
vt 0.294900 0.685514
vt 0.253895 0.685514
vt 0.253895 0.644509
vt 0.274397 0.726518
vt 0.212891 0.480491
vt 0.212891 0.439486
vt 0.212891 0.562500
vt 0.212891 0.521495
vt 0.212891 0.644509
vt 0.212891 0.603505
vt 0.233393 0.726518
vt 0.212891 0.685514
vt 0.233393 0.398482
vt 0.171886 0.562500
vt 0.171886 0.521495
vt 0.171886 0.644509
vt 0.171886 0.603505
vt 0.192388 0.726518
vt 0.171886 0.685514
vt 0.192388 0.398482
vt 0.171886 0.439487
vt 0.171886 0.480491
vt 0.151384 0.398482
vt 0.130882 0.439486
vt 0.130882 0.521495
vt 0.130882 0.480491
vt 0.130882 0.603505
vt 0.130882 0.562500
vt 0.130882 0.685514
vt 0.130882 0.644509
vt 0.151384 0.726518
vt 0.089877 0.603505
vt 0.089877 0.562500
vt 0.089877 0.685514
vt 0.089877 0.644509
vt 0.089877 0.480491
vt 0.089877 0.439487
vt 0.089877 0.521495
vt 0.110379 0.726518
vt 0.110379 0.398482
vt 0.048873 0.480491
vt 0.048873 0.439486
vt 0.048873 0.562500
vt 0.048873 0.521495
vt 0.048873 0.644509
vt 0.048873 0.603505
vt 0.069375 0.726518
vt 0.048873 0.685514
vt 0.069375 0.398482
vt 0.376909 0.603505
vt 0.376909 0.644509
vt 0.335904 0.644509
vt 0.335904 0.603505
vt 0.376909 0.685514
vt 0.356406 0.726518
vt 0.335904 0.685514
vt 0.356406 0.398482
vt 0.376909 0.439486
vt 0.335904 0.439487
vt 0.376909 0.480491
vt 0.376909 0.521495
vt 0.335904 0.521495
vt 0.335904 0.480491
vt 0.376909 0.562500
vt 0.335904 0.562500
vt 0.315402 0.398482
vt 0.315402 0.726518
vt 0.526840 0.093750
vt 0.534463 0.089938
vt 0.534463 0.097562
vt 0.542087 0.089938
vt 0.549710 0.089938
vt 0.549710 0.097562
vt 0.542087 0.097562
vt 0.280248 0.132246
vt 0.326513 0.098633
vt 0.344185 0.153021
vt 0.557334 0.089938
vt 0.557334 0.097562
vt 0.542087 0.105185
vt 0.534463 0.105185
vt 0.557334 0.105185
vt 0.549710 0.105185
vt 0.526840 0.101374
vt 0.383700 0.098633
vt 0.542087 0.112809
vt 0.534463 0.112809
vt 0.557334 0.112809
vt 0.549710 0.112809
vt 0.526840 0.108997
vt 0.344185 0.044245
vt 0.534463 0.074691
vt 0.542087 0.074691
vt 0.542087 0.082315
vt 0.534463 0.082315
vt 0.549710 0.074691
vt 0.557334 0.074691
vt 0.557334 0.082315
vt 0.549710 0.082315
vt 0.526840 0.078503
vt 0.280248 0.065019
vt 0.526840 0.086127
vt 0.718537 0.324820
vt 0.759127 0.324820
vt 0.759127 0.446589
vt 0.718537 0.446589
vt 0.759127 0.568359
vt 0.718537 0.568359
vt 0.759127 0.690129
vt 0.718537 0.690129
vt 0.759127 0.811899
vt 0.718537 0.811899
vt 0.515587 0.568359
vt 0.637357 0.568359
vt 0.637357 0.690129
vt 0.515587 0.690129
vt 0.880897 0.568359
vt 0.880897 0.690129
vt 0.677947 0.690129
vt 0.677947 0.811899
vt 0.637357 0.811899
vt 0.677947 0.568359
vt 0.637357 0.446589
vt 0.677947 0.446589
vt 0.637357 0.324820
vt 0.677947 0.324820
vt 0.162311 0.299260
vt 0.116529 0.256177
vt 0.205356 0.263407
vt 0.165881 0.303905
vt 0.201811 0.345386
vt 0.162795 0.308160
vt 0.119570 0.345386
vt 0.158069 0.304753
vt 0.164498 0.303807
vt 0.160901 0.304741
vt 0.625000 0.500000
vt 0.875000 0.500000
vt 0.875000 0.750000
vt 0.625000 0.750000
vt 0.164858 0.304849
vt 0.162762 0.306613
s 1
g togisMesh_togisMat
usemtl togisMat
f 7/1/7 58/2/58 14/3/14
f 6/4/6 5/5/5 12/6/12 13/7/13
f 4/8/4 3/9/3 10/10/10 11/11/11
f 2/12/2 57/13/57 8/14/8 9/15/9
f 58/2/58 6/4/6 13/7/13 14/3/14
f 5/5/5 4/8/4 11/11/11 12/6/12
f 3/9/3 2/12/2 9/15/9 10/10/10
f 57/13/57 1/16/1 8/14/8
f 14/3/14 13/7/13 20/17/20 21/18/21
f 12/6/12 11/11/11 18/19/18 19/20/19
f 10/10/10 9/15/9 16/21/16 17/22/17
f 8/14/8 1/23/1 15/24/15
f 7/25/7 14/3/14 21/18/21
f 13/7/13 12/6/12 19/20/19 20/17/20
f 11/11/11 10/10/10 17/22/17 18/19/18
f 9/15/9 8/14/8 15/24/15 16/21/16
f 19/20/19 18/19/18 25/26/25 26/27/26
f 17/22/17 16/21/16 23/28/23 24/29/24
f 15/24/15 1/30/1 22/31/22
f 7/32/7 21/18/21 28/33/28
f 20/17/20 19/20/19 26/27/26 27/34/27
f 18/19/18 17/22/17 24/29/24 25/26/25
f 16/21/16 15/24/15 22/31/22 23/28/23
f 21/18/21 20/17/20 27/34/27 28/33/28
f 7/35/7 28/33/28 35/36/35
f 27/34/27 26/27/26 33/37/33 34/38/34
f 25/26/25 24/29/24 31/39/31 32/40/32
f 23/28/23 22/31/22 29/41/29 30/42/30
f 28/33/28 27/34/27 34/38/34 35/36/35
f 26/27/26 25/26/25 32/40/32 33/37/33
f 24/29/24 23/28/23 30/42/30 31/39/31
f 22/31/22 1/43/1 29/41/29
f 32/40/32 31/39/31 38/44/38 39/45/39
f 30/42/30 29/41/29 36/46/36 37/47/37
f 35/36/35 34/38/34 41/48/41 42/49/42
f 33/37/33 32/40/32 39/45/39 40/50/40
f 31/39/31 30/42/30 37/47/37 38/44/38
f 29/41/29 1/51/1 36/46/36
f 7/52/7 35/36/35 42/49/42
f 34/38/34 33/37/33 40/50/40 41/48/41
f 42/49/42 41/48/41 48/53/48 49/54/49
f 40/50/40 39/45/39 46/55/46 47/56/47
f 38/44/38 37/47/37 44/57/44 45/58/45
f 36/46/36 1/59/1 43/60/43
f 7/61/7 42/49/42 49/54/49
f 41/48/41 40/50/40 47/56/47 48/53/48
f 39/45/39 38/44/38 45/58/45 46/55/46
f 37/47/37 36/46/36 43/60/43 44/57/44
f 45/62/45 44/63/44 51/64/51 52/65/52
f 43/66/43 1/67/1 50/68/50
f 7/69/7 49/70/49 56/71/56
f 48/72/48 47/73/47 54/74/54 55/75/55
f 46/76/46 45/62/45 52/65/52 53/77/53
f 44/63/44 43/66/43 50/68/50 51/64/51
f 49/70/49 48/72/48 55/75/55 56/71/56
f 47/73/47 46/76/46 53/77/53 54/74/54
f 7/78/7 56/71/56 58/2/58
f 55/75/55 54/74/54 5/5/5 6/4/6
f 53/77/53 52/65/52 3/9/3 4/8/4
f 51/64/51 50/68/50 57/13/57 2/12/2
f 56/71/56 55/75/55 6/4/6 58/2/58
f 54/74/54 53/77/53 4/8/4 5/5/5
f 52/65/52 51/64/51 2/12/2 3/9/3
f 50/68/50 1/79/1 57/13/57
f 64/80/64 63/81/63 68/82/68
f 62/83/62 61/84/61 66/85/66 67/86/67
f 60/87/60 59/88/59 65/89/65
f 63/81/63 62/83/62 67/86/67 68/82/68
f 61/84/61 60/90/60 65/91/65 66/85/66
f 68/82/68 67/86/67 71/92/71 72/93/72
f 66/85/66 65/91/65 69/94/69 70/95/70
f 64/96/64 68/82/68 72/93/72
f 67/86/67 66/85/66 70/95/70 71/92/71
f 65/89/65 59/88/59 69/97/69
f 72/93/72 71/92/71 75/98/75 76/99/76
f 70/95/70 69/94/69 73/100/73 74/101/74
f 64/102/64 72/93/72 76/99/76
f 71/92/71 70/95/70 74/101/74 75/98/75
f 69/97/69 59/88/59 73/103/73
f 76/104/76 75/105/75 79/106/79 80/107/80
f 74/108/74 73/109/73 77/110/77 78/111/78
f 64/112/64 76/104/76 80/107/80
f 75/105/75 74/108/74 78/111/78 79/106/79
f 73/103/73 59/88/59 77/113/77
f 80/107/80 79/106/79 62/83/62 63/81/63
f 78/111/78 77/110/77 60/90/60 61/84/61
f 64/114/64 80/107/80 63/81/63
f 79/106/79 78/111/78 61/84/61 62/83/62
f 77/113/77 59/88/59 60/87/60
f 90/115/90 82/116/82 84/117/84 91/118/91
f 91/118/91 84/117/84 88/119/88 93/120/93
f 93/120/93 88/119/88 86/121/86 95/122/95
f 95/122/95 86/121/86 82/123/82 90/124/90
f 83/125/83 87/126/87 85/127/85 81/128/81
f 88/119/88 84/129/84 82/130/82 86/121/86
f 85/127/85 96/131/96 89/132/89 81/133/81
f 96/131/96 95/122/95 90/124/90 89/132/89
f 87/126/87 94/134/94 96/131/96 85/127/85
f 94/134/94 93/120/93 95/122/95 96/131/96
f 83/135/83 92/136/92 94/134/94 87/126/87
f 92/136/92 91/118/91 93/120/93 94/134/94
f 81/137/81 89/138/89 92/136/92 83/135/83
f 89/138/89 90/115/90 91/118/91 92/136/92
f 97/139/97 98/140/98 100/141/100 99/142/99
f 99/142/99 100/141/100 104/143/104 103/144/103
f 103/144/103 104/143/104 102/145/102 101/146/101
f 101/146/101 102/145/102 98/140/98 97/139/97
f 101/146/101 97/139/97 106/147/106 108/148/108
f 104/149/104 100/150/100 98/151/98 102/152/102
f 105/153/105 107/154/107 108/148/108 106/147/106
f 99/142/99 103/144/103 107/154/107 105/153/105
f 97/139/97 99/142/99 105/153/105 106/147/106
f 103/144/103 101/146/101 108/148/108 107/154/107
f 109/139/97 110/140/109 112/141/110 111/142/99
f 111/142/99 112/141/110 116/143/112 115/144/103
f 115/144/103 116/143/112 114/145/111 113/146/101
f 113/146/101 114/145/111 110/140/109 109/139/97
f 113/146/101 109/139/97 118/147/106 120/148/108
f 117/153/105 119/154/107 120/148/108 118/147/106
f 111/142/99 115/144/103 119/154/107 117/153/105
f 109/139/97 111/142/99 117/153/105 118/147/106
f 115/144/103 113/146/101 120/148/108 119/154/107
f 130/115/122 122/116/114 124/117/116 131/118/123
f 131/118/123 124/117/116 128/119/120 133/120/125
f 133/120/125 128/119/120 126/121/118 135/122/127
f 135/122/127 126/121/118 122/123/114 130/124/122
f 123/125/115 127/126/119 125/127/117 121/128/113
f 128/119/120 124/129/116 122/130/114 126/121/118
f 125/127/117 136/131/128 129/132/121 121/133/113
f 136/131/128 135/122/127 130/124/122 129/132/121
f 127/126/119 134/134/126 136/131/128 125/127/117
f 134/134/126 133/120/125 135/122/127 136/131/128
f 123/135/115 132/136/124 134/134/126 127/126/119
f 132/136/124 131/118/123 133/120/125 134/134/126
f 121/137/113 129/138/121 132/136/124 123/135/115
f 129/138/121 130/115/122 131/118/123 132/136/124
f 146/115/138 138/116/130 140/117/132 147/118/139
f 147/118/139 140/117/132 144/119/136 149/120/141
f 149/120/141 144/119/136 142/121/134 151/122/143
f 151/122/143 142/121/134 138/123/130 146/124/138
f 139/125/131 143/126/135 141/127/133 137/128/129
f 144/119/136 140/129/132 138/130/130 142/121/134
f 141/127/133 152/131/144 145/132/137 137/133/129
f 152/131/144 151/122/143 146/124/138 145/132/137
f 143/126/135 150/134/142 152/131/144 141/127/133
f 150/134/142 149/120/141 151/122/143 152/131/144
f 139/135/131 148/136/140 150/134/142 143/126/135
f 148/136/140 147/118/139 149/120/141 150/134/142
f 137/137/129 145/138/137 148/136/140 139/135/131
f 145/138/137 146/115/138 147/118/139 148/136/140
f 158/80/150 157/81/149 162/82/154
f 156/83/148 155/84/147 160/85/152 161/86/153
f 154/87/146 153/88/145 159/89/151
f 157/81/149 156/83/148 161/86/153 162/82/154
f 155/84/147 154/90/146 159/91/151 160/85/152
f 162/82/154 161/86/153 165/92/157 166/93/158
f 160/85/152 159/91/151 163/94/155 164/95/156
f 158/96/150 162/82/154 166/93/158
f 161/86/153 160/85/152 164/95/156 165/92/157
f 159/89/151 153/88/145 163/97/155
f 166/93/158 165/92/157 169/98/161 170/99/162
f 164/95/156 163/94/155 167/100/159 168/101/160
f 158/102/150 166/93/158 170/99/162
f 165/92/157 164/95/156 168/101/160 169/98/161
f 163/97/155 153/88/145 167/103/159
f 170/104/162 169/105/161 173/106/165 174/107/166
f 168/108/160 167/109/159 171/110/163 172/111/164
f 158/112/150 170/104/162 174/107/166
f 169/105/161 168/108/160 172/111/164 173/106/165
f 167/103/159 153/88/145 171/113/163
f 174/107/166 173/106/165 156/83/148 157/81/149
f 172/111/164 171/110/163 154/90/146 155/84/147
f 158/114/150 174/107/166 157/81/149
f 173/106/165 172/111/164 155/84/147 156/83/148
f 171/113/163 153/88/145 154/87/146
