# Blender 5.0.1
# www.blender.org
mtllib model.mtl
o fartMesh
v 0.489855 -0.398397 0.799646
v 0.627317 -0.340733 0.744013
v 0.530789 -0.272667 0.821526
v 0.649974 -0.271143 0.756123
v 0.613168 -0.170827 0.793160
v 0.695569 -0.214776 0.740424
v 0.714918 -0.120164 0.722150
v 0.751886 -0.186735 0.701121
v 0.808776 -0.134253 0.627522
v 0.803835 -0.194534 0.648746
v 0.869593 -0.209320 0.534632
v 0.837496 -0.236082 0.597333
v 0.881072 -0.325250 0.468369
v 0.843849 -0.300247 0.560657
v 0.840138 -0.450980 0.446489
v 0.821193 -0.369837 0.548547
v 0.757760 -0.552821 0.474854
v 0.775598 -0.426204 0.564247
v 0.656009 -0.603484 0.545865
v 0.719281 -0.454245 0.603550
v 0.562151 -0.589394 0.640492
v 0.667332 -0.446446 0.655925
v 0.501334 -0.514327 0.733383
v 0.633671 -0.404898 0.707338
v 0.547655 -0.281293 0.839539
v 0.506721 -0.407023 0.817659
v 0.630034 -0.179452 0.811174
v 0.731784 -0.128790 0.740164
v 0.825642 -0.142879 0.645536
v 0.886459 -0.217946 0.552645
v 0.897938 -0.333876 0.486383
v 0.857005 -0.459606 0.464502
v 0.774626 -0.561447 0.492868
v 0.672876 -0.612110 0.563878
v 0.579018 -0.598020 0.658506
v 0.518201 -0.522953 0.751396
v 0.489855 0.398397 0.799646
v 0.602914 0.307924 0.773462
v 0.530789 0.272667 0.821526
v 0.625570 0.238335 0.785572
v 0.613168 0.170827 0.793160
v 0.671166 0.181968 0.769872
v 0.714918 0.120164 0.722150
v 0.727483 0.153927 0.730569
v 0.808776 0.134253 0.627522
v 0.779431 0.161725 0.678194
v 0.869593 0.209320 0.534632
v 0.813092 0.203274 0.626781
v 0.881072 0.325250 0.468369
v 0.819446 0.267439 0.590106
v 0.840138 0.450980 0.446489
v 0.796790 0.337028 0.577996
v 0.757760 0.552821 0.474854
v 0.751195 0.393395 0.593695
v 0.656009 0.603484 0.545865
v 0.694878 0.421436 0.632998
v 0.562151 0.589394 0.640492
v 0.642929 0.413638 0.685373
v 0.501334 0.514327 0.733383
v 0.609268 0.372090 0.736786
v 0.547655 0.281293 0.839539
v 0.506721 0.407023 0.817659
v 0.630034 0.179452 0.811174
v 0.731784 0.128790 0.740164
v 0.825642 0.142879 0.645536
v 0.886459 0.217946 0.552645
v 0.897938 0.333876 0.486383
v 0.857005 0.459606 0.464502
v 0.774626 0.561447 0.492868
v 0.672876 0.612110 0.563878
v 0.579018 0.598020 0.658506
v 0.518201 0.522953 0.751396
v 1.011736 -0.000918 -0.000565
v 0.715338 -0.000918 0.715005
v -0.000232 -0.000918 1.011403
v -1.012199 -0.000918 -0.000565
v 0.934705 0.192713 0.334815
v 0.715338 0.356866 0.619136
v 0.387032 0.466550 0.809114
v -0.000231 0.505066 0.875825
v -0.387495 0.466550 0.809114
v -0.715801 0.356866 0.619137
v -0.935168 0.192713 0.334815
v 0.934705 0.334462 0.193067
v 0.715338 0.618783 0.357220
v 0.387032 0.808760 0.466904
v -0.000231 0.875472 0.505419
v -0.387495 0.808760 0.466904
v -0.715801 0.618783 0.357220
v -0.935168 0.334462 0.193067
v 0.934705 0.386345 -0.000565
v 0.715338 0.714651 -0.000565
v 0.387032 0.934018 -0.000565
v -0.000232 1.011050 -0.000565
v -0.387495 0.934018 -0.000565
v -0.715801 0.714651 -0.000565
v -0.935168 0.386345 -0.000565
v 0.934705 0.334462 -0.194196
v 0.715338 0.618783 -0.358349
v 0.387032 0.808760 -0.468033
v -0.000231 0.875472 -0.506548
v -0.387495 0.808760 -0.468033
v -0.715801 0.618783 -0.358349
v -0.935168 0.334462 -0.194196
v 0.934705 0.192713 -0.335944
v 0.715338 0.356866 -0.620266
v 0.387032 0.466550 -0.810243
v -0.000232 0.505066 -0.876954
v -0.387495 0.466550 -0.810243
v -0.715801 0.356866 -0.620266
v -0.935168 0.192713 -0.335944
v 0.934705 -0.000918 -0.387828
v 0.715338 -0.000918 -0.716134
v 0.387032 -0.000918 -0.935501
v -0.000232 -0.000918 -1.012532
v -0.387495 -0.000918 -0.935501
v -0.715801 -0.000918 -0.716134
v -0.935168 -0.000918 -0.387828
v 0.934705 -0.194550 -0.335944
v 0.715338 -0.358703 -0.620266
v 0.387032 -0.468386 -0.810243
v -0.000232 -0.506902 -0.876954
v -0.387495 -0.468386 -0.810243
v -0.715801 -0.358703 -0.620266
v -0.935168 -0.194550 -0.335944
v 0.934705 -0.336298 -0.194196
v 0.715338 -0.620619 -0.358349
v 0.387032 -0.810597 -0.468033
v -0.000232 -0.877308 -0.506548
v -0.387495 -0.810597 -0.468033
v -0.715801 -0.620619 -0.358349
v -0.935168 -0.336298 -0.194196
v 0.934705 -0.388182 -0.000565
v 0.715338 -0.716487 -0.000565
v 0.387032 -0.935854 -0.000565
v -0.000231 -1.012886 -0.000565
v -0.387495 -0.935855 -0.000565
v -0.715801 -0.716488 -0.000565
v -0.935168 -0.388182 -0.000565
v 0.934705 -0.336298 0.193067
v 0.715338 -0.620619 0.357220
v 0.387032 -0.810597 0.466904
v -0.000231 -0.877308 0.505419
v -0.387495 -0.810597 0.466904
v -0.715801 -0.620619 0.357220
v -0.935168 -0.336298 0.193067
v 0.934705 -0.194550 0.334815
v 0.715338 -0.358703 0.619136
v 0.387032 -0.468386 0.809114
v -0.000231 -0.506902 0.875825
v -0.387495 -0.468386 0.809114
v -0.715801 -0.358703 0.619137
v -0.935168 -0.194550 0.334815
v 0.934705 -0.000918 0.386699
v 0.387032 -0.000918 0.934372
v -0.387495 -0.000918 0.934372
v -0.715801 -0.000918 0.715005
v -0.935168 -0.000918 0.386699
v 0.861088 0.286464 -0.519806
v 0.841198 0.223040 -0.607422
v 0.844060 -0.496015 -0.166621
v 0.943874 -0.183634 -0.286544
v 0.841075 -0.520278 -0.273433
v 0.933674 -0.219315 -0.390069
v 0.946664 -0.531777 -0.275673
v 1.038480 -0.192377 -0.409679
v 0.949649 -0.507515 -0.168861
v 1.048680 -0.156696 -0.306155
v 0.943940 0.239807 -0.642883
v 0.963830 0.303230 -0.555268
v 0.577195 -0.765033 -0.107915
v 0.552426 -0.788949 -0.210671
v 0.643345 -0.843460 -0.215392
v 0.668114 -0.819544 -0.112636
v 0.858620 0.325379 -0.575383
v 0.915801 0.334710 -0.595119
v 0.904731 0.299412 -0.643881
v 0.847550 0.290080 -0.624145
v 0.949860 0.180187 -0.608204
v 0.846949 0.163745 -0.573108
v 0.866915 0.226536 -0.485077
v 0.969827 0.242978 -0.520173
v 0.380769 -0.406973 -1.100615
v -0.056650 -0.321364 -1.100615
v -0.056650 -0.321364 -0.909780
v 0.405354 -0.358601 -1.100615
v 0.078374 -0.055701 -1.100615
v 0.078374 -0.055701 -0.909780
v 0.076181 -0.388876 -1.100615
v 0.076181 -0.388876 -0.909780
v 0.211206 -0.123213 -1.100615
v 0.211206 -0.123213 -0.909780
v 0.963590 -0.286464 -0.519806
v 0.943700 -0.223040 -0.607422
v 0.844060 0.496015 -0.166621
v 0.978388 0.183634 -0.286544
v 0.841075 0.520278 -0.273433
v 0.968188 0.219315 -0.390069
v 0.946664 0.531777 -0.275673
v 1.072994 0.192377 -0.409679
v 0.949649 0.507515 -0.168861
v 1.083194 0.156696 -0.306155
v 1.046442 -0.239807 -0.642883
v 1.066332 -0.303230 -0.555268
v 0.577195 0.765033 -0.107915
v 0.552426 0.788949 -0.210671
v 0.643345 0.843460 -0.215392
v 0.668114 0.819544 -0.112636
v 0.961122 -0.325379 -0.575383
v 1.018303 -0.334710 -0.595119
v 1.007233 -0.299412 -0.643881
v 0.950052 -0.290080 -0.624145
v 1.052362 -0.180187 -0.608204
v 0.949451 -0.163745 -0.573108
v 0.969417 -0.226536 -0.485077
v 1.072329 -0.242978 -0.520173
v 0.380769 0.406973 -1.100615
v -0.056650 0.321364 -1.100615
v -0.056650 0.321364 -0.909780
v 0.405354 0.358601 -1.100615
v 0.078374 0.055701 -1.100615
v 0.078374 0.055701 -0.909780
v 0.076181 0.388876 -1.100615
v 0.076181 0.388876 -0.909780
v 0.211206 0.123213 -1.100615
v 0.211206 0.123213 -0.909780
v 0.112985 -0.865371 0.729782
v 0.112985 0.865371 0.729782
v -0.112985 -0.865371 0.729782
v -0.112985 0.865371 0.729782
v 0.112985 -0.865371 0.503811
v 0.112985 0.865371 0.503811
v -0.112985 -0.865371 0.503811
v -0.112985 0.865371 0.503811
v 0.112985 -0.576914 0.909029
v 0.112985 -0.288457 1.049955
v 0.112985 0.000000 1.107044
v 0.112985 0.288457 1.049955
v 0.112985 0.576914 0.909029
v -0.112985 0.576914 0.909029
v -0.112985 0.288457 1.049955
v -0.112985 -0.000000 1.107044
v -0.112985 -0.288457 1.049955
v -0.112985 -0.576914 0.909029
v -0.112985 0.721142 0.595381
v -0.112985 0.576914 0.683059
v -0.112985 0.432685 0.761156
v -0.112985 0.288457 0.823984
v -0.112985 0.144228 0.865853
v -0.112985 -0.000000 0.881073
v -0.112985 -0.144229 0.865853
v -0.112985 -0.288457 0.823984
v -0.112985 -0.432685 0.761156
v -0.112985 -0.576914 0.683059
v -0.112985 -0.721142 0.595381
v 0.112985 0.721142 0.595381
v 0.112985 0.576914 0.683059
v 0.112985 0.432685 0.761156
v 0.112985 0.288457 0.823984
v 0.112985 0.144228 0.865853
v 0.112985 -0.000000 0.881073
v 0.112985 -0.144229 0.865853
v 0.112985 -0.288457 0.823984
v 0.112985 -0.432685 0.761156
v 0.112985 -0.576914 0.683059
v 0.112985 -0.721142 0.595381
v 0.112985 -0.667177 0.928894
v 0.112985 -0.775107 0.861516
v 0.112985 -0.721142 0.871904
v 0.112985 -0.378720 1.085904
v 0.112985 -0.486650 1.032863
v 0.112985 -0.432685 1.037315
v 0.112985 -0.090263 1.173346
v 0.112985 -0.198194 1.151655
v 0.112985 -0.144228 1.141649
v 0.112985 0.198194 1.151655
v 0.112985 0.090263 1.173346
v 0.112985 0.144228 1.141649
v 0.112985 0.486650 1.032863
v 0.112985 0.378720 1.085904
v 0.112985 0.432685 1.037315
v 0.112985 0.775107 0.861516
v 0.112985 0.667177 0.928894
v 0.112985 0.721142 0.871904
v -0.112985 0.667177 0.928894
v -0.112985 0.775107 0.861516
v -0.112985 0.721142 0.871904
v -0.112985 0.378720 1.085904
v -0.112985 0.486650 1.032863
v -0.112985 0.432685 1.037315
v -0.112985 0.090263 1.173346
v -0.112985 0.198193 1.151655
v -0.112985 0.144228 1.141649
v -0.112985 -0.198194 1.151655
v -0.112985 -0.090263 1.173346
v -0.112985 -0.144229 1.141649
v -0.112985 -0.486651 1.032863
v -0.112985 -0.378720 1.085904
v -0.112985 -0.432685 1.037315
v -0.112985 -0.775107 0.861516
v -0.112985 -0.667177 0.928894
v -0.112985 -0.721142 0.871904
vn -0.7003 0.1051 0.7061
vn -0.4538 0.5601 0.6931
vn -0.0857 0.8650 0.4944
vn 0.3054 0.9381 0.1633
vn 0.6147 0.7599 -0.2116
vn 0.7592 0.3780 -0.5298
vn 0.7003 -0.1051 -0.7061
vn 0.4538 -0.5601 -0.6931
vn 0.0857 -0.8650 -0.4944
vn -0.3054 -0.9381 -0.1633
vn 0.6452 -0.3300 0.6891
vn -0.6147 -0.7599 0.2116
vn -0.7592 -0.3780 0.5298
vn -0.6452 0.3300 -0.6891
vn 0.6167 -0.3255 0.7168
vn 0.6205 -0.3001 0.7246
vn 0.6373 -0.2662 0.7232
vn 0.6712 -0.2398 0.7014
vn 0.7017 -0.2549 0.6654
vn 0.7013 -0.3001 0.6466
vn 0.6829 -0.3353 0.6491
vn 0.6635 -0.3529 0.6597
vn 0.6477 -0.3592 0.6718
vn 0.6355 -0.3586 0.6837
vn 0.6262 -0.3530 0.6952
vn 0.6196 -0.3424 0.7063
vn -0.7003 -0.1051 0.7061
vn -0.4538 -0.5601 0.6931
vn -0.0857 -0.8650 0.4944
vn 0.3054 -0.9381 0.1633
vn 0.6147 -0.7599 -0.2116
vn 0.7592 -0.3780 -0.5298
vn 0.7003 0.1051 -0.7061
vn 0.4538 0.5601 -0.6931
vn 0.0857 0.8650 -0.4944
vn -0.3054 0.9381 -0.1633
vn 0.6452 0.3300 0.6891
vn -0.6147 0.7599 0.2116
vn -0.7592 0.3780 0.5298
vn -0.6452 -0.3300 -0.6891
vn 0.6538 0.3313 0.6803
vn 0.6552 0.3424 0.6734
vn 0.6482 0.3658 0.6678
vn 0.6321 0.3684 0.6818
vn 0.6315 0.3466 0.6936
vn 0.6359 0.3346 0.6955
vn 0.6395 0.3291 0.6948
vn 0.6424 0.3265 0.6934
vn 0.6447 0.3252 0.6918
vn 0.6469 0.3248 0.6900
vn 0.6491 0.3252 0.6877
vn 0.6514 0.3269 0.6847
vn -0.0000 -0.0000 1.0000
vn 0.3718 -0.0000 0.9283
vn 0.3718 0.4642 0.8040
vn -0.0000 0.5000 0.8660
vn 0.6913 -0.0000 0.7226
vn 0.9122 -0.0000 0.4097
vn 0.9122 0.2049 0.3548
vn 0.6913 0.3613 0.6258
vn -0.9122 -0.0000 0.4097
vn -0.6913 -0.0000 0.7226
vn -0.6913 0.3613 0.6258
vn -0.9122 0.2049 0.3548
vn -0.3718 -0.0000 0.9283
vn -0.3718 0.4642 0.8040
vn 1.0000 -0.0000 -0.0000
vn -1.0000 -0.0000 -0.0000
vn -0.6913 0.6258 0.3613
vn -0.9122 0.3548 0.2049
vn -0.0000 0.8660 0.5000
vn -0.3718 0.8040 0.4642
vn 0.6913 0.6258 0.3613
vn 0.3718 0.8040 0.4642
vn 0.9122 0.3548 0.2049
vn 0.9122 0.4097 -0.0000
vn -0.9122 0.4097 -0.0000
vn -0.3718 0.9283 -0.0000
vn -0.6913 0.7226 -0.0000
vn 0.3718 0.9283 -0.0000
vn -0.0000 1.0000 -0.0000
vn 0.6913 0.7226 -0.0000
vn -0.3718 0.8040 -0.4642
vn -0.6913 0.6258 -0.3613
vn 0.3718 0.8040 -0.4642
vn -0.0000 0.8660 -0.5000
vn 0.9122 0.3548 -0.2049
vn 0.6913 0.6258 -0.3613
vn -0.9122 0.3548 -0.2049
vn -0.6913 0.3613 -0.6258
vn -0.9122 0.2049 -0.3548
vn -0.0000 0.5000 -0.8660
vn -0.3718 0.4642 -0.8040
vn 0.6913 0.3613 -0.6258
vn 0.3718 0.4642 -0.8040
vn 0.9122 0.2049 -0.3548
vn -0.0000 -0.0000 -1.0000
vn -0.3718 -0.0000 -0.9283
vn 0.6913 -0.0000 -0.7226
vn 0.3718 -0.0000 -0.9283
vn 0.9122 -0.0000 -0.4097
vn -0.9122 -0.0000 -0.4097
vn -0.6913 -0.0000 -0.7226
vn -0.9122 -0.2049 -0.3548
vn -0.3718 -0.4642 -0.8040
vn -0.6913 -0.3613 -0.6258
vn 0.3718 -0.4642 -0.8040
vn -0.0000 -0.5000 -0.8660
vn 0.9122 -0.2049 -0.3548
vn 0.6913 -0.3613 -0.6258
vn 0.3718 -0.8040 -0.4642
vn -0.0000 -0.8660 -0.5000
vn 0.9122 -0.3548 -0.2049
vn 0.6913 -0.6258 -0.3613
vn -0.6913 -0.6258 -0.3613
vn -0.9122 -0.3548 -0.2049
vn -0.3718 -0.8040 -0.4642
vn -0.6913 -0.7226 -0.0000
vn -0.9122 -0.4097 -0.0000
vn -0.0000 -1.0000 -0.0000
vn -0.3718 -0.9283 -0.0000
vn 0.6913 -0.7226 -0.0000
vn 0.3718 -0.9283 -0.0000
vn 0.9122 -0.4097 -0.0000
vn 0.6913 -0.6258 0.3613
vn 0.3718 -0.8040 0.4642
vn 0.9122 -0.3548 0.2049
vn -0.9122 -0.3548 0.2049
vn -0.3718 -0.8040 0.4642
vn -0.6913 -0.6258 0.3613
vn -0.0000 -0.8660 0.5000
vn -0.9122 -0.2049 0.3548
vn -0.3718 -0.4642 0.8040
vn -0.6913 -0.3613 0.6258
vn 0.3718 -0.4642 0.8040
vn -0.0000 -0.5000 0.8660
vn 0.9122 -0.2049 0.3548
vn 0.6913 -0.3613 0.6258
vn -0.6230 0.1747 -0.7625
vn 0.6261 -0.5342 -0.5680
vn 0.0378 -0.8993 -0.4357
vn -0.8767 -0.2074 -0.4341
vn -0.8220 -0.3648 -0.4373
vn -0.5806 0.3175 0.7498
vn -0.5460 0.5200 0.6569
vn -0.8273 -0.2298 -0.5127
vn -0.4760 0.4910 0.7296
vn -0.5463 0.3674 0.7527
vn -0.7384 -0.2436 -0.6289
vn 0.6986 -0.1797 0.6926
vn -0.7462 0.0282 0.6651
vn 0.2111 -0.6775 0.7046
vn 0.5584 -0.3257 -0.7630
vn 0.5021 -0.1102 -0.8577
vn 0.6862 -0.3239 -0.6513
vn 0.7990 0.3762 0.4690
vn 0.7543 0.6105 0.2415
vn -0.7555 0.2860 -0.5895
vn 0.0902 0.4377 -0.8946
vn 0.8058 0.2211 0.5494
vn -0.5854 0.7988 0.1384
vn 0.2575 0.9529 -0.1605
vn -0.4531 -0.8915 -0.0000
vn -0.8915 0.4531 -0.0000
vn 0.7714 0.6363 -0.0000
vn 0.5024 -0.2553 0.8261
vn 0.4531 0.8915 -0.0000
vn -0.0593 -0.9982 -0.0000
vn -0.6142 -0.2142 -0.7595
vn -0.8767 0.2074 -0.4341
vn 0.0378 0.8993 -0.4357
vn 0.6024 0.5598 -0.5690
vn -0.8187 0.3121 -0.4820
vn -0.8273 0.2298 -0.5127
vn -0.5460 -0.5200 0.6569
vn -0.5610 -0.3627 0.7441
vn -0.4751 -0.5160 0.7128
vn -0.7368 0.1504 -0.6591
vn -0.5461 -0.4228 0.7232
vn 0.6778 0.2005 0.7074
vn 0.2111 0.6775 0.7046
vn -0.7462 -0.0282 0.6651
vn 0.5853 0.3609 -0.7261
vn 0.5021 0.1102 -0.8577
vn 0.6681 0.4044 -0.6245
vn 0.7543 -0.6105 0.2415
vn 0.8172 -0.3205 0.4789
vn 0.0902 -0.4377 -0.8946
vn -0.7555 -0.2860 -0.5895
vn 0.7953 -0.1410 0.5895
vn 0.2575 -0.9529 -0.1605
vn -0.5854 -0.7988 0.1384
vn -0.4531 0.8915 -0.0000
vn -0.8915 -0.4531 -0.0000
vn 0.7714 -0.6363 -0.0000
vn 0.5024 0.2553 0.8261
vn 0.4531 -0.8915 -0.0000
vn -0.0593 0.9982 -0.0000
vn -0.0000 -0.5360 -0.8442
vn -0.0000 0.5360 -0.8442
vn -0.0000 0.5195 -0.8545
vn -0.0000 0.4762 -0.8794
vn -0.0000 0.3994 -0.9168
vn -0.0000 0.2788 -0.9604
vn -0.0000 0.1049 -0.9945
vn -0.0000 -0.1049 -0.9945
vn -0.0000 -0.2788 -0.9604
vn -0.0000 -0.3994 -0.9168
vn -0.0000 -0.4762 -0.8794
vn -0.0000 -0.5195 -0.8545
vn -0.0000 -0.5296 0.8483
vn -0.0000 -0.4411 0.8975
vn -0.0000 -0.1970 0.9804
vn -0.0000 0.1970 0.9804
vn -0.0000 0.4411 0.8975
vn -0.0000 0.5296 0.8483
vn -0.0000 -0.8249 0.5652
vn -0.0000 0.2149 0.9766
vn -0.0000 -0.8081 0.5890
vn -0.0000 0.3700 0.9290
vn -0.0000 -0.7479 0.6638
vn -0.0000 0.5920 0.8059
vn -0.0000 -0.5920 0.8059
vn -0.0000 0.7479 0.6638
vn -0.0000 -0.3700 0.9290
vn -0.0000 0.8081 0.5890
vn -0.0000 -0.2149 0.9766
vn -0.0000 0.8249 0.5652
vt 0.982620 0.890864
vt 0.982183 0.890864
vt 0.982183 0.886386
vt 0.982620 0.886386
vt 0.982183 0.881909
vt 0.982620 0.881909
vt 0.982183 0.877431
vt 0.982620 0.877431
vt 0.982620 0.931163
vt 0.982183 0.931163
vt 0.982183 0.926685
vt 0.982620 0.926685
vt 0.982183 0.922207
vt 0.982620 0.922207
vt 0.982183 0.917730
vt 0.982620 0.917730
vt 0.982183 0.913252
vt 0.982620 0.913252
vt 0.982183 0.908774
vt 0.982620 0.908774
vt 0.982183 0.904297
vt 0.982620 0.904297
vt 0.982183 0.899819
vt 0.982620 0.899819
vt 0.991272 0.969788
vt 0.991272 0.972646
vt 0.990558 0.975121
vt 0.989320 0.976550
vt 0.987892 0.976550
vt 0.986654 0.975121
vt 0.985940 0.972646
vt 0.985940 0.969788
vt 0.986654 0.967314
vt 0.987892 0.965885
vt 0.989320 0.965885
vt 0.990558 0.967314
vt 0.982183 0.895342
vt 0.982620 0.895342
vt 0.983227 0.900259
vt 0.984346 0.896381
vt 0.986285 0.894142
vt 0.988524 0.894142
vt 0.990463 0.896381
vt 0.991582 0.900259
vt 0.991582 0.904736
vt 0.990463 0.908614
vt 0.988524 0.910853
vt 0.986285 0.910853
vt 0.984346 0.908614
vt 0.983227 0.904736
vt 0.988704 0.890370
vt 0.989942 0.888941
vt 0.990463 0.891903
vt 0.990656 0.886466
vt 0.991583 0.888026
vt 0.990656 0.883608
vt 0.991583 0.883548
vt 0.989942 0.881134
vt 0.990463 0.879670
vt 0.991583 0.883547
vt 0.988704 0.879705
vt 0.988524 0.877431
vt 0.987275 0.879705
vt 0.986285 0.877431
vt 0.986038 0.881134
vt 0.984346 0.879670
vt 0.985324 0.883609
vt 0.983227 0.883548
vt 0.985324 0.886466
vt 0.983227 0.888026
vt 0.986038 0.888941
vt 0.984346 0.891903
vt 0.987275 0.890370
vt 0.986285 0.894142
vt 0.502295 0.984785
vt 0.502295 0.914018
vt 0.717021 0.798946
vt 0.734713 0.860233
vt 0.502295 0.712491
vt 0.502295 0.410884
vt 0.591238 0.363220
vt 0.666640 0.624419
vt 0.168859 0.187191
vt 0.168859 0.243159
vt 0.199356 0.226816
vt 0.185364 0.178346
vt 0.168859 0.280556
vt 0.168859 0.293688
vt 0.211988 0.270576
vt 0.208705 0.259203
vt 0.502295 0.055114
vt 0.168859 0.121172
vt 0.221681 0.182166
vt 0.197446 0.154181
vt 0.243561 0.207430
vt 0.237875 0.200864
vt 0.786948 0.383802
vt 0.874212 0.484566
vt 0.656348 0.232999
vt 0.904855 0.519950
vt 0.680180 0.055114
vt 0.201869 0.121172
vt 0.248551 0.121172
vt 0.229853 0.121172
vt 0.931748 0.055114
vt 0.967131 0.055114
vt 0.830984 0.055114
vt 0.255117 0.121172
vt 0.017441 0.905454
vt 0.009305 0.905454
vt 0.013950 0.940128
vt 0.020996 0.931992
vt 0.006448 0.905454
vt 0.011476 0.942985
vt 0.029617 0.905454
vt 0.031541 0.919816
vt 0.020996 0.931992
vt 0.043980 0.905454
vt 0.030710 0.951420
vt 0.036798 0.930330
vt 0.025214 0.970460
vt 0.026642 0.965512
vt 0.030710 0.951420
vt 0.043980 0.980517
vt 0.043980 0.974803
vt 0.043980 0.958531
vt 0.043980 0.974803
vt 0.043980 0.934179
vt 0.051161 0.930330
vt 0.061317 0.965512
vt 0.057249 0.951420
vt 0.062745 0.970460
vt 0.074009 0.940128
vt 0.076483 0.942985
vt 0.056418 0.919816
vt 0.066963 0.931992
vt 0.070518 0.905454
vt 0.058342 0.905454
vt 0.081511 0.905454
vt 0.078654 0.905454
vt 0.070518 0.905453
vt 0.072843 0.055114
vt 0.173607 0.055114
vt 0.217643 0.383803
vt 0.130379 0.484566
vt 0.324411 0.055114
vt 0.348242 0.232999
vt 0.135850 0.121172
vt 0.140272 0.154181
vt 0.107865 0.121172
vt 0.089167 0.121172
vt 0.099844 0.200864
vt 0.116037 0.182166
vt 0.037460 0.055114
vt 0.099736 0.519950
vt 0.082601 0.121172
vt 0.094157 0.207430
vt 0.152354 0.178346
vt 0.129013 0.259203
vt 0.138362 0.226816
vt 0.287569 0.798946
vt 0.269878 0.860233
vt 0.413353 0.363220
vt 0.337951 0.624419
vt 0.125730 0.270576
vt 0.922989 0.893255
vt 0.921331 0.895021
vt 0.921357 0.878330
vt 0.923367 0.877235
vt 0.936892 0.676755
vt 0.945556 0.642088
vt 0.957480 0.651111
vt 0.947926 0.682779
vt 0.925100 0.892776
vt 0.925278 0.906442
vt 0.923095 0.906388
vt 0.919344 0.894680
vt 0.917560 0.892937
vt 0.916946 0.877232
vt 0.919060 0.878174
vt 0.936421 0.712590
vt 0.947002 0.714146
vt 0.921144 0.907983
vt 0.944332 0.782061
vt 0.939581 0.746392
vt 0.950305 0.740763
vt 0.956177 0.772455
vt 0.959245 0.689229
vt 0.959047 0.712375
vt 0.919169 0.908140
vt 0.927576 0.877296
vt 0.927576 0.881406
vt 0.925566 0.881244
vt 0.925566 0.877134
vt 0.917281 0.906505
vt 0.975362 0.632718
vt 0.975362 0.653080
vt 0.965181 0.653080
vt 0.965181 0.632718
vt 0.960344 0.735096
vt 0.965181 0.670404
vt 0.965120 0.755297
vt 0.921133 0.923818
vt 0.919080 0.924267
vt 0.916928 0.923880
vt 0.923149 0.923366
vt 0.925309 0.924321
vt 0.917065 0.973764
vt 0.917065 0.958954
vt 0.918917 0.958954
vt 0.918917 0.973764
vt 0.922619 0.958954
vt 0.922619 0.973764
vt 0.924470 0.973764
vt 0.924470 0.958954
vt 0.926322 0.973764
vt 0.924470 0.988574
vt 0.926322 0.988574
vt 0.924470 0.944144
vt 0.926322 0.944144
vt 0.926322 0.958954
vt 0.922619 0.944144
vt 0.922619 0.988574
vt 0.915214 0.958954
vt 0.953134 0.899407
vt 0.953511 0.883387
vt 0.951502 0.884482
vt 0.951476 0.901173
vt 0.955245 0.898928
vt 0.953239 0.912540
vt 0.955422 0.912594
vt 0.949488 0.900832
vt 0.949205 0.884326
vt 0.947091 0.883384
vt 0.947705 0.899089
vt 0.951289 0.914135
vt 0.949314 0.914292
vt 0.957721 0.883448
vt 0.955710 0.883286
vt 0.955710 0.887396
vt 0.957721 0.887558
vt 0.947426 0.912657
vt 0.949224 0.930419
vt 0.951277 0.929970
vt 0.947072 0.930032
vt 0.953293 0.929518
vt 0.955454 0.930473
vt 0.952733 0.964286
vt 0.952733 0.962896
vt 0.956905 0.962896
vt 0.956905 0.964286
vt 0.952733 0.996272
vt 0.952733 0.979584
vt 0.956905 0.979584
vt 0.956905 0.996272
vt 0.952733 0.946207
vt 0.956905 0.946207
vt 0.952733 0.978193
vt 0.956905 0.978193
vt 0.952733 0.976803
vt 0.956905 0.976803
vt 0.952733 0.975412
vt 0.956905 0.975412
vt 0.952733 0.974021
vt 0.956905 0.974021
vt 0.952733 0.972631
vt 0.956905 0.972631
vt 0.952733 0.971240
vt 0.956905 0.971240
vt 0.952733 0.969849
vt 0.956905 0.969849
vt 0.952733 0.968459
vt 0.956905 0.968459
vt 0.952733 0.967068
vt 0.956905 0.967068
vt 0.952733 0.965677
vt 0.956905 0.965677
vt 0.960803 0.977933
vt 0.961077 0.978714
vt 0.960230 0.978193
vt 0.960803 0.975152
vt 0.961077 0.975932
vt 0.960230 0.975412
vt 0.960803 0.972370
vt 0.961077 0.973151
vt 0.960230 0.972631
vt 0.960803 0.969589
vt 0.961077 0.970370
vt 0.960230 0.969849
vt 0.960803 0.966808
vt 0.961077 0.967588
vt 0.960230 0.967068
vt 0.960803 0.964026
vt 0.961077 0.964807
vt 0.960230 0.964286
vt 0.948561 0.964807
vt 0.948561 0.963875
vt 0.949409 0.964286
vt 0.948561 0.967588
vt 0.948561 0.966657
vt 0.949409 0.967068
vt 0.948561 0.970370
vt 0.948561 0.969438
vt 0.949409 0.969849
vt 0.948561 0.973151
vt 0.948561 0.972219
vt 0.949409 0.972631
vt 0.948561 0.975932
vt 0.948561 0.975001
vt 0.949409 0.975412
vt 0.948561 0.978714
vt 0.948561 0.977782
vt 0.949409 0.978193
vt 0.944389 0.977673
vt 0.944389 0.978714
vt 0.944389 0.974892
vt 0.944389 0.975932
vt 0.944389 0.972110
vt 0.944389 0.973151
vt 0.944389 0.969329
vt 0.944389 0.970370
vt 0.944389 0.966547
vt 0.944389 0.967588
vt 0.944389 0.963766
vt 0.944389 0.964807
vt 0.944389 0.979584
vt 0.948561 0.979584
vt 0.961077 0.979584
vt 0.944389 0.976803
vt 0.948561 0.976803
vt 0.961077 0.976803
vt 0.944389 0.974021
vt 0.948561 0.974021
vt 0.961077 0.974021
vt 0.944389 0.971240
vt 0.948561 0.971240
vt 0.961077 0.971240
vt 0.944389 0.968459
vt 0.948561 0.968459
vt 0.961077 0.968459
vt 0.944389 0.965677
vt 0.948561 0.965677
vt 0.961077 0.965677
vt 0.961077 0.962896
vt 0.944389 0.962896
vt 0.948561 0.962896
s 0
g fartMesh_pgorleyMat
usemtl pgorleyMat
f 1/1/1 26/2/1 25/3/1 3/4/1
f 3/4/2 25/3/2 27/5/2 5/6/2
f 5/6/3 27/5/3 28/7/3 7/8/3
f 7/9/4 28/10/4 29/11/4 9/12/4
f 9/12/5 29/11/5 30/13/5 11/14/5
f 11/14/6 30/13/6 31/15/6 13/16/6
f 13/16/7 31/15/7 32/17/7 15/18/7
f 15/18/8 32/17/8 33/19/8 17/20/8
f 17/20/9 33/19/9 34/21/9 19/22/9
f 19/22/10 34/21/10 35/23/10 21/24/10
f 4/25/11 2/26/11 24/27/11 22/28/11 20/29/11 18/30/11 16/31/11 14/32/11 12/33/11 10/34/11 8/35/11 6/36/11
f 21/24/12 35/23/12 36/37/12 23/38/12
f 23/38/13 36/37/13 26/2/13 1/1/13
f 1/39/14 3/40/14 5/41/14 7/42/14 9/43/14 11/44/14 13/45/14 15/46/14 17/47/14 19/48/14 21/49/14 23/50/14
f 2/51/15 4/52/15 25/53/15 26/42/15
f 4/52/16 6/54/16 27/55/16 25/53/16
f 6/54/17 8/56/17 28/57/17 27/55/17
f 8/56/18 10/58/18 29/59/18 28/60/18
f 10/58/19 12/61/19 30/62/19 29/59/19
f 12/61/20 14/63/20 31/64/20 30/62/20
f 14/63/21 16/65/21 32/66/21 31/64/21
f 16/65/22 18/67/22 33/68/22 32/66/22
f 18/67/23 20/69/23 34/70/23 33/68/23
f 20/69/24 22/71/24 35/72/24 34/70/24
f 22/71/25 24/73/25 36/74/25 35/72/25
f 24/73/26 2/51/26 26/42/26 36/74/26
f 37/1/27 39/4/27 61/3/27 62/2/27
f 39/4/28 41/6/28 63/5/28 61/3/28
f 41/6/29 43/8/29 64/7/29 63/5/29
f 43/9/30 45/12/30 65/11/30 64/10/30
f 45/12/31 47/14/31 66/13/31 65/11/31
f 47/14/32 49/16/32 67/15/32 66/13/32
f 49/16/33 51/18/33 68/17/33 67/15/33
f 51/18/34 53/20/34 69/19/34 68/17/34
f 53/20/35 55/22/35 70/21/35 69/19/35
f 55/22/36 57/24/36 71/23/36 70/21/36
f 40/25/37 42/36/37 44/35/37 46/34/37 48/33/37 50/32/37 52/31/37 54/30/37 56/29/37 58/28/37 60/27/37 38/26/37
f 57/24/38 59/38/38 72/37/38 71/23/38
f 59/38/39 37/1/39 62/2/39 72/37/39
f 37/39/40 59/50/40 57/49/40 55/48/40 53/47/40 51/46/40 49/45/40 47/44/40 45/43/40 43/42/40 41/41/40 39/40/40
f 38/51/41 62/42/41 61/53/41 40/52/41
f 40/52/42 61/53/42 63/55/42 42/54/42
f 42/54/43 63/55/43 64/57/43 44/56/43
f 44/56/44 64/60/44 65/59/44 46/58/44
f 46/58/45 65/59/45 66/62/45 48/61/45
f 48/61/46 66/62/46 67/64/46 50/63/46
f 50/63/47 67/64/47 68/66/47 52/65/47
f 52/65/48 68/66/48 69/68/48 54/67/48
f 54/67/49 69/68/49 70/70/49 56/69/49
f 56/69/50 70/70/50 71/72/50 58/71/50
f 58/71/51 71/72/51 72/74/51 60/73/51
f 60/73/52 72/74/52 62/42/52 38/51/52
s 1
f 75/75/53 155/76/54 79/77/55 80/78/56
f 74/79/57 154/80/58 77/81/59 78/82/60
f 158/83/61 157/84/62 82/85/63 83/86/64
f 156/87/65 75/88/53 80/89/56 81/90/66
f 155/76/54 74/79/57 78/82/60 79/77/55
f 154/80/58 73/91/67 77/81/59
f 76/92/68 158/83/61 83/86/64
f 157/84/62 156/87/65 81/90/66 82/85/63
f 83/86/64 82/85/63 89/93/69 90/94/70
f 81/90/66 80/89/56 87/95/71 88/96/72
f 79/77/55 78/82/60 85/97/73 86/98/74
f 77/81/59 73/91/67 84/99/75
f 76/92/68 83/86/64 90/94/70
f 82/85/63 81/90/66 88/96/72 89/93/69
f 80/78/56 79/77/55 86/98/74 87/100/71
f 78/82/60 77/81/59 84/99/75 85/97/73
f 84/99/75 73/91/67 91/101/76
f 76/92/68 90/94/70 97/102/77
f 89/93/69 88/96/72 95/103/78 96/104/79
f 87/100/71 86/98/74 93/105/80 94/106/81
f 85/97/73 84/99/75 91/101/76 92/107/82
f 90/94/70 89/93/69 96/104/79 97/102/77
f 88/96/72 87/95/71 94/108/81 95/103/78
f 86/98/74 85/97/73 92/107/82 93/105/80
f 96/109/79 95/110/78 102/111/83 103/112/84
f 94/113/81 93/110/80 100/111/85 101/114/86
f 92/109/82 91/115/76 98/116/87 99/117/88
f 97/115/77 96/109/79 103/112/84 104/116/89
f 95/110/78 94/113/81 101/114/86 102/111/83
f 93/110/80 92/109/82 99/117/88 100/111/85
f 91/115/76 73/118/67 98/116/87
f 76/118/68 97/115/77 104/116/89
f 104/116/89 103/112/84 110/119/90 111/120/91
f 102/111/83 101/114/86 108/121/92 109/122/93
f 100/111/85 99/117/88 106/123/94 107/122/95
f 98/116/87 73/118/67 105/120/96
f 76/118/68 104/116/89 111/120/91
f 103/112/84 102/111/83 109/122/93 110/119/90
f 101/114/86 100/111/85 107/122/95 108/121/92
f 99/117/88 98/116/87 105/120/96 106/123/94
f 109/122/93 108/121/92 115/124/97 116/125/98
f 107/122/95 106/123/94 113/126/99 114/127/100
f 105/120/96 73/118/67 112/128/101
f 76/118/68 111/120/91 118/128/102
f 110/119/90 109/122/93 116/125/98 117/126/103
f 108/121/92 107/122/95 114/127/100 115/124/97
f 106/123/94 105/120/96 112/128/101 113/126/99
f 111/120/91 110/119/90 117/126/103 118/128/102
f 76/118/68 118/128/102 125/129/104
f 117/126/103 116/125/98 123/130/105 124/131/106
f 115/124/97 114/127/100 121/130/107 122/132/108
f 113/126/99 112/128/101 119/129/109 120/131/110
f 118/128/102 117/126/103 124/131/106 125/129/104
f 116/125/98 115/124/97 122/132/108 123/130/105
f 114/127/100 113/126/99 120/131/110 121/130/107
f 112/128/101 73/118/67 119/129/109
f 122/132/108 121/130/107 128/133/111 129/134/112
f 120/131/110 119/129/109 126/135/113 127/136/114
f 125/129/104 124/131/106 131/136/115 132/135/116
f 123/130/105 122/132/108 129/134/112 130/133/117
f 121/130/107 120/131/110 127/136/114 128/133/111
f 119/129/109 73/118/67 126/135/113
f 76/118/68 125/129/104 132/135/116
f 124/131/106 123/130/105 130/133/117 131/136/115
f 132/135/116 131/136/115 138/137/118 139/138/119
f 130/133/117 129/134/112 136/139/120 137/140/121
f 128/133/111 127/136/114 134/141/122 135/140/123
f 126/135/113 73/118/67 133/138/124
f 76/118/68 132/135/116 139/138/119
f 131/136/115 130/133/117 137/140/121 138/137/118
f 129/134/112 128/133/111 135/140/123 136/139/120
f 127/136/114 126/135/113 133/138/124 134/141/122
f 135/142/123 134/143/122 141/144/125 142/145/126
f 133/146/124 73/91/67 140/147/127
f 76/92/68 139/148/119 146/149/128
f 138/150/118 137/151/121 144/152/129 145/153/130
f 136/154/120 135/142/123 142/145/126 143/155/131
f 134/143/122 133/146/124 140/147/127 141/144/125
f 139/148/119 138/150/118 145/153/130 146/149/128
f 137/151/121 136/156/120 143/157/131 144/152/129
f 76/92/68 146/149/128 153/158/132
f 145/153/130 144/152/129 151/159/133 152/160/134
f 143/155/131 142/145/126 149/161/135 150/162/136
f 141/144/125 140/147/127 147/163/137 148/164/138
f 146/149/128 145/153/130 152/160/134 153/158/132
f 144/152/129 143/157/131 150/165/136 151/159/133
f 142/145/126 141/144/125 148/164/138 149/161/135
f 140/147/127 73/91/67 147/163/137
f 148/164/138 147/163/137 154/80/58 74/79/57
f 153/158/132 152/160/134 157/84/62 158/83/61
f 151/159/133 150/165/136 75/88/53 156/87/65
f 149/161/135 148/164/138 74/79/57 155/76/54
f 147/163/137 73/91/67 154/80/58
f 76/92/68 153/158/132 158/83/61
f 152/160/134 151/159/133 156/87/65 157/84/62
f 150/162/136 149/161/135 155/76/54 75/75/53
f 163/166/139 165/167/140 173/168/141 172/169/142
f 180/170/143 181/171/144 159/172/145 160/173/146
f 161/174/147 162/175/148 164/176/149 163/166/139
f 167/177/150 161/178/147 171/179/151 174/180/152
f 179/181/153 180/170/143 160/173/146 169/182/154
f 163/166/139 164/176/149 166/183/155 165/167/140
f 181/184/144 182/185/156 170/186/157 159/187/145
f 169/182/154 160/173/146 178/188/158 177/189/159
f 165/167/140 166/183/155 168/190/160 167/177/150
f 171/191/151 172/192/142 173/193/141 174/194/152
f 182/185/156 179/181/153 169/182/154 170/186/157
f 167/177/150 168/190/160 162/195/148 161/178/147
f 161/174/147 163/166/139 172/169/142 171/194/151
f 165/167/140 167/177/150 174/180/152 173/168/141
f 178/196/158 175/197/161 176/198/162 177/199/159
f 170/186/157 169/182/154 177/189/159 176/200/162
f 160/173/146 159/172/145 175/201/161 178/188/158
f 159/187/145 170/186/157 176/200/162 175/202/161
f 168/190/160 166/183/155 179/203/153 182/204/156
f 162/195/148 168/190/160 182/204/156 181/205/144
f 166/183/155 164/176/149 180/206/143 179/203/153
f 164/176/149 162/175/148 181/207/144 180/206/143
s 0
f 189/208/163 190/209/163 185/210/163 184/211/163
f 184/211/164 185/210/164 188/212/164 187/213/164
f 191/214/165 192/215/165 186/216/165
f 189/217/97 191/214/97 186/216/97 183/218/97
f 192/215/166 190/219/166 183/220/166 186/221/166
f 188/212/53 185/222/53 190/219/53 192/215/53
f 184/223/97 187/213/97 191/214/97 189/217/97
f 187/213/167 188/212/167 192/215/167 191/214/167
f 183/224/168 190/209/168 189/208/168
s 1
f 197/225/169 206/226/170 207/227/171 199/228/172
f 214/170/173 194/173/174 193/172/175 215/171/176
f 195/229/177 197/225/169 198/230/178 196/231/179
f 201/232/180 208/233/181 205/234/182 195/235/177
f 213/181/183 203/182/184 194/173/174 214/170/173
f 197/225/169 199/228/172 200/236/185 198/230/178
f 215/184/176 193/187/175 204/186/186 216/185/187
f 203/182/184 211/189/188 212/188/189 194/173/174
f 199/228/172 201/232/180 202/237/190 200/236/185
f 205/238/182 208/239/181 207/240/171 206/241/170
f 216/185/187 204/186/186 203/182/184 213/181/183
f 201/232/180 195/235/177 196/242/179 202/237/190
f 195/229/177 205/239/182 206/226/170 197/225/169
f 199/228/172 207/227/171 208/233/181 201/232/180
f 212/196/189 211/199/188 210/198/191 209/197/192
f 204/186/186 210/200/191 211/189/188 203/182/184
f 194/173/174 212/188/189 209/201/192 193/172/175
f 193/187/175 209/202/192 210/200/191 204/186/186
f 202/237/190 216/243/187 213/244/183 200/236/185
f 196/242/179 215/245/176 216/243/187 202/237/190
f 200/236/185 213/244/183 214/246/173 198/230/178
f 198/230/178 214/246/173 215/247/176 196/231/179
s 0
f 223/208/193 218/211/193 219/210/193 224/209/193
f 218/211/194 221/213/194 222/212/194 219/210/194
f 225/214/195 220/216/195 226/215/195
f 223/217/97 217/218/97 220/216/97 225/214/97
f 226/215/196 220/221/196 217/220/196 224/219/196
f 222/212/53 226/215/53 224/219/53 219/222/53
f 218/223/97 223/217/97 225/214/97 221/213/97
f 221/213/197 225/214/197 226/215/197 222/212/197
f 217/224/198 223/208/198 224/209/198
f 245/248/199 234/249/199 232/250/199 256/251/199
f 229/252/120 233/253/120 231/254/120 227/255/120
f 234/249/81 230/256/81 228/257/81 232/250/81
f 233/253/200 255/258/200 266/259/200 231/254/200
f 255/258/201 254/260/201 265/261/201 266/259/201
f 254/260/202 253/262/202 264/263/202 265/261/202
f 253/262/203 252/264/203 263/265/203 264/263/203
f 252/264/204 251/266/204 262/267/204 263/265/204
f 251/266/205 250/268/205 261/269/205 262/267/205
f 250/268/206 249/270/206 260/271/206 261/269/206
f 249/270/207 248/272/207 259/273/207 260/271/207
f 248/272/208 247/274/208 258/275/208 259/273/208
f 247/274/209 246/276/209 257/277/209 258/275/209
f 246/276/210 245/248/210 256/251/210 257/277/210
f 267/278/67 268/279/67 269/280/67
f 270/281/67 271/282/67 272/283/67
f 273/284/67 274/285/67 275/286/67
f 276/287/67 277/288/67 278/289/67
f 279/290/67 280/291/67 281/292/67
f 282/293/67 283/294/67 284/295/67
f 285/296/68 286/297/68 287/298/68
f 288/299/68 289/300/68 290/301/68
f 291/302/68 292/303/68 293/304/68
f 294/305/68 295/306/68 296/307/68
f 297/308/68 298/309/68 299/310/68
f 300/311/68 301/312/68 302/313/68
f 267/314/211 301/312/211 300/311/211 268/315/211
f 270/316/212 298/309/212 297/308/212 271/317/212
f 273/318/213 295/306/213 294/305/213 274/319/213
f 276/320/214 292/303/214 291/302/214 277/321/214
f 279/322/215 289/300/215 288/299/215 280/323/215
f 282/324/216 286/297/216 285/296/216 283/325/216
f 227/326/217 268/315/217 300/311/217 229/327/217
f 231/254/67 266/259/67 269/280/67 268/279/67 227/328/67
f 267/314/218 235/329/218 244/330/218 301/312/218
f 266/259/67 265/261/67 235/331/67 267/278/67 269/280/67
f 235/329/219 271/317/219 297/308/219 244/330/219
f 265/261/67 264/263/67 272/283/67 271/282/67 235/331/67
f 270/316/220 236/332/220 243/333/220 298/309/220
f 264/263/67 263/265/67 236/334/67 270/281/67 272/283/67
f 236/332/221 274/319/221 294/305/221 243/333/221
f 263/265/67 262/267/67 275/286/67 274/285/67 236/334/67
f 273/318/222 237/335/222 242/336/222 295/306/222
f 262/267/67 261/269/67 237/337/67 273/284/67 275/286/67
f 237/335/223 277/321/223 291/302/223 242/336/223
f 261/269/67 260/271/67 278/289/67 277/288/67 237/337/67
f 276/320/224 238/338/224 241/339/224 292/303/224
f 260/271/67 259/273/67 238/340/67 276/287/67 278/289/67
f 238/338/225 280/323/225 288/299/225 241/339/225
f 259/273/67 258/275/67 281/292/67 280/291/67 238/340/67
f 279/322/226 239/341/226 240/342/226 289/300/226
f 258/275/67 257/277/67 239/343/67 279/290/67 281/292/67
f 256/251/67 232/250/67 228/344/67 282/293/67 284/295/67
f 239/341/227 283/325/227 285/296/227 240/342/227
f 282/324/228 228/345/228 230/346/228 286/297/228
f 257/277/67 256/251/67 284/295/67 283/294/67 239/343/67
f 287/298/68 286/297/68 230/346/68 234/249/68 245/248/68
f 240/342/68 285/296/68 287/298/68 245/248/68 246/276/68
f 290/301/68 289/300/68 240/342/68 246/276/68 247/274/68
f 241/339/68 288/299/68 290/301/68 247/274/68 248/272/68
f 293/304/68 292/303/68 241/339/68 248/272/68 249/270/68
f 242/336/68 291/302/68 293/304/68 249/270/68 250/268/68
f 296/307/68 295/306/68 242/336/68 250/268/68 251/266/68
f 243/333/68 294/305/68 296/307/68 251/266/68 252/264/68
f 299/310/68 298/309/68 243/333/68 252/264/68 253/262/68
f 244/330/68 297/308/68 299/310/68 253/262/68 254/260/68
f 302/313/68 301/312/68 244/330/68 254/260/68 255/258/68
f 229/327/68 300/311/68 302/313/68 255/258/68 233/253/68
