# Blender 5.0.1
# www.blender.org
mtllib model.mtl
o sandMesh
v -76.361885 50.461075 7.792600
v -76.361885 -50.461174 7.945528
v 24.057796 49.495918 8.046791
v 24.057796 -49.495903 8.062622
v -76.361885 38.391270 8.191595
v -76.361885 27.422337 8.582774
v -76.361885 16.453402 8.252101
v -76.361885 5.484467 8.200278
v -76.361885 -5.484468 8.320359
v -76.361885 -16.453402 8.405861
v -76.361885 -27.422335 8.467987
v -76.361885 -38.391270 8.612206
v 24.134594 -37.656902 8.145015
v 24.386917 -27.422337 7.955766
v 18.686045 -16.453402 8.054476
v 14.896135 -5.484467 7.844576
v 14.896135 5.484468 7.878897
v 18.686045 16.453402 7.957617
v 24.386917 27.422335 8.126717
v 24.134594 37.656902 8.119919
v 13.621271 54.508472 8.067338
v 3.435751 60.592751 7.914653
v -13.198499 63.946484 7.998538
v -31.252960 63.945618 8.359550
v -47.887268 60.592598 7.790956
v -61.450760 55.571465 7.855982
v -61.450748 -55.571438 8.096182
v -47.887333 -60.592751 7.986270
v -31.253077 -63.946472 8.008438
v -13.198559 -63.946022 7.687003
v 3.435759 -60.592751 7.987866
v 13.621298 -54.508495 7.925665
v -56.899952 38.391270 8.634317
v -42.797035 38.391270 8.207354
v -28.694120 38.391270 8.277102
v -14.591206 38.391270 8.598671
v -0.488291 38.391270 8.367868
v 13.614623 38.391270 8.632177
v -57.375755 27.422337 8.426333
v -43.748642 27.422337 8.394050
v -30.121529 27.422337 8.330135
v -16.494417 27.422337 8.753711
v -2.867306 27.422337 8.728168
v 10.759806 27.422337 8.221949
v -58.190166 16.453402 8.504611
v -45.377464 16.453402 8.125514
v -32.564762 16.453402 8.267351
v -19.752060 16.453402 8.259264
v -6.939359 16.453402 8.339742
v 5.873343 16.453402 8.362535
v -58.731583 5.484467 8.512123
v -46.460297 5.484467 8.267728
v -34.189011 5.484467 8.683444
v -21.917725 5.484467 8.551865
v -10.182400 5.963545 8.891388
v 3.165879 5.967888 8.353092
v -58.731583 -5.484468 8.373527
v -46.460297 -5.484468 8.127463
v -34.189011 -5.484468 8.521574
v -21.917725 -5.484468 9.071755
v -10.187301 -5.968116 8.356318
v 3.166807 -5.968908 8.454435
v -58.190166 -16.453402 8.289563
v -45.377464 -16.453402 8.108372
v -32.564762 -16.453402 8.386947
v -19.752060 -16.453402 8.292517
v -6.939359 -16.453402 8.743576
v 5.873343 -16.453402 8.505826
v -57.375755 -27.422335 8.574195
v -43.748642 -27.422335 8.304506
v -30.121529 -27.422335 8.112310
v -16.494417 -27.422335 8.308575
v -2.867306 -27.422335 8.570488
v 10.759806 -27.422337 8.618074
v -56.899952 -38.391270 8.540606
v -42.797035 -38.391270 8.499181
v -28.694120 -38.391270 8.528115
v -14.591206 -38.391270 8.149254
v -0.488291 -38.391270 8.381671
v 13.614623 -38.391270 8.512537
v -76.361885 57.149670 5.707522
v -76.361885 -57.149776 5.880720
v 28.380629 56.056583 5.995405
v 28.380629 -56.056557 6.013335
v 28.467607 -42.648304 6.106648
v 28.753370 -31.057152 5.892315
v 22.296852 -18.634289 6.004109
v 18.004593 -6.211427 5.766387
v 18.004593 6.211434 5.805257
v 22.296852 18.634295 5.894412
v 28.753370 31.057156 6.085925
v 28.467607 42.648312 6.078227
v 16.560745 61.733547 6.018677
v 5.025140 68.624298 5.845753
v -13.813972 72.422569 5.940757
v -34.261543 72.421585 6.349620
v -53.100723 68.624123 5.705659
v -68.462051 62.937439 5.779305
v -68.462029 -62.937401 6.051343
v -53.100792 -68.624283 5.926863
v -34.261673 -72.422539 6.142332
v -13.814039 -72.422028 5.587927
v 5.025148 -68.624283 5.928670
v 16.560776 -61.733566 5.858224
v -179.909027 50.461075 7.792600
v -179.909027 -50.461174 7.945528
v -184.664185 38.391270 8.191595
v -187.871521 27.422337 8.582774
v -189.764282 16.453402 8.252101
v -189.764282 5.484467 8.200278
v -189.764282 -5.484468 8.320359
v -189.764282 -16.453402 8.405861
v -187.871521 -27.422335 8.467987
v -184.664185 -38.391270 8.612206
v -175.625458 57.149670 5.707522
v -175.625458 -57.149776 5.880720
v -150.809570 6.937154 8.200278
v -125.993675 6.937154 8.200278
v -101.177780 6.937154 8.200278
v -101.177780 20.811455 8.252101
v -125.993675 20.811455 8.252101
v -150.809570 20.811455 8.252101
v -150.809570 48.560055 8.191595
v -125.993675 48.560055 8.191595
v -101.177780 48.560055 8.191595
v -101.177780 63.826817 7.792600
v -125.993675 63.826817 7.792600
v -150.809570 63.826817 7.792600
v -150.809570 -48.560043 8.612206
v -125.993675 -48.560043 8.612206
v -101.177780 -48.560043 8.612206
v -101.177780 -34.685745 8.467987
v -125.993675 -34.685745 8.467987
v -150.809570 -34.685745 8.467987
v -150.809570 -72.287155 5.880720
v -125.993675 -72.287155 5.880720
v -101.177780 -72.287155 5.880720
v -101.177780 -63.826931 7.945528
v -125.993675 -63.826931 7.945528
v -150.809570 -63.826931 7.945528
v -150.809570 -6.937146 8.320359
v -125.993675 -6.937146 8.320359
v -101.177780 -6.937146 8.320359
v -150.809570 34.685753 8.582774
v -125.993675 34.685753 8.582774
v -101.177780 34.685753 8.582774
v -150.809570 -20.811445 8.405861
v -125.993675 -20.811445 8.405861
v -101.177780 -20.811445 8.405861
v -101.177780 72.287033 5.707522
v -125.993675 72.287033 5.707522
v -150.809570 72.287033 5.707522
v -184.708023 50.461075 6.401062
v -184.708023 -50.461174 6.553990
v -189.463181 38.391270 6.800057
v -192.670517 27.422337 7.191236
v -194.563278 16.453402 6.860563
v -194.563278 5.484467 6.808741
v -194.563278 -5.484468 6.928822
v -194.563278 -16.453402 7.014323
v -192.670517 -27.422335 7.076449
v -189.463181 -38.391270 7.220668
v -50.710938 -52.328537 19.198429
v -52.000877 -52.141438 19.198429
v -50.065407 -51.454052 19.198429
v -76.280449 61.972382 1.481731
v -76.280449 -61.970840 1.669541
v 37.299492 60.787064 1.793903
v 37.299492 -60.785385 1.813346
v 37.393806 -46.245834 1.914533
v 37.703682 -33.676708 1.682116
v 30.702408 -20.205688 1.803341
v 26.048004 -6.734675 1.545561
v 26.048004 6.736339 1.587711
v 30.702408 20.207352 1.684388
v 37.703682 33.678368 1.892060
v 37.393806 46.247498 1.883713
v 24.482330 66.943008 1.819138
v 11.973434 74.415154 1.631625
v -8.455185 78.533897 1.734644
v -30.627983 78.532829 2.178004
v -51.056679 74.414963 1.479710
v -67.714088 68.248482 1.559570
v -67.714066 -68.246788 1.854561
v -51.056747 -74.413483 1.719578
v -30.628120 -78.532211 1.746801
v -8.455269 -78.531647 1.352046
v 11.973442 -74.413483 1.721537
v 24.482361 -66.941376 1.645147
v -180.736542 62.757313 1.481731
v -183.919159 -61.970840 1.669541
v -157.009491 -78.385406 1.669541
v -130.099823 -78.385406 1.669541
v -103.190132 -78.385406 1.669541
v -103.190132 78.386925 1.481731
v -130.099823 78.386925 1.481731
v -157.009491 78.386925 1.481731
v -190.913788 54.719448 2.233787
v -193.768066 -54.717899 2.399617
v -196.750336 41.631279 2.666446
v -193.728943 29.736864 3.090630
v -196.213043 17.842451 2.732056
v -192.451935 5.948034 2.675862
v -200.168198 -5.946381 2.806074
v -194.041473 -17.840796 2.898790
v -193.905823 -29.735209 2.966157
v -198.924438 -41.629627 3.122545
v -3.468673 -0.046272 8.187981
v -3.510690 8.954944 8.676682
v -12.465993 -0.000095 8.661573
v -3.510690 -8.955134 8.351077
v 5.444613 -0.000095 8.366186
v -0.834911 -0.034723 8.564619
v -1.895083 -0.034723 8.694364
v -2.075355 -2.183234 8.564619
v -2.605441 -1.265097 8.708438
v -4.556241 -2.183234 8.564619
v -4.026155 -1.265097 8.630736
v -5.796684 -0.034723 8.564619
v -4.604629 -0.119438 8.662446
v -4.556241 2.113788 8.564619
v -4.026155 1.195651 8.630736
v -2.075355 2.113788 8.564619
v -2.605441 1.195651 8.630736
v -2.477160 -1.487285 8.816476
v -1.638523 -0.034723 8.784367
v -4.154434 -1.487285 8.893763
v -4.993072 -0.034723 8.769703
v -4.154434 1.417839 8.883805
v -2.477160 1.417839 8.740148
v -9.819119 5.638820 8.972018
v 2.802412 5.642926 8.463030
v -9.823754 -5.643223 8.466081
v 2.803290 -5.643972 8.558856
v -3.510651 8.467351 8.769002
v -11.978383 -0.000131 8.754716
v -3.510651 -8.467613 8.461124
v 4.957081 -0.000130 8.475411
v -3.509972 -0.000747 8.491362
v -10.241159 6.016069 8.995898
v 3.224669 6.020450 8.452862
v -10.246104 -6.020667 8.456117
v 3.225605 -6.021466 8.555099
v -3.510696 9.033811 8.779302
v -12.544864 -0.000090 8.764060
v -3.510696 -9.033990 8.450830
v 5.523470 -0.000089 8.466072
v -11.269192 6.934998 8.781968
v 4.253229 6.940049 8.155994
v -11.274893 -6.940071 8.159746
v 4.254310 -6.940992 8.273846
v -3.510807 10.413630 8.532291
v -13.924734 0.000011 8.514721
v -3.510807 -10.413610 8.153652
v 6.903120 0.000011 8.171223
vn 0.0354 -0.0072 0.9993
vn 0.0188 0.0350 0.9992
vn 0.0488 0.0019 0.9988
vn 0.0070 -0.0190 0.9998
vn 0.0316 -0.0181 0.9993
vn 0.0403 -0.0031 0.9992
vn 0.0512 0.0181 0.9985
vn 0.0352 0.0259 0.9990
vn 0.0485 0.0030 0.9988
vn -0.0056 0.0131 0.9999
vn 0.0198 -0.0022 0.9998
vn 0.0141 0.0190 0.9997
vn -0.0144 0.0360 0.9992
vn -0.0192 -0.0179 0.9997
vn -0.0035 -0.0180 0.9998
vn 0.0064 0.0057 1.0000
vn 0.0141 0.0270 0.9995
vn -0.0217 0.0146 0.9997
vn 0.0074 -0.0234 0.9997
vn -0.0352 -0.0090 0.9993
vn 0.0186 -0.0089 0.9998
vn -0.0030 0.0078 1.0000
vn 0.0200 -0.0067 0.9998
vn -0.0321 -0.0049 0.9995
vn -0.0448 -0.0189 0.9988
vn 0.0583 -0.0593 0.9965
vn 0.0201 0.0431 0.9989
vn -0.0177 -0.0126 0.9998
vn 0.0199 -0.0126 0.9997
vn -0.0339 -0.0147 0.9993
vn 0.0107 -0.0148 0.9998
vn -0.0278 -0.0279 0.9992
vn -0.8788 0.3299 0.3448
vn -0.8811 0.3241 0.3446
vn -0.8773 0.3338 0.3449
vn -0.0139 0.0014 0.9999
vn 0.0296 0.0100 0.9995
vn -0.0111 0.0395 0.9992
vn 0.0006 0.0265 0.9996
vn -0.0063 0.0544 0.9985
vn -0.0018 -0.0004 1.0000
vn 0.0082 0.0065 0.9999
vn 0.0024 -0.0248 0.9997
vn 0.0047 -0.0068 1.0000
vn -0.0310 -0.0358 0.9989
vn 0.0019 -0.0361 0.9993
vn 0.0371 -0.0037 0.9993
vn -0.0227 -0.0180 0.9996
vn 0.0303 0.0144 0.9994
vn -0.0049 0.0055 1.0000
vn -0.0228 0.0181 0.9996
vn 0.0164 0.0293 0.9994
vn -0.0187 -0.0325 0.9993
vn -0.0156 0.0330 0.9993
vn -0.0109 0.0424 0.9990
vn -0.0363 0.0104 0.9993
vn 0.0200 -0.0012 0.9998
vn 0.0097 0.0229 0.9997
vn -0.0025 0.0209 0.9998
vn 0.0037 -0.0268 0.9996
vn 0.0029 -0.0238 0.9997
vn -0.0021 -0.0201 0.9998
vn 0.0269 -0.0166 0.9995
vn -0.0165 -0.0206 0.9997
vn -0.0093 -0.0364 0.9993
vn 0.0044 -0.0364 0.9993
vn 0.0491 0.0065 0.9988
vn 0.0070 -0.0392 0.9992
vn 0.0316 -0.0013 0.9995
vn 0.0399 -0.0112 0.9991
vn 0.0723 0.0298 0.9969
vn 0.0352 0.0313 0.9989
vn 0.0485 0.0162 0.9987
vn 0.0337 0.0176 0.9993
vn 0.0037 -0.0029 1.0000
vn 0.0029 0.0180 0.9998
vn -0.0021 0.0376 0.9993
vn 0.0269 -0.0099 0.9996
vn -0.0165 -0.0208 0.9996
vn -0.0093 -0.0120 0.9999
vn -0.0056 0.0255 0.9997
vn 0.0198 0.0208 0.9996
vn 0.0141 -0.0219 0.9997
vn -0.0144 -0.0028 0.9999
vn -0.0192 -0.0229 0.9996
vn -0.0035 0.0087 1.0000
vn 0.0064 -0.0073 1.0000
vn 0.0141 -0.0003 0.9999
vn -0.0217 -0.0155 0.9996
vn 0.0074 -0.0694 0.9976
vn -0.0352 0.0260 0.9990
vn 0.0186 0.0097 0.9998
vn -0.0030 0.0109 0.9999
vn 0.0200 -0.0128 0.9997
vn -0.0321 -0.0128 0.9994
vn -0.0447 0.0473 0.9979
vn 0.0627 0.0473 0.9969
vn -0.8787 -0.3437 0.3313
vn -0.8758 -0.3513 0.3310
vn -0.8806 -0.3385 0.3316
vn -0.0177 -0.0047 0.9998
vn 0.0199 -0.0003 0.9998
vn -0.0339 0.0163 0.9993
vn 0.0107 0.0363 0.9993
vn -0.0302 0.0326 0.9990
vn 0.0856 0.0837 0.9928
vn -0.0139 -0.0301 0.9994
vn 0.0296 0.0049 0.9996
vn -0.0111 -0.0228 0.9997
vn 0.0006 -0.0059 1.0000
vn -0.0063 -0.0432 0.9990
vn -0.0018 -0.0347 0.9994
vn 0.0082 0.0356 0.9993
vn 0.0024 -0.0191 0.9998
vn 0.0047 0.0166 0.9999
vn -0.0311 0.0089 0.9995
vn 0.0019 0.0138 0.9999
vn 0.0371 0.0248 0.9990
vn -0.0227 0.0392 0.9990
vn 0.0303 0.0257 0.9992
vn -0.0049 -0.0037 1.0000
vn -0.0228 0.0247 0.9994
vn 0.0164 0.0175 0.9997
vn -0.0187 0.0350 0.9992
vn -0.0290 -0.0551 0.9981
vn -0.0013 -0.0255 0.9997
vn -0.0057 -0.0218 0.9997
vn 0.0178 -0.0221 0.9996
vn -0.0143 -0.0189 0.9997
vn 0.0151 -0.0151 0.9998
vn -0.0418 -0.2007 0.9788
vn 0.6033 0.3070 0.7360
vn 0.1201 0.2253 0.9669
vn 0.0173 -0.2415 0.9702
vn -0.2211 0.2902 0.9311
vn 0.5770 0.2144 0.7881
vn 0.0531 0.2392 0.9695
vn 0.0313 -0.2424 0.9697
vn 0.5554 -0.0026 0.8316
vn 0.0194 0.2372 0.9713
vn 0.1375 -0.2204 0.9657
vn 0.1005 -0.2357 0.9666
vn 0.5759 -0.2047 0.7915
vn -0.0747 0.2049 0.9759
vn 0.4184 0.0083 0.9082
vn 0.6103 -0.3283 0.7210
vn -0.0718 0.2067 0.9758
vn 0.4160 0.0109 0.9093
vn -0.0775 -0.1975 0.9772
vn 0.4171 -0.0090 0.9088
vn -0.0683 -0.2059 0.9762
vn 0.4314 0.0060 0.9022
vn 0.1118 0.2287 0.9671
vn -0.0544 -0.2147 0.9752
vn 0.0264 -0.2239 0.9743
vn -0.0742 0.2045 0.9760
vn 0.6102 -0.3283 0.7210
vn -0.2304 -0.2870 0.9298
vn 0.0002 -0.0047 1.0000
vn -0.0113 0.0375 0.9992
vn 0.0031 0.0104 0.9999
vn -0.1431 -0.2347 0.9615
vn -0.0200 -0.0436 0.9988
vn 0.0004 0.0109 0.9999
vn -0.0074 0.0378 0.9993
vn 0.0007 0.0062 1.0000
vn 0.0034 -0.0307 0.9995
vn -0.1824 0.3972 0.8994
vn 0.0009 0.0045 1.0000
vn -0.0013 0.0045 1.0000
vn -0.0000 0.0045 1.0000
vn 0.1583 0.2939 0.9427
vn -0.0000 0.2393 0.9709
vn -0.0053 -0.0301 0.9995
vn -0.0000 -0.0238 0.9997
vn -0.0011 0.0062 1.0000
vn -0.0000 0.0062 1.0000
vn 0.0104 0.0356 0.9993
vn -0.0000 0.0282 0.9996
vn -0.0006 0.0109 0.9999
vn -0.0000 0.0087 1.0000
vn 0.0235 -0.0436 0.9988
vn -0.0000 -0.0436 0.9990
vn 0.1431 -0.2347 0.9615
vn -0.0000 -0.2371 0.9715
vn -0.0043 0.0104 0.9999
vn -0.0000 0.0104 0.9999
vn 0.0135 0.0330 0.9994
vn -0.0000 0.0261 0.9997
vn -0.0003 -0.0047 1.0000
vn -0.0000 -0.0037 1.0000
vn -0.2513 0.4311 0.8666
vn -0.2785 0.0075 0.9604
vn -0.2784 0.0191 0.9603
vn -0.2516 -0.4289 0.8676
vn -0.2749 -0.1607 0.9480
vn -0.2782 -0.0426 0.9596
vn -0.2785 -0.0045 0.9604
vn -0.2757 0.1401 0.9510
vn -0.2778 -0.0686 0.9582
vn -0.2785 0.0105 0.9604
vn -0.2766 0.1149 0.9541
vn 0.0004 -0.0037 1.0000
vn -0.0120 0.0261 0.9996
vn 0.0027 0.0139 0.9999
vn -0.1810 -0.3941 0.9011
vn -0.0188 -0.0625 0.9979
vn -0.0003 0.0087 1.0000
vn -0.0085 0.0282 0.9996
vn 0.0003 0.0078 1.0000
vn 0.0047 -0.0238 0.9997
vn -0.1444 0.2368 0.9608
vn 0.0006 0.0058 1.0000
vn -0.0010 0.0057 1.0000
vn 0.1444 0.2368 0.9608
vn -0.0070 -0.0238 0.9997
vn -0.0005 0.0078 1.0000
vn 0.0115 0.0282 0.9995
vn 0.0005 0.0087 1.0000
vn 0.0226 -0.0551 0.9982
vn 0.1569 -0.2913 0.9437
vn -0.0038 0.0131 0.9999
vn 0.0141 0.0261 0.9996
vn -0.0007 -0.0037 1.0000
vn -0.0000 -0.0000 1.0000
vn 0.0148 -0.5609 0.8277
vn -0.4174 0.1938 0.8878
vn 0.4645 -0.0028 0.8856
vn -0.2238 -0.3937 0.8916
vn 0.0882 -0.5141 0.8532
vn -0.8835 0.2719 0.3815
vn 0.4664 -0.1674 0.8686
vn -0.2326 -0.3813 0.8947
vn 0.2301 -0.3761 0.8976
vn -0.8929 0.1740 0.4153
vn 0.4708 -0.2577 0.8437
vn -0.0000 -0.5682 0.8229
vn -0.8906 0.0021 -0.4547
vn 0.3711 0.6084 0.7015
vn 0.4216 0.0110 0.9067
vn -0.5930 0.0088 0.8052
vn -0.0000 0.5695 0.8220
vn 0.1999 0.4125 0.8888
vn 0.3705 -0.6075 0.7026
vn -0.8884 -0.4573 0.0415
vn 0.2188 0.3888 0.8950
vn -0.9562 -0.0092 0.2926
vn 0.1051 0.4996 0.8598
vn -0.4422 0.5953 0.6709
vn -0.3680 -0.0954 0.9249
vn 0.0166 0.5570 0.8304
vn 0.1920 -0.4240 0.8851
vn -0.2786 0.4330 0.8573
vn -0.1508 0.6169 0.7725
vn 0.4225 0.0083 0.9063
vn -0.2279 0.6252 0.7465
vn -0.2702 0.4102 0.8711
vn 0.4221 -0.0090 0.9065
vn -0.4484 -0.5923 0.6694
vn 0.4271 0.0062 0.9042
vn -0.2248 -0.6235 0.7488
vn 0.4694 0.2363 0.8508
vn -0.1277 -0.6281 0.7676
vn -0.3371 -0.1838 0.9234
vn 0.4663 0.1777 0.8666
vn 0.0222 -0.5751 0.8178
vn -0.4338 0.2223 0.8732
vn -0.5251 -0.1033 0.8448
vn -0.9331 0.1512 0.3262
vn -0.9180 -0.2916 0.2688
vn -0.7888 0.5080 -0.3460
vn 0.3706 -0.6075 0.7026
vn -0.5929 0.0063 0.8053
vn -0.9831 -0.1700 -0.0673
vn -0.9195 0.3887 0.0576
vn -0.2488 0.4280 0.8689
vn -0.2332 0.3823 0.8941
vn -0.1325 -0.6129 0.7790
vn 0.8894 -0.3411 0.3043
vn 0.8927 -0.3325 0.3042
vn 0.8900 -0.3397 0.3043
vn 0.3988 0.8522 0.3387
vn 0.3901 0.8560 0.3392
vn 0.3869 0.8574 0.3393
vn -0.3917 -0.8623 0.3210
vn -0.3816 -0.8668 0.3210
vn -0.3868 -0.8645 0.3210
vn 0.3803 -0.8714 0.3099
vn 0.3901 -0.8670 0.3100
vn 0.3876 -0.8681 0.3100
vn -0.3723 0.8584 0.3528
vn -0.3789 0.8555 0.3531
vn -0.3806 0.8547 0.3531
vn 0.8881 0.3347 0.3149
vn 0.8848 0.3434 0.3149
vn 0.8868 0.3383 0.3149
vn -0.0487 0.0744 0.9960
vn -0.0528 -0.0711 0.9961
vn 0.0521 -0.0051 0.9986
vn 0.0100 0.0494 0.9987
vn 0.2947 -0.1701 0.9403
vn -0.0000 -0.4275 0.9040
vn -0.3703 -0.2138 0.9040
vn -0.3610 0.2084 0.9090
vn 0.0547 -0.0000 0.9985
vn -0.0000 0.4169 0.9090
vn 0.2118 0.1223 0.9696
vn -0.3245 0.1979 0.9250
vn -0.0497 0.4134 0.9092
vn 0.7021 0.3371 0.6272
vn 0.2478 -0.0857 0.9650
vn 0.0578 -0.7355 0.6751
vn -0.4037 -0.2059 0.8914
vn 0.2615 -0.1299 0.9564
vn 0.0436 -0.3176 0.9472
vn -0.2468 -0.0599 0.9672
vn -0.2467 0.0665 0.9668
vn -0.0546 -0.0000 0.9985
vn -0.0174 0.0215 0.9996
vn -0.0000 0.0516 0.9987
vn 0.0836 0.1980 0.9766
vn 0.2595 0.1787 0.9491
vn -0.3630 0.2295 0.9031
vn 0.0301 0.7563 0.6535
vn 0.3088 0.2565 0.9159
vn 0.6172 -0.4091 0.6721
vn -0.0000 -0.4418 0.8971
vn -0.3277 -0.1409 0.9342
vn -0.0008 -0.0036 1.0000
vn 0.0468 -0.0327 0.9984
vn 0.0310 -0.0504 0.9982
vn 0.0338 -0.0327 0.9989
vn 0.0019 0.0141 0.9999
vn 0.0311 -0.0392 0.9987
vn 0.0019 0.0029 1.0000
vn -0.0139 -0.0036 0.9999
vn 0.0165 -0.0448 0.9989
vn 0.0165 0.0085 0.9998
vn -0.0073 -0.0182 0.9998
vn 0.0403 -0.0182 0.9990
vn 0.1255 0.1748 0.9766
vn 0.2086 -0.0652 0.9758
vn -0.1766 -0.1174 0.9773
vn 0.2083 0.0817 0.9747
vn 0.0788 -0.2099 0.9745
vn -0.0930 -0.2097 0.9733
vn -0.0473 0.1760 0.9833
vn -0.1777 0.0302 0.9836
vt -12.472265 -25.636311
vt -15.448341 -28.432596
vt -12.275564 -28.453548
vt 8.104870 -25.636868
vt 11.080681 -28.432552
vt 12.424047 -25.636129
vt 5.165151 -28.521093
vt 7.907935 -28.453457
vt 5.165215 -24.870068
vt 2.225551 -26.992758
vt 2.225670 -23.561342
vt -0.714039 -25.976877
vt -0.584357 -22.835819
vt -3.653633 -25.976721
vt -6.593065 -23.561972
vt -3.783303 -22.836515
vt -9.532648 -24.871822
vt -6.593195 -26.993181
vt -9.532820 -28.520315
vt -12.471939 -1.527108
vt -9.532423 -6.614368
vt -9.532377 -1.526468
vt -12.472017 -6.741709
vt -9.532520 -10.264616
vt -12.472075 -10.520471
vt -9.532602 -13.915207
vt -12.472116 -14.299547
vt -9.532612 -17.567537
vt -12.472239 -18.076796
vt -9.532610 -21.220158
vt -12.472240 -21.856779
vt -6.592886 -6.394874
vt -6.592803 -1.526192
vt -6.592965 -9.827291
vt -6.592957 -13.261763
vt -6.593017 -16.694567
vt -6.592977 -20.129810
vt -3.653282 -6.250178
vt -3.653232 -1.525814
vt -3.653371 -9.537231
vt -3.653338 -12.827143
vt -3.653275 -16.117750
vt -3.783065 -19.257780
vt -4.583586 -21.046785
vt -0.713666 -1.525281
vt -0.713668 -6.250800
vt -0.713756 -9.537859
vt -0.713720 -12.827867
vt -0.713787 -16.115431
vt -2.183617 -18.648560
vt -0.585372 -19.261486
vt -2.196113 -21.057320
vt 2.225930 -1.525513
vt 2.225916 -6.395845
vt 2.225801 -9.827378
vt 2.225785 -13.261237
vt 2.225739 -16.694427
vt 2.225710 -20.128012
vt 5.165581 -1.526995
vt 5.165486 -6.613722
vt 5.165433 -10.265031
vt 5.165375 -13.916198
vt 5.165409 -17.569540
vt 5.165357 -21.220881
vt 8.105095 -1.525249
vt 8.105112 -6.742152
vt 8.104983 -10.519189
vt 8.104950 -14.298447
vt 8.104961 -18.078827
vt 8.104869 -21.856741
vt 12.709137 -5.519267
vt 11.339634 -1.523472
vt 14.054701 -9.153380
vt 14.953333 -13.613166
vt 14.953434 -18.449335
vt 14.054592 -22.906187
vt -17.076235 -5.520310
vt -18.421976 -9.154200
vt -19.320801 -13.611530
vt -19.320805 -18.447891
vt -18.422150 -22.906483
vt -16.791666 -25.635471
vt -2.183734 -23.446474
vt 0.216235 -21.048244
vt -15.706703 -1.524126
vt -21.592661 -12.797024
vt -7.178054 -27.951553
vt 14.359915 -26.414625
vt 16.206587 -23.322832
vt -21.592697 -18.273590
vt 14.682793 -3.631278
vt 13.131731 -1.514156
vt -3.848854 -26.800362
vt 17.224573 -18.275227
vt -20.574932 -23.323164
vt -0.519617 -26.800541
vt 17.224459 -12.798025
vt -18.728327 -26.413879
vt -17.206944 -29.581764
vt 2.809612 -27.951075
vt 16.206713 -7.747096
vt 9.245193 -29.605389
vt 12.838486 -29.581717
vt 6.138855 -29.681990
vt -19.050617 -3.632465
vt -13.613621 -29.605490
vt -20.574732 -7.748027
vt -10.507324 -29.681107
vt -17.499586 -1.514899
vt -0.324103 18.423340
vt 2.226320 28.861210
vt -0.713278 28.861450
vt 10.830505 18.423365
vt 11.339989 26.222492
vt 8.105466 27.494879
vt -11.478661 18.422152
vt -12.471567 27.493017
vt -15.196836 18.421515
vt -19.288364 18.424494
vt -17.499247 25.083260
vt -21.556026 18.433727
vt -15.706350 26.221834
vt -4.042283 18.422812
vt -3.652844 28.860918
vt 7.112372 18.421623
vt 5.165963 28.352558
vt -6.592415 28.860537
vt -7.760469 18.422428
vt 3.394110 18.423101
vt 14.921801 18.425144
vt 13.132071 25.084003
vt -9.531996 28.353085
vt -7.760639 5.123348
vt -11.478828 5.123074
vt -11.478745 11.772615
vt -7.760554 11.772890
vt 14.921631 5.126066
vt 17.188507 5.135378
vt 14.921715 11.775604
vt 17.188591 11.784920
vt 3.393939 5.124022
vt 7.112206 5.122540
vt 3.394026 11.773563
vt 7.112290 11.772082
vt -4.042452 5.123724
vt -4.042367 11.773266
vt 10.830336 5.124285
vt 10.830421 11.773827
vt -0.324273 5.124261
vt -0.324188 11.773803
vt -15.197006 5.122436
vt -19.288534 5.125416
vt -19.288450 11.774953
vt -15.196920 11.771977
vt -21.556196 5.134643
vt -21.556110 11.784184
vt 11.339743 27.514618
vt -6.592660 30.152664
vt 5.165718 29.644686
vt 2.226074 30.153343
vt -15.706594 27.513968
vt -9.532242 29.645218
vt -0.713524 30.153582
vt 8.105219 28.787014
vt -12.471813 28.785152
vt -3.653088 30.153042
vt 17.188677 18.434460
vt 19.952503 -26.730957
vt 19.952503 -26.180597
vt 19.789562 -26.489523
vt -24.161121 -14.255382
vt -24.161121 -20.457161
vt 9.464216 32.826992
vt -0.301219 -30.111765
vt -19.526327 28.633434
vt -23.008760 -26.174520
vt 6.135975 33.798088
vt 3.468287 -31.414454
vt -24.119604 21.104532
vt -20.917946 -29.673969
vt 2.807578 34.374016
vt 7.237807 -33.374275
vt -24.119699 13.575627
vt -0.520768 34.374275
vt 15.155458 -1.481372
vt 19.748734 6.047539
vt 10.754944 -33.287537
vt -24.119795 6.046707
vt -3.849079 34.373676
vt 19.748825 13.576451
vt 16.546064 -29.674816
vt -19.526711 -1.482210
vt -7.177396 34.373245
vt 19.748922 21.105360
vt 18.636951 -26.174145
vt -10.505724 33.798695
vt 19.789566 -20.459017
vt -13.834042 32.824894
vt 19.789433 -14.257478
vt -19.195374 -33.260792
vt 15.155842 28.634274
vt 13.126490 31.386343
vt 18.637091 -8.538588
vt 14.823437 -33.260738
vt 16.911644 -3.878472
vt -15.126848 -33.287655
vt -21.282867 -3.879813
vt -11.609758 -33.373276
vt -23.008535 -8.539641
vt -7.840203 -31.414997
vt -17.496607 31.385599
vt -4.070734 -30.111568
vt 19.789566 -27.728134
vt 19.975105 -27.171604
vt 19.789566 -27.063299
vt 20.364050 -26.947098
vt 20.365290 -26.730957
vt 20.941019 -27.063446
vt 20.753323 -27.621342
vt 20.941019 -27.728277
vt 20.694742 -27.586349
vt 20.652662 -27.203707
vt 20.365042 -27.015221
vt 20.365290 -28.060621
vt 20.364628 -27.845688
vt 20.035051 -27.205729
vt 19.975227 -27.621006
vt 20.035103 -27.586422
vt 20.753754 -27.171591
vt 20.365042 -27.776672
vt 20.266224 -29.789688
vt 20.266224 -31.642925
vt 22.337513 -30.716440
vt 24.409451 -29.790480
vt 23.027542 -28.557932
vt 21.411402 -28.646166
vt 24.408836 -31.642498
vt 21.648134 -32.878551
vt 23.264269 -32.787235
vt 20.127647 -29.727663
vt 23.326246 -32.925724
vt 24.547380 -31.704414
vt 21.602003 -33.023144
vt 20.127647 -31.704865
vt 24.548037 -29.728502
vt 23.073681 -28.413507
vt 21.349436 -28.507645
vt 24.885063 -29.576454
vt 21.489086 -33.374275
vt 23.476677 -33.261974
vt 21.197948 -28.169138
vt 19.789562 -29.575487
vt 24.884304 -31.854141
vt 19.789562 -31.854664
vt 23.185534 -28.060625
s 0
g sandMesh_sandMat
usemtl sandMat
f 80/1/1 4/2/1 13/3/1
f 38/4/2 3/5/2 21/6/2
f 38/4/3 19/7/3 20/8/3
f 44/9/4 18/10/4 19/7/4
f 50/11/5 17/12/5 18/10/5
f 56/13/6 16/14/6 17/12/6
f 68/15/7 16/14/7 62/16/7
f 74/17/8 15/18/8 68/15/8
f 80/1/9 14/19/9 74/17/9
f 12/20/10 69/21/10 11/22/10
f 75/23/11 70/24/11 69/21/11
f 76/25/12 71/26/12 70/24/12
f 77/27/13 72/28/13 71/26/13
f 78/29/14 73/30/14 72/28/14
f 79/31/15 74/17/15 73/30/15
f 11/22/16 63/32/16 10/33/16
f 69/21/17 64/34/17 63/32/17
f 70/24/18 65/35/18 64/34/18
f 71/26/19 66/36/19 65/35/19
f 72/28/20 67/37/20 66/36/20
f 73/30/21 68/15/21 67/37/21
f 10/33/22 57/38/22 9/39/22
f 63/32/23 58/40/23 57/38/23
f 64/34/24 59/41/24 58/40/24
f 65/35/25 60/42/25 59/41/25
f 66/36/26 61/43/26 60/42/26
f 67/37/27 211/44/27 61/43/27
f 8/45/28 57/38/28 51/46/28
f 57/38/29 52/47/29 51/46/29
f 52/47/30 59/41/30 53/48/30
f 59/41/31 54/49/31 53/48/31
f 54/49/32 210/50/32 55/51/32
f 55/51/33 210/50/34 208/52/35
f 7/53/36 51/46/36 45/54/36
f 45/54/37 52/47/37 46/55/37
f 46/55/38 53/48/38 47/56/38
f 47/56/39 54/49/39 48/57/39
f 48/57/40 55/51/40 49/58/40
f 49/58/41 56/13/41 50/11/41
f 6/59/42 45/54/42 39/60/42
f 39/60/43 46/55/43 40/61/43
f 40/61/44 47/56/44 41/62/44
f 41/62/45 48/57/45 42/63/45
f 42/63/46 49/58/46 43/64/46
f 43/64/47 50/11/47 44/9/47
f 5/65/48 39/60/48 33/66/48
f 33/66/49 40/61/49 34/67/49
f 34/67/50 41/62/50 35/68/50
f 35/68/51 42/63/51 36/69/51
f 36/69/52 43/64/52 37/70/52
f 37/70/53 44/9/53 38/4/53
f 5/65/54 26/71/54 1/72/54
f 33/66/55 25/73/55 26/71/55
f 34/67/56 24/74/56 25/73/56
f 35/68/57 23/75/57 24/74/57
f 36/69/58 22/76/58 23/75/58
f 37/70/59 21/6/59 22/76/59
f 12/20/60 27/77/60 75/23/60
f 75/23/61 28/78/61 76/25/61
f 76/25/62 29/79/62 77/27/62
f 77/27/63 30/80/63 78/29/63
f 78/29/64 31/81/64 79/31/64
f 79/31/65 32/82/65 80/1/65
f 80/1/66 32/82/66 4/2/66
f 38/4/67 20/8/67 3/5/67
f 38/4/68 44/9/68 19/7/68
f 44/9/69 50/11/69 18/10/69
f 50/11/70 56/13/70 17/12/70
f 212/83/71 16/14/71 56/13/71
f 68/15/72 15/18/72 16/14/72
f 74/17/73 14/19/73 15/18/73
f 80/1/74 13/3/74 14/19/74
f 12/20/75 75/23/75 69/21/75
f 75/23/76 76/25/76 70/24/76
f 76/25/77 77/27/77 71/26/77
f 77/27/78 78/29/78 72/28/78
f 78/29/79 79/31/79 73/30/79
f 79/31/80 80/1/80 74/17/80
f 11/22/81 69/21/81 63/32/81
f 69/21/82 70/24/82 64/34/82
f 70/24/83 71/26/83 65/35/83
f 71/26/84 72/28/84 66/36/84
f 72/28/85 73/30/85 67/37/85
f 73/30/86 74/17/86 68/15/86
f 10/33/87 63/32/87 57/38/87
f 63/32/88 64/34/88 58/40/88
f 64/34/89 65/35/89 59/41/89
f 65/35/90 66/36/90 60/42/90
f 66/36/91 67/37/91 61/43/91
f 67/37/92 68/15/92 62/16/92
f 8/45/93 9/39/93 57/38/93
f 57/38/94 58/40/94 52/47/94
f 52/47/95 58/40/95 59/41/95
f 59/41/96 60/42/96 54/49/96
f 54/49/97 60/42/97 61/43/97
f 210/50/98 61/43/99 208/52/100
f 7/53/101 8/45/101 51/46/101
f 45/54/102 51/46/102 52/47/102
f 46/55/103 52/47/103 53/48/103
f 47/56/104 53/48/104 54/49/104
f 48/57/105 54/49/105 55/51/105
f 49/58/106 209/84/106 56/13/106
f 6/59/107 7/53/107 45/54/107
f 39/60/108 45/54/108 46/55/108
f 40/61/109 46/55/109 47/56/109
f 41/62/110 47/56/110 48/57/110
f 42/63/111 48/57/111 49/58/111
f 43/64/112 49/58/112 50/11/112
f 5/65/113 6/59/113 39/60/113
f 33/66/114 39/60/114 40/61/114
f 34/67/115 40/61/115 41/62/115
f 35/68/116 41/62/116 42/63/116
f 36/69/117 42/63/117 43/64/117
f 37/70/118 43/64/118 44/9/118
f 5/65/119 33/66/119 26/71/119
f 33/66/120 34/67/120 25/73/120
f 34/67/121 35/68/121 24/74/121
f 35/68/122 36/69/122 23/75/122
f 36/69/123 37/70/123 22/76/123
f 37/70/124 38/4/124 21/6/124
f 12/20/125 2/85/125 27/77/125
f 75/23/126 27/77/126 28/78/126
f 76/25/127 28/78/127 29/79/127
f 77/27/128 29/79/128 30/80/128
f 78/29/129 30/80/129 31/81/129
f 79/31/130 31/81/130 32/82/130
f 28/78/131 101/86/131 29/79/131
f 14/19/132 87/87/132 15/18/132
f 22/76/133 93/88/133 94/89/133
f 29/79/134 102/90/134 30/80/134
f 1/72/135 98/91/135 81/92/135
f 15/18/136 88/93/136 16/14/136
f 23/75/137 94/89/137 95/94/137
f 30/80/138 103/95/138 31/81/138
f 16/14/139 89/96/139 17/12/139
f 24/74/140 95/94/140 96/97/140
f 31/81/141 104/98/141 32/82/141
f 4/2/142 104/98/142 84/99/142
f 18/10/143 89/96/143 90/100/143
f 25/73/144 96/97/144 97/101/144
f 3/5/145 92/102/145 83/103/145
f 19/7/146 90/100/146 91/104/146
f 26/71/147 97/101/147 98/91/147
f 20/8/148 91/104/148 92/102/148
f 2/85/149 99/105/149 27/77/149
f 4/2/150 85/106/150 13/3/150
f 27/77/151 100/107/151 28/78/151
f 13/3/152 86/108/152 14/19/152
f 3/5/153 93/88/153 21/6/153
f 28/78/154 100/107/154 101/86/154
f 14/19/132 86/108/132 87/87/132
f 22/76/133 21/6/133 93/88/133
f 29/79/155 101/86/155 102/90/155
f 1/72/156 26/71/156 98/91/156
f 15/18/136 87/87/136 88/93/136
f 23/75/137 22/76/137 94/89/137
f 30/80/138 102/90/138 103/95/138
f 16/14/139 88/93/139 89/96/139
f 24/74/140 23/75/140 95/94/140
f 31/81/141 103/95/141 104/98/141
f 4/2/142 32/82/142 104/98/142
f 18/10/143 17/12/143 89/96/143
f 25/73/144 24/74/144 96/97/144
f 3/5/145 20/8/145 92/102/145
f 19/7/157 18/10/157 90/100/157
f 26/71/147 25/73/147 97/101/147
f 20/8/148 19/7/148 91/104/148
f 2/85/158 82/109/158 99/105/158
f 4/2/150 84/99/150 85/106/150
f 27/77/151 99/105/151 100/107/151
f 13/3/152 85/106/152 86/108/152
f 3/5/153 83/103/153 93/88/153
f 117/110/159 109/111/159 110/112/159
f 123/113/160 105/114/160 107/115/160
f 134/116/161 114/117/161 129/118/161
f 140/119/162 116/120/162 135/121/162
f 129/118/163 106/122/163 140/119/163
f 141/123/164 110/112/164 111/124/164
f 144/125/165 107/115/165 108/126/165
f 141/123/166 112/127/166 147/128/166
f 122/129/167 108/126/167 109/111/167
f 128/130/168 115/131/168 105/114/168
f 147/128/169 113/132/169 134/116/169
f 11/22/170 149/133/170 132/134/170
f 149/133/171 133/135/171 132/134/171
f 148/136/171 134/116/171 133/135/171
f 81/92/172 126/137/172 1/72/172
f 150/138/173 127/139/173 126/137/173
f 151/140/173 128/130/173 127/139/173
f 6/59/174 120/141/174 7/53/174
f 146/142/175 121/143/175 120/141/175
f 145/144/175 122/129/175 121/143/175
f 10/33/176 143/145/176 149/133/176
f 143/145/177 148/136/177 149/133/177
f 142/146/177 147/128/177 148/136/177
f 5/65/178 146/142/178 6/59/178
f 125/147/179 145/144/179 146/142/179
f 124/148/179 144/125/179 145/144/179
f 8/45/180 143/145/180 9/39/180
f 119/149/181 142/146/181 143/145/181
f 118/150/181 141/123/181 142/146/181
f 2/85/182 131/151/182 138/152/182
f 131/151/183 139/153/183 138/152/183
f 130/154/183 140/119/183 139/153/183
f 82/109/184 138/152/184 137/155/184
f 138/152/185 136/156/185 137/155/185
f 139/153/185 135/121/185 136/156/185
f 12/20/186 132/134/186 131/151/186
f 132/134/187 130/154/187 131/151/187
f 133/135/187 129/118/187 130/154/187
f 1/72/188 125/147/188 5/65/188
f 126/137/189 124/148/189 125/147/189
f 127/139/189 123/113/189 124/148/189
f 7/53/190 119/149/190 8/45/190
f 120/141/191 118/150/191 119/149/191
f 121/143/191 117/110/191 118/150/191
f 105/114/192 115/131/192 153/157/192
f 111/124/193 160/158/193 112/127/193
f 109/111/194 156/159/194 157/160/194
f 116/120/195 106/122/195 154/161/195
f 114/117/196 154/161/196 106/122/196
f 112/127/197 161/162/197 113/132/197
f 110/112/198 157/160/198 158/163/198
f 107/115/199 153/157/199 155/164/199
f 113/132/200 162/165/200 114/117/200
f 110/112/201 159/166/201 111/124/201
f 108/126/202 155/164/202 156/159/202
f 117/110/203 122/129/203 109/111/203
f 123/113/204 128/130/204 105/114/204
f 134/116/205 113/132/205 114/117/205
f 140/119/206 106/122/206 116/120/206
f 129/118/207 114/117/207 106/122/207
f 141/123/208 117/110/208 110/112/208
f 144/125/209 123/113/209 107/115/209
f 141/123/210 111/124/210 112/127/210
f 122/129/211 144/125/211 108/126/211
f 128/130/212 152/167/212 115/131/212
f 147/128/213 112/127/213 113/132/213
f 11/22/214 10/33/214 149/133/214
f 149/133/171 148/136/171 133/135/171
f 148/136/171 147/128/171 134/116/171
f 81/92/215 150/138/215 126/137/215
f 150/138/173 151/140/173 127/139/173
f 151/140/173 152/167/173 128/130/173
f 6/59/216 146/142/216 120/141/216
f 146/142/175 145/144/175 121/143/175
f 145/144/175 144/125/175 122/129/175
f 10/33/217 9/39/217 143/145/217
f 143/145/177 142/146/177 148/136/177
f 142/146/177 141/123/177 147/128/177
f 5/65/218 125/147/218 146/142/218
f 125/147/179 124/148/179 145/144/179
f 124/148/179 123/113/179 144/125/179
f 8/45/219 119/149/219 143/145/219
f 119/149/181 118/150/181 142/146/181
f 118/150/181 117/110/181 141/123/181
f 2/85/220 12/20/220 131/151/220
f 131/151/183 130/154/183 139/153/183
f 130/154/183 129/118/183 140/119/183
f 82/109/221 2/85/221 138/152/221
f 138/152/185 139/153/185 136/156/185
f 139/153/185 140/119/185 135/121/185
f 12/20/222 11/22/222 132/134/222
f 132/134/187 133/135/187 130/154/187
f 133/135/187 134/116/187 129/118/187
f 1/72/223 126/137/223 125/147/223
f 126/137/189 127/139/189 124/148/189
f 127/139/189 128/130/189 123/113/189
f 7/53/224 120/141/224 119/149/224
f 120/141/191 121/143/191 118/150/191
f 121/143/191 122/129/191 117/110/191
f 111/124/193 159/166/193 160/158/193
f 109/111/194 108/126/194 156/159/194
f 114/117/196 162/165/196 154/161/196
f 112/127/197 160/158/197 161/162/197
f 110/112/198 109/111/198 157/160/198
f 107/115/199 105/114/199 153/157/199
f 113/132/200 161/162/200 162/165/200
f 110/112/201 158/163/201 159/166/201
f 108/126/202 107/115/202 155/164/202
f 165/168/225 164/169/225 163/170/225
f 102/90/226 186/171/226 187/172/226
f 153/157/227 200/173/227 155/164/227
f 88/93/228 174/174/228 89/96/228
f 154/161/229 191/175/229 116/120/229
f 103/95/230 187/172/230 188/176/230
f 155/164/231 201/177/231 156/159/231
f 90/100/232 174/174/232 175/178/232
f 116/120/233 192/179/233 135/121/233
f 104/98/234 188/176/234 189/180/234
f 157/160/235 201/177/235 202/181/235
f 91/104/236 175/178/236 176/182/236
f 135/121/237 193/183/237 136/156/237
f 157/160/238 203/184/238 158/163/238
f 150/138/239 166/185/239 195/186/239
f 92/102/240 176/182/240 177/187/240
f 136/156/237 194/188/237 137/155/237
f 158/163/241 204/189/241 159/166/241
f 151/140/242 195/186/242 196/190/242
f 83/103/243 178/191/243 93/88/243
f 137/155/244 167/192/244 82/109/244
f 160/158/245 204/189/245 205/193/245
f 152/167/242 196/190/242 197/194/242
f 93/88/246 179/195/246 94/89/246
f 161/162/247 205/193/247 206/196/247
f 94/89/248 180/197/248 95/94/248
f 98/91/249 166/185/249 81/92/249
f 161/162/250 207/198/250 162/165/250
f 95/94/251 181/199/251 96/97/251
f 84/99/252 189/180/252 169/200/252
f 153/157/253 190/201/253 198/202/253
f 96/97/254 182/203/254 97/101/254
f 83/103/255 177/187/255 168/204/255
f 97/101/256 183/205/256 98/91/256
f 115/131/257 197/194/257 190/201/257
f 84/99/258 170/206/258 85/106/258
f 99/105/259 167/192/259 184/207/259
f 85/106/260 171/208/260 86/108/260
f 100/107/261 184/207/261 185/209/261
f 86/108/262 172/210/262 87/87/262
f 101/86/263 185/209/263 186/171/263
f 154/161/264 207/198/264 199/211/264
f 87/87/265 173/212/265 88/93/265
f 102/90/266 101/86/266 186/171/266
f 153/157/267 198/202/267 200/173/267
f 88/93/228 173/212/228 174/174/228
f 154/161/229 199/211/229 191/175/229
f 103/95/230 102/90/230 187/172/230
f 155/164/268 200/173/268 201/177/268
f 90/100/232 89/96/232 174/174/232
f 116/120/233 191/175/233 192/179/233
f 104/98/234 103/95/234 188/176/234
f 157/160/269 156/159/269 201/177/269
f 91/104/236 90/100/236 175/178/236
f 135/121/237 192/179/237 193/183/237
f 157/160/270 202/181/270 203/184/270
f 150/138/239 81/92/239 166/185/239
f 92/102/240 91/104/240 176/182/240
f 136/156/237 193/183/237 194/188/237
f 158/163/271 203/184/271 204/189/271
f 151/140/242 150/138/242 195/186/242
f 83/103/243 168/204/243 178/191/243
f 137/155/272 194/188/272 167/192/272
f 160/158/273 159/166/273 204/189/273
f 152/167/242 151/140/242 196/190/242
f 93/88/246 178/191/246 179/195/246
f 161/162/274 160/158/274 205/193/274
f 94/89/248 179/195/248 180/197/248
f 98/91/249 183/205/249 166/185/249
f 161/162/275 206/196/275 207/198/275
f 95/94/251 180/197/251 181/199/251
f 84/99/252 104/98/252 189/180/252
f 153/157/276 115/131/276 190/201/276
f 96/97/254 181/199/254 182/203/254
f 83/103/255 92/102/255 177/187/255
f 97/101/256 182/203/256 183/205/256
f 115/131/277 152/167/277 197/194/277
f 84/99/258 169/200/258 170/206/258
f 99/105/259 82/109/259 167/192/259
f 85/106/260 170/206/260 171/208/260
f 100/107/261 99/105/261 184/207/261
f 86/108/262 171/208/262 172/210/262
f 101/86/278 100/107/278 185/209/278
f 154/161/264 162/165/264 207/198/264
f 87/87/265 172/210/265 173/212/265
f 62/16/279 212/83/280 208/52/281
f 56/13/282 209/84/283 208/52/284
f 61/43/285 211/44/286 208/52/287
f 211/44/288 62/16/289 208/52/290
f 209/84/291 55/51/292 208/52/293
f 212/83/294 56/13/295 208/52/296
f 67/37/297 62/16/297 211/44/297
f 54/49/298 61/43/298 210/50/298
f 212/83/299 62/16/299 16/14/299
f 49/58/300 55/51/300 209/84/300
f 213/213/301 225/214/301 215/215/301
f 215/215/302 227/216/302 217/217/302
f 227/216/303 219/218/303 217/217/303
f 219/218/304 229/219/304 221/220/304
f 222/221/305 220/222/305 218/223/305
f 229/219/306 223/224/306 221/220/306
f 230/225/307 213/213/307 223/224/307
f 216/226/308 226/227/308 214/228/308
f 218/223/309 225/214/309 216/226/309
f 220/222/310 227/216/310 218/223/310
f 222/221/311 228/229/311 220/222/311
f 222/221/312 230/225/312 229/219/312
f 224/230/313 226/227/313 230/225/313
f 213/213/314 226/227/314 225/214/314
f 215/215/315 225/214/315 227/216/315
f 227/216/316 228/229/316 219/218/316
f 219/218/317 228/229/317 229/219/317
f 218/223/318 216/226/318 222/221/318
f 216/226/319 214/228/319 222/221/319
f 214/228/320 224/230/320 222/221/320
f 229/219/321 230/225/321 223/224/321
f 230/225/322 226/227/322 213/213/322
f 216/226/323 225/214/323 226/227/323
f 218/223/324 227/216/324 225/214/324
f 220/222/325 228/229/325 227/216/325
f 222/221/326 229/219/326 228/229/326
f 222/221/327 224/230/327 230/225/327
f 224/230/328 214/228/328 226/227/328
f 233/231/329 237/232/329 239/233/329
f 235/234/330 231/235/330 239/233/330
f 231/235/331 236/236/331 239/233/331
f 232/237/332 235/234/332 239/233/332
f 234/238/333 238/239/333 239/233/333
f 236/236/334 233/231/334 239/233/334
f 238/239/335 232/237/335 239/233/335
f 237/232/336 234/238/336 239/233/336
f 236/236/337 242/240/337 233/231/337
f 232/237/338 247/241/338 241/242/338
f 237/232/339 243/243/339 234/238/339
f 233/231/339 246/244/339 237/232/339
f 231/235/340 244/245/340 240/246/340
f 231/235/337 245/247/337 236/236/337
f 235/234/340 241/242/340 244/245/340
f 238/239/338 243/243/338 247/241/338
f 241/242/341 252/248/341 244/245/341
f 247/241/342 251/249/342 255/250/342
f 242/240/343 253/251/343 250/252/343
f 241/242/344 255/250/344 249/253/344
f 246/244/345 251/249/345 243/243/345
f 246/244/346 250/252/346 254/254/346
f 244/245/347 248/255/347 240/246/347
f 245/247/348 248/255/348 253/251/348
f 236/236/337 245/247/337 242/240/337
f 232/237/338 238/239/338 247/241/338
f 237/232/339 246/244/339 243/243/339
f 233/231/339 242/240/339 246/244/339
f 231/235/340 235/234/340 244/245/340
f 231/235/337 240/246/337 245/247/337
f 235/234/340 232/237/340 241/242/340
f 238/239/338 234/238/338 243/243/338
f 241/242/341 249/253/341 252/248/341
f 247/241/342 243/243/342 251/249/342
f 242/240/343 245/247/343 253/251/343
f 241/242/344 247/241/344 255/250/344
f 246/244/345 254/254/345 251/249/345
f 246/244/346 242/240/346 250/252/346
f 244/245/347 252/248/347 248/255/347
f 245/247/348 240/246/348 248/255/348
