# Blender 5.0.1
# www.blender.org
mtllib model.mtl
o flagMesh
v -120.221245 -5.223732 150.753708
v -120.547546 -1.223731 146.227646
v -120.547539 -1.223731 152.227646
v -120.258080 -1.056617 146.227646
v -120.258072 -1.056616 152.227646
v -120.258080 -1.390845 146.227646
v -120.258072 -1.390845 152.227646
v -120.487892 -5.223732 150.753708
v -120.221245 -1.223731 149.489426
v -120.221237 -1.223731 152.017990
v -120.487892 -1.223731 149.489426
v -120.487885 -1.223731 152.017990
vn 1.0000 -0.0000 -0.0000
vn -1.0000 -0.0000 -0.0000
vn -0.5000 0.8660 -0.0000
vn -0.0000 -0.3014 -0.9535
vn -0.0000 -0.0000 1.0000
vn -0.0000 1.0000 -0.0000
vn -0.5000 -0.8660 -0.0000
vn -0.0000 -0.0000 -1.0000
vn -0.0000 -0.3014 0.9535
vt 0.813730 0.577217
vt 0.813730 0.939441
vt 0.240714 0.758329
vt 0.055708 0.000000
vt 0.055708 1.000000
vt 0.000000 1.000000
vt 0.000000 0.000000
vt 0.375000 0.500000
vt 0.625000 0.500000
vt 0.625000 0.750000
vt 0.375000 0.750000
vt 0.144531 0.386780
vt 0.044477 0.213480
vt 0.244586 0.213480
vt 0.125000 0.500000
vt 0.125000 0.750000
vt 0.144531 0.040180
vt 0.875000 0.500000
vt 0.875000 0.750000
s 1
g flagMesh_flatMat
usemtl flatMat
f 9/1/1 10/2/1 1/3/1
f 8/3/2 12/2/2 11/1/2
f 2/4/3 3/5/3 5/6/3 4/7/3
f 8/8/4 11/9/4 9/10/4 1/11/4
f 4/4/1 5/5/1 7/6/1 6/7/1
f 5/12/5 3/13/5 7/14/5
f 11/15/6 12/8/6 10/11/6 9/16/6
f 6/4/7 7/5/7 3/6/7 2/7/7
f 2/14/8 4/13/8 6/17/8
f 12/9/9 8/18/9 1/19/9 10/10/9
