# Blender 5.0.1
# www.blender.org
mtllib model.mtl
o pgorleyMesh
v 0.000000 0.000000 1.000000
v -0.707107 0.000000 0.707107
v -0.923880 0.000000 0.382683
v -1.000000 0.000000 0.000000
v -0.923880 0.000000 -0.382683
v -0.707107 0.000000 -0.707107
v 0.000000 0.000000 -1.000000
v -0.270598 0.270598 0.923880
v -0.500000 0.500000 0.707107
v -0.653281 0.653281 0.382683
v -0.707107 0.707107 0.000000
v -0.653281 0.653281 -0.382683
v -0.500000 0.500000 -0.707107
v -0.270598 0.270598 -0.923880
v 0.000000 0.382683 0.923880
v 0.000000 0.707107 0.707107
v 0.000000 0.923879 0.382683
v 0.000000 1.000000 0.000000
v 0.000000 0.923879 -0.382683
v 0.000000 0.707107 -0.707107
v 0.000000 0.382683 -0.923880
v 0.270598 0.270598 0.923880
v 0.500000 0.500000 0.707107
v 0.653281 0.653281 0.382683
v 0.725107 0.629007 -0.072139
v 0.691575 0.595475 -0.310545
v 0.500000 0.500000 -0.707107
v 0.270598 0.270598 -0.923880
v 0.382683 0.000000 0.923880
v 0.707107 0.000000 0.707107
v 0.923879 0.000000 0.382683
v 0.976006 0.000000 -0.126423
v 0.923879 0.000000 -0.382683
v 0.707107 0.000000 -0.707107
v 0.382683 0.000000 -0.923880
v 0.270598 -0.270598 0.923880
v 0.500000 -0.500000 0.707107
v 0.653281 -0.653281 0.382683
v 0.725107 -0.629007 -0.072139
v 0.691575 -0.595475 -0.310545
v 0.500000 -0.500000 -0.707107
v 0.270598 -0.270598 -0.923880
v 0.000000 -0.382683 0.923880
v 0.000000 -0.707107 0.707107
v 0.000000 -0.923879 0.382683
v 0.000000 -1.000000 0.000000
v 0.000000 -0.923879 -0.382683
v 0.000000 -0.707107 -0.707107
v 0.000000 -0.382683 -0.923880
v -0.270598 -0.270598 0.923880
v -0.500000 -0.500000 0.707107
v -0.653281 -0.653281 0.382683
v -0.707107 -0.707107 0.000000
v -0.653281 -0.653281 -0.382683
v -0.500000 -0.500000 -0.707107
v -0.270598 -0.270598 -0.923880
v -0.382683 0.000000 0.923880
v -0.382683 0.000000 -0.923880
v 0.707107 0.707107 0.000000
v 0.653281 0.653281 -0.382683
v 0.947873 0.000000 -0.256260
v 1.000000 0.000000 0.000000
v 0.707107 -0.707107 0.000000
v 0.653281 -0.653281 -0.382683
v 0.954546 -0.340097 0.191342
v 0.929054 -0.340097 0.269799
v 0.862314 -0.340097 0.318288
v 0.779819 -0.340097 0.318288
v 0.713079 -0.340097 0.269799
v 0.954546 0.384262 0.191342
v 0.862314 0.271228 0.088640
v 0.929054 -0.227064 0.215586
v 0.862314 -0.157205 0.230570
v 0.779819 -0.157205 0.230570
v 0.713079 -0.227064 0.215586
v 0.929054 0.314403 0.127868
v 0.713079 0.454120 0.127868
v 0.929054 -0.270239 0.127868
v 0.862314 -0.227064 0.088640
v 0.779819 -0.227064 0.088640
v 0.713079 -0.270239 0.127868
v 0.779819 0.497295 0.088640
v 0.862314 0.497295 0.088640
v 0.929054 -0.409956 0.127868
v 0.862314 -0.453130 0.088640
v 0.779819 -0.453130 0.088640
v 0.713079 -0.409956 0.127868
v 0.929054 0.454120 0.127868
v 0.713079 0.497295 0.215586
v 0.929054 -0.453130 0.215586
v 0.862314 -0.522989 0.230570
v 0.779819 -0.522989 0.230570
v 0.713079 -0.453130 0.215586
v 0.779819 0.567154 0.230570
v 0.862314 0.567154 0.230570
v 0.929054 0.497295 0.215586
v 0.713079 0.384262 0.269799
v 0.779819 0.384262 0.318288
v 0.862314 0.384262 0.318288
v 0.929054 0.384262 0.269799
v 0.779819 0.271228 0.088640
v 0.713079 0.314403 0.127868
v 0.929054 0.271228 0.215586
v 0.862314 0.201370 0.230570
v 0.779819 0.201370 0.230570
v 0.713079 0.271228 0.215586
v 0.903952 0.000000 -0.111639
v 0.875819 0.000000 -0.241476
v 0.653053 0.629007 -0.057355
v 0.619520 0.595475 -0.295761
v 0.653053 -0.629007 -0.057355
v 0.619520 -0.595475 -0.295761
v 0.645276 -0.550703 0.636275
v 0.645276 -0.550703 0.729932
v 0.557867 -0.517067 0.636275
v 0.557867 -0.517067 0.729932
v 0.834267 -0.059574 0.636275
v 0.834267 -0.059574 0.729932
v 0.746858 -0.025938 0.636275
v 0.746858 -0.025938 0.729932
v 0.855701 0.162342 0.728933
v 0.855701 0.185091 0.819786
v 0.771947 0.121681 0.739115
v 0.771947 0.144431 0.829967
v 0.620187 0.618842 0.614627
v 0.620187 0.641592 0.705479
v 0.536432 0.578182 0.624808
v 0.536432 0.600931 0.715661
vn -0.0000 -0.0000 1.0000
vn -0.7296 -0.0000 0.6839
vn -0.9303 -0.0000 0.3668
vn -1.0000 -0.0000 -0.0000
vn -0.9303 -0.0000 -0.3668
vn -0.7296 -0.0000 -0.6839
vn -0.0000 -0.0000 -1.0000
vn -0.2988 0.2988 0.9063
vn -0.5159 0.5159 0.6839
vn -0.6578 0.6578 0.3668
vn -0.7071 0.7071 -0.0000
vn -0.6578 0.6578 -0.3668
vn -0.5159 0.5159 -0.6839
vn -0.2988 0.2988 -0.9063
vn -0.0000 0.4226 0.9063
vn -0.0000 0.7296 0.6839
vn -0.0000 0.9303 0.3668
vn -0.0000 1.0000 -0.0000
vn -0.0000 0.9303 -0.3668
vn -0.0000 0.7296 -0.6839
vn -0.0000 0.4226 -0.9063
vn 0.2988 0.2988 0.9063
vn 0.5159 0.5159 0.6839
vn 0.6578 0.6578 0.3668
vn 0.8455 0.0468 -0.5319
vn 0.9593 0.1260 0.2526
vn 0.5159 0.5159 -0.6839
vn 0.2988 0.2988 -0.9063
vn 0.4226 -0.0000 0.9063
vn 0.7296 -0.0000 0.6839
vn 0.9303 -0.0000 0.3668
vn 0.6361 -0.0000 -0.7716
vn 0.9313 -0.0000 -0.3642
vn 0.7296 -0.0000 -0.6839
vn 0.4226 -0.0000 -0.9063
vn 0.2988 -0.2988 0.9063
vn 0.5159 -0.5159 0.6839
vn 0.6578 -0.6578 0.3668
vn 0.8455 -0.0468 -0.5319
vn 0.9593 -0.1260 0.2526
vn 0.5159 -0.5159 -0.6839
vn 0.2988 -0.2988 -0.9063
vn -0.0000 -0.4226 0.9063
vn -0.0000 -0.7296 0.6839
vn -0.0000 -0.9303 0.3668
vn -0.0000 -1.0000 -0.0000
vn -0.0000 -0.9303 -0.3668
vn -0.0000 -0.7296 -0.6839
vn -0.0000 -0.4226 -0.9063
vn -0.2988 -0.2988 0.9063
vn -0.5159 -0.5159 0.6839
vn -0.6578 -0.6578 0.3668
vn -0.7071 -0.7071 -0.0000
vn -0.6578 -0.6578 -0.3668
vn -0.5159 -0.5159 -0.6839
vn -0.2988 -0.2988 -0.9063
vn -0.4226 -0.0000 0.9063
vn -0.4226 -0.0000 -0.9063
vn 0.7071 0.7071 0.0007
vn 0.6581 0.6579 -0.3661
vn 0.8605 -0.0000 0.5095
vn 1.0000 -0.0000 0.0025
vn 0.7071 -0.7071 0.0007
vn 0.6581 -0.6579 -0.3661
vn 1.0000 -0.0000 -0.0026
vn 0.7691 -0.0000 0.6392
vn 0.2865 -0.0000 0.9581
vn -0.2865 -0.0000 0.9581
vn -0.5878 -0.0000 0.8090
vn 0.3126 -0.5162 -0.7973
vn 0.8287 0.5158 0.2171
vn 0.3436 0.8903 0.2988
vn -0.3436 0.8903 0.2988
vn -0.7238 0.6322 0.2765
vn 0.7910 -0.2896 -0.5390
vn -0.6324 0.3492 -0.6915
vn 0.7910 0.2896 -0.5390
vn 0.3126 0.5162 -0.7973
vn -0.3126 0.5162 -0.7973
vn -0.3126 -0.5162 -0.7973
vn -0.6324 -0.3492 -0.6915
vn 0.8287 -0.5158 0.2171
vn 0.3436 -0.8903 0.2988
vn -0.3436 -0.8903 0.2988
vn -0.7238 -0.6322 0.2765
vn 0.4230 -0.0000 -0.9061
vn 0.7833 -0.0000 0.6216
vn 0.5749 -0.5055 -0.6434
vn 0.7808 -0.3787 0.4970
vn 0.5749 0.5055 -0.6434
vn 0.7808 0.3787 0.4970
vn 0.3315 -0.7462 -0.5774
vn 0.3315 -0.7462 0.5774
vn -0.7462 -0.3315 -0.5774
vn -0.7462 -0.3315 0.5774
vn 0.7462 0.3315 -0.5774
vn 0.7462 0.3315 0.5774
vn -0.3315 0.7462 -0.5774
vn -0.3315 0.7462 0.5774
vn 0.7747 -0.3904 -0.4974
vn 0.7747 -0.1100 0.6227
vn -0.2579 -0.8917 -0.3719
vn -0.2579 -0.6113 0.7482
vn 0.2579 0.6113 -0.7482
vn 0.2579 0.8917 0.3719
vn -0.7747 0.1100 -0.6227
vn -0.7747 0.3904 0.4974
vt 0.461246 0.065943
vt 0.461246 0.134457
vt 0.392732 0.134457
vt 0.392732 0.065943
vt 0.461246 0.202971
vt 0.461246 0.271484
vt 0.392732 0.271484
vt 0.392732 0.202971
vt 0.461246 0.339998
vt 0.461246 0.408512
vt 0.392732 0.408512
vt 0.392732 0.339998
vt 0.461246 0.477026
vt 0.426989 0.545539
vt 0.392732 0.477026
vt 0.426989 -0.002570
vt 0.324219 0.408512
vt 0.324219 0.339998
vt 0.358476 0.545539
vt 0.324219 0.477026
vt 0.358476 -0.002570
vt 0.324219 0.065943
vt 0.324219 0.202971
vt 0.324219 0.134457
vt 0.324219 0.271484
vt 0.289962 -0.002570
vt 0.255705 0.065943
vt 0.255705 0.202971
vt 0.255705 0.134457
vt 0.255705 0.339998
vt 0.255705 0.271484
vt 0.255705 0.477026
vt 0.255705 0.408512
vt 0.289962 0.545539
vt 0.187191 0.477026
vt 0.187191 0.408512
vt 0.187191 0.134457
vt 0.187191 0.065943
vt 0.551265 0.242026
vt 0.328373 0.237538
vt 0.328625 0.213760
vt 0.568743 0.233619
vt 0.187191 0.339998
vt 0.221448 0.545539
vt 0.221448 -0.002570
vt 0.187191 0.202971
vt 0.187191 0.271484
vt 0.118678 0.134457
vt 0.118678 0.065943
vt 0.114099 0.311272
vt 0.327838 0.281909
vt 0.327550 0.306891
vt 0.097593 0.323128
vt 0.118678 0.408512
vt 0.118678 0.339998
vt 0.152935 0.545539
vt 0.118678 0.477026
vt 0.152935 -0.002570
vt 0.118678 0.202971
vt 0.118678 0.271484
vt 0.084421 0.545539
vt 0.050164 0.477026
vt 0.084421 -0.002570
vt 0.050164 0.065943
vt 0.050164 0.202971
vt 0.050164 0.134457
vt 0.050164 0.339998
vt 0.050164 0.271484
vt 0.050164 0.408512
vt 0.598274 0.134457
vt 0.598274 0.202971
vt 0.529760 0.202971
vt 0.529760 0.134457
vt 0.598274 0.271484
vt 0.598274 0.339998
vt 0.529760 0.339998
vt 0.529760 0.271484
vt 0.598274 0.408512
vt 0.598274 0.477026
vt 0.529760 0.477026
vt 0.529760 0.408512
vt 0.598274 0.065943
vt 0.529760 0.065943
vt 0.564017 0.545539
vt 0.564017 -0.002570
vt 0.495503 0.545539
vt 0.495503 -0.002570
vt 0.248976 0.258569
vt 0.248754 0.215886
vt 0.187118 0.215886
vt 0.187264 0.258569
vt 0.125628 0.215886
vt 0.125406 0.258569
vt 0.171548 0.862310
vt 0.171548 0.900718
vt 0.133140 0.900718
vt 0.133140 0.862310
vt 0.171548 0.939126
vt 0.171548 0.977534
vt 0.133140 0.977534
vt 0.133140 0.939126
vt 0.094732 0.939126
vt 0.094732 0.900718
vt 0.711862 0.753834
vt 0.755126 0.732306
vt 0.772184 0.799440
vt 0.808594 0.752190
vt 0.094732 0.862310
vt 0.094732 0.977534
vt 0.808594 0.753834
vt 0.851858 0.732306
vt 0.868916 0.799440
vt 0.056324 0.939126
vt 0.056324 0.900718
vt 0.771511 0.677665
vt 0.056324 0.862310
vt 0.056324 0.977534
vt 0.248364 0.900718
vt 0.248364 0.939126
vt 0.209956 0.939126
vt 0.209956 0.900718
vt 0.711862 0.678212
vt 0.248364 0.862310
vt 0.209956 0.862310
vt 0.248364 0.977534
vt 0.209956 0.977534
vt 0.905326 0.752190
vt 0.868243 0.677665
vt 0.808594 0.678212
vt 0.466783 0.939134
vt 0.457679 0.881197
vt 0.621596 0.881178
vt 0.621596 0.913231
vt 0.785514 0.881197
vt 0.776409 0.939135
vt 0.537413 0.314964
vt 0.553288 0.326694
vt 0.101848 0.236345
vt 0.081969 0.227312
vt 0.206697 0.693443
vt 0.206697 0.740151
vt 0.159989 0.740151
vt 0.159989 0.693443
vt 0.113281 0.740151
vt 0.113281 0.693443
vt 0.066573 0.740151
vt 0.066573 0.693443
vt 0.019866 0.740151
vt 0.019866 0.693443
vt 0.113281 0.646735
vt 0.066573 0.646735
vt 0.113281 0.786859
vt 0.066573 0.786859
s 1
g pgorleyMesh_pgorleyMat
usemtl pgorleyMat
f 58/1/58 6/2/6 13/3/13 14/4/14
f 5/5/5 4/6/4 11/7/11 12/8/12
f 3/9/3 2/10/2 9/11/9 10/12/10
f 57/13/57 1/14/1 8/15/8
f 7/16/7 58/1/58 14/4/14
f 6/2/6 5/5/5 12/8/12 13/3/13
f 4/6/4 3/9/3 10/12/10 11/7/11
f 2/10/2 57/13/57 8/15/8 9/11/9
f 10/12/10 9/11/9 16/17/16 17/18/17
f 8/15/8 1/19/1 15/20/15
f 7/21/7 14/4/14 21/22/21
f 13/3/13 12/8/12 19/23/19 20/24/20
f 11/7/11 10/12/10 17/18/17 18/25/18
f 9/11/9 8/15/8 15/20/15 16/17/16
f 14/4/14 13/3/13 20/24/20 21/22/21
f 12/8/12 11/7/11 18/25/18 19/23/19
f 7/26/7 21/22/21 28/27/28
f 20/24/20 19/23/19 60/28/60 27/29/27
f 18/25/18 17/18/17 24/30/24 59/31/59
f 16/17/16 15/20/15 22/32/22 23/33/23
f 21/22/21 20/24/20 27/29/27 28/27/28
f 19/23/19 18/25/18 59/31/59 60/28/60
f 17/18/17 16/17/16 23/33/23 24/30/24
f 15/20/15 1/34/1 22/32/22
f 23/33/23 22/32/22 29/35/29 30/36/30
f 28/27/28 27/29/27 34/37/34 35/38/35
f 25/39/25 32/40/32 107/41/86 109/42/88
f 24/30/24 23/33/23 30/36/30 31/43/31
f 22/32/22 1/44/1 29/35/29
f 7/45/7 28/27/28 35/38/35
f 27/29/27 60/28/60 33/46/33 34/37/34
f 59/31/59 24/30/24 31/43/31 62/47/62
f 35/38/35 34/37/34 41/48/41 42/49/42
f 40/50/40 61/51/61 108/52/87 112/53/91
f 31/43/31 30/36/30 37/54/37 38/55/38
f 29/35/29 1/56/1 36/57/36
f 7/58/7 35/38/35 42/49/42
f 34/37/34 33/46/33 64/59/64 41/48/41
f 62/47/62 31/43/31 38/55/38 63/60/63
f 30/36/30 29/35/29 36/57/36 37/54/37
f 36/57/36 1/61/1 43/62/43
f 7/63/7 42/49/42 49/64/49
f 41/48/41 64/59/64 47/65/47 48/66/48
f 63/60/63 38/55/38 45/67/45 46/68/46
f 37/54/37 36/57/36 43/62/43 44/69/44
f 42/49/42 41/48/41 48/66/48 49/64/49
f 64/59/64 63/60/63 46/68/46 47/65/47
f 38/55/38 37/54/37 44/69/44 45/67/45
f 48/70/48 47/71/47 54/72/54 55/73/55
f 46/74/46 45/75/45 52/76/52 53/77/53
f 44/78/44 43/79/43 50/80/50 51/81/51
f 49/82/49 48/70/48 55/73/55 56/83/56
f 47/71/47 46/74/46 53/77/53 54/72/54
f 45/75/45 44/78/44 51/81/51 52/76/52
f 43/79/43 1/84/1 50/80/50
f 7/85/7 49/82/49 56/83/56
f 56/83/56 55/73/55 6/2/6 58/1/58
f 54/72/54 53/77/53 4/6/4 5/5/5
f 52/76/52 51/81/51 2/10/2 3/9/3
f 50/80/50 1/86/1 57/13/57
f 7/87/7 56/83/56 58/1/58
f 55/73/55 54/72/54 5/5/5 6/2/6
f 53/77/53 52/76/52 3/9/3 4/6/4
f 51/81/51 50/80/50 57/13/57 2/10/2
f 25/88/25 26/89/26 60/28/60 59/31/59
f 26/89/26 61/90/61 33/46/33 60/28/60
f 32/91/32 25/88/25 59/31/59 62/47/62
f 40/92/40 39/93/39 63/60/63 64/59/64
f 61/90/61 40/92/40 64/59/64 33/46/33
f 39/93/39 32/91/32 62/47/62 63/60/63
f 69/94/69 68/95/68 74/96/73 75/97/74
f 67/98/67 66/99/66 72/100/71 73/101/72
f 94/96/73 95/101/72 83/102/78 82/103/79
f 68/95/68 67/98/67 73/101/72 74/96/73
f 66/104/66 65/105/65 72/106/71
f 74/96/73 73/101/72 79/102/78 80/103/79
f 72/106/71 65/105/65 78/107/77
f 75/97/74 74/96/73 80/103/79 81/108/76
f 73/101/72 72/100/71 78/109/77 79/102/78
f 100/110/66 70/111/65 96/112/71
f 80/103/79 79/102/78 85/113/70 86/114/80
f 78/107/77 65/105/65 84/115/75
f 81/108/76 80/103/79 86/114/80 87/116/81
f 79/102/78 78/109/77 84/117/75 85/113/70
f 98/95/68 99/98/67 95/101/72 94/96/73
f 86/118/80 85/119/70 91/120/83 92/121/84
f 84/115/75 65/105/65 90/122/82
f 87/123/81 86/118/80 92/121/84 93/124/85
f 85/119/70 84/125/75 90/126/82 91/120/83
f 99/98/67 100/99/66 96/100/71 95/101/72
f 92/121/84 91/120/83 67/98/67 68/95/68
f 90/122/82 65/105/65 66/104/66
f 93/124/85 92/121/84 68/95/68 69/94/69
f 91/120/83 90/126/82 66/99/66 67/98/67
f 97/94/69 98/95/68 94/96/73 89/97/74
f 96/112/71 70/111/65 88/127/77
f 89/97/74 94/96/73 82/103/79 77/108/76
f 95/101/72 96/100/71 88/109/77 83/102/78
f 82/103/79 83/102/78 71/113/70 101/114/80
f 88/127/77 70/111/65 76/128/75
f 77/108/76 82/103/79 101/114/80 102/116/81
f 83/102/78 88/109/77 76/117/75 71/113/70
f 101/118/80 71/119/70 104/120/83 105/121/84
f 76/128/75 70/111/65 103/129/82
f 102/123/81 101/118/80 105/121/84 106/124/85
f 71/119/70 76/125/75 103/126/82 104/120/83
f 105/121/84 104/120/83 99/98/67 98/95/68
f 103/129/82 70/111/65 100/110/66
f 106/124/85 105/121/84 98/95/68 97/94/69
f 104/120/83 103/126/82 100/99/66 99/98/67
f 110/130/89 109/131/88 107/132/86 108/133/87
f 108/133/87 107/132/86 111/134/90 112/135/91
f 26/136/26 25/39/25 109/42/88 110/137/89
f 32/40/32 39/138/39 111/139/90 107/41/86
f 39/138/39 40/50/40 112/53/91 111/139/90
f 61/51/61 26/136/26 110/137/89 108/52/87
f 113/140/92 114/141/93 116/142/95 115/143/94
f 115/143/94 116/142/95 120/144/99 119/145/98
f 119/145/98 120/144/99 118/146/97 117/147/96
f 117/147/96 118/146/97 114/148/93 113/149/92
f 115/150/94 119/145/98 117/147/96 113/151/92
f 120/144/99 116/152/95 114/153/93 118/146/97
f 121/140/100 122/141/101 124/142/103 123/143/102
f 123/143/102 124/142/103 128/144/107 127/145/106
f 127/145/106 128/144/107 126/146/105 125/147/104
f 125/147/104 126/146/105 122/148/101 121/149/100
f 123/150/102 127/145/106 125/147/104 121/151/100
f 128/144/107 124/152/103 122/153/101 126/146/105
