# Blender 5.0.1
# www.blender.org
mtllib model.mtl
o categonMesh
v 1.000000 -0.000000 -0.000000
v 0.707107 -0.000000 0.707107
v 0.382683 0.000000 0.923879
v 0.000000 0.000000 1.000000
v -0.382683 0.000000 0.923879
v -0.707107 0.000000 0.707107
v -1.000000 0.000000 0.000000
v 0.923879 0.270598 0.270598
v 0.707107 0.500000 0.500000
v 0.382683 0.653281 0.653281
v 0.000000 0.707107 0.707107
v -0.382683 0.653281 0.653281
v -0.707107 0.500000 0.500000
v -0.923879 0.270598 0.270598
v 0.923879 0.382683 -0.000000
v 0.707107 0.707107 -0.000000
v 0.382683 0.923879 -0.000000
v 0.000000 1.000000 0.000000
v -0.382683 0.923879 0.000000
v -0.707107 0.707107 0.000000
v -0.923879 0.382683 0.000000
v 0.923879 0.270598 -0.270598
v 0.707107 0.500000 -0.500000
v 0.382683 0.653281 -0.653281
v 0.000000 0.707107 -0.707107
v -0.382683 0.653281 -0.653281
v -0.707107 0.500000 -0.500000
v -0.923879 0.270598 -0.270598
v 0.923879 -0.000000 -0.382683
v 0.707107 -0.000000 -0.707107
v 0.382683 0.000000 -0.923879
v -0.000000 0.000000 -1.000000
v -0.382683 0.000000 -0.923879
v -0.707107 0.000000 -0.707107
v -0.923879 0.000000 -0.382683
v 0.923879 -0.270598 -0.270598
v 0.707107 -0.500000 -0.500000
v 0.382683 -0.653281 -0.653281
v 0.000000 -0.707107 -0.707107
v -0.382683 -0.653281 -0.653281
v -0.707107 -0.500000 -0.500000
v -0.923879 -0.270598 -0.270598
v 0.923879 -0.382683 -0.000000
v 0.707107 -0.707107 -0.000000
v 0.382683 -0.923879 -0.000000
v 0.000000 -1.000000 0.000000
v -0.382683 -0.923879 0.000000
v -0.707107 -0.707107 0.000000
v -0.923879 -0.382683 0.000000
v 0.923879 -0.270598 0.270598
v 0.707107 -0.500000 0.500000
v 0.382683 -0.653281 0.653281
v 0.000000 -0.707107 0.707107
v -0.382683 -0.653281 0.653281
v -0.707107 -0.500000 0.500000
v -0.923879 -0.270598 0.270598
v 0.923879 -0.000000 0.382683
v -0.923879 0.000000 0.382683
v -1.200247 0.000000 -0.303684
v -1.127685 0.171935 -0.147325
v -1.127685 -0.171935 -0.147325
v -1.043840 0.000000 0.047706
v -1.456146 -0.000000 -0.093397
v -1.283255 0.196371 0.000776
v -1.283255 -0.196371 0.000776
v -1.073721 -0.000000 0.122769
v -1.520285 -0.000000 0.095745
v -1.327585 0.196371 0.136075
v -1.327585 -0.196371 0.136075
v -1.091777 -0.000000 0.192481
v -1.515568 0.000000 0.325319
v -1.373905 0.144362 0.354968
v -1.373905 -0.144362 0.354968
v -1.200552 0.000000 0.396434
v -1.448039 0.000000 0.403004
v -1.383159 0.066116 0.416582
v -1.383159 -0.066116 0.416582
v -1.303765 0.000000 0.435574
v 0.421768 0.646903 0.400648
v 0.551575 -0.400648 0.646903
v 0.551575 0.646903 0.400648
v 0.421768 -0.400648 0.646903
v 0.551575 -0.646903 0.400648
v 0.421768 -0.646903 0.400648
v 0.627706 -0.686459 0.771717
v 0.627706 -0.771717 0.686459
v 0.642463 -0.747484 0.778690
v 0.642463 -0.778690 0.747484
v 0.421768 -0.771717 0.686459
v 0.421768 -0.686459 0.771717
v 0.421768 -0.778690 0.747484
v 0.421768 -0.747484 0.778690
v 0.551575 0.400648 0.646903
v 0.421768 0.400648 0.646903
v 0.627706 0.771717 0.686459
v 0.627706 0.686459 0.771717
v 0.642463 0.778690 0.747484
v 0.642463 0.747484 0.778690
v 0.421768 0.686459 0.771717
v 0.421768 0.771717 0.686459
v 0.421768 0.747484 0.778690
v 0.421768 0.778690 0.747484
vn -0.3502 -0.0000 0.9367
vn -0.0000 -0.0000 1.0000
vn -0.0000 0.5829 0.8126
vn -0.3930 0.5383 0.7455
vn 0.3502 -0.0000 0.9367
vn 0.6568 -0.0000 0.7541
vn 0.7241 0.4132 0.5522
vn 0.3930 0.5383 0.7455
vn 0.8814 -0.0000 0.4724
vn 1.0000 -0.0000 -0.0000
vn 0.9342 0.2380 0.2658
vn -0.9425 -0.0000 0.3343
vn -0.8814 -0.0000 0.4724
vn -0.9342 0.2380 0.2658
vn -0.6568 -0.0000 0.7541
vn -0.7241 0.4132 0.5522
vn -0.9412 0.3379 -0.0000
vn -0.3947 0.9188 -0.0000
vn -0.7276 0.6860 -0.0000
vn 0.3947 0.9188 -0.0000
vn -0.0000 1.0000 -0.0000
vn 0.9412 0.3379 -0.0000
vn 0.7276 0.6860 -0.0000
vn 0.9342 0.2380 -0.2658
vn 0.7241 0.4132 -0.5522
vn -0.7241 0.4132 -0.5522
vn -0.7558 0.5107 -0.4099
vn -0.0000 0.5829 -0.8126
vn -0.3930 0.5383 -0.7455
vn 0.3930 0.5383 -0.7455
vn -0.6568 -0.0000 -0.7541
vn -0.7658 -0.0000 -0.6431
vn -0.0000 -0.0000 -1.0000
vn -0.3502 -0.0000 -0.9367
vn 0.6568 -0.0000 -0.7541
vn 0.3502 -0.0000 -0.9367
vn 0.8814 -0.0000 -0.4724
vn -0.1603 0.9658 -0.2037
vn 0.6630 -0.0000 0.7486
vn 0.9342 -0.2380 -0.2658
vn -0.7558 -0.5107 -0.4099
vn -0.1603 -0.9658 -0.2037
vn -0.3930 -0.5383 -0.7455
vn -0.7241 -0.4132 -0.5522
vn 0.3930 -0.5383 -0.7455
vn -0.0000 -0.5829 -0.8126
vn 0.7241 -0.4132 -0.5522
vn -0.3947 -0.9188 -0.0000
vn -0.7276 -0.6860 -0.0000
vn 0.3947 -0.9188 -0.0000
vn -0.0000 -1.0000 -0.0000
vn 0.9412 -0.3379 -0.0000
vn 0.7276 -0.6860 -0.0000
vn -0.9412 -0.3379 -0.0000
vn -0.7241 -0.4132 0.5522
vn -0.9342 -0.2380 0.2658
vn -0.0000 -0.5829 0.8126
vn -0.3930 -0.5383 0.7455
vn 0.7241 -0.4132 0.5522
vn 0.3930 -0.5383 0.7455
vn 0.9342 -0.2380 0.2658
vn 0.9083 -0.0000 0.4183
vn -0.1342 -0.9757 -0.1735
vn -0.5449 -0.0000 -0.8385
vn -0.8294 -0.0000 -0.5586
vn -0.1342 0.9757 -0.1735
vn -0.1350 0.9881 0.0735
vn 0.9270 -0.0000 0.3752
vn -0.1350 -0.9881 0.0735
vn -0.9878 -0.0000 -0.1555
vn -0.2051 -0.8106 0.5485
vn -0.9623 -0.0000 0.2721
vn -0.2051 0.8106 0.5485
vn 0.7339 -0.0000 0.6792
vn 0.2507 -0.0000 0.9681
vn -0.2251 -0.2351 0.9455
vn -0.6643 -0.0000 0.7475
vn -0.2251 0.2351 0.9455
vn 0.0930 0.0213 -0.9954
vn 0.8801 -0.0627 -0.4707
vn -0.4137 -0.8779 0.2412
vn -0.8174 -0.2298 -0.5283
vn -0.6094 0.1081 0.7855
vn 0.7630 0.0636 0.6433
vn 0.9864 0.1633 -0.0183
vn -0.9488 0.2899 0.1253
vn -0.7301 -0.1552 0.6655
vn 0.6577 -0.2762 0.7008
vn 0.9530 0.1535 -0.2611
vn -0.9581 0.2761 -0.0759
vn -0.3614 0.8225 0.4391
vn 0.6259 0.3674 -0.6879
vn -0.1547 -0.0179 -0.9878
vn -0.9259 0.0535 -0.3740
vn -0.9581 -0.2761 -0.0759
vn 0.9530 -0.1535 -0.2611
vn 0.9864 -0.1633 -0.0183
vn -0.9488 -0.2899 0.1253
vn 0.7630 -0.0636 0.6433
vn -0.6094 -0.1081 0.7855
vn 0.6577 0.2762 0.7008
vn -0.7301 0.1552 0.6655
vt 0.872952 0.531652
vt 0.873070 0.498285
vt 0.911611 0.515329
vt 0.889028 0.542367
vt 0.497353 0.548086
vt 0.497353 0.471014
vt 0.616137 0.471014
vt 0.652551 0.548086
vt 0.501663 0.441698
vt 0.501663 0.347507
vt 0.568266 0.414110
vt 0.104995 0.360484
vt 0.104995 0.410541
vt 0.069599 0.395880
vt 0.105578 0.634480
vt 0.111769 0.669988
vt 0.028810 0.657818
vt 0.042084 0.625165
vt 0.497353 0.638999
vt 0.665338 0.638999
vt 0.497353 0.419516
vt 0.561638 0.419516
vt 0.104995 0.452977
vt 0.039592 0.425887
vt 0.054938 0.360484
vt 0.911339 0.501193
vt 0.959791 0.464105
vt 0.959791 0.586020
vt 0.903175 0.570556
vt 0.952658 0.517974
vt 0.952165 0.587431
vt 0.919951 0.577553
vt 0.624729 0.470573
vt 0.595853 0.347507
vt 0.675704 0.347507
vt 0.012502 0.360484
vt 0.895625 0.573370
vt 0.662456 0.508300
vt 0.729059 0.347507
vt 0.568266 0.280904
vt 0.624729 0.224441
vt 0.039592 0.295081
vt 0.069599 0.325088
vt 0.892680 0.614368
vt 0.883473 0.596576
vt 0.662456 0.186713
vt 0.897579 0.691438
vt 0.875449 0.634745
vt 0.913618 0.645753
vt 0.104995 0.267991
vt 0.104995 0.310427
vt 0.872644 0.618603
vt 0.872701 0.602355
vt 0.501663 0.173465
vt 0.501663 0.120110
vt 0.501663 0.253316
vt 0.243352 0.049780
vt 0.188276 0.149076
vt 0.165509 0.058389
vt 0.243352 0.024518
vt 0.833247 0.714216
vt 0.850256 0.654103
vt 0.872503 0.658285
vt 0.435060 0.280904
vt 0.298428 0.149076
vt 0.321195 0.058389
vt 0.790522 0.661094
vt 0.838974 0.624005
vt 0.831477 0.645462
vt 0.852638 0.614226
vt 0.378597 0.224441
vt 0.170398 0.295081
vt 0.140391 0.325088
vt 0.861971 0.596499
vt 0.340869 0.186713
vt 0.790522 0.539179
vt 0.847138 0.554642
vt 0.793345 0.586867
vt 0.825629 0.577218
vt 0.407472 0.347507
vt 0.327621 0.347507
vt 0.197488 0.360484
vt 0.155052 0.360484
vt 0.849984 0.573208
vt 0.274266 0.347507
vt 0.170398 0.425887
vt 0.140391 0.395880
vt 0.834410 0.515055
vt 0.856800 0.542253
vt 0.378597 0.470573
vt 0.340869 0.508300
vt 0.435060 0.414110
vt 0.852734 0.433760
vt 0.874864 0.490453
vt 0.793345 0.517408
vt 0.342154 0.548086
vt 0.378569 0.471014
vt 0.165421 0.622851
vt 0.189957 0.654795
vt 0.329367 0.638999
vt 0.433067 0.419516
vt 0.283954 0.862330
vt 0.218826 0.834619
vt 0.218826 0.802828
vt 0.312245 0.785348
vt 0.325655 0.910311
vt 0.376692 0.796287
vt 0.146806 0.181782
vt 0.099234 0.080303
vt 0.339898 0.181782
vt 0.387470 0.080303
vt 0.233209 0.076094
vt 0.156600 0.104902
vt 0.153802 0.042470
vt 0.233209 0.044457
vt 0.309818 0.104902
vt 0.312616 0.042470
vt 0.160320 0.868179
vt 0.132028 0.791197
vt 0.118618 0.916160
vt 0.067581 0.802136
vt 0.339900 0.859322
vt 0.284672 0.884364
vt 0.266577 0.797641
vt 0.307177 0.779231
vt 0.116246 0.883589
vt 0.061018 0.858546
vt 0.093741 0.778456
vt 0.134342 0.796866
vt 0.093119 0.125982
vt 0.088563 0.038463
vt 0.373299 0.125982
vt 0.377855 0.038463
vt 1.000000 0.607447
vt 0.835884 0.723354
vt 0.887091 0.624499
vt 0.929062 0.577911
vt 0.987568 0.430528
vt 0.938291 0.525657
vt 0.192321 0.883478
vt 0.192321 0.790215
vt 0.900933 0.563340
vt 0.835884 0.522435
vt 0.727863 0.483113
vt 0.787941 0.483113
vt 0.787941 0.603268
vt 0.727863 0.603268
vt 0.849412 0.548391
vt 0.848019 0.489348
vt 0.861115 0.483162
vt 0.860216 0.544119
vt 0.727863 0.642546
vt 0.787941 0.642546
vt 0.781706 0.663346
vt 0.727863 0.663346
vt 0.868819 0.483113
vt 0.868819 0.543190
vt 0.848019 0.483113
vt 0.848019 0.603268
vt 0.848019 0.642546
vt 0.841783 0.663346
vt 0.787941 0.663346
vt 0.909490 0.548391
vt 0.908097 0.489348
vt 0.921192 0.483162
vt 0.920294 0.544119
vt 0.928897 0.483113
vt 0.928897 0.543190
vt 0.968175 0.483113
vt 0.968175 0.543190
vt 0.881176 0.603268
vt 0.881176 0.688231
vt 0.853402 0.660457
vt 0.848019 0.651133
vt 0.848019 0.640366
vt 0.853402 0.631042
vt 0.908097 0.563991
vt 0.908097 0.603268
vt 0.908097 0.483113
vt 0.908097 0.543190
vt 0.914333 0.603268
vt 0.914333 0.688231
vt 0.886559 0.660457
vt 0.881176 0.651133
vt 0.881176 0.640366
vt 0.886559 0.631042
vt 0.848019 0.563991
vt 0.848019 0.603268
s 1
usemtl categonMat
f 5/1/1 4/2/2 11/3/3 12/4/4
f 3/5/5 2/6/6 9/7/7 10/8/8
f 57/9/9 1/10/10 8/11/11
f 7/12/12 58/13/13 14/14/14
f 6/15/15 5/16/1 12/17/4 13/18/16
f 4/19/2 3/5/5 10/8/8 11/20/3
f 2/6/6 57/21/9 8/22/11 9/7/7
f 58/13/13 6/23/15 13/24/16 14/14/14
f 7/12/12 14/14/14 21/25/17
f 13/26/16 12/27/4 19/28/18 20/29/19
f 11/3/3 10/30/8 17/31/20 18/32/21
f 9/33/7 8/11/11 15/34/22 16/35/23
f 14/14/14 13/24/16 20/36/19 21/25/17
f 12/4/4 11/3/3 18/32/21 19/37/18
f 10/38/8 9/33/7 16/35/23 17/39/20
f 8/11/11 1/10/10 15/34/22
f 16/35/23 15/34/22 22/40/24 23/41/25
f 21/25/17 20/36/19 27/42/26 28/43/27
f 19/37/18 18/32/21 25/44/28 26/45/29
f 17/39/20 16/35/23 23/41/25 24/46/30
f 15/34/22 1/10/10 22/40/24
f 7/12/12 21/25/17 28/43/27
f 20/29/19 19/28/18 26/47/29 27/48/26
f 18/32/21 17/31/20 24/49/30 25/44/28
f 28/43/27 27/42/26 34/50/31 35/51/32
f 26/45/29 25/44/28 32/52/33 33/53/34
f 24/46/30 23/41/25 30/54/35 31/55/36
f 22/40/24 1/10/10 29/56/37
f 7/57/12 28/58/27 60/59/38 62/60/39
f 27/48/26 26/47/29 33/61/34 34/62/31
f 25/44/28 24/49/30 31/63/36 32/52/33
f 23/41/25 22/40/24 29/56/37 30/54/35
f 29/56/37 1/10/10 36/64/40
f 42/65/41 7/57/12 62/60/39 61/66/42
f 34/62/31 33/61/34 40/67/43 41/68/44
f 32/52/33 31/63/36 38/69/45 39/70/46
f 30/54/35 29/56/37 36/64/40 37/71/47
f 35/51/32 34/50/31 41/72/44 42/73/41
f 33/53/34 32/52/33 39/70/46 40/74/43
f 31/55/36 30/54/35 37/71/47 38/75/45
f 41/68/44 40/67/43 47/76/48 48/77/49
f 39/70/46 38/69/45 45/78/50 46/79/51
f 37/71/47 36/64/40 43/80/52 44/81/53
f 42/73/41 41/72/44 48/82/49 49/83/54
f 40/74/43 39/70/46 46/79/51 47/84/48
f 38/75/45 37/71/47 44/81/53 45/85/50
f 36/64/40 1/10/10 43/80/52
f 7/12/12 42/73/41 49/83/54
f 49/83/54 48/82/49 55/86/55 56/87/56
f 47/84/48 46/79/51 53/88/57 54/89/58
f 45/85/50 44/81/53 51/90/59 52/91/60
f 43/80/52 1/10/10 50/92/61
f 7/12/12 49/83/54 56/87/56
f 48/77/49 47/76/48 54/93/58 55/94/55
f 46/79/51 45/78/50 52/95/60 53/88/57
f 44/81/53 43/80/52 50/92/61 51/90/59
f 54/89/58 53/88/57 4/2/2 5/1/1
f 52/96/60 51/97/59 2/6/6 3/5/5
f 50/92/61 1/10/10 57/9/9
f 7/12/12 56/87/56 58/13/13
f 55/98/55 54/99/58 5/16/1 6/15/15
f 53/100/57 52/96/60 3/5/5 4/19/2
f 51/97/59 50/101/61 57/21/9 2/6/6
f 56/87/56 55/86/55 6/23/15 58/13/13
f 61/102/42 62/103/39 66/104/62 65/105/63
f 59/106/64 61/102/42 65/105/63 63/107/65
f 28/58/27 35/108/32 59/109/64 60/59/38
f 35/110/32 42/65/41 61/66/42 59/111/64
f 66/112/62 64/113/66 68/114/67 70/115/68
f 65/116/63 66/112/62 70/115/68 69/117/69
f 62/103/39 60/118/38 64/119/66 66/104/62
f 60/118/38 59/120/64 63/121/65 64/119/66
f 67/122/70 69/123/69 73/124/71 71/125/72
f 68/126/67 67/127/70 71/128/72 72/129/73
f 64/113/66 63/130/65 67/131/70 68/114/67
f 63/132/65 65/116/63 69/117/69 67/133/70
f 73/134/71 74/135/74 78/136/75 77/137/76
f 71/138/72 73/134/71 77/137/76 75/139/77
f 69/123/69 70/140/68 74/141/74 73/124/71
f 70/140/68 68/126/67 72/129/73 74/141/74
f 78/136/75 76/142/78 75/139/77
f 78/136/75 75/139/77 77/137/76
f 74/135/74 72/143/73 76/142/78 78/136/75
f 72/143/73 71/138/72 75/139/77 76/142/78
f 79/144/79 81/145/80 93/146/81 94/147/82
f 101/148/83 98/149/84 97/150/85 102/151/86
f 99/152/87 96/153/88 98/154/84 101/155/83
f 102/151/86 97/150/85 95/156/89 100/157/90
f 82/145/91 80/158/92 83/159/93 84/146/94
f 89/153/95 86/160/96 88/161/97 91/162/98
f 91/163/98 88/164/97 87/165/99 92/166/100
f 92/166/100 87/165/99 85/167/101 90/168/102
f 89/153/95 84/146/94 83/159/93 86/160/96
f 85/167/101 80/169/92 82/170/91 90/168/102
f 83/171/93 80/172/92 85/173/101 87/174/99 88/175/97 86/176/96
f 89/177/95 91/163/98 92/166/100 90/168/102 82/170/91 84/178/94
f 99/152/87 94/147/82 93/146/81 96/153/88
f 95/156/89 81/179/80 79/180/79 100/157/90
f 93/181/81 81/182/80 95/183/89 97/184/85 98/185/84 96/186/88
f 99/187/87 101/148/83 102/151/86 100/157/90 79/180/79 94/188/82
