# Blender 5.0.1
# www.blender.org
mtllib model.mtl
o markMesh
v 1.269054 0.030827 0.093312
v 0.707107 -0.000000 0.707107
v 0.382683 0.000000 0.923879
v 0.000000 0.000000 1.000000
v -0.382683 0.000000 0.923879
v -0.707107 0.000000 0.707107
v -1.000000 0.000000 0.000000
v 0.923879 0.380161 0.270598
v 0.707107 0.500000 0.500000
v 0.297344 0.684513 0.604835
v 0.108041 0.722550 0.642872
v -0.382683 0.653281 0.653281
v -0.707107 0.500000 0.500000
v -0.923879 0.270598 0.270598
v 0.923879 0.435133 0.176576
v 0.707107 0.707107 -0.000000
v 0.297344 0.715004 0.531223
v 0.108041 0.755153 0.564160
v -0.382683 0.923879 0.000000
v -0.707107 0.707107 0.000000
v -0.923879 0.382683 0.000000
v 0.923879 0.499882 -0.270598
v 0.707107 0.500000 -0.500000
v 0.382683 0.653281 -0.653281
v 0.000000 0.707107 -0.707107
v -0.382683 0.653281 -0.653281
v -0.707107 0.500000 -0.500000
v -0.923879 0.270598 -0.270598
v 1.150365 -0.001789 -0.490865
v 0.707107 -0.000000 -0.707107
v 0.382683 0.000000 -0.923879
v -0.000000 0.000000 -1.000000
v -0.382683 0.000000 -0.923879
v -0.707107 0.000000 -0.707107
v -0.923879 0.000000 -0.382683
v 0.923879 -0.503460 -0.270598
v 0.707107 -0.500000 -0.500000
v 0.382683 -0.653281 -0.653281
v 0.000000 -0.707107 -0.707107
v -0.382683 -0.653281 -0.653281
v -0.707107 -0.500000 -0.500000
v -0.923879 -0.270598 -0.270598
v 0.923879 -0.438711 0.176576
v 0.707107 -0.707107 -0.000000
v 0.285993 -0.715127 0.550405
v 0.096690 -0.743232 0.573460
v -0.382683 -0.923879 0.000000
v -0.707107 -0.707107 0.000000
v -0.923879 -0.382683 0.000000
v 0.923879 -0.383739 0.270598
v 0.707107 -0.500000 0.500000
v 0.285993 -0.693783 0.601933
v 0.096690 -0.720409 0.628559
v -0.382683 -0.653281 0.653281
v -0.707107 -0.500000 0.500000
v -0.923879 -0.270598 0.270598
v 0.996177 0.012755 0.248800
v -0.923879 0.000000 0.382683
v 1.315469 0.429059 -0.221102
v 1.392478 0.001827 -0.214278
v 1.315469 -0.425404 -0.221102
v 1.422020 0.019977 0.057527
v 0.382683 0.653281 0.653281
v 0.000000 0.707107 0.707107
v 0.382683 0.923879 -0.000000
v 0.000000 1.000000 0.000000
v 0.382683 -0.923879 -0.000000
v 0.000000 -1.000000 0.000000
v 0.382683 -0.653281 0.653281
v 0.000000 -0.707107 0.707107
v 0.191342 0.000000 0.961940
v 0.202693 0.680194 0.680194
v 0.191342 0.961940 -0.000000
v 0.191342 0.680194 -0.680194
v 0.191342 0.000000 -0.961940
v 0.191342 -0.680194 -0.680194
v 0.191342 -0.961940 -0.000000
v 0.191342 -0.690760 0.654684
v 0.114765 -0.846020 0.601798
v 0.201110 0.766705 0.471338
v 0.191342 -0.761628 0.483594
v 0.209416 -0.825945 0.511582
v 0.304068 -0.775379 0.642473
v 0.304068 -0.805870 0.568861
v 0.114765 -0.813416 0.680510
v 0.209416 -0.771060 0.717832
v 0.215345 0.825945 0.511582
v 0.120693 0.846020 0.601798
v 0.120693 0.813416 0.680510
v 0.309996 0.805870 0.568861
v 0.309996 0.775379 0.642473
v 0.215345 0.771060 0.717832
v 0.322648 -0.903382 0.605399
v 0.227997 -0.923456 0.573506
v 0.227997 -0.868572 0.754371
v 0.133345 -0.910928 0.717048
v 0.133345 -0.943531 0.638336
v 0.322648 -0.872891 0.679012
v 0.227997 0.923456 0.573506
v 0.133345 0.943531 0.638336
v 0.133345 0.910928 0.717049
v 0.322648 0.903382 0.605400
v 0.322648 0.872891 0.679012
v 0.227997 0.868572 0.754371
v 0.350392 -1.058264 0.683644
v 0.297319 -1.111303 0.677419
v 0.278920 -1.016154 0.836949
v 0.187920 -1.019606 0.772819
v 0.167318 -1.076128 0.725060
v 0.352338 -1.005404 0.728308
v 0.299789 1.091915 0.676034
v 0.150113 1.052334 0.717909
v 0.173832 0.985905 0.771255
v 0.368735 1.032962 0.669727
v 0.363135 0.970837 0.719616
v 0.278605 0.980089 0.844969
v 0.409073 1.142964 0.991447
v 0.396635 -1.165644 0.991447
v 1.096467 0.513771 0.024358
v 1.368745 0.417063 0.031367
v 1.096467 -0.484734 0.024358
v 1.368745 -0.395259 0.031367
v -0.000000 -0.353553 -0.853553
v 0.382683 -0.326641 -0.788580
v 0.707107 -0.250000 -0.603553
v 1.037122 -0.263199 -0.422112
v -0.923879 -0.135299 -0.326641
v -0.707107 -0.250000 -0.603553
v -0.382683 -0.326641 -0.788580
v 1.353973 -0.211788 -0.217690
v 0.191342 -0.340097 -0.821067
v 1.395382 -0.187641 0.044447
v -0.923879 0.135299 -0.326641
v -0.707107 0.250000 -0.603553
v -0.382683 0.326641 -0.788580
v -0.000000 0.353553 -0.853553
v 0.382683 0.326641 -0.788580
v 0.707107 0.250000 -0.603553
v 1.037122 0.259621 -0.422112
v 1.353973 0.215443 -0.217690
v 0.191342 0.340097 -0.821067
v 1.395382 0.218520 0.044447
v 1.134996 -0.506731 0.411145
v 1.085649 -0.506731 0.561296
v 0.940884 -0.506731 0.721760
v 0.763096 -0.506731 0.721760
v 0.619263 -0.506731 0.603116
v 0.564324 -0.506731 0.411145
v 1.085649 -0.371132 0.457544
v 0.940884 -0.262468 0.507130
v 0.763096 -0.262468 0.507130
v 0.619263 -0.355768 0.470467
v 1.085649 -0.422926 0.289670
v 0.940884 -0.355768 0.159852
v 0.763096 -0.355768 0.159852
v 0.619263 -0.413430 0.255838
v 1.085649 -0.590535 0.289670
v 0.940884 -0.657693 0.159853
v 0.763096 -0.657693 0.159853
v 0.619263 -0.600030 0.255838
v 1.085649 -0.642330 0.457544
v 0.940884 -0.750993 0.507130
v 0.763096 -0.750993 0.507130
v 0.619263 -0.657693 0.470467
v 1.134996 0.500273 0.411145
v 1.085649 0.500273 0.561296
v 0.940884 0.500273 0.721760
v 0.763096 0.500273 0.721760
v 0.619263 0.500273 0.603116
v 0.564324 0.500273 0.411145
v 1.085649 0.635872 0.457544
v 0.940884 0.744536 0.507130
v 0.763096 0.744536 0.507130
v 0.619263 0.651236 0.470467
v 1.085649 0.584078 0.289670
v 0.940884 0.651236 0.159852
v 0.763096 0.651236 0.159852
v 0.619263 0.593573 0.255838
v 1.085649 0.416468 0.289670
v 0.940884 0.349311 0.159852
v 0.763096 0.349311 0.159852
v 0.619263 0.406973 0.255838
v 1.085649 0.364674 0.457544
v 0.940884 0.256011 0.507130
v 0.763096 0.256011 0.507130
v 0.619263 0.349311 0.470467
vn -1.0000 -0.0000 -0.0000
vn -0.8814 -0.0000 0.4724
vn -0.9342 0.2380 0.2658
vn -0.6568 -0.0000 0.7541
vn -0.3502 -0.0000 0.9367
vn -0.3930 0.5383 0.7455
vn -0.7241 0.4132 0.5522
vn 0.1979 -0.0025 0.9802
vn 0.3389 -0.0020 0.9408
vn 0.3905 0.5427 0.7437
vn 0.1106 0.0836 0.9903
vn 0.6554 0.0004 0.7553
vn 0.6064 0.0012 0.7951
vn 0.7529 0.3480 0.5587
vn 0.7121 0.3966 0.5793
vn 0.0109 -0.0009 0.9999
vn -0.0115 0.5792 0.8151
vn -0.2693 0.0429 0.9621
vn -0.7276 0.6860 -0.0000
vn -0.9412 0.3379 -0.0000
vn 0.0026 1.0000 -0.0032
vn -0.3947 0.9188 -0.0000
vn 0.5966 0.8025 0.0069
vn 0.3980 0.9174 0.0012
vn 0.6196 0.6881 0.3776
vn -0.7873 0.4148 0.4561
vn 0.2733 -0.3158 0.9086
vn -0.8814 -0.0692 0.4674
vn -0.0000 0.5829 -0.8126
vn -0.3930 0.5383 -0.7455
vn 0.5550 0.5620 -0.6133
vn 0.3930 0.5383 -0.7455
vn -0.9342 0.2380 -0.2658
vn -0.7241 0.4132 -0.5522
vn 0.2069 0.9784 -0.0023
vn 0.1933 0.5922 -0.7822
vn 0.4077 0.6960 -0.5911
vn -0.9215 0.1486 -0.3587
vn -0.8814 -0.0000 -0.4724
vn -0.6931 0.2758 -0.6659
vn -0.3666 0.3560 -0.8595
vn -0.3502 -0.0000 -0.9367
vn -0.6568 -0.0000 -0.7541
vn 0.1807 0.3764 -0.9087
vn 0.3666 0.3560 -0.8595
vn 0.3502 -0.0000 -0.9367
vn 0.1951 -0.0000 -0.9808
vn 0.4937 0.3657 -0.7890
vn 0.4543 0.4048 -0.7936
vn 0.5968 -0.0004 -0.8024
vn 0.5207 0.0001 -0.8538
vn -0.0000 0.3827 -0.9239
vn -0.0000 -0.0000 -1.0000
vn -0.2296 -0.9172 -0.3255
vn 0.5890 -0.6794 -0.4377
vn 0.7147 -0.4805 -0.5083
vn -0.4473 -0.3895 0.8051
vn 0.1807 -0.3764 -0.9087
vn 0.3666 -0.3560 -0.8595
vn 0.3930 -0.5383 -0.7455
vn 0.1933 -0.5922 -0.7822
vn 0.4922 -0.3658 -0.7899
vn 0.4689 -0.4072 -0.7838
vn 0.5525 -0.5626 -0.6149
vn -0.9215 -0.1486 -0.3587
vn -0.6931 -0.2758 -0.6659
vn -0.7241 -0.4132 -0.5522
vn -0.9342 -0.2380 -0.2658
vn -0.3666 -0.3560 -0.8595
vn -0.0000 -0.3827 -0.9239
vn -0.0000 -0.5829 -0.8126
vn -0.3930 -0.5383 -0.7455
vn 0.7046 0.4738 -0.5283
vn 0.8621 0.2437 -0.4443
vn -0.7276 -0.6860 -0.0000
vn -0.9412 -0.3379 -0.0000
vn -0.0000 -1.0000 -0.0000
vn -0.3947 -0.9188 -0.0000
vn 0.5924 -0.8056 0.0070
vn 0.3947 -0.9188 -0.0000
vn 0.1951 -0.9808 -0.0000
vn 0.7238 -0.6362 0.2672
vn 0.7145 -0.3928 0.5789
vn 0.3769 -0.5361 0.7554
vn 0.7609 -0.3422 0.5513
vn -0.9342 -0.2380 0.2658
vn -0.3930 -0.5383 0.7455
vn -0.7241 -0.4132 0.5522
vn -0.6241 -0.7754 -0.0961
vn 0.0349 -0.9358 -0.3508
vn 0.1515 -0.3004 -0.9417
vn -0.9119 -0.2973 -0.2830
vn 0.0199 -0.5775 0.8161
vn 0.2169 -0.0063 0.9762
vn 0.8300 -0.0895 0.5506
vn 0.9161 0.0010 0.4010
vn 0.9325 -0.0002 -0.3612
vn 0.8678 -0.2428 -0.4335
vn 0.1131 -0.8983 0.4246
vn 0.1287 0.9713 -0.2000
vn 0.7225 0.6234 -0.2989
vn -0.5839 0.8056 -0.1004
vn 0.9398 0.1887 0.2849
vn 0.9433 -0.1505 0.2957
vn 0.8015 -0.4049 -0.4400
vn -0.7830 -0.4724 0.4047
vn 0.9104 0.3190 0.2633
vn 0.8607 -0.0407 -0.5076
vn -0.9294 0.2648 -0.2570
vn -0.3304 0.4399 0.8351
vn -0.8844 0.0738 0.4608
vn -0.8216 0.0127 0.5699
vn -0.1482 0.5118 0.8462
vn 0.9313 0.2854 0.2264
vn 0.8705 -0.0685 -0.4874
vn 0.9248 -0.2405 0.2948
vn 0.8949 -0.3668 0.2542
vn -0.0076 -0.3384 0.9410
vn 0.0838 0.4436 -0.8923
vn -0.9142 0.3114 -0.2595
vn -0.0210 0.4797 -0.8772
vn 0.9086 0.0785 -0.4102
vn -0.7642 0.1570 0.6256
vn -0.1351 0.9445 0.2994
vn 0.9615 0.2619 0.0834
vn 0.8837 -0.1125 -0.4544
vn 0.0172 -0.4671 -0.8840
vn -0.9026 -0.3514 -0.2486
vn -0.8335 0.5321 0.1490
vn 0.0798 0.5458 -0.8341
vn 0.8590 0.0918 -0.5037
vn 0.9848 0.1092 -0.1351
vn 0.9207 -0.3888 -0.0341
vn -0.8588 -0.0501 0.5098
vn -0.9182 -0.3944 0.0370
vn -0.3602 0.0958 0.9279
vn 0.2027 -0.5880 -0.7831
vn 0.2278 -0.5087 0.8302
vn -0.7772 -0.2029 0.5956
vn -0.4799 0.0685 0.8746
vn 0.9226 0.2505 0.2934
vn 0.7157 0.4633 -0.5227
vn -0.7503 -0.0000 0.6611
vn -0.2863 -0.0000 0.9582
vn -0.3256 0.8574 0.3985
vn -0.8553 0.4713 0.2153
vn 0.3257 -0.0000 0.9455
vn 0.7956 -0.0000 0.6058
vn 0.8647 0.4556 0.2116
vn 0.3984 0.8237 0.4035
vn -0.9998 -0.0000 -0.0196
vn 0.9999 -0.0000 -0.0168
vn 0.8268 0.1963 -0.5272
vn -0.3035 0.2217 -0.9267
vn -0.7962 0.1935 -0.5733
vn 0.3639 0.2147 -0.9063
vn 0.8268 -0.1963 -0.5272
vn -0.3035 -0.2217 -0.9267
vn -0.7962 -0.1935 -0.5733
vn 0.3639 -0.2147 -0.9063
vn 0.8647 -0.4556 0.2116
vn -0.3256 -0.8574 0.3985
vn -0.8553 -0.4713 0.2153
vn 0.3984 -0.8237 0.4035
vt 0.840667 0.501848
vt 0.840667 0.545082
vt 0.810096 0.532419
vt 0.840667 0.581734
vt 0.840667 0.606223
vt 0.766862 0.575653
vt 0.784179 0.558336
vt 0.854885 0.906786
vt 0.874058 0.944588
vt 0.795821 0.931108
vt 0.815301 0.907958
vt 0.478299 0.591196
vt 0.493514 0.500242
vt 0.512167 0.515933
vt 0.511763 0.572095
vt 0.111381 0.565803
vt 0.089316 0.631902
vt 0.024255 0.565077
vt 0.095991 0.525748
vt 0.468749 0.650642
vt 0.520547 0.631022
vt 0.502828 0.445365
vt 0.760781 0.501848
vt 0.797433 0.501848
vt 0.024255 0.392021
vt 0.109063 0.419018
vt 0.732181 0.928557
vt 0.730868 0.847777
vt 0.767436 0.859196
vt 0.530429 0.501306
vt 0.736291 0.501848
vt 0.141108 0.874641
vt 0.141602 0.973975
vt 0.107424 0.947877
vt 0.125441 0.897681
vt 0.689253 0.887594
vt 0.691786 0.869696
vt 0.124594 0.249409
vt 0.159109 0.323180
vt 0.770021 0.796895
vt 0.793215 0.819191
vt 0.810096 0.471278
vt 0.766862 0.428044
vt 0.784179 0.445361
vt 0.783656 0.859450
vt 0.800691 0.826839
vt 0.721584 0.784456
vt 0.825381 0.464946
vt 0.840667 0.458615
vt 0.812423 0.433662
vt 0.803764 0.412759
vt 0.840667 0.397473
vt 0.840667 0.421963
vt 0.806630 0.823587
vt 0.801198 0.816251
vt 0.809181 0.813311
vt 0.812568 0.820335
vt 0.783564 0.792559
vt 0.741971 0.750062
vt 0.762358 0.715667
vt 0.797107 0.788222
vt 0.177040 0.312282
vt 0.170815 0.242347
vt 0.217035 0.235285
vt 0.194971 0.301385
vt 0.464271 0.417238
vt 0.425713 0.389112
vt 0.500396 0.413029
vt 0.503247 0.418808
vt 0.818803 0.817715
vt 0.816448 0.808907
vt 0.823714 0.804503
vt 0.825038 0.815094
vt 0.808946 0.780376
vt 0.801898 0.721440
vt 0.841438 0.727213
vt 0.820786 0.772530
vt 0.855952 0.464946
vt 0.868910 0.433662
vt 0.897154 0.445361
vt 0.871237 0.471278
vt 0.202666 0.321412
vt 0.249566 0.268698
vt 0.282097 0.302110
vt 0.210361 0.341439
vt 0.689253 0.690913
vt 0.714168 0.679009
vt 0.877569 0.412759
vt 0.914471 0.428044
vt 0.920552 0.501848
vt 0.883900 0.501848
vt 0.282097 0.475166
vt 0.197289 0.448169
vt 0.884700 0.773851
vt 0.870868 0.809276
vt 0.945042 0.501848
vt 0.860990 0.822016
vt 0.925858 0.757424
vt 0.945948 0.825060
vt 0.908322 0.875247
vt 0.456995 0.489440
vt 0.469400 0.509216
vt 0.871237 0.532419
vt 0.914471 0.575653
vt 0.897154 0.558336
vt 0.207567 0.973975
vt 0.118391 0.926276
vt 0.154673 0.908886
vt 0.208782 0.950332
vt 0.941199 0.766645
vt 0.181758 0.617778
vt 0.147243 0.544008
vt 0.878352 0.873485
vt 0.452514 0.562590
vt 0.425713 0.615781
vt 0.069676 0.112902
vt 0.077699 0.035907
vt 0.086305 0.009314
vt 0.087468 0.110118
vt 0.105261 0.112902
vt 0.095492 0.035907
vt 0.104679 0.062500
vt 0.123054 0.115686
vt 0.739083 0.667105
vt 0.763997 0.655204
vt 0.816932 0.898109
vt 0.823540 0.894544
vt 0.800590 0.893583
vt 0.795584 0.905295
vt 0.811773 0.894525
vt 0.794523 0.858938
vt 0.801327 0.912289
vt 0.876414 0.857231
vt 0.869945 0.866100
vt 0.853909 0.830170
vt 0.889636 0.867625
vt 0.888794 0.861549
vt 0.869714 0.870348
vt 0.863727 0.874593
vt 0.846547 0.890120
vt 0.141602 0.866848
vt 0.169357 0.847230
vt 0.187015 0.857664
vt 0.162940 0.866189
vt 0.825023 0.822814
vt 0.820165 0.824412
vt 0.811033 0.828822
vt 0.815308 0.826009
vt 0.806759 0.831636
vt 0.088515 0.841253
vt 0.089730 0.864896
vt 0.226476 0.867351
vt 0.244493 0.917547
vt 0.226945 0.916754
vt 0.214470 0.874006
vt 0.185353 0.865159
vt 0.171453 0.870643
vt 0.260653 0.841253
vt 0.260160 0.940588
vt 0.067963 0.957564
vt 0.066302 0.950069
vt 0.095418 0.941223
vt 0.035621 0.906342
vt 0.081363 0.885909
vt 0.041503 0.914362
vt 0.050305 0.967998
vt 0.022550 0.948380
vt 0.043888 0.949039
vt 0.002472 0.884693
vt 0.187657 0.894483
vt 0.186908 0.889347
vt 0.184376 0.887912
vt 0.183945 0.888818
vt 0.160554 0.900866
vt 0.200414 0.929319
vt 0.065981 0.921103
vt 0.064687 0.924610
vt 0.052401 0.944585
vt 0.064893 0.926410
vt 0.065324 0.927316
vt 0.107893 0.898475
vt 0.185032 0.894125
vt 0.183739 0.890618
vt 0.067856 0.925881
vt 0.068605 0.920745
vt 0.593248 0.416897
vt 0.548038 0.431131
vt 0.510521 0.420023
vt 0.514943 0.415460
vt 0.524310 0.322720
vt 0.500125 0.272234
vt 0.523200 0.263585
vt 0.439477 0.492366
vt 0.546129 0.510233
vt 0.788911 0.643303
vt 0.545369 0.272219
vt 0.051883 0.115686
vt 0.069094 0.062500
vt 0.567821 0.280088
vt 0.588356 0.381055
vt 0.568767 0.442129
vt 0.476800 0.280183
vt 0.457752 0.381366
vt 0.474750 0.442735
vt 0.909816 0.136763
vt 0.909816 0.171239
vt 0.875340 0.171239
vt 0.875340 0.136763
vt 0.909816 0.205714
vt 0.909816 0.240190
vt 0.875340 0.240190
vt 0.875340 0.205714
vt 0.822168 0.072998
vt 0.822168 0.100270
vt 0.843614 0.081425
vt 0.918437 0.105772
vt 0.918437 0.080175
vt 0.941553 0.088085
vt 0.932724 0.059467
vt 0.840864 0.171239
vt 0.840864 0.136763
vt 0.840864 0.240190
vt 0.840864 0.205714
vt 0.835422 0.050934
vt 0.904150 0.059467
vt 0.806388 0.171239
vt 0.806388 0.136763
vt 0.806388 0.240190
vt 0.806388 0.205714
vt 0.808913 0.050934
vt 0.895321 0.088085
vt 0.978768 0.136763
vt 0.978768 0.171239
vt 0.944292 0.171239
vt 0.944292 0.136763
vt 0.978768 0.205714
vt 0.978768 0.240190
vt 0.944292 0.240190
vt 0.944292 0.205714
vt 0.800721 0.081425
s 1
g markMesh_markMat
usemtl markMat
f 7/1/1 58/2/2 14/3/3
f 6/4/4 5/5/5 12/6/6 13/7/7
f 71/8/8 3/9/9 63/10/10 72/11/11
f 2/12/12 57/13/13 8/14/14 9/15/15
f 58/2/2 6/4/4 13/7/7 14/3/3
f 5/16/5 4/17/16 64/18/17 12/19/6
f 3/20/9 2/12/12 9/15/15 63/21/10
f 57/13/13 1/22/18 8/14/14
f 14/3/3 13/7/7 20/23/19 21/24/20
f 12/19/6 64/18/17 66/25/21 19/26/22
f 63/10/10 9/27/15 16/28/23 65/29/24
f 8/14/14 1/22/18 15/30/25
f 7/1/1 14/3/3 21/24/20
f 13/7/7 12/6/6 19/31/22 20/23/19
f 11/32/26 72/33/11 92/34/27 89/35/28
f 9/27/15 8/36/14 15/37/25 16/28/23
f 19/26/22 66/25/21 25/38/29 26/39/30
f 65/29/24 16/28/23 23/40/31 24/41/32
f 7/1/1 21/24/20 28/42/33
f 20/23/19 19/31/22 26/43/30 27/44/34
f 73/45/35 65/29/24 24/41/32 74/46/36
f 16/28/23 15/37/25 22/47/37 23/40/31
f 21/24/20 20/23/19 27/44/34 28/42/33
f 7/1/1 28/42/33 133/48/38 35/49/39
f 134/50/40 135/51/41 33/52/42 34/53/43
f 141/54/44 137/55/45 31/56/46 75/57/47
f 138/58/48 139/59/49 29/60/50 30/61/51
f 133/48/38 134/50/40 34/53/43 35/49/39
f 135/62/41 136/63/52 32/64/53 33/65/42
f 137/55/45 138/58/48 30/61/51 31/56/46
f 121/66/54 36/67/55 61/68/56 122/69/57
f 131/70/58 124/71/59 38/72/60 76/73/61
f 125/74/62 126/75/63 36/76/55 37/77/64
f 127/78/65 128/79/66 41/80/67 42/81/68
f 129/82/69 123/83/70 39/84/71 40/85/72
f 124/71/59 125/74/62 37/77/64 38/72/60
f 139/59/49 22/47/37 59/86/73 140/87/74
f 7/1/1 35/49/39 127/78/65 42/81/68
f 128/79/66 129/88/69 40/89/72 41/80/67
f 42/81/68 41/80/67 48/90/75 49/91/76
f 40/85/72 39/84/71 68/92/77 47/93/78
f 38/72/60 37/77/64 44/94/79 67/95/80
f 7/1/1 42/81/68 49/91/76
f 41/80/67 40/89/72 47/96/78 48/90/75
f 76/73/61 38/72/60 67/95/80 77/97/81
f 37/77/64 36/76/55 43/98/82 44/94/79
f 67/95/80 44/94/79 51/99/83 69/100/84
f 43/101/82 1/22/18 50/102/85
f 7/1/1 49/91/76 56/103/86
f 48/90/75 47/96/78 54/104/87 55/105/88
f 46/106/89 81/107/90 82/108/91 79/109/92
f 44/94/79 43/98/82 50/110/85 51/99/83
f 49/91/76 48/90/75 55/105/88 56/103/86
f 47/93/78 68/92/77 70/111/93 54/112/87
f 7/1/1 56/103/86 58/2/2
f 55/105/88 54/104/87 5/5/5 6/4/4
f 78/113/94 69/100/84 3/9/9 71/8/8
f 51/114/83 50/102/85 57/13/13 2/12/12
f 56/103/86 55/105/88 6/4/4 58/2/2
f 54/112/87 70/111/93 4/17/16 5/16/5
f 69/115/84 51/114/83 2/12/12 3/20/9
f 50/102/85 1/22/18 57/13/13
f 140/116/74 142/117/95 62/118/96 60/119/97
f 130/120/98 132/121/99 122/122/57 61/123/56
f 126/75/63 29/60/50 60/124/97 130/125/98
f 72/11/11 11/126/26 64/127/17
f 80/128/100 17/129/101 65/29/24 73/45/35
f 11/126/26 18/130/102 66/131/21 64/127/17
f 17/129/101 10/132/103 63/10/10 65/29/24
f 81/133/90 46/134/89 68/135/77 77/97/81
f 78/113/94 52/136/104 69/100/84
f 52/136/104 45/137/105 67/95/80 69/100/84
f 46/134/89 53/138/106 70/139/93 68/135/77
f 53/138/106 78/113/94 70/139/93
f 45/137/105 81/133/90 77/97/81 67/95/80
f 18/130/102 80/128/100 73/45/35 66/131/21
f 10/132/103 72/11/11 63/10/10
f 70/139/93 78/113/94 71/8/8 4/140/16
f 45/141/105 52/142/104 83/143/107 84/144/108
f 39/145/71 76/73/61 77/97/81 68/135/77
f 123/146/70 131/70/58 76/73/61 39/145/71
f 136/147/52 141/54/44 75/57/47 32/148/53
f 66/131/21 73/45/35 74/46/36 25/149/29
f 18/150/102 11/32/26 89/35/28 88/151/109
f 4/140/16 71/8/8 72/11/11 64/127/17
f 86/152/110 85/153/111 96/154/112 95/155/113
f 84/144/108 83/143/107 98/156/114 93/157/115
f 81/107/90 45/141/105 84/144/108 82/108/91
f 52/142/104 78/158/94 86/152/110 83/143/107
f 53/159/106 46/106/89 79/109/92 85/153/111
f 78/158/94 53/159/106 85/153/111 86/152/110
f 92/34/27 91/160/116 103/161/117 104/162/118
f 87/163/119 88/151/109 100/164/120 99/165/121
f 10/166/103 17/167/101 90/168/122 91/160/116
f 17/167/101 80/169/100 87/163/119 90/168/122
f 80/169/100 18/150/102 88/151/109 87/163/119
f 72/33/11 10/166/103 91/160/116 92/34/27
f 95/155/113 96/154/112 108/170/123 107/171/124
f 93/157/115 98/156/114 110/172/125 105/173/126
f 82/108/91 84/144/108 93/157/115 94/174/127
f 79/109/92 82/108/91 94/174/127 97/175/128
f 85/153/111 79/109/92 97/175/128 96/154/112
f 83/143/107 86/152/110 95/155/113 98/156/114
f 99/165/121 100/164/120 112/176/129 111/177/130
f 103/161/117 102/178/131 114/179/132 115/180/133
f 90/168/122 87/163/119 99/165/121 102/178/131
f 88/151/109 89/35/28 101/181/134 100/164/120
f 89/35/28 92/34/27 104/162/118 101/181/134
f 91/160/116 90/168/122 102/178/131 103/161/117
f 108/170/123 109/182/135 118/170/136
f 109/182/135 106/183/137 118/182/136
f 97/175/128 94/174/127 106/183/137 109/182/135
f 96/154/112 97/175/128 109/182/135 108/170/123
f 94/174/127 93/157/115 105/173/126 106/183/137
f 98/156/114 95/155/113 107/171/124 110/172/125
f 104/162/118 103/161/117 115/180/133 116/184/138
f 102/178/131 99/165/121 111/177/130 114/179/132
f 100/164/120 101/181/134 113/185/139 112/176/129
f 101/181/134 104/162/118 116/184/138 113/185/139
f 111/177/130 112/176/129 117/177/140
f 115/180/133 114/179/132 117/180/140
f 116/184/138 115/180/133 117/184/140
f 114/179/132 111/177/130 117/179/140
f 112/176/129 113/185/139 117/176/140
f 113/185/139 116/184/138 117/185/140
f 106/183/137 105/173/126 118/183/136
f 110/172/125 107/171/124 118/172/136
f 105/173/126 110/172/125 118/173/136
f 107/171/124 108/170/123 118/171/136
f 22/186/37 119/187/141 120/188/142 59/189/73
f 1/190/18 132/191/99 62/192/96
f 36/67/55 121/66/54 43/193/82
f 22/186/37 15/194/25 119/187/141
f 32/148/53 75/57/47 131/70/58 123/146/70
f 36/76/55 126/75/63 130/125/98 61/195/56
f 60/119/97 62/118/96 132/121/99 130/120/98
f 34/53/43 33/52/42 129/88/69 128/79/66
f 31/56/46 30/61/51 125/74/62 124/71/59
f 33/65/42 32/64/53 123/83/70 129/82/69
f 35/49/39 34/53/43 128/79/66 127/78/65
f 30/61/51 29/60/50 126/75/63 125/74/62
f 75/57/47 31/56/46 124/71/59 131/70/58
f 25/149/29 74/46/36 141/54/44 136/147/52
f 1/190/18 62/192/96 142/196/95
f 59/197/73 120/198/142 142/117/95 140/116/74
f 29/60/50 139/59/49 140/87/74 60/124/97
f 24/41/32 23/40/31 138/58/48 137/55/45
f 26/39/30 25/38/29 136/63/52 135/62/41
f 28/42/33 27/44/34 134/50/40 133/48/38
f 23/40/31 22/47/37 139/59/49 138/58/48
f 74/46/36 24/41/32 137/55/45 141/54/44
f 27/44/34 26/43/30 135/51/41 134/50/40
f 120/199/142 119/200/141 142/196/95
f 142/196/95 119/200/141 1/190/18
f 15/201/25 1/190/18 119/200/141
f 122/202/57 132/191/99 121/203/54
f 132/191/99 1/190/18 121/203/54
f 43/204/82 121/203/54 1/190/18
f 147/205/143 146/206/144 151/207/145 152/208/146
f 145/209/147 144/210/148 149/211/149 150/212/150
f 148/213/151 147/214/143 152/215/146
f 146/206/144 145/209/147 150/212/150 151/207/145
f 144/216/148 143/217/152 149/218/149
f 149/218/149 143/217/152 153/219/153
f 152/208/146 151/207/145 155/220/154 156/221/155
f 150/212/150 149/211/149 153/222/153 154/223/156
f 148/213/151 152/215/146 156/224/155
f 151/207/145 150/212/150 154/223/156 155/220/154
f 153/219/153 143/217/152 157/225/157
f 156/221/155 155/220/154 159/226/158 160/227/159
f 154/223/156 153/222/153 157/228/157 158/229/160
f 148/213/151 156/224/155 160/230/159
f 155/220/154 154/223/156 158/229/160 159/226/158
f 157/225/157 143/217/152 161/231/161
f 160/232/159 159/233/158 163/234/162 164/235/163
f 158/236/160 157/237/157 161/238/161 162/239/164
f 148/213/151 160/230/159 164/240/163
f 159/233/158 158/236/160 162/239/164 163/234/162
f 161/231/161 143/217/152 144/216/148
f 164/235/163 163/234/162 146/206/144 147/205/143
f 162/239/164 161/238/161 144/210/148 145/209/147
f 148/213/151 164/240/163 147/214/143
f 163/234/162 162/239/164 145/209/147 146/206/144
f 169/205/143 168/206/144 173/207/145 174/208/146
f 167/209/147 166/210/148 171/211/149 172/212/150
f 170/213/151 169/214/143 174/215/146
f 168/206/144 167/209/147 172/212/150 173/207/145
f 166/216/148 165/217/152 171/218/149
f 171/218/149 165/217/152 175/219/153
f 174/208/146 173/207/145 177/220/154 178/221/155
f 172/212/150 171/211/149 175/222/153 176/223/156
f 170/213/151 174/215/146 178/224/155
f 173/207/145 172/212/150 176/223/156 177/220/154
f 175/219/153 165/217/152 179/225/157
f 178/221/155 177/220/154 181/226/158 182/227/159
f 176/223/156 175/222/153 179/228/157 180/229/160
f 170/213/151 178/224/155 182/230/159
f 177/220/154 176/223/156 180/229/160 181/226/158
f 179/225/157 165/217/152 183/231/161
f 182/232/159 181/233/158 185/234/162 186/235/163
f 180/236/160 179/237/157 183/238/161 184/239/164
f 170/213/151 182/230/159 186/240/163
f 181/233/158 180/236/160 184/239/164 185/234/162
f 183/231/161 165/217/152 166/216/148
f 186/235/163 185/234/162 168/206/144 169/205/143
f 184/239/164 183/238/161 166/210/148 167/209/147
f 170/213/151 186/240/163 169/214/143
f 185/234/162 184/239/164 167/209/147 168/206/144
