# Blender 5.0.1
# www.blender.org
mtllib model.mtl
o grassMesh
v -29.717201 -20.603565 12.402895
v -28.931908 -33.837811 14.236139
v 9.046262 -10.038386 12.869416
v 15.815299 -2.501113 12.376584
v -37.423126 -21.206154 14.290251
v -31.004581 -17.602821 13.076918
v -34.574196 -8.133906 13.722749
v -19.623375 -4.559992 13.306177
v -28.818413 42.961510 14.800273
v -12.720927 44.218601 15.515100
v -42.711613 43.823963 19.162445
v -51.565781 57.645596 17.363113
v -25.916985 -1.552548 13.873465
v -28.907148 -2.267332 13.873465
v -17.698116 39.126785 13.899045
v -28.274309 40.728825 14.122293
v -48.351463 39.189198 19.616968
v -53.664627 49.161964 21.757959
v -51.250404 13.013625 23.061617
v -59.903076 13.004461 23.199879
v -51.243973 6.941579 23.199234
v -59.896645 6.932415 24.638496
v -49.789642 11.127230 23.061617
v -49.787201 8.831064 23.061617
v -17.425156 10.539213 23.061617
v -17.731358 8.865095 23.061617
v -15.482163 11.163651 23.061617
v -15.420707 8.218503 23.061617
v -18.895697 11.161261 23.061617
v -18.893259 8.865095 23.061617
v -12.232552 10.369508 24.810957
v -11.085041 11.924017 24.810957
v -14.525570 10.702089 24.810957
v -13.118864 13.736235 24.810957
v -35.358307 -8.689924 34.523441
v -34.108498 -10.616152 34.523441
v -17.506451 22.848299 29.043800
v -16.256639 20.922071 28.958490
v -59.587135 -21.879044 35.160793
v -59.259926 -23.132435 35.206627
v -12.978672 15.057076 26.827145
v -11.831161 16.611586 26.827145
v -15.271690 15.389658 26.827145
v -13.864985 18.423803 26.827145
v -8.277812 20.861801 28.283165
v -10.083817 21.548552 28.283165
v -7.980931 18.563887 28.283165
v -11.281733 19.102011 28.283165
v -11.253366 23.543444 28.283165
v -11.443923 25.466196 28.283165
v -13.177838 22.253115 28.283165
v -14.167933 25.447577 28.283165
v -34.437378 -41.930782 12.136829
v -33.947353 -41.266956 12.136829
v -35.416569 -41.788761 12.136829
v -34.815861 -40.493084 12.136829
v -44.071316 -50.493114 15.875454
v -43.514805 -49.739216 15.875454
v -45.183369 -50.331821 15.875454
v -44.501156 -48.860340 15.875454
v -57.483215 -50.810886 21.470314
v -56.993187 -50.147064 21.470314
v -58.462402 -50.668861 21.470314
v -57.861694 -49.373188 21.470314
v -67.359421 -39.337471 29.079102
v -66.869400 -38.673649 29.079102
v -68.338615 -39.195450 29.079102
v -67.737907 -37.899773 29.079102
v -62.476288 -26.997961 33.070190
v -61.986267 -26.334135 33.070190
v -63.455482 -26.855940 33.070190
v -62.854774 -25.560266 33.070190
v -32.761539 -36.163216 11.766208
v -32.271511 -35.499390 11.766208
v -33.740726 -36.021191 11.766208
v -33.140018 -34.725517 11.766208
v -38.202057 -47.289883 13.175177
v -37.645546 -46.535984 13.175177
v -39.314110 -47.128582 13.175177
v -38.631897 -45.657108 13.175177
v -50.779774 -52.150539 18.770039
v -50.289753 -51.486717 18.770039
v -51.758968 -52.008514 18.770039
v -51.158260 -50.712841 18.770039
v -62.674850 -45.768402 25.193840
v -62.184830 -45.104576 25.193840
v -63.654045 -45.626381 25.193840
v -63.053337 -44.330704 25.193840
v -66.077621 -32.790009 31.076973
v -65.587593 -32.126179 31.076973
v -67.056808 -32.647987 31.076973
v -66.456100 -31.352306 31.076973
v -79.991417 -13.047592 35.843819
v -79.991417 -20.688091 35.843819
v -28.999582 -34.263412 14.791244
v 8.659419 -9.984714 13.484906
v 15.808331 -2.773464 12.998783
v -29.465488 -20.397482 12.872043
v -37.687149 -21.339664 14.846607
v -30.715332 -17.484228 13.526414
v -34.772343 -7.965137 14.265982
v -19.195719 -4.416112 13.748988
v -46.883362 57.584652 18.125322
v -12.483512 44.234188 16.940208
v -17.571934 39.126858 14.450104
v -29.052769 -1.962906 14.372683
v -42.702568 43.519283 19.663546
v -28.839697 53.515240 16.940208
v -25.606020 -1.552477 14.322148
v -28.470335 40.728897 14.673351
v -48.141727 38.722515 20.118069
v -53.846176 49.368092 22.259060
v -51.015751 13.134194 23.562717
v -60.315231 12.656678 23.700977
v -50.841782 6.693295 23.700335
v -60.245956 6.559052 25.139597
v -49.554989 11.247799 23.562717
v -49.535683 8.539808 23.562717
v -18.548180 11.325398 23.562717
v -18.488100 8.619918 23.562717
v -17.610086 10.710388 23.520548
v -15.272371 11.461681 23.520548
v -15.198430 7.918221 23.520548
v -17.978495 8.696170 23.520548
v -12.167208 10.200543 25.269888
v -14.755201 10.575909 25.269888
v -13.167538 14.000370 25.269888
v -10.872080 11.955027 25.269888
v -12.889272 14.825910 27.286076
v -15.585861 15.217025 27.286076
v -13.931577 18.785179 27.286076
v -11.539800 16.654011 27.286076
v -8.130278 20.972000 28.742096
v -7.794576 18.373606 28.742096
v -11.526999 18.982092 28.742096
v -10.172441 21.748552 28.742096
v -11.049194 23.440477 28.742096
v -13.286155 21.940626 28.742096
v -14.437017 25.653791 28.742096
v -11.270694 25.675436 28.742096
v -35.633362 -8.248117 34.768925
v -34.047985 -10.790841 34.768925
v -17.519697 23.131765 29.289284
v -16.130014 20.918785 29.203974
v -59.466816 -21.584124 35.406277
v -59.214802 -23.288773 35.452110
v -79.991417 -12.717415 36.089302
v -79.991417 -20.874765 36.089302
v -34.321568 -42.230240 12.565220
v -35.823551 -42.012394 12.565220
v -34.902122 -40.024952 12.565220
v -33.569920 -41.211998 12.565220
v -44.003529 -50.668392 16.303844
v -45.421581 -50.462719 16.303844
v -44.551647 -48.586334 16.303844
v -43.293884 -49.707047 16.303844
v -57.407837 -51.005798 21.898705
v -58.727299 -50.814419 21.898705
v -57.917839 -49.068489 21.898705
v -56.747520 -50.111294 21.898705
v -67.294998 -39.504044 29.507492
v -68.564995 -39.319843 29.507492
v -67.785889 -37.639378 29.507492
v -66.659454 -38.643078 29.507492
v -62.415203 -27.155903 33.498581
v -63.670135 -26.973890 33.498581
v -62.900272 -25.313360 33.498581
v -61.787197 -26.305147 33.498581
v -32.680264 -36.373383 12.194598
v -34.026356 -36.178139 12.194598
v -33.200558 -34.396973 12.194598
v -32.006618 -35.460819 12.194598
v -38.125584 -47.487621 13.603567
v -39.582848 -47.276249 13.603567
v -38.688858 -45.347992 13.603567
v -37.396317 -46.499695 13.603567
v -50.710938 -52.328537 19.198429
v -52.000877 -52.141438 19.198429
v -51.209534 -50.434586 19.198429
v -50.065407 -51.454052 19.198429
v -62.597561 -45.968254 25.622231
v -63.925659 -45.775631 25.622231
v -63.110909 -44.018276 25.622231
v -61.932934 -45.067894 25.622231
v -66.006256 -32.974548 31.505363
v -67.307610 -32.785797 31.505363
v -66.509262 -31.063824 31.505363
v -65.355003 -32.092312 31.505363
v -160.072708 -23.775227 13.815002
v -160.561401 26.601360 17.908249
v -116.689537 52.626167 20.447399
v -72.835251 26.591202 23.118834
v -79.292534 -22.300941 35.917370
v -116.689537 -49.366432 23.118834
v -164.008224 -26.058506 13.815002
v -164.701538 28.971878 17.908249
v -118.048653 55.427616 20.467112
v -68.100357 29.610447 23.033207
v -77.431847 -25.399345 36.493446
v -118.527100 -53.802769 23.484774
v -163.743271 -25.399677 12.572180
v -165.300598 28.377544 16.450941
v -117.504486 54.175632 18.603418
v -68.625198 31.002743 21.433922
v -75.948463 -24.910233 34.582134
v -116.978569 -52.939377 21.248749
v -94.150093 32.017612 44.162060
v -83.865295 41.887726 42.628990
v -86.631340 27.144690 44.162060
v -80.486328 39.697803 42.628990
v -95.902153 31.492199 45.851433
v -83.675194 43.042976 43.835304
v -79.435867 40.295452 43.835304
v -86.468964 25.378525 45.851433
v -91.576111 33.937180 43.820404
v -117.612213 45.729198 50.747677
v -91.376770 34.245827 43.820404
v -78.949272 49.550766 42.360920
v -117.537346 45.845127 50.747677
v -91.569000 33.904129 43.841476
v -117.624626 45.726528 50.916428
v -117.540016 45.857540 50.916428
v -91.343719 34.252937 43.841476
v -78.115120 52.618301 43.350834
v -79.783424 46.483238 42.667057
v -82.108940 52.756466 43.350834
v -81.578270 46.545326 42.667057
v -77.185020 53.698895 44.197510
v -79.482964 45.503304 44.197510
v -82.037842 45.591690 44.197510
v -82.870033 53.895573 44.197510
v -97.345573 43.264729 45.473095
v -103.166611 42.493324 47.262947
v -108.971115 49.559959 49.015862
v -78.532196 51.084534 42.861561
v -108.865128 49.724064 49.015858
v -103.041473 42.687092 47.262943
v -97.232231 43.440224 45.473095
v -97.344070 43.247578 45.642433
v -103.169037 42.477024 47.554527
v -108.978645 49.549690 49.270935
v -108.858871 49.735153 49.270935
v -103.027611 42.696007 47.554527
v -97.215981 43.445908 45.642433
v -79.366348 48.016998 42.519672
v -81.710938 48.098114 42.519672
v -81.843605 49.650902 42.360920
v -81.976265 51.203678 42.861561
v -77.759506 51.649998 44.197510
v -78.333992 49.601105 44.197510
v -78.908478 47.552208 44.197510
v -82.245888 47.667664 44.197510
v -82.453934 49.743633 44.197510
v -82.661987 51.819607 44.197510
v -79.130730 58.644810 44.758526
v -78.325066 59.736240 44.758526
v -80.740692 58.878311 44.758526
v -79.753036 61.008606 44.758526
v -78.887695 58.016384 45.481686
v -81.594757 58.409008 45.481686
v -79.934059 61.991005 45.481686
v -77.532997 59.851589 45.481686
v -90.595802 74.046127 48.212086
v -91.947884 74.156509 48.212086
v -89.946747 72.554413 48.212086
v -92.277885 72.272598 48.212086
v -90.189468 74.583603 48.935246
v -89.098114 72.075356 48.935246
v -93.017815 71.601501 48.935246
v -92.462944 74.769203 48.935246
v -124.291573 40.385971 52.627453
v -123.223763 54.600613 51.094383
v -115.440559 41.777588 50.759483
v -119.246071 55.226006 49.951607
v -124.776901 39.719563 53.141426
v -123.523247 54.818718 51.548038
v -119.027954 55.525497 50.626060
v -114.774155 41.292267 51.273457
v -103.109550 72.814392 47.971218
v -106.268303 72.456879 48.961132
v -99.950798 73.171906 48.277355
v -104.921959 68.694298 48.961132
v -99.345734 71.480980 48.277355
v -107.615982 72.922226 49.770859
v -99.151062 73.812988 49.770859
v -98.289787 71.406036 49.770859
v -105.699516 67.566368 49.770859
v -104.688927 72.635643 48.471859
v -101.530159 72.993156 48.129971
v -100.739784 70.784317 48.129971
v -102.133850 70.087631 47.971218
v -103.527901 69.390976 48.471859
v -105.499748 73.144920 49.770859
v -103.383530 73.367607 49.770859
v -101.267296 73.590294 49.770859
v -100.142227 70.446114 49.770859
v -101.994652 69.486206 49.770859
v -103.847076 68.526291 49.770859
v -115.110641 64.851875 50.239594
v -117.564369 62.833473 51.234947
v -112.656029 66.872688 50.540291
v -114.385956 60.411224 51.237267
v -111.227615 65.784111 50.541332
v -118.947334 62.491741 51.805645
v -112.333778 67.847801 51.805645
v -110.300514 66.298279 51.805645
v -114.422989 59.043781 51.805645
v -116.337509 63.842693 50.742954
v -113.883316 65.862305 50.395626
v -112.017418 64.440315 50.396988
v -112.807228 63.096458 50.241276
v -113.596596 61.753860 50.744957
v -117.294479 63.829288 51.805645
v -115.641380 65.167557 51.805645
v -113.987808 66.507050 51.805645
v -111.331772 64.482925 51.805645
v -112.362579 62.668819 51.805645
v -113.392914 60.855942 51.805645
v -84.200562 67.504990 46.689816
v -85.552643 67.615372 46.689816
v -83.551506 66.013275 46.689816
v -85.882645 65.731461 46.689816
v -83.794228 68.042465 47.412975
v -82.702873 65.534218 47.412975
v -86.622574 65.060364 47.412975
v -86.067703 68.228065 47.412975
v -161.078293 -24.925844 10.936125
v -159.037994 26.888357 15.334823
v -117.038002 50.234135 18.693930
v -73.990608 25.895153 21.605461
v -81.981033 -20.407238 33.509354
v -117.426819 -47.264656 19.662401
v -132.012604 43.403431 49.944160
v -132.141327 51.383369 61.235699
v -127.244110 43.275581 50.634472
v -129.901901 51.323326 61.559891
v -129.543625 51.304600 62.616459
v -126.157097 42.304214 50.473450
v -133.058838 42.489258 49.474312
v -132.784836 51.391510 62.147236
v -135.552261 39.881702 48.619392
v -127.823906 38.492142 60.000793
v -138.190201 36.322113 50.517338
v -129.062759 36.820450 60.892136
v -129.179810 36.813293 62.001766
v -139.606110 35.944775 50.579609
v -135.788071 41.096786 47.832592
v -127.386757 39.232796 60.711712
v -140.612320 41.638977 54.153790
v -145.352463 48.778530 65.005173
v -136.508682 44.044590 54.931328
v -143.425278 49.908276 65.370331
v -143.154449 50.117470 66.432388
v -135.069214 43.778614 54.840340
v -141.008682 40.296806 53.714951
v -145.943787 48.482334 65.903870
v -140.776169 34.307510 60.564960
v -149.526886 36.505554 60.574177
v -140.458893 38.997700 60.659065
v -149.332626 39.377407 60.631798
v -149.614502 40.340305 61.100063
v -140.163391 39.984467 61.212841
v -140.622574 33.196129 61.076660
v -149.895645 36.183704 61.016674
v -142.586868 26.089685 65.097893
v -151.491623 33.824249 64.896996
v -138.399948 28.467970 64.885818
v -149.525299 34.941162 64.797409
v -149.441391 35.873596 65.404510
v -136.433105 27.836159 66.110168
v -142.737427 24.871086 65.749107
v -152.287292 34.257042 65.548637
v -73.037491 -24.018600 22.336412
v -77.987183 -21.806917 35.125576
v -113.808754 -21.948778 116.355759
v -122.569824 -48.128231 117.071541
v -118.026016 -19.637039 116.036186
v -126.165291 -46.157310 116.799133
v -127.687355 -46.860619 117.952400
v -118.516182 -17.575199 117.173233
v -112.691292 -21.409716 117.173233
v -122.483505 -49.713142 117.952400
v -126.379929 -0.959417 123.899254
v -152.657898 -7.053661 124.615036
v -126.870773 0.705295 123.579681
v -153.076340 -5.634389 124.342628
v -154.507065 -5.507670 125.495895
v -125.465950 1.451658 124.716728
v -125.311020 -1.045447 124.716728
v -153.901367 -7.561815 125.495895
v -126.519234 3.217400 126.721870
v -153.420090 2.127773 127.437653
v -126.749733 4.152680 126.402298
v -153.616562 2.925156 127.165245
v -155.011078 3.112200 128.318512
v -125.247299 4.436904 127.539345
v -125.476059 3.082299 127.539345
v -154.726639 1.958124 128.318512
v -132.544739 12.563700 126.273796
v -150.062439 6.344208 126.768013
v -132.888000 13.133363 126.053146
v -150.355072 6.829888 126.579926
v -151.312973 6.668077 127.376198
v -131.955307 13.628032 126.838226
v -131.829178 12.687921 126.838226
v -150.889389 5.965155 127.376198
v -130.591583 10.138330 126.273796
v -147.511673 17.836533 126.768013
v -130.442657 10.786531 126.053146
v -147.384689 18.389156 126.579926
v -148.186035 18.938330 127.376198
v -129.428162 10.494266 126.838226
v -129.990646 9.730499 126.838226
v -148.369797 18.138479 127.376198
v -128.126831 11.498920 129.452850
v -140.782135 25.114908 129.947067
v -127.739960 12.039911 129.232208
v -140.452286 25.576124 129.758987
v -140.980621 26.391356 130.555252
v -126.916016 11.379793 130.017288
v -127.729080 10.891260 130.017288
v -141.458008 25.723793 130.555252
v -125.728149 13.132809 133.408768
v -133.082504 30.205160 133.902985
v -125.182220 13.512671 133.188126
v -132.617050 30.528999 133.714905
v -132.841293 31.474228 134.511169
v -124.627457 12.614404 133.973206
v -125.557297 12.426929 133.973206
v -133.514969 31.005491 134.511169
v -117.448700 16.824249 132.658203
v -116.334206 35.379833 133.152420
v -116.790237 16.917824 132.437561
v -115.772820 35.459587 132.964340
v -115.547737 36.404617 133.760605
v -116.699013 15.866004 133.222641
v -117.613754 16.116991 133.222641
v -116.360283 36.289162 133.760605
v -118.688217 20.875706 132.658203
v -108.247871 36.255920 133.152420
v -118.074409 20.619648 132.437561
v -107.724571 36.037590 132.964340
v -107.048164 36.734886 133.760605
v -118.533501 19.668919 133.222641
v -119.191521 20.352116 133.222641
v -107.805603 37.050873 133.760605
v -100.207504 9.479034 132.658203
v -89.767159 24.859249 133.152420
v -99.593697 9.222977 132.437561
v -89.243858 24.640919 132.964340
v -88.567451 25.338215 133.760605
v -100.052788 8.272247 133.222641
v -100.710808 8.955444 133.222641
v -89.324890 25.654202 133.760605
v -101.791138 9.957370 132.658203
v -84.938133 17.801342 133.152420
v -101.395683 9.422634 132.437561
v -84.600998 17.345428 132.964340
v -83.662636 17.596855 133.760605
v -102.277565 8.842175 133.222641
v -102.491798 9.766217 133.222641
v -84.150620 18.256725 133.760605
v -104.523293 -7.517756 132.658203
v -85.970718 -8.681284 133.152420
v -104.431458 -8.176462 132.437561
v -85.892448 -9.242882 132.964340
v -84.948021 -9.470454 133.760605
v -105.483521 -8.264910 133.222641
v -105.230118 -7.350832 133.222641
v -85.061333 -8.657609 133.760605
v -103.788216 -5.582524 132.658203
v -88.767006 -16.533104 133.152420
v -104.064720 -6.187397 132.437561
v -89.002777 -17.048790 132.964340
v -88.328575 -17.748207 133.760605
v -104.999512 -5.696659 133.222641
v -104.294624 -5.061933 133.222641
v -87.987350 -17.001799 133.760605
v -120.024475 -13.215690 132.658203
v -109.895432 -28.802685 133.152420
v -120.498489 -13.682206 132.437561
v -110.299583 -29.200399 132.964340
v -109.919098 -30.094248 133.760605
v -121.196846 -12.890399 133.222641
v -120.311958 -12.548745 133.222641
v -109.334152 -29.518578 133.760605
v -118.801041 -12.182777 132.658203
v -116.002716 -30.559973 133.152420
v -119.425278 -12.412251 132.437561
v -116.534927 -30.755585 132.964340
v -116.556992 -31.726795 133.760605
v -119.734871 -11.402890 133.222641
v -118.787842 -11.456631 133.222641
v -115.786682 -31.443638 133.760605
v -29.489120 -6.539215 70.971718
v -30.033224 -5.467735 72.971718
v -21.776079 -10.444542 70.971718
v -21.085964 -10.057084 72.971718
v -30.093834 -10.581565 70.971718
v -30.929956 -11.462152 72.971718
v -21.776079 -12.444542 70.971718
v -21.085964 -13.022893 72.971718
v -27.595444 -19.969336 74.363380
v -28.442387 -20.821865 76.363380
v -24.243517 -10.955444 74.363380
v -24.827759 -10.421551 76.363380
v -23.567253 -19.276545 74.363380
v -22.468967 -19.794523 76.363380
v -22.344299 -10.328568 74.363380
v -22.011402 -9.491949 76.363380
v -20.157211 -17.514473 77.958542
v -20.245678 -18.712927 79.958542
v -25.163595 -11.217337 77.958542
v -25.954634 -11.192036 79.958542
v -17.549015 -14.367477 77.958542
v -16.377975 -14.046234 79.958542
v -24.129229 -9.505587 77.958542
v -24.420767 -8.653675 79.958542
v -18.300955 -10.321698 82.028542
v -17.454811 -11.175021 84.028542
v -26.415447 -11.566410 82.028542
v -26.953714 -12.146626 84.028542
v -18.963469 -6.288420 82.028542
v -18.437256 -5.194054 84.028542
v -27.028042 -9.662539 82.028542
v -27.862135 -9.323366 84.028542
v -22.359413 -3.516994 85.962868
v -21.158291 -3.554718 87.962868
v -25.745377 -11.143061 85.962875
v -25.737213 -11.934462 87.962875
v -25.613859 -1.044171 85.962868
v -25.984322 0.112243 87.962868
v -27.499325 -10.181983 85.962875
v -28.338150 -10.509275 87.962875
v -29.549522 -1.252064 90.168533
v -28.910625 -0.234259 92.168533
v -24.971424 -10.864377 90.168533
v -24.284142 -11.256835 92.168533
v -33.327011 -2.813109 90.168533
v -34.512276 -2.549139 92.168533
v -26.686462 -11.893283 90.168533
v -26.827377 -12.782604 92.168533
v -35.905354 -7.036754 94.442032
v -36.449455 -5.965274 96.442032
v -25.366587 -8.739305 94.442032
v -24.676474 -8.351848 96.442032
v -36.510067 -11.079103 94.442032
v -37.346191 -11.959691 96.442032
v -25.366587 -10.739305 94.442032
v -24.676474 -11.317657 96.442032
v -34.847218 -15.893949 98.308525
v -35.983162 -15.501839 100.308525
v -26.337847 -7.919011 98.308525
v -26.111029 -7.160767 100.308525
v -32.472164 -19.220413 98.308525
v -32.461182 -20.434669 100.308525
v -24.947668 -9.356856 98.308525
v -24.049520 -9.292953 100.308525
v -27.409639 -20.954803 102.853355
v -28.316994 -21.742729 104.853355
v -26.695116 -9.276040 102.853355
v -27.238506 -8.700620 104.853355
v -23.341406 -20.560173 102.853355
v -22.284191 -21.157528 104.853355
v -24.754936 -8.790551 102.853355
v -24.361404 -7.980687 104.853355
v -18.901962 -17.901142 107.126854
v -18.744589 -19.092508 109.126854
v -27.192472 -10.495680 107.126854
v -27.972095 -10.631952 109.126854
v -16.989069 -14.289064 107.126854
v -15.907951 -13.736142 109.126854
v -26.528254 -8.609199 107.126854
v -26.987122 -7.834480 109.126854
v -16.510761 -9.571784 110.789848
v -15.444349 -10.125753 112.789848
v -26.896370 -10.944233 110.789848
v -27.231609 -11.661170 112.789848
v -18.373976 -5.933830 110.789848
v -18.207315 -4.731017 112.789848
v -28.061405 -9.318595 110.789848
v -28.959240 -9.250504 112.789848
v -22.824118 -2.699196 114.113678
v -21.656321 -2.415704 116.113678
v -25.738661 -10.851128 114.113678
v -25.520046 -11.611779 116.113678
v -27.498981 -1.182306 114.113678
v -27.498981 -0.166301 116.113678
v -27.498981 -10.391821 114.113678
v -27.498981 -10.930672 116.113678
v -141.076324 34.018753 63.537693
v -137.581268 38.615669 63.722931
v -136.755981 32.165863 63.631798
v -134.935867 37.481140 63.780552
v -133.933960 37.428165 64.248817
v -135.922791 31.560200 64.185577
v -142.175842 34.241947 64.049393
v -137.762802 39.070221 64.165428
v -37.666653 -6.980819 115.755859
v -37.666653 -6.846381 115.040695
v -37.666653 -4.548692 115.040695
v -37.666653 -4.295208 115.755859
v -29.467464 -4.018255 115.040695
v -29.467464 -3.644622 115.755859
v -29.467464 -7.405031 115.040695
v -29.467464 -7.603192 115.755859
v -51.364147 57.844532 17.864214
v -28.931709 53.558819 16.486906
v -28.747070 42.653000 15.301373
v -46.954704 57.893162 17.624222
v -23.422218 55.948250 16.397661
v -14.906632 49.143063 15.515100
v -14.768518 49.131165 16.940208
v -23.288589 56.045101 16.940208
v 410.729095 0.463127 20.977861
v 411.948120 2.014375 20.656282
v 408.408325 0.910951 21.377308
v 409.940552 3.976782 20.903297
v 411.080933 0.047933 21.996355
v 407.953674 0.651378 22.534613
v 410.018341 4.782610 21.895876
v 412.723633 2.138249 21.563021
vn 0.9085 -0.1543 -0.3883
vn 0.3009 0.7826 -0.5449
vn -0.7349 -0.4920 -0.4668
vn 0.4548 -0.7327 -0.5063
vn -0.9106 0.1416 -0.3882
vn -0.0024 0.9508 -0.3098
vn 0.9405 0.2975 0.1639
vn 0.0010 -0.8644 -0.5029
vn 0.9036 0.4113 -0.1196
vn -0.9720 -0.2350 -0.0063
vn -0.9047 0.1804 -0.3860
vn 0.7215 -0.6243 -0.2996
vn -0.3425 0.8621 0.3735
vn -0.7026 -0.1648 -0.6922
vn 0.7778 0.0008 -0.6285
vn 0.4355 -0.5606 -0.7043
vn -0.9104 0.3442 0.2297
vn -0.0859 -0.7693 -0.6331
vn 0.7022 0.5437 -0.4596
vn -0.6067 0.5877 -0.5353
vn 0.7038 0.4291 -0.5661
vn 0.7311 -0.6615 -0.1673
vn -0.2411 -0.8615 -0.4469
vn 0.5108 -0.7619 -0.3982
vn 0.7321 -0.5404 -0.4148
vn 0.5971 0.6701 -0.4410
vn 0.7653 0.5137 -0.3879
vn 0.7014 -0.4876 -0.5199
vn 0.3366 0.8853 -0.3208
vn -0.8233 0.3817 -0.4200
vn -0.2760 0.8588 -0.4315
vn -0.8437 0.4131 -0.3429
vn -0.1299 -0.8955 -0.4258
vn 0.7633 -0.5634 -0.3161
vn -0.1341 -0.9244 -0.3570
vn 0.6066 0.6808 -0.4106
vn -0.8593 0.3984 -0.3209
vn 0.7496 -0.5533 -0.3633
vn -0.1321 -0.9108 -0.3912
vn 0.6165 0.6919 -0.3757
vn -0.8271 0.3835 -0.4110
vn -0.1349 -0.9302 -0.3414
vn 0.6055 0.6795 -0.4142
vn -0.8352 0.3872 -0.3905
vn -0.1357 -0.9357 -0.3256
vn 0.6133 0.6883 -0.3874
vn -0.8476 0.3930 -0.3567
vn -0.1305 -0.8997 -0.4166
vn -0.8338 0.3866 -0.3940
vn -0.1318 -0.9088 -0.3959
vn -0.8436 0.3911 -0.3680
vn -0.1338 -0.9226 -0.3618
vn -0.1316 -0.9072 -0.3995
vn -0.1332 -0.9181 -0.3733
vn 0.3603 -0.7554 -0.5473
vn 0.2200 0.5695 -0.7920
vn -0.7948 0.3756 -0.4766
vn -0.0536 0.0215 0.9983
vn 0.0465 0.0644 0.9968
vn 0.0129 0.0253 0.9996
vn 0.2161 0.1371 0.9667
vn 0.2163 0.1371 0.9667
vn 0.2162 0.1371 0.9667
vn -0.0267 -0.3136 0.9492
vn 0.0866 -0.0325 0.9957
vn 0.0875 -0.0349 0.9956
vn 0.0868 -0.0329 0.9957
vn 0.1735 -0.1040 0.9793
vn -0.0525 0.0931 0.9943
vn 0.0474 -0.0629 0.9969
vn 0.0079 0.1325 0.9911
vn 0.1509 0.0252 0.9882
vn 0.0286 0.0221 0.9993
vn -0.0000 -0.0000 1.0000
vn -0.2138 0.1577 0.9641
vn -0.2117 0.1683 0.9627
vn -0.1991 0.2032 0.9587
vn 0.2428 -0.0952 0.9654
vn 0.2431 -0.0952 0.9653
vn 0.2432 -0.0952 0.9653
vn -0.0542 -0.3934 0.9178
vn 0.0957 -0.0392 0.9946
vn 0.0958 -0.0395 0.9946
vn 0.0958 -0.0396 0.9946
vn 0.3776 0.3367 0.8626
vn -0.0847 -0.1494 0.9851
vn 0.0301 -0.1309 0.9909
vn 0.3198 -0.0191 0.9473
vn 0.0027 0.2297 0.9733
vn 0.1038 0.0007 0.9946
vn 0.5546 -0.4773 -0.6816
vn -0.1357 -0.9358 -0.3252
vn -0.8784 -0.2723 -0.3927
vn -0.8594 0.3984 -0.3205
vn 0.9362 0.1210 -0.3300
vn -0.0062 0.9108 -0.4129
vn -0.8925 0.1632 -0.4205
vn 0.9046 0.0189 -0.4258
vn 0.6261 0.7027 -0.3380
vn -0.1522 -0.9333 -0.3252
vn 0.9173 0.0909 -0.3877
vn 0.8484 -0.1603 -0.5044
vn 0.3945 0.8772 -0.2736
vn 0.5005 -0.7767 0.3823
vn -0.8058 0.1192 -0.5800
vn -0.0011 0.9724 -0.2335
vn 0.9551 0.2929 0.0443
vn 0.0023 -0.8975 -0.4410
vn -0.9418 -0.0261 -0.3350
vn 0.6707 -0.5834 -0.4581
vn -0.3541 0.9112 -0.2103
vn -0.7499 -0.1600 -0.6419
vn 0.8188 0.0182 -0.5738
vn 0.5481 -0.7103 -0.4417
vn -0.9262 0.0801 -0.3685
vn -0.0656 -0.9141 -0.4002
vn 0.7022 0.5437 -0.4597
vn -0.6434 0.6326 -0.4312
vn 0.7311 -0.6726 -0.1144
vn -0.2760 0.8588 -0.4316
vn 0.6303 -0.4907 -0.6016
vn 0.1433 0.0894 0.9856
vn 0.1761 0.0728 0.9817
vn 0.0128 0.0288 0.9995
vn 0.0343 0.0319 0.9989
vn 0.0198 0.0124 0.9997
vn 0.0333 -0.0000 0.9994
vn -0.1104 -0.7911 -0.6016
vn -0.2265 0.3615 -0.9044
vn 0.7412 -0.5471 -0.3890
vn -0.8543 0.3961 -0.3365
vn 0.6001 0.6735 -0.4317
vn -0.1202 -0.8286 -0.5467
vn 0.7531 -0.5559 -0.3520
vn -0.8370 0.3881 -0.3857
vn 0.6260 0.7026 -0.3384
vn 0.7424 -0.5480 -0.3855
vn -0.8492 0.3937 -0.3519
vn 0.6220 0.6981 -0.3546
vn 0.7353 -0.5428 -0.4058
vn -0.7633 0.3539 -0.5404
vn 0.6081 0.6824 -0.4057
vn 0.7632 -0.5634 -0.3165
vn 0.6179 0.6934 -0.3707
vn 0.7589 -0.5602 -0.3320
vn 0.5496 0.6168 -0.5634
vn 0.7439 -0.5492 -0.3808
vn 0.7545 -0.5569 -0.3473
vn 0.6799 -0.5019 -0.5346
vn -0.0732 -0.0425 0.9964
vn 0.0186 -0.0002 0.9998
vn 0.0184 -0.0003 0.9998
vn -0.3154 -0.0130 0.9489
vn -0.0284 -0.0496 0.9984
vn -0.1273 0.1338 0.9828
vn 0.4079 0.8086 -0.4241
vn -0.4810 0.8631 -0.1543
vn 0.9413 -0.0315 -0.3361
vn 0.9414 -0.0316 -0.3359
vn 0.9413 -0.0314 -0.3361
vn 0.5131 -0.8385 0.1837
vn -0.3510 -0.7658 -0.5388
vn 0.7212 0.4724 -0.5066
vn 0.7649 -0.5038 -0.4013
vn 0.7496 -0.5533 -0.3632
vn 0.6165 0.6919 -0.3756
vn -0.8339 0.3866 -0.3940
vn 0.3436 -0.7231 -0.5993
vn 0.2251 0.5813 -0.7819
vn -0.5174 0.1464 -0.8431
vn -0.1158 -0.8473 -0.5183
vn -0.3856 0.6781 -0.6257
vn 0.6220 0.6981 -0.3547
vn 0.7589 -0.5602 -0.3319
vn -0.0228 0.0640 0.9977
vn -0.4482 0.2563 0.8564
vn -0.0398 -0.0264 0.9989
vn -0.1040 0.1793 0.9783
vn 0.3642 0.7583 0.5407
vn -0.3626 0.7211 -0.5903
vn 0.5539 -0.8302 0.0630
vn -0.3732 -0.7844 -0.4954
vn 0.0666 0.1027 0.9925
vn 0.4064 0.6271 -0.6646
vn 0.7477 -0.4218 -0.5129
vn -0.6459 0.5996 -0.4725
vn 0.5555 -0.3588 -0.7501
vn 0.1500 -0.0969 0.9839
vn -0.8389 0.5417 -0.0532
vn -0.4130 0.9103 -0.0294
vn -0.8532 -0.5197 -0.0450
vn 0.0209 0.6054 -0.7957
vn -0.0292 -0.8444 -0.5349
vn -0.9382 -0.1113 -0.3277
vn 0.8780 -0.0887 -0.4703
vn 0.4068 -0.9134 0.0155
vn -0.7775 -0.6270 -0.0482
vn 0.1133 -0.9921 -0.0545
vn 0.4240 0.4148 -0.8051
vn -0.1347 0.9907 -0.0203
vn 0.7623 0.6448 -0.0560
vn 0.2539 -0.1640 0.9532
vn 0.1623 -0.1048 0.9812
vn 0.3300 -0.2132 0.9196
vn 0.9054 -0.2539 -0.3403
vn 0.9123 -0.2558 -0.3198
vn 0.9382 -0.1539 -0.3101
vn -0.7921 -0.0794 -0.6052
vn -0.9023 -0.0904 -0.4215
vn -0.9447 -0.1122 -0.3083
vn -0.7090 0.3287 -0.6240
vn -0.1114 -0.7684 -0.6302
vn 0.5075 0.5695 -0.6466
vn 0.6324 -0.4668 -0.6182
vn 0.5074 0.5695 -0.6466
vn 0.0938 -0.7758 -0.6240
vn 0.7119 0.3098 -0.6302
vn -0.7513 0.1316 -0.6466
vn 0.0640 0.7834 -0.6182
vn -0.7513 0.1316 -0.6467
vn -0.0600 -0.5819 -0.8111
vn 0.1848 0.0997 0.9777
vn -0.2134 0.9166 -0.3380
vn 0.6763 0.1695 -0.7168
vn -0.8339 0.0031 -0.5520
vn 0.7746 -0.4352 -0.4589
vn -0.6427 0.5963 -0.4810
vn 0.5554 -0.3588 -0.7502
vn -0.8389 0.5418 -0.0530
vn -0.4183 0.9054 -0.0733
vn -0.8136 -0.4269 -0.3947
vn -0.9359 -0.0938 -0.3395
vn 0.7839 -0.2198 -0.5806
vn 0.4009 -0.9158 -0.0250
vn -0.7771 -0.6280 -0.0416
vn 0.1001 -0.9898 -0.1011
vn 0.8298 0.5493 -0.0981
vn -0.1356 0.9905 -0.0238
vn 0.7636 0.6440 -0.0468
vn 0.3301 -0.2132 0.9196
vn 0.9047 -0.2771 -0.3237
vn 0.9128 -0.2791 -0.2981
vn 0.8805 -0.2469 -0.4047
vn -0.8719 0.0778 -0.4834
vn -0.9484 0.0209 -0.3162
vn -0.9412 -0.0943 -0.3243
vn -0.0245 -0.7425 -0.6694
vn 0.1692 0.0895 0.9815
vn -0.2835 0.7777 -0.5610
vn 0.8919 0.2289 -0.3901
vn -0.7180 -0.0138 -0.6959
vn -0.5542 -0.1983 -0.8084
vn 0.7899 0.2826 -0.5443
vn 0.4493 -0.8284 -0.3344
vn -0.2447 0.8411 -0.4825
vn -0.0981 0.9325 -0.3477
vn -0.0989 0.9401 -0.3263
vn -0.2050 0.9264 -0.3160
vn 0.3601 -0.6950 -0.6223
vn 0.4151 -0.8011 -0.4312
vn 0.4528 -0.8345 -0.3139
vn 0.4315 -0.8327 -0.3469
vn -0.0839 0.7972 -0.5978
vn -0.0757 0.9409 -0.3303
vn -0.0770 0.9497 -0.3036
vn -0.0952 0.9051 -0.4143
vn 0.2429 -0.8340 -0.4955
vn 0.3281 -0.8880 -0.3221
vn 0.4342 -0.8379 -0.3308
vn -0.2771 -0.3637 -0.8894
vn 0.4807 0.6308 -0.6091
vn 0.8138 -0.4372 -0.3829
vn -0.6450 0.5040 -0.5744
vn -0.5767 0.7115 -0.4014
vn -0.5840 0.7210 -0.3730
vn -0.6763 0.6432 -0.3589
vn 0.5755 -0.3271 -0.7495
vn 0.7503 -0.4265 -0.5051
vn 0.8233 -0.4428 -0.3551
vn -0.2757 -0.3626 -0.8903
vn 0.4812 0.6308 -0.6087
vn 0.7968 -0.4527 -0.4002
vn -0.4319 0.5337 -0.7270
vn -0.5614 0.7361 -0.3782
vn -0.5704 0.7460 -0.3437
vn -0.5497 0.6791 -0.4865
vn 0.5860 -0.5595 -0.5861
vn 0.7362 -0.5698 -0.3650
vn 0.8049 -0.4574 -0.3780
vn 0.7119 0.3098 -0.6303
vn -0.7514 0.1316 -0.6466
vn -0.4734 0.8160 0.3316
vn -0.4339 -0.7578 0.4874
vn 0.3025 -0.1049 -0.9474
vn 0.3497 -0.0835 -0.9331
vn 0.3517 -0.0821 -0.9325
vn 0.1119 -0.4773 0.8716
vn 0.2270 -0.3916 0.8917
vn 0.2034 -0.3867 0.8995
vn 0.1777 -0.0781 -0.9810
vn 0.1882 0.0236 -0.9818
vn 0.1875 -0.0016 -0.9823
vn 0.1550 0.1909 -0.9693
vn -0.1353 0.1050 -0.9852
vn 0.1179 0.1917 -0.9743
vn -0.5558 0.4446 0.7024
vn -0.8151 0.4050 0.4143
vn -0.5333 0.4703 0.7032
vn -0.3183 0.9134 -0.2539
vn -0.1417 -0.4010 -0.9051
vn -0.0687 -0.4525 -0.8891
vn -0.0856 -0.4423 -0.8928
vn -0.3561 -0.4832 0.7998
vn -0.1756 -0.7619 0.6235
vn -0.3385 -0.4611 0.8203
vn -0.2672 -0.9275 -0.2616
vn 0.5142 0.8353 -0.1945
vn 0.2082 0.8507 -0.4826
vn 0.5510 0.8119 -0.1928
vn -0.1296 0.4877 -0.8634
vn -0.2409 0.4404 -0.8649
vn -0.2147 0.4507 -0.8665
vn 0.5777 -0.3520 -0.7364
vn 0.5676 -0.3604 -0.7403
vn 0.3207 -0.3310 -0.8874
vn 0.4055 -0.8092 0.4252
vn 0.3418 -0.8375 0.4263
vn 0.2243 -0.9596 0.1696
vn 0.0452 0.1662 -0.9850
vn 0.1056 0.1412 -0.9843
vn 0.1039 0.1524 -0.9828
vn -0.4748 0.0573 0.8782
vn -0.3830 0.1069 0.9175
vn -0.3659 0.1154 0.9235
vn -0.6038 0.0301 0.7965
vn -0.6011 0.0887 0.7942
vn -0.7493 0.3023 0.5892
vn -0.3355 -0.8301 -0.4455
vn -0.3477 -0.8226 -0.4500
vn -0.4412 -0.6287 -0.6403
vn -0.1943 -0.3648 0.9106
vn -0.2545 -0.2881 0.9232
vn -0.2708 -0.3109 0.9111
vn 0.1781 0.7813 0.5982
vn 0.2928 0.6963 0.6553
vn 0.3210 0.6834 0.6557
vn -0.0328 0.1877 -0.9817
vn -0.0187 0.1859 -0.9824
vn 0.2799 0.1104 -0.9537
vn 0.5882 0.7195 -0.3692
vn 0.0255 0.9996 0.0091
vn -0.1048 -0.8127 0.5732
vn -0.6322 0.6293 -0.4519
vn 0.1442 0.3168 -0.9375
vn 0.2481 -0.9564 -0.1538
vn 0.8213 -0.5644 0.0830
vn -0.5708 0.6735 0.4698
vn 0.8290 0.0457 -0.5573
vn 0.1032 -0.5265 -0.8439
vn 0.1425 0.9069 -0.3965
vn -0.4991 0.8654 -0.0432
vn 0.3097 -0.7266 0.6133
vn -0.8478 0.1899 -0.4952
vn -0.0025 0.3114 -0.9503
vn 0.0234 0.4839 -0.8748
vn -0.7895 0.0656 -0.6102
vn -0.0127 -0.0192 0.9997
vn -0.2189 -0.6932 -0.6867
vn 0.9179 -0.0542 -0.3932
vn 0.4971 0.7692 -0.4015
vn -0.3425 0.5341 -0.7729
vn -0.0559 -0.0028 0.9984
vn 0.0244 0.0461 0.9986
vn -0.6258 -0.7277 -0.2807
vn 0.2302 -0.4806 -0.8462
vn 0.5708 -0.6735 -0.4698
vn -0.1463 -0.9879 -0.0519
vn -0.1073 0.8346 -0.5403
vn -0.2295 0.9602 0.1589
vn 0.6958 0.3470 0.6288
vn 0.6596 -0.4646 0.5908
vn -0.1708 0.7070 0.6862
vn -0.1938 0.7260 0.6598
vn -0.7933 0.5922 -0.1411
vn 0.6389 0.3505 -0.6848
vn 0.6335 0.4369 -0.6386
vn 0.3703 0.3800 0.8476
vn -0.7087 0.2040 -0.6754
vn -0.3124 -0.5700 -0.7599
vn 0.0145 0.0221 0.9997
vn 0.0127 0.0231 0.9997
vn 0.7649 -0.2806 -0.5798
vn 0.3372 0.5054 -0.7943
vn -0.2289 0.9192 -0.3206
vn -0.6266 -0.1848 -0.7571
vn 0.0264 0.0016 0.9996
vn 0.0255 0.0075 0.9996
vn 0.2086 -0.9453 -0.2508
vn 0.6086 0.0272 -0.7930
vn -0.0485 0.9822 -0.1815
vn -0.6418 -0.1582 -0.7504
vn 0.0264 -0.0044 0.9996
vn 0.0264 0.0065 0.9996
vn 0.0343 -0.9896 -0.1397
vn 0.6053 -0.1022 -0.7894
vn -0.3372 0.9238 -0.1815
vn -0.5661 -0.3412 -0.7504
vn 0.0265 0.0036 0.9996
vn 0.0233 0.0140 0.9996
vn 0.3259 -0.9350 -0.1397
vn 0.6085 0.0816 -0.7894
vn 0.3993 0.8987 -0.1815
vn -0.6442 0.1480 -0.7504
vn 0.0215 -0.0159 0.9996
vn 0.0265 -0.0061 0.9996
vn -0.4153 -0.8989 -0.1397
vn 0.4943 -0.3641 -0.7894
vn 0.7144 0.6758 -0.1815
vn -0.5377 0.3845 -0.7504
vn 0.0138 -0.0229 0.9996
vn 0.0221 -0.0158 0.9996
vn -0.7292 -0.6699 -0.1397
vn 0.3162 -0.5262 -0.7894
vn 0.8997 0.3970 -0.1815
vn -0.3775 0.5426 -0.7504
vn 0.0053 -0.0262 0.9996
vn 0.0155 -0.0223 0.9996
vn -0.9117 -0.3865 -0.1397
vn 0.1213 -0.6018 -0.7894
vn 0.9821 -0.0503 -0.1816
vn -0.0930 0.6544 -0.7504
vn -0.0071 -0.0258 0.9996
vn 0.0038 -0.0269 0.9996
vn -0.9880 0.0651 -0.1397
vn -0.1624 -0.5920 -0.7894
vn 0.8185 -0.5451 -0.1815
vn 0.2545 0.6100 -0.7504
vn -0.0193 -0.0186 0.9996
vn -0.0105 -0.0251 0.9996
vn -0.8160 0.5609 -0.1398
vn -0.4422 -0.4259 -0.7894
vn -0.8160 0.5609 -0.1397
vn 0.4228 -0.8879 -0.1815
vn 0.5315 0.3930 -0.7504
vn -0.0260 -0.0060 0.9996
vn -0.0218 -0.0162 0.9996
vn -0.4126 0.9001 -0.1397
vn -0.5981 -0.1387 -0.7894
vn -0.0529 -0.9820 -0.1815
vn 0.6547 0.0913 -0.7504
vn -0.0258 0.0071 0.9996
vn -0.0269 -0.0038 0.9996
vn 0.0677 0.9879 -0.1397
vn -0.5916 0.1640 -0.7894
vn -0.5723 -0.7997 -0.1815
vn 0.6011 -0.2748 -0.7504
vn -0.0179 0.0199 0.9996
vn -0.0247 0.0113 0.9996
vn 0.5880 0.7967 -0.1397
vn -0.4108 0.4562 -0.7894
vn -0.8198 -0.5431 -0.1815
vn 0.4636 -0.4711 -0.7504
vn -0.0096 0.0249 0.9996
vn -0.0191 0.0194 0.9996
vn 0.8334 0.5347 -0.1397
vn -0.2211 0.5727 -0.7894
vn -0.9708 -0.1566 -0.1815
vn 0.2281 -0.6204 -0.7504
vn 0.0015 0.0267 0.9996
vn -0.0094 0.0255 0.9996
vn 0.9798 0.1434 -0.1397
vn 0.0348 0.6129 -0.7894
vn 0.7665 0.5918 -0.2494
vn -0.4209 0.7465 -0.5153
vn 0.0552 -0.9985 -0.0006
vn 0.8064 -0.2032 -0.5554
vn 0.1032 -0.5264 -0.8439
vn 0.3560 0.8955 -0.2671
vn -0.4992 0.8654 -0.0432
vn -0.7259 0.3978 -0.5611
vn 0.0274 0.4436 -0.8958
vn -0.1085 -0.4281 -0.8972
vn 0.9178 -0.0542 -0.3932
vn 0.2984 0.5018 -0.8119
vn -0.3758 -0.4002 -0.8358
vn 0.3047 -0.5535 -0.7751
vn -0.1490 -0.9882 0.0342
vn -0.6450 0.1766 -0.7435
vn -0.2009 -0.4842 -0.8516
vn 0.6453 -0.2358 -0.7266
vn 0.3389 0.5148 -0.7875
vn -0.2279 0.8960 -0.3811
vn -0.4679 -0.2977 -0.8322
vn 0.2015 -0.9112 -0.3594
vn 0.6163 0.0382 -0.7866
vn -0.0507 0.9743 -0.2194
vn -0.4803 -0.3872 -0.7870
vn 0.0342 -0.9781 -0.2052
vn 0.6132 -0.1158 -0.7814
vn -0.3370 0.9156 -0.2194
vn -0.3441 -0.5121 -0.7870
vn 0.3223 -0.9241 -0.2052
vn 0.6200 0.0710 -0.7814
vn 0.3937 0.8927 -0.2194
vn -0.6033 -0.1292 -0.7870
vn -0.4103 -0.8886 -0.2052
vn 0.4953 -0.3798 -0.7814
vn 0.7069 0.6724 -0.2194
vn -0.6065 0.1128 -0.7870
vn -0.7206 -0.6623 -0.2052
vn 0.3110 -0.5411 -0.7813
vn 0.8915 0.3963 -0.2194
vn -0.5335 0.3098 -0.7870
vn -0.9010 -0.3822 -0.2052
vn 0.1115 -0.6141 -0.7814
vn 0.9745 -0.0472 -0.2194
vn -0.3371 0.5167 -0.7870
vn -0.9766 0.0641 -0.2053
vn -0.1768 -0.5985 -0.7813
vn 0.8135 -0.5386 -0.2194
vn -0.0257 0.6164 -0.7870
vn -0.8067 0.5542 -0.2052
vn -0.4578 -0.4242 -0.7813
vn 0.4219 -0.8797 -0.2194
vn 0.2942 0.5423 -0.7870
vn -0.4080 0.8896 -0.2052
vn -0.6106 -0.1291 -0.7813
vn -0.0498 -0.9744 -0.2194
vn 0.5176 0.3357 -0.7870
vn 0.0667 0.9764 -0.2052
vn -0.5981 0.1783 -0.7814
vn -0.5656 -0.7950 -0.2194
vn 0.6169 0.0050 -0.7870
vn 0.5809 0.7877 -0.2052
vn -0.4085 0.4718 -0.7813
vn -0.8119 -0.5410 -0.2194
vn 0.5782 -0.2153 -0.7870
vn 0.8236 0.5287 -0.2052
vn -0.2135 0.5865 -0.7813
vn -0.9628 -0.1580 -0.2194
vn 0.4379 -0.4346 -0.7870
vn 0.9684 0.1419 -0.2053
vn 0.0474 0.6223 -0.7814
vn 0.4299 0.8431 -0.3232
vn -0.1740 -0.9231 -0.3430
vn -0.9340 0.1397 -0.3289
vn -0.0000 -0.0000 -1.0000
vn 0.9453 -0.0000 -0.3262
vn -0.8991 0.3226 -0.2960
vn 0.9404 -0.0821 -0.3299
vn 0.1601 -0.9307 -0.3289
vn -0.2963 0.8977 -0.3262
vn -0.7451 -0.5778 -0.3333
vn 0.5391 0.7688 -0.3440
vn 0.7271 -0.6026 -0.3289
vn -0.8091 0.4889 -0.3262
vn 0.1173 -0.9320 -0.3430
vn -0.3710 0.8648 -0.3385
vn 0.9319 0.1531 -0.3289
vn -0.8999 -0.2895 -0.3262
vn 0.8415 -0.4188 -0.3412
vn -0.9260 0.1987 -0.3211
vn 0.5713 0.7519 -0.3289
vn -0.4543 -0.8290 -0.3262
vn 0.8575 0.3825 -0.3441
vn -0.7558 -0.5606 -0.3382
vn -0.3607 0.8728 -0.3289
vn 0.4863 -0.8106 -0.3262
vn 0.1693 0.9239 -0.3432
vn 0.0387 -0.9392 -0.3412
vn -0.6234 0.7023 -0.3437
vn 0.7508 -0.5696 -0.3345
vn -0.7686 -0.5487 -0.3289
vn 0.6796 0.6571 -0.3262
vn -0.9391 0.0681 -0.3370
vn 0.9299 0.1301 -0.3442
vn 0.0912 -0.9399 -0.3289
vn -0.2295 0.9170 -0.3262
vn -0.6335 -0.6995 -0.3307
vn 0.4600 0.8189 -0.3433
vn 0.8345 -0.4420 -0.3289
vn -0.8917 0.3139 -0.3262
vn 0.1232 -0.9391 -0.3209
vn -0.3391 0.8769 -0.3406
vn 0.8405 0.4305 -0.3289
vn -0.7684 -0.5507 -0.3262
vn 0.8746 -0.3417 -0.3439
vn -0.0658 0.9139 -0.4007
vn 0.3126 0.8728 -0.3748
vn -0.2798 -0.9175 -0.2828
vn 0.4762 -0.1388 -0.8683
vn 0.3234 0.7232 -0.6102
vn -0.0230 -0.0030 0.9997
vn -0.5123 0.4852 -0.7086
vn -0.3552 -0.8481 -0.3932
vn 0.4141 -0.1306 -0.9008
vn -0.3510 0.3026 -0.8862
vn -1.0000 -0.0000 -0.0000
vn -0.0700 -0.9716 -0.2259
vn -0.8458 -0.5148 -0.1397
vn -0.1788 -0.0000 0.9839
vn -0.4260 -0.0000 -0.9047
vn -0.8310 0.4953 -0.2535
vn -0.9871 -0.0337 0.1565
vn -0.0050 0.9939 0.1100
vn 0.6292 0.7753 -0.0545
vn 0.5815 0.7640 -0.2796
vn -0.4057 0.9130 0.0431
vn -0.0638 0.0168 -0.9978
vn -0.2301 -0.9264 -0.2982
vn 0.1808 0.0614 0.9816
vn -0.8800 0.4002 -0.2559
vn 0.5465 0.6287 -0.5533
vn 0.6447 -0.6038 -0.4688
vn -0.8799 0.4002 -0.2560
vn 0.5465 0.6287 -0.5532
vn 0.6447 -0.6038 -0.4689
vt -12.568724 0.920066
vt -12.638429 5.413098
vt -12.635835 0.958845
vt -9.442247 -9.846120
vt -9.342429 -11.012498
vt -9.342429 -9.801676
vt 2.276885 -7.330550
vt 1.506898 -5.513691
vt 1.404931 -5.564966
vt 1.506898 -9.646705
vt 2.399015 -7.320098
vt -11.384903 14.047581
vt -12.749667 7.817191
vt -12.646474 7.822627
vt -11.780785 5.421328
vt -11.840142 1.093251
vt -11.684833 5.479183
vt -1.070298 -6.673991
vt -0.847156 -7.755340
vt -0.968585 -6.647397
vt -12.393131 -0.095458
vt -12.288945 5.432022
vt -12.393131 5.479183
vt 0.282484 5.847685
vt -0.415088 5.779932
vt -0.312309 3.168494
vt 0.379667 3.228206
vt -0.469398 -8.847532
vt -0.952361 -7.771164
vt -12.860546 4.483865
vt -12.967638 6.844629
vt -13.073586 6.818023
vt -8.448813 -11.782583
vt -8.359999 -9.815299
vt -8.441101 -9.801682
vt -11.597837 5.479180
vt -11.418159 4.761759
vt -11.323152 4.762139
vt -11.323152 15.019906
vt -11.471568 14.149471
vt -7.400509 -10.526245
vt -7.490307 -10.971932
vt -7.392164 -10.936960
vt -0.515097 -5.513691
vt -0.391659 -5.521728
vt -11.407508 5.479183
vt -11.323152 5.518692
vt 5.165505 -9.781153
vt 5.265293 -11.430426
vt 5.265293 -9.706150
vt -11.931803 1.046951
vt -11.684833 0.694056
vt -13.413230 8.207698
vt -13.317494 8.259277
vt -1.847087 -10.423912
vt -1.944595 -10.975006
vt -1.847087 -11.003292
vt 0.555987 2.202182
vt 1.455416 2.134676
vt 1.534133 2.197940
vt 3.017037 -10.538943
vt 2.924146 -11.006562
vt 3.017037 -10.970853
vt 0.683903 -10.887680
vt 0.774574 -10.512327
vt 0.683903 -10.554326
vt -9.987167 -10.472629
vt -9.813327 -10.287839
vt -9.907796 -10.283572
vt -7.961815 -10.974906
vt -7.869081 -10.445674
vt -7.961815 -10.479983
vt -10.252391 -10.544193
vt -10.302068 -10.962790
vt -10.253163 -10.951942
vt -12.695466 -0.036063
vt -12.728706 5.479180
vt -12.728707 -0.046193
vt -9.987164 -9.844885
vt -10.153902 -10.164287
vt -10.064074 -10.165565
vt -1.004401 -11.044179
vt -0.912668 -10.383186
vt -1.004401 -10.437320
vt -2.149323 -10.296090
vt -2.164942 -10.628354
vt -2.083748 -10.570938
vt -8.050557 -10.966004
vt -7.961810 -10.445669
vt -8.050557 -10.471284
vt -9.906668 -9.801680
vt -9.987167 -9.870173
vt 0.774572 -10.469878
vt 0.943519 -10.280138
vt 0.853944 -10.280822
vt -7.613793 -10.541618
vt -7.490305 -10.742869
vt -7.539392 -10.487210
vt -3.771415 -10.787211
vt -3.686082 -10.517804
vt -3.771415 -10.547187
vt -5.668024 -10.553359
vt -5.585935 -10.848102
vt -5.585935 -10.515977
vt 0.823900 -10.807373
vt 0.943518 -10.728140
vt 0.857794 -10.726643
vt -7.141954 -10.546709
vt -7.021520 -10.725565
vt -7.067193 -10.487684
vt -4.977832 -10.755642
vt -4.893843 -10.517798
vt -4.977832 -10.544294
vt 2.423663 -10.072459
vt 2.508948 -10.379461
vt 2.508948 -10.023205
vt -5.905682 -10.560357
vt -5.787476 -10.736964
vt -5.831437 -10.508000
vt -4.724269 -10.758840
vt -4.638793 -10.517799
vt -4.724269 -10.547492
vt -5.196465 -10.562404
vt -5.111939 -10.901651
vt -5.111939 -10.515977
vt -6.140596 -10.558329
vt -6.023070 -10.734249
vt -6.066510 -10.508000
vt -4.893843 -10.756596
vt -4.809408 -10.517798
vt -4.893843 -10.545249
vt -3.700329 -10.597969
vt -3.602764 -10.859195
vt -3.602764 -10.517804
vt -6.900690 -10.550293
vt -6.779054 -10.730365
vt -6.825649 -10.487681
vt -5.585933 -10.562881
vt -5.501280 -10.867465
vt -5.501280 -10.515972
vt -7.301999 -10.546902
vt -7.176740 -10.749937
vt -7.227185 -10.487213
vt -3.602762 -10.561231
vt -3.519046 -10.862215
vt -3.519045 -10.517801
vt -5.787476 -10.563047
vt -5.696063 -10.780010
vt -5.741016 -10.545872
vt -7.021517 -10.547874
vt -6.900694 -10.727125
vt -6.946666 -10.487688
vt 0.823900 -10.550106
vt 0.898472 -10.493522
vt 0.486239 -8.895240
vt 0.118934 -13.283758
vt 0.538933 -8.898100
vt -12.749667 1.035812
vt -12.749667 4.456498
vt -12.818125 4.453185
vt -12.490519 -0.694391
vt -12.568721 5.444107
vt -12.548192 -0.729812
vt -5.966815 1.604205
vt -7.400940 -0.773969
vt -4.650057 0.060186
vt -6.883278 1.694954
vt -8.395187 1.874306
vt 2.001969 -1.202183
vt 1.977948 -0.000715
vt -6.989289 2.263181
vt -7.315811 4.116906
vt -6.593086 13.555778
vt -8.374383 15.062591
vt -7.788961 12.939013
vt -5.568918 13.153614
vt -5.129840 15.119998
vt -4.412577 4.093290
vt -6.056718 4.939587
vt -11.065134 8.842764
vt -9.402257 8.538650
vt -11.323150 7.763488
vt -9.642054 7.392581
vt -9.223207 8.144060
vt -9.332903 7.664384
vt -3.746995 6.862841
vt 0.593974 2.127605
vt -1.050912 -1.202183
vt -5.430649 4.868152
vt -3.849390 6.381906
vt -10.153902 -10.512831
vt -10.252395 -10.880773
vt -10.153902 -10.913764
vt -7.710767 -9.953701
vt -8.211965 -10.445672
vt -7.785197 -10.318192
vt -8.211965 -9.801676
vt -7.710766 -10.324701
vt -7.176743 -9.801680
vt -7.631463 -9.936807
vt -7.176743 -10.487213
vt -5.668369 -10.346646
vt -5.111937 -9.801676
vt -5.585737 -9.942470
vt -5.111935 -10.515977
vt -6.641075 -9.962945
vt -7.176740 -10.487684
vt -6.720623 -10.351311
vt -7.176739 -9.801676
vt -5.668370 -9.967872
vt -6.218123 -10.508000
vt -5.750010 -10.367713
vt -6.218123 -9.801679
vt 0.853937 -9.813560
vt 0.774572 -9.867418
vt -7.392162 -10.986959
vt -7.301999 -10.487210
vt -7.392162 -10.531261
vt -1.492282 -11.059347
vt -1.404356 -10.412489
vt -1.492282 -10.452481
vt -10.066938 -10.537437
vt -9.987164 -10.495563
vt -9.093905 -10.472010
vt -8.891712 -10.099062
vt -8.987609 -10.102609
vt -2.083748 -10.006853
vt -2.243840 -10.297668
vt -7.613797 -10.533197
vt -7.705486 -10.967582
vt -7.613797 -10.932457
vt -8.139054 -10.965803
vt -8.050558 -10.445674
vt -8.139054 -10.470881
vt -1.316259 -10.451581
vt -1.404354 -11.099258
vt -1.316259 -11.058934
vt -9.015273 -9.801680
vt -9.093905 -9.846768
vt -12.568721 5.479180
vt -9.430243 -11.058454
vt 1.404931 -9.604570
vt -12.292031 -0.169437
vt -0.391659 -8.782817
vt -12.749667 4.456498
vt -8.359999 -11.819656
vt -11.684834 5.457894
vt -11.405511 15.119998
vt -7.490307 -10.487213
vt 5.154352 -11.372475
vt -11.776493 0.647756
vt -1.944595 -10.412520
vt 2.924146 -10.486913
vt 0.774574 -10.899814
vt -9.906668 -10.510170
vt -7.869081 -11.027705
vt -10.066938 -9.801679
vt -0.912668 -11.096859
vt -7.961810 -11.005081
vt 0.853937 -10.493519
vt -10.235478 -10.500446
vt -7.301999 -11.016901
vt -1.404356 -11.097420
vt -9.015273 -10.528442
vt -2.164942 -9.949671
vt -7.705489 -10.487213
vt -8.050558 -11.004265
vt -1.404354 -10.412485
vt -14.358572 -8.651006
vt -10.837950 -13.987575
vt -13.814582 -8.632903
vt -11.312666 -14.005732
vt -13.748565 -3.672003
vt -14.039504 -3.556326
vt -12.066607 -0.773971
vt -10.837945 -1.610235
vt 0.064634 -5.579031
vt 0.110954 -5.513691
vt 4.242670 -8.211213
vt 4.337092 -12.786838
vt 4.337092 -8.199230
vt 3.230906 1.400415
vt 2.600325 0.782334
vt 3.137263 0.942616
vt 2.600325 1.591144
vt 3.826248 2.150602
vt 3.230905 1.567058
vt 3.737836 1.718382
vt 3.230905 2.330672
vt 4.396668 1.325307
vt 3.842713 0.782334
vt 4.314402 0.923139
vt 3.842713 1.492858
vt 3.764089 2.853287
vt 3.230907 2.330673
vt 3.684913 2.466200
vt 3.230907 3.014557
vt 4.899460 2.798647
vt 4.372602 2.282232
vt 4.821222 2.416150
vt 4.372602 2.958000
vt 3.165459 2.145078
vt 3.081534 1.734789
vt 2.600325 2.316009
vt 3.842714 1.382010
vt 3.230906 0.782334
vt 3.751858 0.937842
vt 3.230906 1.567059
vt 3.141884 2.846828
vt 2.600325 3.010629
vt 2.600328 2.316008
vt 3.826251 1.735705
vt 4.383829 2.282232
vt 3.909052 2.140503
vt 4.383826 1.567058
vt 4.372600 2.817755
vt 3.826249 2.282233
vt 4.291464 2.421101
vt 3.826249 2.983007
vt -7.021517 -10.805141
vt -6.987625 -10.724411
vt -9.986688 -10.549509
vt -9.904072 -10.846277
vt -9.904068 -10.510166
vt -4.638793 -10.760352
vt -4.552612 -10.517801
vt -4.638792 -10.549006
vt -3.855219 -10.725873
vt -3.946284 -10.517801
vt -3.946284 -10.793536
vt -5.787476 -10.820316
vt -5.753583 -10.739582
vt -3.519046 -10.563589
vt -3.434695 -10.867012
vt -3.434695 -10.517804
vt 3.385356 -10.754457
vt 3.467979 -10.519547
vt 3.385356 -10.543107
vt -7.301999 -10.839081
vt -7.263505 -10.747392
vt -5.279614 -10.557295
vt -5.196462 -10.891273
vt -5.196462 -10.515977
vt 3.467982 -10.755715
vt 3.551192 -10.519547
vt 3.467982 -10.544368
vt -6.900690 -10.807566
vt -6.866794 -10.726830
vt -9.904072 -10.579710
vt -9.813324 -10.907678
vt -9.813324 -10.510166
vt -4.809408 -10.758116
vt -4.724267 -10.517798
vt -4.809408 -10.546767
vt -6.140596 -10.815598
vt -6.106702 -10.734863
vt -3.855217 -10.783921
vt -3.771413 -10.517799
vt -3.855217 -10.543897
vt -5.905682 -10.817626
vt -5.871788 -10.736895
vt -5.501282 -10.771591
vt -5.409023 -10.515979
vt -5.501280 -10.560244
vt -7.141954 -10.803978
vt -7.108060 -10.723243
vt -7.613793 -10.833794
vt -7.575303 -10.742107
vt 3.385355 -10.588267
vt 3.324434 -10.736804
vt 3.385356 -10.729904
vt 15.775989 0.830623
vt 7.157282 -4.940257
vt 16.675751 0.385641
vt -1.094983 1.012504
vt 7.122642 -3.854040
vt -1.192840 10.943386
vt -2.332050 0.669654
vt -1.308582 1.152821
vt 16.590794 11.172204
vt 15.788421 10.721340
vt 7.370884 16.522528
vt -1.983198 11.724468
vt 7.100248 -5.124752
vt 16.885004 0.196519
vt 16.885004 11.332913
vt -2.184731 0.389146
vt 0.379752 -3.631971
vt -0.167751 8.511964
vt -0.167752 -3.861447
vt 26.823799 16.158669
vt 16.885004 15.460337
vt 27.105900 16.051014
vt -10.302068 -10.500449
vt -2.398547 -8.298083
vt -2.398547 -12.119196
vt -2.355409 -12.101413
vt -3.686082 -10.832338
vt -5.668024 -10.812508
vt 0.898472 -10.835435
vt -4.893843 -10.796216
vt 2.423663 -10.331607
vt -4.638793 -10.804453
vt -5.196465 -10.856713
vt -4.809408 -10.798682
vt -3.700329 -10.858873
vt -5.585933 -10.822032
vt -3.602762 -10.820379
vt 0.064634 -13.277931
vt 4.396978 -13.019865
vt 4.454319 -13.071652
vt 4.454319 -9.665732
vt -12.490519 5.479180
vt -12.638433 1.145943
vt -12.638433 5.479183
vt -12.695473 5.434809
vt -6.946666 -10.836626
vt -9.986688 -10.808659
vt -4.552612 -10.808342
vt -3.855219 -10.546114
vt -5.741016 -10.887085
vt -3.519046 -10.822740
vt 3.467979 -10.790409
vt -7.227183 -10.870089
vt -5.279614 -10.851611
vt 3.551192 -10.793658
vt -6.825649 -10.841350
vt -9.904072 -10.838860
vt -4.724267 -10.802590
vt -6.066510 -10.837716
vt -3.771413 -10.823869
vt -5.831435 -10.841668
vt -5.409023 -10.840162
vt -7.067193 -10.834356
vt -7.539392 -10.859785
vt 3.324434 -10.519547
vt 7.362613 15.643398
vt 27.105904 -5.124753
vt 27.368031 -5.087658
vt 27.105904 4.063775
vt -2.288590 11.582710
vt 17.226658 15.883131
vt 5.412439 -8.199230
vt 4.235587 -5.513694
vt 4.586476 -8.199230
vt -2.665130 -5.922572
vt -2.017162 -5.513695
vt -2.737638 -5.894617
vt -2.017162 -8.177641
vt -2.094996 -8.298086
vt 4.656859 -9.789733
vt 4.554179 -12.350211
vt 4.619626 -12.313012
vt -9.752313 -11.811011
vt -9.813327 -11.779763
vt -9.752181 -11.816895
vt 7.187905 -9.106986
vt 6.147995 -10.783690
vt 7.230271 -9.113532
vt -2.720734 -9.683825
vt -2.735960 -9.646867
vt -2.747620 -9.672602
vt -2.750146 -11.190793
vt -2.710416 -11.207695
vt 0.058732 -10.518734
vt -0.356901 -9.309656
vt -0.386492 -9.312750
vt 3.238390 -9.787893
vt 3.551191 -10.519547
vt 3.551192 -9.693848
vt -2.270452 -9.575987
vt -1.316258 -9.949673
vt -1.380683 -9.575987
vt -2.083747 -10.018770
vt -1.847090 -10.412520
vt -1.847090 -9.949671
vt -2.625087 -9.527668
vt -2.556011 -9.369823
vt -2.680462 -9.294502
vt 1.575458 -9.931809
vt 1.460056 -10.078053
vt 1.587192 -10.233594
vt 0.036332 -5.519486
vt -0.348294 -7.049601
vt 0.064632 -5.513695
vt -0.391659 -7.056247
vt -0.067647 -8.232035
vt -0.117619 -8.238455
vt -9.752181 -9.801679
vt -9.806421 -11.778156
vt -12.129291 3.785731
vt -12.288949 3.117907
vt -12.259665 3.114293
vt -12.220965 5.471153
vt -12.178705 3.793589
vt 6.101471 -5.518020
vt 7.355099 -6.678808
vt 7.394716 -6.684928
vt 6.666377 -8.188120
vt 1.563040 -11.080434
vt 1.460055 -10.849131
vt 1.413590 -11.188864
vt 1.580983 -10.807909
vt 1.475424 -10.478744
vt 1.599456 -10.535905
vt -2.645449 -8.518177
vt -2.556010 -8.695431
vt -2.398547 -8.298087
vt -2.690645 -8.789762
vt -2.608094 -9.052518
vt -2.737635 -9.062025
vt -1.994663 -8.448615
vt -1.488042 -8.825460
vt -1.530969 -8.448615
vt -2.093760 -8.825460
vt -1.437918 -9.201243
vt -2.185661 -9.201243
vt 0.943517 -9.958890
vt 1.104226 -10.529999
vt 1.104226 -9.813557
vt -10.315149 -10.740732
vt -10.476534 -10.385964
vt -10.476534 -10.882927
vt -4.552612 -10.348760
vt -3.994020 -9.801676
vt -4.469660 -9.943016
vt -3.994020 -10.518747
vt -10.479259 -10.241878
vt -10.315149 -9.801679
vt -10.479259 -9.894389
vt 2.924145 -10.620784
vt 2.801342 -10.878475
vt 2.924143 -10.853657
vt 0.943517 -10.384974
vt -10.315149 -10.445178
vt -10.315149 -10.385964
vt 2.801342 -10.486913
vt -10.315153 -9.935139
vt -10.153898 -10.500444
vt -10.153898 -9.801675
vt -8.670265 -9.977653
vt -8.448814 -10.254064
vt -8.538047 -9.801680
vt -3.434692 -9.970562
vt -3.994019 -10.517799
vt -3.517752 -10.375897
vt -3.994019 -9.801676
vt -10.643271 -10.767762
vt -10.479262 -10.360935
vt -10.643271 -10.435155
vt -8.670265 -10.442498
vt -8.617198 -10.246696
vt -10.315153 -10.350712
vt -10.479262 -10.920190
vt -8.538047 -10.583298
vt 5.265294 -9.792315
vt 5.391925 -11.483486
vt 5.391925 -9.706150
vt 3.069212 -5.513691
vt 4.235587 -8.187709
vt 3.894579 -5.513691
vt -1.390271 -8.087785
vt -2.017160 -8.448612
vt -1.316258 -8.110629
vt -2.017160 -5.656113
vt -1.935168 -5.513690
vt 4.454319 -12.050357
vt 4.554178 -9.665732
vt 4.491105 -9.677378
vt 6.073483 -5.513694
vt -2.027613 -5.585510
vt 4.554179 -9.665731
vt 6.073485 -10.772175
vt -2.710416 -9.661050
vt 0.064632 -10.520031
vt 3.238390 -10.367963
vt -2.348050 -9.949670
vt -2.083747 -10.343928
vt -2.398547 -9.646868
vt 1.413590 -9.646708
vt -12.129291 1.144662
vt -12.263884 5.479180
vt 6.073485 -5.513695
vt 6.619600 -8.180891
vt 5.265294 -11.365008
vt 2.399012 -8.187710
vt -2.010469 -8.386854
vt 4.554178 -12.195164
vt -6.464657 -9.977310
vt -6.469248 -10.713458
vt -6.218123 -10.007833
vt 4.142454 -8.571177
vt 3.202068 -8.187715
vt 3.251200 -8.571178
vt 3.017034 -10.416065
vt 2.786712 -10.023213
vt 2.786712 -10.486918
vt -1.948558 -10.412524
vt -2.048269 -10.594728
vt -1.944598 -10.686329
vt -6.478288 -9.801676
vt -6.641071 -9.820704
vt -7.869081 -10.629976
vt -7.710766 -10.793412
vt -7.710766 -10.445674
vt 2.424725 -10.660992
vt 2.542597 -10.952042
vt 2.536224 -10.582842
vt -5.279614 -10.515977
vt -5.409020 -10.712111
vt -5.279614 -10.753262
vt -9.342434 -10.022122
vt -9.221165 -10.179322
vt -9.206189 -9.801676
vt -9.336456 -10.296207
vt -9.206189 -10.538201
vt -9.233315 -10.787247
vt -9.332111 -10.571310
vt 3.869612 -9.693845
vt 3.352163 -9.326670
vt 3.405144 -9.693848
vt 3.958894 -9.326670
vt 3.300855 -8.952421
vt 4.049847 -8.952421
vt -6.641071 -10.473025
vt 4.235585 -8.187715
vt 3.017035 -10.090301
vt -6.641075 -10.702361
vt -6.779055 -10.487684
vt -6.779055 -10.803194
vt 2.424577 -10.379776
vt 2.424577 -10.942892
vt -6.023073 -10.733340
vt -5.905682 -10.838370
vt -5.905682 -10.508000
vt -2.048269 -10.953285
vt -2.398547 -10.451911
vt -2.710414 -9.748409
vt -2.647272 -10.660515
vt 5.974963 -8.581652
vt 5.040868 -8.199231
vt 5.084488 -8.581648
vt -1.554479 -10.019019
vt -1.316259 -10.412487
vt -1.316258 -9.949674
vt -8.226837 -10.008718
vt -8.336553 -10.203260
vt -8.219600 -10.285887
vt 4.541873 -8.427602
vt 4.467137 -8.597422
vt 4.598431 -8.716084
vt 4.558842 -9.530728
vt 4.489654 -9.336135
vt 4.337092 -9.665729
vt 4.606915 -9.267648
vt 4.532580 -8.979930
vt 4.656859 -9.005017
vt -2.442905 -9.811147
vt -2.398547 -9.646865
vt -8.227592 -10.804939
vt -8.336642 -10.567862
vt -8.360003 -10.895904
vt -8.211965 -10.563694
vt 5.704678 -9.706145
vt 5.183270 -9.336091
vt 5.240616 -9.706145
vt 5.789469 -9.336091
vt 5.131248 -8.961239
vt 5.879587 -8.961243
vt 6.073485 -8.199232
vt -1.554479 -10.344156
vt -8.360003 -9.801679
vt 4.337092 -8.199228
vt -8.242825 -11.046819
vt 0.613321 -9.947020
vt 0.774574 -9.813557
vt -8.891709 -9.977655
vt -8.670264 -10.254064
vt -8.759492 -9.801680
vt -4.552607 -9.970562
vt -5.111937 -10.517799
vt -4.635668 -10.375901
vt -10.643267 -10.208501
vt -10.479258 -9.801676
vt -10.643269 -9.875896
vt -8.891709 -10.442498
vt -8.838643 -10.246699
vt 0.613321 -10.362594
vt -10.479258 -10.360931
vt -8.759492 -10.583301
vt 27.105900 -5.124752
vt -0.353590 -4.970348
vt 0.845816 3.237939
vt -0.353590 3.681177
vt -2.419271 0.528390
vt -1.095420 1.026235
vt -0.536092 -1.753426
vt -0.723973 0.106056
vt -0.670791 -1.316286
vt -1.352381 0.647811
vt -0.536092 0.246169
vt -1.372114 -1.101794
vt -1.189684 0.193646
vt -1.499883 -1.246580
vt -0.508640 2.717308
vt -0.316766 0.729333
vt -0.363961 2.327045
vt 0.493015 0.785550
vt -0.508640 0.647811
vt 0.349930 2.184387
vt 0.293217 0.979334
vt 0.447763 2.330295
vt 0.427701 -1.753427
vt 0.239818 0.106054
vt 0.292999 -1.316287
vt 0.427701 0.246169
vt -0.225893 0.193645
vt -0.408323 -1.101795
vt -0.536090 -1.246580
vt -0.388586 0.647809
vt -0.508640 2.753427
vt -0.644049 1.055073
vt -0.508641 0.647812
vt -1.227478 2.544315
vt -0.561121 2.731663
vt -1.385234 1.266615
vt -1.399142 2.744932
vt -1.499882 1.120585
vt 1.391492 0.647802
vt 1.579371 -1.211681
vt 1.526190 0.210664
vt 2.207776 -1.753427
vt 1.391492 -1.351787
vt 2.227517 -0.003823
vt 2.045084 -1.299273
vt 2.355285 0.140958
vt 3.061463 2.453661
vt 2.070011 0.061847
vt 0.170341 0.000000
vt 0.170341 1.000000
vt -0.000000 0.033375
vt 0.035995 0.918265
vt -0.347249 -0.667241
vt 0.716148 -0.658066
vt 0.222997 0.512552
vt 0.716148 1.980592
vt -0.266665 0.749132
vt -0.458214 -1.253189
vt -0.457410 -1.262415
vt -0.426901 -1.262544
vt -0.497325 -1.212017
vt -0.465759 -1.423031
vt -0.414404 -1.344641
vt -0.450978 -1.322362
vt -0.459885 -1.329554
vt -1.008136 -0.968806
vt -0.887861 -1.772814
vt -0.776365 3.240830
vt -1.043506 3.547344
vt -1.126833 2.695555
vt -0.690573 2.790866
vt -0.319324 2.825922
vt 0.079547 2.773187
vt -0.087884 3.576980
vt -0.320748 3.293151
vt -0.725410 2.391345
vt -0.174883 2.443331
vt -1.048883 1.651003
vt 0.079547 1.589617
vt -0.078255 -2.101862
vt -0.384768 -2.369001
vt 0.467019 -2.452330
vt 0.371709 -2.016071
vt 0.336654 -1.644822
vt 0.389388 -1.245951
vt -0.414404 -1.413383
vt -0.130574 -1.646246
vt 0.771231 -2.050909
vt 0.719246 -1.500381
vt 1.511574 -2.374384
vt 1.572962 -1.245951
vt 0.935455 -0.061601
vt 1.202593 -0.368114
vt 1.285922 0.483672
vt 0.849664 0.388363
vt 0.478414 0.353308
vt 0.079545 0.406042
vt 0.246975 -0.397749
vt 0.479838 -0.113920
vt 0.884502 0.787883
vt 0.333974 0.735900
vt 1.207977 1.528228
vt 0.079545 1.589616
vt -0.270923 -0.061600
vt -0.003784 -0.368113
vt 0.079545 0.483673
vt -0.356714 0.388364
vt -0.727963 0.353308
vt -1.126833 0.406043
vt -0.959403 -0.397748
vt -0.726539 -0.113919
vt -0.321875 0.787885
vt -0.872404 0.735901
vt 0.678203 2.052722
vt 0.293060 2.053173
vt 0.293060 0.813109
vt 1.071364 0.695746
vt 1.909110 -2.101862
vt 1.602597 -2.369001
vt 2.454383 -2.452330
vt 2.359074 -2.016071
vt 2.324018 -1.644822
vt 2.376753 -1.245952
vt 1.572962 -1.413383
vt 1.856791 -1.646246
vt 2.758595 -2.050910
vt 2.706611 -1.500381
vt 1.486038 0.678560
vt 1.867251 0.733438
vt 1.867251 2.285814
vt 1.080161 2.290160
vt 1.909111 -0.895485
vt 1.602598 -1.162624
vt 2.454385 -1.245953
vt 2.359075 -0.809694
vt 2.324020 -0.438444
vt 2.376754 -0.039576
vt 1.572962 -0.207005
vt 1.856791 -0.439868
vt 2.758596 -0.844531
vt 2.706612 -0.294004
vt 1.406038 -0.936300
vt 1.786943 -0.879319
vt 1.867264 0.678560
vt 1.080161 0.678560
vt 1.636395 3.240830
vt 1.369254 3.547342
vt 1.285928 2.695555
vt 1.722188 2.790865
vt 2.093436 2.825922
vt 2.492307 2.773187
vt 2.324875 3.576980
vt 2.092011 3.293151
vt 1.687350 2.391345
vt 2.237877 2.443330
vt -0.894256 0.831889
vt -1.278534 0.806099
vt -1.278534 -0.872238
vt -0.494043 -0.936300
vt 3.224179 0.816334
vt 3.530692 1.083473
vt 2.678906 1.166803
vt 2.774215 0.730544
vt 2.809269 0.359295
vt 2.756534 -0.039575
vt 3.560326 0.127854
vt 3.276498 0.360718
vt 2.374694 0.765383
vt 2.426677 0.214855
vt 0.189784 0.792907
vt -0.191120 0.735926
vt -0.494043 -0.936301
vt 0.293060 -0.936301
vt -1.477300 1.925767
vt -1.210160 1.619254
vt -1.126833 2.471043
vt -1.563093 2.375732
vt -1.934342 2.340676
vt -2.333213 2.393411
vt -2.165781 1.589617
vt -1.932917 1.873447
vt -1.528255 2.775252
vt -2.078783 2.723268
vt 1.080161 0.695745
vt 0.699395 0.637844
vt 0.293060 -0.936301
vt 1.080161 -0.934398
vt 0.935460 1.925768
vt 1.202600 1.619255
vt 1.285928 2.471044
vt 0.849668 2.375733
vt 0.478418 2.340677
vt 0.079547 2.393411
vt 0.246980 1.589618
vt 0.479842 1.873448
vt 0.884505 2.775254
vt 0.333977 2.723269
vt 1.207977 3.515597
vt 0.079547 3.576980
vt -1.477301 -0.061599
vt -1.210162 -0.368111
vt -1.126834 0.483675
vt -1.563093 0.388365
vt -2.165780 -0.397749
vt -1.932917 -0.113919
vt -1.934342 0.353308
vt -1.528255 0.787886
vt -2.078783 0.735902
vt -0.475432 -0.229398
vt -0.460728 -0.616322
vt 1.383973 -0.668529
vt 1.381708 0.489767
vt -2.333213 0.406043
vt -0.035022 0.338091
vt 0.647936 0.602562
vt -0.012093 1.973674
vt -0.475432 1.794248
vt 0.162607 3.051499
vt -0.098989 3.138317
vt -0.098989 -2.160974
vt 0.127469 -2.018303
vt 0.069262 1.613373
vt -0.030990 1.676532
vt -0.030990 -0.669440
vt 0.084817 -0.631006
vt 0.410845 -2.094161
vt 0.136747 -2.117446
vt -0.415086 -4.978062
vt -0.190135 -4.991654
vt -0.581227 3.071124
vt -0.581227 -2.141547
vt 0.244896 -0.794036
vt 0.567963 1.799992
vt -0.518471 3.235379
vt 0.703659 1.867293
vt 0.401347 -0.831073
vt -0.420198 -2.208402
s 0
g grassMesh_grassMat
usemtl grassMat
f 19/1/1 111/2/1 113/3/1
f 8/4/2 109/5/2 102/6/2
f 2/7/3 99/8/3 5/9/3
f 2/7/4 96/10/4 95/11/4
f 20/12/5 112/13/5 18/14/5
f 29/15/6 117/16/6 119/17/6
f 11/18/7 103/19/7 107/20/7
f 30/21/8 118/22/8 24/23/8
f 104/24/9 10/25/9 612/26/9 613/27/9
f 16/28/10 609/19/10 9/29/10
f 5/30/11 101/31/11 7/32/11
f 8/33/12 100/34/12 6/35/12
f 1/36/13 97/37/13 4/38/13
f 22/39/14 114/40/14 20/12/14
f 29/41/15 120/42/15 30/43/15
f 17/44/16 107/20/16 111/45/16
f 18/14/17 607/46/17 12/47/17
f 22/48/18 115/49/18 116/50/18
f 23/51/19 113/52/19 117/16/19
f 14/53/20 101/31/20 106/54/20
f 6/55/21 98/56/21 1/57/21
f 10/58/22 105/59/22 15/60/22
f 28/61/23 124/62/23 26/63/23
f 49/64/24 138/65/24 51/66/24
f 42/67/25 129/68/25 41/69/25
f 44/70/26 132/71/26 42/72/26
f 37/73/27 144/74/27 38/75/27
f 36/76/28 144/77/28 142/78/28
f 46/79/29 133/80/29 45/81/29
f 43/82/30 131/83/30 44/84/30
f 25/85/31 122/86/31 27/87/31
f 48/88/32 136/89/32 46/90/32
f 41/69/33 130/91/33 43/92/33
f 32/93/34 125/94/34 31/95/34
f 59/96/35 153/97/35 154/98/35
f 80/99/36 176/100/36 78/101/36
f 72/102/37 166/103/37 167/104/37
f 90/105/38 185/106/38 89/107/38
f 63/108/39 157/109/39 158/110/39
f 84/111/40 180/112/40 82/113/40
f 76/114/41 170/115/41 171/116/41
f 67/117/42 161/118/42 162/119/42
f 88/120/43 184/121/43 86/122/43
f 80/123/44 174/124/44 175/125/44
f 71/126/45 165/127/45 166/128/45
f 92/129/46 188/130/46 90/131/46
f 84/132/47 178/133/47 179/134/47
f 75/135/48 169/136/48 170/137/48
f 88/138/49 182/139/49 183/140/49
f 79/141/50 173/142/50 174/143/50
f 92/144/51 186/145/51 187/146/51
f 83/147/52 177/148/52 178/149/52
f 87/150/53 181/151/53 182/152/53
f 91/153/54 185/106/54 186/154/54
f 40/155/55 142/156/55 146/157/55
f 93/158/56 145/159/56 39/160/56
f 37/161/57 141/162/57 143/163/57
f 97/164/58 95/165/59 96/166/60
f 98/167/61 99/168/62 95/165/63
f 105/59/64 609/169/64 110/170/64
f 100/171/65 101/172/66 99/168/67
f 107/173/68 112/174/68 111/175/68
f 103/176/69 607/177/69 107/173/69
f 102/178/70 106/179/70 101/172/70
f 111/175/71 114/180/71 113/181/71
f 113/181/72 116/182/72 115/183/72
f 115/183/73 117/184/73 113/181/73
f 118/185/74 119/186/74 117/184/74
f 97/164/75 98/167/76 95/165/77
f 98/167/78 100/171/79 99/168/80
f 105/59/81 104/187/81 609/169/81
f 100/171/82 102/178/83 101/172/84
f 107/173/85 607/177/85 112/174/85
f 609/169/86 104/187/86 108/188/86
f 102/178/87 109/189/87 106/179/87
f 111/175/88 112/174/88 114/180/88
f 113/181/89 114/180/89 116/182/89
f 115/183/90 118/185/90 117/184/90
f 118/185/74 120/190/74 119/186/74
f 24/191/91 115/192/91 21/193/91
f 124/194/74 122/195/74 121/196/74
f 124/194/74 123/197/74 122/195/74
f 128/198/74 126/199/74 125/200/74
f 128/198/74 127/201/74 126/199/74
f 132/202/74 130/203/74 129/204/74
f 132/202/74 131/205/74 130/203/74
f 136/206/74 134/207/74 133/208/74
f 136/206/74 135/209/74 134/207/74
f 140/210/74 138/211/74 137/212/74
f 140/210/74 139/213/74 138/211/74
f 31/95/92 126/214/92 33/215/92
f 51/216/93 139/217/93 52/218/93
f 33/219/94 127/220/94 34/221/94
f 45/81/95 134/222/95 47/223/95
f 52/224/96 140/225/96 50/226/96
f 26/227/97 121/228/97 25/85/97
f 27/229/98 123/230/98 28/231/98
f 34/232/99 128/233/99 32/234/99
f 47/235/100 135/236/100 48/237/100
f 50/226/101 137/238/101 49/239/101
f 19/1/102 17/240/102 111/2/102
f 8/4/103 13/241/103 109/5/103
f 2/7/3 95/11/3 99/8/3
f 2/7/104 3/242/104 96/10/104
f 20/12/105 114/40/105 112/13/105
f 29/15/106 23/51/106 117/16/106
f 11/18/107 610/29/107 103/19/107
f 30/21/108 120/243/108 118/22/108
f 16/28/109 110/244/109 609/19/109
f 5/30/11 99/245/11 101/31/11
f 8/33/110 102/246/110 100/34/110
f 1/36/111 98/247/111 97/37/111
f 22/39/112 116/248/112 114/40/112
f 29/41/113 119/249/113 120/42/113
f 17/44/114 11/18/114 107/20/114
f 18/14/115 112/13/115 607/46/115
f 22/48/116 21/250/116 115/49/116
f 23/51/117 19/251/117 113/52/117
f 14/53/118 7/32/118 101/31/118
f 6/55/21 100/252/21 98/56/21
f 10/58/119 104/187/119 105/59/119
f 28/61/23 123/253/23 124/62/23
f 49/64/24 137/254/24 138/65/24
f 42/67/25 132/255/25 129/68/25
f 44/70/26 131/256/26 132/71/26
f 46/79/29 136/257/29 133/80/29
f 43/82/30 130/258/30 131/83/30
f 25/85/120 121/228/120 122/86/120
f 48/88/32 135/259/32 136/89/32
f 41/69/33 129/68/33 130/91/33
f 32/93/34 128/260/34 125/94/34
f 24/191/121 118/261/121 115/192/121
f 31/95/92 125/94/92 126/214/92
f 51/216/93 138/262/93 139/217/93
f 33/219/94 126/263/94 127/220/94
f 45/81/95 133/80/95 134/222/95
f 52/224/96 139/264/96 140/225/96
f 26/227/97 124/265/97 121/228/97
f 27/229/98 122/266/98 123/230/98
f 34/232/99 127/267/99 128/233/99
f 47/235/100 134/268/100 135/236/100
f 50/226/101 140/225/101 137/238/101
f 142/269/122 143/270/122 141/271/122
f 142/269/123 144/272/123 143/270/123
f 142/269/124 145/273/124 146/274/124
f 145/273/125 148/275/125 146/274/125
f 142/269/126 141/271/126 145/273/126
f 145/273/127 147/276/127 148/275/127
f 94/277/128 146/157/128 148/278/128
f 35/279/129 145/280/129 141/281/129
f 152/282/74 150/283/74 149/284/74
f 152/282/74 151/285/74 150/283/74
f 156/286/74 154/287/74 153/288/74
f 156/286/74 155/289/74 154/287/74
f 160/290/74 158/291/74 157/292/74
f 160/290/74 159/293/74 158/291/74
f 164/294/74 162/295/74 161/296/74
f 164/294/74 163/297/74 162/295/74
f 168/298/74 166/299/74 165/300/74
f 168/298/74 167/301/74 166/299/74
f 172/302/74 170/285/74 169/303/74
f 172/302/74 171/304/74 170/285/74
f 176/305/74 174/306/74 173/307/74
f 176/305/74 175/308/74 174/306/74
f 180/309/74 179/310/74 178/311/74
f 184/312/74 182/313/74 181/314/74
f 184/312/74 183/315/74 182/313/74
f 188/316/74 186/317/74 185/318/74
f 188/316/74 187/319/74 186/317/74
f 86/320/130 181/151/130 85/321/130
f 68/322/131 162/323/131 163/324/131
f 76/325/132 172/326/132 74/327/132
f 55/328/133 149/329/133 150/330/133
f 82/331/134 177/148/134 81/332/134
f 64/333/135 158/334/135 159/335/135
f 72/336/136 168/337/136 70/338/136
f 78/339/137 173/142/137 77/340/137
f 60/341/138 154/342/138 155/343/138
f 68/344/139 164/345/139 66/346/139
f 74/347/140 169/136/140 73/348/140
f 56/349/141 150/350/141 151/351/141
f 64/352/142 160/353/142 62/354/142
f 70/355/143 165/127/143 69/356/143
f 60/357/144 156/358/144 58/359/144
f 66/360/145 161/118/145 65/361/145
f 56/362/146 152/363/146 54/364/146
f 62/365/147 157/109/147 61/366/147
f 58/367/148 153/97/148 57/368/148
f 54/369/149 149/370/149 53/371/149
f 191/372/150 198/373/150 197/374/150
f 373/375/151 198/373/152 192/376/152
f 194/377/153 199/378/153 193/379/153
f 191/372/154 196/380/154 190/381/154
f 194/377/155 195/382/155 200/383/155
f 197/374/156 204/384/156 203/385/156
f 197/374/157 202/386/157 196/380/157
f 198/373/158 373/387/159 204/384/160
f 199/388/161 206/389/161 205/390/161
f 200/391/162 201/392/162 206/393/162
f 37/73/163 143/394/163 144/74/163
f 36/395/164 38/396/164 144/397/164
f 59/96/35 57/368/35 153/97/35
f 80/99/36 175/398/36 176/100/36
f 72/102/37 71/399/37 166/103/37
f 90/105/165 188/400/165 185/106/165
f 63/108/39 61/366/39 157/109/39
f 84/111/166 179/401/166 180/112/166
f 76/114/41 75/402/41 170/115/41
f 67/117/42 65/361/42 161/118/42
f 88/120/43 183/403/43 184/121/43
f 80/123/44 79/404/44 174/124/44
f 71/126/45 69/356/45 165/127/45
f 92/129/46 187/405/46 188/130/46
f 84/132/47 83/406/47 178/133/47
f 75/135/48 73/348/48 169/136/48
f 88/138/167 87/407/167 182/139/167
f 79/141/50 77/340/50 173/142/50
f 92/144/51 91/408/51 186/145/51
f 83/147/52 81/332/52 177/148/52
f 87/150/53 85/321/53 181/151/53
f 91/153/54 89/107/54 185/106/54
f 40/155/168 36/409/168 142/156/168
f 93/410/169 147/411/169 145/412/169
f 37/161/170 35/413/170 141/162/170
f 94/277/171 40/155/171 146/157/171
f 35/414/172 39/415/172 145/416/172
f 86/320/130 184/417/130 181/151/130
f 68/322/131 67/418/131 162/323/131
f 76/325/132 171/419/132 172/326/132
f 55/328/133 53/420/133 149/329/133
f 82/331/134 180/421/134 177/148/134
f 64/333/135 63/422/135 158/334/135
f 72/336/136 167/423/136 168/337/136
f 78/339/137 176/424/137 173/142/137
f 60/341/138 59/425/138 154/342/138
f 68/344/173 163/426/173 164/345/173
f 74/347/140 172/427/140 169/136/140
f 56/349/141 55/428/141 150/350/141
f 64/352/142 159/429/142 160/353/142
f 70/355/143 168/430/143 165/127/143
f 60/357/144 155/431/144 156/358/144
f 66/360/174 164/432/174 161/118/174
f 56/362/146 151/433/146 152/363/146
f 62/365/147 160/434/147 157/109/147
f 58/367/148 156/435/148 153/97/148
f 54/369/149 152/436/149 149/370/149
f 191/372/175 192/376/175 198/373/175
f 194/377/176 200/383/176 199/378/176
f 191/372/177 197/374/177 196/380/177
f 194/377/178 189/437/178 195/382/178
f 197/374/179 198/373/179 204/384/179
f 197/438/180 203/439/180 202/440/180
f 199/378/181 200/383/181 206/441/181
f 200/391/182 195/442/182 201/392/182
f 212/443/183 214/444/183 213/445/183
f 210/446/184 212/447/184 213/448/184
f 209/449/185 213/448/185 214/450/185
f 207/451/186 212/452/186 208/453/186
f 215/454/187 223/455/187 220/456/187
f 239/457/188 223/458/188 244/459/188
f 219/460/189 221/461/189 222/462/189
f 219/460/190 242/463/190 236/464/190
f 215/465/191 239/466/191 232/467/191
f 224/468/192 231/469/192 228/470/192
f 249/471/74 231/472/74 254/473/74
f 227/474/193 229/475/193 230/476/193
f 227/477/194 252/478/194 246/479/194
f 224/480/195 249/481/195 235/482/195
f 216/483/196 241/484/196 221/485/196
f 234/486/197 240/487/197 241/484/197
f 233/488/198 239/466/198 240/487/198
f 238/489/199 223/455/199 217/490/199
f 237/491/200 244/492/200 238/493/200
f 236/494/201 243/495/201 237/491/201
f 222/496/202 241/497/202 242/498/202
f 241/497/203 243/499/203 242/498/203
f 243/499/204 239/457/204 244/459/204
f 225/500/205 251/501/205 229/502/205
f 245/503/206 250/504/206 251/501/206
f 235/482/207 250/504/207 218/505/207
f 226/506/208 254/507/208 231/508/208
f 248/509/209 253/510/209 254/507/209
f 246/479/210 253/510/210 247/511/210
f 229/512/74 252/513/74 230/514/74
f 251/515/74 253/516/74 252/513/74
f 250/517/74 254/473/74 253/516/74
f 258/518/211 260/519/211 261/520/211
f 257/521/212 259/522/212 260/523/212
f 262/524/74 260/525/74 259/526/74
f 262/524/74 261/527/74 260/525/74
f 258/528/213 262/529/213 256/530/213
f 256/531/214 259/532/214 255/533/214
f 258/518/211 257/534/211 260/519/211
f 257/521/212 255/535/212 259/522/212
f 258/528/215 261/536/215 262/529/215
f 256/531/214 262/537/214 259/532/214
f 266/538/216 268/539/216 269/540/216
f 265/541/217 267/542/217 268/543/217
f 270/544/74 268/545/74 267/546/74
f 270/544/74 269/547/74 268/545/74
f 266/548/218 270/549/218 264/550/218
f 264/551/219 267/542/219 263/552/219
f 266/538/216 265/553/216 268/539/216
f 265/541/217 263/552/217 267/542/217
f 266/548/220 269/554/220 270/549/220
f 264/551/219 270/555/219 267/542/219
f 271/556/221 278/557/221 275/558/221
f 276/559/222 278/560/222 277/561/222
f 274/562/223 276/563/223 277/564/223
f 273/565/224 277/564/224 278/566/224
f 271/567/225 276/568/225 272/569/225
f 212/443/183 211/570/183 214/444/183
f 210/446/184 208/571/184 212/447/184
f 209/449/226 210/446/226 213/448/226
f 207/451/227 211/572/227 212/452/227
f 215/454/228 217/490/228 223/455/228
f 239/457/188 220/573/188 223/458/188
f 219/460/229 216/574/229 221/461/229
f 219/460/230 222/462/230 242/463/230
f 215/465/231 220/575/231 239/466/231
f 224/468/192 226/576/192 231/469/192
f 249/471/74 228/577/74 231/472/74
f 227/474/193 225/578/193 229/475/193
f 227/477/232 230/579/232 252/478/232
f 224/480/233 228/580/233 249/481/233
f 216/483/234 234/486/234 241/484/234
f 234/486/235 233/488/235 240/487/235
f 233/488/236 232/467/236 239/466/236
f 238/493/237 244/492/237 223/581/237
f 237/491/238 243/495/238 244/492/238
f 236/494/239 242/582/239 243/495/239
f 222/496/202 221/583/202 241/497/202
f 241/497/203 240/584/203 243/499/203
f 243/499/240 240/584/240 239/457/240
f 225/500/241 245/503/241 251/501/241
f 245/503/242 218/505/242 250/504/242
f 235/482/243 249/481/243 250/504/243
f 226/506/244 248/509/244 254/507/244
f 248/509/245 247/511/245 253/510/245
f 246/479/246 252/478/246 253/510/246
f 229/512/74 251/515/74 252/513/74
f 251/515/74 250/517/74 253/516/74
f 250/517/74 249/471/74 254/473/74
f 271/556/247 273/585/247 278/557/247
f 276/559/248 275/586/248 278/560/248
f 274/562/249 272/587/249 276/563/249
f 273/565/250 274/562/250 277/564/250
f 271/567/251 275/588/251 276/568/251
f 280/589/252 287/590/252 284/591/252
f 293/592/74 287/593/74 298/594/74
f 283/595/253 285/596/253 286/597/253
f 283/598/254 296/599/254 290/600/254
f 280/589/255 293/601/255 288/602/255
f 281/603/256 295/604/256 285/605/256
f 289/606/257 294/607/257 295/608/257
f 288/609/258 294/610/258 279/611/258
f 282/612/259 298/613/259 287/614/259
f 292/615/260 297/616/260 298/613/260
f 290/617/261 297/616/261 291/618/261
f 285/619/74 296/620/74 286/621/74
f 295/622/74 297/623/74 296/620/74
f 294/624/74 298/594/74 297/623/74
f 280/589/252 282/625/252 287/590/252
f 293/592/74 284/626/74 287/593/74
f 283/595/253 281/627/253 285/596/253
f 283/628/262 286/629/262 296/630/262
f 280/589/263 284/591/263 293/601/263
f 281/631/264 289/606/264 295/608/264
f 289/606/265 279/632/265 294/607/265
f 288/633/266 293/634/266 294/635/266
f 282/612/267 292/615/267 298/613/267
f 292/615/268 291/618/268 297/616/268
f 290/600/269 296/599/269 297/636/269
f 285/619/74 295/622/74 296/620/74
f 295/622/74 294/624/74 297/623/74
f 294/624/74 293/592/74 298/594/74
f 300/637/270 307/638/270 304/639/270
f 313/640/74 307/641/74 318/642/74
f 303/643/271 305/644/271 306/645/271
f 303/646/272 316/647/272 310/648/272
f 300/649/273 313/650/273 308/651/273
f 301/652/274 315/653/274 305/654/274
f 309/655/275 314/656/275 315/653/275
f 308/651/276 314/656/276 299/657/276
f 302/658/277 318/659/277 307/638/277
f 312/660/278 317/661/278 318/662/278
f 310/648/279 317/661/279 311/663/279
f 305/664/74 316/665/74 306/666/74
f 315/667/74 317/668/74 316/665/74
f 314/669/74 318/642/74 317/668/74
f 300/637/280 302/658/280 307/638/280
f 313/640/74 304/670/74 307/641/74
f 303/643/281 301/671/281 305/644/281
f 303/646/282 306/672/282 316/647/282
f 300/649/283 304/673/283 313/650/283
f 301/652/284 309/655/284 315/653/284
f 309/655/285 299/657/285 314/656/285
f 308/651/286 313/650/286 314/656/286
f 302/674/287 312/660/287 318/662/287
f 312/660/288 311/663/288 317/661/288
f 310/648/289 316/647/289 317/661/289
f 305/664/74 315/667/74 316/665/74
f 315/667/74 314/669/74 317/668/74
f 314/669/74 313/640/74 318/642/74
f 322/675/216 324/65/216 325/676/216
f 321/677/217 323/678/217 324/679/217
f 326/680/74 324/681/74 323/682/74
f 326/680/74 325/203/74 324/681/74
f 322/683/218 326/684/218 320/685/218
f 320/686/219 323/678/219 319/687/219
f 322/675/216 321/688/216 324/65/216
f 321/677/290 319/687/290 323/678/290
f 322/683/291 325/689/291 326/684/291
f 320/686/219 326/690/219 323/678/219
f 195/442/292 189/691/292 201/392/292
f 196/380/293 202/386/293 190/381/293
f 206/692/294 331/693/295 205/694/296
f 190/381/297 329/372/298 191/372/299
f 373/387/300 330/384/301 204/384/302
f 203/385/303 330/384/304 329/385/305
f 194/377/306 331/379/307 332/377/308
f 201/392/309 189/691/309 327/392/309
f 201/392/310 332/393/311 206/393/312
f 192/376/313 329/372/314 330/376/315
f 190/381/316 202/386/316 328/381/316
f 189/437/317 332/377/318 327/437/319
f 203/439/320 328/440/321 202/440/322
f 206/441/323 332/441/324 331/695/325
f 190/381/326 328/381/327 329/372/328
f 203/385/329 204/384/330 330/384/331
f 194/377/332 193/379/333 331/379/334
f 192/376/335 330/376/336 373/696/337
f 201/392/338 327/392/339 332/393/340
f 192/376/341 191/372/342 329/372/343
f 189/437/344 194/377/345 332/377/346
f 203/439/347 329/439/348 328/440/349
f 335/697/350 337/698/350 338/699/350
f 334/700/351 337/698/351 336/701/351
f 337/698/352 339/702/352 338/699/352
f 337/698/352 340/703/352 339/702/352
f 333/704/353 340/703/353 334/700/353
f 335/697/354 339/702/354 333/704/354
f 343/705/355 345/706/355 346/707/355
f 342/708/356 345/706/356 344/709/356
f 345/706/357 347/710/357 346/707/357
f 345/706/357 348/711/357 347/710/357
f 341/712/358 348/711/358 342/708/358
f 341/712/359 346/707/359 347/710/359
f 351/713/360 353/714/360 354/715/360
f 352/716/361 356/717/361 353/714/361
f 353/714/362 355/718/362 354/715/362
f 353/714/362 356/717/362 355/718/362
f 349/719/363 356/717/363 350/720/363
f 349/719/364 354/715/364 355/718/364
f 360/721/365 362/722/365 359/723/365
f 360/721/366 364/724/366 361/725/366
f 361/725/367 363/726/367 362/722/367
f 361/725/367 364/724/367 363/726/367
f 358/727/368 363/726/368 364/724/368
f 359/723/369 363/726/369 357/728/369
f 367/729/370 369/730/370 370/731/370
f 366/732/371 369/730/371 368/733/371
f 369/730/372 371/734/372 370/731/372
f 369/730/373 372/735/373 371/734/373
f 365/736/374 372/735/374 366/732/374
f 367/729/375 371/734/375 365/736/375
f 177/737/74 180/309/74 178/311/74
f 343/705/376 342/708/376 344/709/376
f 16/738/377 105/59/377 110/170/377
f 106/739/378 109/740/378 14/741/378
f 109/740/379 13/742/379 14/741/379
f 199/743/380 205/744/380 374/745/380
f 331/746/381 193/747/382 374/745/383
f 205/744/384 331/746/385 374/745/386
f 193/747/387 199/743/387 374/745/387
f 377/729/388 379/730/388 380/731/388
f 378/733/389 382/735/389 379/730/389
f 379/730/390 381/734/390 380/731/390
f 379/730/391 382/735/391 381/734/391
f 376/732/392 381/734/392 382/735/392
f 377/729/393 381/734/393 375/736/393
f 385/729/394 387/730/394 388/731/394
f 386/733/395 390/735/395 387/730/395
f 387/730/396 389/734/396 388/731/396
f 387/730/397 390/735/397 389/734/397
f 384/732/398 389/734/398 390/735/398
f 385/729/399 389/734/399 383/736/399
f 393/729/400 395/730/400 396/731/400
f 394/733/401 398/735/401 395/730/401
f 395/730/402 397/734/402 396/731/402
f 395/730/403 398/735/403 397/734/403
f 392/732/404 397/734/404 398/735/404
f 391/736/405 396/731/405 397/734/405
f 401/729/406 403/730/406 404/731/406
f 402/733/407 406/735/407 403/730/407
f 403/730/408 405/734/408 404/731/408
f 403/730/409 406/735/409 405/734/409
f 400/732/410 405/734/410 406/735/410
f 399/736/411 404/731/411 405/734/411
f 409/729/412 411/730/412 412/731/412
f 410/733/413 414/735/413 411/730/413
f 411/730/414 413/734/414 412/731/414
f 411/730/415 414/735/415 413/734/415
f 408/732/416 413/734/416 414/735/416
f 407/736/417 412/731/417 413/734/417
f 417/729/418 419/730/418 420/731/418
f 418/733/419 422/735/419 419/730/419
f 419/730/420 421/734/420 420/731/420
f 419/730/421 422/735/421 421/734/421
f 416/732/422 421/734/422 422/735/422
f 415/736/423 420/731/423 421/734/423
f 425/729/424 427/730/424 428/731/424
f 426/733/425 430/735/425 427/730/425
f 427/730/426 429/734/426 428/731/426
f 427/730/427 430/735/427 429/734/427
f 424/732/428 429/734/428 430/735/428
f 423/736/429 428/731/429 429/734/429
f 433/729/430 435/730/430 436/731/430
f 434/733/431 438/735/431 435/730/431
f 435/730/432 437/734/432 436/731/432
f 435/730/433 438/735/433 437/734/433
f 432/732/434 437/734/434 438/735/434
f 431/736/435 436/731/435 437/734/435
f 441/729/436 443/730/436 444/731/436
f 442/733/437 446/735/437 443/730/437
f 443/730/438 445/734/438 444/731/438
f 443/730/439 446/735/439 445/734/439
f 440/732/440 445/734/440 446/735/440
f 439/736/441 444/731/441 445/734/441
f 449/729/436 451/730/436 452/731/436
f 450/733/437 454/735/437 451/730/437
f 451/730/438 453/734/438 452/731/438
f 451/730/439 454/735/439 453/734/439
f 448/732/442 453/734/442 454/735/442
f 447/736/441 452/731/441 453/734/441
f 457/729/443 459/730/443 460/731/443
f 458/733/444 462/735/444 459/730/444
f 459/730/445 461/734/445 460/731/445
f 459/730/446 462/735/446 461/734/446
f 456/732/447 461/734/447 462/735/447
f 455/736/448 460/731/448 461/734/448
f 465/729/449 467/730/449 468/731/449
f 466/733/450 470/735/450 467/730/450
f 467/730/451 469/734/451 468/731/451
f 467/730/452 470/735/452 469/734/452
f 464/732/453 469/734/453 470/735/453
f 463/736/454 468/731/454 469/734/454
f 473/729/455 475/730/455 476/731/455
f 474/733/456 478/735/456 475/730/456
f 475/730/457 477/734/457 476/731/457
f 475/730/458 478/735/458 477/734/458
f 472/732/459 477/734/459 478/735/459
f 471/736/460 476/731/460 477/734/460
f 481/729/461 483/730/461 484/731/461
f 482/733/462 486/735/462 483/730/462
f 483/730/463 485/734/463 484/731/463
f 483/730/464 486/735/464 485/734/464
f 480/732/465 485/734/465 486/735/465
f 479/736/466 484/731/466 485/734/466
f 489/729/467 491/730/467 492/731/467
f 490/733/468 494/735/468 491/730/468
f 491/730/469 493/734/469 492/731/469
f 491/730/470 494/735/470 493/734/470
f 488/732/471 493/734/471 494/735/471
f 487/736/472 492/731/472 493/734/472
f 335/697/473 336/701/473 337/698/473
f 334/700/351 340/703/351 337/698/351
f 333/704/474 339/702/474 340/703/474
f 335/697/354 338/699/354 339/702/354
f 343/705/475 344/709/475 345/706/475
f 342/708/356 348/711/356 345/706/356
f 341/712/476 347/710/476 348/711/476
f 341/712/477 343/705/477 346/707/477
f 351/713/478 352/716/478 353/714/478
f 352/716/479 350/720/479 356/717/479
f 349/719/480 355/718/480 356/717/480
f 349/719/364 351/713/364 354/715/364
f 360/721/481 361/725/481 362/722/481
f 360/721/366 358/727/366 364/724/366
f 358/727/482 357/728/482 363/726/482
f 359/723/483 362/722/483 363/726/483
f 367/729/484 368/733/484 369/730/484
f 366/732/371 372/735/371 369/730/371
f 365/736/485 371/734/485 372/735/485
f 367/729/486 370/731/486 371/734/486
f 343/705/376 341/712/376 342/708/376
f 16/738/487 15/60/487 105/59/487
f 377/729/488 378/733/488 379/730/488
f 378/733/489 376/732/489 382/735/489
f 376/732/490 375/736/490 381/734/490
f 377/729/491 380/731/491 381/734/491
f 385/729/492 386/733/492 387/730/492
f 386/733/493 384/732/493 390/735/493
f 384/732/494 383/736/494 389/734/494
f 385/729/495 388/731/495 389/734/495
f 393/729/496 394/733/496 395/730/496
f 394/733/497 392/732/497 398/735/497
f 392/732/498 391/736/498 397/734/498
f 391/736/499 393/729/499 396/731/499
f 401/729/500 402/733/500 403/730/500
f 402/733/501 400/732/501 406/735/501
f 400/732/502 399/736/502 405/734/502
f 399/736/503 401/729/503 404/731/503
f 409/729/504 410/733/504 411/730/504
f 410/733/505 408/732/505 414/735/505
f 408/732/506 407/736/506 413/734/506
f 407/736/507 409/729/507 412/731/507
f 417/729/508 418/733/508 419/730/508
f 418/733/509 416/732/509 422/735/509
f 416/732/510 415/736/510 421/734/510
f 415/736/511 417/729/511 420/731/511
f 425/729/512 426/733/512 427/730/512
f 426/733/513 424/732/513 430/735/513
f 424/732/514 423/736/514 429/734/514
f 423/736/515 425/729/515 428/731/515
f 433/729/516 434/733/516 435/730/516
f 434/733/517 432/732/517 438/735/517
f 432/732/518 431/736/518 437/734/518
f 431/736/519 433/729/519 436/731/519
f 441/729/520 442/733/520 443/730/520
f 442/733/521 440/732/521 446/735/521
f 440/732/522 439/736/522 445/734/522
f 439/736/523 441/729/523 444/731/523
f 449/729/520 450/733/520 451/730/520
f 450/733/521 448/732/521 454/735/521
f 448/732/522 447/736/522 453/734/522
f 447/736/523 449/729/523 452/731/523
f 457/729/524 458/733/524 459/730/524
f 458/733/525 456/732/525 462/735/525
f 456/732/526 455/736/526 461/734/526
f 455/736/527 457/729/527 460/731/527
f 465/729/528 466/733/528 467/730/528
f 466/733/529 464/732/529 470/735/529
f 464/732/530 463/736/530 469/734/530
f 463/736/531 465/729/531 468/731/531
f 473/729/532 474/733/532 475/730/532
f 474/733/533 472/732/533 478/735/533
f 472/732/534 471/736/534 477/734/534
f 471/736/535 473/729/535 476/731/535
f 481/729/536 482/733/536 483/730/536
f 482/733/537 480/732/537 486/735/537
f 480/732/538 479/736/538 485/734/538
f 479/736/539 481/729/539 484/731/539
f 489/729/540 490/733/540 491/730/540
f 490/733/541 488/732/541 494/735/541
f 488/732/542 487/736/542 493/734/542
f 487/736/543 489/729/543 492/731/543
f 495/748/544 496/749/544 498/750/544 497/751/544
f 501/752/545 502/753/545 500/754/545 499/755/545
f 499/755/546 500/754/546 496/749/546 495/748/546
f 497/751/547 501/752/547 499/755/547 495/748/547
f 502/753/74 498/750/74 496/749/74 500/754/74
f 501/752/548 497/751/548 498/756/548 502/757/548
f 503/758/549 504/759/549 506/760/549 505/761/549
f 509/762/550 510/763/550 508/764/550 507/765/550
f 507/765/551 508/764/551 504/759/551 503/758/551
f 505/761/547 509/762/547 507/765/547 503/758/547
f 509/762/552 505/761/552 506/766/552 510/767/552
f 510/767/74 506/766/74 504/768/74 508/769/74
f 511/770/553 512/771/553 514/772/553 513/773/553
f 517/774/554 518/775/554 516/776/554 515/777/554
f 515/777/555 516/776/555 512/771/555 511/770/555
f 513/773/547 517/774/547 515/777/547 511/770/547
f 517/774/556 513/773/556 514/778/556 518/779/556
f 518/779/74 514/778/74 512/780/74 516/781/74
f 519/782/557 520/783/557 522/784/557 521/785/557
f 525/786/558 526/787/558 524/788/558 523/789/558
f 523/789/559 524/788/559 520/783/559 519/782/559
f 521/785/547 525/786/547 523/789/547 519/782/547
f 525/786/560 521/785/560 522/790/560 526/791/560
f 526/791/74 522/790/74 520/792/74 524/793/74
f 527/794/561 528/795/561 530/796/561 529/797/561
f 533/798/562 534/799/562 532/800/562 531/801/562
f 531/801/563 532/800/563 528/795/563 527/794/563
f 529/797/547 533/798/547 531/801/547 527/794/547
f 533/798/564 529/797/564 530/802/564 534/803/564
f 534/804/74 530/805/74 528/806/74 532/807/74
f 535/808/565 536/809/565 538/810/565 537/811/565
f 541/812/566 542/813/566 540/814/566 539/815/566
f 539/815/567 540/814/567 536/809/567 535/808/567
f 537/811/547 541/812/547 539/815/547 535/808/547
f 541/812/568 537/811/568 538/816/568 542/817/568
f 542/818/74 538/819/74 536/820/74 540/821/74
f 543/822/569 544/823/569 546/824/569 545/825/569
f 549/826/570 550/827/570 548/828/570 547/829/570
f 547/829/546 548/828/546 544/823/546 543/822/546
f 545/825/547 549/826/547 547/829/547 543/822/547
f 549/826/548 545/825/548 546/830/548 550/831/548
f 550/832/74 546/833/74 544/834/74 548/835/74
f 551/836/571 552/837/571 554/838/571 553/839/571
f 557/840/572 558/841/572 556/842/572 555/843/572
f 555/843/573 556/842/573 552/837/573 551/836/573
f 553/839/547 557/840/547 555/843/547 551/836/547
f 557/840/574 553/839/574 554/844/574 558/845/574
f 558/846/74 554/847/74 552/848/74 556/849/74
f 559/850/575 560/851/575 562/852/575 561/853/575
f 565/854/576 566/855/576 564/856/576 563/857/576
f 563/857/577 564/856/577 560/851/577 559/850/577
f 561/853/547 565/854/547 563/857/547 559/850/547
f 565/854/578 561/853/578 562/858/578 566/859/578
f 566/860/74 562/861/74 560/862/74 564/863/74
f 567/864/579 568/865/579 570/866/579 569/867/579
f 573/868/580 574/869/580 572/870/580 571/871/580
f 571/871/581 572/870/581 568/865/581 567/864/581
f 569/867/547 573/868/547 571/871/547 567/864/547
f 573/868/582 569/867/582 570/872/582 574/873/582
f 574/874/74 570/875/74 568/876/74 572/877/74
f 575/878/583 576/879/583 578/880/583 577/881/583
f 581/882/584 582/883/584 580/884/584 579/885/584
f 579/885/585 580/884/585 576/879/585 575/878/585
f 577/881/547 581/882/547 579/885/547 575/878/547
f 581/882/586 577/881/586 578/886/586 582/887/586
f 582/887/74 578/886/74 576/888/74 580/889/74
f 583/890/587 584/891/587 586/892/587 585/893/587
f 604/894/588 603/895/588 601/895/588 602/894/588
f 587/895/589 588/894/589 584/891/589 583/890/589
f 585/893/547 589/896/547 587/895/547 583/890/547
f 589/896/590 585/893/590 586/897/590 590/898/590
f 590/899/74 586/900/74 584/901/74 588/902/74
f 594/721/591 596/722/591 593/723/591
f 594/721/592 598/724/592 595/725/592
f 595/725/593 597/726/593 596/722/593
f 595/725/593 598/724/593 597/726/593
f 592/727/594 597/726/594 598/724/594
f 593/723/595 597/726/595 591/728/595
f 594/721/596 595/725/596 596/722/596
f 594/721/592 592/727/592 598/724/592
f 592/727/597 591/728/597 597/726/597
f 593/723/595 596/722/595 597/726/595
f 600/896/598 599/903/598 602/894/598 601/895/598
f 603/895/547 605/896/547 600/896/547 601/895/547
f 606/904/74 604/905/74 602/906/74 599/907/74
f 605/896/599 606/898/599 599/898/599 600/896/599
f 589/896/600 590/898/600 606/898/600 605/896/600
f 590/899/601 588/902/601 604/905/601 606/904/601
f 587/895/602 589/896/602 605/896/602 603/895/602
f 588/894/603 587/895/603 603/895/603 604/894/603
f 9/908/604 609/909/604 108/910/604 608/911/604
f 12/912/605 607/913/605 103/914/605 610/915/605
f 612/26/606 614/916/606 613/27/606
f 612/26/607 611/917/607 614/916/607
f 608/918/608 108/919/608 614/916/608 611/917/608
f 108/920/74 104/921/74 613/922/74 614/923/74
f 608/924/609 611/925/609 612/926/609 10/927/609
f 617/108/610 619/109/610 620/110/610
f 622/290/611 620/291/611 619/292/611
f 622/290/611 621/293/611 620/291/611
f 618/333/612 620/334/612 621/335/612
f 618/352/613 622/353/613 616/354/613
f 616/365/614 619/109/614 615/366/614
f 617/108/610 615/366/610 619/109/610
f 618/333/615 617/422/615 620/334/615
f 618/352/616 621/429/616 622/353/616
f 616/365/617 622/434/617 619/109/617
