# Blender 5.0.1
# www.blender.org
mtllib model.mtl
o LinksiderMesh
v 404.796997 -5.627333 5.244349
v 405.835846 -4.975904 5.311215
v 405.322083 -4.239937 6.128796
v 404.282684 -4.891805 6.061761
v 405.791290 -4.925946 7.014239
v 406.289764 -5.639884 6.220277
v 405.862061 -5.048403 5.266739
v 405.660278 -4.913917 7.079598
v 405.241760 -6.386856 6.079167
v 405.274231 -4.208066 6.202015
v 406.248566 -5.754940 6.145095
v 404.279297 -4.845402 5.991632
v 405.288330 -4.212572 6.056693
v 404.653870 -5.545022 7.014623
v 405.197632 -4.146951 6.203055
v 405.844910 -5.072515 5.173152
v 405.681213 -4.980697 7.126556
v 406.270477 -5.850822 6.140811
v 405.622955 -4.924759 7.169874
v 406.254425 -5.800299 6.215894
v 405.208435 -4.148324 6.050260
v 405.703857 -5.054304 7.176579
v 405.242889 -4.178988 6.130032
v 406.259796 -5.849476 6.292912
v 405.815826 -4.998039 5.218475
v 405.764038 -4.943026 5.166018
v 406.319489 -5.745549 6.077183
v 405.671906 -4.819676 7.106162
v 404.562744 -5.516436 7.034045
v 405.209778 -6.442351 6.004539
v 405.731781 -4.872455 7.060848
v 404.516632 -5.638218 6.956036
v 405.809082 -4.827834 7.039352
v 406.304901 -5.691802 6.150297
v 405.161133 -6.410071 6.075427
v 404.588135 -5.589568 6.987195
v 405.071960 -6.433695 6.072503
v 406.365173 -5.622623 6.155926
v 405.600098 -4.859934 7.122435
v 406.262085 -5.806561 6.070459
v 404.893250 -5.670352 5.111310
v 405.318695 -6.448240 6.078514
v 405.273407 -6.416143 6.151674
v 404.752106 -5.651080 7.115128
v 404.261963 -4.794139 6.066759
v 405.308044 -6.446888 6.230528
v 404.246246 -4.744361 6.140773
v 404.700439 -5.595733 7.063229
v 404.671722 -5.522336 7.107883
v 404.256714 -4.745148 5.988861
v 404.834869 -5.614325 5.154701
v 404.812561 -5.540810 5.104135
v 404.627777 -5.470769 7.059076
v 405.289093 -6.417270 6.006806
v 405.954224 -5.077678 5.246903
v 405.307007 -4.152391 6.276530
v 404.197693 -4.848767 6.203997
v 404.844666 -5.774680 5.174565
v 404.151672 -4.970796 6.126283
v 405.444061 -4.160501 6.209641
v 405.928436 -5.003406 5.294519
v 404.784821 -5.721873 5.219919
v 404.211914 -4.901656 6.131932
v 404.706665 -5.765749 5.242180
v 405.999939 -4.954822 5.325724
v 405.226990 -4.177763 6.274277
v 405.888672 -5.123746 5.221636
v 405.355621 -4.184637 6.205709
v 404.915924 -5.734791 5.158430
v 404.254578 -4.788325 6.210640
v 404.662628 -5.711398 6.988972
v 405.369568 -4.189259 6.064149
v 405.827332 -5.065878 7.114697
v 405.331024 -4.158366 5.986478
v 404.162689 -4.977167 5.988792
v 404.715546 -5.763000 7.043074
v 404.219238 -4.855406 5.914760
v 404.588928 -5.756366 6.957476
v 405.808838 -4.992665 7.062786
v 404.223206 -4.907970 5.990202
v 405.457733 -4.165212 6.072305
v 405.883820 -4.944438 7.040923
v 405.758820 -5.111648 7.131440
v 405.251404 -4.183661 5.977794
v 405.866852 -4.879862 6.990682
v 404.542908 -5.709999 6.905387
v 404.784027 -5.722885 7.068495
v 404.276550 -4.794967 5.914884
v 404.169098 -5.026317 6.055404
v 405.492950 -4.196277 6.140794
v 406.294525 -5.688232 6.289256
v 404.709625 -5.603707 5.216909
v 405.929108 -4.840189 5.322356
v 406.354980 -5.619035 6.290647
v 406.348541 -5.569619 6.223615
v 405.974792 -4.886290 5.374116
v 405.148895 -6.406715 6.215358
v 405.855499 -4.885254 5.290944
v 406.298462 -5.740553 6.364374
v 405.802368 -4.833351 5.236545
v 404.634674 -5.651913 5.238770
v 405.187164 -6.437468 6.292682
v 404.691040 -5.530175 5.164761
v 405.060669 -6.430800 6.207208
v 406.240631 -5.801485 6.364200
v 405.733337 -4.873854 5.210978
v 405.025269 -6.399520 6.138283
v 405.266113 -6.412406 6.301280
v 404.758850 -5.484849 5.148181
v 404.651520 -5.716060 5.288651
v 404.614807 -5.663644 6.938454
v 405.113922 -6.377351 6.144464
v 405.739319 -5.037368 7.081867
v 404.730377 -5.670000 7.016708
v 404.267914 -4.839205 6.137116
v 404.855591 -5.680681 5.201320
v 405.404358 -4.218437 6.134576
v 404.227844 -4.955975 6.058668
v 404.727112 -5.669965 5.265126
v 405.902985 -4.932654 5.341074
v 406.237854 -5.751318 6.287765
v 405.787231 -4.927044 5.262995
v 405.229340 -6.383587 6.222735
v 404.778595 -5.559511 5.198053
v 405.720825 -4.969001 7.035243
v 404.681305 -5.620802 6.968073
v 406.234436 -5.704623 6.217141
v 405.195435 -6.355993 6.150146
v 404.520782 -4.499000 6.162850
v 404.857361 -4.287674 6.184868
v 405.010406 -5.397563 7.153540
v 405.361267 -5.177523 7.176203
v 404.972321 -5.324670 7.189166
v 405.308838 -5.113271 7.211080
v 404.531952 -4.500160 6.001315
v 404.868591 -4.288981 6.022995
v 405.154572 -5.417150 5.105002
v 405.505615 -5.196585 5.127731
v 405.121704 -5.344323 5.062436
v 405.458374 -5.132805 5.084261
v 404.930511 -5.264992 7.145927
v 405.277283 -5.047144 7.168471
v 405.544128 -5.270283 5.091769
v 405.207397 -5.481798 5.069935
v 405.995819 -6.096272 6.118784
v 405.659058 -6.307603 6.096759
v 405.976532 -6.057743 6.198485
v 405.625397 -6.278043 6.175455
v 405.394409 -5.250506 7.218366
v 405.057739 -5.461633 7.196624
v 404.890747 -4.317018 6.106641
v 404.539856 -4.537146 6.084032
v 405.984497 -6.094810 6.280219
v 405.647705 -6.306153 6.258133
v 405.985229 -6.060125 6.042842
v 405.638123 -6.277917 6.020175
v 405.585693 -5.329588 5.134712
v 405.238739 -5.547518 5.112252
v 404.531281 -4.534940 6.238269
v 404.878052 -4.317218 6.260922
v 404.555023 -4.541283 5.921407
v 404.902924 -4.323078 5.943836
v 405.446289 -5.316647 7.179036
v 405.098358 -5.534794 7.156553
v 405.962128 -6.055036 6.357530
v 405.614380 -6.273042 6.335113
v 405.071320 -5.280037 5.100620
v 405.419128 -5.062025 5.123045
v 404.967255 -6.238184 6.497127
v 404.793518 -5.989758 6.773623
v 405.724884 -4.606881 5.505956
v 405.551300 -4.358145 5.782275
v 406.194550 -5.528831 6.642951
v 406.028107 -5.290407 6.908120
v 405.668488 -4.566952 5.447127
v 405.501984 -4.328362 5.712117
v 404.430298 -5.434832 5.449496
v 404.263489 -5.196380 5.714542
v 405.016235 -6.267796 6.567005
v 404.849609 -6.029475 6.832237
v 404.490173 -5.305754 5.371026
v 404.323395 -5.067282 5.636046
v 404.882111 -6.260699 6.476336
v 404.715393 -6.022378 6.741488
v 406.136444 -5.590383 6.652781
v 405.964874 -5.344658 6.926105
v 405.594269 -4.598998 5.420289
v 405.422607 -4.353087 5.693385
v 404.837524 -6.229567 6.411335
v 404.665619 -5.983974 6.684562
v 405.094971 -6.243317 6.585550
v 404.923218 -5.997745 6.858820
v 404.552856 -5.252037 5.353197
v 404.381042 -5.006290 5.626270
v 404.438049 -5.499122 5.503298
v 404.266205 -5.253434 5.776387
v 406.022095 -5.219303 6.852724
v 406.195587 -5.467851 6.576287
v 404.322357 -5.128580 5.702945
v 404.496307 -5.377214 5.426635
v 405.636353 -4.335646 5.803142
v 405.802948 -4.574201 5.538111
v 406.087952 -5.161644 6.829906
v 406.254425 -5.400050 6.564757
v 406.080200 -5.096952 6.775710
v 406.251678 -5.342655 6.502470
v 405.680695 -4.366587 5.867668
v 405.852295 -4.612401 5.594612
v 405.461151 -6.101470 6.656626
v 405.271637 -5.830313 6.958446
v 405.844482 -5.861179 6.681389
v 405.655060 -5.589972 6.983271
v 405.245911 -4.766619 5.320629
v 405.056335 -4.495107 5.622149
v 404.862671 -5.006968 5.295981
v 404.672943 -4.735553 5.597435
v 405.497314 -4.349060 6.516465
v 405.631958 -4.595145 6.822440
v 406.255615 -5.536798 5.779474
v 406.126343 -5.300452 5.485667
v 405.568176 -4.554299 6.871869
v 405.439087 -4.318247 6.578404
v 404.390808 -5.293638 6.795320
v 404.261566 -5.057364 6.501550
v 405.077637 -6.276498 5.702534
v 404.948456 -6.040277 5.408892
v 404.342010 -5.422998 6.712559
v 404.212891 -5.186882 6.418997
v 405.713715 -4.562932 6.800985
v 405.584564 -4.326845 6.507448
v 406.247345 -5.474476 5.844742
v 406.112549 -5.228079 5.538444
v 405.019318 -6.245658 5.764506
v 404.884644 -5.999370 5.458359
v 404.404266 -5.364851 6.743366
v 404.269714 -5.118715 6.437362
v 404.931183 -6.267327 5.774489
v 404.801880 -6.030959 5.480651
v 406.304016 -5.406324 5.863076
v 406.174835 -5.170006 5.569341
v 405.490936 -4.586006 6.888596
v 405.357910 -4.342732 6.586125
v 406.199341 -5.598690 5.762697
v 406.066132 -5.355124 5.459905
v 405.158081 -6.252274 5.694862
v 405.025024 -6.008812 5.392235
v 404.450439 -5.239483 6.820831
v 404.317352 -4.996042 6.518177
v 404.358795 -5.495145 6.656139
v 404.225403 -5.251134 6.352782
v 405.776428 -4.606313 6.747534
v 405.642944 -4.362302 6.444129
v 404.875397 -6.233461 5.834927
v 404.742004 -5.989530 5.531701
v 406.292145 -5.344946 5.926353
v 406.158722 -5.101093 5.623203
v 405.914001 -5.870775 5.698397
v 405.766876 -5.601837 5.364073
v 405.530701 -6.111220 5.673473
v 405.383667 -5.842372 5.339281
v 404.749512 -4.992901 6.916451
v 404.602539 -4.724249 6.582426
v 405.132324 -4.752520 6.941339
v 404.985474 -4.483944 6.607402
v 406.018829 -4.807188 6.507723
v 405.871765 -4.538350 6.173466
v 406.208130 -5.078567 6.206057
v 406.061127 -4.809805 5.871924
v 404.646576 -6.057848 6.105337
v 404.499542 -5.788991 5.771129
v 404.456726 -5.786665 6.407050
v 404.309692 -5.517746 6.072728
vn 0.7890 0.4815 0.3816
vn 0.6164 -0.5732 0.5398
vn -0.6154 0.5741 -0.5401
vn 0.0080 0.5387 -0.8425
vn 0.2691 -0.8439 -0.4641
vn -0.9709 -0.2213 -0.0920
vn 0.5947 -0.5969 0.5386
vn -0.8348 -0.4765 0.2757
vn 0.3818 -0.2940 0.8762
vn 0.7692 0.5002 0.3977
vn -0.6102 -0.7915 -0.0348
vn 0.9743 0.2211 0.0418
vn 0.0024 -0.5625 0.8268
vn 0.7624 0.5250 0.3783
vn -0.8172 -0.4953 0.2948
vn -0.1177 0.5771 0.8081
vn -0.6632 0.6059 0.4393
vn -0.8076 -0.5200 0.2781
vn -0.5942 0.5974 -0.5385
vn -0.2987 0.8346 0.4628
vn -0.1363 0.5374 0.8322
vn 0.6842 -0.5835 -0.4374
vn -0.5416 0.3113 0.7809
vn -0.7695 -0.4997 -0.3976
vn 0.2987 -0.8347 -0.4627
vn 0.5004 -0.3095 -0.8086
vn -0.1099 0.5527 0.8261
vn 0.6812 -0.5668 -0.4634
vn -0.2575 0.8324 0.4907
vn 0.6093 -0.5567 0.5647
vn 0.6629 -0.6062 -0.4393
vn 0.6249 -0.6628 -0.4126
vn 0.2858 -0.3781 0.8806
vn 0.3984 -0.3338 0.8543
vn 0.3331 -0.3187 0.8874
vn 0.2556 -0.3580 0.8980
vn -0.1994 0.8348 -0.5132
vn -0.2552 0.4872 0.8352
vn -0.2516 0.4532 0.8552
vn -0.1821 0.5047 0.8439
vn -0.1652 0.5665 0.8073
vn -0.6227 -0.7801 -0.0614
vn 0.6257 0.7800 0.0111
vn 0.2299 -0.8256 0.5153
vn -0.0176 0.5222 -0.8526
vn -0.3004 0.8191 -0.4886
vn 0.3114 -0.2999 0.9017
vn -0.1724 0.4765 0.8621
vn 0.6673 -0.4751 -0.5736
vn 0.6789 -0.5307 -0.5073
vn 0.6467 -0.5920 -0.4809
vn 0.6450 -0.5077 -0.5712
vn -0.2964 0.5922 0.7493
vn -0.1745 0.6615 0.7294
vn 0.9490 0.3120 -0.0454
vn 0.9631 0.2610 0.0664
vn 0.9684 0.2492 -0.0068
vn 0.9525 0.2937 -0.0807
vn 0.1891 -0.8233 -0.5351
vn -0.1008 0.6362 0.7649
vn -0.8910 -0.4181 0.1768
vn -0.8289 -0.5063 0.2380
vn -0.8638 -0.4406 0.2445
vn -0.9036 -0.3830 0.1918
vn 0.7231 0.5875 0.3632
vn -0.5982 0.3244 0.7327
vn -0.6234 -0.7700 -0.1362
vn 0.6985 -0.5064 -0.5057
vn 0.9725 0.2308 -0.0328
vn -0.1284 0.6208 0.7734
vn -0.1450 0.6836 0.7154
vn -0.8725 -0.4134 0.2603
vn 0.2317 -0.7671 -0.5982
vn 0.2983 -0.8106 -0.5039
vn 0.2322 -0.8112 -0.5367
vn 0.1933 -0.7726 -0.6047
vn 0.3642 -0.7171 -0.5942
vn 0.4132 -0.7769 -0.4751
vn -0.6184 0.3862 0.6845
vn -0.5743 0.3403 0.7445
vn -0.5130 0.3479 0.7848
vn -0.5871 0.4023 0.7025
vn -0.0076 -0.5387 0.8425
vn 0.0180 -0.5218 0.8529
vn 0.1178 -0.5770 -0.8082
vn -0.5250 0.2928 0.7991
vn -0.5005 0.3093 0.8086
vn 0.1362 -0.5379 -0.8319
vn 0.1759 -0.4805 -0.8592
vn -0.4917 0.6725 -0.5532
vn -0.5717 0.5816 -0.5787
vn -0.5564 0.6381 -0.5322
vn -0.4926 0.6969 -0.5212
vn 0.4331 -0.7855 -0.4420
vn 0.3530 -0.8177 -0.4548
vn -0.6257 0.6653 0.4074
vn 0.3001 -0.8192 0.4887
vn -0.3116 0.2992 -0.9019
vn -0.3821 0.2934 -0.8763
vn 0.2513 -0.4531 -0.8553
vn 0.2548 -0.4870 -0.8354
vn 0.1647 -0.5664 -0.8075
vn 0.1817 -0.5046 -0.8440
vn -0.4275 0.2961 -0.8542
vn -0.7622 -0.5247 -0.3791
vn -0.6844 0.5836 0.4371
vn 0.8345 0.4770 -0.2758
vn -0.1844 0.8228 -0.5377
vn 0.5250 -0.2924 -0.7993
vn -0.4087 0.2772 -0.8695
vn -0.0022 0.5624 -0.8268
vn -0.9744 -0.2210 -0.0411
vn 0.1099 -0.5527 -0.8261
vn -0.2689 0.8440 0.4641
vn -0.2307 0.8253 -0.5155
vn -0.4332 0.7853 0.4422
vn -0.4135 0.7766 0.4753
vn -0.2986 0.8104 0.5041
vn -0.3531 0.8175 0.4550
vn 0.5418 -0.3109 -0.7809
vn -0.6813 0.5666 0.4634
vn -0.9319 -0.2962 -0.2091
vn -0.9334 -0.3138 -0.1739
vn -0.9629 -0.2613 -0.0668
vn -0.9577 -0.2515 -0.1398
vn -0.4539 0.5934 -0.6647
vn -0.5574 0.4959 -0.6659
vn 0.0414 -0.6713 0.7400
vn 0.0688 -0.6491 0.7576
vn 0.0489 -0.5531 0.8317
vn 0.0169 -0.6081 0.7937
vn -0.8464 -0.5242 0.0937
vn -0.7745 -0.6042 0.1871
vn 0.7157 0.6325 0.2961
vn 0.7453 0.5686 0.3482
vn 0.7898 0.5089 0.3423
vn 0.7432 0.6067 0.2822
vn -0.1045 0.7612 -0.6400
vn -0.1434 0.7556 -0.6392
vn -0.2221 0.8008 -0.5563
vn -0.1520 0.8007 -0.5795
vn 0.3658 -0.4676 0.8047
vn 0.4829 -0.3895 0.7843
vn 0.4275 -0.2960 0.8542
vn -0.6096 0.5561 -0.5649
vn 0.9768 0.2029 0.0682
vn -0.9582 -0.2328 -0.1664
vn -0.0089 -0.6236 0.7817
vn 0.8291 0.4175 0.3720
vn 0.5164 -0.3735 0.7706
vn 0.4651 -0.3272 0.8226
vn 0.6373 0.7679 -0.0637
vn -0.6200 0.4952 -0.6086
vn -0.7665 -0.5832 0.2689
vn -0.5792 0.4634 -0.6706
vn -0.5999 0.5198 -0.6082
vn -0.7496 -0.6293 0.2049
vn -0.7857 -0.5655 0.2508
vn 0.2574 -0.8325 -0.4906
vn -0.9766 -0.2039 -0.0677
vn 0.8175 0.4948 -0.2946
vn 0.6098 0.7918 0.0346
vn 0.1997 -0.8351 0.5125
vn 0.4084 -0.2772 0.8697
vn -0.6260 -0.7798 -0.0110
vn 0.1845 -0.8231 0.5370
vn 0.8077 0.5195 -0.2788
vn 0.4924 -0.6971 0.5211
vn 0.5562 -0.6381 0.5324
vn 0.5717 -0.5819 0.5784
vn 0.4916 -0.6728 0.5528
vn 0.9708 0.2217 0.0921
vn -0.6668 -0.7219 -0.1850
vn -0.6405 -0.7600 -0.1105
vn -0.6556 -0.7542 -0.0380
vn -0.6850 -0.7128 -0.1508
vn -0.7889 -0.4820 -0.3813
vn -0.2557 0.3579 -0.8981
vn -0.3331 0.3186 -0.8875
vn -0.3982 0.3335 -0.8546
vn -0.2857 0.3778 -0.8807
vn 0.6233 0.7795 0.0621
vn 0.7503 0.6285 -0.2050
vn 0.7750 0.6035 -0.1873
vn 0.8291 0.5060 -0.2379
vn 0.7864 0.5646 -0.2506
vn 0.9151 0.3986 0.0611
vn 0.9336 0.3135 0.1733
vn 0.6204 -0.4951 0.6083
vn 0.0085 0.6230 -0.7822
vn 0.9322 0.2959 0.2086
vn 0.9579 0.2510 0.1394
vn -0.0607 0.4899 -0.8696
vn -0.1284 0.4380 -0.8898
vn -0.1347 0.4726 -0.8709
vn -0.0489 0.5526 -0.8320
vn 0.2835 -0.8092 0.5146
vn 0.3649 -0.7771 0.5128
vn 0.3406 -0.7676 0.5430
vn 0.2223 -0.8011 0.5558
vn 0.1874 -0.5794 0.7932
vn 0.1347 -0.4729 0.8708
vn -0.2755 0.7053 -0.6532
vn -0.3405 0.7673 -0.5435
vn -0.6249 0.6471 0.4369
vn -0.6466 0.5920 0.4811
vn -0.5639 0.6822 0.4654
vn -0.5603 0.7057 0.4337
vn 0.4534 -0.3336 -0.8265
vn 0.5129 -0.3475 -0.7850
vn 0.4053 -0.3924 -0.8257
vn 0.3783 -0.3732 -0.8471
vn -0.0506 0.4625 -0.8852
vn -0.1672 0.3607 -0.9176
vn 0.5608 -0.6558 0.5054
vn 0.4451 -0.7590 0.4751
vn -0.3649 0.8288 0.4242
vn -0.5069 0.7679 0.3917
vn 0.6248 -0.6472 -0.4368
vn 0.5602 -0.7058 -0.4336
vn 0.5639 -0.6824 -0.4652
vn -0.3650 0.7768 -0.5131
vn -0.2834 0.8090 -0.5149
vn 0.4358 -0.3169 -0.8424
vn 0.2951 -0.3793 -0.8769
vn 0.5423 -0.6054 -0.5826
vn -0.4055 0.3927 0.8254
vn -0.4741 0.4806 0.7378
vn -0.4331 0.3132 0.8452
vn -0.2923 0.3755 0.8795
vn 0.0510 -0.4624 0.8852
vn 0.1672 -0.3612 0.9174
vn -0.5607 0.6562 -0.5051
vn -0.4455 0.7589 -0.4750
vn -0.4536 0.3340 0.8262
vn -0.3785 0.3735 0.8469
vn 0.1282 -0.4381 0.8898
vn 0.0605 -0.4899 0.8697
vn 0.3649 -0.8260 -0.4296
vn 0.5063 -0.7657 -0.3967
vn -0.3655 0.4669 -0.8052
vn -0.1872 0.5787 -0.7938
vn -0.0687 0.6485 -0.7581
vn 0.4541 -0.5940 0.6640
vn 0.2757 -0.7058 0.6525
vn 0.1436 -0.7560 0.6386
vn 0.8230 0.4439 0.3543
vn 0.8691 0.3861 0.3092
vn 0.8590 0.4203 0.2923
vn -0.1206 0.8082 -0.5764
vn -0.0278 0.7342 -0.6784
vn 0.4914 -0.3101 0.8139
vn 0.5846 -0.3859 0.7137
vn 0.8268 0.5251 0.2017
vn 0.6516 0.7577 -0.0363
vn 0.6558 0.7540 0.0376
vn 0.7003 0.7105 -0.0686
vn 0.6872 0.7189 -0.1047
vn -0.6512 -0.7581 0.0356
vn -0.6867 -0.7194 0.1043
vn -0.6999 -0.7110 0.0680
vn -0.4649 0.3266 -0.8229
vn -0.5161 0.3730 -0.7711
vn -0.4826 0.3889 -0.7848
vn -0.6375 -0.7679 0.0629
vn -0.6921 -0.6962 0.1905
vn -0.4908 0.3098 -0.8143
vn -0.5841 0.3854 -0.7144
vn 0.7668 0.5827 -0.2692
vn 0.6924 0.6956 -0.1914
vn 0.6001 -0.5200 0.6079
vn 0.5795 -0.4637 0.6702
vn 0.5576 -0.4964 0.6653
vn 0.9583 0.2326 0.1661
vn 0.9057 0.3057 0.2937
vn 0.1211 -0.8084 0.5760
vn 0.0283 -0.7345 0.6780
vn -0.8287 -0.4180 -0.3722
vn -0.9054 -0.3062 -0.2943
vn -0.0171 0.6074 -0.7942
vn -0.0414 0.6708 -0.7405
vn -0.7579 -0.6506 -0.0469
vn 0.1520 -0.8010 0.5790
vn 0.1046 -0.7616 0.6396
vn -0.8225 -0.4444 -0.3549
vn -0.7895 -0.5092 -0.3427
vn -0.8586 -0.4208 -0.2930
vn -0.8687 -0.3865 -0.3098
vn -0.8263 -0.5256 -0.2024
vn -0.9148 -0.3991 -0.0618
vn -0.7430 -0.6068 -0.2825
vn 0.7584 0.6502 0.0462
vn 0.8467 0.5236 -0.0943
vn 0.6852 0.7127 0.1505
vn -0.5423 0.6053 0.5827
vn -0.3645 0.7169 0.5943
vn -0.6448 0.5078 0.5712
vn 0.4740 -0.4804 -0.7380
vn 0.2959 -0.5922 -0.7495
vn 0.5871 -0.4020 -0.7026
vn 0.8910 0.4181 -0.1770
vn -0.7455 -0.5683 -0.3483
vn -0.7158 -0.6323 -0.2962
vn 0.6407 0.7598 0.1105
vn 0.6668 0.7219 0.1850
vn -0.9489 -0.3122 0.0450
vn -0.6787 0.5309 0.5074
vn -0.6671 0.4753 0.5736
vn 0.1740 -0.6615 -0.7295
vn 0.1446 -0.6836 -0.7154
vn 0.1280 -0.6206 -0.7736
vn -0.9725 -0.2306 0.0336
vn -0.9381 -0.3018 0.1699
vn -0.2322 0.7669 0.5983
vn -0.1937 0.7725 0.6048
vn -0.2326 0.8110 0.5368
vn 0.8725 0.4135 -0.2604
vn 0.9380 0.3024 -0.1696
vn 0.5984 -0.3239 -0.7328
vn 0.6778 -0.3981 -0.6181
vn -0.7234 -0.5874 -0.3630
vn -0.6599 -0.7001 -0.2727
vn -0.6980 0.5069 0.5058
vn -0.6777 0.3979 0.6184
vn 0.6236 0.7698 0.1363
vn 0.6599 0.7001 0.2726
vn -0.9525 -0.2937 0.0805
vn -0.9683 -0.2497 0.0065
vn -0.2004 0.8188 0.5379
vn -0.1224 0.7464 0.6541
vn 0.0884 -0.6392 -0.7639
vn 0.1106 -0.7501 -0.6521
vn 0.9035 0.3834 -0.1916
vn 0.8636 0.4410 -0.2442
vn 0.5745 -0.3399 -0.7446
vn 0.6185 -0.3859 -0.6846
vt 0.889589 0.291957
vt 0.874307 0.291963
vt 0.874261 0.306421
vt 0.889531 0.306470
vt 0.884891 0.795973
vt 0.912397 0.826844
vt 0.954654 0.818011
vt 0.933461 0.768839
vt 0.910832 0.822763
vt 0.870011 0.830072
vt 0.870010 0.778071
vt 0.917344 0.778071
vt 0.953757 0.779052
vt 0.953757 0.832626
vt 0.911531 0.823947
vt 0.898391 0.784804
vt 0.910644 0.825777
vt 0.897827 0.786997
vt 0.852140 0.813534
vt 0.883396 0.856386
vt 0.906772 0.476654
vt 0.891428 0.476664
vt 0.891366 0.462192
vt 0.906710 0.462129
vt 0.923715 0.675516
vt 0.939025 0.675508
vt 0.939016 0.688800
vt 0.923706 0.688808
vt 0.922393 0.104872
vt 0.922478 0.118111
vt 0.907373 0.118119
vt 0.907288 0.104969
vt 0.908008 0.675666
vt 0.907986 0.662374
vt 0.923297 0.662349
vt 0.923303 0.675640
vt 0.904678 0.779337
vt 0.852855 0.799652
vt 0.881545 0.852622
vt 0.911229 0.824040
vt 0.952887 0.834619
vt 0.952887 0.781254
vt 0.923711 0.662272
vt 0.939022 0.662268
vt 0.868806 0.834160
vt 0.868575 0.848632
vt 0.853258 0.848387
vt 0.853490 0.833933
vt 0.923248 0.688880
vt 0.907953 0.688817
vt 0.911858 0.772699
vt 0.918341 0.817426
vt 0.888619 0.845959
vt 0.860003 0.792904
vt 0.955004 0.476051
vt 0.955005 0.489291
vt 0.939704 0.489283
vt 0.939704 0.476052
vt 0.891311 0.449018
vt 0.906655 0.448955
vt 0.889520 0.132573
vt 0.889455 0.118045
vt 0.874185 0.118106
vt 0.874243 0.132579
vt 0.922581 0.303937
vt 0.907477 0.303945
vt 0.907466 0.290771
vt 0.922556 0.290763
vt 0.906842 0.650564
vt 0.906793 0.663856
vt 0.891454 0.663798
vt 0.891502 0.650506
vt 0.874217 0.319713
vt 0.889499 0.319763
vt 0.853570 0.838864
vt 0.899595 0.865638
vt 0.853701 0.820695
vt 0.869017 0.820939
vt 0.911352 0.826377
vt 0.898471 0.787710
vt 0.953585 0.781947
vt 0.953585 0.834973
vt 0.888335 0.677669
vt 0.873061 0.677731
vt 0.873114 0.690905
vt 0.888387 0.690844
vt 0.905583 0.834595
vt 0.890241 0.834537
vt 0.890292 0.821245
vt 0.905634 0.821303
vt 0.952450 0.831293
vt 0.929174 0.882086
vt 0.939699 0.305369
vt 0.955016 0.305360
vt 0.955017 0.318600
vt 0.939699 0.318600
vt 0.939600 0.690810
vt 0.939601 0.677672
vt 0.954902 0.677680
vt 0.954900 0.690812
vt 0.939691 0.291429
vt 0.955010 0.291420
vt 0.888365 0.490503
vt 0.888409 0.477211
vt 0.873130 0.477160
vt 0.873086 0.490452
vt 0.888304 0.557522
vt 0.888313 0.504395
vt 0.873034 0.504393
vt 0.873027 0.557520
vt 0.073597 0.831815
vt 0.031747 0.831811
vt 0.031747 0.820423
vt 0.073597 0.820423
vt 0.951704 0.831812
vt 0.910527 0.824554
vt 0.903932 0.779856
vt 0.951704 0.779855
vt 0.281458 0.702592
vt 0.281458 0.749268
vt 0.094162 0.749268
vt 0.094162 0.702592
vt 0.939165 0.489646
vt 0.939169 0.502886
vt 0.923858 0.502890
vt 0.923855 0.489646
vt 0.891545 0.636049
vt 0.906885 0.636038
vt 0.923871 0.476472
vt 0.939181 0.476472
vt 0.923748 0.118163
vt 0.923743 0.104872
vt 0.939054 0.104885
vt 0.939058 0.118177
vt 0.907619 0.423339
vt 0.922851 0.423322
vt 0.922978 0.476449
vt 0.907684 0.476468
vt 0.922963 0.742007
vt 0.907732 0.741944
vt 0.874286 0.238835
vt 0.889566 0.238829
vt 0.140114 0.971937
vt 0.098722 0.971937
vt 0.098722 0.961588
vt 0.140114 0.961588
vt 0.281458 0.515185
vt 0.094162 0.515185
vt 0.434969 0.983096
vt 0.377846 0.983096
vt 0.377846 0.998076
vt 0.434969 0.998076
vt 0.872212 0.582987
vt 0.872013 0.636146
vt 0.856709 0.636089
vt 0.856908 0.582930
vt 0.939667 0.556898
vt 0.939696 0.503739
vt 0.954995 0.503747
vt 0.954966 0.556906
vt 0.434817 0.813253
vt 0.377632 0.813253
vt 0.377632 0.797702
vt 0.434817 0.797702
vt 0.923208 0.609190
vt 0.907898 0.609215
vt 0.853875 0.158205
vt 0.853258 0.105050
vt 0.868576 0.104872
vt 0.869193 0.158027
vt 0.939181 0.423313
vt 0.923870 0.423313
vt 0.954978 0.238261
vt 0.939658 0.238270
vt 0.923734 0.741967
vt 0.939045 0.741959
vt 0.047304 0.702591
vt 0.047304 0.515184
vt 0.907407 0.184453
vt 0.907377 0.131294
vt 0.922467 0.131286
vt 0.922496 0.184445
vt 0.140114 0.837484
vt 0.098722 0.837484
vt 0.098722 0.827226
vt 0.140114 0.827226
vt 0.140114 0.878852
vt 0.098722 0.878852
vt 0.702493 0.515184
vt 0.702493 0.702591
vt 0.656049 0.702591
vt 0.656049 0.515184
vt 0.959200 0.772699
vt 0.959198 0.824707
vt 0.872489 0.449577
vt 0.872460 0.462714
vt 0.857155 0.462674
vt 0.857184 0.449543
vt 0.935779 0.875367
vt 0.889409 0.104872
vt 0.874133 0.104932
vt 0.905389 0.278146
vt 0.905442 0.291321
vt 0.890095 0.291383
vt 0.890042 0.278209
vt 0.905342 0.211126
vt 0.905339 0.264254
vt 0.889992 0.264254
vt 0.889996 0.211126
vt 0.683973 0.850674
vt 0.650228 0.850676
vt 0.650228 0.841484
vt 0.683973 0.841484
vt 0.088412 0.878852
vt 0.088412 0.837484
vt 0.891467 0.529792
vt 0.906810 0.529782
vt 0.939120 0.556014
vt 0.923809 0.556018
vt 0.923821 0.237556
vt 0.939131 0.237563
vt 0.939171 0.290690
vt 0.923861 0.290683
vt 0.923855 0.303821
vt 0.939165 0.303821
vt 0.939181 0.316995
vt 0.923871 0.316995
vt 0.233124 0.878852
vt 0.222899 0.878852
vt 0.222899 0.837484
vt 0.233124 0.837484
vt 0.872610 0.476670
vt 0.857306 0.476613
vt 0.940400 0.851353
vt 0.893070 0.880576
vt 0.923742 0.131301
vt 0.939052 0.131308
vt 0.939609 0.663216
vt 0.954908 0.663224
vt 0.884510 0.854467
vt 0.852855 0.811578
vt 0.932885 0.883931
vt 0.884167 0.856971
vt 0.939586 0.118012
vt 0.954903 0.118003
vt 0.954913 0.131943
vt 0.939594 0.131952
vt 0.907490 0.317083
vt 0.922595 0.317068
vt 0.852855 0.814479
vt 0.928856 0.882455
vt 0.881024 0.853211
vt 0.907722 0.502897
vt 0.907700 0.489605
vt 0.922994 0.489580
vt 0.923032 0.502872
vt 0.281458 0.094079
vt 0.281458 0.140371
vt 0.094162 0.140371
vt 0.094162 0.094079
vt 0.939584 0.104874
vt 0.954901 0.104872
vt 0.870595 0.278810
vt 0.870727 0.291948
vt 0.855410 0.292101
vt 0.855278 0.278971
vt 0.563313 0.869712
vt 0.549187 0.869713
vt 0.549187 0.813253
vt 0.563313 0.813253
vt 0.683973 0.884036
vt 0.650228 0.884049
vt 0.167675 0.873216
vt 0.157298 0.873212
vt 0.157298 0.831823
vt 0.167676 0.831824
vt 0.434817 0.869712
vt 0.377632 0.869712
vt 0.434969 0.798370
vt 0.377846 0.798370
vt 0.377846 0.813904
vt 0.434969 0.813904
vt 0.759907 0.884004
vt 0.751464 0.884008
vt 0.751465 0.850668
vt 0.759907 0.850668
vt 0.073597 0.873176
vt 0.031747 0.873158
vt 0.870427 0.264338
vt 0.855109 0.264516
vt 0.954654 0.871373
vt 0.890905 0.396473
vt 0.906251 0.396410
vt 0.854602 0.768219
vt 0.869914 0.768400
vt 0.873855 0.372195
vt 0.889136 0.372246
vt 0.021276 0.873153
vt 0.021276 0.831810
vt 0.906407 0.716338
vt 0.891067 0.716280
vt 0.871314 0.344491
vt 0.856001 0.344582
vt 0.889188 0.795933
vt 0.873913 0.795994
vt 0.874313 0.848539
vt 0.889589 0.848478
vt 0.641860 0.884053
vt 0.641860 0.850677
vt 0.363389 0.869713
vt 0.363389 0.813253
vt 0.856454 0.650026
vt 0.871759 0.650100
vt 0.871710 0.663323
vt 0.856405 0.663266
vt 0.969157 0.798354
vt 0.932942 0.881398
vt 0.852140 0.800256
vt 0.932014 0.883472
vt 0.952450 0.779337
vt 0.873012 0.663775
vt 0.888286 0.663777
vt 0.890182 0.848478
vt 0.905525 0.848487
vt 0.073596 0.966882
vt 0.031747 0.966833
vt 0.031747 0.955851
vt 0.073597 0.955897
vt 0.434817 0.997626
vt 0.377632 0.997626
vt 0.377632 0.982631
vt 0.434817 0.982631
vt 0.683973 0.959621
vt 0.650227 0.959660
vt 0.650227 0.950796
vt 0.683973 0.950760
vt 0.563325 0.926699
vt 0.549215 0.926699
vt 0.549215 0.983096
vt 0.563325 0.983096
vt 0.434969 0.926699
vt 0.377846 0.926699
vt 0.955013 0.371083
vt 0.939701 0.371084
vt 0.939589 0.795777
vt 0.954901 0.795779
vt 0.954901 0.848263
vt 0.939584 0.848261
vt 0.363619 0.926699
vt 0.363619 0.983096
vt 0.751463 0.959541
vt 0.717718 0.959581
vt 0.717718 0.950723
vt 0.751463 0.950686
vt 0.157296 0.966982
vt 0.115446 0.966932
vt 0.115446 0.955943
vt 0.157296 0.955989
vt 0.115447 0.873194
vt 0.115448 0.831819
vt 0.717719 0.884022
vt 0.717719 0.850671
vt 0.656049 0.094079
vt 0.656049 0.140371
vt 0.468753 0.140371
vt 0.468754 0.094079
vt 0.233124 0.961588
vt 0.222899 0.961588
vt 0.222899 0.920220
vt 0.233124 0.920220
vt 0.939092 0.184435
vt 0.923781 0.184429
vt 0.923760 0.609145
vt 0.939071 0.609141
vt 0.891506 0.582920
vt 0.906847 0.582910
vt 0.088412 0.961588
vt 0.088412 0.920220
vt 0.098722 0.920220
vt 0.717719 0.841485
vt 0.751465 0.841486
vt 0.905348 0.104872
vt 0.905345 0.157999
vt 0.890000 0.157999
vt 0.890005 0.104872
vt 0.140114 0.920220
vt 0.468754 0.702591
vt 0.468753 0.515184
vt 0.874265 0.185707
vt 0.889543 0.185701
vt 0.922393 0.848260
vt 0.907288 0.848200
vt 0.907510 0.795072
vt 0.922678 0.795133
vt 0.922723 0.370195
vt 0.907555 0.370211
vt 0.656049 0.749268
vt 0.468754 0.749268
vt 0.115448 0.820423
vt 0.157299 0.820423
vt 0.888295 0.610649
vt 0.873020 0.610648
vt 0.683973 0.917397
vt 0.717718 0.917372
vt 0.751464 0.917347
vt 0.073597 0.914536
vt 0.115447 0.914568
vt 0.157297 0.914600
vt 0.363619 0.813904
vt 0.363619 0.870301
vt 0.377846 0.870301
vt 0.954901 0.743295
vt 0.939595 0.743294
vt 0.939702 0.423568
vt 0.955009 0.423567
vt 0.434969 0.870301
vt 0.563325 0.813904
vt 0.549215 0.813904
vt 0.549215 0.870301
vt 0.563325 0.870301
vt 0.363389 0.982631
vt 0.363389 0.926172
vt 0.377632 0.926172
vt 0.641860 0.950805
vt 0.641860 0.917429
vt 0.650228 0.917423
vt 0.873513 0.743449
vt 0.888788 0.743388
vt 0.856593 0.397062
vt 0.871901 0.397034
vt 0.890679 0.768763
vt 0.906021 0.768820
vt 0.021276 0.955839
vt 0.021276 0.914496
vt 0.031747 0.914504
vt 0.888772 0.424728
vt 0.873493 0.424678
vt 0.870812 0.715861
vt 0.855504 0.715742
vt 0.905847 0.343865
vt 0.890500 0.343928
vt 0.759906 0.950677
vt 0.759906 0.917341
vt 0.434817 0.926172
vt 0.167674 0.956000
vt 0.167675 0.914608
vt 0.563313 0.982631
vt 0.549187 0.982631
vt 0.549187 0.926172
vt 0.563313 0.926172
vt 0.492002 0.926172
vt 0.492002 0.869712
vt 0.492002 0.982631
vt 0.492092 0.870301
vt 0.492092 0.926699
vt 0.492092 0.813904
vt 0.468753 0.327778
vt 0.281458 0.327778
vt 0.656049 0.327777
vt 0.181507 0.920220
vt 0.181507 0.878852
vt 0.181507 0.961588
vt 0.492092 0.983096
vt 0.549187 0.997626
vt 0.492002 0.997626
vt 0.549215 0.798370
vt 0.492092 0.798370
vt 0.492002 0.813253
vt 0.702494 0.140371
vt 0.702493 0.327778
vt 0.181507 0.837484
vt 0.181507 0.827226
vt 0.222899 0.827226
vt 0.907437 0.237612
vt 0.922526 0.237604
vt 0.094162 0.327778
vt 0.047304 0.327778
vt 0.047304 0.140371
vt 0.923791 0.848285
vt 0.923763 0.795126
vt 0.939073 0.795118
vt 0.939101 0.848277
vt 0.954945 0.185102
vt 0.939626 0.185111
vt 0.939181 0.370154
vt 0.923870 0.370154
vt 0.854492 0.211360
vt 0.869810 0.211183
vt 0.923120 0.556031
vt 0.907810 0.556056
vt 0.492002 0.797702
vt 0.549187 0.797702
vt 0.939638 0.610057
vt 0.954937 0.610065
vt 0.872411 0.529829
vt 0.857107 0.529772
vt 0.492092 0.998076
vt 0.549215 0.998076
vt 0.222899 0.971937
vt 0.181507 0.971937
s 1
g LinksiderMesh_Material
usemtl Material
f 17/1/1 22/2/1 83/3/1 113/4/1
f 6/5/2 127/6/2 11/7/2 34/8/2
f 4/9/3 118/10/3 63/11/3 115/12/3
f 61/13/4 7/14/4 2/15/4 120/16/4
f 128/17/5 123/18/5 97/19/5 112/20/5
f 45/21/6 50/22/6 88/23/6 12/24/6
f 11/25/7 40/26/7 27/27/7 34/28/7
f 49/29/8 53/30/8 14/31/8 48/32/8
f 8/33/9 31/34/9 28/35/9 39/36/9
f 8/37/10 17/38/10 113/39/10 125/40/10
f 9/41/11 43/42/11 123/18/11 128/17/11
f 11/25/12 20/43/12 18/44/12 40/26/12
f 111/45/13 36/46/13 32/47/13 86/48/13
f 39/36/14 19/49/14 17/50/14 8/33/14
f 14/51/15 126/52/15 114/53/15 48/54/15
f 82/55/16 85/56/16 5/57/16 79/58/16
f 12/24/17 88/23/17 77/59/17 80/60/17
f 48/61/18 114/62/18 87/63/18 44/64/18
f 70/65/19 115/66/19 63/67/19 57/68/19
f 13/69/20 72/70/20 74/71/20 84/72/20
f 73/73/21 79/74/21 113/4/21 83/3/21
f 6/5/22 91/75/22 121/76/22 127/6/22
f 86/48/23 78/77/23 71/78/23 111/45/23
f 1/79/24 124/80/24 51/81/24 116/82/24
f 123/83/25 108/84/25 102/85/25 97/86/25
f 122/87/26 106/88/26 100/89/26 98/90/26
f 5/91/27 125/40/27 113/39/27 79/92/27
f 6/93/28 95/94/28 94/95/28 91/96/28
f 72/97/29 117/98/29 90/99/29 81/100/29
f 34/101/30 38/102/30 95/94/30 6/93/30
f 121/103/31 91/104/31 99/105/31 105/106/31
f 147/107/32 20/108/32 24/109/32 153/110/32
f 163/111/33 83/112/34 22/113/35 149/114/36
f 117/115/37 3/116/37 10/117/37 68/118/37
f 142/119/38 134/120/39 19/121/40 39/122/41
f 54/123/42 42/124/42 43/125/42 9/126/42
f 13/69/43 84/72/43 21/127/43 23/128/43
f 9/126/44 35/129/44 30/130/44 54/123/44
f 7/131/45 61/132/45 55/133/45 67/134/45
f 151/135/46 130/136/46 15/137/46 23/138/46
f 134/139/47 132/140/47 17/50/47 19/49/47
f 149/141/48 22/2/48 17/1/48 132/142/48
f 219/143/49 27/144/50 40/145/51 243/146/52
f 263/147/53 142/119/38 39/122/41 241/148/54
f 255/149/55 95/150/56 38/151/57 239/152/58
f 233/153/59 35/154/59 37/155/59 237/156/59
f 218/157/60 31/158/60 33/159/60 229/160/60
f 249/161/61 86/162/62 32/163/63 227/164/64
f 221/165/65 28/35/65 31/34/65 218/166/65
f 227/167/66 32/168/66 36/169/66 235/170/66
f 225/171/67 30/130/67 35/129/67 233/172/67
f 239/173/68 38/102/68 34/101/68 231/174/68
f 231/175/69 34/28/69 27/27/69 219/176/69
f 241/148/54 39/122/41 28/177/70 221/178/71
f 235/179/72 36/180/72 29/181/72 223/182/72
f 245/183/73 54/184/74 30/185/75 225/186/76
f 259/187/77 156/188/78 54/184/74 245/183/73
f 223/189/79 29/190/80 53/191/81 247/192/82
f 126/52/83 14/51/83 36/193/83 111/194/83
f 53/30/84 29/181/84 36/180/84 14/31/84
f 92/195/85 119/196/85 110/197/85 101/198/85
f 114/53/86 126/52/86 111/194/86 71/199/86
f 71/200/87 76/201/87 87/63/87 114/62/87
f 124/202/88 92/203/88 103/204/88 109/205/88
f 137/206/89 51/207/89 52/208/89 139/209/89
f 161/210/90 88/211/91 50/212/92 135/213/93
f 156/188/78 146/214/94 42/215/95 54/184/74
f 135/216/96 50/22/96 45/21/96 152/217/96
f 146/218/97 148/219/97 43/125/97 42/124/97
f 137/220/98 144/221/98 41/222/98 51/223/98
f 116/224/99 69/225/99 58/226/99 62/227/99
f 144/228/100 158/229/101 69/230/102 41/231/103
f 119/196/104 62/232/104 64/233/104 110/197/104
f 116/224/105 51/223/105 41/222/105 69/225/105
f 4/9/106 12/234/106 80/235/106 118/10/106
f 25/236/107 7/131/107 67/134/107 16/237/107
f 117/98/108 68/238/108 60/239/108 90/99/108
f 2/15/109 122/240/109 98/241/109 120/16/109
f 62/242/110 119/243/110 1/79/110 116/82/110
f 120/244/111 96/245/111 65/246/111 61/247/111
f 45/248/112 115/66/112 70/65/112 47/249/112
f 1/79/113 119/243/113 92/250/113 124/80/113
f 117/115/114 72/251/114 13/252/114 3/116/114
f 68/253/115 10/254/115 66/255/115 56/256/115
f 130/257/116 160/258/117 66/259/118 15/260/119
f 120/244/120 98/261/120 93/262/120 96/245/120
f 118/263/121 80/264/121 75/265/121 89/266/121
f 178/267/122 196/268/123 89/269/124 75/270/125
f 216/271/126 194/272/127 88/211/91 161/210/90
f 180/273/128 192/274/129 87/275/130 76/276/131
f 271/277/132 190/278/133 86/162/62 249/161/61
f 229/279/134 33/280/135 85/281/136 251/282/137
f 176/283/138 188/284/139 84/285/140 74/286/141
f 212/287/142 186/288/143 83/112/34 163/111/33
f 85/56/144 33/159/144 31/158/144 5/57/144
f 63/289/145 118/263/145 89/266/145 59/290/145
f 11/7/146 127/6/146 121/76/146 20/291/146
f 182/292/147 199/293/147 80/60/147 77/59/147
f 184/294/148 170/295/148 71/78/148 78/77/148
f 174/296/149 197/297/149 79/74/149 73/73/149
f 186/288/143 174/298/150 73/299/151 83/112/34
f 172/300/152 176/301/152 74/71/152 72/70/152
f 199/302/153 178/303/153 75/265/153 80/264/153
f 170/304/154 180/305/154 76/306/154 71/307/154
f 194/272/127 182/308/155 77/309/156 88/211/91
f 190/278/133 184/310/157 78/311/158 86/162/62
f 107/312/159 112/313/159 97/314/159 104/315/159
f 12/234/160 4/9/160 115/12/160 45/316/160
f 2/15/161 7/14/161 25/317/161 122/240/161
f 10/117/162 3/116/162 13/252/162 23/318/162
f 128/17/163 112/20/163 35/319/163 9/41/163
f 8/37/164 125/40/164 5/91/164 31/320/164
f 46/321/165 108/84/165 123/83/165 43/322/165
f 112/313/166 107/312/166 37/155/166 35/154/166
f 26/323/167 106/88/167 122/87/167 25/324/167
f 153/325/168 24/326/169 105/327/170 165/328/171
f 105/106/172 24/109/172 20/108/172 121/103/172
f 237/329/173 37/330/174 107/331/175 253/332/176
f 109/205/177 52/208/177 51/207/177 124/202/177
f 139/333/178 52/334/179 109/335/180 167/336/181
f 15/137/182 66/255/182 10/254/182 23/138/182
f 202/337/183 208/338/184 96/339/185 93/340/186
f 267/341/187 206/342/188 95/150/56 255/149/55
f 204/343/189 198/344/189 91/96/189 94/95/189
f 171/345/190 202/346/190 93/347/190 98/348/190
f 206/342/188 204/349/191 94/350/192 95/150/56
f 26/351/193 140/352/194 168/353/195 106/354/196
f 140/352/194 139/333/178 167/336/181 168/353/195
f 46/355/197 154/356/198 166/357/199 108/358/200
f 154/356/198 153/325/168 165/328/171 166/357/199
f 192/274/129 210/359/201 164/360/202 87/275/130
f 210/359/201 212/287/142 163/111/33 164/360/202
f 188/284/139 214/361/203 162/362/204 84/285/140
f 214/361/203 216/271/126 161/210/90 162/362/204
f 47/363/205 70/364/206 159/365/207 129/366/208
f 129/366/208 159/365/207 160/258/117 130/257/116
f 16/367/209 67/368/210 157/369/211 143/370/212
f 143/370/212 157/369/211 158/229/101 144/228/100
f 25/236/213 16/237/213 143/371/213 138/372/213
f 138/372/214 143/371/214 144/221/214 137/220/214
f 18/44/215 20/43/215 147/373/215 145/374/215
f 145/374/216 147/373/216 148/219/216 146/218/216
f 21/127/217 136/375/217 151/376/217 23/128/217
f 136/375/218 135/216/218 152/217/218 151/376/218
f 40/145/51 18/377/219 145/378/220 155/379/221
f 155/379/221 145/378/220 146/214/94 156/188/78
f 84/285/140 162/362/204 136/380/222 21/381/223
f 162/362/204 161/210/90 135/213/93 136/380/222
f 25/382/224 138/383/224 140/384/224 26/385/224
f 138/383/225 137/206/225 139/209/225 140/384/225
f 243/146/52 40/145/51 155/379/221 257/386/226
f 257/386/226 155/379/221 156/188/78 259/187/77
f 247/192/82 53/191/81 141/387/227 261/388/228
f 261/388/228 141/387/227 142/119/38 263/147/53
f 44/64/229 150/389/229 131/390/229 48/61/229
f 150/389/230 149/141/230 132/142/230 131/390/230
f 49/391/231 48/392/231 131/393/231 133/394/231
f 133/394/232 131/393/232 132/140/232 134/139/232
f 45/248/233 47/249/233 129/395/233 152/396/233
f 152/396/234 129/395/234 130/136/234 151/135/234
f 53/191/81 49/397/235 133/398/236 141/387/227
f 141/387/227 133/398/236 134/120/39 142/119/38
f 87/275/130 164/360/202 150/399/237 44/400/238
f 164/360/202 163/111/33 149/114/36 150/399/237
f 43/322/239 148/401/239 154/402/239 46/321/239
f 148/401/240 147/107/240 153/110/240 154/402/240
f 168/353/195 167/336/181 215/403/241 213/404/242
f 213/404/242 215/403/241 216/271/126 214/361/203
f 106/354/196 168/353/195 213/404/242 187/405/243
f 187/405/243 213/404/242 214/361/203 188/284/139
f 166/357/199 165/328/171 211/406/244 209/407/245
f 209/407/245 211/406/244 212/287/142 210/359/201
f 108/358/200 166/357/199 209/407/245 191/408/246
f 191/408/246 209/407/245 210/359/201 192/274/129
f 85/281/136 82/409/247 203/410/248 205/411/249
f 205/411/249 203/410/248 204/349/191 206/342/188
f 72/97/250 81/100/250 201/412/250 172/413/250
f 172/413/251 201/412/251 202/346/251 171/345/251
f 82/55/252 79/58/252 197/414/252 203/415/252
f 203/415/253 197/414/253 198/344/253 204/343/253
f 251/282/137 85/281/136 205/411/249 265/416/254
f 265/416/254 205/411/249 206/342/188 267/341/187
f 81/417/255 90/418/256 207/419/257 201/420/258
f 201/420/258 207/419/257 208/338/184 202/337/183
f 107/331/175 104/421/259 183/422/260 189/423/261
f 189/423/261 183/422/260 184/310/157 190/278/133
f 109/335/180 103/424/262 181/425/263 193/426/264
f 193/426/264 181/425/263 182/308/155 194/272/127
f 97/86/265 102/85/265 179/427/265 169/428/265
f 169/428/266 179/427/266 180/305/266 170/304/266
f 92/195/267 101/198/267 177/429/267 200/430/267
f 200/430/268 177/429/268 178/303/268 199/302/268
f 98/90/269 100/89/269 175/431/269 171/432/269
f 171/432/270 175/431/270 176/301/270 172/300/270
f 105/327/170 99/433/271 173/434/272 185/435/273
f 185/435/273 173/434/272 174/298/150 186/288/143
f 99/105/274 91/104/274 198/436/274 173/437/274
f 173/437/275 198/436/275 197/297/275 174/296/275
f 104/315/276 97/314/276 169/438/276 183/439/276
f 183/439/277 169/438/277 170/295/277 184/294/277
f 103/204/278 92/203/278 200/440/278 181/441/278
f 181/441/279 200/440/279 199/293/279 182/292/279
f 165/328/171 105/327/170 185/435/273 211/406/244
f 211/406/244 185/435/273 186/288/143 212/287/142
f 100/442/280 106/354/196 187/405/243 175/443/281
f 175/443/281 187/405/243 188/284/139 176/283/138
f 253/332/176 107/331/175 189/423/261 269/444/282
f 269/444/282 189/423/261 190/278/133 271/277/132
f 102/445/283 108/358/200 191/408/246 179/446/284
f 179/446/284 191/408/246 192/274/129 180/273/128
f 167/336/181 109/335/180 193/426/264 215/403/241
f 215/403/241 193/426/264 194/272/127 216/271/126
f 101/447/285 110/448/286 195/449/287 177/450/288
f 177/450/288 195/449/287 196/268/123 178/267/122
f 195/449/287 270/451/289 272/452/290 196/268/123
f 270/451/289 269/444/282 271/277/132 272/452/290
f 110/448/286 254/453/291 270/451/289 195/449/287
f 254/453/291 253/332/176 269/444/282 270/451/289
f 207/419/257 266/454/292 268/455/293 208/338/184
f 266/454/292 265/416/254 267/341/187 268/455/293
f 90/418/256 252/456/294 266/454/292 207/419/257
f 252/456/294 251/282/137 265/416/254 266/454/292
f 159/365/207 262/457/295 264/458/296 160/258/117
f 262/457/295 261/388/228 263/147/53 264/458/296
f 70/364/206 248/459/297 262/457/295 159/365/207
f 248/459/297 247/192/82 261/388/228 262/457/295
f 157/369/211 258/460/298 260/461/299 158/229/101
f 258/460/298 257/386/226 259/187/77 260/461/299
f 67/368/210 244/462/300 258/460/298 157/369/211
f 244/462/300 243/146/52 257/386/226 258/460/298
f 208/338/184 268/455/293 256/463/301 96/339/185
f 268/455/293 267/341/187 255/149/55 256/463/301
f 64/464/302 238/465/303 254/453/291 110/448/286
f 238/465/303 237/329/173 253/332/176 254/453/291
f 60/466/304 230/467/305 252/456/294 90/418/256
f 230/467/305 229/279/134 251/282/137 252/456/294
f 196/268/123 272/452/290 250/468/306 89/269/124
f 272/452/290 271/277/132 249/161/61 250/468/306
f 57/469/307 224/470/308 248/459/297 70/364/206
f 224/470/308 223/189/79 247/192/82 248/459/297
f 158/229/101 260/461/299 246/471/309 69/230/102
f 260/461/299 259/187/77 245/183/73 246/471/309
f 69/230/102 246/471/309 226/472/310 58/473/311
f 246/471/309 245/183/73 225/186/76 226/472/310
f 63/67/312 236/474/312 224/475/312 57/68/312
f 236/474/313 235/179/313 223/182/313 224/475/313
f 66/259/118 242/476/314 222/477/315 56/478/316
f 242/476/314 241/148/54 221/178/71 222/477/315
f 61/479/317 232/480/317 220/481/317 55/482/317
f 232/480/318 231/175/318 219/176/318 220/481/318
f 65/246/319 240/483/319 232/484/319 61/247/319
f 240/483/320 239/173/320 231/174/320 232/484/320
f 58/226/321 226/485/321 234/486/321 62/227/321
f 226/485/322 225/171/322 233/172/322 234/486/322
f 59/290/323 228/487/323 236/488/323 63/289/323
f 228/487/324 227/167/324 235/170/324 236/488/324
f 56/256/325 222/489/325 217/490/325 68/253/325
f 222/489/326 221/165/326 218/166/326 217/490/326
f 89/269/124 250/468/306 228/491/327 59/492/328
f 250/468/306 249/161/61 227/164/64 228/491/327
f 68/238/329 217/493/329 230/494/329 60/239/329
f 217/493/330 218/157/330 229/160/330 230/494/330
f 62/232/331 234/495/331 238/496/331 64/233/331
f 234/495/332 233/153/332 237/156/332 238/496/332
f 96/339/185 256/463/301 240/497/333 65/498/334
f 256/463/301 255/149/55 239/152/58 240/497/333
f 160/258/117 264/458/296 242/476/314 66/259/118
f 264/458/296 263/147/53 241/148/54 242/476/314
f 55/499/335 220/500/336 244/462/300 67/368/210
f 220/500/336 219/143/49 243/146/52 244/462/300
