# Blender 5.0.1
# www.blender.org
mtllib model.mtl
o cabbageMesh
v 0.000000 0.000000 0.800000
v -0.565685 -0.000000 0.565686
v -0.739104 0.000000 0.306147
v -0.800000 0.000000 0.000000
v -0.739104 -0.000000 -0.306147
v -0.565685 0.000000 -0.565686
v -0.216478 0.216478 0.739103
v -0.400000 0.400000 0.565686
v -0.522625 0.522625 0.306147
v -0.565685 0.565685 0.000000
v -0.522625 0.522625 -0.306147
v -0.400000 0.400000 -0.565685
v -0.216478 0.216478 -0.739104
v 0.000000 0.306147 0.739103
v 0.000000 0.565685 0.565686
v 0.000000 0.739104 0.306147
v 0.000000 0.800000 0.000000
v 0.000000 0.739104 -0.306147
v 0.000000 0.565685 -0.565685
v 0.000000 0.306147 -0.739104
v 0.216478 0.216478 0.739103
v 0.400000 0.400000 0.565686
v 0.522625 0.522625 0.306147
v 0.565685 0.565685 0.000000
v 0.522625 0.522625 -0.306147
v 0.400000 0.400000 -0.565685
v 0.216478 0.216478 -0.739104
v 0.306147 0.000000 0.739103
v 0.565685 -0.000000 0.565686
v 0.739103 0.000000 0.306147
v 0.800000 0.000000 0.000000
v 0.739103 -0.000000 -0.306147
v 0.565685 0.000000 -0.565686
v 0.306147 0.000000 -0.739104
v 0.216478 -0.216478 0.739103
v 0.400000 -0.400000 0.565685
v 0.522625 -0.522625 0.306147
v 0.565685 -0.565685 -0.000000
v 0.522625 -0.522625 -0.306147
v 0.400000 -0.400000 -0.565686
v 0.216478 -0.216478 -0.739104
v 0.000000 -0.306147 0.739103
v 0.000000 -0.565685 0.565685
v 0.000000 -0.739103 0.306147
v 0.000000 -0.800000 -0.000000
v 0.000000 -0.739103 -0.306147
v 0.000000 -0.565685 -0.565686
v 0.000000 -0.306147 -0.739104
v -0.216478 -0.216478 0.739103
v -0.400000 -0.400000 0.565685
v -0.522625 -0.522625 0.306147
v -0.565685 -0.565685 -0.000000
v -0.522625 -0.522625 -0.306147
v -0.400000 -0.400000 -0.565686
v -0.216478 -0.216478 -0.739104
v -0.306147 0.000000 0.739103
v -0.306147 0.000000 -0.739104
v -0.581917 -0.074481 0.843146
v -0.852777 -0.211585 0.474962
v -0.941037 -0.224399 0.056187
v -0.885109 -0.289625 -0.356025
v -0.681414 -0.221312 -0.692587
v -0.924220 -0.181993 0.457266
v -0.350944 0.483136 0.843146
v -0.445697 0.771195 0.474962
v -0.499047 0.842659 0.056187
v -0.393309 0.851720 -0.356025
v -0.217872 0.694335 -0.692587
v 0.000335 -0.001159 -0.936292
v 0.000512 -0.001762 -1.007385
v -0.239406 0.760939 -0.717294
v -0.477457 0.886575 -0.376868
v -0.570711 0.872344 0.038437
v -0.517139 0.800787 0.457266
v -0.403906 0.505074 0.830028
v -0.758559 -0.247241 -0.717294
v -0.956940 -0.270999 -0.376869
v -1.012701 -0.194715 0.038437
v -0.634879 -0.052544 0.830028
v -0.444548 0.203292 -0.819539
v -0.735725 0.322216 -0.404742
v -0.835146 0.393057 0.093237
v -0.755705 0.338889 0.585780
v -0.551928 0.241836 0.976921
v -0.613413 0.267304 0.961691
v -0.838644 0.373243 0.565237
v -0.918342 0.427518 0.072629
v -0.833414 0.362680 -0.428939
v -0.560346 0.251257 -0.848221
v -0.005629 -0.586637 0.843146
v 0.093229 -0.873674 0.474962
v 0.093878 -0.962856 0.056187
v 0.183885 -0.906366 -0.356025
v 0.218753 -0.693392 -0.692587
v 0.054163 -0.940409 0.457266
v -0.526509 -0.281728 0.843146
v -0.824803 -0.336283 0.474962
v -0.902880 -0.379382 0.056187
v -0.943439 -0.352001 -0.376868
v -0.942066 -0.446324 0.038437
v -0.863868 -0.403019 0.457266
v -0.555469 -0.331201 0.830028
v 0.240942 -0.761609 -0.717294
v 0.137872 -0.984970 -0.376869
v 0.054691 -1.029799 0.038437
v -0.034589 -0.636110 0.830028
v -0.262057 -0.412646 -0.819539
v -0.419604 -0.684869 -0.404742
v -0.503351 -0.773693 0.093237
v -0.438848 -0.702388 0.585780
v -0.314894 -0.513762 0.976921
v -0.348514 -0.571196 0.961691
v -0.484200 -0.779862 0.565237
v -0.548843 -0.851408 0.072629
v -0.473022 -0.776123 -0.428939
v -0.325376 -0.520815 -0.848221
v 0.583262 0.063086 0.843146
v 0.856752 0.194867 0.474962
v 0.945246 0.205952 0.056187
v 0.878606 0.288727 -0.356025
v 0.685763 0.206652 -0.692587
v 0.927602 0.163883 0.457266
v 0.341428 -0.489907 0.843146
v 0.430529 -0.779764 0.474962
v 0.482472 -0.852258 0.056187
v 0.376576 -0.859249 -0.356025
v 0.460027 -0.895743 -0.376868
v 0.553541 -0.883338 0.038437
v 0.501379 -0.810748 0.457266
v 0.393951 -0.512876 0.830028
v 0.763562 0.230968 -0.717294
v 0.962057 0.252232 -0.376868
v 1.016315 0.174872 0.038437
v 0.635785 0.040117 0.830028
v 0.440487 -0.211947 -0.819539
v 0.729282 -0.336543 -0.404742
v 0.827299 -0.409315 0.093237
v 0.748933 -0.353604 0.585780
v 0.547093 -0.252584 0.976920
v 0.608068 -0.279249 0.961691
v 0.831184 -0.389574 0.565237
v 0.909806 -0.445396 0.072629
v 0.826162 -0.378910 -0.428939
v 0.555325 -0.262168 -0.848221
v 0.019172 0.586351 0.843146
v -0.073031 0.875594 0.474962
v -0.071621 0.964767 0.056187
v -0.162908 0.910370 -0.356025
v -0.032435 0.941409 0.457266
v 0.532874 0.269496 0.843146
v 0.832348 0.317149 0.474962
v 0.911399 0.358434 0.056187
v 0.903499 0.252602 -0.356025
v 0.951315 0.330124 -0.376868
v 0.952121 0.424454 0.038437
v 0.872943 0.382965 0.457266
v 0.562968 0.318287 0.830028
v -0.115092 0.987891 -0.376868
v -0.030899 1.030787 0.038437
v 0.049267 0.635142 0.830028
v 0.271515 0.406485 -0.819539
v 0.435306 0.674998 -0.404742
v 0.521081 0.761864 0.093237
v 0.454949 0.692067 0.585780
v 0.326673 0.506354 0.976920
v 0.361610 0.562996 0.961691
v 0.502077 0.768474 0.565237
v 0.568355 0.838509 0.072629
v 0.490816 0.764994 -0.428939
v 0.337314 0.513164 -0.848221
v -0.418398 0.259844 0.741151
v -0.667426 0.314088 0.459449
v -0.731688 0.352510 0.139039
v -0.729831 0.280401 -0.176350
v -0.560992 0.216952 -0.433858
v -0.698267 0.371213 0.445909
v 0.027475 0.500566 0.741151
v 0.118410 0.738351 0.459448
v 0.121537 0.813156 0.139039
v 0.195192 0.763028 -0.176350
v 0.226039 0.567583 -0.433858
v 0.247308 0.622364 -0.452761
v 0.158865 0.830314 -0.192297
v 0.090600 0.870459 0.125458
v 0.087568 0.795476 0.445909
v 0.004611 0.542915 0.731114
v -0.624966 0.240945 -0.452761
v -0.766736 0.330592 -0.192297
v -0.762625 0.409813 0.125458
v -0.441262 0.302193 0.731114
v -0.181761 0.367935 -0.530990
v -0.308354 0.599664 -0.213624
v -0.335558 0.698476 0.167386
v -0.312530 0.621109 0.544237
v -0.231261 0.449933 0.843503
v -0.257804 0.499096 0.831851
v -0.348335 0.687427 0.528519
v -0.371474 0.765000 0.151619
v -0.350527 0.677777 -0.232137
v -0.231751 0.460528 -0.552935
v -0.314511 -0.379024 0.741151
v -0.402231 -0.618318 0.459449
v -0.449064 -0.676736 0.139039
v -0.360521 -0.687643 -0.176350
v -0.224965 -0.567435 -0.433858
v -0.463031 -0.641076 0.445909
v -0.492133 0.095529 0.741151
v -0.715284 0.218064 0.459449
v -0.788963 0.231370 0.139039
v -0.800866 0.270691 -0.192297
v -0.849952 0.208542 0.125458
v -0.776084 0.195307 0.445909
v -0.537206 0.078659 0.731114
v -0.246663 -0.623614 -0.452761
v -0.432134 -0.714448 -0.192297
v -0.510053 -0.699564 0.125458
v -0.359584 -0.395894 0.731114
v -0.389298 -0.129849 -0.530990
v -0.636135 -0.223634 -0.213624
v -0.737734 -0.237099 0.167386
v -0.657949 -0.224845 0.544237
v -0.477283 -0.167696 0.843503
v -0.529609 -0.187281 0.831851
v -0.728532 -0.251264 0.528519
v -0.808537 -0.263600 0.151619
v -0.719272 -0.254752 -0.232137
v -0.487846 -0.166735 -0.552935
v 0.413237 -0.267977 0.741151
v 0.661155 -0.327080 0.459448
v 0.724654 -0.366752 0.139039
v 0.725120 -0.277541 -0.176350
v 0.556055 -0.228802 -0.433858
v 0.690874 -0.384798 0.445909
v -0.037259 -0.499933 0.741151
v -0.132827 -0.735894 0.459448
v -0.137416 -0.810624 0.139039
v -0.210077 -0.759065 -0.176350
v -0.175074 -0.827048 -0.192297
v -0.107606 -0.868521 0.125458
v -0.103109 -0.793612 0.445909
v -0.015228 -0.542721 0.731114
v 0.619601 -0.254192 -0.452761
v 0.760124 -0.345524 -0.192297
v 0.754465 -0.424649 0.125458
v 0.435268 -0.310765 0.731114
v 0.174531 -0.371420 -0.530990
v 0.296567 -0.605580 -0.213624
v 0.321834 -0.704905 0.167386
v 0.300323 -0.627102 0.544237
v 0.222417 -0.454370 0.843503
v 0.247994 -0.504043 0.831851
v 0.334824 -0.694108 0.528519
v 0.356442 -0.772118 0.151619
v 0.337204 -0.684503 -0.232137
v 0.222700 -0.464972 -0.552935
v 0.323179 0.371661 0.741151
v 0.416401 0.608866 0.459448
v 0.464570 0.666187 0.139039
v 0.376302 0.679136 -0.176350
v 0.477710 0.630213 0.445909
v 0.489796 -0.106867 0.741151
v 0.710059 -0.234521 0.459448
v 0.783410 -0.249525 0.139039
v 0.722188 -0.314254 -0.176350
v 0.794402 -0.289110 -0.192297
v 0.844910 -0.228112 0.125458
v 0.771367 -0.213174 0.445909
v 0.535247 -0.091042 0.731114
v 0.448515 0.704280 -0.192297
v 0.526070 0.687601 0.125458
v 0.368629 0.387486 0.731114
v 0.392192 0.120826 -0.530990
v 0.641129 0.208886 -0.213624
v 0.743012 0.220002 0.167386
v 0.662965 0.209593 0.544237
v 0.481028 0.156631 0.843503
v 0.533792 0.175003 0.831851
v 0.734140 0.234375 0.528519
v 0.814408 0.244861 0.151619
v 0.724963 0.238076 -0.232137
v 0.491566 0.155427 -0.552935
vn -0.7541 -0.0000 -0.6568
vn -0.9367 -0.0000 -0.3502
vn -0.7455 0.5383 -0.3930
vn -0.5522 0.4132 -0.7241
vn -1.0000 -0.0000 -0.0000
vn -0.9367 -0.0000 0.3502
vn -0.7455 0.5383 0.3930
vn -0.8126 0.5829 -0.0000
vn -0.7541 -0.0000 0.6568
vn -0.4724 -0.0000 0.8814
vn -0.2658 0.2380 0.9342
vn -0.5522 0.4132 0.7241
vn -0.0954 -0.0000 -0.9954
vn 0.2137 -0.0051 -0.9769
vn -0.0000 -0.0000 1.0000
vn -0.0000 0.6860 -0.7276
vn 0.0001 -0.0334 -0.9994
vn -0.0000 1.0000 -0.0000
vn -0.0000 0.9188 -0.3947
vn -0.0000 0.6860 0.7276
vn -0.0000 0.9188 0.3947
vn -0.0000 0.3379 0.9412
vn 0.5522 0.4132 0.7241
vn 0.7455 0.5383 0.3930
vn 0.2658 0.2380 0.9342
vn 0.7455 0.5383 -0.3930
vn 0.5522 0.4132 -0.7241
vn 0.8126 0.5829 -0.0000
vn -0.2137 -0.0051 -0.9769
vn 0.9367 -0.0000 -0.3502
vn 0.7541 -0.0000 -0.6568
vn 0.9367 -0.0000 0.3502
vn 1.0000 -0.0000 -0.0000
vn 0.4724 -0.0000 0.8814
vn 0.7541 -0.0000 0.6568
vn 0.0954 -0.0000 -0.9954
vn 0.2658 -0.2380 0.9342
vn 0.5522 -0.4132 0.7241
vn 0.5522 -0.4132 -0.7241
vn -0.2137 0.0051 -0.9769
vn 0.8126 -0.5829 -0.0000
vn 0.7455 -0.5383 -0.3930
vn 0.7455 -0.5383 0.3930
vn -0.0000 -0.6860 -0.7276
vn -0.0001 0.0334 -0.9994
vn -0.0000 -1.0000 -0.0000
vn -0.0000 -0.9188 -0.3947
vn -0.0000 -0.6860 0.7276
vn -0.0000 -0.9188 0.3947
vn -0.0000 -0.3379 0.9412
vn -0.2658 -0.2380 0.9342
vn -0.7455 -0.5383 -0.3930
vn -0.5522 -0.4132 -0.7241
vn -0.7455 -0.5383 0.3930
vn -0.8126 -0.5829 -0.0000
vn -0.5522 -0.4132 0.7241
vn 0.2137 0.0051 -0.9769
vn 0.3947 -0.1932 0.8983
vn 0.4758 -0.1580 0.8652
vn 0.5512 -0.1087 0.8273
vn 0.8699 -0.2892 0.3996
vn 0.8990 0.0354 0.4365
vn 0.9930 0.0459 0.1092
vn 0.9509 -0.3084 -0.0270
vn 0.8740 -0.2018 -0.4420
vn 0.9986 0.0489 -0.0202
vn 0.9522 0.0095 0.3053
vn 0.5171 -0.0685 0.8532
vn 0.0089 0.1859 -0.9825
vn -0.3575 0.1373 -0.9238
vn 0.0890 0.5280 -0.8446
vn -0.4653 0.8844 0.0369
vn -0.3254 0.8602 0.3928
vn 0.8567 -0.4933 0.1508
vn 0.8124 -0.5795 0.0655
vn -0.9915 -0.1296 0.0111
vn -0.9394 -0.1711 -0.2972
vn -0.1192 0.6563 0.7450
vn -0.5279 0.0694 0.8465
vn 0.3006 0.7180 -0.6278
vn 0.3005 0.7179 -0.6279
vn 0.3006 0.7182 -0.6276
vn 0.3005 0.7178 -0.6281
vn -0.2333 -0.6332 -0.7380
vn -0.2325 -0.6330 -0.7384
vn -0.2332 -0.6332 -0.7381
vn -0.2334 -0.6332 -0.7380
vn 0.8488 -0.5236 -0.0740
vn -0.9323 -0.1665 0.3210
vn -0.2238 0.9283 -0.2969
vn 0.9427 -0.3296 -0.0523
vn -0.6900 -0.2724 0.6707
vn -0.3453 -0.9270 -0.1463
vn -0.6343 -0.0994 -0.7667
vn -0.9555 0.2938 0.0254
vn -0.8680 0.1875 0.4597
vn -0.8548 0.3062 -0.4191
vn 0.8627 -0.1993 0.4648
vn -0.1174 0.5204 0.8458
vn -0.0500 0.5208 0.8522
vn 0.5138 0.2989 0.8041
vn 0.4402 0.7883 0.4298
vn -0.0087 0.9964 -0.0844
vn -0.2882 0.9479 0.1357
vn 0.5548 0.8319 -0.0029
vn 0.5405 0.7171 -0.4401
vn -0.5266 0.7592 0.3826
vn -0.2683 0.4903 0.8292
vn 0.2888 0.0922 0.9529
vn 0.1954 -0.4325 -0.8802
vn -0.4998 -0.2739 -0.8217
vn -0.9076 -0.0775 -0.4125
vn -0.9941 -0.0255 0.1053
vn -0.9455 -0.0219 0.3248
vn 0.9032 0.0760 0.4224
vn 0.9908 0.0421 0.1283
vn 0.4826 -0.8724 0.0773
vn 0.8724 -0.4863 0.0492
vn -0.7436 -0.0242 0.6682
vn -0.3925 -0.2001 0.8977
vn 0.5945 -0.3178 -0.7386
vn 0.5947 -0.3179 -0.7384
vn 0.5949 -0.3178 -0.7383
vn 0.5950 -0.3179 -0.7382
vn 0.9732 0.0362 0.2271
vn 0.5023 -0.7808 0.3717
vn -0.8355 0.5291 -0.1481
vn -0.9823 0.0369 -0.1835
vn 0.8008 0.0698 0.5948
vn 0.3229 -0.5780 0.7495
vn 0.6466 0.1594 0.7460
vn 0.7420 -0.6600 -0.1176
vn -0.5615 -0.8273 0.0167
vn -0.5456 -0.6980 0.4637
vn -0.5044 -0.7629 -0.4044
vn -0.3917 0.1975 0.8986
vn -0.4955 0.1672 0.8523
vn -0.5478 0.1126 0.8290
vn -0.8657 0.3029 0.3985
vn -0.9085 -0.0314 0.4168
vn -0.9930 -0.0428 0.1102
vn -0.9460 0.3239 -0.0104
vn -0.8699 0.2160 -0.4435
vn -0.9989 -0.0459 -0.0131
vn -0.9487 -0.0067 0.3160
vn -0.5071 0.0705 0.8590
vn -0.0095 -0.1870 -0.9823
vn 0.3555 -0.1414 -0.9239
vn -0.0886 -0.5274 -0.8450
vn 0.4394 -0.8975 0.0382
vn 0.3008 -0.8689 0.3932
vn -0.6969 0.5623 0.4451
vn -0.8008 0.5929 0.0846
vn 0.9928 0.1180 0.0206
vn 0.9412 0.1519 -0.3017
vn 0.1048 -0.6581 0.7456
vn 0.5230 -0.0725 0.8492
vn 0.2459 0.6283 -0.7381
vn 0.2454 0.6282 -0.7384
vn 0.2460 0.6283 -0.7381
vn -0.8292 0.5551 -0.0650
vn 0.9340 0.1551 0.3218
vn 0.1901 -0.9367 -0.2939
vn -0.9350 0.3522 -0.0421
vn 0.6974 0.2575 0.6688
vn -0.8462 0.2633 0.4633
vn 0.6468 0.0844 -0.7580
vn 0.9495 -0.3128 0.0251
vn 0.8640 -0.2007 0.4617
vn 0.8496 -0.3224 -0.4175
vn 0.1128 -0.5241 0.8441
vn 0.4958 -0.8369 0.2318
vn -0.5188 -0.2898 0.8043
vn -0.4625 -0.7754 0.4299
vn 0.2805 -0.8750 0.3945
vn 0.3649 -0.9222 0.1278
vn -0.5761 -0.8174 -0.0004
vn -0.5599 -0.7016 -0.4408
vn 0.4873 -0.7897 0.3728
vn 0.2385 -0.5141 0.8239
vn -0.2960 -0.0907 0.9509
vn -0.1917 0.4359 -0.8794
vn 0.5066 0.2659 -0.8202
vn 0.8961 0.0698 -0.4383
vn 0.9971 0.0290 0.0707
vn 0.9450 0.0171 0.3265
vn -0.8980 -0.0678 0.4347
vn -0.9910 -0.0383 0.1280
vn -0.4500 0.8898 0.0760
vn -0.8440 0.5346 0.0438
vn 0.7438 0.0167 0.6682
vn 0.3988 0.1921 0.8967
vn -0.9752 -0.0329 0.2190
vn -0.4752 0.7966 0.3737
vn 0.9777 -0.0200 -0.2093
vn -0.8072 -0.0668 0.5865
vn -0.3078 0.5853 0.7501
vn -0.6516 -0.1267 0.7479
vn -0.7106 0.6882 -0.1463
vn 0.5822 0.8129 0.0170
vn 0.5649 0.6820 0.4645
vn 0.5241 0.7492 -0.4049
vn 0.5528 -0.7165 0.4256
vn 0.9401 -0.1042 0.3245
vn 0.9885 -0.0482 0.1434
vn 0.4954 -0.8682 -0.0282
vn 0.4853 -0.7399 -0.4659
vn 0.9678 -0.0425 0.2479
vn 0.7807 -0.0804 0.6197
vn 0.2855 -0.1019 0.9530
vn 0.3976 -0.8866 0.2364
vn 0.6595 -0.0122 0.7516
vn 0.5332 0.8418 0.0843
vn 0.5396 0.7391 0.4032
vn -0.0413 -0.9968 0.0690
vn -0.4966 -0.8607 0.1125
vn -0.9963 0.0376 0.0767
vn -0.9818 -0.0162 -0.1891
vn 0.3296 0.5356 0.7775
vn -0.3520 0.2117 0.9117
vn -0.5791 -0.6928 0.4297
vn -0.9384 0.0309 0.3442
vn 0.1679 0.7391 -0.6523
vn 0.8124 0.5800 -0.0591
vn -0.2746 -0.4485 0.8506
vn -0.7125 0.0383 0.7006
vn -0.8975 0.0316 -0.4398
vn -0.6321 0.1171 -0.7660
vn -0.5011 0.8652 0.0161
vn -0.4891 0.7217 0.4898
vn -0.5638 0.6688 -0.4846
vn -0.3715 0.8081 -0.4572
vn 0.6942 -0.7083 0.1279
vn 0.8482 0.2746 0.4529
vn 0.8782 0.4576 0.1391
vn 0.8805 0.4636 0.0990
vn 0.9681 0.2500 -0.0157
vn 0.8677 0.1643 -0.4692
vn 0.8868 0.4490 -0.1098
vn 0.9563 0.2811 -0.0809
vn 0.5407 0.0665 0.8386
vn 0.7616 0.4561 0.4604
vn 0.5724 0.2086 0.7930
vn -0.9861 0.1586 0.0504
vn -0.9138 0.2009 0.3531
vn 0.8192 -0.0554 0.5708
vn 0.9922 -0.0546 0.1121
vn -0.5328 -0.8453 0.0400
vn 0.1197 -0.9565 -0.2662
vn -0.6338 0.3032 0.7116
vn -0.5161 -0.0628 0.8542
vn 0.9978 -0.0578 -0.0338
vn -0.3800 -0.8235 0.4213
vn -0.9077 0.2145 -0.3606
vn 0.9562 -0.0133 0.2924
vn -0.1390 -0.6150 0.7762
vn -0.6723 0.0549 0.7382
vn -0.1829 -0.7210 -0.6684
vn -0.9711 -0.2369 0.0293
vn -0.8610 -0.1525 0.4852
vn -0.7338 -0.2425 -0.6345
vn -0.8696 -0.2418 -0.4305
vn -0.5261 0.7354 0.4270
vn -0.9487 0.1146 0.2947
vn -0.9883 0.0517 0.1434
vn -0.4791 0.8778 0.0024
vn -0.4679 0.7512 -0.4655
vn -0.9658 0.0457 0.2551
vn -0.7748 0.0833 0.6267
vn -0.2787 0.1034 0.9548
vn -0.3925 0.8902 0.2312
vn -0.5591 -0.8247 0.0855
vn -0.5608 -0.7243 0.4010
vn 0.4136 0.8131 0.4097
vn 0.5223 0.8412 0.1398
vn 0.9952 -0.0473 0.0860
vn 0.9788 0.0048 -0.2047
vn -0.3414 -0.5291 0.7768
vn 0.3457 -0.2184 0.9126
vn 0.6047 0.6667 0.4357
vn 0.9388 -0.0353 0.3425
vn -0.8366 -0.5435 -0.0683
vn 0.2936 0.4320 0.8528
vn 0.7121 -0.0449 0.7006
vn -0.8708 0.0796 0.4851
vn 0.6402 -0.1232 -0.7583
vn 0.4823 -0.8758 0.0160
vn 0.4718 -0.7334 0.4894
vn 0.5538 -0.6783 -0.4828
vn 0.3605 -0.8153 -0.4531
vn -0.8562 -0.2534 0.4502
vn -0.7699 -0.4576 0.4448
vn -0.8834 -0.4595 0.0919
vn -0.9736 -0.2279 -0.0143
vn -0.8718 -0.1502 -0.4663
vn -0.9017 -0.4159 -0.1181
vn -0.9619 -0.2605 -0.0831
vn -0.5502 -0.0629 0.8327
vn -0.7682 -0.4343 0.4704
vn 0.9856 -0.1687 0.0120
vn 0.9096 -0.2180 0.3536
vn -0.8151 0.0592 0.5763
vn -0.9921 0.0587 0.1106
vn 0.5614 0.8266 0.0384
vn -0.0130 0.9566 -0.2912
vn 0.6222 -0.3203 0.7144
vn 0.5213 0.0588 0.8514
vn -0.9972 0.0618 -0.0424
vn 0.4079 0.8105 0.4203
vn 0.9138 -0.2038 -0.3514
vn -0.9602 0.0170 0.2789
vn 0.1553 0.6121 0.7753
vn 0.9759 0.2163 0.0290
vn 0.8652 0.1395 0.4816
vn 0.7352 0.2294 -0.6379
vn 0.8752 0.2231 -0.4293
vt 0.862399 0.402685
vt 0.862399 0.445142
vt 0.819942 0.445142
vt 0.819942 0.402685
vt 0.862399 0.487598
vt 0.862399 0.530055
vt 0.819942 0.530055
vt 0.819942 0.487598
vt 0.862399 0.572512
vt 0.862399 0.614969
vt 0.819942 0.614969
vt 0.819942 0.572512
vt 0.862399 0.360228
vt 0.819942 0.360228
vt 0.841170 0.657426
vt 0.777485 0.402685
vt 0.777485 0.360228
vt 0.777485 0.487598
vt 0.777485 0.445142
vt 0.777485 0.572512
vt 0.777485 0.530055
vt 0.798714 0.657426
vt 0.777485 0.614969
vt 0.735028 0.572512
vt 0.735028 0.530055
vt 0.756257 0.657426
vt 0.735028 0.614969
vt 0.735028 0.445142
vt 0.735028 0.402685
vt 0.735028 0.487598
vt 0.735028 0.360228
vt 0.692571 0.445142
vt 0.692571 0.402685
vt 0.692571 0.530055
vt 0.692571 0.487598
vt 0.692571 0.614969
vt 0.692571 0.572512
vt 0.692571 0.360228
vt 0.713800 0.657426
vt 0.650115 0.614969
vt 0.650115 0.572512
vt 0.650115 0.402685
vt 0.650115 0.360228
vt 0.650115 0.487598
vt 0.650115 0.445142
vt 0.650115 0.530055
vt 0.671343 0.657426
vt 0.607658 0.402685
vt 0.607658 0.360228
vt 0.607658 0.487598
vt 0.607658 0.445142
vt 0.607658 0.572512
vt 0.607658 0.530055
vt 0.628886 0.657426
vt 0.607658 0.614969
vt 0.947312 0.614969
vt 0.926084 0.657426
vt 0.904856 0.614969
vt 0.947312 0.402685
vt 0.947312 0.445142
vt 0.904856 0.445142
vt 0.904856 0.402685
vt 0.947312 0.487598
vt 0.947312 0.530055
vt 0.904856 0.530055
vt 0.904856 0.487598
vt 0.947312 0.572512
vt 0.904856 0.572512
vt 0.947312 0.360228
vt 0.904856 0.360228
vt 0.883627 0.657426
vt 0.505816 0.039239
vt 0.450819 0.165994
vt 0.397349 0.170698
vt 0.350123 0.324050
vt 0.419984 0.317904
vt 0.419057 0.483786
vt 0.343439 0.490438
vt 0.379071 0.653104
vt 0.448932 0.646958
vt 0.505816 0.791152
vt 0.452346 0.795855
vt 0.170634 0.867178
vt 0.165654 0.726098
vt 0.216570 0.750207
vt 0.267822 0.218905
vt 0.267822 0.403170
vt 0.245182 0.407997
vt 0.248622 0.232867
vt 0.069515 0.554624
vt 0.065547 0.391830
vt 0.084642 0.398369
vt 0.091069 0.549255
vt 0.191427 0.073898
vt 0.241904 0.039239
vt 0.228666 0.065820
vt 0.186746 0.096785
vt 0.236447 0.762965
vt 0.202880 0.914255
vt 0.191230 0.887411
vt 0.143495 0.869174
vt 0.099877 0.716599
vt 0.114738 0.701988
vt 0.150037 0.846944
vt 0.096794 0.241658
vt 0.108576 0.256605
vt 0.255593 0.589325
vt 0.232140 0.585948
vt 0.140950 0.108557
vt 0.144826 0.127751
vt 0.164912 0.403183
vt 0.178599 0.244736
vt 0.161605 0.567601
vt 0.267822 0.497091
vt 0.309209 0.659250
vt 0.343880 0.175402
vt 0.280261 0.330196
vt 0.398877 0.800559
vt 0.476878 0.041784
s 1
g cabbageMesh_cabbageMat
usemtl cabbageMat
f 6/1/1 5/2/2 11/3/3 12/4/4
f 4/5/5 3/6/6 9/7/7 10/8/8
f 2/9/9 56/10/10 7/11/11 8/12/12
f 57/13/13 6/1/1 12/4/4 13/14/14
f 5/2/2 4/5/5 10/8/8 11/3/3
f 3/6/6 2/9/9 8/12/12 9/7/7
f 56/10/10 1/15/15 7/11/11
f 13/14/14 12/4/4 19/16/16 20/17/17
f 11/3/3 10/8/8 17/18/18 18/19/19
f 9/7/7 8/12/12 15/20/20 16/21/21
f 7/11/11 1/22/15 14/23/22
f 12/4/4 11/3/3 18/19/19 19/16/16
f 10/8/8 9/7/7 16/21/21 17/18/18
f 8/12/12 7/11/11 14/23/22 15/20/20
f 16/21/21 15/20/20 22/24/23 23/25/24
f 14/23/22 1/26/15 21/27/25
f 19/16/16 18/19/19 25/28/26 26/29/27
f 17/18/18 16/21/21 23/25/24 24/30/28
f 15/20/20 14/23/22 21/27/25 22/24/23
f 20/17/17 19/16/16 26/29/27 27/31/29
f 18/19/19 17/18/18 24/30/28 25/28/26
f 26/29/27 25/28/26 32/32/30 33/33/31
f 24/30/28 23/25/24 30/34/32 31/35/33
f 22/24/23 21/27/25 28/36/34 29/37/35
f 27/31/29 26/29/27 33/33/31 34/38/36
f 25/28/26 24/30/28 31/35/33 32/32/30
f 23/25/24 22/24/23 29/37/35 30/34/32
f 21/27/25 1/39/15 28/36/34
f 29/37/35 28/36/34 35/40/37 36/41/38
f 34/38/36 33/33/31 40/42/39 41/43/40
f 32/32/30 31/35/33 38/44/41 39/45/42
f 30/34/32 29/37/35 36/41/38 37/46/43
f 28/36/34 1/47/15 35/40/37
f 33/33/31 32/32/30 39/45/42 40/42/39
f 31/35/33 30/34/32 37/46/43 38/44/41
f 41/43/40 40/42/39 47/48/44 48/49/45
f 39/45/42 38/44/41 45/50/46 46/51/47
f 37/46/43 36/41/38 43/52/48 44/53/49
f 35/40/37 1/54/15 42/55/50
f 40/42/39 39/45/42 46/51/47 47/48/44
f 38/44/41 37/46/43 44/53/49 45/50/46
f 36/41/38 35/40/37 42/55/50 43/52/48
f 42/56/50 1/57/15 49/58/51
f 47/59/44 46/60/47 53/61/52 54/62/53
f 45/63/46 44/64/49 51/65/54 52/66/55
f 43/67/48 42/56/50 49/58/51 50/68/56
f 48/69/45 47/59/44 54/62/53 55/70/57
f 46/60/47 45/63/46 52/66/55 53/61/52
f 44/64/49 43/67/48 50/68/56 51/65/54
f 54/62/53 53/61/52 5/2/2 6/1/1
f 52/66/55 51/65/54 3/6/6 4/5/5
f 50/68/56 49/58/51 56/10/10 2/9/9
f 55/70/57 54/62/53 6/1/1 57/13/13
f 53/61/52 52/66/55 4/5/5 5/2/2
f 51/65/54 50/68/56 2/9/9 3/6/6
f 49/58/51 1/71/15 56/10/10
f 69/72/58 68/73/59 80/74/60
f 81/75/61 67/76/62 66/77/63 82/78/64
f 83/79/65 65/80/66 64/81/67 84/82/68
f 80/74/60 68/73/59 67/76/62 81/75/61
f 82/78/64 66/77/63 65/80/66 83/79/65
f 70/83/69 89/84/70 71/85/71
f 65/86/66 66/87/63 73/88/72 74/89/73
f 61/90/74 60/91/75 78/92/76 77/93/77
f 84/94/68 64/95/67 75/96/78 85/97/79
f 68/98/80 69/99/81 70/100/82 71/85/83
f 64/95/67 65/86/66 74/89/73 75/96/78
f 69/101/84 62/102/85 76/103/86 70/104/87
f 60/91/75 59/105/88 63/106/89 78/92/76
f 67/107/62 68/98/59 71/85/71 72/108/90
f 59/105/88 58/109/91 79/110/92 63/106/89
f 66/87/63 67/107/62 72/108/90 73/88/72
f 62/102/93 61/90/74 77/93/77 76/103/94
f 87/111/95 86/112/96 74/89/73 73/88/72
f 89/84/70 88/113/97 72/108/90 71/85/71
f 86/112/96 85/97/79 75/96/78 74/89/73
f 88/113/97 87/111/95 73/88/72 72/108/90
f 77/93/77 78/92/76 87/111/95 88/113/97
f 63/106/89 79/110/92 85/97/79 86/112/96
f 76/103/94 77/93/77 88/113/97 89/84/70
f 78/92/76 63/106/89 86/112/96 87/111/95
f 58/109/91 84/94/68 85/97/79 79/110/92
f 70/104/69 76/103/94 89/84/70
f 60/114/75 82/78/64 83/79/65 59/115/88
f 62/116/98 80/74/60 81/75/61 61/117/74
f 59/115/88 83/79/65 84/82/68 58/118/91
f 61/117/74 81/75/61 82/78/64 60/114/75
f 69/119/58 80/74/60 62/116/98
f 69/72/99 62/73/100 107/74/101
f 108/75/102 61/76/103 98/77/104 109/78/105
f 110/79/106 97/80/107 96/81/108 111/82/109
f 107/74/101 62/73/100 61/76/103 108/75/102
f 109/78/105 98/77/104 97/80/107 110/79/106
f 70/83/110 116/84/111 76/85/112
f 97/86/107 98/87/104 100/88/113 101/89/114
f 93/90/115 92/91/116 105/92/117 104/93/118
f 111/94/109 96/95/108 102/96/119 112/97/120
f 96/95/108 97/86/107 101/89/114 102/96/119
f 69/101/121 94/102/122 103/103/123 70/104/124
f 92/91/116 91/105/125 95/106/126 105/92/117
f 61/107/103 62/98/127 76/85/112 99/108/128
f 91/105/125 90/109/129 106/110/130 95/106/126
f 98/87/104 61/107/103 99/108/128 100/88/113
f 94/102/131 93/90/115 104/93/118 103/103/132
f 114/111/133 113/112/134 101/89/114 100/88/113
f 116/84/111 115/113/135 99/108/128 76/85/112
f 113/112/134 112/97/120 102/96/119 101/89/114
f 115/113/135 114/111/133 100/88/113 99/108/128
f 104/93/118 105/92/117 114/111/133 115/113/135
f 95/106/126 106/110/130 112/97/120 113/112/134
f 103/103/132 104/93/118 115/113/135 116/84/111
f 105/92/117 95/106/126 113/112/134 114/111/133
f 90/109/129 111/94/109 112/97/120 106/110/130
f 70/104/110 103/103/132 116/84/111
f 92/114/116 109/78/105 110/79/106 91/115/125
f 94/116/131 107/74/101 108/75/102 93/117/115
f 91/115/125 110/79/106 111/82/109 90/118/129
f 93/117/115 108/75/102 109/78/105 92/114/116
f 69/119/99 107/74/101 94/116/131
f 69/72/136 94/73/137 135/74/138
f 136/75/139 126/76/140 125/77/141 137/78/142
f 138/79/143 124/80/144 123/81/145 139/82/146
f 135/74/138 94/73/137 126/76/140 136/75/139
f 137/78/142 125/77/141 124/80/144 138/79/143
f 70/83/147 144/84/148 103/85/149
f 124/86/144 125/87/141 128/88/150 129/89/151
f 120/90/152 119/91/153 133/92/154 132/93/155
f 139/94/146 123/95/145 130/96/156 140/97/157
f 123/95/145 124/86/144 129/89/151 130/96/156
f 69/101/158 121/102/159 131/103/158 70/104/160
f 119/91/153 118/105/161 122/106/162 133/92/154
f 126/107/140 94/98/137 103/85/149 127/108/163
f 118/105/161 117/109/164 134/110/165 122/106/162
f 125/87/141 126/107/140 127/108/163 128/88/150
f 121/102/166 120/90/152 132/93/155 131/103/167
f 142/111/168 141/112/169 129/89/151 128/88/150
f 144/84/148 143/113/170 127/108/163 103/85/149
f 141/112/169 140/97/157 130/96/156 129/89/151
f 143/113/170 142/111/168 128/88/150 127/108/163
f 132/93/155 133/92/154 142/111/168 143/113/170
f 122/106/162 134/110/165 140/97/157 141/112/169
f 131/103/167 132/93/155 143/113/170 144/84/148
f 133/92/154 122/106/162 141/112/169 142/111/168
f 117/109/164 139/94/146 140/97/157 134/110/165
f 70/104/147 131/103/167 144/84/148
f 119/114/153 137/78/142 138/79/143 118/115/161
f 121/116/166 135/74/138 136/75/139 120/117/152
f 118/115/161 138/79/143 139/82/146 117/118/164
f 120/117/152 136/75/139 137/78/142 119/114/153
f 69/119/136 135/74/138 121/116/166
f 69/72/171 121/73/172 161/74/173
f 162/75/174 153/76/175 152/77/176 163/78/177
f 164/79/178 151/80/179 150/81/180 165/82/181
f 161/74/173 121/73/172 153/76/175 162/75/174
f 163/78/177 152/77/176 151/80/179 164/79/178
f 70/83/182 170/84/183 131/85/184
f 151/86/179 152/87/176 155/88/185 156/89/186
f 148/90/187 147/91/188 159/92/189 158/93/190
f 165/94/181 150/95/180 157/96/191 166/97/192
f 150/95/180 151/86/179 156/89/186 157/96/191
f 147/91/188 146/105/193 149/106/194 159/92/189
f 153/107/175 121/98/172 131/85/184 154/108/195
f 146/105/193 145/109/196 160/110/197 149/106/194
f 152/87/176 153/107/175 154/108/195 155/88/185
f 68/102/198 148/90/187 158/93/190 71/103/199
f 168/111/200 167/112/201 156/89/186 155/88/185
f 170/84/183 169/113/202 154/108/195 131/85/184
f 167/112/201 166/97/192 157/96/191 156/89/186
f 169/113/202 168/111/200 155/88/185 154/108/195
f 158/93/190 159/92/189 168/111/200 169/113/202
f 149/106/194 160/110/197 166/97/192 167/112/201
f 71/103/199 158/93/190 169/113/202 170/84/183
f 159/92/189 149/106/194 167/112/201 168/111/200
f 145/109/196 165/94/181 166/97/192 160/110/197
f 70/104/182 71/103/199 170/84/183
f 147/114/188 163/78/177 164/79/178 146/115/193
f 68/116/198 161/74/173 162/75/174 148/117/187
f 146/115/193 164/79/178 165/82/181 145/118/196
f 148/117/187 162/75/174 163/78/177 147/114/188
f 69/119/171 161/74/173 68/116/198
f 192/75/203 180/76/204 179/77/205 193/78/206
f 194/79/207 178/80/208 177/81/209 195/82/210
f 191/74/211 181/73/212 180/76/204 192/75/203
f 193/78/206 179/77/205 178/80/208 194/79/207
f 178/86/208 179/87/205 184/88/213 185/89/214
f 174/90/215 173/91/216 189/92/217 188/93/218
f 195/94/210 177/95/209 186/96/219 196/97/220
f 177/95/209 178/86/208 185/89/214 186/96/219
f 173/91/216 172/105/221 176/106/222 189/92/217
f 180/107/204 181/98/212 182/85/223 183/108/224
f 172/105/221 171/109/225 190/110/226 176/106/222
f 179/87/205 180/107/204 183/108/224 184/88/213
f 175/102/227 174/90/215 188/93/218 187/103/228
f 198/111/229 197/112/230 185/89/214 184/88/213
f 200/84/231 199/113/232 183/108/224 182/85/223
f 197/112/230 196/97/220 186/96/219 185/89/214
f 199/113/232 198/111/229 184/88/213 183/108/224
f 188/93/218 189/92/217 198/111/229 199/113/232
f 176/106/222 190/110/226 196/97/220 197/112/230
f 187/103/228 188/93/218 199/113/232 200/84/231
f 189/92/217 176/106/222 197/112/230 198/111/229
f 171/109/225 195/94/210 196/97/220 190/110/226
f 173/114/216 193/78/206 194/79/207 172/115/221
f 175/116/233 191/74/211 192/75/203 174/117/215
f 172/115/221 194/79/207 195/82/210 171/118/225
f 174/117/215 192/75/203 193/78/206 173/114/216
f 219/75/234 174/76/235 209/77/236 220/78/237
f 221/79/238 208/80/239 207/81/240 222/82/241
f 218/74/242 175/73/243 174/76/235 219/75/234
f 220/78/237 209/77/236 208/80/239 221/79/238
f 208/86/239 209/87/236 211/88/244 212/89/245
f 204/90/246 203/91/247 216/92/248 215/93/249
f 222/94/241 207/95/240 213/96/250 223/97/251
f 207/95/240 208/86/239 212/89/245 213/96/250
f 203/91/247 202/105/252 206/106/253 216/92/248
f 174/107/235 175/98/227 187/85/228 210/108/254
f 202/105/252 201/109/255 217/110/256 206/106/253
f 209/87/236 174/107/235 210/108/254 211/88/244
f 205/102/257 204/90/246 215/93/249 214/103/258
f 225/111/259 224/112/260 212/89/245 211/88/244
f 227/84/261 226/113/262 210/108/254 187/85/228
f 224/112/260 223/97/251 213/96/250 212/89/245
f 226/113/262 225/111/259 211/88/244 210/108/254
f 215/93/249 216/92/248 225/111/259 226/113/262
f 206/106/253 217/110/256 223/97/251 224/112/260
f 214/103/258 215/93/249 226/113/262 227/84/261
f 216/92/248 206/106/253 224/112/260 225/111/259
f 201/109/255 222/94/241 223/97/251 217/110/256
f 203/114/247 220/78/237 221/79/238 202/115/252
f 205/116/257 218/74/242 219/75/234 204/117/246
f 202/115/252 221/79/238 222/82/241 201/118/255
f 204/117/246 219/75/234 220/78/237 203/114/247
f 247/75/263 237/76/264 236/77/265 248/78/266
f 249/79/267 235/80/268 234/81/269 250/82/270
f 246/74/271 205/73/257 237/76/264 247/75/263
f 248/78/266 236/77/265 235/80/268 249/79/267
f 235/86/268 236/87/265 239/88/272 240/89/273
f 231/90/274 230/91/275 244/92/276 243/93/277
f 250/94/270 234/95/269 241/96/278 251/97/279
f 234/95/269 235/86/268 240/89/273 241/96/278
f 230/91/275 229/105/280 233/106/281 244/92/276
f 237/107/264 205/98/257 214/85/258 238/108/282
f 229/105/280 228/109/283 245/110/284 233/106/281
f 236/87/265 237/107/264 238/108/282 239/88/272
f 232/102/285 231/90/274 243/93/277 242/103/286
f 253/111/287 252/112/288 240/89/273 239/88/272
f 255/84/289 254/113/290 238/108/282 214/85/258
f 252/112/288 251/97/279 241/96/278 240/89/273
f 254/113/290 253/111/287 239/88/272 238/108/282
f 243/93/277 244/92/276 253/111/287 254/113/290
f 233/106/281 245/110/284 251/97/279 252/112/288
f 242/103/286 243/93/277 254/113/290 255/84/289
f 244/92/276 233/106/281 252/112/288 253/111/287
f 228/109/283 250/94/270 251/97/279 245/110/284
f 230/114/275 248/78/266 249/79/267 229/115/280
f 232/116/285 246/74/271 247/75/263 231/117/274
f 229/115/280 249/79/267 250/82/270 228/118/283
f 231/117/274 247/75/263 248/78/266 230/114/275
f 273/75/291 264/76/292 263/77/293 274/78/294
f 275/79/295 262/80/296 261/81/297 276/82/298
f 272/74/299 232/73/285 264/76/292 273/75/291
f 274/78/294 263/77/293 262/80/296 275/79/295
f 262/86/296 263/87/293 266/88/300 267/89/301
f 259/90/302 258/91/303 270/92/304 269/93/305
f 276/94/298 261/95/297 268/96/306 277/97/307
f 261/95/297 262/86/296 267/89/301 268/96/306
f 258/91/303 257/105/308 260/106/309 270/92/304
f 264/107/292 232/98/285 242/85/286 265/108/310
f 257/105/308 256/109/311 271/110/312 260/106/309
f 263/87/293 264/107/292 265/108/310 266/88/300
f 181/102/212 259/90/302 269/93/305 182/103/223
f 279/111/313 278/112/314 267/89/301 266/88/300
f 281/84/315 280/113/316 265/108/310 242/85/286
f 278/112/314 277/97/307 268/96/306 267/89/301
f 280/113/316 279/111/313 266/88/300 265/108/310
f 269/93/305 270/92/304 279/111/313 280/113/316
f 260/106/309 271/110/312 277/97/307 278/112/314
f 182/103/223 269/93/305 280/113/316 281/84/315
f 270/92/304 260/106/309 278/112/314 279/111/313
f 256/109/311 276/94/298 277/97/307 271/110/312
f 258/114/303 274/78/294 275/79/295 257/115/308
f 181/116/212 272/74/299 273/75/291 259/117/302
f 257/115/308 275/79/295 276/82/298 256/118/311
f 259/117/302 273/75/291 274/78/294 258/114/303
