# Blender 5.0.1
# www.blender.org
mtllib model.mtl
o trampolineMesh
v -42.882431 3.655384 21.390150
v -51.845280 3.655384 21.390150
v -56.326725 -4.106656 21.390150
v -51.845280 -11.868695 21.390150
v -42.882431 -11.868695 21.390150
v -38.400986 -4.106656 21.390150
v -158.115677 18.311794 46.701771
v -164.770309 18.311794 46.701771
v -168.097641 12.548726 46.701771
v -164.770309 6.785657 46.701771
v -158.115677 6.785657 46.701771
v -154.788345 12.548726 46.701771
v -175.707855 40.538361 32.744808
v -182.362488 40.538361 32.744808
v -185.689819 34.775291 32.744808
v -182.362488 29.012222 32.744808
v -175.707855 29.012222 32.744808
v -172.380524 34.775291 32.744808
v -165.938019 -37.739906 36.984951
v -172.592651 -37.739906 36.984951
v -175.919983 -43.502975 36.984951
v -172.592651 -49.266045 36.984951
v -165.938019 -49.266045 36.984951
v -162.610687 -43.502975 36.984951
v -135.365921 -53.477451 44.933853
v -142.020554 -53.477451 44.933853
v -145.347885 -59.240520 44.933853
v -142.020554 -65.003586 44.933853
v -135.365921 -65.003586 44.933853
v -132.038589 -59.240520 44.933853
v -95.250351 -54.247562 37.002186
v -101.904984 -54.247562 37.002186
v -105.232315 -60.010632 37.002186
v -101.904984 -65.773697 37.002186
v -95.250351 -65.773697 37.002186
v -91.923019 -60.010632 37.002186
vn -0.0000 -0.0000 1.0000
vt 0.453697 1.431190
vt -0.468944 0.898510
vt -0.468944 -0.166860
vt 0.453693 -0.699548
vt 1.376334 -0.166868
vt 1.376334 0.898502
vt 0.053794 0.886410
vt 0.053794 0.395851
vt 0.478633 0.150573
vt 0.903469 0.395855
vt 0.903469 0.886415
vt 0.478630 1.131692
vt 0.150780 0.730531
vt 0.150780 0.250954
vt 0.566107 0.011168
vt 0.981433 0.250958
vt 0.981433 0.730535
vt 0.566105 0.970321
vt 0.083227 0.869417
vt 0.083227 0.415934
vt 0.475957 0.189194
vt 0.868685 0.415937
vt 0.868685 0.869421
vt 0.475955 1.096161
vt 0.009482 0.911994
vt 0.009481 0.365615
vt 0.482661 0.092429
vt 0.955838 0.365620
vt 0.955838 0.911999
vt 0.482659 1.185185
vt 0.096583 0.861706
vt 0.096583 0.425047
vt 0.474743 0.206719
vt 0.852901 0.425050
vt 0.852901 0.861710
vt 0.474741 1.080038
s 0
g trampolineMesh_trampolineMat
usemtl trampolineMat
f 2/1/1 3/2/1 4/3/1
f 4/3/1 5/4/1 2/1/1
f 5/4/1 6/5/1 2/1/1
f 6/5/1 1/6/1 2/1/1
f 8/7/1 9/8/1 10/9/1
f 10/9/1 11/10/1 8/7/1
f 11/10/1 12/11/1 8/7/1
f 12/11/1 7/12/1 8/7/1
f 14/13/1 15/14/1 16/15/1
f 16/15/1 17/16/1 14/13/1
f 17/16/1 18/17/1 14/13/1
f 18/17/1 13/18/1 14/13/1
f 20/19/1 21/20/1 22/21/1
f 22/21/1 23/22/1 20/19/1
f 23/22/1 24/23/1 20/19/1
f 24/23/1 19/24/1 20/19/1
f 26/25/1 27/26/1 28/27/1
f 28/27/1 29/28/1 26/25/1
f 29/28/1 30/29/1 26/25/1
f 30/29/1 25/30/1 26/25/1
f 32/31/1 33/32/1 34/33/1
f 34/33/1 35/34/1 32/31/1
f 35/34/1 36/35/1 32/31/1
f 36/35/1 31/36/1 32/31/1
