# Blender 5.0.1
# www.blender.org
mtllib model.mtl
o iceMesh
v -116.689537 22.164749 135.290894
v -97.387756 12.415849 134.577545
v -98.595825 -9.174385 134.474884
v -116.689537 -19.620766 134.789581
v -127.706779 -13.259975 131.914505
v -134.783249 11.718372 135.682785
v -116.723763 25.696339 134.969650
v -94.141068 14.290321 133.750015
v -95.554482 -10.969819 134.153641
v -116.723763 -23.191875 134.468338
v -129.613708 -15.749879 132.062027
v -137.893036 13.474288 135.361542
v -116.732330 26.580402 132.975952
v -93.328323 14.759559 131.788849
v -94.793137 -11.419271 132.975952
v -116.732330 -24.085833 132.975952
v -129.256958 -16.433950 130.751144
v -138.671509 13.913847 132.975952
v -116.689850 22.197088 130.421509
v -97.358032 12.433014 130.332794
v -98.567970 -9.190826 130.421509
v -116.689850 -19.653467 130.421509
v -127.740860 -15.016279 129.195755
v -134.811722 11.734453 130.421509
v -145.644974 22.839005 70.639694
v -147.019302 23.903969 65.902138
v -129.411118 25.197832 66.778152
v -89.369774 12.411994 75.899017
v -90.741623 -11.848065 76.083542
v -91.850517 -12.934101 95.793221
v -136.202118 8.198715 74.011063
v -130.387253 19.310753 66.810966
v -121.653885 28.748775 67.387169
v -117.745743 20.842773 68.424309
v -132.333176 28.519657 73.851875
v -123.587738 28.423279 76.519783
v -102.560341 -2.213984 95.751945
v -135.462189 28.174505 67.504639
v -133.510010 30.216846 65.863197
v -133.581039 30.423552 67.531273
v -135.615997 28.950533 65.794708
v -134.702255 30.000622 65.773796
v -135.387299 28.059444 65.906166
v -102.877625 -7.769678 74.047157
v -100.584137 -2.365224 71.716316
v -102.091095 -1.836047 73.827560
v -102.611755 -6.910558 71.054192
v -102.165543 -4.104900 70.929764
v -101.500900 -8.129445 71.971962
v -101.769318 -9.712609 72.078178
v -101.974213 -3.411045 70.880127
v -90.159775 0.801289 86.205185
v -96.001297 12.705863 83.710892
v -121.425735 13.235283 68.208511
v -123.156937 7.070714 68.561760
v -122.380249 8.479115 68.531540
v -121.828796 12.639534 68.237717
v -123.201149 10.149105 68.246460
v -119.961906 14.063360 70.126694
v -119.560730 13.595695 68.513573
v -122.743019 8.758856 70.088425
v -135.903214 27.464754 65.943161
v -134.449265 30.245184 65.734131
v -135.867111 28.661076 65.812714
v -132.990250 30.719297 65.781700
v -134.135773 29.497713 65.877518
v -134.761536 28.778578 65.891838
v -134.208084 29.673870 67.830185
v -134.835144 28.924189 67.821312
v -135.006836 29.650593 65.780769
v -135.311417 29.300564 65.787735
v -123.579201 9.463583 68.261169
v -118.732651 14.819656 68.453552
v -120.500565 11.890169 68.519562
v -121.440399 10.184639 68.525543
v -120.920731 12.311209 70.419662
v -121.847786 10.543039 70.406914
v -122.286240 11.809393 68.240639
v -122.743706 10.979250 68.243546
v -102.742409 -7.681145 71.105888
v -100.191048 -0.939710 71.614334
v -100.889709 -4.286625 71.801544
v -101.195282 -6.208033 71.886749
v -102.575203 -3.765409 74.325272
v -102.837387 -5.743293 74.398483
v -102.314285 -5.040117 70.971245
v -102.463020 -5.975339 71.012711
v -123.842941 23.586489 67.303947
v -135.009964 32.612938 66.257080
v -138.424759 12.558843 66.312424
v -122.737099 24.227905 63.694965
v -132.347168 17.949148 62.479343
v -130.913742 26.594101 62.922859
v -113.783600 20.198864 65.340187
v -81.828804 15.852005 76.181488
v -81.217842 -13.713882 78.238388
v -87.193542 -14.879027 77.994110
v -87.760704 13.710779 75.893097
v -85.819626 -13.722115 76.246284
v -87.348778 12.675847 74.679077
v -86.184479 -7.621672 72.413025
v -86.068581 -9.642095 69.842995
v -77.848282 14.008673 76.755638
v -79.886543 15.909358 76.389450
v -79.241592 -12.920434 78.272728
v -77.312157 -11.935684 78.560593
v -80.503601 -13.438996 77.802399
v -82.721916 -13.686136 77.700722
v -83.098938 14.395157 75.651108
v -81.045433 12.515134 76.040359
v -86.572578 -0.855832 73.168373
v -87.239037 10.762707 73.123985
v -87.293907 11.719277 71.630096
v -126.295494 -14.127180 119.544731
v -132.950134 -14.127180 119.544731
v -136.277466 -19.890257 119.544731
v -136.277466 -19.890257 117.266426
v -132.950134 -25.653326 119.544731
v -132.950134 -25.653326 117.266426
v -126.295494 -25.653326 119.544731
v -126.295494 -25.653326 117.266426
v -122.968163 -19.890257 119.544731
v -122.968163 -19.890257 117.266426
v -136.598099 -8.528010 122.153511
v -143.252731 -8.528010 122.153511
v -143.252731 -8.528010 119.875206
v -146.580063 -14.291087 122.153511
v -146.580063 -14.291087 119.875206
v -143.252731 -20.054157 122.153511
v -143.252731 -20.054157 119.875206
v -136.598099 -20.054157 122.153511
v -136.598099 -20.054157 119.875206
v -133.270767 -14.291087 122.153511
v -133.270767 -14.291087 119.875206
v -126.442780 -25.365828 114.674423
v -126.442780 -25.365828 112.396118
v -133.097412 -25.365828 114.674423
v -133.097412 -25.365828 112.396118
v -136.424744 -31.128904 114.674423
v -136.424744 -31.128904 112.396118
v -133.097412 -36.891972 114.674423
v -133.097412 -36.891972 112.396118
v -126.442780 -36.891972 114.674423
v -126.442780 -36.891972 112.396118
v -123.115448 -31.128904 114.674423
v -123.115448 -31.128904 112.396118
v -136.555862 -19.796127 117.304871
v -136.555862 -19.796127 115.026566
v -143.210495 -19.796127 117.304871
v -143.210495 -19.796127 115.026566
v -146.537827 -25.559204 117.304871
v -146.537827 -25.559204 115.026566
v -143.210495 -31.322273 117.304871
v -143.210495 -31.322273 115.026566
v -136.555862 -31.322273 117.304871
v -136.555862 -31.322273 115.026566
v -133.228531 -25.559204 117.304871
v -133.228531 -25.559204 115.026566
v -139.651154 -14.879717 136.331085
v -139.651154 -14.879717 138.609390
v -142.978485 -9.116650 136.331085
v -142.978485 -9.116650 138.609390
v -139.651154 -3.353572 136.331085
v -139.651154 -3.353572 138.609390
v -132.996521 -3.353572 136.331085
v -132.996521 -3.353572 138.609390
v -132.996521 -14.879717 138.609390
v -132.996521 -14.879717 136.331085
v -129.669189 -9.116650 138.609390
v -129.669189 -9.116650 136.331085
v -142.982605 -18.583818 124.297722
v -144.970688 -13.226467 121.605652
v -145.640884 -13.218071 124.166718
v -144.322006 -18.204187 121.499786
v -145.529678 -15.632071 121.389915
v -142.489517 -18.510870 121.831406
v -141.807739 -19.965029 121.932976
v -145.773361 -14.957299 121.313797
v -143.990158 -18.911985 121.549217
v -145.471344 -11.840135 121.449272
v -144.143616 -14.987915 121.680901
v -143.316544 -16.749378 121.756142
v -144.796661 -15.011942 124.690018
v -143.910583 -16.800539 124.733696
v -145.127136 -16.489445 121.426544
v -144.724564 -17.346815 121.463158
v -140.368301 -11.608120 141.010361
v -139.903778 -5.912692 138.318298
v -140.507507 -5.621609 140.879364
v -141.421417 -10.697588 138.212433
v -141.427811 -7.856071 138.102554
v -139.890640 -11.750582 138.544052
v -139.887924 -13.356630 138.645615
v -141.363205 -7.141562 138.026443
v -141.420105 -11.479317 138.261856
v -139.771057 -4.444714 138.161911
v -139.899368 -7.858644 138.393539
v -139.894989 -9.804609 138.468781
v -140.501282 -7.604195 141.402664
v -140.454910 -9.599705 141.446335
v -141.425690 -8.803239 138.139191
v -141.423553 -9.750416 138.175797
v -81.128792 7.903029 105.395393
v -77.900803 8.414547 105.395393
v -84.507103 -10.606331 103.810783
v -81.279114 -10.094813 103.810783
v -73.396011 13.301962 109.345306
v -74.273407 5.363639 109.345306
v -75.150818 -2.574687 109.345306
v -76.028183 -10.513001 109.345306
v -76.535194 -9.116814 108.991982
v -75.771706 -2.209153 108.991982
v -75.008232 4.698505 108.991982
v -74.244774 11.606157 108.991982
v -83.856369 9.598083 108.991982
v -86.387291 2.690424 108.991982
v -87.675774 -4.217235 108.991982
v -85.621788 -11.124885 108.991982
v -86.470551 -12.820689 109.345306
v -88.410599 -4.882368 109.345306
v -87.008179 3.055958 109.345306
v -84.363388 10.994271 109.345306
v -76.510185 17.844448 108.991982
v -75.999435 20.471045 109.345306
v -79.539062 17.175091 108.991982
v -79.480240 19.701815 109.345306
v -78.263565 3.135780 103.537422
v -82.946693 2.624260 103.537422
v -78.847008 -2.142990 103.537422
v -83.530144 -2.654509 103.537422
v -77.009445 4.534354 102.786209
v -83.900101 3.781719 102.786209
v -80.327499 -16.693819 108.991982
v -83.356377 -17.363178 108.991982
v -83.867111 -19.989775 109.345306
v -80.386322 -19.220543 109.345306
v -79.651123 -7.421758 105.395393
v -82.879112 -7.933275 105.395393
v -77.867935 -3.232742 102.786209
v -84.758598 -3.985377 102.786209
v -77.900803 8.414547 104.644180
v -81.128792 7.903029 104.644180
v -88.670212 -0.913205 109.345306
v -87.992355 -0.763405 108.991982
v -85.743088 -0.101829 102.786209
v -84.199242 -0.015124 103.537422
v -74.712112 1.394476 109.345306
v -75.389969 1.244676 108.991982
v -76.345451 0.650806 102.786209
v -77.812279 0.496395 103.537422
v -79.514801 8.158789 105.395393
v -80.605133 3.972149 103.537422
v -80.454765 5.764976 102.786209
v -79.514801 8.158789 104.644180
v -78.024628 17.509769 108.991982
v -77.739838 20.086430 109.345306
v -81.188576 -4.065411 103.537422
v -82.893112 -10.350573 103.810783
v -81.841934 -17.028500 108.991982
v -82.126717 -19.605160 109.345306
v -81.265121 -7.677517 105.395393
v -81.313263 -6.061357 102.786209
v -80.360672 -8.011246 93.389771
v -82.713211 -5.299993 96.207367
v -79.774475 7.434080 92.434006
v -82.127014 4.843924 96.269684
v -76.968552 0.754915 87.859131
v -77.421936 5.826873 88.598351
v -82.400291 -0.228035 96.951843
v -77.133812 0.553253 92.620811
v -77.840340 -2.893814 93.772766
v -78.008133 -4.317043 89.554100
v -77.441956 4.000319 93.123222
v -83.878685 -8.053008 91.259048
v -75.513260 -4.488512 95.994194
v -83.292488 7.392318 90.303284
v -73.667343 0.767888 96.038658
v -78.649620 7.689942 95.918663
v -79.690498 -8.317055 95.893600
v -80.486565 0.713153 85.728409
v -80.939949 5.785111 86.467628
v -82.746872 4.472586 98.547806
v -80.651825 0.511491 87.874367
v -81.358353 -2.935576 89.026321
v -74.472397 6.024289 96.019264
v -81.526146 -4.358806 87.423378
v -80.959969 3.958557 88.376778
v -83.428261 -4.840415 99.169434
v -84.209656 -0.183914 99.882294
v -112.604424 1.516338 69.587585
v -111.650391 -4.815234 69.940834
v -111.520836 -3.212095 69.910614
v -112.727173 0.807601 69.616791
v -112.955307 -2.026749 69.625534
v -111.609985 2.872659 71.505768
v -111.052109 2.611081 69.892647
v -111.966507 -3.106074 71.467499
v -113.018372 -2.807061 69.640244
v -110.799934 4.067173 69.832626
v -111.208351 0.670025 69.898636
v -111.364586 -1.271035 69.904617
v -111.764389 0.881293 71.798737
v -111.883240 -1.111627 71.785988
v -112.803207 -0.137177 69.619713
v -112.879272 -1.081967 69.622620
v -96.704773 17.517609 71.669838
v -104.357224 -12.021326 71.235085
v -105.229118 12.567653 70.285599
v -87.794701 -15.356589 78.718956
v -88.475731 14.552058 76.565948
v -106.419983 6.276322 70.638847
v -105.768173 7.746692 70.608627
v -105.579071 11.939237 70.314804
v -106.730606 9.339322 70.323547
v -103.842491 13.519380 72.203781
v -103.402321 13.088212 70.590660
v -106.153809 7.993969 72.165512
v -107.047874 8.623637 70.338257
v -102.683350 14.379287 70.530640
v -104.190941 11.307708 70.596649
v -104.979546 9.527198 70.602631
v -104.645988 11.690782 72.496750
v -105.416443 9.848973 72.484001
v -105.962906 11.072600 70.317726
v -106.346771 10.205962 70.320633
v -97.079872 8.816743 75.070656
v -94.039963 13.570347 73.541969
v -95.294685 14.038430 75.593575
v -96.707687 9.932361 72.428337
v -95.796288 12.390848 72.654243
v -95.912430 8.519388 73.077850
v -96.441490 7.130378 72.983940
v -95.497559 12.986903 72.690109
v -96.965202 9.256278 72.382622
v -93.426216 14.794928 73.615662
v -94.664101 11.886695 73.387268
v -95.288246 10.203039 73.232559
v -96.078926 12.325531 75.821762
v -96.674004 10.584965 75.647461
v -96.100098 11.571354 72.578949
v -96.403893 10.751857 72.503632
v -97.755989 -7.631546 75.591537
v -95.783859 -4.293525 73.250374
v -97.343155 -4.014484 75.669434
v -98.133957 -6.940225 72.314644
v -97.846397 -5.232615 72.326309
v -96.374649 -7.801805 73.226418
v -96.550804 -8.766631 73.260277
v -97.673882 -4.813447 72.305733
v -98.219673 -7.409843 72.331116
v -95.429451 -3.432351 73.208099
v -95.980766 -5.462950 73.242401
v -96.177681 -6.632378 73.234406
v -97.683228 -5.203887 76.123970
v -97.820839 -6.409578 76.098015
v -97.942238 -5.801819 72.322426
v -98.038094 -6.371023 72.318527
v -90.825287 2.846692 78.374100
v -88.853157 6.184713 76.032936
v -90.412453 6.463754 78.451996
v -91.203255 3.538014 75.097206
v -90.915695 5.245624 75.108871
v -89.443947 2.676434 76.008980
v -89.620102 1.711607 76.042839
v -90.743179 5.664791 75.088295
v -91.288971 3.068395 75.113678
v -88.498749 7.045887 75.990662
v -89.050064 5.015288 76.024963
v -89.246979 3.845860 76.016968
v -90.752525 5.274351 78.906532
v -90.890137 4.068660 78.880577
v -91.011536 4.676419 75.104988
v -91.107391 4.107215 75.101089
v -132.544128 0.574909 139.672897
v -132.544128 0.574909 128.016174
v -134.752686 0.574909 139.672897
v -134.752686 0.574909 128.016174
v -135.856964 -1.337750 139.672897
v -135.856964 -1.337750 128.016174
v -134.752686 -3.250408 139.672897
v -134.752686 -3.250408 128.016174
v -132.544128 -3.250408 139.672897
v -132.544128 -3.250408 128.016174
v -131.439865 -1.337750 139.672897
v -131.439865 -1.337750 128.016174
v -135.853226 2.473252 140.901291
v -135.853226 2.473252 128.016174
v -138.061783 2.473252 140.901291
v -138.061783 2.473252 128.016174
v -139.166061 0.560594 140.901291
v -139.166061 0.560594 128.016174
v -138.061783 -1.352065 140.901291
v -138.061783 -1.352065 128.016174
v -135.853226 -1.352065 140.901291
v -135.853226 -1.352065 128.016174
v -134.748962 0.560594 140.901291
v -134.748962 0.560594 128.016174
v -129.157013 2.479753 142.376160
v -129.157013 2.479753 128.016174
v -131.365570 2.479753 142.376160
v -131.365570 2.479753 128.016174
v -132.469849 0.567095 142.376160
v -132.469849 0.567095 128.016174
v -131.365570 -1.345564 142.376160
v -131.365570 -1.345564 128.016174
v -129.157013 -1.345564 142.376160
v -129.157013 -1.345564 128.016174
v -128.052750 0.567095 142.376160
v -128.052750 0.567095 128.016174
v -125.763397 0.675677 143.589249
v -125.763397 0.675677 128.016174
v -127.971954 0.675677 143.589249
v -127.971954 0.675677 128.016174
v -129.076233 -1.236981 143.589249
v -129.076233 -1.236981 128.016174
v -127.971954 -3.149640 143.589249
v -127.971954 -3.149640 128.016174
v -125.763397 -3.149640 143.589249
v -125.763397 -3.149640 128.016174
v -124.659134 -1.236981 143.589249
v -124.659134 -1.236981 128.016174
v -122.577820 2.561018 145.029846
v -122.577820 2.561018 128.016174
v -124.786377 2.561018 145.029846
v -124.786377 2.561018 128.016174
v -125.890656 0.648359 145.029846
v -125.890656 0.648359 128.016174
v -124.786377 -1.264299 145.029846
v -124.786377 -1.264299 128.016174
v -122.577820 -1.264299 145.029846
v -122.577820 -1.264299 128.016174
v -121.473557 0.648359 145.029846
v -121.473557 0.648359 128.016174
v -119.278473 0.649672 146.297821
v -119.278473 0.649672 134.384109
v -121.487030 0.649672 146.297821
v -121.487030 0.649672 134.384109
v -122.591309 -1.262986 146.297821
v -122.591309 -1.262986 134.384109
v -121.487030 -3.175645 146.297821
v -121.487030 -3.175645 134.384109
v -119.278473 -3.175645 146.297821
v -119.278473 -3.175645 134.384109
v -118.174210 -1.262986 146.297821
v -118.174210 -1.262986 134.384109
v -98.216324 -4.632229 72.704071
v -102.408752 -10.735047 71.328964
v -99.580170 -9.974906 72.390450
v -95.581924 15.073603 72.946320
v -93.721214 13.514704 74.229118
v -91.777702 -11.977533 78.089241
v -90.768600 -8.234087 75.748070
v -92.345787 -8.381583 78.167137
v -92.326561 -11.412252 74.812340
v -92.505455 -9.689865 74.824013
v -90.401062 -11.772727 75.724113
v -90.313171 -12.749557 75.757973
v -92.451141 -9.239850 74.803429
v -92.283752 -11.887707 74.828819
v -90.657036 -7.309546 75.705803
v -90.646065 -9.413626 75.740105
v -90.523537 -10.593170 75.732109
v -92.355881 -9.618607 78.621666
v -92.166519 -10.817261 78.595711
v -92.445808 -10.263991 74.820122
v -92.386185 -10.838122 74.816231
vn 0.0668 -0.0900 0.9937
vn -0.0305 0.0903 0.9954
vn -0.1041 0.1381 0.9849
vn 0.0990 -0.0103 0.9950
vn 0.1438 0.1806 0.9730
vn 0.4330 0.8195 0.3755
vn -0.4612 0.8104 0.3613
vn -0.5364 -0.7992 0.2711
vn 0.8326 -0.0378 0.5526
vn 0.4444 -0.7696 0.4585
vn 0.2781 -0.4816 -0.8311
vn 0.1311 0.3527 -0.9265
vn -0.2781 0.4816 -0.8311
vn -0.2289 -0.5980 -0.7681
vn 0.5463 -0.0340 -0.8369
vn 0.0607 -0.0752 0.9953
vn -0.0428 0.1060 0.9934
vn -0.2961 -0.0828 0.9516
vn 0.2461 0.0017 0.9693
vn 0.0827 0.0911 0.9924
vn 0.4356 0.8236 0.3633
vn -0.4758 0.8242 0.3071
vn -0.5087 -0.7373 0.4446
vn 0.9262 -0.0348 0.3755
vn 0.4240 -0.7203 0.5490
vn 0.2437 0.4901 -0.8369
vn -0.1123 -0.4954 -0.8614
vn 0.3710 -0.0628 -0.9265
vn -0.7155 0.5203 -0.4662
vn -0.8008 0.5076 -0.3179
vn -0.4917 -0.8708 -0.0000
vn -0.6979 -0.7136 0.0609
vn -0.4389 -0.7508 0.4937
vn 0.4509 -0.8532 -0.2622
vn -0.8185 -0.4038 -0.4086
vn -0.6671 -0.6423 -0.3773
vn -0.5391 0.0799 -0.8384
vn -0.2581 -0.9345 -0.2452
vn -0.2384 -0.9397 -0.2452
vn -0.2532 -0.9388 -0.2335
vn 0.7896 0.6049 -0.1026
vn 0.7889 0.6064 -0.0998
vn 0.7988 0.5954 -0.0868
vn 0.8993 -0.1440 -0.4130
vn 0.9014 -0.1416 -0.4092
vn 0.9043 -0.1564 -0.3973
vn 0.5574 0.8206 0.1262
vn 0.5228 0.7209 0.4550
vn 0.3839 0.8963 0.2219
vn -0.3591 -0.9183 -0.1666
vn -0.4254 -0.8959 -0.1280
vn -0.4132 -0.9079 -0.0706
vn -0.1250 -0.7861 -0.6053
vn -0.4601 -0.4410 -0.7706
vn -0.6049 -0.6424 -0.4707
vn 0.6121 0.7733 -0.1650
vn 0.2862 0.9152 -0.2838
vn 0.4131 0.7135 -0.5660
vn 0.7732 0.5695 -0.2789
vn 0.8300 0.5133 -0.2184
vn 0.5237 0.7050 0.4782
vn 0.1154 -0.1442 -0.9828
vn 0.2661 -0.2218 -0.9381
vn 0.3745 0.0843 -0.9234
vn 0.4303 -0.3740 -0.8216
vn 0.6173 -0.0765 -0.7830
vn 0.3579 -0.0889 -0.9295
vn 0.4180 -0.0577 0.9066
vn 0.4992 -0.2476 -0.8304
vn 0.9070 0.3705 -0.2002
vn 0.8408 0.2957 0.4533
vn 0.4533 -0.0287 0.8909
vn -0.2758 -0.9604 0.0383
vn 0.7591 -0.5009 -0.4157
vn -0.1637 -0.0224 0.9862
vn -0.0380 -0.8536 0.5196
vn 0.4867 -0.8701 -0.0778
vn 0.6157 0.7875 0.0264
vn 0.3057 -0.9262 0.2209
vn -0.4806 0.7494 0.4556
vn -0.2789 -0.1749 -0.9443
vn -0.2596 -0.2770 -0.9251
vn -0.4397 -0.8981 -0.0008
vn -0.1963 -0.9733 0.1192
vn 0.0237 -0.6850 -0.7282
vn -0.4140 -0.8467 0.3343
vn 0.1117 -0.6646 -0.7388
vn -0.8253 -0.5328 -0.1872
vn -0.3524 -0.8244 -0.4429
vn -0.1821 -0.2023 -0.9623
vn -0.8248 -0.3602 -0.4359
vn -0.0362 0.0194 0.9992
vn -0.0271 0.0033 0.9996
vn -0.0335 0.0191 0.9993
vn 0.8301 0.5540 0.0628
vn 0.8264 0.5571 0.0817
vn 0.8260 0.5579 0.0809
vn -0.0874 0.0193 0.9960
vn -0.1514 0.0046 0.9885
vn -0.1185 0.0613 0.9911
vn 0.8511 -0.3217 -0.4150
vn 0.7298 -0.6835 -0.0135
vn 0.7909 -0.3853 -0.4754
vn 0.5963 0.6210 -0.5087
vn 0.0518 0.9973 -0.0518
vn 0.2321 0.6975 -0.6780
vn 0.3470 -0.2149 -0.9129
vn 0.2364 0.1237 -0.9638
vn 0.2174 -0.2138 -0.9524
vn 0.8415 0.1945 -0.5040
vn -0.9789 0.1507 0.1378
vn 0.2091 -0.4729 0.8559
vn 0.8688 0.0454 -0.4931
vn -0.0831 0.3539 0.9316
vn 0.0893 -0.8639 0.4957
vn 0.3103 0.7805 0.5427
vn -0.0749 0.3257 0.9425
vn 0.1765 -0.9306 0.3208
vn -0.5774 0.5178 0.6313
vn -0.2409 0.0724 -0.9678
vn -0.6025 -0.7944 0.0771
vn -0.4400 -0.7950 -0.4176
vn -0.8234 -0.0388 -0.5661
vn -0.8891 -0.2628 -0.3748
vn -0.1581 0.3015 0.9403
vn -0.3108 0.6017 -0.7357
vn -0.9089 -0.4155 -0.0352
vn 0.2647 0.1348 0.9549
vn 0.6642 -0.2344 -0.7099
vn 0.8345 0.5424 -0.0969
vn 0.0210 0.5366 0.8436
vn -0.5463 0.4855 -0.6825
vn -0.7552 -0.5869 0.2918
vn 0.7391 0.0095 -0.6735
vn 0.2948 0.2008 0.9342
vn -0.1054 -0.9205 0.3763
vn 0.8813 0.4032 -0.2466
vn -0.9972 -0.0615 0.0435
vn 0.4684 -0.2803 0.8378
vn 0.3931 -0.6620 -0.6382
vn 0.0940 -0.1039 0.9901
vn -0.2109 -0.8976 0.3870
vn -0.0957 0.1982 0.9755
vn -0.3934 0.7426 -0.5420
vn -0.7598 -0.6312 0.1555
vn 0.1370 0.6666 0.7327
vn -0.5754 0.2670 -0.7730
vn -0.5594 0.2299 -0.7964
vn -0.9168 -0.1879 -0.3523
vn -0.9295 -0.3603 -0.0795
vn -0.4542 0.4717 -0.7557
vn 0.1455 -0.5961 -0.7896
vn 0.2052 -0.3062 0.9296
vn -0.3160 -0.8545 0.4123
vn 0.2839 0.9433 -0.1720
vn 0.2509 0.8925 -0.3749
vn 0.2381 0.7710 0.5906
vn -0.0143 0.4879 0.8728
vn -0.4493 0.4181 -0.7895
vn -0.8922 -0.3895 0.2286
vn -0.1074 -0.8676 -0.4856
vn 0.9121 0.3610 -0.1943
vn -0.2140 -0.9754 -0.0534
vn 0.4470 -0.2530 -0.8580
vn 0.4585 -0.0019 0.8887
vn -0.2446 -0.9234 0.2960
vn 0.7779 0.0989 -0.6206
vn 0.9102 0.3706 -0.1847
vn 0.1166 -0.4063 0.9063
vn 0.7704 0.6141 -0.1715
vn -0.8761 -0.4111 -0.2519
vn 0.0530 -0.1236 0.9909
vn -0.4973 -0.6828 -0.5352
vn -0.5273 -0.8165 -0.2352
vn -0.3024 0.0840 -0.9495
vn 0.8096 0.5332 -0.2454
vn 0.6033 0.7970 0.0304
vn -0.1635 -0.2751 0.9474
vn -0.6337 0.2491 0.7324
vn -0.2479 0.3433 -0.9059
vn -0.5097 -0.8542 -0.1025
vn -0.1662 0.9294 -0.3294
vn -0.0850 0.7947 -0.6011
vn -0.4036 0.8524 0.3325
vn -0.0962 0.2864 0.9532
vn 0.8866 -0.0184 -0.4622
vn 0.6072 0.7944 0.0178
vn -0.4077 -0.0503 0.9117
vn -0.4644 -0.1639 0.8703
vn -0.4566 0.4677 -0.7568
vn 0.0802 0.9945 -0.0676
vn -0.1210 0.8642 -0.4885
vn 0.1237 0.8621 0.4915
vn 0.0905 0.7831 0.6153
vn -0.7123 0.1664 -0.6819
vn -0.7712 -0.0517 -0.6344
vn 0.0253 -0.9921 -0.1229
vn 0.8449 0.5273 -0.0900
vn -0.0015 -0.9988 0.0491
vn 0.8718 0.3957 -0.2889
vn 0.8351 0.5436 -0.0837
vn -0.0645 -0.5326 0.8439
vn 0.7239 0.5413 0.4277
vn 0.2956 0.1618 0.9415
vn -0.1068 -0.9638 0.2441
vn -0.9049 -0.3108 -0.2907
vn -0.8462 -0.5322 -0.0273
vn -0.6359 0.4501 -0.6270
vn -0.1383 0.3248 0.9356
vn 0.2092 0.9759 -0.0621
vn -0.7141 0.0823 -0.6952
vn -0.3143 -0.8488 -0.4251
vn 0.4283 -0.0176 0.9035
vn -0.3801 0.9155 0.1318
vn -0.2695 0.1557 0.9503
vn 0.2103 0.9763 -0.0504
vn -0.5958 0.2496 -0.7634
vn -0.1583 -0.8173 0.5541
vn 0.1932 -0.5603 -0.8054
vn 0.7184 0.3008 0.6272
vn 0.1419 -0.5886 -0.7959
vn 0.9096 0.3710 -0.1869
vn 0.1659 -0.3536 0.9206
vn -0.3783 -0.3511 0.8565
vn -0.3748 -0.4173 0.8279
vn -0.5615 0.5589 -0.6102
vn -0.0843 0.2443 0.9660
vn -0.0059 1.0000 0.0069
vn -0.8298 -0.1693 -0.5317
vn -0.0951 -0.9866 -0.1324
vn 0.5540 -0.0420 0.8315
vn -0.5375 0.8313 0.1412
vn -0.2451 -0.0788 0.9663
vn -0.0006 0.9996 0.0277
vn -0.7246 0.1646 -0.6692
vn -0.0908 -0.8396 0.5356
vn 0.4271 -0.6002 -0.6763
vn 0.6510 0.6130 0.4477
vn 0.3874 -0.6200 -0.6823
vn 0.8346 0.5437 -0.0884
vn -0.0315 -0.4615 0.8866
vn -0.6499 -0.2584 0.7147
vn -0.6194 -0.3577 0.6988
vn -0.2941 0.1265 -0.9474
vn -0.6291 0.2850 0.7231
vn -0.2818 0.9182 -0.2785
vn -0.3394 -0.4393 -0.8318
vn 0.3161 -0.9424 -0.1096
vn 0.0090 0.2902 0.9569
vn -0.7775 0.5645 -0.2771
vn -0.6617 0.0242 0.7494
vn -0.2865 0.9209 -0.2643
vn -0.2922 -0.1939 -0.9365
vn 0.0025 -0.7344 0.6787
vn 0.7849 -0.4417 -0.4344
vn 0.1546 0.7711 0.6177
vn 0.7553 -0.4878 -0.4376
vn 0.6038 0.7966 0.0275
vn -0.1611 -0.1942 0.9676
vn -0.0740 0.0013 0.9973
vn -0.0729 0.0133 0.9973
vn -0.0924 0.0086 0.9957
vn -0.1210 0.0289 0.9922
vn -0.1954 0.0439 0.9797
vn -0.1347 0.0210 0.9907
vn -0.0835 0.0214 0.9963
vn -0.0794 0.0250 0.9965
vn -0.0658 0.0208 0.9976
vn -0.1805 0.0961 0.9789
vn -0.1017 0.1145 0.9882
vn -0.0943 0.0969 0.9908
vn -0.0397 0.9655 -0.2575
vn -0.0456 0.9683 -0.2454
vn -0.0631 0.9515 -0.3010
vn -0.3905 -0.8873 -0.2453
vn -0.3378 -0.8914 -0.3023
vn -0.3137 -0.9124 -0.2628
vn 0.1899 -0.8848 -0.4254
vn -0.7566 -0.1378 -0.6392
vn -0.7736 0.0010 -0.6336
vn -0.7291 -0.0278 -0.6838
vn 0.9998 -0.0183 -0.0069
vn 0.9915 0.1258 -0.0317
vn 0.9919 0.1203 0.0417
vn -0.7413 -0.1401 -0.6564
vn -0.7549 -0.0008 -0.6559
vn -0.7104 -0.0306 -0.7031
vn -0.1527 0.5349 -0.8310
vn 0.0430 0.1370 0.9896
vn 0.0434 0.0727 0.9964
vn 0.0675 0.0008 0.9977
vn 0.2112 0.0284 -0.9770
vn 0.4662 -0.8082 -0.3598
vn -0.1121 0.0667 0.9915
vn 0.0948 0.2665 -0.9592
vn 0.2581 -0.0617 -0.9641
vn 0.2572 -0.6082 -0.7510
vn -0.2585 -0.9355 -0.2410
vn -0.2507 -0.9345 -0.2525
vn -0.2387 -0.9409 -0.2403
vn 0.9141 -0.1326 -0.3833
vn 0.9201 -0.1229 -0.3720
vn 0.9202 -0.1230 -0.3717
vn -0.0970 0.0160 0.9952
vn -0.0776 0.0196 0.9968
vn -0.0871 0.0317 0.9957
vn -0.1174 0.0238 0.9928
vn -0.1002 0.0522 0.9936
vn -0.1723 0.0341 0.9844
vn -0.0650 0.0264 0.9975
vn -0.0704 0.0277 0.9971
vn -0.0782 0.0238 0.9967
vn -0.0958 0.1049 0.9899
vn -0.1137 0.0549 0.9920
vn -0.1056 0.1187 0.9873
vn -0.0292 0.9601 -0.2782
vn -0.0350 0.9485 -0.3147
vn -0.0286 0.9563 -0.2910
vn -0.3241 -0.9146 -0.2417
vn -0.3636 -0.8813 -0.3020
vn -0.3178 -0.9080 -0.2730
vn 0.1895 -0.8807 -0.4340
vn -0.9413 -0.1273 -0.3126
vn -0.9623 -0.1401 -0.2330
vn -0.9633 -0.0069 -0.2684
vn 0.9984 0.0222 0.0519
vn 0.9982 0.0240 -0.0557
vn 0.9919 0.1190 0.0445
vn -0.6844 -0.1220 -0.7188
vn -0.7397 -0.1334 -0.6595
vn -0.7232 -0.0003 -0.6907
vn -0.2212 0.7038 -0.6751
vn 0.0728 0.1321 0.9886
vn 0.0552 0.0704 0.9960
vn 0.2045 0.0308 -0.9784
vn 0.0511 -0.7363 0.6747
vn 0.2860 -0.7388 0.6103
vn -0.1083 0.0748 0.9913
vn 0.1210 0.2447 -0.9620
vn 0.2448 -0.0606 -0.9677
vn 0.1098 0.9600 -0.2576
vn 0.8660 -0.5000 -0.0000
vn -0.0000 -1.0000 -0.0000
vn -0.8660 -0.5000 -0.0000
vn -0.0000 -0.0000 1.0000
vn 0.8660 0.5000 -0.0000
vn -0.8660 0.5000 -0.0000
vn -0.0000 1.0000 -0.0000
vn 0.6974 -0.0975 -0.7101
vn 0.2436 0.0551 0.9683
vn 0.6161 -0.6548 0.4377
vn 0.8094 -0.4944 -0.3168
vn 0.0575 0.9845 -0.1660
vn 0.8093 -0.5868 0.0245
vn -0.6035 0.4566 0.6537
vn -0.4604 -0.4426 -0.7695
vn -0.3841 -0.5155 -0.7660
vn 0.4604 0.4065 -0.7892
vn 0.0837 0.4048 0.9106
vn 0.7102 -0.6018 0.3654
vn 0.0148 0.9041 0.4270
vn 0.1091 0.3870 0.9156
vn 0.7492 -0.6410 0.1665
vn -0.4898 0.2399 0.8382
vn -0.5725 -0.2185 -0.7902
vn -0.0063 -0.9668 0.2555
vn 0.1968 0.8863 -0.4192
vn -0.5393 -0.8379 0.0845
vn 0.4649 0.0823 0.8815
vn -0.2071 -0.9170 -0.3409
vn -0.0500 -0.9968 -0.0621
vn -0.6190 -0.2375 -0.7486
vn 0.2434 0.8265 -0.5075
vn 0.0443 0.9866 -0.1568
vn 0.3652 -0.1636 0.9165
vn -0.3523 0.0009 0.9359
vn -0.7006 0.0159 -0.7134
vn 0.0317 -0.9982 0.0505
vn -0.7439 0.6440 -0.1785
vn -0.7079 0.5288 -0.4683
vn -0.6445 0.5632 0.5172
vn 0.1177 0.3447 0.9313
vn 0.5193 0.3669 -0.7718
vn 0.0442 0.9844 -0.1702
vn -0.0991 -0.4375 0.8937
vn -0.0284 -0.5080 0.8609
vn -0.6347 -0.1971 -0.7472
vn -0.3714 0.0321 0.9279
vn -0.8076 0.5832 -0.0873
vn -0.3244 -0.6783 -0.6594
vn 0.7065 -0.6483 -0.2840
vn 0.1973 0.4027 0.8938
vn -0.9959 0.0304 0.0850
vn -0.2470 -0.2001 0.9481
vn -0.8076 0.5853 -0.0723
vn -0.4576 -0.4641 -0.7584
vn 0.6408 -0.5081 0.5756
vn 0.6786 -0.0374 -0.7336
vn -0.0719 0.8281 0.5560
vn 0.6795 -0.0919 -0.7279
vn 0.0439 0.9862 -0.1598
vn 0.3309 -0.0911 0.9392
vn 0.5907 -0.3833 -0.7101
vn 0.2441 -0.0531 0.9683
vn 0.2813 -0.8540 0.4377
vn 0.5243 -0.7904 -0.3168
vn 0.4685 0.8677 -0.1660
vn 0.4852 -0.8741 0.0245
vn -0.3537 0.6690 0.6537
vn -0.6044 -0.2063 -0.7695
vn -0.5661 -0.3047 -0.7660
vn 0.5891 0.1736 -0.7892
vn 0.2471 0.3313 0.9106
vn 0.3890 -0.8457 0.3654
vn 0.3959 0.8130 0.4270
vn 0.2625 0.3045 0.9156
vn 0.4078 -0.8978 0.1665
vn -0.3423 0.4246 0.8382
vn -0.6112 0.0441 -0.7902
vn -0.4146 -0.8734 0.2555
vn 0.5532 0.7199 -0.4192
vn -0.8431 -0.5311 0.0845
vn 0.4561 -0.1220 0.8815
vn -0.5756 -0.7433 -0.3409
vn -0.4669 -0.8821 -0.0621
vn -0.6614 0.0466 -0.7486
vn 0.5702 0.6460 -0.5075
vn 0.4575 0.8753 -0.1568
vn 0.2617 -0.3027 0.9165
vn -0.3188 0.1498 0.9359
vn -0.6281 0.3107 -0.7134
vn -0.3935 -0.9179 0.0505
vn -0.4017 0.8982 -0.1785
vn -0.4178 0.7786 -0.4683
vn -0.3458 0.7829 0.5172
vn 0.2524 0.2626 0.9313
vn 0.6258 0.1128 -0.7718
vn 0.4564 0.8734 -0.1702
vn -0.2749 -0.3546 0.8937
vn -0.2406 -0.4483 0.8609
vn -0.6585 0.0898 -0.7472
vn -0.3229 0.1861 0.9279
vn -0.4852 0.8701 -0.0873
vn -0.5808 -0.4774 -0.6594
vn 0.3660 -0.8862 -0.2840
vn 0.3491 0.2814 0.8938
vn -0.8896 0.4487 0.0850
vn -0.3085 -0.0768 0.9481
vn -0.4842 0.8720 -0.0723
vn -0.6110 -0.2270 -0.7584
vn 0.3657 -0.7314 0.5756
vn 0.5991 -0.3209 -0.7336
vn 0.2851 0.7807 0.5560
vn 0.5768 -0.3707 -0.7279
vn 0.4569 0.8751 -0.1598
vn 0.2614 -0.2225 0.9392
vn 0.9911 0.1329 0.0029
vn 0.9999 -0.0054 0.0108
vn 0.9920 0.1143 -0.0534
vn 0.9996 0.0020 0.0296
vn 0.9929 0.0989 -0.0667
vn 0.9911 0.1331 0.0006
vn 0.9995 -0.0129 -0.0287
vn 0.9937 0.0878 -0.0693
vn 0.9938 0.0870 0.0696
vn -0.6413 0.3597 -0.6778
vn 0.4876 -0.2042 0.8489
vn 0.8356 -0.4602 -0.3000
vn 0.7869 -0.3657 0.4970
vn -0.8796 -0.2230 -0.4201
vn 0.3394 -0.1131 0.9338
vn -0.8507 -0.3089 -0.4254
vn 0.6483 -0.3694 0.6658
vn 0.0401 -0.4403 0.8969
vn -0.4215 -0.4553 0.7842
vn -0.0585 -0.4920 0.8686
vn -0.4706 0.0520 0.8808
vn 0.6581 0.2390 0.7140
vn 0.8994 -0.4349 -0.0447
vn 0.3688 -0.9209 0.1258
vn 0.8599 -0.5096 -0.0287
vn 0.3682 -0.4398 0.8192
vn 0.0212 -0.4036 0.9147
vn 0.0647 -0.4329 0.8991
vn -0.7191 0.2396 -0.6523
vn 0.2688 0.0657 0.9610
vn 0.6833 0.2032 0.7013
vn 0.7602 -0.4324 0.4848
vn -0.0938 -0.1557 -0.9833
vn -0.8620 -0.1093 -0.4949
vn 0.0307 -0.1391 0.9898
vn -0.8343 -0.1311 0.5355
vn 0.2254 -0.3916 0.8921
vn -0.7341 0.0811 0.6742
vn -0.0725 0.4574 0.8863
vn 0.7617 -0.0842 -0.6424
vn -0.1005 0.6344 -0.7665
vn -0.5233 -0.6070 0.5981
vn -0.8892 -0.1663 0.4262
vn -0.8774 -0.2025 0.4350
vn -0.0307 0.1391 0.9898
vn -0.6369 0.3188 0.7020
vn -0.0793 0.3587 0.9301
vn -0.5848 -0.2124 0.7829
vn 0.0586 -0.3697 0.9273
vn 0.6706 -0.3356 -0.6616
vn 0.0803 -0.5067 -0.8584
vn 0.9676 -0.1069 -0.2288
vn -0.6977 -0.7094 0.1001
vn -0.8952 -0.1531 0.4185
vn 0.8758 0.1401 0.4618
vn 0.8481 0.2316 0.4766
vn 0.8469 0.1994 0.4930
vn 0.5856 0.2127 -0.7822
vn -0.0831 0.3761 -0.9228
vn -0.8108 0.4901 -0.3200
vn -0.8239 0.5321 -0.1952
vn -0.8082 0.5498 -0.2111
vn -0.6355 0.7706 -0.0473
vn -0.9239 0.3622 -0.1231
vn -0.8443 0.4007 -0.3558
vn 0.7841 0.0719 0.6165
vn 0.4132 0.0270 0.9102
vn 0.7004 0.7101 0.0713
vn 0.4562 0.8783 0.1429
vn 0.6627 0.7420 0.1014
vn -0.8228 0.3226 0.4678
vn 0.9226 -0.1020 -0.3720
vn -0.8444 0.1153 -0.5231
vn -0.0825 0.3733 -0.9240
vn 0.0581 -0.3664 0.9286
vn -0.1332 -0.3728 0.9183
vn -0.9949 -0.0799 -0.0622
vn 0.0810 -0.5111 -0.8557
vn -0.0800 0.3621 0.9287
vn 0.1969 -0.2398 -0.9506
vn 0.4008 -0.1863 0.8970
vn 0.7201 -0.0796 -0.6893
vn 0.7832 -0.3717 0.4985
vn -0.8690 -0.0568 -0.4916
vn 0.4189 -0.1535 0.8950
vn 0.1148 -0.3726 0.9209
vn 0.1381 -0.3432 0.9291
vn -0.4444 -0.8387 0.3149
vn 0.3688 -0.9209 0.1259
vn 0.5899 -0.8051 0.0624
vn -0.0457 -0.3224 0.9455
vn -0.0369 -0.3367 0.9409
vn 0.0716 -0.4389 0.8957
vn -0.7338 0.6193 -0.2792
vn 0.3523 0.1048 0.9300
vn 0.7122 0.3096 0.6300
vn 0.7069 -0.2590 0.6582
vn 0.0389 -0.2457 -0.9686
vn -0.8893 -0.2173 -0.4024
vn 0.0664 -0.4191 0.9055
vn -0.8314 0.2929 0.4723
vn 0.2094 0.3475 0.9140
vn 0.8349 0.3817 -0.3965
vn -0.3228 0.5608 -0.7624
vn -0.6185 -0.5494 0.5617
vn -0.5230 -0.6071 0.5982
vn 0.1572 -0.5866 0.7945
vn -0.0573 0.3615 0.9306
vn 0.0816 -0.3691 0.9258
vn 0.1104 -0.4993 -0.8594
vn 0.8790 -0.3446 -0.3296
vn 0.6573 -0.7023 -0.2733
vn -0.8666 0.0958 0.4897
vn 0.3678 0.9112 -0.1856
vn -0.0597 0.3767 -0.9244
vn 0.9451 -0.1628 0.2832
vn 0.9525 0.0698 0.2965
vn 0.9394 -0.0067 0.3427
vn 0.9189 0.1394 -0.3690
vn 0.8846 -0.3005 -0.3566
vn -0.8668 0.3630 -0.3419
vn 0.7912 0.2006 0.5777
vn 0.4546 0.0417 0.8897
vn -0.1204 -0.9923 -0.0290
vn -0.1002 -0.9835 -0.1506
vn -0.0427 -0.9990 -0.0164
vn -0.9143 0.1011 0.3922
vn 0.9529 0.1629 -0.2558
vn -0.9641 0.0958 -0.2476
vn -0.0592 0.3737 -0.9257
vn 0.0808 -0.3656 0.9273
vn 0.1630 0.4563 -0.8748
vn 0.0531 -0.3348 0.9408
vn 0.4776 -0.8760 0.0679
vn 0.7101 -0.7040 0.0122
vn 0.6643 -0.7451 0.0600
vn 0.1112 -0.5033 -0.8569
vn -0.0578 0.3647 0.9293
vn -0.2930 0.3568 0.8870
vn -0.7928 -0.1567 0.5890
vn 0.4855 -0.3650 -0.7944
vn 0.3354 -0.7729 -0.5387
vn -0.5138 0.6889 0.5113
vn -0.2274 0.6828 0.6943
vn -0.3521 0.7015 0.6196
vn -0.7565 0.3414 0.5577
vn 0.3173 0.8882 0.3324
vn 0.9162 0.1417 0.3747
vn 0.1661 0.9417 -0.2927
vn 0.5092 0.1685 -0.8440
vn -0.3672 -0.8423 0.3946
vn -0.5610 -0.8090 0.1755
vn -0.5252 -0.7750 0.3514
vn 0.8845 -0.3135 0.3456
vn -0.9410 -0.1089 -0.3204
vn -0.9935 -0.0766 -0.0837
vn -0.9816 0.1816 -0.0585
vn -0.6262 -0.7725 0.1054
vn -0.9099 0.3529 -0.2181
vn -0.8523 -0.3735 -0.3662
vn -0.4989 0.8667 0.0055
vn -0.8115 0.3851 -0.4394
vn 0.6292 -0.6956 0.3467
vn -0.7083 -0.7032 -0.0619
vn 0.9433 0.0692 0.3248
vn 0.9155 -0.1104 0.3868
vn 0.9180 -0.1845 0.3510
vn -0.5543 0.8279 -0.0850
vn -0.5327 0.8423 -0.0818
vn -0.5422 0.8301 -0.1305
vn -0.6182 0.7729 0.1428
vn -0.9816 0.1811 -0.0601
vn 0.4972 0.8593 0.1200
vn 0.7260 0.6799 0.1032
vn 0.7837 0.6190 0.0518
vn -0.9655 0.0171 -0.2599
vn -0.9816 -0.1678 -0.0914
vn 0.6555 -0.7083 -0.2620
vn 0.3569 0.9192 -0.1663
vn 0.8393 -0.3079 0.4482
vn 0.7973 -0.3505 0.4915
vn 0.7941 -0.3908 0.4655
vn 0.9186 0.1362 -0.3710
vn 0.8845 -0.3076 -0.3508
vn -0.6490 -0.6315 -0.4243
vn -0.5858 -0.7900 -0.1808
vn -0.6354 -0.7559 -0.1574
vn -0.8496 -0.0624 -0.5237
vn 0.6400 -0.7675 0.0363
vn 0.6132 -0.7870 0.0679
vn 0.4599 -0.8835 0.0892
vn -0.6381 0.5705 0.5170
vn -0.6919 0.5299 0.4904
vn -0.7106 0.5568 0.4302
vn 0.3438 0.8817 0.3230
vn 0.9170 0.1568 0.3667
vn -0.5611 -0.8204 0.1101
vn -0.1365 -0.9174 0.3737
vn 0.1095 -0.8766 0.4687
vn 0.8673 -0.3400 0.3635
vn -0.8653 -0.2194 -0.4507
vn -0.5161 -0.8565 0.0127
vn -0.5872 0.8063 0.0717
vn -0.9470 0.2346 -0.2194
vn 0.5887 -0.7170 0.3733
vn 0.1859 0.2316 0.9549
vn 0.7019 0.0591 -0.7098
vn 0.5380 0.8373 -0.0969
vn -0.2013 0.4978 0.8436
vn -0.6975 0.2182 -0.6825
vn -0.4474 -0.8454 0.2918
vn 0.6700 0.3123 -0.6735
vn 0.1863 0.3042 0.9342
vn 0.2820 -0.8825 0.3763
vn 0.6379 0.7296 -0.2466
vn -0.8839 -0.4657 0.0435
vn 0.5422 -0.0632 0.8378
vn 0.6303 -0.4421 -0.6382
vn 0.1283 -0.0561 0.9901
vn 0.1765 -0.9050 0.3870
vn -0.1687 0.1414 0.9755
vn -0.6637 0.5155 -0.5420
vn -0.4335 -0.8877 0.1555
vn -0.3355 0.9396 -0.0675
vn -0.4653 0.7382 -0.4885
vn -0.2413 0.8368 0.4915
vn -0.2392 0.7512 0.6153
vn -0.7178 -0.1409 -0.6819
vn -0.6819 -0.3640 -0.6345
vn 0.4306 -0.8941 -0.1229
vn 0.5537 0.8278 -0.0900
vn 0.4089 -0.9112 0.0491
vn 0.6323 0.7189 -0.2889
vn 0.5381 0.8387 -0.0837
vn 0.1600 -0.5121 0.8439
vn 0.4376 0.7909 0.4277
vn 0.2030 0.2689 0.9415
vn 0.2985 -0.9226 0.2441
vn -0.6974 -0.6551 -0.2908
vn -0.5529 -0.8328 -0.0273
vn -0.7646 0.1491 -0.6270
vn -0.2007 -0.4755 0.8565
vn -0.1703 -0.5345 0.8279
vn -0.7415 0.2789 -0.6102
vn -0.1772 0.1881 0.9660
vn -0.4162 0.9092 0.0069
vn -0.6870 -0.4953 -0.5317
vn 0.3186 -0.9386 -0.1324
vn 0.5223 0.1893 0.8315
vn -0.8316 0.5371 0.1412
vn -0.1911 -0.1725 0.9663
vn -0.4112 0.9111 0.0277
vn -0.7283 -0.1476 -0.6692
vn 0.2621 -0.8028 0.5356
vn 0.6360 -0.3717 -0.6763
vn 0.3418 0.8263 0.4477
vn 0.6079 -0.4061 -0.6823
vn 0.5376 0.8386 -0.0884
vn 0.1609 -0.4337 0.8866
vn -0.6981 0.0511 0.7141
vn -0.6909 0.0447 0.7216
vn -0.6517 -0.0223 0.7581
vn -0.6386 0.1171 0.7606
vn 0.2520 0.1572 0.9549
vn 0.6820 -0.1760 -0.7098
vn 0.7844 0.6126 -0.0969
vn -0.0256 0.5364 0.8436
vn -0.5863 0.4363 -0.6825
vn -0.7016 -0.6501 0.2918
vn 0.7355 0.0735 -0.6735
vn 0.2763 0.2256 0.9342
vn -0.0253 -0.9262 0.3763
vn 0.8431 0.4780 -0.2466
vn -0.9881 -0.1476 0.0435
vn 0.4909 -0.2387 0.8378
vn 0.4489 -0.6255 -0.6382
vn 0.1026 -0.0953 0.9901
vn -0.1324 -0.9125 0.3870
vn -0.1125 0.1892 0.9755
vn -0.4562 0.7057 -0.5420
vn -0.7023 -0.6947 0.1555
vn -0.0063 0.9977 -0.0675
vn -0.1954 0.8504 -0.4884
vn 0.0486 0.8695 0.4915
vn 0.0223 0.7880 0.6153
vn -0.7240 0.1041 -0.6819
vn -0.7639 -0.1183 -0.6344
vn 0.1111 -0.9862 -0.1229
vn 0.7961 0.5985 -0.0899
vn 0.0850 -0.9952 0.0491
vn 0.8342 0.4697 -0.2889
vn 0.7849 0.6139 -0.0837
vn -0.0181 -0.5362 0.8439
vn 0.6743 0.6020 0.4277
vn 0.2805 0.1868 0.9415
vn -0.0230 -0.9695 0.2441
vn -0.8746 -0.3880 -0.2907
vn -0.7969 -0.6035 -0.0273
vn -0.6725 0.3933 -0.6270
vn -0.3465 -0.3825 0.8565
vn -0.3373 -0.4482 0.8279
vn -0.6078 0.5082 -0.6102
vn -0.1052 0.2361 0.9660
vn -0.0925 0.9957 0.0069
vn -0.8120 -0.2405 -0.5317
vn -0.0093 -0.9912 -0.1324
vn 0.5555 0.0062 0.8315
vn -0.6075 0.7817 0.1412
vn -0.2373 -0.0997 0.9663
vn -0.0871 0.9958 0.0277
vn -0.7361 0.1012 -0.6692
vn -0.0177 -0.8443 0.5356
vn 0.4775 -0.5609 -0.6763
vn 0.5955 0.6671 0.4477
vn 0.4397 -0.5841 -0.6823
vn 0.7844 0.6139 -0.0884
vn 0.0086 -0.4625 0.8866
vn 0.6429 -0.5737 -0.5074
vn -0.1563 -0.1295 0.9792
vn -0.1995 -0.8950 0.3991
vn 0.3065 -0.9276 -0.2135
vn 0.7580 0.6427 0.1115
vn 0.1208 -0.9894 0.0810
vn -0.3208 0.7559 0.5708
vn -0.3160 0.0169 -0.9486
vn -0.3169 -0.0886 -0.9443
vn 0.8565 -0.0534 -0.5133
vn -0.0041 0.2282 0.9736
vn -0.0769 -0.9261 0.3695
vn 0.4616 0.6217 0.6327
vn -0.0015 0.1977 0.9803
vn -0.0059 -0.9829 0.1840
vn -0.4595 0.5248 0.7166
vn -0.2307 0.2532 -0.9395
vn -0.7454 -0.6665 -0.0104
vn 0.8740 0.4725 -0.1137
vn -0.9417 -0.1953 -0.2739
vn 0.0365 -0.2700 0.9622
vn -0.6258 -0.4920 -0.6052
vn -0.6787 -0.6584 -0.3254
vn -0.2885 0.2737 -0.9175
vn 0.8960 0.3967 -0.1993
vn 0.7476 0.6537 0.1172
vn -0.2057 -0.3694 0.9062
vn -0.5663 0.2604 0.7820
vn -0.1840 0.5088 -0.8410
vn -0.6677 -0.7171 -0.1997
vn 0.0157 0.9811 -0.1931
vn 0.0666 0.8729 -0.4834
vn -0.2263 0.8585 0.4602
vn -0.0300 0.1622 0.9863
vn 0.8618 -0.1231 -0.4921
vn 0.7508 0.6522 0.1042
vn -0.6815 -0.2268 0.6958
vn -0.6712 -0.3269 0.6653
vn -0.2721 0.3130 -0.9099
vn -0.5549 0.2957 0.7776
vn -0.0994 0.9851 -0.1400
vn -0.4261 -0.2440 -0.8712
vn 0.1248 -0.9605 -0.2487
vn 0.0740 0.1451 0.9866
vn -0.6546 0.7368 -0.1691
vn -0.6376 0.0450 0.7691
vn -0.1033 0.9867 -0.1255
vn -0.3327 -0.0000 -0.9430
vn -0.1350 -0.8095 0.5714
vn 0.6796 -0.5186 -0.5188
vn 0.3078 0.6320 0.7113
vn 0.6415 -0.5572 -0.5272
vn 0.7481 0.6537 0.1142
vn -0.1874 -0.2942 0.9372
vn 0.7199 -0.4700 -0.5108
vn -0.1392 -0.1661 0.9762
vn -0.1214 -0.8583 0.4986
vn 0.5999 -0.7373 -0.3107
vn 0.6194 0.7833 0.0527
vn 0.3062 -0.9402 0.1494
vn -0.3741 0.5992 0.7079
vn -0.4360 -0.0642 -0.8976
vn -0.3683 0.0175 -0.9296
vn 0.8275 -0.0861 -0.5549
vn -0.0405 0.2775 0.9599
vn 0.1313 -0.8928 0.4309
vn 0.2783 0.6740 0.6843
vn -0.0219 0.2416 0.9701
vn 0.2560 -0.9602 0.1115
vn -0.4777 0.3644 0.7994
vn -0.4115 0.0333 -0.9108
vn -0.5734 -0.8120 0.1090
vn 0.9189 0.3401 -0.1999
vn -0.9727 -0.0450 -0.2277
vn -0.0056 -0.3685 0.9296
vn -0.6043 -0.6631 -0.4418
vn -0.5831 -0.7928 -0.1775
vn -0.4687 0.1429 -0.8717
vn 0.8418 0.3923 -0.3708
vn 0.6129 0.7889 0.0448
vn -0.1080 -0.1437 0.9837
vn -0.5211 0.1285 0.8438
vn -0.4263 0.1671 -0.8890
vn -0.4308 -0.8782 -0.2076
vn -0.0849 0.9704 -0.2262
vn -0.0313 0.9313 -0.3630
vn -0.2606 0.7875 0.5586
vn -0.0471 0.2029 0.9781
vn 0.8609 0.0415 -0.5072
vn 0.6161 0.7873 0.0233
vn -0.4758 -0.1313 0.8697
vn -0.4652 -0.3068 0.8304
vn -0.4814 0.0594 -0.8745
vn -0.4992 0.2199 0.8381
vn -0.3059 0.9397 -0.1528
vn -0.4630 -0.2657 -0.8456
vn 0.6116 -0.7284 -0.3088
vn 0.0546 0.2545 0.9655
vn -0.9557 0.2025 -0.2137
vn -0.5115 0.0632 0.8569
vn -0.3089 0.9405 -0.1412
vn -0.4474 -0.1211 -0.8861
vn 0.0272 -0.6858 0.7273
vn 0.7796 -0.3711 -0.5044
vn 0.0613 0.6064 0.7928
vn 0.7302 -0.4464 -0.5172
vn 0.6132 0.7888 0.0414
vn -0.0957 -0.0865 0.9916
vn -0.3598 0.0371 0.9323
vn -0.4307 0.0465 0.9013
vn -0.3561 0.0097 0.9344
vn -0.3855 0.0667 0.9203
vn -0.3862 0.0317 0.9219
vn -0.3233 0.3499 0.8793
vn -0.4206 0.1440 0.8957
vn 0.8193 -0.2607 -0.5108
vn -0.0898 -0.1973 0.9762
vn 0.1122 -0.8596 0.4986
vn 0.7750 -0.5503 -0.3107
vn 0.3877 0.9203 0.0527
vn 0.5462 -0.8243 0.1494
vn -0.5205 0.4775 0.7079
vn -0.4031 -0.1783 -0.8976
vn -0.3596 -0.0814 -0.9296
vn 0.8204 0.1380 -0.5549
vn -0.1131 0.2566 0.9599
vn 0.3649 -0.8253 0.4309
vn 0.0882 0.7238 0.6843
vn -0.0856 0.2270 0.9701
vn 0.5032 -0.8570 0.1116
vn -0.5577 0.2236 0.7994
vn -0.4055 -0.0779 -0.9108
vn -0.3357 -0.9356 0.1090
vn 0.7947 0.5732 -0.1999
vn -0.9253 -0.3031 -0.2277
vn 0.0930 -0.3566 0.9296
vn -0.4052 -0.8004 -0.4418
vn -0.3502 -0.9197 -0.1775
vn -0.4898 0.0125 -0.8717
vn 0.7065 0.6028 -0.3708
vn 0.3800 0.9239 0.0448
vn -0.0657 -0.1673 0.9837
vn -0.5365 -0.0153 0.8438
vn -0.4554 0.0472 -0.8890
vn -0.1807 -0.9614 -0.2076
vn -0.3409 0.9125 -0.2262
vn -0.2788 0.8891 -0.3630
vn -0.4614 0.6893 0.5586
vn -0.0996 0.1829 0.9781
vn 0.8185 0.2698 -0.5072
vn 0.3835 0.9232 0.0233
vn -0.4234 -0.2536 0.8697
vn -0.3663 -0.4199 0.8304
vn -0.4798 -0.0713 -0.8745
vn -0.5398 0.0786 0.8381
vn -0.5458 0.8239 -0.1528
vn -0.3752 -0.3797 -0.8456
vn 0.7839 -0.5386 -0.3088
vn -0.0154 0.2599 0.9655
vn -0.9751 -0.0600 -0.2137
vn -0.5098 -0.0757 0.8569
vn -0.5489 0.8239 -0.1413
vn -0.3988 -0.2362 -0.8861
vn 0.2094 -0.6536 0.7273
vn 0.8504 -0.1494 -0.5044
vn -0.1028 0.6007 0.7928
vn 0.8229 -0.2352 -0.5172
vn 0.3803 0.9239 0.0414
vn -0.0691 -0.1089 0.9916
vt -9.118451 -5.372513
vt -8.452671 -5.578160
vt -7.594515 -1.220745
vt -11.381714 11.217767
vt -9.426034 7.472473
vt -8.865959 7.663140
vt 0.476961 2.181661
vt -0.271875 2.274532
vt -0.271875 -1.327390
vt -8.423091 3.199757
vt -8.191676 -1.187849
vt -7.737114 3.297733
vt -7.358456 3.351767
vt -8.591329 7.759736
vt -10.434862 10.890341
vt -10.460232 -8.940285
vt -9.952267 -9.070082
vt -8.123323 -5.684931
vt -7.297073 -1.238738
vt -6.966689 -6.042153
vt -6.258723 3.507699
vt -7.722317 8.125599
vt -9.840727 12.703529
vt -8.767547 -9.349650
vt -6.383403 -1.327220
vt 0.488645 -0.922131
vt -10.155680 10.942912
vt -11.413428 -9.688410
vt 4.659843 1.145102
vt 3.572075 -0.388607
vt 5.550610 -0.768057
vt 8.658452 -10.504609
vt 11.594955 -8.289899
vt 8.116508 -7.684793
vt 0.840381 -0.623072
vt 1.331034 1.181793
vt 0.484187 0.601397
vt 0.081782 3.172808
vt 0.619496 -0.008086
vt 1.369709 2.779932
vt -0.276859 -0.911735
vt 1.641953 -1.482558
vt -1.833564 -0.461436
vt -1.022819 -7.901238
vt 4.638061 -7.079687
vt -6.258723 -8.438355
vt -1.266461 -11.545190
vt -5.258273 -11.703528
vt -5.321991 4.652021
vt -2.498276 8.032457
vt -6.258724 7.666476
vt -4.056118 3.172811
vt 4.852743 3.172810
vt -0.861379 2.021888
vt 0.884855 2.045282
vt -0.852965 2.879774
vt -0.838674 0.984342
vt 1.269083 0.995033
vt 1.036581 -1.143601
vt -0.793929 -1.090759
vt -0.861378 -1.879774
vt -0.815961 -0.053204
vt -1.097460 -0.732527
vt 0.134854 0.620759
vt -0.255614 0.851964
vt 4.962687 -9.305689
vt 2.775121 2.080846
vt 12.354218 -11.703529
vt -0.627307 -4.044398
vt 0.782413 -0.595717
vt -0.627306 5.044398
vt -1.340501 1.842682
vt -1.340501 -0.384654
vt 1.319614 -0.067678
vt -0.689779 -1.089689
vt 0.543012 0.379654
vt -0.191523 -1.320404
vt 0.959366 0.103128
vt 0.381447 -1.389121
vt 0.842183 -1.389094
vt 2.269926 -0.501782
vt 2.532724 0.692442
vt 3.351128 -3.137287
vt 2.989022 -0.864389
vt 1.655486 -0.153409
vt -0.425829 1.630590
vt -1.069182 -1.866687
vt -1.069182 2.866687
vt 1.205947 -1.110668
vt 1.017869 0.416556
vt 1.017869 -1.299688
vt -0.337768 -3.015930
vt 0.582312 3.725621
vt -0.376754 4.077802
vt 2.592354 0.096837
vt 2.897483 -2.838622
vt 3.356857 -3.293362
vt -0.603443 -3.293362
vt -0.610690 4.279993
vt 0.175720 -0.943317
vt -1.418091 -0.983601
vt -1.499977 -1.299690
vt -1.463721 -3.239258
vt 0.651168 -0.811007
vt 0.117862 -0.073604
vt -0.255121 -0.677678
vt 1.045743 4.251595
vt 1.367430 3.618708
vt 1.551499 3.690127
vt -1.470879 4.242973
vt -2.480042 -2.753010
vt -1.499978 6.295105
vt 1.017869 -0.203188
vt -0.598182 6.164172
vt 1.192316 0.953354
vt 1.017869 1.317129
vt 1.158326 0.416554
vt 1.663185 -0.673044
vt 0.583744 -2.698359
vt 3.356854 3.372809
vt 1.551496 2.306590
vt 2.210103 1.791936
vt -1.433509 -0.567798
vt 1.017869 0.752865
vt -1.981935 4.279993
vt -2.486321 3.812722
vt -1.971775 -3.248026
vt 0.396099 4.235470
vt 0.942162 4.050682
vt 4.620181 1.111375
vt 5.186107 -0.957708
vt 5.323319 1.378477
vt 4.434367 -0.608345
vt 3.227732 -2.502277
vt 2.976979 -1.653547
vt 0.595464 -2.048730
vt 0.595464 1.675387
vt 0.824372 -1.078449
vt 3.219885 2.661945
vt -1.501852 -1.942900
vt -3.663444 -0.960830
vt -2.029585 -2.502276
vt -3.034582 -0.588729
vt -4.077689 1.287828
vt -3.259017 1.100879
vt -2.438082 3.296914
vt -2.045700 2.409889
vt 0.595466 3.080507
vt 0.444637 1.951015
vt 0.595466 -0.557843
vt 4.464355 0.965549
vt 5.071791 -1.030373
vt 5.194974 1.345497
vt 4.331625 -0.689916
vt 3.153339 -2.437947
vt 2.946313 -1.630279
vt 0.724377 -1.896890
vt 0.892289 1.529946
vt 0.981506 -1.008637
vt 3.354015 2.920673
vt 0.724377 2.430236
vt 3.209362 2.119285
vt -0.207802 -0.662023
vt -1.837326 -2.437943
vt 0.645266 -1.119238
vt -1.885625 -1.471117
vt -4.272895 -1.036495
vt -3.469937 -0.489799
vt -4.272895 1.761863
vt -3.411061 1.300282
vt -1.739860 2.946863
vt -1.701965 2.002718
vt 0.724374 1.688420
vt -0.078024 1.124831
vt 0.597537 -1.387781
vt -0.961348 -0.329535
vt -1.712392 -0.836041
vt -1.835268 1.819836
vt 0.678053 2.264465
vt 3.056116 2.565269
vt 0.502099 3.141907
vt -0.986820 1.428764
vt 2.939466 -0.979648
vt 0.458896 -2.209568
vt 3.056119 -1.868841
vt 2.783786 1.627647
vt 2.561686 -3.146139
vt 3.735046 6.761663
vt 4.607866 4.398417
vt 5.294962 5.845757
vt 7.928170 4.427633
vt 6.984922 4.799525
vt 7.928694 4.232554
vt 3.722516 -2.450618
vt 2.391860 0.112044
vt 1.724875 -1.880086
vt -3.707411 -5.723162
vt -5.034225 -6.471307
vt -4.421468 -7.125907
vt 1.313960 3.478658
vt -0.541443 4.931980
vt 0.199876 3.114365
vt 5.612713 5.919635
vt 2.443001 4.805656
vt 3.015399 6.450239
vt 1.947304 6.146135
vt 6.276898 6.789058
vt 4.127357 6.831881
vt 4.282111 -6.638792
vt 4.016298 -5.978953
vt 4.069702 -6.789717
vt 3.705794 -3.447591
vt 3.899783 -2.534687
vt 2.771217 6.658826
vt 0.709790 7.175979
vt 1.585509 6.288147
vt 4.135796 -5.686378
vt 3.830618 -4.408885
vt 4.096877 -0.859771
vt 3.949237 -0.578863
vt 0.352609 5.362230
vt 0.140396 5.498926
vt -5.651455 -4.679767
vt -4.089643 -5.003559
vt 2.485534 3.500599
vt 4.113385 -7.125907
vt -6.374318 -3.364144
vt -5.990158 -4.158604
vt -4.619106 -3.394081
vt -4.502706 -4.230315
vt 5.170808 -1.201726
vt -4.982749 -0.674595
vt -6.173828 -0.311416
vt -6.113456 -0.596528
vt 2.291227 -5.653428
vt 4.561176 3.639530
vt 4.175729 4.377161
vt 4.386010 0.718916
vt 4.202099 1.063450
vt 3.389562 6.615283
vt 2.837224 6.996145
vt 5.151606 -5.018269
vt 6.181389 7.123283
vt 2.720757 4.619127
vt 1.655286 -3.208909
vt -1.943649 0.057611
vt -2.811235 -0.013383
vt -2.003521 -0.469543
vt -6.259640 -2.812294
vt -4.739588 -2.549504
vt -4.859109 0.194481
vt -3.144735 0.975915
vt -4.725378 0.937886
vt 3.389563 6.919527
vt -2.176673 -1.485483
vt 3.389563 2.144547
vt 4.522498 1.872801
vt 4.891373 2.377285
vt -4.789421 -1.664210
vt 6.644198 2.889640
vt 5.596138 3.362232
vt -5.975215 1.621626
vt -6.374318 1.068242
vt -6.336711 -2.185795
vt 1.578282 -4.530088
vt 3.978355 -4.221314
vt 5.765229 1.419524
vt 6.193997 2.190333
vt 4.547240 -6.751409
vt 5.452013 -5.079823
vt 1.363012 -5.618742
vt 2.042018 -5.881647
vt -5.785386 -4.409201
vt 3.975010 7.153558
vt -1.879884 -2.821138
vt -1.922868 -2.153405
vt 2.185670 0.485553
vt 5.452013 -1.011372
vt 4.635618 0.956454
vt 4.253598 1.419526
vt -6.105690 -0.871530
vt 1.643737 -0.587726
vt 7.113629 4.953350
vt 3.888599 -3.384016
vt 0.725301 7.530369
vt -3.556788 5.398495
vt -4.764884 6.535692
vt -5.199705 5.226941
vt -3.514622 2.602707
vt -5.028224 1.872556
vt -4.121092 1.621625
vt -2.218967 -5.255201
vt -2.271798 -4.201161
vt -3.310283 3.981433
vt -5.341078 2.938898
vt -5.407390 4.043067
vt -0.650732 5.098462
vt 1.878151 2.439000
vt 0.825611 1.419526
vt 2.216384 1.637634
vt -1.445062 -3.471665
vt -0.772434 -2.652790
vt -0.836195 -1.965982
vt -6.374320 4.124597
vt -6.139692 5.468696
vt -1.069429 -1.284600
vt -1.304859 -0.187409
vt -0.573718 -5.386167
vt -0.469058 -3.040993
vt -0.650733 -4.314613
vt -6.329613 2.797837
vt -6.040297 1.621625
vt -0.307184 -1.691361
vt 0.543887 2.311389
vt -2.008944 3.281076
vt -2.688681 2.529389
vt -2.251927 2.068137
vt -2.374029 4.538858
vt -2.523540 3.353741
vt 3.389561 1.670330
vt -3.310280 5.579234
vt -2.771662 4.208571
vt -3.310280 1.621626
vt -0.155230 -0.368262
vt -1.315424 -4.240317
vt -4.128082 6.719323
vt -5.728251 6.836770
vt -0.650732 -3.530606
vt 4.351705 -8.892882
vt -0.608447 -10.735236
vt 2.654217 2.101681
vt 2.001156 0.142500
vt 2.654217 0.142500
vt 2.001156 2.101681
vt 1.348095 0.142500
vt 1.348095 2.101681
vt 0.695035 0.142500
vt 0.695035 2.101681
vt 0.041974 0.142500
vt -1.098971 -1.307295
vt -0.284556 -1.777499
vt 0.529859 -1.307295
vt 0.041974 2.101681
vt -0.611087 0.142500
vt -0.611087 2.101681
vt -1.264147 0.142500
vt 0.529859 -0.366888
vt -0.284556 0.103316
vt -1.098971 -0.366888
vt -1.264147 2.101681
vt 0.649001 -8.523301
vt -0.719075 -8.189859
vt -0.472696 -8.704914
vt 4.341958 -7.561194
vt 4.229297 -8.053511
s 0
g iceMesh_iceMat
usemtl iceMat
f 4/1/1 10/2/1 9/3/1
f 6/4/2 1/5/2 7/6/2
f 5/7/3 11/8/3 10/9/3
f 2/10/4 3/11/4 9/3/4
f 2/10/5 8/12/5 7/6/5
f 8/12/6 14/13/6 13/14/6
f 12/15/7 7/6/7 13/14/7
f 11/16/8 17/17/8 16/18/8
f 8/12/9 9/3/9 15/19/9
f 10/2/10 16/18/10 15/19/10
f 15/19/11 16/18/11 22/20/11
f 13/14/12 14/13/12 20/21/12
f 13/14/13 19/22/13 24/23/13
f 16/18/14 17/17/14 23/24/14
f 15/19/15 21/25/15 20/21/15
f 4/1/16 9/3/16 3/11/16
f 6/4/17 7/6/17 12/15/17
f 5/7/18 10/9/18 4/26/18
f 2/10/19 9/3/19 8/12/19
f 2/10/20 7/6/20 1/5/20
f 8/12/21 13/14/21 7/6/21
f 12/15/22 13/14/22 18/27/22
f 11/16/23 16/18/23 10/2/23
f 8/12/24 15/19/24 14/13/24
f 10/2/25 15/19/25 9/3/25
f 15/19/11 22/20/11 21/25/11
f 13/14/26 20/21/26 19/22/26
f 13/14/13 24/23/13 18/27/13
f 16/18/27 23/24/27 22/20/27
f 15/19/28 20/21/28 14/13/28
f 11/16/29 5/28/29 17/17/29
f 17/17/30 5/28/30 23/24/30
f 18/27/31 24/23/31 12/15/31
f 12/15/31 24/23/31 6/4/31
f 35/29/32 33/30/33 36/31/34
f 52/32/35 37/33/36 53/34/37
f 27/35/38 91/36/39 88/37/40
f 25/38/41 90/39/42 26/40/43
f 32/41/44 93/42/45 27/35/46
f 90/39/47 31/43/48 307/44/49
f 33/30/50 306/45/51 36/31/52
f 306/45/53 37/33/54 36/31/55
f 307/44/56 31/43/57 37/46/58
f 309/47/59 37/46/60 30/48/61
f 35/49/62 31/50/63 25/51/64
f 31/50/65 36/52/66 37/53/67
f 43/54/68 38/55/69 62/56/70
f 38/55/71 67/57/72 69/58/73
f 46/59/74 45/60/75 81/61/76
f 46/59/77 82/62/78 45/60/79
f 48/63/80 84/64/81 46/65/82
f 310/66/83 53/34/84 306/45/85
f 35/29/86 89/67/87 33/30/88
f 52/32/89 30/68/90 37/33/91
f 89/67/92 26/40/93 90/39/94
f 25/38/95 31/43/96 90/39/97
f 90/39/98 307/44/99 306/45/100
f 306/69/101 53/70/102 37/71/103
f 309/47/104 307/44/105 37/46/106
f 35/49/107 36/52/108 31/50/109
f 40/65/110 65/72/111 63/73/112
f 85/58/113 82/62/114 84/74/115
f 44/55/116 83/57/117 85/58/118
f 86/75/119 85/76/120 84/64/121
f 310/66/122 52/32/123 53/34/124
f 71/77/125 38/78/126 69/76/127
f 56/54/128 61/55/129 55/56/130
f 78/75/131 77/76/132 76/64/133
f 77/58/134 74/62/135 76/74/136
f 59/65/137 73/72/138 54/73/139
f 59/59/140 60/60/141 73/61/142
f 79/77/143 61/78/144 77/76/145
f 42/63/146 68/64/147 40/65/148
f 38/78/149 41/79/150 64/80/151
f 40/59/152 39/60/153 65/61/154
f 42/63/155 40/65/156 63/73/157
f 70/75/158 69/76/159 68/64/160
f 40/59/161 66/62/162 39/60/163
f 69/58/164 66/62/165 68/74/166
f 38/55/167 43/54/168 67/57/169
f 46/65/170 81/72/171 51/73/172
f 44/78/173 47/79/174 80/80/175
f 44/55/176 49/54/177 83/57/178
f 87/77/179 44/78/180 85/76/181
f 48/63/182 46/65/183 51/73/184
f 49/54/185 44/55/186 50/56/187
f 71/77/188 41/79/189 38/78/190
f 57/63/191 59/65/192 54/73/193
f 57/63/194 76/64/195 59/65/196
f 59/59/197 74/62/198 60/60/199
f 61/55/200 56/54/201 75/57/202
f 61/55/203 75/57/204 77/58/205
f 61/78/206 58/79/207 72/80/208
f 42/63/209 70/75/210 68/64/211
f 38/78/212 64/80/213 62/81/214
f 70/75/215 71/77/216 69/76/217
f 40/59/218 68/74/219 66/62/220
f 69/58/221 67/57/222 66/62/223
f 79/77/224 58/79/225 61/78/226
f 57/63/227 78/75/228 76/64/229
f 61/78/230 72/80/231 55/81/232
f 78/75/233 79/77/234 77/76/235
f 59/59/236 76/74/237 74/62/238
f 77/58/239 75/57/240 74/62/241
f 87/77/242 47/79/243 44/78/244
f 48/63/245 86/75/246 84/64/247
f 44/78/248 80/80/249 50/81/250
f 86/75/251 87/77/252 85/76/253
f 46/59/254 84/74/255 82/62/256
f 85/58/257 83/57/258 82/62/259
f 27/82/260 33/30/261 89/67/262
f 34/83/263 33/30/264 88/84/265
f 32/85/266 89/67/267 90/39/268
f 34/83/269 90/39/270 306/45/271
f 34/86/272 92/87/273 32/41/274
f 34/86/275 91/36/276 94/88/277
f 97/89/278 96/90/278 309/91/278
f 98/92/279 99/93/280 97/94/281
f 111/95/282 112/96/283 100/97/284
f 310/98/285 97/94/286 309/99/287
f 95/100/288 98/101/288 310/102/288
f 309/99/289 95/103/290 310/98/291
f 104/104/292 110/105/292 109/106/292
f 105/107/293 107/108/293 106/109/293
f 96/110/294 103/111/294 95/103/294
f 109/106/295 95/100/295 104/104/295
f 107/112/296 103/113/296 106/114/296
f 96/115/297 108/116/297 105/117/297
f 27/35/298 93/42/299 91/36/300
f 32/41/301 92/87/302 93/42/303
f 27/82/304 88/84/305 33/30/306
f 34/83/307 306/45/308 33/30/309
f 32/85/310 27/82/311 89/67/312
f 34/83/313 32/85/314 90/39/315
f 34/86/316 94/88/317 92/87/318
f 34/86/319 88/37/320 91/36/321
f 97/89/322 99/118/322 96/90/322
f 98/92/323 100/119/324 99/93/325
f 99/120/326 102/121/327 101/122/328
f 310/98/329 98/92/330 97/94/331
f 95/100/332 100/123/332 98/101/332
f 309/99/333 96/110/334 95/103/334
f 104/104/335 103/113/335 110/105/335
f 105/117/336 108/116/336 107/124/336
f 96/110/337 105/125/337 106/126/337
f 106/126/294 103/111/294 96/110/294
f 103/111/338 104/127/338 95/103/338
f 109/106/339 100/123/339 95/100/339
f 107/112/340 110/105/340 103/113/340
f 96/128/341 99/93/341 108/129/341
f 122/130/342 121/131/342 123/132/342
f 120/133/343 119/134/343 121/131/343
f 118/135/344 117/136/344 119/134/344
f 115/137/345 116/138/345 118/135/345
f 122/130/342 120/133/342 121/131/342
f 120/133/343 118/135/343 119/134/343
f 118/135/344 116/138/344 117/136/344
f 118/135/345 120/133/345 115/137/345
f 120/133/345 122/130/345 115/137/345
f 122/130/345 114/139/345 115/137/345
f 114/139/346 122/130/346 123/132/346
f 133/140/342 132/141/342 134/142/342
f 131/143/343 130/144/343 132/141/343
f 129/145/344 128/146/344 130/144/344
f 127/147/347 126/148/347 128/146/347
f 125/149/345 127/147/345 129/145/345
f 133/140/342 131/143/342 132/141/342
f 131/143/343 129/145/343 130/144/343
f 129/145/344 127/147/344 128/146/344
f 127/147/347 125/149/347 126/148/347
f 129/145/345 131/143/345 125/149/345
f 131/143/345 133/140/345 125/149/345
f 133/140/345 124/150/345 125/149/345
f 145/151/342 144/152/342 146/153/342
f 143/154/343 142/155/343 144/152/343
f 141/156/344 140/157/344 142/155/344
f 137/158/345 139/159/345 141/156/345
f 137/158/348 136/160/348 138/161/348
f 135/162/346 146/153/346 136/160/346
f 145/151/342 143/154/342 144/152/342
f 143/154/343 141/156/343 142/155/343
f 141/156/344 139/159/344 140/157/344
f 141/156/345 143/154/345 137/158/345
f 143/154/345 145/151/345 137/158/345
f 145/151/345 135/162/345 137/158/345
f 137/158/348 135/162/348 136/160/348
f 135/162/346 145/151/346 146/153/346
f 157/163/342 156/164/342 158/165/342
f 155/166/343 154/167/343 156/164/343
f 153/168/344 152/169/344 154/167/344
f 151/170/347 150/171/347 152/169/347
f 149/172/345 151/170/345 153/168/345
f 149/172/348 148/173/348 150/171/348
f 147/174/346 158/165/346 148/173/346
f 157/163/342 155/166/342 156/164/342
f 155/166/343 153/168/343 154/167/343
f 153/168/344 151/170/344 152/169/344
f 151/170/347 149/172/347 150/171/347
f 153/168/345 155/166/345 149/172/345
f 155/166/345 157/163/345 149/172/345
f 157/163/345 147/174/345 149/172/345
f 149/172/348 147/174/348 148/173/348
f 147/174/346 157/163/346 158/165/346
f 167/175/343 160/176/343 159/177/343
f 160/176/344 161/178/344 159/177/344
f 164/179/348 165/180/348 163/181/348
f 160/176/344 162/182/344 161/178/344
f 169/183/342 168/184/342 170/185/342
f 162/182/347 163/181/347 161/178/347
f 167/175/343 159/177/343 168/184/343
f 169/183/342 167/175/342 168/184/342
f 164/179/345 162/182/345 160/176/345
f 162/182/347 164/179/347 163/181/347
f 160/176/345 167/175/345 164/179/345
f 167/175/345 169/183/345 164/179/345
f 169/183/345 166/186/345 164/179/345
f 164/179/348 166/186/348 165/180/348
f 173/59/349 172/60/350 180/61/351
f 173/59/352 181/62/353 172/60/354
f 175/63/355 183/64/356 173/65/357
f 184/58/358 181/62/359 183/74/360
f 171/55/361 182/57/362 184/58/363
f 185/75/364 184/76/365 183/64/366
f 173/65/367 180/72/368 178/73/369
f 171/78/370 174/79/371 179/80/372
f 171/55/373 176/54/374 182/57/375
f 186/77/376 171/78/377 184/76/378
f 175/63/379 173/65/380 178/73/381
f 176/54/382 171/55/383 177/56/384
f 186/77/385 174/79/386 171/78/387
f 175/63/388 185/75/389 183/64/390
f 171/78/391 179/80/392 177/81/393
f 185/75/394 186/77/395 184/76/396
f 173/59/397 183/74/398 181/62/399
f 184/58/400 182/57/401 181/62/402
f 189/59/403 188/60/404 196/61/405
f 189/59/406 197/62/407 188/60/408
f 191/63/409 199/64/410 189/65/411
f 200/58/412 197/62/413 199/74/414
f 187/55/415 198/57/416 200/58/417
f 201/75/418 200/76/419 199/64/420
f 189/65/421 196/72/422 194/73/423
f 187/78/424 190/79/425 195/80/426
f 187/55/427 192/54/428 198/57/429
f 202/77/430 187/78/431 200/76/432
f 191/63/433 189/65/434 194/73/435
f 192/54/436 187/55/437 193/56/438
f 202/77/439 190/79/440 187/78/441
f 191/63/442 201/75/443 199/64/444
f 187/78/445 195/80/446 193/81/447
f 201/75/448 202/77/449 200/76/450
f 189/59/451 199/74/452 197/62/453
f 200/58/454 198/57/455 197/62/456
f 100/97/457 99/120/458 111/95/459
f 99/120/460 101/122/461 111/95/462
f 112/96/463 113/187/464 100/97/465
f 226/188/466 242/189/466 222/190/466
f 244/191/467 221/192/467 243/193/467
f 209/194/468 206/195/468 239/196/468
f 246/197/469 216/198/469 244/199/469
f 240/200/470 243/201/470 245/202/470
f 221/192/471 215/203/471 222/190/471
f 205/204/472 235/205/472 219/206/472
f 203/207/473 225/208/473 215/203/473
f 223/209/474 207/210/475 224/211/476
f 247/212/477 212/213/477 209/194/477
f 234/214/478 238/215/478 218/216/478
f 234/214/479 219/206/480 235/205/481
f 222/190/482 225/208/483 226/188/484
f 242/189/485 221/192/485 222/190/485
f 214/217/477 208/218/477 207/210/477
f 209/194/477 211/219/477 210/220/477
f 218/216/486 220/221/486 219/206/486
f 238/215/487 217/222/487 218/216/487
f 203/223/488 216/198/488 228/224/488
f 262/225/489 205/204/489 240/200/489
f 205/204/490 220/221/490 240/200/490
f 256/226/491 223/209/491 224/211/491
f 213/227/492 204/228/492 227/229/492
f 252/230/493 203/223/493 228/224/493
f 212/213/494 237/231/494 211/219/494
f 257/232/495 238/233/495 261/234/495
f 208/218/496 241/235/496 207/210/496
f 253/236/497 242/189/497 254/237/497
f 210/220/498 233/238/499 236/239/500
f 260/240/501 234/214/501 235/205/501
f 211/219/502 237/231/502 233/238/502
f 259/241/503 238/215/503 234/214/503
f 214/217/504 223/209/504 204/242/504
f 251/243/505 225/208/505 203/207/505
f 210/220/506 236/239/506 206/195/506
f 260/240/507 205/204/507 258/244/507
f 209/194/508 249/245/508 247/212/508
f 279/246/509 264/247/509 263/248/509
f 248/249/510 227/229/510 250/250/510
f 230/251/511 269/252/512 246/253/513
f 224/211/514 207/210/514 241/235/514
f 254/237/515 226/188/515 256/254/515
f 257/232/516 271/255/517 263/248/518
f 278/256/519 266/257/519 282/258/519
f 250/250/520 271/255/520 229/259/520
f 245/260/521 221/192/521 232/261/521
f 230/251/522 244/262/522 217/263/522
f 217/222/523 243/201/523 220/221/523
f 257/232/524 264/247/525 230/251/526
f 212/264/527 250/250/527 229/259/527
f 247/212/528 231/265/528 208/218/528
f 213/266/477 247/212/477 208/218/477
f 282/258/529 269/267/529 289/268/529
f 241/235/530 256/226/530 224/211/530
f 204/242/531 255/269/531 251/270/531
f 241/235/497 253/271/497 254/272/497
f 227/229/532 251/273/532 252/230/532
f 226/188/491 255/274/491 256/254/491
f 250/250/533 273/275/533 270/276/533
f 236/239/534 258/277/534 206/195/534
f 233/238/535 261/278/535 259/279/535
f 236/239/501 259/279/501 260/280/501
f 237/281/495 257/232/495 261/234/495
f 206/195/536 262/282/536 239/196/536
f 244/191/537 216/283/537 221/192/537
f 209/194/538 210/220/538 206/195/538
f 246/197/539 228/224/539 216/198/539
f 240/200/540 220/221/540 243/201/540
f 221/192/541 216/283/541 215/203/541
f 223/209/476 214/217/542 207/210/543
f 247/212/477 248/284/477 212/213/477
f 234/214/544 218/216/545 219/206/546
f 222/190/547 215/203/548 225/208/549
f 242/189/550 232/261/550 221/192/550
f 214/217/477 213/266/477 208/218/477
f 209/194/477 212/213/477 211/219/477
f 218/216/551 217/222/551 220/221/551
f 238/233/552 230/251/552 217/263/552
f 203/207/553 215/203/553 216/283/553
f 262/225/554 258/244/554 205/204/554
f 205/204/555 219/206/555 220/221/555
f 256/226/491 255/269/491 223/209/491
f 213/266/494 214/217/494 204/242/494
f 252/230/556 251/273/556 203/223/556
f 212/264/557 229/259/557 237/281/557
f 257/232/558 230/251/558 238/233/558
f 208/218/559 231/265/559 241/235/559
f 253/236/560 232/261/560 242/189/560
f 210/220/561 211/219/562 233/238/563
f 260/240/501 259/241/501 234/214/501
f 259/241/564 261/285/564 238/215/564
f 251/243/565 255/274/565 225/208/565
f 260/240/566 235/205/566 205/204/566
f 209/194/567 239/196/567 249/245/567
f 275/286/568 263/287/568 272/288/568
f 248/249/569 213/227/569 227/229/569
f 285/289/570 265/290/570 278/291/570
f 254/237/571 242/189/571 226/188/571
f 228/224/572 269/292/573 266/293/574
f 277/294/575 268/295/575 285/289/575
f 277/294/576 272/288/576 267/296/576
f 245/260/577 243/193/577 221/192/577
f 230/251/578 246/253/578 244/262/578
f 217/222/579 244/297/579 243/201/579
f 252/230/580 273/275/581 227/229/582
f 212/264/583 248/249/583 250/250/583
f 247/212/584 249/245/584 231/265/584
f 213/266/477 248/284/477 247/212/477
f 288/298/585 269/299/585 264/300/585
f 241/235/586 254/272/586 256/226/586
f 204/242/587 223/209/587 255/269/587
f 241/235/588 231/265/588 253/271/588
f 227/229/589 204/228/589 251/273/589
f 226/188/491 225/208/491 255/274/491
f 252/230/590 266/293/591 265/301/592
f 236/239/593 260/280/593 258/277/593
f 233/238/594 237/231/594 261/278/594
f 236/239/501 233/238/501 259/279/501
f 237/281/595 229/259/595 257/232/595
f 206/195/554 258/277/554 262/282/554
f 270/276/596 287/302/596 283/303/596
f 272/288/597 280/304/597 267/296/597
f 263/287/598 286/305/598 272/288/598
f 263/248/599 284/306/600 274/307/601
f 270/276/602 284/306/602 271/255/602
f 231/265/603 278/308/603 253/271/603
f 231/265/604 277/309/604 285/310/604
f 265/290/605 281/311/605 276/312/605
f 267/296/606 281/311/606 268/295/606
f 265/301/607 287/302/608 273/275/609
f 249/245/610 275/313/610 277/309/610
f 240/200/611 289/314/611 288/298/611
f 280/315/612 287/316/612 281/317/612
f 286/318/613 283/319/613 280/315/613
f 262/225/614 288/298/614 279/320/614
f 274/321/615 284/322/615 286/318/615
f 276/323/616 281/317/616 287/316/616
f 280/315/612 283/319/612 287/316/612
f 253/236/617 282/258/617 232/261/617
f 286/318/613 284/322/613 283/319/613
f 232/261/618 289/268/618 245/260/618
f 239/196/619 279/324/619 275/313/619
f 279/320/620 288/298/620 264/300/620
f 230/251/621 264/247/622 269/252/623
f 257/232/624 229/259/625 271/255/626
f 278/325/627 265/301/627 266/293/627
f 250/250/628 270/276/628 271/255/628
f 257/232/629 263/248/630 264/247/631
f 282/258/632 266/257/632 269/267/632
f 250/250/633 227/229/633 273/275/633
f 275/286/634 279/326/634 263/287/634
f 285/289/635 268/295/635 265/290/635
f 228/224/636 246/197/637 269/292/638
f 277/294/639 267/296/639 268/295/639
f 277/294/640 275/286/640 272/288/640
f 252/230/641 265/301/642 273/275/643
f 288/298/644 289/314/644 269/299/644
f 252/230/645 228/224/646 266/293/647
f 270/276/596 273/275/596 287/302/596
f 272/288/597 286/305/597 280/304/597
f 263/287/598 274/327/598 286/305/598
f 263/248/648 271/255/649 284/306/650
f 270/276/602 283/303/602 284/306/602
f 231/265/651 285/310/651 278/308/651
f 231/265/652 249/245/652 277/309/652
f 265/290/605 268/295/605 281/311/605
f 267/296/606 280/304/606 281/311/606
f 265/301/653 276/328/654 287/302/655
f 249/245/656 239/196/656 275/313/656
f 240/200/657 245/202/657 289/314/657
f 262/225/658 240/200/658 288/298/658
f 253/236/659 278/256/659 282/258/659
f 232/261/660 282/258/660 289/268/660
f 239/196/661 262/282/661 279/324/661
f 292/54/662 297/55/663 291/56/664
f 304/75/665 303/76/666 302/64/667
f 303/58/668 300/62/669 302/74/670
f 295/65/671 299/72/672 290/73/673
f 295/59/674 296/60/675 299/61/676
f 305/77/677 297/78/678 303/76/679
f 293/63/680 295/65/681 290/73/682
f 293/63/683 302/64/684 295/65/685
f 295/59/686 300/62/687 296/60/688
f 297/55/689 292/54/690 301/57/691
f 297/55/692 301/57/693 303/58/694
f 297/78/695 294/79/696 298/80/697
f 305/77/698 294/79/699 297/78/700
f 293/63/701 304/75/702 302/64/703
f 297/78/704 298/80/705 291/81/706
f 304/75/707 305/77/708 303/76/709
f 295/59/710 302/74/711 300/62/712
f 303/58/713 301/57/714 300/62/715
f 28/329/716 29/330/717 309/47/718 310/66/719
f 312/54/720 317/55/721 311/56/722
f 324/75/723 323/76/724 322/64/725
f 323/58/726 320/62/727 322/74/728
f 315/65/729 319/72/730 308/73/731
f 315/59/732 316/60/733 319/61/734
f 325/77/735 317/78/736 323/76/737
f 313/63/738 315/65/739 308/73/740
f 313/63/741 322/64/742 315/65/743
f 315/59/744 320/62/745 316/60/746
f 317/55/747 312/54/748 321/57/749
f 317/55/750 321/57/751 323/58/752
f 317/78/753 314/79/754 318/80/755
f 325/77/756 314/79/757 317/78/758
f 313/63/759 324/75/760 322/64/761
f 317/78/762 318/80/763 311/81/764
f 324/75/765 325/77/766 323/76/767
f 315/59/768 322/74/769 320/62/770
f 323/58/771 321/57/772 320/62/773
f 328/59/774 327/60/775 335/61/776
f 328/59/777 336/62/778 327/60/779
f 330/63/780 338/64/781 328/65/782
f 339/58/783 336/62/784 338/74/785
f 326/55/786 337/57/787 339/58/788
f 340/75/789 339/76/790 338/64/791
f 328/65/792 335/72/793 333/73/794
f 326/78/795 329/79/796 334/80/797
f 326/55/798 331/54/799 337/57/800
f 341/77/801 326/78/802 339/76/803
f 330/63/804 328/65/805 333/73/806
f 331/54/807 326/55/808 332/56/809
f 341/77/810 329/79/811 326/78/812
f 330/63/813 340/75/814 338/64/815
f 326/78/816 334/80/817 332/81/818
f 340/75/819 341/77/820 339/76/821
f 328/59/822 338/74/823 336/62/824
f 339/58/825 337/57/826 336/62/827
f 344/59/828 343/60/829 351/61/830
f 344/59/831 352/62/832 343/60/833
f 346/63/834 354/64/835 344/65/836
f 355/58/837 352/62/838 354/74/839
f 342/55/840 353/57/841 355/58/842
f 356/75/843 355/76/844 354/64/845
f 344/65/846 351/72/847 349/73/848
f 342/78/849 345/79/850 350/80/851
f 342/55/852 347/54/853 353/57/854
f 357/77/855 342/78/856 355/76/857
f 346/63/858 344/65/859 349/73/860
f 347/54/861 342/55/862 348/56/863
f 357/77/864 345/79/865 342/78/866
f 346/63/867 356/75/868 354/64/869
f 342/78/870 350/80/871 348/81/872
f 356/75/873 357/77/874 355/76/875
f 344/59/876 354/74/877 352/62/878
f 355/58/879 353/57/880 352/62/881
f 360/59/828 359/60/829 367/61/830
f 360/59/831 368/62/832 359/60/833
f 362/63/834 370/64/835 360/65/836
f 371/58/837 368/62/838 370/74/839
f 358/55/840 369/57/841 371/58/842
f 372/75/843 371/76/844 370/64/845
f 360/65/846 367/72/847 365/73/848
f 358/78/849 361/79/850 366/80/851
f 358/55/852 363/54/853 369/57/854
f 373/77/855 358/78/856 371/76/857
f 362/63/858 360/65/859 365/73/860
f 363/54/861 358/55/862 364/56/863
f 373/77/864 361/79/865 358/78/866
f 362/63/867 372/75/868 370/64/869
f 358/78/870 366/80/871 364/81/872
f 372/75/873 373/77/874 371/76/875
f 360/59/876 370/74/877 368/62/878
f 371/58/879 369/57/880 368/62/881
f 384/331/342 383/332/342 385/333/342
f 382/334/343 381/335/343 383/332/343
f 380/336/344 379/337/344 381/335/344
f 378/338/347 377/339/347 379/337/347
f 376/340/345 378/341/345 380/342/345
f 376/343/348 375/344/348 377/339/348
f 374/345/346 385/346/346 375/344/346
f 384/331/342 382/334/342 383/332/342
f 382/334/343 380/336/343 381/335/343
f 380/336/344 378/338/344 379/337/344
f 378/338/347 376/343/347 377/339/347
f 380/342/345 382/347/345 376/340/345
f 382/347/345 384/348/345 376/340/345
f 384/348/345 374/349/345 376/340/345
f 376/343/348 374/345/348 375/344/348
f 374/345/346 384/350/346 385/346/346
f 396/331/342 395/332/342 397/333/342
f 394/334/343 393/335/343 395/332/343
f 392/336/344 391/337/344 393/335/344
f 390/338/347 389/339/347 391/337/347
f 388/340/345 390/341/345 392/342/345
f 388/343/348 387/344/348 389/339/348
f 386/345/346 397/346/346 387/344/346
f 396/331/342 394/334/342 395/332/342
f 394/334/343 392/336/343 393/335/343
f 392/336/344 390/338/344 391/337/344
f 390/338/347 388/343/347 389/339/347
f 392/342/345 394/347/345 388/340/345
f 394/347/345 396/348/345 388/340/345
f 396/348/345 386/349/345 388/340/345
f 388/343/348 386/345/348 387/344/348
f 386/345/346 396/350/346 397/346/346
f 408/331/342 407/332/342 409/333/342
f 406/334/343 405/335/343 407/332/343
f 404/336/344 403/337/344 405/335/344
f 402/338/347 401/339/347 403/337/347
f 400/340/345 402/341/345 404/342/345
f 400/343/348 399/344/348 401/339/348
f 398/345/346 409/346/346 399/344/346
f 408/331/342 406/334/342 407/332/342
f 406/334/343 404/336/343 405/335/343
f 404/336/344 402/338/344 403/337/344
f 402/338/347 400/343/347 401/339/347
f 404/342/345 406/347/345 400/340/345
f 406/347/345 408/348/345 400/340/345
f 408/348/345 398/349/345 400/340/345
f 400/343/348 398/345/348 399/344/348
f 398/345/346 408/350/346 409/346/346
f 420/331/342 419/332/342 421/333/342
f 418/334/343 417/335/343 419/332/343
f 416/336/344 415/337/344 417/335/344
f 414/338/347 413/339/347 415/337/347
f 412/340/345 414/341/345 416/342/345
f 412/343/348 411/344/348 413/339/348
f 410/345/346 421/346/346 411/344/346
f 420/331/342 418/334/342 419/332/342
f 418/334/343 416/336/343 417/335/343
f 416/336/344 414/338/344 415/337/344
f 414/338/347 412/343/347 413/339/347
f 416/342/345 418/347/345 412/340/345
f 418/347/345 420/348/345 412/340/345
f 420/348/345 410/349/345 412/340/345
f 412/343/348 410/345/348 411/344/348
f 410/345/346 420/350/346 421/346/346
f 432/331/342 431/332/342 433/333/342
f 430/334/343 429/335/343 431/332/343
f 428/336/344 427/337/344 429/335/344
f 426/338/347 425/339/347 427/337/347
f 424/340/345 426/341/345 428/342/345
f 424/343/348 423/344/348 425/339/348
f 422/345/346 433/346/346 423/344/346
f 432/331/342 430/334/342 431/332/342
f 430/334/343 428/336/343 429/335/343
f 428/336/344 426/338/344 427/337/344
f 426/338/347 424/343/347 425/339/347
f 428/342/345 430/347/345 424/340/345
f 430/347/345 432/348/345 424/340/345
f 432/348/345 422/349/345 424/340/345
f 424/343/348 422/345/348 423/344/348
f 422/345/346 432/350/346 433/346/346
f 444/331/342 443/332/342 445/333/342
f 442/334/343 441/335/343 443/332/343
f 440/336/344 439/337/344 441/335/344
f 438/338/347 437/339/347 439/337/347
f 436/340/345 438/341/345 440/342/345
f 436/343/348 435/344/348 437/339/348
f 434/345/346 445/346/346 435/344/346
f 444/331/342 442/334/342 443/332/342
f 442/334/343 440/336/343 441/335/343
f 440/336/344 438/338/344 439/337/344
f 438/338/347 436/343/347 437/339/347
f 440/342/345 442/347/345 436/340/345
f 442/347/345 444/348/345 436/340/345
f 444/348/345 434/349/345 436/340/345
f 436/343/348 434/345/348 435/344/348
f 434/345/346 444/350/346 445/346/346
f 446/351/882 447/352/882 448/353/882
f 449/354/883 447/352/883 446/351/883 450/355/883
f 28/329/884 450/355/884 446/351/884
f 447/352/885 449/354/885 306/45/885 307/44/885
f 28/329/886 446/351/886 448/353/886 29/330/886
f 29/330/887 448/353/887 447/352/887 307/44/887 309/47/887
f 449/354/888 450/355/888 28/329/888 310/66/888 306/45/888
f 453/59/889 452/60/890 460/61/891
f 453/59/892 461/62/893 452/60/894
f 455/63/895 463/64/896 453/65/897
f 464/58/898 461/62/899 463/74/900
f 451/55/901 462/57/902 464/58/903
f 465/75/904 464/76/905 463/64/906
f 453/65/907 460/72/908 458/73/909
f 451/78/910 454/79/911 459/80/912
f 451/55/913 456/54/914 462/57/915
f 466/77/916 451/78/917 464/76/918
f 455/63/919 453/65/920 458/73/921
f 456/54/922 451/55/923 457/56/924
f 466/77/925 454/79/926 451/78/927
f 455/63/928 465/75/929 463/64/930
f 451/78/931 459/80/932 457/81/933
f 465/75/934 466/77/935 464/76/936
f 453/59/937 463/74/938 461/62/939
f 464/58/940 462/57/941 461/62/942
