# Blender 5.0.1
# www.blender.org
mtllib model.mtl
o pomoMesh
v 0.959275 0.000000 -0.282474
v 0.999698 0.000000 -0.024570
v 0.971994 0.000000 0.235008
v 0.878049 0.000000 0.478571
v 0.521128 0.000000 0.853479
v 0.282474 0.000000 0.959275
v 0.024570 0.000000 0.999698
v -0.235008 0.000000 0.971994
v -0.689520 0.000000 0.724267
v -0.853479 0.000000 0.521128
v -0.959275 0.000000 0.282474
v 0.989903 0.129410 -0.057833
v 0.953071 0.250000 0.170749
v 0.851289 0.353553 0.387694
v 0.691493 0.433013 0.578219
v 0.484573 0.482963 0.729340
v 0.244630 0.500000 0.830756
v -0.011985 0.482963 0.875559
v -0.267782 0.433013 0.860693
v -0.505331 0.353553 0.787173
v -0.708442 0.250000 0.660008
v -0.863274 0.129410 0.487864
v 0.963143 0.224144 -0.148710
v 0.901375 0.433013 -0.004811
v 0.778179 0.612372 0.139416
v 0.601952 0.750000 0.274141
v 0.384703 0.836516 0.390185
v 0.141237 0.866025 0.479638
v -0.111854 0.836516 0.536404
v -0.357323 0.750000 0.556615
v -0.578440 0.612372 0.538894
v -0.760138 0.433013 0.484448
v -0.890034 0.224144 0.396988
v 0.926588 0.258819 -0.272849
v 0.830756 0.500000 -0.244630
v 0.678310 0.707107 -0.199739
v 0.479638 0.866025 -0.141237
v 0.248279 0.965926 -0.073110
v 0.000000 1.000000 0.000000
v -0.248279 0.965926 0.073110
v -0.479637 0.866025 0.141237
v -0.678310 0.707107 0.199739
v -0.830756 0.500000 0.244630
v -0.926588 0.258819 0.272849
v 0.890034 0.224144 -0.396988
v 0.760138 0.433013 -0.484448
v 0.578440 0.612372 -0.538894
v 0.357323 0.750000 -0.556615
v 0.111854 0.836516 -0.536404
v -0.141237 0.866025 -0.479638
v -0.384703 0.836516 -0.390185
v -0.601952 0.750000 -0.274141
v -0.778179 0.612372 -0.139416
v -0.901375 0.433013 0.004811
v -0.963143 0.224144 0.148710
v 0.863274 0.129410 -0.487864
v 0.708442 0.250000 -0.660008
v 0.505331 0.353553 -0.787173
v 0.267782 0.433013 -0.860693
v 0.011985 0.482963 -0.875559
v -0.244630 0.500000 -0.830756
v -0.484573 0.482963 -0.729340
v -0.691493 0.433013 -0.578219
v -0.851289 0.353553 -0.387694
v -0.953071 0.250000 -0.170749
v -0.989903 0.129410 0.057833
v 0.853479 0.000000 -0.521128
v 0.689520 0.000000 -0.724267
v 0.478571 -0.000000 -0.878049
v 0.235008 -0.000000 -0.971993
v -0.024570 -0.000000 -0.999698
v -0.282474 0.000000 -0.959275
v -0.521127 -0.000000 -0.853479
v -0.724267 -0.000000 -0.689519
v -0.878049 -0.000000 -0.478571
v -0.971994 0.000000 -0.235008
v -0.999698 0.000000 0.024570
v 0.863274 -0.129410 -0.487864
v 0.708442 -0.250000 -0.660008
v 0.505331 -0.353553 -0.787173
v 0.267782 -0.433013 -0.860693
v 0.011985 -0.482963 -0.875559
v -0.244630 -0.500000 -0.830756
v -0.484573 -0.482963 -0.729339
v -0.691493 -0.433013 -0.578219
v -0.851289 -0.353553 -0.387694
v -0.953071 -0.250000 -0.170749
v -0.989903 -0.129410 0.057833
v 0.890034 -0.224144 -0.396988
v 0.760138 -0.433013 -0.484448
v 0.578440 -0.612372 -0.538894
v 0.357323 -0.750000 -0.556615
v 0.111854 -0.836516 -0.536404
v -0.141237 -0.866025 -0.479638
v -0.384703 -0.836516 -0.390184
v -0.601952 -0.750000 -0.274141
v -0.778179 -0.612372 -0.139416
v -0.901375 -0.433013 0.004811
v -0.963143 -0.224144 0.148710
v 0.926588 -0.258819 -0.272849
v 0.830756 -0.500000 -0.244630
v 0.678310 -0.707107 -0.199739
v 0.479638 -0.866025 -0.141237
v 0.248279 -0.965926 -0.073109
v 0.000000 -1.000000 0.000000
v -0.248279 -0.965926 0.073110
v -0.479637 -0.866025 0.141237
v -0.678310 -0.707107 0.199739
v -0.830756 -0.500000 0.244630
v -0.926588 -0.258819 0.272849
v 0.963143 -0.224144 -0.148710
v 0.901375 -0.433013 -0.004811
v 0.778180 -0.612372 0.139416
v 0.601952 -0.750000 0.274141
v 0.384703 -0.836516 0.390185
v 0.141237 -0.866025 0.479638
v -0.111854 -0.836516 0.536404
v -0.357323 -0.750000 0.556615
v -0.578440 -0.612372 0.538894
v -0.760138 -0.433013 0.484448
v -0.890034 -0.224144 0.396988
v 0.989903 -0.129410 -0.057833
v 0.953071 -0.250000 0.170749
v 0.851289 -0.353553 0.387694
v 0.691493 -0.433013 0.578219
v 0.484573 -0.482963 0.729340
v 0.244630 -0.500000 0.830756
v -0.011985 -0.482963 0.875559
v -0.267782 -0.433013 0.860693
v -0.505331 -0.353553 0.787173
v -0.708442 -0.250000 0.660008
v -0.863274 -0.129410 0.487864
v 0.724267 0.000000 0.689519
v -0.478571 0.000000 0.878049
v 0.931305 -0.300385 0.409705
v 0.891989 -0.267502 0.312259
v 0.888139 0.272693 0.293428
v 0.927782 0.313782 0.384427
v 0.828009 0.093764 0.464507
v 0.878460 0.167012 0.524758
v 0.655623 0.143310 0.645413
v 0.737056 0.207653 0.673151
v 0.543366 0.371785 0.655241
v 0.644975 0.395065 0.681212
v 0.603496 0.550713 0.484162
v 0.694297 0.541835 0.540881
v 0.775882 0.501167 0.303256
v 0.835701 0.501194 0.392488
v 0.784138 -0.495760 0.346397
v 0.845365 -0.482271 0.436908
v 0.618416 -0.531170 0.536610
v 0.713310 -0.510488 0.588479
v 0.560545 -0.338323 0.692686
v 0.667196 -0.356818 0.712847
v 0.668396 -0.110065 0.658548
v 0.753136 -0.174932 0.685644
v 0.834118 -0.074654 0.468335
v 0.885191 -0.146716 0.534074
v 0.741379 -0.135754 0.717352
v 0.633528 -0.364012 0.751490
v 0.691400 -0.556860 0.595414
v 0.857122 -0.521449 0.405200
v 0.964972 -0.293191 0.371062
v 0.907101 -0.100344 0.527138
v 0.898635 0.125949 0.522992
v 0.958764 0.304878 0.351913
v 0.726249 0.175495 0.703898
v 0.613992 0.403970 0.713726
v 0.674121 0.582898 0.542647
v 0.846507 0.533352 0.361741
v 0.808206 -0.229597 0.667811
v 0.754063 -0.344185 0.684949
v 0.783115 -0.440997 0.606597
v 0.866310 -0.423220 0.511107
v 0.920452 -0.308632 0.493970
v 0.891400 -0.211820 0.572322
v 0.881168 0.237366 0.557574
v 0.912241 0.329831 0.469165
v 0.792084 0.262970 0.651061
v 0.734072 0.381039 0.656140
v 0.765145 0.473505 0.567731
v 0.854230 0.447901 0.474244
v -0.597429 -0.151835 0.639658
v -0.447525 -0.271886 1.145411
v -0.551953 0.070610 0.692460
v -0.413459 -0.045628 0.933765
v -0.422446 0.259190 0.737223
v -0.316448 0.036007 1.218496
v -0.228626 0.385196 0.767133
v -0.171260 0.190023 0.989702
v 0.000000 0.429443 0.777636
v 0.000000 0.163541 1.248768
v 0.228626 0.385196 0.767133
v 0.171260 0.190023 0.989702
v 0.422446 0.259190 0.737223
v 0.316448 0.036007 1.218496
v 0.551953 0.070610 0.692460
v 0.413459 -0.045628 0.933765
v 0.597429 -0.151835 0.639658
v 0.447525 -0.271886 1.145411
v 0.551953 -0.374281 0.586856
v 0.413459 -0.378889 0.854659
v 0.422446 -0.562861 0.542093
v 0.316448 -0.579778 1.072327
v 0.228626 -0.688866 0.512183
v 0.171260 -0.614540 0.798723
v -0.000000 -0.733113 0.501680
v -0.000000 -0.707312 1.042055
v -0.228626 -0.688866 0.512183
v -0.171260 -0.614540 0.798723
v -0.422446 -0.562861 0.542093
v -0.316448 -0.579778 1.072327
v -0.551953 -0.374281 0.586856
v -0.413459 -0.378889 0.854659
v -0.551953 0.010187 0.947014
v -0.597429 -0.271886 1.145411
v -0.422446 0.139140 1.242976
v -0.228626 0.324772 1.021687
v 0.000000 0.309392 1.283389
v 0.228626 0.324772 1.021687
v 0.422446 0.139140 1.242976
v 0.551953 0.010187 0.947014
v 0.597429 -0.271886 1.145411
v 0.551953 -0.434704 0.841411
v 0.422446 -0.682911 1.047846
v 0.228626 -0.749290 0.766738
v -0.000000 -0.853164 1.007434
v -0.228626 -0.749290 0.766738
v -0.422446 -0.682911 1.047846
v -0.551953 -0.434704 0.841411
v -0.413459 0.014795 0.679211
v -0.447525 -0.151835 0.639658
v -0.316448 0.156057 0.712743
v -0.171260 0.250446 0.735147
v 0.000000 0.283591 0.743015
v 0.171260 0.250446 0.735147
v 0.316448 0.156057 0.712742
v 0.413459 0.014795 0.679211
v 0.447525 -0.151835 0.639658
v 0.413459 -0.318466 0.600105
v 0.316448 -0.459728 0.566574
v 0.171260 -0.554117 0.544169
v -0.000000 -0.587261 0.536301
v -0.171260 -0.554117 0.544169
v -0.316448 -0.459728 0.566574
v -0.413459 -0.318466 0.600105
v 0.482193 0.272261 0.837762
v 0.224436 0.189351 0.811405
v 0.482193 0.487521 0.763546
v 0.224436 0.536571 0.691692
v 0.482193 0.498094 1.022383
v 0.482193 0.423454 1.048118
v 0.482193 0.469238 1.059800
v 0.327586 0.392304 1.093776
v 0.327586 0.550764 1.039143
v 0.327586 0.489503 1.118577
v 0.482193 0.189351 0.811405
v 0.482193 0.536571 0.691692
v 0.482193 0.489503 1.118577
v 0.482193 0.550764 1.039142
v 0.482193 0.392304 1.093776
v 0.366787 -0.521478 0.816922
v 0.138681 -0.461661 0.681284
v 0.435761 -0.323363 0.905454
v 0.249940 -0.142097 0.824089
v 0.321116 -0.454586 1.097146
v 0.297199 -0.523281 1.066448
v 0.299518 -0.495894 1.104882
v 0.135810 -0.506749 1.041176
v 0.186585 -0.360910 1.106347
v 0.140733 -0.448606 1.122772
v 0.364926 -0.568281 0.743608
v 0.476185 -0.248716 0.886413
v 0.276439 -0.512558 1.160155
v 0.322291 -0.424862 1.143730
v 0.271516 -0.570701 1.078559
v 0.126987 -1.148678 0.237048
v 0.127404 -1.068129 0.476568
v -0.125670 -1.153040 0.238955
v -0.125252 -1.072490 0.478474
v 0.122245 -0.909199 0.156520
v 0.122663 -0.828649 0.396039
v -0.130411 -0.913560 0.158427
v -0.129994 -0.833010 0.397946
v -0.075014 -1.192964 0.304478
v 0.078734 -1.190310 0.303318
v 0.078988 -1.141293 0.449072
v -0.074760 -1.143947 0.450232
v 0.126987 1.014582 0.588454
v 0.127404 1.114075 0.356164
v -0.125670 1.019104 0.589938
v -0.125252 1.118598 0.357647
v 0.122245 0.782335 0.488971
v 0.122662 0.881828 0.256681
v -0.130411 0.786858 0.490455
v -0.129994 0.886351 0.258164
v -0.075014 1.092530 0.567669
v 0.078734 1.089778 0.566766
v 0.078988 1.150322 0.425411
v -0.074760 1.153075 0.426314
vn 0.8708 -0.0000 0.4916
vn 0.9675 -0.0000 0.2529
vn 0.9480 0.2580 0.1866
vn 0.8436 0.3588 0.3994
vn -0.6760 -0.0000 0.7369
vn -0.4654 -0.0000 0.8851
vn -0.4925 0.3588 0.7929
vn -0.6955 0.2580 0.6706
vn 0.0300 -0.0000 0.9996
vn 0.2825 -0.0000 0.9593
vn 0.2446 0.5000 0.8308
vn -0.0066 0.4837 0.8752
vn 0.7170 -0.0000 0.6971
vn 0.6840 0.4356 0.5851
vn -0.8424 -0.0000 0.5388
vn -0.8530 0.1394 0.5029
vn 1.0000 -0.0000 -0.0038
vn 0.9593 -0.0000 -0.2825
vn 0.9894 0.1394 -0.0396
vn -0.2248 -0.0000 0.9744
vn -0.2578 0.4356 0.8624
vn 0.5165 -0.0000 0.8563
vn 0.4799 0.4837 0.7320
vn -0.9593 -0.0000 0.2825
vn 0.9606 0.2415 -0.1375
vn -0.1066 0.8377 0.5356
vn -0.3478 0.7545 0.5565
vn 0.5939 0.7545 0.2792
vn 0.3799 0.8377 0.3923
vn -0.8818 0.2415 0.4050
vn 0.8946 0.4468 0.0055
vn -0.5667 0.6215 0.5409
vn 0.1412 0.8660 0.4796
vn 0.7694 0.6215 0.1475
vn -0.7489 0.4468 0.4894
vn -0.6681 0.7176 0.1967
vn -0.8217 0.5159 0.2420
vn -0.0000 1.0000 -0.0000
vn -0.2433 0.9673 0.0716
vn 0.6681 0.7176 -0.1967
vn 0.4709 0.8712 -0.1387
vn -0.9212 0.2789 0.2713
vn 0.9212 0.2789 -0.2713
vn -0.4709 0.8712 0.1387
vn 0.2433 0.9673 -0.0716
vn 0.8217 0.5159 -0.2420
vn 0.8818 0.2415 -0.4050
vn 0.7489 0.4468 -0.4894
vn -0.5939 0.7545 -0.2792
vn -0.7694 0.6215 -0.1475
vn 0.1066 0.8377 -0.5356
vn -0.1412 0.8660 -0.4796
vn 0.5667 0.6215 -0.5409
vn -0.8946 0.4468 -0.0055
vn -0.3799 0.8377 -0.3923
vn 0.3478 0.7545 -0.5565
vn -0.9606 0.2415 0.1375
vn -0.9480 0.2580 -0.1866
vn -0.9894 0.1394 0.0396
vn 0.8530 0.1394 -0.5029
vn -0.4799 0.4837 -0.7320
vn -0.6840 0.4356 -0.5851
vn 0.2578 0.4356 -0.8624
vn 0.0066 0.4837 -0.8752
vn 0.6955 0.2580 -0.6706
vn -0.8436 0.3588 -0.3994
vn -0.2446 0.5000 -0.8308
vn 0.4925 0.3588 -0.7929
vn 0.6760 -0.0000 -0.7369
vn 0.4654 -0.0000 -0.8851
vn -0.8708 -0.0000 -0.4916
vn -0.9675 -0.0000 -0.2529
vn -0.2825 -0.0000 -0.9593
vn -0.5165 -0.0000 -0.8563
vn 0.2248 -0.0000 -0.9744
vn -1.0000 -0.0000 0.0038
vn 0.8424 -0.0000 -0.5388
vn -0.7170 -0.0000 -0.6971
vn -0.0300 -0.0000 -0.9996
vn -0.9894 -0.1394 0.0396
vn 0.8530 -0.1394 -0.5029
vn 0.6955 -0.2580 -0.6706
vn -0.6840 -0.4356 -0.5851
vn -0.8436 -0.3588 -0.3994
vn 0.0066 -0.4837 -0.8752
vn -0.2446 -0.5000 -0.8308
vn 0.4925 -0.3588 -0.7929
vn -0.9480 -0.2580 -0.1866
vn -0.4799 -0.4837 -0.7320
vn 0.2578 -0.4356 -0.8624
vn 0.5667 -0.6215 -0.5409
vn 0.3478 -0.7545 -0.5565
vn -0.8946 -0.4468 -0.0055
vn -0.9606 -0.2415 0.1375
vn 0.8818 -0.2415 -0.4050
vn -0.3799 -0.8377 -0.3923
vn -0.5939 -0.7545 -0.2792
vn 0.1066 -0.8377 -0.5356
vn 0.7489 -0.4468 -0.4894
vn -0.7694 -0.6215 -0.1475
vn -0.1412 -0.8660 -0.4796
vn 0.8217 -0.5159 -0.2420
vn 0.6681 -0.7176 -0.1967
vn -0.6681 -0.7176 0.1967
vn -0.8217 -0.5159 0.2420
vn -0.0000 -1.0000 -0.0000
vn -0.2433 -0.9673 0.0716
vn 0.4709 -0.8712 -0.1387
vn -0.9212 -0.2789 0.2713
vn 0.9212 -0.2789 -0.2713
vn -0.4709 -0.8712 0.1387
vn 0.2433 -0.9673 -0.0716
vn 0.5939 -0.7545 0.2792
vn 0.3799 -0.8377 0.3923
vn -0.8818 -0.2415 0.4050
vn 0.9606 -0.2415 -0.1375
vn 0.8946 -0.4468 0.0055
vn -0.3478 -0.7545 0.5565
vn -0.5667 -0.6215 0.5409
vn 0.1412 -0.8660 0.4796
vn 0.7694 -0.6215 0.1475
vn -0.7489 -0.4468 0.4894
vn -0.1066 -0.8377 0.5356
vn 0.8436 -0.3588 0.3994
vn 0.6840 -0.4356 0.5851
vn -0.6955 -0.2580 0.6706
vn -0.8530 -0.1394 0.5029
vn 0.9894 -0.1394 -0.0396
vn -0.0066 -0.4837 0.8752
vn -0.2578 -0.4356 0.8624
vn 0.4799 -0.4837 0.7320
vn 0.9480 -0.2580 0.1866
vn -0.4925 -0.3588 0.7929
vn 0.2446 -0.5000 0.8308
vn 0.8589 0.3179 0.4016
vn 0.4778 0.2025 0.8548
vn 0.6213 0.0646 0.7809
vn 0.8526 0.1204 0.5085
vn 0.6451 -0.6301 -0.4323
vn -0.5067 0.3568 0.7848
vn -0.7510 0.2643 -0.6051
vn -0.6200 -0.5976 0.5085
vn -0.5270 -0.2932 0.7977
vn 0.6200 0.5976 -0.5085
vn -0.1133 -0.9544 -0.2764
vn -0.6451 0.6301 0.4323
vn 0.3061 0.3995 0.8641
vn 0.4610 -0.1067 0.8810
vn 0.5993 0.0249 0.8002
vn 0.4661 0.3513 0.8120
vn 0.5067 -0.3568 -0.7848
vn -0.1181 0.9233 -0.3654
vn 0.5270 0.2932 -0.7977
vn -0.7267 -0.3312 -0.6018
vn 0.6323 0.0077 -0.7747
vn 0.7392 0.0544 0.6713
vn -0.6327 0.0052 0.7744
vn 0.7510 -0.2643 0.6051
vn 0.7267 0.3312 0.6018
vn 0.7958 -0.4774 0.3725
vn 0.9392 -0.1649 0.3011
vn 0.4925 -0.2688 0.8278
vn 0.5855 -0.5198 0.6221
vn 0.8354 -0.0487 0.5475
vn 0.9223 0.2123 0.3230
vn 0.7752 0.5195 0.3594
vn 0.5604 0.5796 0.5916
vn 0.4823 -0.6403 0.5978
vn 0.7633 -0.5930 0.2564
vn 0.4597 0.6942 0.5538
vn 0.9795 -0.1693 0.1096
vn 0.8513 -0.2483 0.4622
vn 0.9697 0.2005 0.1399
vn 0.3314 -0.3150 0.8893
vn 0.7478 0.6209 0.2353
vn -0.9808 0.1898 0.0451
vn -0.8315 0.5406 0.1283
vn -0.5556 0.8090 0.1920
vn -0.1951 0.9543 0.2265
vn 0.1951 0.9543 0.2265
vn 0.5556 0.8090 0.1920
vn 0.8315 0.5406 0.1283
vn 0.9808 0.1898 0.0451
vn 0.9808 -0.1898 -0.0451
vn 0.8315 -0.5406 -0.1283
vn 0.5556 -0.8090 -0.1920
vn 0.1951 -0.9543 -0.2265
vn -0.1951 -0.9543 -0.2265
vn -0.5556 -0.8090 -0.1920
vn -0.8315 -0.5406 -0.1283
vn -0.9808 -0.1898 -0.0451
vn 0.1531 0.6058 0.7807
vn -0.4360 -0.7780 0.4522
vn 0.6526 0.2811 0.7037
vn -0.7698 -0.2921 0.5676
vn 0.7698 -0.2921 0.5676
vn -0.6526 0.2811 0.7037
vn 0.4360 -0.7780 0.4522
vn -0.1531 0.6058 0.7807
vn -0.1531 -0.8921 0.4252
vn 0.4360 0.4918 0.7537
vn -0.6526 -0.5674 0.5023
vn 0.7698 0.0059 0.6383
vn -0.7698 0.0059 0.6383
vn 0.6526 -0.5674 0.5023
vn -0.4360 0.4918 0.7537
vn 0.1531 -0.8921 0.4252
vn -0.6403 -0.7410 -0.2023
vn -0.6403 0.4589 -0.6160
vn 0.5636 0.4657 -0.6823
vn 0.5636 -0.7872 -0.2503
vn 0.6376 0.7341 0.2336
vn -0.5324 0.7695 0.3528
vn -0.5120 0.2800 0.8121
vn 0.6018 0.2603 0.7550
vn -0.5324 -0.3886 0.7521
vn 0.6376 -0.4341 0.6363
vn 1.0000 -0.0000 -0.0000
vn -0.5936 -0.1713 -0.7863
vn -0.2091 0.9330 -0.2928
vn 0.8785 0.4757 -0.0445
vn 0.4770 -0.6775 -0.5598
vn 0.5761 0.1505 0.8034
vn -0.4987 0.5965 0.6289
vn -0.7683 -0.0184 0.6398
vn 0.2318 -0.4630 0.8555
vn -0.8697 -0.4693 0.1526
vn 0.2017 -0.9247 0.3230
vn 0.8777 -0.4136 0.2418
vn -0.6516 -0.1426 0.7450
vn -0.6538 -0.5631 -0.5054
vn -0.3207 -0.9465 -0.0363
vn -0.3196 -0.7319 0.6019
vn -0.7058 0.2132 0.6756
vn -0.7081 -0.2376 -0.6649
vn -0.0188 0.9477 -0.3187
vn 0.7058 -0.2132 -0.6756
vn 0.7081 0.2376 0.6649
vn 0.6673 -0.1199 0.7350
vn 0.6652 -0.5404 -0.5153
vn 0.3526 -0.9349 -0.0414
vn 0.3537 -0.7202 0.5968
vn -0.6516 0.6027 -0.4606
vn -0.6538 0.0833 0.7521
vn -0.3207 0.6817 0.6576
vn -0.3196 0.9468 0.0387
vn -0.7058 0.2911 -0.6458
vn -0.7081 -0.2657 0.6541
vn 0.7058 -0.2911 0.6458
vn 0.7081 0.2657 -0.6541
vn 0.6673 0.5791 -0.4683
vn 0.6652 0.0597 0.7443
vn 0.3526 0.6696 0.6537
vn 0.3537 0.9347 0.0347
vt 0.395941 0.908098
vt 0.395941 0.830225
vt 0.489941 0.805037
vt 0.528878 0.872477
vt 0.948008 0.528600
vt 0.929742 0.528600
vt 0.929742 0.510334
vt 0.948008 0.510334
vt 0.893211 0.528600
vt 0.874945 0.528600
vt 0.874945 0.510334
vt 0.893211 0.510334
vt 0.838414 0.528600
vt 0.820148 0.528600
vt 0.820148 0.510334
vt 0.838414 0.510334
vt 0.966273 0.528600
vt 0.966273 0.510334
vt 0.395941 0.739540
vt 0.395941 0.642223
vt 0.444599 0.726502
vt 0.911476 0.528600
vt 0.911476 0.510334
vt 0.856680 0.528600
vt 0.856680 0.510334
vt 0.984539 0.519467
vt 0.480220 0.690881
vt 0.893211 0.492069
vt 0.911476 0.492069
vt 0.838414 0.492069
vt 0.856680 0.492069
vt 0.984539 0.501202
vt 0.966273 0.492069
vt 0.558755 0.736224
vt 0.929742 0.492069
vt 0.874945 0.492069
vt 0.626195 0.775160
vt 0.948008 0.492069
vt 0.820148 0.492069
vt 0.929742 0.473803
vt 0.948008 0.473803
vt 0.874945 0.473803
vt 0.893211 0.473803
vt 0.820148 0.473803
vt 0.838414 0.473803
vt 0.966273 0.473803
vt 0.493257 0.642223
vt 0.911476 0.473803
vt 0.856680 0.473803
vt 0.984539 0.482936
vt 0.583942 0.642223
vt 0.661815 0.642223
vt 0.480220 0.593565
vt 0.558755 0.548222
vt 0.911476 0.455538
vt 0.929742 0.455538
vt 0.856680 0.455538
vt 0.874945 0.455538
vt 0.626195 0.509286
vt 0.948008 0.455538
vt 0.893211 0.455538
vt 0.820148 0.455538
vt 0.838414 0.455538
vt 0.966273 0.455538
vt 0.984539 0.464670
vt 0.948008 0.437272
vt 0.966273 0.437272
vt 0.444599 0.557944
vt 0.893211 0.437272
vt 0.911476 0.437272
vt 0.838414 0.437272
vt 0.856680 0.437272
vt 0.984539 0.446405
vt 0.489941 0.479408
vt 0.929742 0.437272
vt 0.874945 0.437272
vt 0.528878 0.411969
vt 0.820148 0.437272
vt 0.395941 0.454221
vt 0.395941 0.376348
vt 0.929742 0.419006
vt 0.948008 0.419006
vt 0.874945 0.419006
vt 0.893211 0.419006
vt 0.820148 0.419006
vt 0.838414 0.419006
vt 0.966273 0.419006
vt 0.395941 0.544906
vt 0.911476 0.419006
vt 0.856680 0.419006
vt 0.984539 0.428139
vt 0.984539 0.409873
vt 0.966273 0.400741
vt 0.347282 0.557944
vt 0.301940 0.479408
vt 0.911476 0.400741
vt 0.929742 0.400741
vt 0.856680 0.400741
vt 0.874945 0.400741
vt 0.263003 0.411969
vt 0.948008 0.400741
vt 0.893211 0.400741
vt 0.820148 0.400741
vt 0.838414 0.400741
vt 0.820148 0.382475
vt 0.838414 0.382475
vt 0.948008 0.382475
vt 0.966273 0.382475
vt 0.311662 0.593565
vt 0.893211 0.382475
vt 0.911476 0.382475
vt 0.856680 0.382475
vt 0.984539 0.391608
vt 0.233126 0.548222
vt 0.929742 0.382475
vt 0.874945 0.382475
vt 0.165686 0.509286
vt 0.207939 0.642223
vt 0.130066 0.642223
vt 0.929742 0.364209
vt 0.948008 0.364209
vt 0.874945 0.364209
vt 0.893211 0.364209
vt 0.820148 0.364209
vt 0.838414 0.364209
vt 0.966273 0.364209
vt 0.298624 0.642223
vt 0.911476 0.364209
vt 0.856680 0.364209
vt 0.984539 0.373342
vt 0.856680 0.583397
vt 0.838414 0.583397
vt 0.838414 0.565131
vt 0.856680 0.565131
vt 0.984539 0.574264
vt 0.966273 0.583397
vt 0.966273 0.565131
vt 0.311662 0.690881
vt 0.233126 0.736224
vt 0.929742 0.583397
vt 0.911476 0.583397
vt 0.911476 0.565131
vt 0.929742 0.565131
vt 0.874945 0.583397
vt 0.874945 0.565131
vt 0.165686 0.775160
vt 0.948008 0.583397
vt 0.948008 0.565131
vt 0.893211 0.583397
vt 0.893211 0.565131
vt 0.820148 0.583397
vt 0.820148 0.565131
vt 0.820148 0.546866
vt 0.838414 0.546866
vt 0.948008 0.546866
vt 0.966273 0.546866
vt 0.347282 0.726502
vt 0.893211 0.546866
vt 0.911476 0.546866
vt 0.856680 0.546866
vt 0.984539 0.555999
vt 0.301940 0.805037
vt 0.929742 0.546866
vt 0.874945 0.546866
vt 0.263003 0.872477
vt 0.984539 0.537733
vt 0.444717 0.097405
vt 0.459745 0.043108
vt 0.473100 0.060488
vt 0.465074 0.091166
vt 0.098979 0.172720
vt 0.085471 0.169138
vt 0.075636 0.138311
vt 0.090957 0.134508
vt 0.021675 0.057066
vt 0.037182 0.062945
vt 0.041291 0.092825
vt 0.027882 0.096303
vt 0.652344 0.204967
vt 0.721597 0.164983
vt 0.721597 0.085017
vt 0.652344 0.045033
vt 0.583091 0.085017
vt 0.583091 0.164983
vt 0.052734 0.029492
vt 0.055615 0.044621
vt 0.026238 0.139083
vt 0.040217 0.142213
vt 0.033211 0.170892
vt 0.021675 0.173617
vt 0.088455 0.108515
vt 0.075460 0.102550
vt 0.091173 0.073792
vt 0.104129 0.075025
vt 0.092355 0.038960
vt 0.081680 0.049324
vt 0.047926 0.189397
vt 0.041255 0.202930
vt 0.487179 0.139504
vt 0.472741 0.195473
vt 0.454877 0.182141
vt 0.463885 0.150118
vt 0.071640 0.190225
vt 0.077212 0.200890
vt 0.042306 0.064651
vt 0.046405 0.088181
vt 0.077849 0.053997
vt 0.057337 0.050043
vt 0.085804 0.073465
vt 0.072489 0.095335
vt 0.080448 0.168410
vt 0.071943 0.144136
vt 0.044088 0.146731
vt 0.037543 0.170000
vt 0.049969 0.185535
vt 0.069466 0.186042
vt 0.518851 0.105741
vt 0.487187 0.113862
vt 0.503875 0.051048
vt 0.527724 0.073761
vt 0.423446 0.190923
vt 0.399631 0.168417
vt 0.407038 0.135695
vt 0.439830 0.125999
vt 0.554146 0.067375
vt 0.539898 0.122193
vt 0.445687 0.098916
vt 0.485037 0.137409
vt 0.417345 0.211776
vt 0.375636 0.171252
vt 0.513843 0.027950
vt 0.389704 0.114710
vt 0.714975 0.036819
vt 0.714975 0.164161
vt 0.674081 0.100913
vt 0.674081 0.036819
vt 0.886685 0.038108
vt 0.886685 0.114528
vt 0.837926 0.189940
vt 0.837926 0.038108
vt 0.726424 0.049093
vt 0.726424 0.176435
vt 0.685530 0.113186
vt 0.685530 0.049093
vt 0.907532 0.195334
vt 0.907532 0.118915
vt 0.956291 0.043502
vt 0.956291 0.195334
vt 0.722152 0.057378
vt 0.722152 0.184720
vt 0.681258 0.121472
vt 0.681258 0.057378
vt 0.885119 0.016667
vt 0.885119 0.093087
vt 0.836361 0.168499
vt 0.836361 0.016667
vt 0.719858 0.045634
vt 0.719858 0.172976
vt 0.678964 0.109727
vt 0.678964 0.045634
vt 0.884731 0.029363
vt 0.884731 0.105782
vt 0.835973 0.181195
vt 0.835973 0.029363
vt 0.724471 0.027079
vt 0.724471 0.154421
vt 0.683577 0.091173
vt 0.683577 0.027079
vt 0.876531 0.027366
vt 0.876531 0.103785
vt 0.827772 0.179198
vt 0.827772 0.027366
vt 0.732736 0.040726
vt 0.732736 0.168068
vt 0.691842 0.104819
vt 0.691842 0.040726
vt 0.879260 0.031272
vt 0.879260 0.107692
vt 0.830502 0.183104
vt 0.830502 0.031272
vt 0.720041 0.045634
vt 0.720041 0.172976
vt 0.679147 0.109727
vt 0.679147 0.045634
vt 0.883755 0.044900
vt 0.883755 0.121320
vt 0.834996 0.196732
vt 0.834996 0.044900
vt 0.928305 0.029363
vt 0.882758 0.099695
vt 0.817413 0.139318
vt 0.798476 0.108087
vt 0.734237 0.026077
vt 0.734237 0.153419
vt 0.693343 0.090171
vt 0.693343 0.026077
vt 0.877307 0.049783
vt 0.877307 0.126203
vt 0.828548 0.201615
vt 0.828548 0.049783
vt 0.691748 0.176493
vt 0.653634 0.117450
vt 0.911459 0.133748
vt 0.865912 0.204080
vt 0.702952 0.188293
vt 0.664752 0.129306
vt 0.698680 0.196579
vt 0.660480 0.137591
vt 0.909893 0.112307
vt 0.864347 0.182639
vt 0.696631 0.185308
vt 0.658517 0.126265
vt 0.909505 0.125002
vt 0.863959 0.195334
vt 0.700999 0.166280
vt 0.662799 0.107293
vt 0.901305 0.123006
vt 0.855759 0.193337
vt 0.709509 0.180400
vt 0.671395 0.121357
vt 0.904034 0.126912
vt 0.858488 0.197244
vt 0.696814 0.185308
vt 0.658700 0.126265
vt 0.908529 0.140540
vt 0.862983 0.210872
vt 0.710765 0.165278
vt 0.672565 0.106291
vt 0.902081 0.145423
vt 0.856535 0.215755
vt 0.969379 0.087289
vt 0.988317 0.118520
vt 0.589792 0.130553
vt 0.605675 0.104359
vt 0.588022 0.119124
vt 0.603943 0.092953
vt 0.975239 0.072684
vt 0.994176 0.103915
vt 0.973874 0.100917
vt 0.992811 0.132148
vt 0.587839 0.119124
vt 0.603760 0.092953
vt 0.601877 0.099252
vt 0.617760 0.073059
vt 0.974851 0.085379
vt 0.993788 0.116610
vt 0.582956 0.110309
vt 0.598877 0.084139
vt 0.967426 0.105799
vt 0.986364 0.137031
vt 0.592111 0.100254
vt 0.607994 0.074061
vt 0.976804 0.094124
vt 0.995741 0.125356
vt 0.966650 0.083382
vt 0.985588 0.114613
vt 0.594064 0.122268
vt 0.609947 0.096074
vt 0.600717 0.114215
vt 0.616638 0.088045
vt 0.849168 0.286904
vt 0.847751 0.288878
vt 0.841490 0.290607
vt 0.845688 0.277540
vt 0.854102 0.321996
vt 0.854317 0.296440
vt 0.858675 0.294581
vt 0.875448 0.309427
vt 0.858724 0.290590
vt 0.888540 0.282631
vt 0.099532 0.060634
vt 0.073614 0.147114
vt 0.059856 0.156164
vt 0.046099 0.147114
vt 0.020180 0.060634
vt 0.835721 0.289857
vt 0.839719 0.264171
vt 0.936606 0.360042
vt 0.860883 0.368641
vt 0.936606 0.280284
vt 0.609388 0.403628
vt 0.609388 0.265899
vt 0.647350 0.299997
vt 0.643441 0.365324
vt 0.889618 0.649493
vt 0.888410 0.647454
vt 0.930603 0.612759
vt 0.928549 0.701694
vt 0.375000 0.500000
vt 0.625000 0.500000
vt 0.625000 0.750000
vt 0.375000 0.750000
vt 0.857175 0.677888
vt 0.853887 0.612759
vt 0.886345 0.648929
vt 0.888982 0.650931
vt 0.712828 0.302644
vt 0.708919 0.367972
vt 0.746882 0.264341
vt 0.746882 0.402070
s 1
g pomoMesh_pomoMat
usemtl pomoMat
f 4/1/1 3/2/2 13/3/3 14/4/4
f 9/5/5 134/6/6 20/7/7 21/8/8
f 7/9/9 6/10/10 17/11/11 18/12/12
f 133/13/13 4/14/1 14/15/4 15/16/14
f 10/17/15 9/5/5 21/8/8 22/18/16
f 2/19/17 1/20/18 12/21/19
f 8/22/20 7/9/9 18/12/12 19/23/21
f 5/24/22 133/13/13 15/16/14 16/25/23
f 11/26/24 10/17/15 22/18/16
f 3/2/2 2/19/17 12/21/19 13/3/3
f 134/6/6 8/22/20 19/23/21 20/7/7
f 6/10/10 5/24/22 16/25/23 17/11/11
f 12/21/19 1/20/18 23/27/25
f 19/23/21 18/12/12 29/28/26 30/29/27
f 16/25/23 15/16/14 26/30/28 27/31/29
f 11/32/24 22/18/16 33/33/30
f 13/3/3 12/21/19 23/27/25 24/34/31
f 20/7/7 19/23/21 30/29/27 31/35/32
f 17/11/11 16/25/23 27/31/29 28/36/33
f 14/4/4 13/3/3 24/34/31 25/37/34
f 21/8/8 20/7/7 31/35/32 32/38/35
f 18/12/12 17/11/11 28/36/33 29/28/26
f 15/16/14 14/15/4 25/39/34 26/30/28
f 22/18/16 21/8/8 32/38/35 33/33/30
f 32/38/35 31/35/32 42/40/36 43/41/37
f 29/28/26 28/36/33 39/42/38 40/43/39
f 26/30/28 25/39/34 36/44/40 37/45/41
f 33/33/30 32/38/35 43/41/37 44/46/42
f 23/27/25 1/20/18 34/47/43
f 30/29/27 29/28/26 40/43/39 41/48/44
f 27/31/29 26/30/28 37/45/41 38/49/45
f 11/50/24 33/33/30 44/46/42
f 24/34/31 23/27/25 34/47/43 35/51/46
f 31/35/32 30/29/27 41/48/44 42/40/36
f 28/36/33 27/31/29 38/49/45 39/42/38
f 25/37/34 24/34/31 35/51/46 36/52/40
f 35/51/46 34/47/43 45/53/47 46/54/48
f 42/40/36 41/48/44 52/55/49 53/56/50
f 39/42/38 38/49/45 49/57/51 50/58/52
f 36/52/40 35/51/46 46/54/48 47/59/53
f 43/41/37 42/40/36 53/56/50 54/60/54
f 40/43/39 39/42/38 50/58/52 51/61/55
f 37/45/41 36/44/40 47/62/53 48/63/56
f 44/46/42 43/41/37 54/60/54 55/64/57
f 34/47/43 1/20/18 45/53/47
f 41/48/44 40/43/39 51/61/55 52/55/49
f 38/49/45 37/45/41 48/63/56 49/57/51
f 11/65/24 44/46/42 55/64/57
f 55/64/57 54/60/54 65/66/58 66/67/59
f 45/53/47 1/20/18 56/68/60
f 52/55/49 51/61/55 62/69/61 63/70/62
f 49/57/51 48/63/56 59/71/63 60/72/64
f 11/73/24 55/64/57 66/67/59
f 46/54/48 45/53/47 56/68/60 57/74/65
f 53/56/50 52/55/49 63/70/62 64/75/66
f 50/58/52 49/57/51 60/72/64 61/76/67
f 47/59/53 46/54/48 57/74/65 58/77/68
f 54/60/54 53/56/50 64/75/66 65/66/58
f 51/61/55 50/58/52 61/76/67 62/69/61
f 48/63/56 47/62/53 58/78/68 59/71/63
f 58/77/68 57/74/65 68/79/69 69/80/70
f 65/66/58 64/75/66 75/81/71 76/82/72
f 62/69/61 61/76/67 72/83/73 73/84/74
f 59/71/63 58/78/68 69/85/70 70/86/75
f 66/67/59 65/66/58 76/82/72 77/87/76
f 56/68/60 1/20/18 67/88/77
f 63/70/62 62/69/61 73/84/74 74/89/78
f 60/72/64 59/71/63 70/86/75 71/90/79
f 11/91/24 66/67/59 77/87/76
f 57/74/65 56/68/60 67/88/77 68/79/69
f 64/75/66 63/70/62 74/89/78 75/81/71
f 61/76/67 60/72/64 71/90/79 72/83/73
f 11/92/24 77/87/76 88/93/80
f 68/79/69 67/88/77 78/94/81 79/95/82
f 75/81/71 74/89/78 85/96/83 86/97/84
f 72/83/73 71/90/79 82/98/85 83/99/86
f 69/80/70 68/79/69 79/95/82 80/100/87
f 76/82/72 75/81/71 86/97/84 87/101/88
f 73/84/74 72/83/73 83/99/86 84/102/89
f 70/86/75 69/85/70 80/103/87 81/104/90
f 77/87/76 76/82/72 87/101/88 88/93/80
f 67/88/77 1/20/18 78/94/81
f 74/89/78 73/84/74 84/102/89 85/96/83
f 71/90/79 70/86/75 81/104/90 82/98/85
f 81/104/90 80/103/87 91/105/91 92/106/92
f 88/93/80 87/101/88 98/107/93 99/108/94
f 78/94/81 1/20/18 89/109/95
f 85/96/83 84/102/89 95/110/96 96/111/97
f 82/98/85 81/104/90 92/106/92 93/112/98
f 11/113/24 88/93/80 99/108/94
f 79/95/82 78/94/81 89/109/95 90/114/99
f 86/97/84 85/96/83 96/111/97 97/115/100
f 83/99/86 82/98/85 93/112/98 94/116/101
f 80/100/87 79/95/82 90/114/99 91/117/91
f 87/101/88 86/97/84 97/115/100 98/107/93
f 84/102/89 83/99/86 94/116/101 95/110/96
f 91/117/91 90/114/99 101/118/102 102/119/103
f 98/107/93 97/115/100 108/120/104 109/121/105
f 95/110/96 94/116/101 105/122/106 106/123/107
f 92/106/92 91/105/91 102/124/103 103/125/108
f 99/108/94 98/107/93 109/121/105 110/126/109
f 89/109/95 1/20/18 100/127/110
f 96/111/97 95/110/96 106/123/107 107/128/111
f 93/112/98 92/106/92 103/125/108 104/129/112
f 11/130/24 99/108/94 110/126/109
f 90/114/99 89/109/95 100/127/110 101/118/102
f 97/115/100 96/111/97 107/128/111 108/120/104
f 94/116/101 93/112/98 104/129/112 105/122/106
f 104/131/112 103/132/108 114/133/113 115/134/114
f 11/135/24 110/136/109 121/137/115
f 101/118/102 100/127/110 111/138/116 112/139/117
f 108/140/104 107/141/111 118/142/118 119/143/119
f 105/144/106 104/131/112 115/134/114 116/145/120
f 102/119/103 101/118/102 112/139/117 113/146/121
f 109/147/105 108/140/104 119/143/119 120/148/122
f 106/149/107 105/144/106 116/145/120 117/150/123
f 103/132/108 102/151/103 113/152/121 114/133/113
f 110/136/109 109/147/105 120/148/122 121/137/115
f 100/127/110 1/20/18 111/138/116
f 107/141/111 106/149/107 117/150/123 118/142/118
f 114/133/113 113/152/121 124/153/124 125/154/125
f 121/137/115 120/148/122 131/155/126 132/156/127
f 111/138/116 1/20/18 122/157/128
f 118/142/118 117/150/123 128/158/129 129/159/130
f 115/134/114 114/133/113 125/154/125 126/160/131
f 11/161/24 121/137/115 132/156/127
f 112/139/117 111/138/116 122/157/128 123/162/132
f 119/143/119 118/142/118 129/159/130 130/163/133
f 116/145/120 115/134/114 126/160/131 127/164/134
f 113/146/121 112/139/117 123/162/132 124/165/124
f 120/148/122 119/143/119 130/163/133 131/155/126
f 117/150/123 116/145/120 127/164/134 128/158/129
f 127/164/134 126/160/131 5/24/22 6/10/10
f 124/165/124 123/162/132 3/2/2 4/1/1
f 131/155/126 130/163/133 134/6/6 9/5/5
f 128/158/129 127/164/134 6/10/10 7/9/9
f 125/154/125 124/153/124 4/14/1 133/13/13
f 132/156/127 131/155/126 9/5/5 10/17/15
f 122/157/128 1/20/18 2/19/17
f 129/159/130 128/158/129 7/9/9 8/22/20
f 126/160/131 125/154/125 133/13/13 5/24/22
f 11/166/24 132/156/127 10/17/15
f 123/162/132 122/157/128 2/19/17 3/2/2
f 130/163/133 129/159/130 8/22/20 134/6/6
f 158/167/135 156/168/136 171/169/137 176/170/138
s 0
f 137/171/139 166/172/139 165/173/139 139/174/139
f 153/175/140 160/176/140 159/177/140 155/178/140
s 1
f 136/179/141 149/180/141 151/181/141 153/182/141 155/183/141 157/184/141
s 0
f 151/185/142 161/186/142 160/176/142 153/175/142
f 141/187/143 167/188/143 168/189/143 143/190/143
f 157/191/144 164/192/144 163/193/144 136/194/144
f 149/195/145 162/196/145 161/186/145 151/185/145
f 143/190/146 168/189/146 169/197/146 145/198/146
s 1
f 144/199/147 142/200/148 179/201/149 180/202/150
s 0
f 136/194/151 163/193/151 162/196/151 149/195/151
f 145/198/152 169/197/152 170/203/152 147/204/152
f 147/204/153 170/203/153 166/172/153 137/171/153
s 1
f 137/179/154 139/180/154 141/181/154 143/182/154 145/183/154 147/184/154
s 0
f 139/174/155 165/173/155 164/192/155 157/191/155
f 167/188/156 159/177/156 164/192/156 165/173/156
f 141/187/157 155/178/157 159/177/157 167/188/157
f 154/205/158 156/206/158 159/177/158 160/176/158
f 150/207/158 152/208/158 161/186/158 162/196/158
f 152/208/158 154/205/158 160/176/158 161/186/158
f 135/209/158 150/207/158 162/196/158 163/193/158
f 156/206/158 158/210/158 164/192/158 159/177/158
f 158/210/158 135/209/158 163/193/158 164/192/158
f 138/211/159 140/212/159 165/173/159 166/172/159
f 140/212/159 142/213/159 167/188/159 165/173/159
f 142/213/159 144/214/159 168/189/159 167/188/159
f 144/214/159 146/215/159 169/197/159 168/189/159
f 146/215/159 148/216/159 170/203/159 169/197/159
f 148/216/159 138/211/159 166/172/159 170/203/159
s 1
f 174/217/160 175/218/161 176/170/138 171/169/137 172/219/162 173/220/163
f 177/221/164 178/222/165 182/223/166 181/224/167 180/202/150 179/201/149
f 152/225/168 150/226/169 174/217/160 173/220/163
f 146/227/170 144/199/147 180/202/150 181/224/167
f 135/228/171 158/167/135 176/170/138 175/218/161
f 140/229/172 138/230/173 178/222/165 177/221/164
f 154/231/174 152/225/168 173/220/163 172/219/162
f 148/232/175 146/227/170 181/224/167 182/223/166
f 142/200/148 140/229/172 177/221/164 179/201/149
f 150/226/169 135/228/171 175/218/161 174/217/160
f 138/230/173 148/232/175 182/223/166 178/222/165
f 156/168/136 154/231/174 172/219/162 171/169/137
s 0
f 183/233/176 216/234/176 215/235/176 185/236/176
f 185/237/177 215/238/177 217/239/177 187/240/177
f 187/241/178 217/242/178 218/243/178 189/244/178
f 189/245/179 218/246/179 219/247/179 191/248/179
f 191/249/180 219/250/180 220/251/180 193/252/180
f 193/253/181 220/254/181 221/255/181 195/256/181
f 195/257/182 221/258/182 222/259/182 197/260/182
f 197/261/183 222/262/183 223/263/183 199/264/183
f 199/265/184 223/266/184 224/267/184 201/268/184
f 201/269/185 224/270/185 225/271/185 203/272/185
f 203/273/186 225/274/186 226/275/186 205/276/186
f 205/277/187 226/278/187 227/279/187 207/280/187
f 207/281/188 227/282/188 228/283/188 209/284/188
f 209/285/189 228/286/189 229/287/189 211/288/189
f 192/289/187 190/290/187 234/291/187 235/292/187
f 211/293/190 229/294/190 230/295/190 213/296/190
f 213/297/191 230/298/191 216/299/191 183/300/191
f 184/301/192 186/302/192 215/235/192 216/234/192
f 186/303/193 188/304/193 217/239/193 215/238/193
f 188/305/194 190/306/194 218/243/194 217/242/194
f 190/290/195 192/289/195 219/247/195 218/246/195
f 192/307/196 194/308/196 220/251/196 219/250/196
f 194/309/197 196/310/197 221/255/197 220/254/197
f 196/311/198 198/312/198 222/259/198 221/258/198
f 198/313/199 200/314/199 223/263/199 222/262/199
f 200/315/200 202/316/200 224/267/200 223/266/200
f 202/317/201 204/318/201 225/271/201 224/270/201
f 204/319/202 206/320/202 226/275/202 225/274/202
f 206/321/203 208/322/203 227/279/203 226/278/203
f 208/323/204 210/324/204 228/283/204 227/282/204
f 210/325/205 212/326/205 229/287/205 228/286/205
f 212/327/206 214/328/206 230/295/206 229/294/206
f 214/329/207 184/330/207 216/299/207 230/298/207
f 208/322/179 206/321/179 242/331/179 243/332/179
f 194/308/188 192/307/188 235/333/188 236/334/188
f 210/324/180 208/323/180 243/335/180 244/336/180
f 196/310/189 194/309/189 236/337/189 237/338/189
f 212/326/181 210/325/181 244/339/181 245/340/181
f 198/312/190 196/311/190 237/341/190 238/342/190
f 214/328/182 212/327/182 245/343/182 246/344/182
f 200/314/191 198/313/191 238/345/191 239/346/191
f 186/302/184 184/301/184 232/347/184 231/348/184
f 184/330/183 214/329/183 246/349/183 232/350/183
f 202/316/176 200/315/176 239/351/176 240/352/176
f 188/304/185 186/303/185 231/353/185 233/354/185
f 204/318/177 202/317/177 240/355/177 241/356/177
f 190/306/186 188/305/186 233/357/186 234/358/186
f 206/320/178 204/319/178 241/359/178 242/360/178
s 1
f 248/361/208 250/362/209 258/363/210 257/364/211
f 260/365/212 255/366/213 256/367/214 259/368/215
f 259/368/215 256/367/214 254/369/216 261/370/217
f 249/371/218 251/372/218 253/373/218 252/374/218 247/375/218
f 257/364/211 261/370/217 254/369/216 248/361/208
f 250/362/209 255/366/213 260/365/212 258/363/210
f 248/361/208 254/369/216 256/367/214 255/366/213 250/362/209
f 249/376/218 247/377/218 257/364/211 258/363/210
f 253/378/218 251/379/218 260/365/212 259/368/215
f 252/380/218 253/378/218 259/368/215 261/370/217
f 251/379/218 249/376/218 258/363/210 260/365/212
f 247/377/218 252/380/218 261/370/217 257/364/211
f 263/361/219 265/362/220 273/363/221 272/364/222
f 275/365/223 270/366/224 271/367/225 274/368/226
f 274/368/226 271/367/225 269/369/227 276/370/228
f 264/371/229 266/372/229 268/373/229 267/374/229 262/375/229
f 272/364/222 276/370/228 269/369/227 263/361/219
f 265/362/220 270/366/224 275/365/223 273/363/221
f 263/361/219 269/369/227 271/367/225 270/366/224 265/362/220
f 264/376/229 262/377/229 272/364/222 273/363/221
f 268/378/229 266/379/229 275/365/223 274/368/226
f 267/380/229 268/378/229 274/368/226 276/370/228
f 266/379/229 264/376/229 273/363/221 275/365/223
f 262/377/229 267/380/229 276/370/228 272/364/222
f 280/381/230 279/382/231 285/383/232 288/384/233
f 279/385/231 280/386/230 284/387/234 283/388/235
s 0
f 283/389/236 284/390/236 282/391/236 281/392/236
s 1
f 281/393/237 282/394/238 278/395/239 277/396/240
f 279/385/231 283/388/235 281/393/237 277/396/240
f 284/387/234 280/386/230 278/395/239 282/394/238
f 286/397/241 287/398/242 288/384/233 285/383/232
f 277/399/240 278/400/239 287/398/242 286/397/241
f 278/400/239 280/381/230 288/384/233 287/398/242
f 279/382/231 277/399/240 286/397/241 285/383/232
f 292/381/243 291/382/244 297/383/245 300/384/246
f 291/385/244 292/386/243 296/387/247 295/388/248
f 293/393/249 294/394/250 290/395/251 289/396/252
f 291/385/244 295/388/248 293/393/249 289/396/252
f 296/387/247 292/386/243 290/395/251 294/394/250
f 298/397/253 299/398/254 300/384/246 297/383/245
f 289/399/252 290/400/251 299/398/254 298/397/253
f 290/400/251 292/381/243 300/384/246 299/398/254
f 291/382/244 289/399/252 298/397/253 297/383/245
