# Blender 5.0.1
# www.blender.org
mtllib model.mtl
o logsMesh
v -1.643240 -0.000746 8.951702
v -1.677443 -0.157087 8.868171
v -1.745850 -0.157087 8.701107
v -1.780053 -0.000746 8.617575
v -1.745850 0.155594 8.701107
v -1.677443 0.155594 8.868171
v -2.905292 -0.157087 9.370928
v -2.871089 -0.000746 9.454459
v -2.973698 -0.157087 9.203864
v -3.007901 -0.000746 9.120333
v -2.973698 0.155594 9.203864
v -2.905292 0.155594 9.370928
v -5.068989 0.005783 8.951702
v -5.034239 0.162002 8.868171
v -4.965833 0.161763 8.701107
v -4.932178 0.005304 8.617575
v -4.966927 -0.150915 8.701107
v -5.035333 -0.150676 8.868171
v -3.806398 0.157708 9.370928
v -3.841148 0.001488 9.454459
v -3.737993 0.157468 9.203864
v -3.704337 0.001010 9.120333
v -3.739086 -0.155210 9.203864
v -3.807492 -0.154971 9.370928
v -3.360575 -1.711547 8.951702
v -3.516794 -1.676798 8.868171
v -3.516555 -1.608392 8.701107
v -3.360096 -1.574736 8.617575
v -3.203877 -1.609485 8.701107
v -3.204116 -1.677891 8.868171
v -3.512500 -0.448957 9.370928
v -3.356280 -0.483706 9.454459
v -3.512260 -0.380551 9.203864
v -3.355802 -0.346895 9.120333
v -3.199582 -0.381644 9.203864
v -3.199821 -0.450050 9.370928
v -3.351659 1.714197 8.951702
v -3.195440 1.679447 8.868171
v -3.195679 1.611041 8.701107
v -3.352138 1.577386 8.617575
v -3.508357 1.612135 8.701107
v -3.508118 1.680541 8.868171
v -3.199734 0.451607 9.370928
v -3.355953 0.486356 9.454459
v -3.199973 0.383201 9.203864
v -3.356432 0.349545 9.120333
v -3.512651 0.384294 9.203864
v -3.512412 0.452700 9.370928
v -2.092823 1.158061 8.951702
v -2.012302 1.019755 8.868171
v -2.062698 0.973499 8.701107
v -2.193614 1.065547 8.617575
v -2.274135 1.203853 8.701107
v -2.223739 1.250110 8.868171
v -2.916870 0.189473 9.370928
v -2.997391 0.327779 9.454459
v -2.967266 0.143217 9.203864
v -3.098182 0.235266 9.120333
v -3.178703 0.373571 9.203864
v -3.128307 0.419828 9.370928
v -4.621021 -1.153650 8.951702
v -4.701058 -1.015064 8.868171
v -4.650501 -0.968983 8.701107
v -4.519907 -1.061490 8.617575
v -4.439871 -1.200076 8.701107
v -4.490428 -1.246157 8.868171
v -3.793591 -0.187951 9.370928
v -3.713554 -0.326537 9.454459
v -3.743034 -0.141871 9.203864
v -3.612441 -0.234377 9.120333
v -3.532404 -0.372963 9.203864
v -3.582961 -0.419043 9.370928
v -2.201142 -1.263580 8.951702
v -2.339728 -1.343616 8.868171
v -2.385809 -1.293059 8.701107
v -2.293302 -1.162466 8.617575
v -2.154716 -1.082429 8.701107
v -2.108635 -1.132986 8.868171
v -3.166841 -0.436150 9.370928
v -3.028255 -0.356113 9.454459
v -3.212921 -0.385593 9.203864
v -3.120415 -0.254999 9.120333
v -2.981829 -0.174962 9.203864
v -2.935749 -0.225519 9.370928
v -4.511092 1.266229 8.951702
v -4.372506 1.346266 8.868171
v -4.326425 1.295709 8.701107
v -4.418931 1.165115 8.617575
v -4.557518 1.085079 8.701107
v -4.603599 1.135636 8.868171
v -3.545393 0.438799 9.370928
v -3.683979 0.358763 9.454459
v -3.499312 0.388242 9.203864
v -3.591818 0.257649 9.120333
v -3.730405 0.177612 9.203864
v -3.776485 0.228169 9.370928
v -7.182778 5.682757 8.281939
v -7.026276 4.681396 8.248689
v -7.815027 4.044205 8.262394
v -8.760285 4.408381 8.309353
v -8.916776 5.409744 8.342604
v -8.128024 6.046935 8.328897
v -7.368353 4.801560 9.056917
v -7.461897 5.400087 9.076788
v -7.839798 4.420704 9.065106
v -8.404790 4.638378 9.093178
v -8.498327 5.236901 9.113050
v -8.026880 5.617759 9.104857
v -3.467182 6.654999 8.281939
v -3.879080 5.728954 8.248689
v -4.887365 5.621718 8.262394
v -5.483755 6.440533 8.309353
v -5.071846 7.366571 8.342604
v -4.063560 7.473808 8.328897
v -4.101214 6.015508 9.056917
v -3.855018 6.569016 9.076788
v -4.703878 5.951411 9.065106
v -5.060346 6.440827 9.093178
v -4.814146 6.994329 9.113050
v -4.211480 7.058427 9.104857
v 0.407662 5.542441 8.281939
v -0.388720 4.915549 8.248689
v -1.330566 5.291136 8.262394
v -1.476028 6.293622 8.309353
v -0.679639 6.920504 8.342604
v 0.262208 6.544917 8.328897
v -0.451497 5.272642 9.056918
v 0.024510 5.647344 9.076788
v -1.014449 5.497134 9.065106
v -1.101392 6.096332 9.093178
v -0.625384 6.471026 9.113050
v -0.062429 6.246534 9.104857
v 1.954895 -5.029430 8.281939
v 1.702583 -6.011039 8.248689
v 0.726129 -6.284309 8.262394
v 0.001984 -5.575964 8.309353
v 0.254308 -4.594359 8.342604
v 1.230764 -4.321088 8.328897
v 1.435925 -5.765376 9.056917
v 1.586736 -5.178656 9.076788
v 0.852288 -5.928713 9.065106
v 0.419459 -5.505326 9.093178
v 0.570274 -4.918611 9.113050
v 1.153914 -4.755272 9.104857
v -6.988089 4.655058 9.221609
v -7.144592 5.656420 9.254856
v -7.776840 4.017867 9.235312
v -8.722097 4.382044 9.282274
v -8.878590 5.383405 9.315522
v -8.089838 6.020598 9.301816
v -3.861295 5.686110 9.221609
v -3.449397 6.612155 9.254856
v -4.869581 5.578873 9.235312
v -5.465969 6.397688 9.282274
v -5.054063 7.323727 9.315522
v -4.045775 7.430965 9.301816
v -0.392979 4.869356 9.221609
v 0.403403 5.496249 9.254856
v -1.334826 5.244943 9.235312
v -1.480286 6.247429 9.282274
v -0.683900 6.874311 9.315522
v 0.257948 6.498725 9.301816
v 1.727239 -6.050333 9.221609
v 1.979552 -5.068723 9.254856
v 0.750784 -6.323604 9.235312
v 0.026641 -5.615258 9.282274
v 0.278963 -4.633653 9.315522
v 1.255419 -4.360381 9.301816
vn -0.0000 -1.0000 -0.0000
vn -0.3282 -0.5000 -0.8014
vn -0.3282 0.5000 -0.8014
vn -0.0000 1.0000 -0.0000
vn 0.3282 0.5000 0.8014
vn 0.9254 -0.0000 -0.3789
vn -0.9254 -0.0000 0.3789
vn 0.3282 -0.5000 0.8014
vn 0.0035 1.0000 -0.0000
vn 0.3299 0.4989 -0.8014
vn 0.3264 -0.5011 -0.8014
vn -0.0035 -1.0000 -0.0000
vn -0.3299 -0.4989 0.8014
vn -0.9254 0.0032 -0.3789
vn 0.9254 -0.0032 0.3789
vn -0.3264 0.5011 0.8014
vn -1.0000 0.0035 -0.0000
vn -0.4989 0.3299 -0.8014
vn 0.5011 0.3264 -0.8014
vn 1.0000 -0.0035 -0.0000
vn 0.4988 -0.3299 0.8014
vn -0.0032 -0.9254 -0.3789
vn 0.0032 0.9254 0.3789
vn -0.5011 -0.3264 0.8014
vn 0.4988 -0.3299 -0.8014
vn -0.5011 -0.3264 -0.8014
vn -0.4988 0.3299 0.8014
vn 0.0032 0.9254 -0.3789
vn -0.0032 -0.9254 0.3789
vn 0.5011 0.3264 0.8014
vn 0.6762 -0.7367 -0.0000
vn 0.0963 -0.5903 -0.8014
vn -0.5799 0.1465 -0.8014
vn -0.6762 0.7367 -0.0000
vn -0.0963 0.5903 0.8014
vn 0.6818 0.6258 -0.3789
vn -0.6818 -0.6258 0.3789
vn 0.5799 -0.1465 0.8014
vn -0.6736 0.7391 -0.0000
vn -0.0943 0.5906 -0.8014
vn 0.5793 -0.1485 -0.8014
vn 0.6736 -0.7391 -0.0000
vn 0.0943 -0.5906 0.8014
vn -0.6840 -0.6234 -0.3789
vn 0.6840 0.6234 0.3789
vn -0.5793 0.1485 0.8014
vn -0.7391 -0.6736 -0.0000
vn -0.5906 -0.0943 -0.8014
vn 0.1485 0.5793 -0.8014
vn 0.7391 0.6736 -0.0000
vn 0.5906 0.0943 0.8014
vn 0.6234 -0.6839 -0.3789
vn -0.6234 0.6840 0.3789
vn -0.1485 -0.5794 0.8014
vn 0.5906 0.0943 -0.8014
vn -0.1485 -0.5794 -0.8014
vn -0.5906 -0.0943 0.8014
vn -0.6234 0.6840 -0.3789
vn 0.6234 -0.6840 0.3789
vn 0.1485 0.5793 0.8014
vn 0.6273 -0.7775 -0.0457
vn -0.3600 -0.9329 -0.0111
vn -0.9872 -0.1554 0.0345
vn -0.6273 0.7775 0.0457
vn 0.3600 0.9329 0.0111
vn -0.0392 0.0270 -0.9989
vn 0.0392 -0.0270 0.9989
vn 0.9872 0.1554 -0.0345
vn 0.1050 -0.9934 -0.0457
vn -0.8086 -0.5883 -0.0111
vn -0.9136 0.4051 0.0345
vn -0.1050 0.9934 0.0457
vn 0.8086 0.5883 0.0111
vn -0.0183 0.0440 -0.9989
vn 0.0183 -0.0440 0.9989
vn 0.9136 -0.4051 -0.0345
vn -0.3706 -0.9277 -0.0457
vn -0.9896 -0.1431 -0.0111
vn -0.6190 0.7846 0.0345
vn 0.3706 0.9277 0.0457
vn 0.9896 0.1431 0.0111
vn 0.0044 0.0474 -0.9989
vn -0.0044 -0.0474 0.9989
vn 0.6191 -0.7846 -0.0345
vn 0.2686 -0.9622 -0.0457
vn -0.6996 -0.7145 -0.0111
vn -0.9682 0.2477 0.0345
vn -0.2686 0.9622 0.0457
vn 0.6996 0.7145 0.0111
vn -0.0253 0.0403 -0.9989
vn 0.0253 -0.0403 0.9989
vn 0.9682 -0.2477 -0.0345
vn -0.4267 -0.0965 0.8992
vn -0.2599 0.3411 0.9034
vn 0.2013 0.4078 0.8906
vn 0.4834 0.0465 0.8742
vn 0.3186 -0.3757 0.8702
vn -0.1302 -0.4518 0.8825
vn -0.4108 0.1504 0.8992
vn -0.0332 0.4275 0.9034
vn 0.3904 0.2333 0.8906
vn 0.4313 -0.2232 0.8742
vn 0.0638 -0.4885 0.8703
vn -0.3546 -0.3089 0.8825
vn -0.2931 0.3247 0.8992
vn 0.1701 0.3936 0.9034
vn 0.4541 0.0242 0.8906
vn 0.2773 -0.3987 0.8742
vn -0.1715 -0.4618 0.8702
vn -0.4577 -0.1078 0.8825
vn -0.4301 0.0801 0.8992
vn -0.1038 0.4161 0.9034
vn 0.3462 0.2949 0.8906
vn 0.4624 -0.1485 0.8742
vn 0.1441 -0.4711 0.8702
vn -0.2983 -0.3635 0.8825
vn -0.3299 -0.4988 0.8014
vn -0.4988 0.3299 -0.8014
vn 0.1485 0.5794 -0.8014
vn 0.6234 -0.6840 -0.3789
vn -0.1485 -0.5793 0.8014
vn -0.1485 -0.5793 -0.8014
vn 0.1485 0.5794 0.8014
vn 0.3186 -0.3757 0.8703
vn -0.1302 -0.4519 0.8825
vn 0.0638 -0.4885 0.8702
vn 0.2773 -0.3986 0.8742
vn -0.4300 0.0801 0.8992
vt 0.619566 0.486371
vt 0.761975 0.978064
vt 0.619567 0.978064
vt 0.904381 0.486371
vt 0.904382 0.978064
vt 0.049940 0.486370
vt 0.192346 0.978064
vt 0.049939 0.978064
vt 0.192347 0.486371
vt 0.334753 0.978064
vt 0.334754 0.486371
vt 0.477160 0.978064
vt 0.492960 -0.016627
vt 0.860963 0.083187
vt 0.860963 0.282814
vt 0.860962 0.282813
vt 0.124956 0.282814
vt 0.492959 -0.016627
vt 0.477160 0.486371
vt 0.124957 0.282813
vt 0.124956 0.083187
vt 0.761975 0.486371
vt 0.619566 0.550630
vt 0.761976 0.550630
vt 0.904382 0.550630
vt 0.049940 0.550630
vt 0.192347 0.550630
vt 0.334754 0.550630
vt 0.477160 0.550630
vt 0.124961 0.083187
vt 0.492965 -0.016625
vt 0.860966 0.083188
vt 0.712918 0.242659
vt 0.273000 0.242659
vt 0.492959 0.063680
vt 0.273000 0.242660
vt 0.712918 0.242660
vt 0.272999 0.242659
vt 0.272999 0.242659
vt 0.492958 0.063680
vt 0.860962 0.083186
vt 0.712918 0.123340
vt 0.272999 0.123341
vt 0.492959 0.382627
vt 0.492960 0.302319
vt 0.492959 0.302319
vt 0.712918 0.123340
vt 0.272999 0.123341
vt 0.492958 0.302319
vt 0.712917 0.123340
vt 0.272999 0.123340
vt 0.492960 0.382627
vt 0.124957 0.083186
vt 0.860968 0.282817
vt 0.492963 0.382628
vt 0.124960 0.282816
s 0
g logsMesh_logsMat
usemtl logsMat
f 7/1/1 3/2/1 2/3/1
f 3/2/2 10/4/2 4/5/2
f 10/6/3 5/7/3 4/8/3
f 11/9/4 6/10/4 5/7/4
f 12/11/5 1/12/5 6/10/5
f 4/13/6 5/14/6 6/15/6
f 8/16/7 11/17/7 9/18/7
f 8/19/8 2/3/8 1/12/8
f 19/1/9 15/2/9 14/3/9
f 15/2/10 22/4/10 16/5/10
f 22/6/11 17/7/11 16/8/11
f 17/7/12 24/11/12 18/10/12
f 24/11/13 13/12/13 18/10/13
f 17/14/14 18/15/14 14/20/14
f 20/16/15 23/17/15 21/18/15
f 20/19/16 14/3/16 13/12/16
f 31/1/17 27/2/17 26/3/17
f 27/2/18 34/4/18 28/5/18
f 34/6/19 29/7/19 28/8/19
f 29/7/20 36/11/20 30/10/20
f 36/11/21 25/12/21 30/10/21
f 28/13/22 29/14/22 30/15/22
f 32/16/23 35/17/23 33/18/23
f 32/19/24 26/3/24 25/12/24
f 43/1/20 39/2/20 38/3/20
f 39/2/25 46/4/25 40/5/25
f 46/6/26 41/7/26 40/8/26
f 41/7/17 48/11/17 42/10/17
f 48/11/27 37/12/27 42/10/27
f 41/14/28 42/15/28 38/20/28
f 44/16/29 47/17/29 45/18/29
f 44/19/30 38/3/30 37/12/30
f 55/1/31 51/2/31 50/3/31
f 51/2/32 58/4/32 52/5/32
f 58/6/33 53/7/33 52/8/33
f 59/9/34 54/10/34 53/7/34
f 60/11/35 49/12/35 54/10/35
f 52/13/36 53/14/36 54/15/36
f 58/21/37 57/18/37 56/16/37
f 49/12/38 55/1/38 50/3/38
f 62/3/39 69/22/39 63/2/39
f 63/2/40 70/4/40 64/5/40
f 70/6/41 65/7/41 64/8/41
f 65/7/42 72/11/42 66/10/42
f 66/10/43 68/19/43 61/12/43
f 64/13/44 65/14/44 66/15/44
f 70/21/45 69/18/45 68/16/45
f 68/19/46 62/3/46 61/12/46
f 79/1/47 75/2/47 74/3/47
f 75/2/48 82/4/48 76/5/48
f 82/6/49 77/7/49 76/8/49
f 77/7/50 84/11/50 78/10/50
f 84/11/51 73/12/51 78/10/51
f 76/13/52 77/14/52 78/15/52
f 83/17/53 82/21/53 81/18/53
f 73/12/54 79/1/54 74/3/54
f 91/1/50 87/2/50 86/3/50
f 87/2/55 94/4/55 88/5/55
f 94/6/56 89/7/56 88/8/56
f 89/7/47 96/11/47 90/10/47
f 96/11/57 85/12/57 90/10/57
f 89/14/58 90/15/58 86/20/58
f 95/17/59 94/21/59 93/18/59
f 92/19/60 86/3/60 85/12/60
f 98/23/61 147/22/61 99/24/61
f 147/22/62 100/25/62 99/24/62
f 100/26/63 149/9/63 101/27/63
f 149/9/64 102/28/64 101/27/64
f 102/28/65 146/19/65 97/29/65
f 99/30/66 100/31/66 101/32/66
f 104/33/67 107/34/67 105/35/67
f 146/19/68 98/23/68 97/29/68
f 110/23/69 153/22/69 111/24/69
f 153/22/70 112/25/70 111/24/70
f 112/26/71 155/9/71 113/27/71
f 155/9/72 114/28/72 113/27/72
f 114/28/73 152/19/73 109/29/73
f 111/30/74 112/31/74 113/32/74
f 116/33/75 119/36/75 117/35/75
f 152/19/76 110/23/76 109/29/76
f 122/23/77 159/22/77 123/24/77
f 159/22/78 124/25/78 123/24/78
f 124/26/79 161/9/79 125/27/79
f 161/9/80 126/28/80 125/27/80
f 126/28/81 158/19/81 121/29/81
f 123/30/82 124/31/82 125/32/82
f 128/37/83 131/38/83 129/35/83
f 158/19/84 122/23/84 121/29/84
f 134/23/85 165/22/85 135/24/85
f 165/22/86 136/25/86 135/24/86
f 136/26/87 167/9/87 137/27/87
f 167/9/88 138/28/88 137/27/88
f 138/28/89 164/19/89 133/29/89
f 135/30/90 136/31/90 137/32/90
f 140/33/91 143/39/91 141/40/91
f 164/19/92 134/23/92 133/29/92
f 104/33/93 145/41/93 146/16/93
f 105/35/94 145/41/94 103/42/94
f 106/43/95 147/18/95 105/35/95
f 107/34/96 148/21/96 106/43/96
f 107/34/97 150/44/97 149/17/97
f 108/45/98 146/16/98 150/44/98
f 116/33/99 151/41/99 152/16/99
f 117/35/100 151/41/100 115/42/100
f 118/43/101 153/18/101 117/35/101
f 119/36/102 154/21/102 118/43/102
f 119/36/103 156/44/103 155/17/103
f 120/46/104 152/16/104 156/44/104
f 128/37/105 157/41/105 158/16/105
f 129/35/106 157/41/106 127/47/106
f 130/48/107 159/18/107 129/35/107
f 131/38/108 160/21/108 130/48/108
f 131/38/109 162/44/109 161/17/109
f 132/49/110 158/16/110 162/44/110
f 140/33/111 163/41/111 164/16/111
f 141/40/112 163/41/112 139/50/112
f 142/51/113 165/18/113 141/40/113
f 143/39/114 166/21/114 142/51/114
f 143/39/115 168/44/115 167/17/115
f 144/49/116 164/16/116 168/44/116
f 7/1/1 9/22/1 3/2/1
f 3/2/2 9/22/2 10/4/2
f 10/6/3 11/9/3 5/7/3
f 11/9/4 12/11/4 6/10/4
f 12/11/5 8/19/5 1/12/5
f 6/15/6 1/52/6 4/13/6
f 1/52/6 2/20/6 4/13/6
f 2/20/6 3/53/6 4/13/6
f 9/18/7 7/41/7 8/16/7
f 8/16/7 12/44/7 11/17/7
f 11/17/7 10/21/7 9/18/7
f 8/19/8 7/1/8 2/3/8
f 19/1/9 21/22/9 15/2/9
f 15/2/10 21/22/10 22/4/10
f 22/6/11 23/9/11 17/7/11
f 17/7/12 23/9/12 24/11/12
f 24/11/117 20/19/117 13/12/117
f 18/15/14 13/52/14 14/20/14
f 14/20/14 15/53/14 16/13/14
f 16/13/14 17/14/14 14/20/14
f 21/18/15 19/41/15 20/16/15
f 20/16/15 24/44/15 23/17/15
f 23/17/15 22/21/15 21/18/15
f 20/19/16 19/1/16 14/3/16
f 31/1/17 33/22/17 27/2/17
f 27/2/118 33/22/118 34/4/118
f 34/6/19 35/9/19 29/7/19
f 29/7/20 35/9/20 36/11/20
f 36/11/21 32/19/21 25/12/21
f 30/15/22 25/52/22 28/13/22
f 25/52/22 26/20/22 28/13/22
f 26/20/22 27/53/22 28/13/22
f 33/18/23 31/41/23 32/16/23
f 32/16/23 36/44/23 35/17/23
f 35/17/23 34/21/23 33/18/23
f 32/19/24 31/1/24 26/3/24
f 43/1/20 45/22/20 39/2/20
f 39/2/25 45/22/25 46/4/25
f 46/6/26 47/9/26 41/7/26
f 41/7/17 47/9/17 48/11/17
f 48/11/27 44/19/27 37/12/27
f 42/15/28 37/52/28 38/20/28
f 38/20/28 39/53/28 40/13/28
f 40/13/28 41/14/28 38/20/28
f 45/18/29 43/41/29 44/16/29
f 44/16/29 48/44/29 47/17/29
f 47/17/29 46/21/29 45/18/29
f 44/19/30 43/1/30 38/3/30
f 55/1/31 57/22/31 51/2/31
f 51/2/32 57/22/32 58/4/32
f 58/6/33 59/9/33 53/7/33
f 59/9/34 60/11/34 54/10/34
f 60/11/35 56/19/35 49/12/35
f 54/15/36 49/52/36 50/20/36
f 50/20/36 51/53/36 54/15/36
f 51/53/36 52/13/36 54/15/36
f 57/18/37 55/41/37 56/16/37
f 56/16/37 60/44/37 59/17/37
f 59/17/37 58/21/37 56/16/37
f 49/12/38 56/19/38 55/1/38
f 62/3/39 67/1/39 69/22/39
f 63/2/40 69/22/40 70/4/40
f 70/6/41 71/9/41 65/7/41
f 65/7/42 71/9/42 72/11/42
f 66/10/43 72/11/43 68/19/43
f 66/15/44 61/52/44 64/13/44
f 61/52/44 62/20/44 64/13/44
f 62/20/44 63/53/44 64/13/44
f 69/18/45 67/41/45 68/16/45
f 68/16/45 72/44/45 71/17/45
f 71/17/45 70/21/45 68/16/45
f 68/19/46 67/1/46 62/3/46
f 79/1/47 81/22/47 75/2/47
f 75/2/48 81/22/48 82/4/48
f 82/6/119 83/9/119 77/7/119
f 77/7/50 83/9/50 84/11/50
f 84/11/51 80/19/51 73/12/51
f 78/15/120 73/52/120 76/13/120
f 73/52/120 74/20/120 76/13/120
f 74/20/120 75/53/120 76/13/120
f 81/18/53 79/41/53 83/17/53
f 79/41/53 80/16/53 83/17/53
f 80/16/53 84/44/53 83/17/53
f 73/12/121 80/19/121 79/1/121
f 91/1/50 93/22/50 87/2/50
f 87/2/55 93/22/55 94/4/55
f 94/6/122 95/9/122 89/7/122
f 89/7/47 95/9/47 96/11/47
f 96/11/57 92/19/57 85/12/57
f 90/15/58 85/52/58 86/20/58
f 86/20/58 87/53/58 88/13/58
f 88/13/58 89/14/58 86/20/58
f 93/18/59 91/41/59 95/17/59
f 91/41/59 92/16/59 95/17/59
f 92/16/59 96/44/59 95/17/59
f 92/19/123 91/1/123 86/3/123
f 98/23/61 145/1/61 147/22/61
f 147/22/62 148/4/62 100/25/62
f 100/26/63 148/6/63 149/9/63
f 149/9/64 150/11/64 102/28/64
f 102/28/65 150/11/65 146/19/65
f 102/54/66 97/55/66 101/32/66
f 97/55/66 98/56/66 101/32/66
f 98/56/66 99/30/66 101/32/66
f 105/35/67 103/42/67 104/33/67
f 104/33/67 108/45/67 107/34/67
f 107/34/67 106/43/67 105/35/67
f 146/19/68 145/1/68 98/23/68
f 110/23/69 151/1/69 153/22/69
f 153/22/70 154/4/70 112/25/70
f 112/26/71 154/6/71 155/9/71
f 155/9/72 156/11/72 114/28/72
f 114/28/73 156/11/73 152/19/73
f 114/54/74 109/55/74 113/32/74
f 109/55/74 110/56/74 113/32/74
f 110/56/74 111/30/74 113/32/74
f 117/35/75 115/42/75 116/33/75
f 116/33/75 120/46/75 119/36/75
f 119/36/75 118/43/75 117/35/75
f 152/19/76 151/1/76 110/23/76
f 122/23/77 157/1/77 159/22/77
f 159/22/78 160/4/78 124/25/78
f 124/26/79 160/6/79 161/9/79
f 161/9/80 162/11/80 126/28/80
f 126/28/81 162/11/81 158/19/81
f 126/54/82 121/55/82 125/32/82
f 121/55/82 122/56/82 125/32/82
f 122/56/82 123/30/82 125/32/82
f 129/35/83 127/47/83 128/37/83
f 128/37/83 132/49/83 131/38/83
f 131/38/83 130/48/83 129/35/83
f 158/19/84 157/1/84 122/23/84
f 134/23/85 163/1/85 165/22/85
f 165/22/86 166/4/86 136/25/86
f 136/26/87 166/6/87 167/9/87
f 167/9/88 168/11/88 138/28/88
f 138/28/89 168/11/89 164/19/89
f 138/54/90 133/55/90 137/32/90
f 133/55/90 134/56/90 137/32/90
f 134/56/90 135/30/90 137/32/90
f 141/40/91 139/50/91 140/33/91
f 140/33/91 144/49/91 143/39/91
f 143/39/91 142/51/91 141/40/91
f 164/19/92 163/1/92 134/23/92
f 104/33/93 103/42/93 145/41/93
f 105/35/94 147/18/94 145/41/94
f 106/43/95 148/21/95 147/18/95
f 107/34/96 149/17/96 148/21/96
f 107/34/124 108/45/124 150/44/124
f 108/45/125 104/33/125 146/16/125
f 116/33/99 115/42/99 151/41/99
f 117/35/100 153/18/100 151/41/100
f 118/43/101 154/21/101 153/18/101
f 119/36/102 155/17/102 154/21/102
f 119/36/126 120/46/126 156/44/126
f 120/46/104 116/33/104 152/16/104
f 128/37/105 127/47/105 157/41/105
f 129/35/106 159/18/106 157/41/106
f 130/48/107 160/21/107 159/18/107
f 131/38/127 161/17/127 160/21/127
f 131/38/109 132/49/109 162/44/109
f 132/49/110 128/37/110 158/16/110
f 140/33/128 139/50/128 163/41/128
f 141/40/112 165/18/112 163/41/112
f 142/51/113 166/21/113 165/18/113
f 143/39/114 167/17/114 166/21/114
f 143/39/115 144/49/115 168/44/115
f 144/49/116 140/33/116 164/16/116
