# Blender 5.0.1
# www.blender.org
mtllib model.mtl
o vesMesh
v -0.000918 -0.000565 1.011736
v -0.000918 0.715005 0.715338
v -0.000918 1.011403 -0.000232
v -0.000918 -0.000565 -1.012199
v 0.192713 0.334815 0.934705
v 0.356866 0.619136 0.715338
v 0.466550 0.809114 0.387032
v 0.505066 0.875825 -0.000231
v 0.466550 0.809114 -0.387495
v 0.356866 0.619137 -0.715801
v 0.192713 0.334815 -0.935168
v 0.334462 0.193067 0.934705
v 0.618783 0.357220 0.715338
v 0.808760 0.466904 0.387032
v 0.875472 0.505419 -0.000231
v 0.808760 0.466904 -0.387495
v 0.618783 0.357220 -0.715801
v 0.334462 0.193067 -0.935168
v 0.386345 -0.000565 0.934705
v 0.714651 -0.000565 0.715338
v 0.934018 -0.000565 0.387032
v 1.011050 -0.000565 -0.000232
v 0.934018 -0.000565 -0.387495
v 0.714651 -0.000565 -0.715801
v 0.386345 -0.000565 -0.935168
v 0.334462 -0.194196 0.934705
v 0.618783 -0.358349 0.715338
v 0.808760 -0.468033 0.387032
v 0.875472 -0.506548 -0.000231
v 0.808760 -0.468033 -0.387495
v 0.618783 -0.358349 -0.715801
v 0.334462 -0.194196 -0.935168
v 0.192713 -0.335944 0.934705
v 0.356866 -0.620266 0.715338
v 0.466550 -0.810243 0.387032
v 0.505066 -0.876954 -0.000232
v 0.466550 -0.810243 -0.387495
v 0.356866 -0.620266 -0.715801
v 0.192713 -0.335944 -0.935168
v -0.000918 -0.387828 0.934705
v -0.000918 -0.716134 0.715338
v -0.000918 -0.935501 0.387032
v -0.000918 -1.012532 -0.000232
v -0.000918 -0.935501 -0.387495
v -0.000918 -0.716134 -0.715801
v -0.000918 -0.387828 -0.935168
v -0.194550 -0.335944 0.934705
v -0.358703 -0.620266 0.715338
v -0.468386 -0.810243 0.387032
v -0.506902 -0.876954 -0.000232
v -0.468386 -0.810243 -0.387495
v -0.358703 -0.620266 -0.715801
v -0.194550 -0.335944 -0.935168
v -0.336298 -0.194196 0.934705
v -0.620619 -0.358349 0.715338
v -0.810597 -0.468033 0.387032
v -0.877308 -0.506548 -0.000232
v -0.810597 -0.468033 -0.387495
v -0.620619 -0.358349 -0.715801
v -0.336298 -0.194196 -0.935168
v -0.388182 -0.000565 0.934705
v -0.716487 -0.000565 0.715338
v -0.935854 -0.000565 0.387032
v -1.012886 -0.000565 -0.000231
v -0.935855 -0.000565 -0.387495
v -0.716488 -0.000565 -0.715801
v -0.388182 -0.000565 -0.935168
v -0.336298 0.193067 0.934705
v -0.620619 0.357220 0.715338
v -0.810597 0.466904 0.387032
v -0.877308 0.505419 -0.000231
v -0.810597 0.466904 -0.387495
v -0.620619 0.357220 -0.715801
v -0.336298 0.193067 -0.935168
v -0.194550 0.334815 0.934705
v -0.358703 0.619136 0.715338
v -0.468386 0.809114 0.387032
v -0.506902 0.875825 -0.000231
v -0.468386 0.809114 -0.387495
v -0.358703 0.619137 -0.715801
v -0.194550 0.334815 -0.935168
v -0.000918 0.386699 0.934705
v -0.000918 0.934372 0.387032
v -0.000918 0.934372 -0.387495
v -0.000918 0.715005 -0.715801
v -0.000918 0.386699 -0.935168
v 0.000000 0.988432 -0.660449
v 0.000000 0.231919 -1.165935
v 0.000000 0.000000 -1.188777
v 0.000000 -0.231919 -1.165935
v 0.000000 -1.188777 0.000000
v 0.045245 1.165935 -0.227463
v 0.128847 0.988432 -0.647759
v 0.163991 0.840592 -0.824440
v 0.214265 0.454925 -1.077183
v 0.227463 0.231919 -1.143531
v 0.231919 0.000000 -1.165935
v 0.227463 -0.231919 -1.143531
v 0.214265 -0.454925 -1.077183
v 0.088751 1.165935 -0.214265
v 0.252743 0.988432 -0.610175
v 0.321681 0.840592 -0.776606
v 0.420296 0.454925 -1.014684
v 0.446184 0.231919 -1.077183
v 0.454925 0.000000 -1.098286
v 0.446184 -0.231919 -1.077183
v 0.430939 -0.658421 -0.936098
v 0.128847 1.165935 -0.192833
v 0.366926 0.988432 -0.549143
v 0.467008 0.840592 -0.698927
v 0.610175 0.454925 -0.913192
v 0.647759 0.231919 -0.969439
v 0.660449 0.000000 -0.988431
v 0.647759 -0.231919 -0.969439
v 0.641723 -0.399426 -0.927969
v 0.163991 1.165935 -0.163991
v 0.467008 0.988432 -0.467008
v 0.594388 0.840592 -0.594388
v 0.776606 0.454925 -0.776606
v 0.824440 0.231919 -0.824440
v 0.840592 0.000000 -0.840592
v 0.824440 -0.231919 -0.824440
v 0.776606 -0.454925 -0.776606
v 0.192833 1.165935 -0.128847
v 0.549143 0.988432 -0.366926
v 0.698927 0.840592 -0.467008
v 0.913192 0.454925 -0.610175
v 0.969439 0.231919 -0.647758
v 0.988432 0.000000 -0.660449
v 0.969439 -0.231919 -0.647758
v 0.913192 -0.454925 -0.610175
v 0.821851 -0.660449 -0.549143
v 0.214265 1.165935 -0.088751
v 0.610175 0.988432 -0.252743
v 0.776606 0.840592 -0.321681
v 1.014684 0.454925 -0.420296
v 1.077183 0.231919 -0.446184
v 1.098286 0.000000 -0.454925
v 1.077183 -0.231919 -0.446184
v 1.014684 -0.454925 -0.420296
v 0.227463 1.165935 -0.045245
v 0.647758 0.988432 -0.128847
v 0.824440 0.840592 -0.163991
v 1.077183 0.454925 -0.214265
v 1.143531 0.231919 -0.227462
v 1.165934 0.000000 -0.231919
v 1.143531 -0.231919 -0.227462
v 1.077183 -0.454925 -0.214265
v 0.231919 1.165935 0.000000
v 0.660449 0.988432 0.000000
v 0.840592 0.840592 -0.000000
v 1.098286 0.454925 -0.000000
v 1.165934 0.231919 0.000000
v 1.188776 0.000000 0.000000
v 1.165934 -0.231919 0.000000
v 0.227462 1.165935 0.045245
v 0.647758 0.988432 0.128847
v 0.824440 0.840592 0.163991
v 1.077183 0.454925 0.214265
v 1.143531 0.231919 0.227463
v 1.165934 0.000000 0.231919
v 1.143531 -0.231919 0.121499
v 0.214265 1.165935 0.088751
v 0.610175 0.988432 0.252743
v 0.776606 0.840592 0.321681
v 1.014684 0.454925 0.420296
v 0.192833 1.165935 0.128847
v 0.549143 0.988432 0.366926
v 0.698927 0.840592 0.467008
v 0.821851 0.660449 0.549143
v 0.163991 1.165935 0.163991
v 0.467008 0.988432 0.467008
v 0.593262 0.835115 0.608248
v 0.128847 1.165935 0.192833
v 0.366926 0.988432 0.549143
v 0.465882 0.835115 0.712787
v 0.088751 1.165935 0.214265
v 0.252743 0.988432 0.610175
v 0.321681 0.840592 0.776606
v 0.045245 1.165935 0.227462
v 0.128847 0.988432 0.647758
v 0.163991 0.840592 0.824440
v -0.000000 1.165935 0.231919
v -0.000000 0.988432 0.660449
v -0.000000 0.840592 0.840592
v 0.317921 0.686569 0.866187
v -0.045245 1.165935 0.227462
v -0.128847 0.988432 0.647758
v -0.163991 0.840592 0.824440
v -0.088751 1.165935 0.214265
v -0.252743 0.988432 0.610175
v -0.321681 0.840592 0.776606
v -0.128847 1.165935 0.192833
v -0.366926 0.988432 0.549143
v -0.468134 0.835115 0.712787
v -0.163991 1.165935 0.163991
v -0.467008 0.988432 0.467007
v -0.595514 0.835115 0.608248
v -0.192833 1.165935 0.128847
v -0.549143 0.988432 0.366925
v -0.698927 0.840592 0.467008
v -0.821851 0.660449 0.549143
v -0.214265 1.165935 0.088751
v -0.610175 0.988432 0.252742
v -0.776606 0.840592 0.321681
v -1.014684 0.454925 0.420296
v -0.227462 1.165935 0.045245
v -0.811917 0.988432 0.128847
v -0.824440 0.840592 0.163991
v -1.077183 0.454925 0.214265
v -1.143531 0.231919 0.227462
v -1.165934 0.000000 0.231918
v -1.143531 -0.231919 0.121499
v -0.231919 1.165935 -0.000000
v -1.074537 0.988432 -0.000000
v -0.840592 0.840592 -0.000000
v -1.098286 0.454925 -0.000000
v -1.165934 0.231919 -0.000000
v -1.188775 0.000000 -0.000001
v -1.165934 -0.231919 -0.000000
v -0.227462 1.165935 -0.045245
v -0.923578 0.988432 -0.128847
v -0.824440 0.840592 -0.163991
v -1.077183 0.454925 -0.214265
v -1.143531 0.231919 -0.227463
v -1.165933 0.000000 -0.231919
v -1.143531 -0.231919 -0.227463
v -0.214265 1.165935 -0.088751
v -0.695794 0.988432 -0.252743
v -0.776605 0.840592 -0.321681
v -1.014684 0.454925 -0.420296
v -1.077182 0.231919 -0.446184
v -1.098285 0.000000 -0.454925
v -1.077182 -0.231919 -0.446184
v -1.014684 -0.454925 -0.420296
v -0.192833 1.165935 -0.128847
v -0.549143 0.988432 -0.366926
v -0.698926 0.840592 -0.467008
v -0.913191 0.454925 -0.610175
v -0.969438 0.231919 -0.647758
v -0.988430 0.000000 -0.660449
v -0.969438 -0.231919 -0.647758
v -0.913191 -0.454925 -0.610175
v -0.821850 -0.660449 -0.549143
v -0.163991 1.165935 -0.163991
v -0.467007 0.988432 -0.467008
v -0.594388 0.840592 -0.594388
v -0.776605 0.454925 -0.776605
v -0.824440 0.231919 -0.824440
v -0.840591 0.000000 -0.840591
v -0.824440 -0.231919 -0.824440
v -0.776605 -0.454925 -0.776605
v -0.128847 1.165935 -0.192833
v -0.366925 0.988432 -0.549143
v -0.467008 0.840592 -0.698927
v -0.610175 0.454925 -0.913191
v -0.647758 0.231919 -0.969439
v -0.660448 0.000000 -0.988431
v -0.647758 -0.231919 -0.969439
v -0.618034 -0.313496 -0.977188
v -0.088751 1.165935 -0.214265
v -0.252742 0.988432 -0.610175
v -0.321680 0.840592 -0.776606
v -0.420296 0.454925 -1.014684
v -0.446183 0.231919 -1.077183
v -0.454924 0.000000 -1.098285
v -0.446183 -0.231919 -1.077183
v -0.419095 -0.575565 -0.970438
v -0.045245 1.165935 -0.227462
v -0.128847 0.988432 -0.647758
v -0.163991 0.840592 -0.824440
v -0.214265 0.454925 -1.077183
v -0.227462 0.231919 -1.143531
v -0.231918 0.000000 -1.165933
v -0.227462 -0.231919 -1.143531
v -0.214265 -0.454925 -1.077183
v 0.000000 1.165935 -0.231919
v 0.000000 0.840592 -0.840592
v 0.000000 0.454925 -1.098286
v -0.008000 -0.727133 -0.997459
v 0.160231 0.686569 0.914021
v -0.003760 0.686569 0.930173
v -0.167751 0.686569 0.914021
v -0.325441 0.686569 0.866187
v 0.071783 0.408348 1.007700
v -0.003218 0.340380 1.038745
v -0.079320 0.408348 1.007700
v 0.827811 0.167888 0.164662
v 0.844028 0.000000 0.167888
v 0.790640 -0.160349 0.084005
v 0.734537 0.329324 0.304255
v 0.594944 0.478104 0.397529
v 0.429467 0.604546 0.440315
v 0.337255 0.604546 0.515992
v 0.230145 0.497012 0.627039
v -0.338886 0.604546 0.515991
v -0.431097 0.604546 0.440315
v -0.594944 0.478104 0.397528
v -0.734537 0.329324 0.304255
v -0.827810 0.167888 0.164661
v -0.844028 0.000000 0.167887
v -0.790640 -0.160349 0.084005
v -0.235589 0.497012 0.627039
v 0.051964 0.295606 0.729481
v -0.002330 0.246403 0.751955
v -0.057420 0.295606 0.729481
v 0.167829 -0.356333 -0.843735
v 0.337545 -0.515727 -0.733225
v 0.502648 -0.312862 -0.726859
v 0.608299 -0.356333 -0.608299
v 0.643738 -0.517316 -0.430132
v 0.794781 -0.356333 -0.329209
v 0.843735 -0.356333 -0.167829
v 0.913252 -0.181657 0.000000
v -0.913251 -0.181657 -0.000000
v -0.895703 -0.181657 -0.178167
v -0.794780 -0.356333 -0.329209
v -0.643738 -0.517316 -0.430132
v -0.608298 -0.356333 -0.608298
v -0.484093 -0.245555 -0.765410
v -0.328268 -0.450827 -0.760123
v -0.167829 -0.356333 -0.843734
v -0.006266 -0.569548 -0.781288
v -0.595514 0.835115 0.608248
v -0.821851 0.660449 0.549143
v 1.165934 0.000000 0.231919
v 1.143531 0.231919 0.227463
v 0.593262 0.835115 0.608248
v 0.465882 0.835115 0.712787
v -0.468134 0.835115 0.712787
v 0.821851 0.660449 0.549143
v 1.143531 -0.231919 0.121499
v 1.014684 0.454925 0.420296
v -1.143531 0.231919 0.227462
v -1.165934 0.000000 0.231918
v -0.079320 0.408348 1.007700
v -0.325441 0.686569 0.866187
v -1.143531 -0.231919 0.121499
v -1.014684 0.454925 0.420296
v 0.317921 0.686569 0.866187
v 0.071783 0.408348 1.007700
v -0.003218 0.340380 1.038745
v 0.821851 -0.660449 -0.549143
v 1.014684 -0.454925 -0.420296
v -0.776605 -0.454925 -0.776605
v -0.618034 -0.313496 -0.977188
v -1.165934 -0.231919 -0.000000
v -1.143531 -0.231919 -0.227463
v 0.214265 -0.454925 -1.077183
v 0.430939 -0.658421 -0.936098
v 0.641723 -0.399426 -0.927969
v 0.776606 -0.454925 -0.776606
v 1.165934 -0.231919 0.000000
v -0.419095 -0.575565 -0.970438
v -0.214265 -0.454925 -1.077183
v -0.821850 -0.660449 -0.549143
v 1.077183 -0.454925 -0.214265
v -0.008000 -0.727133 -0.997459
v -1.014684 -0.454925 -0.420296
vn -0.0000 1.0000 -0.0000
vn -0.0000 0.9283 0.3718
vn 0.4642 0.8040 0.3718
vn 0.5000 0.8660 -0.0000
vn -0.0000 0.7226 0.6913
vn -0.0000 0.4097 0.9122
vn 0.2049 0.3548 0.9122
vn 0.3613 0.6258 0.6913
vn -0.0000 0.4097 -0.9122
vn -0.0000 0.7226 -0.6913
vn 0.3613 0.6258 -0.6913
vn 0.2049 0.3548 -0.9122
vn -0.0000 0.9283 -0.3718
vn 0.4642 0.8040 -0.3718
vn -0.0000 -0.0000 1.0000
vn -0.0000 -0.0000 -1.0000
vn 0.6258 0.3613 -0.6913
vn 0.3548 0.2049 -0.9122
vn 0.8660 0.5000 -0.0000
vn 0.8040 0.4642 -0.3718
vn 0.6258 0.3613 0.6913
vn 0.8040 0.4642 0.3718
vn 0.3548 0.2049 0.9122
vn 0.4097 -0.0000 0.9122
vn 0.4097 -0.0000 -0.9122
vn 0.9283 -0.0000 -0.3718
vn 0.7226 -0.0000 -0.6913
vn 0.9283 -0.0000 0.3718
vn 1.0000 -0.0000 -0.0000
vn 0.7226 -0.0000 0.6913
vn 0.8040 -0.4642 -0.3718
vn 0.6258 -0.3613 -0.6913
vn 0.8040 -0.4642 0.3718
vn 0.8660 -0.5000 -0.0000
vn 0.3548 -0.2049 0.9122
vn 0.6258 -0.3613 0.6913
vn 0.3548 -0.2049 -0.9122
vn 0.3613 -0.6258 -0.6913
vn 0.2049 -0.3548 -0.9122
vn 0.5000 -0.8660 -0.0000
vn 0.4642 -0.8040 -0.3718
vn 0.3613 -0.6258 0.6913
vn 0.4642 -0.8040 0.3718
vn 0.2049 -0.3548 0.9122
vn -0.0000 -1.0000 -0.0000
vn -0.0000 -0.9283 -0.3718
vn -0.0000 -0.7226 0.6913
vn -0.0000 -0.9283 0.3718
vn -0.0000 -0.4097 0.9122
vn -0.0000 -0.4097 -0.9122
vn -0.0000 -0.7226 -0.6913
vn -0.2049 -0.3548 -0.9122
vn -0.4642 -0.8040 -0.3718
vn -0.3613 -0.6258 -0.6913
vn -0.4642 -0.8040 0.3718
vn -0.5000 -0.8660 -0.0000
vn -0.2049 -0.3548 0.9122
vn -0.3613 -0.6258 0.6913
vn -0.8040 -0.4642 0.3718
vn -0.8660 -0.5000 -0.0000
vn -0.3548 -0.2049 0.9122
vn -0.6258 -0.3613 0.6913
vn -0.6258 -0.3613 -0.6913
vn -0.3548 -0.2049 -0.9122
vn -0.8040 -0.4642 -0.3718
vn -0.7226 -0.0000 -0.6913
vn -0.4097 -0.0000 -0.9122
vn -1.0000 -0.0000 -0.0000
vn -0.9283 -0.0000 -0.3718
vn -0.7226 -0.0000 0.6913
vn -0.9283 -0.0000 0.3718
vn -0.4097 -0.0000 0.9122
vn -0.6258 0.3613 0.6913
vn -0.8040 0.4642 0.3718
vn -0.3548 0.2049 0.9122
vn -0.3548 0.2049 -0.9122
vn -0.8040 0.4642 -0.3718
vn -0.6258 0.3613 -0.6913
vn -0.8660 0.5000 -0.0000
vn -0.2049 0.3548 -0.9122
vn -0.4642 0.8040 -0.3718
vn -0.3613 0.6258 -0.6913
vn -0.4642 0.8040 0.3718
vn -0.5000 0.8660 -0.0000
vn -0.2049 0.3548 0.9122
vn -0.3613 0.6258 0.6913
vn 0.1767 0.4241 -0.8882
vn 0.1453 0.6670 -0.7307
vn 0.2851 0.6670 -0.6883
vn 0.3466 0.4241 -0.8367
vn -0.0000 0.1939 -0.9810
vn -0.0000 0.4241 -0.9056
vn 0.1914 0.1939 -0.9622
vn 0.1951 -0.0000 -0.9808
vn -0.0001 -0.2049 -0.9788
vn 0.1886 -0.2034 -0.9608
vn -0.4695 0.8703 0.1484
vn -0.3979 0.8982 0.1869
vn -0.6895 0.6301 0.3571
vn -0.0002 0.9124 -0.4093
vn 0.1737 0.3392 -0.9246
vn -0.8191 0.3967 0.4143
vn -0.8882 0.4241 0.1767
vn -0.0000 0.6670 -0.7450
vn -0.0000 0.8537 -0.5208
vn 0.1016 0.8537 -0.5108
vn 0.1993 0.8537 -0.4811
vn 0.4139 0.6670 -0.6195
vn 0.5031 0.4241 -0.7530
vn 0.3754 0.1939 -0.9063
vn 0.3827 -0.0000 -0.9239
vn 0.3684 -0.1953 -0.9089
vn 0.0791 0.9784 -0.1910
vn 0.1149 0.9784 -0.1719
vn 0.2893 0.8537 -0.4330
vn 0.1746 0.8808 -0.4401
vn 0.5450 0.1939 -0.8157
vn 0.5556 -0.0000 -0.8315
vn 0.5426 -0.1839 -0.8196
vn 0.1462 0.9784 -0.1462
vn 0.3682 0.8537 -0.3682
vn 0.4942 0.4184 -0.7621
vn 0.5268 0.6670 -0.5268
vn 0.6404 0.4241 -0.6404
vn 0.6195 0.6670 -0.4139
vn 0.7530 0.4241 -0.5031
vn 0.6937 0.1939 -0.6937
vn 0.7071 -0.0000 -0.7071
vn 0.7014 -0.1849 -0.6884
vn 0.1719 0.9784 -0.1149
vn 0.4330 0.8537 -0.2893
vn 0.6445 0.4839 -0.5920
vn 0.8157 0.1939 -0.5450
vn 0.8315 -0.0000 -0.5556
vn 0.8157 -0.1939 -0.5450
vn 0.1910 0.9784 -0.0791
vn 0.4811 0.8537 -0.1993
vn 0.7689 -0.3805 -0.5138
vn 0.6883 0.6670 -0.2851
vn 0.8367 0.4241 -0.3466
vn 0.7307 0.6670 -0.1453
vn 0.8882 0.4241 -0.1767
vn 0.9063 0.1939 -0.3754
vn 0.9239 -0.0000 -0.3827
vn 0.9063 -0.1939 -0.3754
vn 0.2028 0.9784 -0.0403
vn 0.5108 0.8537 -0.1016
vn 0.8263 0.4321 -0.3612
vn 0.9808 -0.0000 -0.1951
vn 0.9622 -0.1939 -0.1914
vn 0.2068 0.9784 -0.0000
vn 0.5208 0.8537 -0.0000
vn 0.6628 0.7326 -0.1550
vn 0.7450 0.6670 -0.0000
vn 0.9056 0.4241 -0.0000
vn 0.9622 0.1939 -0.1914
vn 0.7307 0.6670 0.1453
vn 0.8724 0.4684 0.1401
vn 0.9810 0.1939 -0.0000
vn 0.9999 -0.0072 0.0072
vn 0.8366 0.5478 -0.0064
vn 0.2028 0.9784 0.0403
vn 0.5108 0.8537 0.1016
vn 0.1910 0.9784 0.0791
vn 0.4811 0.8537 0.1993
vn 0.6849 0.6775 0.2680
vn 0.3673 0.9226 0.1181
vn 0.6287 0.7752 0.0619
vn 0.6446 0.7612 0.0715
vn 0.5590 0.8261 0.0716
vn 0.3974 0.8982 0.1878
vn 0.1719 0.9784 0.1149
vn 0.4331 0.8539 0.2885
vn 0.1462 0.9784 0.1462
vn 0.3678 0.8551 0.3654
vn 0.5918 0.7055 0.3899
vn 0.1149 0.9784 0.1719
vn 0.2855 0.8559 0.4311
vn 0.2853 0.9202 0.2681
vn 0.0791 0.9784 0.1910
vn 0.1960 0.8545 0.4811
vn 0.2042 0.9183 0.3391
vn 0.0403 0.9784 0.2028
vn 0.1016 0.8537 0.5108
vn 0.2861 0.6326 0.7197
vn 0.1538 0.6377 0.7548
vn -0.0000 0.9784 0.2068
vn -0.0000 0.8537 0.5208
vn -0.0403 0.9784 0.2028
vn -0.1016 0.8537 0.5108
vn 0.0006 0.6427 0.7661
vn -0.0791 0.9784 0.1910
vn -0.1953 0.8547 0.4810
vn -0.1521 0.6407 0.7526
vn -0.1149 0.9784 0.1719
vn -0.2842 0.8567 0.4306
vn -0.2817 0.6386 0.7161
vn -0.1462 0.9784 0.1462
vn -0.3674 0.8560 0.3638
vn -0.2026 0.9188 0.3386
vn -0.1719 0.9784 0.1149
vn -0.4333 0.8542 0.2875
vn -0.2859 0.9207 0.2658
vn -0.1595 0.9778 0.1360
vn -0.4260 0.8420 0.3310
vn -0.5930 0.7060 0.3872
vn -0.1251 0.9767 0.1744
vn -0.5340 0.6257 0.5686
vn -0.9960 -0.0023 0.0890
vn -0.9056 0.4241 -0.0000
vn -0.1147 0.9927 0.0366
vn -0.9717 0.2074 0.1128
vn -0.1147 0.9841 -0.1354
vn -0.7178 0.4158 -0.5585
vn -0.8763 0.2331 -0.4216
vn -0.8882 0.4241 -0.1767
vn -0.6810 0.7264 0.0923
vn -0.9810 0.1939 -0.0000
vn -0.6446 0.7612 0.0715
vn -0.9999 -0.0072 0.0072
vn -0.5590 0.8261 0.0716
vn -0.7466 0.6652 0.0110
vn -0.9622 0.1939 -0.1914
vn -0.9808 -0.0000 -0.1951
vn -0.8130 0.5543 -0.1782
vn -0.1279 0.9790 -0.1589
vn -0.4471 0.7654 -0.4629
vn -0.7153 0.5333 -0.4516
vn -0.8367 0.4241 -0.3466
vn -0.6135 0.6461 -0.4540
vn -0.7530 0.4241 -0.5031
vn -0.9063 0.1939 -0.3754
vn -0.9239 -0.0000 -0.3827
vn -0.9063 -0.1939 -0.3754
vn -0.1498 0.9785 -0.1416
vn -0.3944 0.8499 -0.3495
vn -0.8157 0.1939 -0.5450
vn -0.8315 -0.0000 -0.5556
vn -0.8157 -0.1939 -0.5450
vn -0.1462 0.9784 -0.1462
vn -0.3682 0.8537 -0.3682
vn -0.7481 0.5612 -0.3541
vn -0.7689 -0.3805 -0.5138
vn -0.5268 0.6670 -0.5268
vn -0.6404 0.4241 -0.6404
vn -0.4139 0.6670 -0.6195
vn -0.5031 0.4241 -0.7530
vn -0.6937 0.1939 -0.6937
vn -0.7071 -0.0000 -0.7071
vn -0.7005 -0.1859 -0.6890
vn -0.1149 0.9784 -0.1719
vn -0.2893 0.8537 -0.4330
vn -0.6321 0.5207 -0.5738
vn -0.5450 0.1939 -0.8157
vn -0.5556 -0.0000 -0.8315
vn -0.5521 -0.1792 -0.8143
vn -0.0791 0.9784 -0.1910
vn -0.1993 0.8537 -0.4811
vn -0.4657 0.4062 -0.7862
vn -0.2851 0.6670 -0.6883
vn -0.3466 0.4241 -0.8367
vn -0.1453 0.6670 -0.7307
vn -0.1767 0.4241 -0.8882
vn -0.3754 0.1939 -0.9063
vn -0.3827 -0.0000 -0.9239
vn 0.0403 0.9784 -0.2028
vn -0.3614 -0.1885 -0.9132
vn -0.0403 0.9784 -0.2028
vn -0.1016 0.8537 -0.5108
vn -0.1752 0.8577 -0.4834
vn -0.4045 0.8737 -0.2703
vn -0.0000 0.9784 -0.2068
vn -0.1951 -0.0000 -0.9808
vn -0.1879 -0.2020 -0.9612
vn -0.1653 0.3609 -0.9179
vn 0.4045 0.8737 -0.2703
vn -0.1914 0.1939 -0.9622
vn -0.1698 0.8441 0.5085
vn -0.1918 0.3760 0.9065
vn -0.0005 0.3988 0.9170
vn 0.1911 0.3730 0.9079
vn 0.1714 0.8408 0.5136
vn -0.0780 0.8100 0.5812
vn -0.0000 0.9218 0.3876
vn 0.0783 0.8095 0.5818
vn 0.9161 0.2890 0.2779
vn -0.1752 0.5431 0.8212
vn 0.1208 0.5431 0.8309
vn 0.1204 -0.5418 0.8318
vn -0.1429 -0.6473 0.7488
vn -0.1426 0.6824 0.7169
vn -0.0923 0.6536 0.7512
vn -0.1120 -0.3573 0.9273
vn -0.1901 -0.2250 0.9556
vn 0.1759 0.5416 0.8220
vn 0.7085 0.5510 0.4409
vn 0.6456 -0.6711 0.3644
vn 0.1437 -0.6473 0.7486
vn -0.7131 0.5516 0.4328
vn -0.6509 -0.6698 0.3573
vn -0.1203 0.5441 0.8303
vn -0.1200 -0.5421 0.8317
vn -0.3494 0.5349 0.7693
vn -0.2140 -0.6964 0.6850
vn -0.0503 0.5173 0.8543
vn -0.0460 -0.6206 0.7827
vn 0.0923 0.6536 0.7512
vn 0.1426 0.6824 0.7169
vn 0.1901 -0.2250 0.9556
vn 0.1120 -0.3573 0.9273
vn -0.8670 0.4390 0.2357
vn -0.8275 0.5310 0.1826
vn -0.7856 -0.5934 0.1752
vn -0.7408 -0.6408 0.2014
vn 0.3494 0.5349 0.7693
vn 0.2140 -0.6964 0.6850
vn 0.0503 0.5173 0.8543
vn 0.0460 -0.6206 0.7827
vn 0.8265 0.5285 0.1941
vn 0.8653 0.4408 0.2386
vn 0.7437 -0.6364 0.2049
vn 0.7824 -0.5948 0.1843
vn 0.0036 0.8604 0.5097
vn 0.0052 -0.9503 0.3114
vn -0.5024 0.7968 0.3357
vn -0.2575 0.5568 0.7897
vn -0.1602 -0.8385 0.5208
vn -0.4619 -0.8315 0.3087
vn 0.8208 0.4818 -0.3069
vn -0.0908 0.8825 0.4616
vn -0.0482 -0.9418 0.3326
vn 0.6637 -0.7046 -0.2510
vn 0.8598 0.5095 -0.0334
vn 0.1943 0.5499 0.8123
vn 0.0971 -0.8985 0.4281
vn 0.1951 -0.9807 -0.0141
vn 0.0502 0.8529 0.5197
vn -0.0850 0.8298 0.5515
vn -0.0988 -0.8348 0.5417
vn 0.0304 -0.9186 0.3940
vn 0.1619 0.7113 0.6840
vn -0.8541 0.4727 -0.2170
vn -0.6175 -0.7685 -0.1673
vn 0.0797 -0.8944 0.4401
vn -0.3310 0.5987 0.7294
vn -0.1860 -0.9348 0.3025
vn -0.0704 0.7676 0.6370
vn -0.2317 0.7742 0.5890
vn -0.1388 -0.9021 0.4086
vn -0.0524 -0.8488 0.5261
vn 0.5024 0.7968 0.3357
vn 0.4619 -0.8315 0.3087
vn -0.4432 0.5017 0.7429
vn -0.2658 -0.8465 0.4613
vn -0.0134 0.8861 0.4633
vn -0.0166 -0.8079 0.5891
vt 0.370966 0.844181
vt 0.361702 0.732758
vt 0.251330 0.707769
vt 0.202295 0.812281
vt 0.358177 0.650405
vt 0.355483 0.580500
vt 0.322731 0.572195
vt 0.290578 0.632704
vt 0.117427 0.676483
vt 0.117230 0.695899
vt 0.098654 0.690755
vt 0.108131 0.674229
vt 0.118223 0.719322
vt 0.119976 0.751111
vt 0.071070 0.741209
vt 0.087545 0.711187
vt 0.353339 0.514752
vt 0.116965 0.658026
vt 0.084199 0.677811
vt 0.101110 0.667699
vt 0.036594 0.705265
vt 0.064434 0.689832
vt 0.237353 0.586474
vt 0.168961 0.630861
vt 0.297525 0.549652
vt 0.067809 0.696651
vt 0.287020 0.516903
vt 0.098605 0.658476
vt 0.055265 0.659303
vt 0.079362 0.658910
vt 0.131776 0.524300
vt 0.021891 0.529240
vt 0.217053 0.518435
vt 0.025395 0.659831
vt 0.063218 0.628227
vt 0.083497 0.639945
vt 0.158574 0.412413
vt 0.054224 0.361935
vt 0.295755 0.483807
vt 0.234536 0.450005
vt 0.100635 0.649165
vt 0.035158 0.614444
vt 0.097102 0.625300
vt 0.107370 0.642371
vt 0.066798 0.578310
vt 0.084971 0.605291
vt 0.283526 0.399128
vt 0.237324 0.330466
vt 0.318776 0.458798
vt 0.171656 0.225036
vt 0.114504 0.562153
vt 0.115468 0.596729
vt 0.350507 0.379547
vt 0.344999 0.296016
vt 0.351489 0.448677
vt 0.116466 0.639572
vt 0.116523 0.620067
vt 0.346518 0.179775
vt 0.125745 0.641791
vt 0.147359 0.603609
vt 0.135378 0.625161
vt 0.455115 0.322058
vt 0.511579 0.226455
vt 0.384397 0.457436
vt 0.418132 0.396787
vt 0.162912 0.575688
vt 0.538486 0.398071
vt 0.627672 0.342248
vt 0.409227 0.480334
vt 0.468768 0.445021
vt 0.149644 0.638489
vt 0.132708 0.648325
vt 0.199795 0.609711
vt 0.169983 0.627070
vt 0.155463 0.657651
vt 0.135509 0.657514
vt 0.211121 0.658575
vt 0.178765 0.657393
vt 0.487992 0.511369
vt 0.570233 0.505804
vt 0.419319 0.512919
vt 0.681422 0.497516
vt 0.471280 0.578007
vt 0.544291 0.613790
vt 0.410846 0.545873
vt 0.133257 0.666883
vt 0.170799 0.687879
vt 0.150115 0.676961
vt 0.649551 0.668121
vt 0.197234 0.704242
vt 0.126619 0.673811
vt 0.148948 0.710919
vt 0.136164 0.690907
vt 0.470242 0.699501
vt 0.528648 0.790413
vt 0.387473 0.569921
vt 0.423721 0.627493
vt 0.164283 0.736388
vt 0.818538 0.859335
vt 0.836157 0.841785
vt 0.842643 0.847168
vt 0.828093 0.867193
vt 0.799017 0.858371
vt 0.810439 0.849894
vt 0.808703 0.869348
vt 0.786332 0.867815
vt 0.797437 0.880729
vt 0.771373 0.878906
vt 0.784119 0.894141
vt 0.829639 0.731013
vt 0.852333 0.736345
vt 0.849166 0.757227
vt 0.741223 0.900034
vt 0.765762 0.912652
vt 0.840070 0.762902
vt 0.818279 0.741851
vt 0.830757 0.835336
vt 0.840225 0.828542
vt 0.844403 0.833472
vt 0.849399 0.837590
vt 0.849941 0.851441
vt 0.838627 0.873679
vt 0.819868 0.878707
vt 0.810471 0.891801
vt 0.799468 0.906854
vt 0.862476 0.818315
vt 0.864523 0.819356
vt 0.855045 0.840813
vt 0.782919 0.934249
vt 0.832274 0.886371
vt 0.825212 0.900528
vt 0.816853 0.917845
vt 0.866726 0.820123
vt 0.861204 0.843049
vt 0.810639 0.936092
vt 0.857894 0.854498
vt 0.850079 0.878417
vt 0.866347 0.856261
vt 0.862181 0.881428
vt 0.845763 0.891790
vt 0.840908 0.906694
vt 0.835768 0.924350
vt 0.869035 0.820449
vt 0.867745 0.844219
vt 0.832584 0.945774
vt 0.859750 0.895247
vt 0.856918 0.910379
vt 0.854213 0.927276
vt 0.871384 0.820315
vt 0.874544 0.844254
vt 0.852234 0.945436
vt 0.875156 0.856661
vt 0.874764 0.882778
vt 0.884170 0.855612
vt 0.887853 0.882529
vt 0.874008 0.896968
vt 0.872769 0.912341
vt 0.871370 0.929064
vt 0.873679 0.819721
vt 0.881406 0.843089
vt 0.871018 0.949016
vt 0.888764 0.912851
vt 0.888642 0.929222
vt 0.875887 0.818669
vt 0.888222 0.840628
vt 0.888184 0.945578
vt 0.893402 0.853082
vt 0.901410 0.880546
vt 0.888677 0.897336
vt 0.902452 0.848684
vt 0.915949 0.876358
vt 0.904071 0.896389
vt 0.904555 0.912396
vt 0.906649 0.929805
vt 0.877874 0.817181
vt 0.894723 0.836792
vt 0.879556 0.815304
vt 0.900624 0.831516
vt 0.911361 0.842395
vt 0.929858 0.869352
vt 0.922020 0.894047
vt 0.920313 0.911975
vt 0.914759 0.926636
vt 0.932171 0.846000
vt 0.880851 0.813112
vt 0.905468 0.824789
vt 0.881565 0.810593
vt 0.909017 0.816735
vt 0.919554 0.833784
vt 0.881770 0.807945
vt 0.910173 0.808034
vt 0.928541 0.821550
vt 0.881451 0.805313
vt 0.908778 0.799389
vt 0.929052 0.806343
vt 0.880627 0.802806
vt 0.905778 0.791495
vt 0.924227 0.794728
vt 0.919258 0.784646
vt 0.879297 0.800536
vt 0.901494 0.784425
vt 0.877552 0.798572
vt 0.896049 0.778226
vt 0.913411 0.775793
vt 0.875445 0.796981
vt 0.889409 0.773080
vt 0.906680 0.767590
vt 0.873083 0.795840
vt 0.881574 0.769165
vt 0.898511 0.759779
vt 0.870535 0.795395
vt 0.872903 0.767679
vt 0.888812 0.751522
vt 0.867974 0.795459
vt 0.864184 0.768700
vt 0.874199 0.747441
vt 0.865535 0.796005
vt 0.856289 0.771568
vt 0.859909 0.752245
vt 0.863278 0.797004
vt 0.843324 0.771255
vt 0.832361 0.769089
vt 0.809679 0.753508
vt 0.861449 0.798269
vt 0.836997 0.774736
vt 0.859874 0.799891
vt 0.834851 0.777328
vt 0.827719 0.777312
vt 0.803390 0.765367
vt 0.803728 0.729999
vt 0.796086 0.746021
vt 0.787366 0.726269
vt 0.781303 0.739922
vt 0.773003 0.726682
vt 0.768340 0.732466
vt 0.789746 0.759864
vt 0.774676 0.754160
vt 0.756851 0.747234
vt 0.858604 0.801844
vt 0.833904 0.787292
vt 0.824235 0.785803
vt 0.799039 0.777472
vt 0.821967 0.794444
vt 0.796383 0.790036
vt 0.785122 0.773871
vt 0.769933 0.770163
vt 0.753061 0.766322
vt 0.857726 0.804042
vt 0.834185 0.797108
vt 0.782239 0.788170
vt 0.766810 0.786122
vt 0.750169 0.783333
vt 0.857131 0.806355
vt 0.833168 0.803802
vt 0.735395 0.764129
vt 0.733837 0.779845
vt 0.820996 0.803192
vt 0.795433 0.802671
vt 0.821427 0.811854
vt 0.796325 0.815295
vt 0.781103 0.802721
vt 0.765027 0.802483
vt 0.746729 0.800879
vt 0.857001 0.808707
vt 0.833323 0.810455
vt 0.727727 0.796214
vt 0.782068 0.817528
vt 0.765652 0.819896
vt 0.745000 0.822241
vt 0.857323 0.811001
vt 0.834601 0.816898
vt 0.735763 0.826424
vt 0.823241 0.820230
vt 0.799174 0.827603
vt 0.826384 0.828121
vt 0.803933 0.839224
vt 0.785521 0.832130
vt 0.770042 0.837443
vt 0.860682 0.816901
vt 0.751638 0.844276
vt 0.858083 0.813175
vt 0.836940 0.822967
vt 0.727486 0.854519
vt 0.721287 0.776528
vt 0.859200 0.815166
vt 0.777049 0.853383
vt 0.760284 0.862424
vt 0.738684 0.874480
vt 0.851239 0.959757
vt 0.791274 0.845822
vt 0.908893 0.752191
vt 0.915900 0.760858
vt 0.922135 0.769071
vt 0.928137 0.777447
vt 0.934380 0.786732
vt 0.932685 0.755915
vt 0.936768 0.758251
vt 0.937777 0.762810
vt 0.862356 0.705285
vt 0.886538 0.713432
vt 0.922020 0.894047
vt 0.957733 0.903449
vt 0.950250 0.924369
vt 0.928541 0.821550
vt 0.964919 0.806715
vt 0.964932 0.820217
vt 0.888812 0.751522
vt 0.899251 0.717466
vt 0.932171 0.846000
vt 0.965047 0.846277
vt 0.914759 0.926636
vt 0.941029 0.947760
vt 0.929858 0.869352
vt 0.965942 0.875175
vt 0.784650 0.694394
vt 0.806541 0.693817
vt 0.921272 0.723200
vt 0.948924 0.740748
vt 0.773003 0.726682
vt 0.759709 0.696455
vt 0.829639 0.731013
vt 0.835670 0.695374
vt 0.934380 0.786732
vt 0.937777 0.762810
vt 0.957117 0.751803
vt 0.965942 0.783482
vt 0.936768 0.758251
vt 0.953510 0.745947
vt 0.851239 0.959757
vt 0.880962 0.978127
vt 0.849936 0.981964
vt 0.727727 0.796214
vt 0.735763 0.826424
vt 0.703745 0.828687
vt 0.699381 0.799969
vt 0.768339 0.732466
vt 0.756851 0.747234
vt 0.739713 0.726946
vt 0.754696 0.713441
vt 0.782919 0.934249
vt 0.770421 0.957173
vt 0.746266 0.936531
vt 0.810639 0.936092
vt 0.832584 0.945774
vt 0.820280 0.974208
vt 0.800884 0.966206
vt 0.923117 0.948016
vt 0.709629 0.882226
vt 0.702186 0.858691
vt 0.721287 0.776528
vt 0.701497 0.770748
vt 0.888184 0.945578
vt 0.901376 0.967920
vt 0.741223 0.900034
vt 0.719589 0.914448
vt 0.715454 0.745060
s 1
usemtl vesMat
f 3/1/1 83/2/2 7/3/3 8/4/4
f 2/5/5 82/6/6 5/7/7 6/8/8
f 86/9/9 85/10/10 10/11/11 11/12/12
f 84/13/13 3/14/1 8/15/4 9/16/14
f 83/2/2 2/5/5 6/8/8 7/3/3
f 82/6/6 1/17/15 5/7/7
f 4/18/16 86/9/9 11/12/12
f 85/10/10 84/13/13 9/16/14 10/11/11
f 11/12/12 10/11/11 17/19/17 18/20/18
f 9/16/14 8/15/4 15/21/19 16/22/20
f 7/3/3 6/8/8 13/23/21 14/24/22
f 5/7/7 1/17/15 12/25/23
f 4/18/16 11/12/12 18/20/18
f 10/11/11 9/16/14 16/22/20 17/19/17
f 8/4/4 7/3/3 14/24/22 15/26/19
f 6/8/8 5/7/7 12/25/23 13/23/21
f 12/25/23 1/17/15 19/27/24
f 4/18/16 18/20/18 25/28/25
f 17/19/17 16/22/20 23/29/26 24/30/27
f 15/26/19 14/24/22 21/31/28 22/32/29
f 13/23/21 12/25/23 19/27/24 20/33/30
f 18/20/18 17/19/17 24/30/27 25/28/25
f 16/22/20 15/21/19 22/34/29 23/29/26
f 14/24/22 13/23/21 20/33/30 21/31/28
f 24/30/27 23/29/26 30/35/31 31/36/32
f 22/32/29 21/31/28 28/37/33 29/38/34
f 20/33/30 19/27/24 26/39/35 27/40/36
f 25/28/25 24/30/27 31/36/32 32/41/37
f 23/29/26 22/34/29 29/42/34 30/35/31
f 21/31/28 20/33/30 27/40/36 28/37/33
f 19/27/24 1/17/15 26/39/35
f 4/18/16 25/28/25 32/41/37
f 32/41/37 31/36/32 38/43/38 39/44/39
f 30/35/31 29/42/34 36/45/40 37/46/41
f 28/37/33 27/40/36 34/47/42 35/48/43
f 26/39/35 1/17/15 33/49/44
f 4/18/16 32/41/37 39/44/39
f 31/36/32 30/35/31 37/46/41 38/43/38
f 29/38/34 28/37/33 35/48/43 36/50/40
f 27/40/36 26/39/35 33/49/44 34/47/42
f 37/46/41 36/45/40 43/51/45 44/52/46
f 35/48/43 34/47/42 41/53/47 42/54/48
f 33/49/44 1/17/15 40/55/49
f 4/18/16 39/44/39 46/56/50
f 38/43/38 37/46/41 44/52/46 45/57/51
f 36/50/40 35/48/43 42/54/48 43/58/45
f 34/47/42 33/49/44 40/55/49 41/53/47
f 39/44/39 38/43/38 45/57/51 46/56/50
f 4/18/16 46/56/50 53/59/52
f 45/57/51 44/52/46 51/60/53 52/61/54
f 43/58/45 42/54/48 49/62/55 50/63/56
f 41/53/47 40/55/49 47/64/57 48/65/58
f 46/56/50 45/57/51 52/61/54 53/59/52
f 44/52/46 43/51/45 50/66/56 51/60/53
f 42/54/48 41/53/47 48/65/58 49/62/55
f 40/55/49 1/17/15 47/64/57
f 50/63/56 49/62/55 56/67/59 57/68/60
f 48/65/58 47/64/57 54/69/61 55/70/62
f 53/59/52 52/61/54 59/71/63 60/72/64
f 51/60/53 50/66/56 57/73/60 58/74/65
f 49/62/55 48/65/58 55/70/62 56/67/59
f 47/64/57 1/17/15 54/69/61
f 4/18/16 53/59/52 60/72/64
f 52/61/54 51/60/53 58/74/65 59/71/63
f 60/72/64 59/71/63 66/75/66 67/76/67
f 58/74/65 57/73/60 64/77/68 65/78/69
f 56/67/59 55/70/62 62/79/70 63/80/71
f 54/69/61 1/17/15 61/81/72
f 4/18/16 60/72/64 67/76/67
f 59/71/63 58/74/65 65/78/69 66/75/66
f 57/68/60 56/67/59 63/80/71 64/82/68
f 55/70/62 54/69/61 61/81/72 62/79/70
f 63/80/71 62/79/70 69/83/73 70/84/74
f 61/81/72 1/17/15 68/85/75
f 4/18/16 67/76/67 74/86/76
f 66/75/66 65/78/69 72/87/77 73/88/78
f 64/82/68 63/80/71 70/84/74 71/89/79
f 62/79/70 61/81/72 68/85/75 69/83/73
f 67/76/67 66/75/66 73/88/78 74/86/76
f 65/78/69 64/77/68 71/90/79 72/87/77
f 4/18/16 74/86/76 81/91/80
f 73/88/78 72/87/77 79/92/81 80/93/82
f 71/89/79 70/84/74 77/94/83 78/95/84
f 69/83/73 68/85/75 75/96/85 76/97/86
f 74/86/76 73/88/78 80/93/82 81/91/80
f 72/87/77 71/90/79 78/98/84 79/92/81
f 70/84/74 69/83/73 76/97/86 77/94/83
f 68/85/75 1/17/15 75/96/85
f 76/97/86 75/96/85 82/6/6 2/5/5
f 81/91/80 80/93/82 85/10/10 86/9/9
f 79/92/81 78/98/84 3/14/1 84/13/13
f 77/94/83 76/97/86 2/5/5 83/2/2
f 75/96/85 1/17/15 82/6/6
f 4/18/16 81/91/80 86/9/9
f 80/93/82 79/92/81 84/13/13 85/10/10
f 78/95/84 77/94/83 83/2/2 3/1/1
f 95/99/87 94/100/88 102/101/89 103/102/90
f 88/103/91 279/104/92 95/99/87 96/105/93
f 89/106/16 88/103/91 96/105/93 97/107/94
f 90/108/95 89/106/16 97/107/94 98/109/96
f 206/110/97 202/111/98 205/112/99
f 280/113/100 90/108/95 98/109/96 99/114/101
f 205/112/99 209/115/102 210/116/103 206/110/97
f 278/117/104 87/118/105 93/119/106 94/100/88
f 94/100/88 93/119/106 101/120/107 102/101/89
f 103/102/90 102/101/89 110/121/108 111/122/109
f 96/105/93 95/99/87 103/102/90 104/123/110
f 97/107/94 96/105/93 104/123/110 105/124/111
f 98/109/96 97/107/94 105/124/111 106/125/112
f 101/120/107 100/126/113 108/127/114 109/128/115
f 99/114/101 98/109/96 106/125/112 107/129/116
f 105/124/111 104/123/110 112/130/117 113/131/118
f 106/125/112 105/124/111 113/131/118 114/132/119
f 109/128/115 108/127/114 116/133/120 117/134/121
f 107/129/116 106/125/112 114/132/119 115/135/122
f 102/101/89 101/120/107 109/128/115 110/121/108
f 111/122/109 110/121/108 118/136/123 119/137/124
f 104/123/110 103/102/90 111/122/109 112/130/117
f 110/121/108 109/128/115 117/134/121 118/136/123
f 119/137/124 118/136/123 126/138/125 127/139/126
f 112/130/117 111/122/109 119/137/124 120/140/127
f 113/131/118 112/130/117 120/140/127 121/141/128
f 114/132/119 113/131/118 121/141/128 122/142/129
f 117/134/121 116/133/120 124/143/130 125/144/131
f 115/135/122 114/132/119 122/142/129 123/145/132
f 121/141/128 120/140/127 128/146/133 129/147/134
f 122/142/129 121/141/128 129/147/134 130/148/135
f 125/144/131 124/143/130 133/149/136 134/150/137
f 123/145/132 122/142/129 130/148/135 131/151/138
f 118/136/123 117/134/121 125/144/131 126/138/125
f 127/139/126 126/138/125 135/152/139 136/153/140
f 120/140/127 119/137/124 127/139/126 128/146/133
f 136/153/140 135/152/139 143/154/141 144/155/142
f 128/146/133 127/139/126 136/153/140 137/156/143
f 129/147/134 128/146/133 137/156/143 138/157/144
f 130/148/135 129/147/134 138/157/144 139/158/145
f 134/150/137 133/149/136 141/159/146 142/160/147
f 131/151/138 130/148/135 139/158/145 140/161/148
f 126/138/125 125/144/131 134/150/137 135/152/139
f 139/158/145 138/157/144 146/162/149 147/163/150
f 142/160/147 141/159/146 149/164/151 150/165/152
f 140/161/148 139/158/145 147/163/150 148/166/153
f 135/152/139 134/150/137 142/160/147 143/154/141
f 143/154/141 151/167/154 152/168/155 144/155/142
f 137/156/143 136/153/140 144/155/142 145/169/156
f 138/157/144 137/156/143 145/169/156 146/162/149
f 152/168/155 151/167/154 158/170/157 159/171/158
f 145/169/156 144/155/142 152/168/155 153/172/159
f 146/162/149 145/169/156 153/172/159 154/173/160
f 147/163/150 146/162/149 154/173/160 155/174/161
f 150/165/152 149/164/151 156/175/162 157/176/163
f 143/154/141 142/160/147 150/165/152 151/167/154
f 157/176/163 156/175/162 163/177/164 164/178/165
f 151/167/154 150/165/152 157/176/163 158/170/157
f 158/170/157 165/179/166 166/180/167 159/171/158
f 153/172/159 152/168/155 159/171/158 160/181/168
f 154/173/160 153/172/159 160/181/168 161/182/169
f 155/174/161 154/173/160 161/182/169 162/183/170
f 170/184/171 166/180/167 165/179/166
f 163/177/164 167/185/172 168/186/173 164/178/165
f 158/170/157 157/176/163 164/178/165 165/179/166
f 168/186/173 167/185/172 171/187/174 172/188/175
f 165/179/166 164/178/165 168/186/173 169/189/176
f 165/179/166 169/189/176 170/184/171
f 171/187/174 174/190/177 175/191/178 172/188/175
f 169/189/176 168/186/173 172/188/175 173/192/179
f 175/191/178 174/190/177 177/193/180 178/194/181
f 173/192/179 172/188/175 175/191/178 176/195/182
f 178/194/181 177/193/180 180/196/183 181/197/184
f 176/195/182 175/191/178 178/194/181 179/198/185
f 179/198/185 178/194/181 181/197/184 182/199/186
f 181/197/184 180/196/183 183/200/187 184/201/188
f 184/201/188 183/200/187 187/202/189 188/203/190
f 182/199/186 181/197/184 184/201/188 185/204/191
f 188/203/190 187/202/189 190/205/192 191/206/193
f 185/204/191 184/201/188 188/203/190 189/207/194
f 191/206/193 190/205/192 193/208/195 194/209/196
f 189/207/194 188/203/190 191/206/193 192/210/197
f 194/209/196 193/208/195 196/211/198 197/212/199
f 192/210/197 191/206/193 194/209/196 195/213/200
f 197/212/199 196/211/198 199/214/201 200/215/202
f 195/213/200 194/209/196 197/212/199 198/216/203
f 200/215/202 199/214/201 203/217/204 204/218/205
f 198/216/203 197/212/199 200/215/202 201/219/206
f 204/218/205 203/217/204 207/220/207 208/221/208
f 201/219/206 200/215/202 204/218/205 205/112/99
f 202/111/98 201/219/206 205/112/99
f 210/116/103 209/115/102 216/222/209 217/223/210
f 207/220/207 214/224/211 215/225/212 208/221/208
f 205/112/99 204/218/205 208/221/208 209/115/102
f 215/225/212 214/224/211 221/226/213 222/227/214
f 209/115/102 208/221/208 215/225/212 216/222/209
f 217/223/210 216/222/209 223/228/215 224/229/216
f 211/230/217 210/116/103 217/223/210 218/231/218
f 212/232/219 211/230/217 218/231/218 219/233/220
f 213/234/221 212/232/219 219/233/220 220/235/222
f 218/231/218 217/223/210 224/229/216 225/236/223
f 219/233/220 218/231/218 225/236/223 226/237/224
f 220/235/222 219/233/220 226/237/224 227/238/225
f 222/227/214 221/226/213 228/239/226 229/240/227
f 216/222/209 215/225/212 222/227/214 223/228/215
f 224/229/216 223/228/215 230/241/228 231/242/229
f 223/228/215 222/227/214 229/240/227 230/241/228
f 231/242/229 230/241/228 238/243/230 239/244/231
f 225/236/223 224/229/216 231/242/229 232/245/232
f 226/237/224 225/236/223 232/245/232 233/246/233
f 227/238/225 226/237/224 233/246/233 234/247/234
f 229/240/227 228/239/226 236/248/235 237/249/236
f 233/246/233 232/245/232 240/250/237 241/251/238
f 234/247/234 233/246/233 241/251/238 242/252/239
f 237/249/236 236/248/235 245/253/240 246/254/241
f 235/255/242 234/247/234 242/252/239 243/256/243
f 230/241/228 229/240/227 237/249/236 238/243/230
f 239/244/231 238/243/230 247/257/244 248/258/245
f 232/245/232 231/242/229 239/244/231 240/250/237
f 238/243/230 237/249/236 246/254/241 247/257/244
f 248/258/245 247/257/244 255/259/246 256/260/247
f 240/250/237 239/244/231 248/258/245 249/261/248
f 241/251/238 240/250/237 249/261/248 250/262/249
f 242/252/239 241/251/238 250/262/249 251/263/250
f 246/254/241 245/253/240 253/264/251 254/265/252
f 243/256/243 242/252/239 251/263/250 252/266/253
f 250/262/249 249/261/248 257/267/254 258/268/255
f 251/263/250 250/262/249 258/268/255 259/269/256
f 254/265/252 253/264/251 261/270/257 262/271/258
f 252/266/253 251/263/250 259/269/256 260/272/259
f 247/257/244 246/254/241 254/265/252 255/259/246
f 256/260/247 255/259/246 263/273/260 264/274/261
f 249/261/248 248/258/245 256/260/247 257/267/254
f 264/274/261 263/273/260 271/275/262 272/276/263
f 257/267/254 256/260/247 264/274/261 265/277/264
f 258/268/255 257/267/254 265/277/264 266/278/265
f 93/119/106 92/279/266 100/126/113 101/120/107
f 259/269/256 258/268/255 266/278/265 267/280/267
f 262/271/258 261/270/257 269/281/268 270/282/269
f 260/272/259 259/269/256 267/280/267 268/283/270
f 243/256/243 252/266/253 244/284/271
f 255/259/246 254/265/252 262/271/258 263/273/260
f 100/126/113 92/279/266 277/285/272 269/281/268 261/270/257 253/264/251 245/253/240 236/248/235 228/239/226 221/226/213 214/224/211 207/220/207 203/217/204 199/214/201 196/211/198 193/208/195 190/205/192 187/202/189 183/200/187 180/196/183 177/193/180 174/190/177 171/187/174 167/185/172 163/177/164 156/175/162 149/164/151 141/159/146 133/149/136 124/143/130 116/133/120 108/127/114
f 267/280/267 266/278/265 274/286/273 275/287/274
f 270/282/269 269/281/268 277/285/272 87/118/105
f 268/283/270 267/280/267 275/287/274 276/288/275
f 132/289/276 123/145/132 131/151/138
f 263/273/260 262/271/258 270/282/269 271/275/262
f 272/276/263 271/275/262 278/117/104 279/104/92
f 265/277/264 264/274/261 272/276/263 273/290/277
f 266/278/265 265/277/264 273/290/277 274/286/273
f 273/290/277 272/276/263 279/104/92 88/103/91
f 274/286/273 273/290/277 88/103/91 89/106/16
f 275/287/274 274/286/273 89/106/16 90/108/95
f 87/118/105 277/285/272 92/279/266 93/119/106
f 276/288/275 275/287/274 90/108/95 280/113/100
f 279/104/92 278/117/104 94/100/88 95/99/87
f 271/275/262 270/282/269 87/118/105 278/117/104
f 189/207/194 192/210/197 284/291/278 283/292/279
f 185/204/191 189/207/194 283/292/279 282/293/280
f 179/198/185 182/199/186 281/294/281 186/295/282
f 182/199/186 185/204/191 282/293/280 281/294/281
f 282/293/280 283/292/279 287/296/283 286/297/284
f 281/294/281 282/293/280 286/297/284 285/298/285
f 283/292/279 284/291/278 287/296/283
f 195/213/200 284/291/278 192/210/197
f 281/294/281 285/298/285 186/295/282
f 179/198/185 186/295/282 176/195/182
f 202/111/98 198/216/203 201/219/206
f 169/189/176 173/192/179 170/184/171
s 0
f 159/171/286 166/180/286 160/181/286
s 1
f 211/230/217 206/110/97 210/116/103
f 147/163/150 155/174/161 148/166/153
f 235/255/242 227/238/225 234/247/234
f 244/284/271 235/255/242 243/256/243
f 131/151/138 140/161/148 132/289/276
f 324/216/287 325/111/288 298/299/289 297/300/290
f 326/182/291 327/301/292 288/302/293 289/303/294
f 328/304/295 329/195/296 294/305/297 293/306/298
f 330/307/299 324/216/287 297/300/290 296/308/300
f 331/309/301 328/304/295 293/306/298 292/310/302
f 332/311/303 326/182/291 289/303/294 290/312/304
f 333/313/305 331/309/301 292/310/302 291/314/306
f 334/230/307 335/232/308 301/315/309 300/316/310
f 327/301/292 333/313/305 291/314/306 288/302/293
f 336/296/311 337/291/312 303/317/313 306/318/314
f 335/232/308 338/319/315 302/320/316 301/315/309
f 325/111/288 339/321/317 299/322/318 298/299/289
f 337/291/312 330/307/299 296/308/300 303/317/313
f 339/321/317 334/230/307 300/316/310 299/322/318
f 340/323/319 341/324/320 304/325/321 295/326/322
f 341/324/320 342/327/323 305/328/324 304/325/321
f 329/195/296 340/323/319 295/326/322 294/305/297
f 342/327/323 336/296/311 306/318/314 305/328/324
f 343/329/325 344/161/326 312/330/327 311/331/328
f 345/332/329 346/333/330 320/334/331 319/335/332
f 347/336/333 348/337/334 316/338/335 315/339/336
f 349/114/337 350/340/338 308/341/339 307/342/340
f 351/343/341 352/344/342 310/345/343 309/346/344
f 353/174/345 332/311/303 290/312/304 314/347/346
f 354/283/347 355/288/348 322/348/349 321/349/350
f 346/333/330 354/283/347 321/349/350 320/334/331
f 356/350/351 345/332/329 319/335/332 318/351/352
f 357/352/353 353/174/345 314/347/346 313/353/354
f 355/288/348 358/354/355 323/355/356 322/348/349
f 352/344/342 343/329/325 311/331/328 310/345/343
f 348/337/334 359/255/305 317/356/306 316/338/335
f 350/340/338 351/343/341 309/346/344 308/341/339
f 338/319/315 347/336/333 315/339/336 302/320/316
f 358/354/355 349/114/337 307/342/340 323/355/356
f 344/161/326 357/352/353 313/353/354 312/330/327
f 359/255/305 356/350/351 318/351/352 317/356/306
f 235/255/242 244/284/271 356/350/351 359/255/305
f 140/161/148 148/166/153 357/352/353 344/161/326
f 280/113/100 99/114/101 349/114/337 358/354/355
f 213/234/221 220/235/222 347/336/333 338/319/315
f 107/129/116 115/135/122 351/343/341 350/340/338
f 227/238/225 235/255/242 359/255/305 348/337/334
f 123/145/132 132/289/276 343/329/325 352/344/342
f 276/288/275 280/113/100 358/354/355 355/288/348
f 148/166/153 155/174/161 353/174/345 357/352/353
f 244/284/271 252/266/253 345/332/329 356/350/351
f 260/272/259 268/283/270 354/283/347 346/333/330
f 268/283/270 276/288/275 355/288/348 354/283/347
f 155/174/161 162/183/170 332/311/303 353/174/345
f 115/135/122 123/145/132 352/344/342 351/343/341
f 99/114/101 107/129/116 350/340/338 349/114/337
f 220/235/222 227/238/225 348/337/334 347/336/333
f 252/266/253 260/272/259 346/333/330 345/332/329
f 132/289/276 140/161/148 344/161/326 343/329/325
f 286/297/284 287/296/283 336/296/311 342/327/323
f 176/195/182 186/295/282 340/323/319 329/195/296
f 285/298/285 286/297/284 342/327/323 341/324/320
f 186/295/282 285/298/285 341/324/320 340/323/319
f 206/110/97 211/230/217 334/230/307 339/321/317
f 284/291/278 195/213/200 330/307/299 337/291/312
f 202/111/98 206/110/97 339/321/317 325/111/288
f 212/232/219 213/234/221 338/319/315 335/232/308
f 287/296/283 284/291/278 337/291/312 336/296/311
f 160/181/168 166/180/167 333/313/305 327/301/292
f 211/230/217 212/232/219 335/232/308 334/230/307
f 166/180/167 170/184/171 331/309/301 333/313/305
f 162/183/170 161/182/169 326/182/291 332/311/303
f 170/184/171 173/192/179 328/304/295 331/309/301
f 195/213/200 198/216/203 324/216/287 330/307/299
f 173/192/179 176/195/182 329/195/296 328/304/295
f 161/182/169 160/181/168 327/301/292 326/182/291
f 198/216/203 202/111/98 325/111/288 324/216/287
o Cylinder
v 0.000000 -0.000000 -0.281060
v 1.947265 0.000000 -0.179286
v 0.000000 -0.267304 -0.086852
v 1.947265 -0.170511 -0.055402
v 0.000000 -0.165203 0.227382
v 1.947265 -0.105381 0.145045
v 0.000000 0.165203 0.227382
v 1.947265 0.105382 0.145045
v 0.000000 0.267304 -0.086852
v 1.947265 0.170511 -0.055402
v 1.700000 -0.267304 -0.086852
v 1.700000 0.000000 -0.281060
v 1.700000 -0.165203 0.227382
v 1.700000 0.165203 0.227382
v 1.700000 0.267304 -0.086852
v 0.000000 -0.000000 0.281060
v -1.847265 0.000000 0.179286
v 0.000000 -0.267304 0.086852
v -1.847265 -0.170511 0.055403
v 0.000000 -0.165203 -0.227382
v -1.847265 -0.105381 -0.145045
v 0.000000 0.165203 -0.227382
v -1.847265 0.105382 -0.145045
v 0.000000 0.267304 0.086852
v -1.847265 0.170511 0.055403
v -1.600000 -0.267304 0.086852
v -1.600000 0.000000 0.281060
v -1.600000 -0.165203 -0.227382
v -1.600000 0.165203 -0.227382
v -1.600000 0.267304 0.086852
vn -0.0000 -0.5878 -0.8090
vn -0.0000 -0.9511 0.3090
vn -0.0000 -0.0000 1.0000
vn 1.0000 -0.0000 -0.0000
vn -0.0000 0.9511 0.3090
vn -0.0000 0.5878 -0.8090
vn -0.0000 -0.5878 0.8090
vn 0.3159 -0.5577 -0.7676
vn 0.3159 -0.9023 0.2932
vn 0.3159 -0.0000 0.9488
vn 0.3159 0.9023 0.2932
vn 0.3159 0.5577 -0.7676
vn -0.0000 -0.9511 -0.3090
vn -0.0000 -0.0000 -1.0000
vn -1.0000 -0.0000 -0.0000
vn -0.0000 0.9511 -0.3090
vn -0.0000 0.5878 0.8090
vn -0.3159 -0.5577 0.7676
vn -0.3159 -0.9023 -0.2932
vn -0.3159 -0.0000 -0.9488
vn -0.3159 0.9023 -0.2932
vn -0.3159 0.5577 0.7676
vt 0.948378 0.388751
vt 0.878561 0.388751
vt 0.878561 0.360824
vt 0.948378 0.360824
vt 0.878561 0.332897
vt 0.948378 0.332897
vt 0.878561 0.304970
vt 0.948378 0.304970
vt 0.131863 0.926581
vt 0.100150 0.882932
vt 0.131863 0.839282
vt 0.183176 0.855955
vt 0.183176 0.909908
vt 0.878561 0.277043
vt 0.948378 0.277043
vt 0.878561 0.249116
vt 0.948378 0.249116
vt 0.123812 0.951359
vt 0.074097 0.882932
vt 0.204254 0.925222
vt 0.204254 0.840641
vt 0.123812 0.814504
s 0
usemtl badskin
f 360/357/357 371/358/357 370/359/357 362/360/357
f 362/360/358 370/359/358 372/361/358 364/362/358
f 364/362/359 372/361/359 373/363/359 366/364/359
f 363/365/360 361/366/360 369/367/360 367/368/360 365/369/360
f 366/364/361 373/363/361 374/370/361 368/371/361
f 368/371/362 374/370/362 371/372/362 360/373/362
f 375/357/363 386/358/363 385/359/363 377/360/363
f 361/366/364 363/365/364 370/374/364 371/375/364
f 363/365/365 365/369/365 372/376/365 370/374/365
f 365/369/366 367/368/366 373/377/366 372/376/366
f 367/368/367 369/367/367 374/378/367 373/377/367
f 369/367/368 361/366/368 371/375/368 374/378/368
f 377/360/369 385/359/369 387/361/369 379/362/369
f 379/362/370 387/361/370 388/363/370 381/364/370
f 378/365/371 376/366/371 384/367/371 382/368/371 380/369/371
f 381/364/372 388/363/372 389/370/372 383/371/372
f 383/371/373 389/370/373 386/372/373 375/373/373
f 376/366/374 378/365/374 385/374/374 386/375/374
f 378/365/375 380/369/375 387/376/375 385/374/375
f 380/369/376 382/368/376 388/377/376 387/376/376
f 382/368/377 384/367/377 389/378/377 388/377/377
f 384/367/378 376/366/378 386/375/378 389/378/378
