# Blender 5.0.1
# www.blender.org
mtllib model.mtl
o pgorleyMesh
v 0.904112 -0.000821 -0.000505
v 0.639243 -0.000821 0.638945
v 0.835275 0.172213 0.299199
v 0.639243 0.318904 0.553275
v 0.835275 0.298883 0.172529
v 0.639243 0.552959 0.319220
v 0.835275 0.345247 -0.000505
v 0.639243 0.638630 -0.000505
v 0.835275 0.298883 -0.173539
v 0.639243 0.552959 -0.320230
v 0.345861 0.722728 -0.418246
v -0.000207 0.782343 -0.452664
v 0.835275 0.172213 -0.300208
v 0.639243 0.318904 -0.554285
v 0.345861 0.416920 -0.724053
v -0.000207 0.451339 -0.783668
v -0.346275 0.416920 -0.724053
v -0.639657 0.318904 -0.554284
v 0.835275 -0.000821 -0.346573
v 0.639243 -0.000821 -0.639955
v 0.345861 -0.000821 -0.835986
v -0.000207 -0.000821 -0.904823
v -0.346275 -0.000821 -0.835986
v -0.639657 -0.000821 -0.639955
v 0.835275 -0.173854 -0.300208
v 0.639243 -0.320546 -0.554284
v 0.345861 -0.418561 -0.724053
v -0.000207 -0.452980 -0.783668
v -0.346275 -0.418561 -0.724053
v -0.639657 -0.320546 -0.554284
v 0.835275 -0.300524 -0.173539
v 0.639243 -0.554601 -0.320229
v 0.345861 -0.724369 -0.418246
v -0.000207 -0.783984 -0.452664
v 0.835275 -0.346888 -0.000505
v 0.639243 -0.640271 -0.000504
v 0.345861 -0.836302 -0.000505
v 0.835275 -0.300524 0.172529
v 0.639243 -0.554600 0.319221
v 0.345861 -0.724369 0.417236
v 0.835275 -0.173855 0.299199
v 0.639243 -0.320545 0.553275
v 0.345861 -0.418561 0.723044
v 0.835275 -0.000821 0.345563
v 0.325734 -0.286425 1.472197
v -0.325734 -0.286425 1.472197
v 0.325734 0.286425 1.472197
v -0.653242 -0.000000 0.685902
v -0.325734 0.286425 1.472197
v 0.559814 -0.685205 1.038119
v -0.559814 -0.685205 1.038119
v -0.559814 0.685205 1.038119
v 0.559814 0.685205 1.038119
v 0.524144 -0.641546 0.759330
v -0.524144 -0.641546 0.759330
v -0.524144 0.641546 0.759330
v 0.524144 0.641546 0.759330
v 0.653242 -0.000000 0.685902
v -0.750167 -0.000000 1.202553
v 0.524144 0.641546 0.685902
v 0.750167 -0.000000 1.202553
v -0.464476 -0.000000 1.508409
v 0.464476 -0.000000 1.508409
v 0.653242 -0.000000 0.759330
v -0.653242 -0.000000 0.759330
v -0.524144 0.641546 0.685902
v -0.524144 -0.641546 0.685902
v 0.524144 -0.641546 0.685902
v 0.653242 -0.000000 0.586408
v 0.524144 0.641546 0.586408
v 0.524144 -0.641546 0.586408
v 0.893307 0.344296 0.585294
v 1.022404 -0.000000 0.585294
v 0.893307 -0.344296 0.585294
v 0.893307 0.344296 0.485800
v 1.022404 -0.000000 0.485800
v 0.893307 -0.344296 0.485800
v 0.317923 -0.809611 -0.857381
v 0.036645 -0.873584 -0.894315
v -0.346275 0.722728 -0.418245
v -0.639657 0.552959 -0.320230
v -0.536116 0.561082 -0.752201
v -0.221290 0.743259 -0.857381
v -0.221290 -0.809611 -0.857381
v -0.536116 -0.033176 -1.095296
v -0.346275 -0.724369 -0.418245
v -0.639657 -0.554601 -0.320229
v -0.536116 0.309919 -1.003363
v -0.536116 -0.627434 -0.752201
v 0.377774 0.743259 -0.857381
v 0.527185 0.608249 -0.397948
v 0.556041 0.653014 -0.409106
v 0.150074 0.807231 -0.894315
v -0.536116 -0.376271 -1.003363
v -0.471493 -0.584981 -0.717673
v -0.178111 -0.754750 -0.815688
v 0.054528 -0.814365 -0.850107
v 0.310511 -0.754750 -0.815689
v -0.471493 -0.350926 -0.951728
v -0.471493 -0.031201 -1.037398
v -0.471493 0.288524 -0.951728
v -0.471493 0.522579 -0.717673
v -0.178111 0.692347 -0.815688
v 0.167957 0.751962 -0.850107
v 0.370362 0.692347 -0.815689
v 0.668100 0.340300 0.582595
v 0.353273 0.445480 0.764772
v -0.018090 0.482414 0.828745
v -0.389454 0.445480 0.764772
v -0.704280 0.340300 0.582595
v -0.914641 0.182886 0.309947
v -0.018090 -0.002795 0.958756
v 0.668100 -0.002795 0.674527
v 0.668100 0.591462 0.331432
v 0.353273 0.773640 0.436612
v -0.018090 0.837612 0.473547
v -0.389454 0.773640 0.436612
v -0.704280 0.591463 0.331432
v -0.914641 0.318815 0.174019
v 0.668100 0.683395 -0.011663
v 0.353273 0.893755 -0.011663
v -0.018090 0.967624 -0.011663
v -0.389454 0.893755 -0.011663
v -0.704280 0.683395 -0.011663
v -0.914641 0.368568 -0.011663
v 0.353273 0.773640 -0.459938
v -0.018090 0.837612 -0.496872
v -0.389454 0.773640 -0.459938
v -0.704280 0.591462 -0.354758
v -0.914641 0.318815 -0.197344
v -0.704280 0.340300 -0.605920
v -0.914641 0.182886 -0.333273
v -0.704280 -0.002795 -0.697852
v -0.914641 -0.002795 -0.383026
v -0.704280 -0.345890 -0.605920
v -0.914640 -0.188477 -0.333273
v 0.353273 -0.779231 -0.459938
v -0.018090 -0.843203 -0.496872
v -0.389454 -0.779231 -0.459938
v -0.704280 -0.597053 -0.354757
v -0.914641 -0.324405 -0.197344
v 0.353273 -0.899346 -0.011663
v -0.018090 -0.973214 -0.011663
v -0.389454 -0.899346 -0.011663
v -0.704280 -0.688985 -0.011663
v -0.914641 -0.374159 -0.011663
v 0.353273 -0.779231 0.436612
v -0.018090 -0.843203 0.473547
v -0.389454 -0.779231 0.436612
v -0.704280 -0.597053 0.331432
v -0.914641 -0.324405 0.174019
v 0.353273 -0.451070 0.764772
v -0.018090 -0.488005 0.828745
v -0.389454 -0.451070 0.764772
v -0.704280 -0.345890 0.582595
v -0.914641 -0.188477 0.309947
v -0.389454 -0.002795 0.884887
v -0.704280 -0.002795 0.674527
v -0.914641 -0.002795 0.359701
v 0.353273 -0.002795 0.884887
v -0.988509 -0.002795 -0.011663
vn 0.9626 -0.2710 -0.0016
vn 0.9122 -0.0000 0.4097
vn 0.9122 0.2049 0.3548
vn 0.9902 -0.0635 -0.1248
vn 1.0000 -0.0000 -0.0000
vn 0.9122 0.3548 0.2049
vn 0.9930 -0.0945 -0.0716
vn 0.9122 0.4097 -0.0000
vn 0.9902 -0.0494 -0.1309
vn 0.9122 0.3548 -0.2049
vn 0.6913 0.6258 -0.3613
vn -0.0932 -0.4870 -0.8684
vn 0.6913 0.3613 -0.6258
vn 0.3718 0.4642 -0.8040
vn 0.9122 0.2049 -0.3548
vn 0.0487 -0.5302 -0.8465
vn -0.0000 0.5000 -0.8660
vn -0.3718 0.4642 -0.8040
vn -0.0000 -0.0000 -1.0000
vn -0.3718 -0.0000 -0.9283
vn 0.6913 -0.0000 -0.7226
vn 0.3718 -0.0000 -0.9283
vn 0.9122 -0.0000 -0.4097
vn 0.7608 0.2159 -0.6120
vn 0.7266 -0.0105 -0.6870
vn -0.3718 -0.4642 -0.8040
vn 0.7451 -0.2672 -0.6110
vn 0.3718 -0.4642 -0.8040
vn -0.0000 -0.5000 -0.8660
vn 0.9122 -0.2049 -0.3548
vn 0.6913 -0.3613 -0.6258
vn 0.8435 -0.2668 -0.4661
vn 0.0299 0.4620 -0.8864
vn 0.9122 -0.3548 -0.2049
vn 0.6913 -0.6258 -0.3613
vn 0.6913 -0.7226 -0.0000
vn 0.9397 -0.3419 -0.0030
vn 0.9122 -0.4097 -0.0000
vn 0.6913 -0.6258 0.3613
vn 0.9421 -0.2921 0.1647
vn 0.9122 -0.3548 0.2049
vn 0.9122 -0.2049 0.3548
vn 0.6913 -0.3613 0.6258
vn 0.9006 -0.4343 0.0159
vn -0.0000 -0.9880 -0.1547
vn -0.9598 0.2077 -0.1888
vn -0.0000 0.9880 -0.1547
vn 0.9598 -0.2077 -0.1888
vn -0.9803 0.1973 -0.0000
vn -0.0000 -0.1254 0.9921
vn -0.0000 -0.7364 0.6765
vn -0.6611 0.3599 0.6584
vn -0.0000 0.7364 0.6765
vn 0.6611 -0.3599 0.6584
vn 0.6611 0.3599 0.6584
vn -0.6611 -0.3599 0.6584
vn -0.0000 0.1254 0.9921
vn 0.9803 0.1973 -0.0000
vn 0.9598 0.2077 -0.1888
vn -0.9598 -0.2077 -0.1888
vn 0.9803 -0.1973 -0.0000
vn -0.0000 1.0000 -0.0000
vn -0.0000 -1.0000 -0.0000
vn -0.9803 -0.1973 -0.0000
vn 0.6272 -0.7789 -0.0000
vn -0.2906 -0.0761 -0.9538
vn 0.9363 -0.3511 -0.0000
vn 0.9363 0.3511 -0.0000
vn -0.2906 0.0761 -0.9538
vn 0.2906 -0.0761 0.9538
vn 0.2906 0.0761 0.9538
vn 0.6272 0.7789 -0.0000
vn 0.2094 -0.5336 -0.8194
vn 0.1995 -0.8945 -0.4001
vn -0.0452 -0.8879 -0.4579
vn 0.9546 -0.1635 -0.2490
vn 0.9520 0.0043 -0.3062
vn 0.8612 -0.4963 -0.1093
vn -0.0120 -0.9950 -0.0989
vn 0.0199 -0.5346 -0.8448
vn 0.6164 -0.3025 -0.7270
vn 0.5526 0.0844 -0.8292
vn 0.8135 0.5288 -0.2420
vn 0.2342 -0.8826 -0.4077
vn -0.8717 -0.2636 -0.4132
vn -0.8865 0.0034 -0.4626
vn -0.1942 -0.0052 -0.9809
vn -0.1841 -0.4713 -0.8626
vn -0.7264 0.6254 -0.2848
vn -0.3996 0.8830 -0.2462
vn -0.2484 0.3568 -0.9005
vn -0.4364 0.5590 -0.7050
vn -0.0171 0.9837 -0.1792
vn 0.0693 0.4655 -0.8823
vn -0.7378 -0.6220 -0.2623
vn -0.4600 -0.5935 -0.6605
vn 0.5567 -0.1272 -0.8209
vn 0.9546 0.1717 -0.2435
vn 0.8248 -0.5402 -0.1668
vn 0.3739 0.9159 -0.1460
vn 0.5270 0.2267 -0.8191
vn 0.1924 -0.9738 -0.1210
vn -0.8564 0.2850 -0.4305
vn -0.1807 0.4621 -0.8682
vn -0.0085 0.8488 -0.5287
vn 0.4697 0.7940 -0.3859
vn 0.1887 0.8588 -0.4764
vn -0.2765 -0.4233 -0.8628
vn 0.9413 0.1465 -0.3041
vn 0.1709 0.4847 -0.8578
vn 0.9645 0.2494 -0.0871
vn 0.7606 -0.5612 0.3263
vn 0.7574 -0.6529 0.0017
vn 0.9636 0.1296 0.2339
vn 0.9562 -0.2354 0.1737
vn 0.9582 0.2430 0.1508
vn 0.6789 -0.4649 0.5683
vn -0.3996 -0.9005 -0.1714
vn -0.0000 -0.0000 1.0000
vn 0.3718 -0.0000 0.9283
vn 0.3718 0.4642 0.8040
vn -0.0000 0.5000 0.8660
vn -0.9122 -0.0000 0.4097
vn -0.6913 -0.0000 0.7226
vn -0.6913 0.3613 0.6258
vn -0.9122 0.2049 0.3548
vn -0.3718 -0.0000 0.9283
vn -0.3718 0.4642 0.8040
vn -1.0000 -0.0000 -0.0000
vn -0.6913 0.6258 0.3613
vn -0.9122 0.3548 0.2049
vn -0.0000 0.8660 0.5000
vn -0.3718 0.8040 0.4642
vn 0.3718 0.8040 0.4642
vn -0.9122 0.4097 -0.0000
vn -0.3718 0.9283 -0.0000
vn -0.6913 0.7226 -0.0000
vn 0.3718 0.9283 -0.0000
vn -0.9122 0.3548 -0.2049
vn -0.9122 0.2049 -0.3548
vn -0.9122 -0.0000 -0.4097
vn -0.9122 -0.2049 -0.3548
vn -0.9122 -0.3548 -0.2049
vn -0.6913 -0.7226 -0.0000
vn -0.9122 -0.4097 -0.0000
vn -0.3718 -0.9283 -0.0000
vn -0.9122 -0.3548 0.2049
vn -0.3718 -0.8040 0.4642
vn -0.6913 -0.6258 0.3613
vn -0.0000 -0.8660 0.5000
vn -0.9122 -0.2049 0.3548
vn -0.3718 -0.4642 0.8040
vn -0.6913 -0.3613 0.6258
vn -0.0000 -0.5000 0.8660
vt 0.432792 0.626933
vt 0.440399 0.513898
vt 0.491962 0.500016
vt 0.547703 0.599467
vt 0.441945 0.413205
vt 0.530696 0.462643
vt 0.629122 0.515820
vt 0.541418 0.410269
vt 0.652765 0.402806
vt 0.524170 0.362060
vt 0.607944 0.304060
vt 0.697348 0.234665
vt 0.531134 0.240187
vt 0.582820 0.140130
vt 0.487885 0.328519
vt 0.263749 0.852048
vt 0.254588 0.893686
vt 0.203052 0.885049
vt 0.207966 0.842700
vt 0.099102 0.769400
vt 0.072649 0.730125
vt 0.142090 0.706607
vt 0.143493 0.756936
vt 0.436578 0.219896
vt 0.436258 0.106934
vt 0.440322 0.317064
vt 0.116760 0.798524
vt 0.145030 0.790907
vt 0.150908 0.881655
vt 0.151526 0.839026
vt 0.189915 0.766951
vt 0.172475 0.798323
vt 0.098687 0.883537
vt 0.095002 0.841063
vt 0.393963 0.331219
vt 0.344165 0.247439
vt 0.212555 0.726309
vt 0.289976 0.147232
vt 0.046922 0.890676
vt 0.038972 0.848790
vt 0.359353 0.364827
vt 0.274965 0.315521
vt 0.179467 0.252522
vt 0.246824 0.408187
vt 0.131983 0.398406
vt 0.345233 0.411779
vt 0.267375 0.504106
vt 0.159964 0.550837
vt 0.357009 0.459913
vt 0.391195 0.496523
vt 0.332930 0.580975
vt 0.257088 0.674143
vt 0.845285 0.319843
vt 0.869148 0.319851
vt 0.901791 0.371697
vt 0.889027 0.397477
vt 0.967631 0.397477
vt 0.939234 0.355944
vt 0.967709 0.326633
vt 0.991572 0.326642
vt 0.935066 0.274787
vt 0.947829 0.249007
vt 0.592621 0.766567
vt 0.592621 0.904499
vt 0.379385 0.853326
vt 0.392972 0.766567
vt 0.895681 0.184161
vt 0.952031 0.171097
vt 0.959309 0.176376
vt 0.895086 0.192658
vt 0.928242 0.339165
vt 0.914569 0.342410
vt 0.900289 0.317647
vt 0.908615 0.307319
vt 0.936568 0.328837
vt 0.922288 0.304074
vt 0.592621 0.999681
vt 0.503485 0.988412
vt 0.681756 0.988412
vt 0.805857 0.853326
vt 0.952983 0.092181
vt 0.900980 0.063886
vt 0.901575 0.055389
vt 0.959309 0.087751
vt 0.792270 0.766567
vt 0.844629 0.076950
vt 0.837352 0.071671
vt 0.843677 0.155866
vt 0.837352 0.160295
vt 0.964885 0.745498
vt 0.954930 0.742432
vt 0.934597 0.723033
vt 0.940214 0.713647
vt 0.918383 0.723551
vt 0.991909 0.709212
vt 0.957986 0.753093
vt 0.918383 0.767350
vt 0.901524 0.707405
vt 0.903590 0.717999
vt 0.865665 0.725308
vt 0.874415 0.731556
vt 0.844857 0.709212
vt 0.878780 0.753093
vt 0.907641 0.715533
vt 0.991942 0.699093
vt 0.953048 0.749404
vt 0.907641 0.765751
vt 0.823340 0.699093
vt 0.862234 0.749404
vt 0.862400 0.758605
vt 0.853057 0.767204
vt 0.912571 0.757021
vt 0.915008 0.767204
vt 0.967537 0.485244
vt 0.967749 0.500635
vt 0.949061 0.492179
vt 0.951035 0.475369
vt 0.966463 0.540600
vt 0.966264 0.556912
vt 0.949084 0.552210
vt 0.949378 0.541777
vt 0.783280 0.625967
vt 0.791304 0.641216
vt 0.773508 0.643887
vt 0.777852 0.635924
vt 0.974493 0.568198
vt 0.949409 0.570256
vt 0.780868 0.501560
vt 0.766094 0.493005
vt 0.781586 0.478928
vt 0.786403 0.487439
vt 0.930925 0.554324
vt 0.933492 0.540687
vt 0.946572 0.541804
vt 0.946144 0.551985
vt 0.920787 0.516094
vt 0.926437 0.500373
vt 0.945477 0.492687
vt 0.944624 0.514168
vt 0.928180 0.482249
vt 0.947760 0.475079
vt 0.920514 0.564750
vt 0.944130 0.569755
vt 0.974493 0.513115
vt 0.965834 0.523706
vt 0.949248 0.531435
vt 0.949771 0.513487
vt 0.807507 0.476871
vt 0.798601 0.492069
vt 0.787681 0.486007
vt 0.784844 0.475079
vt 0.798561 0.516687
vt 0.790587 0.501756
vt 0.931324 0.526487
vt 0.946409 0.531707
vt 0.771648 0.640776
vt 0.776952 0.634620
vt 0.067438 0.802785
vt 0.026594 0.782722
vt 0.096957 0.819842
vt 0.948743 0.591770
vt 0.949796 0.603729
vt 0.946253 0.604280
vt 0.944900 0.591425
vt 0.792417 0.500832
vt 0.266241 0.775833
vt 0.222846 0.801101
vt 0.193241 0.817723
vt 0.967262 0.581346
vt 0.800362 0.515145
vt 0.797857 0.612801
vt 0.809788 0.598500
vt 0.811634 0.600179
vt 0.799324 0.615137
vt 0.967803 0.597686
vt 0.812362 0.558896
vt 0.810214 0.545242
vt 0.812246 0.544617
vt 0.814145 0.558582
vt 0.805747 0.530327
vt 0.807665 0.529113
vt 0.817721 0.580094
vt 0.820141 0.580832
vt 0.925876 0.581265
vt 0.782383 0.623209
vt 0.766094 0.624588
vt 0.926500 0.600547
vt 0.845038 0.565233
vt 0.828284 0.561654
vt 0.828599 0.542046
vt 0.846384 0.540386
vt 0.894615 0.540517
vt 0.881107 0.540617
vt 0.884281 0.527162
vt 0.896125 0.534090
vt 0.902449 0.612944
vt 0.905001 0.659216
vt 0.833813 0.644803
vt 0.857795 0.601103
vt 0.907366 0.540342
vt 0.863708 0.541124
vt 0.869791 0.517964
vt 0.894026 0.517524
vt 0.900724 0.529274
vt 0.857622 0.502343
vt 0.879599 0.488081
vt 0.886902 0.504500
vt 0.823307 0.522605
vt 0.840349 0.515480
vt 0.907137 0.527372
vt 0.905685 0.498953
vt 0.906876 0.514001
vt 0.813367 0.505175
vt 0.826755 0.493783
vt 0.903883 0.481703
vt 0.913782 0.528848
vt 0.918546 0.533763
vt 0.920326 0.540352
vt 0.918637 0.546856
vt 0.913842 0.551655
vt 0.906229 0.566606
vt 0.907267 0.553261
vt 0.900821 0.598979
vt 0.904519 0.581755
vt 0.810374 0.627803
vt 0.900935 0.551401
vt 0.886623 0.574511
vt 0.894033 0.562253
vt 0.825994 0.609996
vt 0.876665 0.589889
vt 0.896470 0.546707
vt 0.872559 0.561171
vt 0.885370 0.553117
vt 0.837128 0.587983
vt 0.858073 0.571482
vt 0.846384 0.549067
vt 0.827474 0.587488
vt 0.827474 0.490021
vt 0.887124 0.478018
vt 0.946773 0.490021
vt 0.946773 0.587488
vt 0.887124 0.599492
s 1
g pgorleyMesh_badMat
usemtl badMat
f 2/1/1 44/2/2 3/3/3 4/4/4
f 44/2/2 1/5/5 3/3/3
f 3/3/3 1/5/5 5/6/6
f 4/4/4 3/3/3 5/6/6 6/7/7
f 5/6/6 1/5/5 7/8/8
f 6/7/7 5/6/6 7/8/8 8/9/9
f 8/9/9 7/8/8 9/10/10 10/11/11
f 7/8/8 1/5/5 9/10/10
f 11/12/12 10/11/11 14/13/13 15/14/14
f 9/10/10 1/5/5 13/15/15
f 12/16/16 11/17/12 15/18/14 16/19/17
f 10/11/11 9/10/10 13/15/15 14/13/13
f 17/20/18 16/21/17 22/22/19 23/23/20
f 15/14/14 14/13/13 20/24/21 21/25/22
f 13/15/15 1/5/5 19/26/23
f 18/27/24 17/20/18 23/23/20 24/28/25
f 16/19/17 15/18/14 21/29/22 22/30/19
f 14/13/13 13/15/15 19/26/23 20/24/21
f 24/28/25 23/23/20 29/31/26 30/32/27
f 22/30/19 21/29/22 27/33/28 28/34/29
f 20/24/21 19/26/23 25/35/30 26/36/31
f 23/23/20 22/22/19 28/37/29 29/31/26
f 21/25/22 20/24/21 26/36/31 27/38/28
f 19/26/23 1/5/5 25/35/30
f 28/34/29 27/33/28 33/39/32 34/40/33
f 26/36/31 25/35/30 31/41/34 32/42/35
f 27/38/28 26/36/31 32/42/35 33/43/32
f 25/35/30 1/5/5 31/41/34
f 33/43/32 32/42/35 36/44/36 37/45/37
f 31/41/34 1/5/5 35/46/38
f 32/42/35 31/41/34 35/46/38 36/44/36
f 37/45/37 36/44/36 39/47/39 40/48/40
f 35/46/38 1/5/5 38/49/41
f 36/44/36 35/46/38 38/49/41 39/47/39
f 39/47/39 38/49/41 41/50/42 42/51/43
f 40/48/40 39/47/39 42/51/43 43/52/44
f 38/49/41 1/5/5 41/50/42
f 42/51/43 41/50/42 44/2/2 2/1/1
f 41/50/42 1/5/5 44/2/2
s 0
f 54/53/45 50/54/45 51/55/45 55/56/45
f 65/57/46 59/58/46 52/59/46 56/60/46
f 56/60/47 52/59/47 53/61/47 57/62/47
f 64/63/48 61/64/48 50/65/48 54/66/48
f 65/67/49 56/68/49 66/69/49 48/70/49
f 62/71/50 46/72/50 45/73/50 63/74/50
f 45/73/51 46/72/51 51/55/51 50/54/51
f 62/71/52 49/75/52 52/59/52 59/58/52
f 49/75/53 47/76/53 53/61/53 52/59/53
f 63/77/54 45/78/54 50/65/54 61/64/54
f 47/79/55 63/77/55 61/64/55 53/80/55
f 46/72/56 62/71/56 59/58/56 51/55/56
f 49/75/57 62/71/57 63/74/57 47/76/57
f 57/81/58 64/82/58 58/83/58 60/84/58
f 57/85/59 53/80/59 61/64/59 64/63/59
f 55/56/60 51/55/60 59/58/60 65/57/60
f 64/82/61 54/86/61 68/87/61 58/83/61
f 56/68/62 57/81/62 60/84/62 66/69/62
f 54/86/63 55/88/63 67/89/63 68/87/63
f 55/88/64 65/67/64 48/70/64 67/89/64
f 68/90/65 71/91/65 77/92/65 74/93/65
f 69/94/66 70/95/66 75/96/66 76/97/66
f 73/98/67 74/93/67 77/92/67 76/99/67
f 72/100/68 73/98/68 76/99/68 75/101/68
f 71/102/69 69/94/69 76/97/69 77/103/69
f 58/104/70 68/105/70 74/106/70 73/107/70
f 60/108/71 58/104/71 73/107/71 72/109/71
f 70/110/72 60/111/72 72/100/72 75/101/72
f 70/110/64 69/112/64 58/113/64 60/111/64
f 69/112/49 71/91/49 68/90/49 58/113/49
s 1
f 42/51/43 2/1/1 43/52/44
f 11/12/12 8/9/9 10/11/11
f 12/114/16 80/115/73 103/116/74 104/117/75
f 24/118/25 30/119/27 99/120/76 100/121/77
f 137/122/78 138/123/79 79/124/80 78/125/81
f 30/119/27 87/126/82 95/127/83 99/120/76
f 11/128/12 12/129/16 104/130/75 105/131/84
f 135/132/85 133/133/86 85/134/87 94/135/88
f 129/136/89 128/137/90 83/138/91 82/139/92
f 128/137/90 127/140/93 93/141/94 83/138/91
f 140/142/95 135/132/85 94/135/88 89/143/96
f 81/144/97 18/145/24 101/146/98 102/147/99
f 127/148/93 126/149/100 90/150/101 93/151/94
f 8/152/9 11/128/12 105/131/84 91/153/102
f 133/133/86 131/154/103 88/155/104 85/134/87
f 97/156/105 98/157/106 78/125/81 79/124/80
f 80/158/73 12/159/16 16/21/17 17/20/18
f 103/116/74 102/147/99 82/139/92 83/138/91
f 81/160/97 80/158/73 17/20/18 18/27/24
f 96/161/107 97/162/105 79/163/80 84/164/108
f 101/146/98 100/121/77 85/134/87 88/155/104
f 95/127/83 96/161/107 84/164/108 89/143/96
f 91/153/102 105/131/84 90/150/101 92/165/109
f 102/147/99 101/146/98 88/155/104 82/139/92
f 29/31/26 28/37/29 34/166/33 86/167/110
f 105/131/84 104/130/75 93/151/94 90/150/101
f 30/32/27 29/31/26 86/167/110 87/168/82
f 99/120/76 95/127/83 89/143/96 94/135/88
f 100/121/77 99/120/76 94/135/88 85/134/87
f 104/117/75 103/116/74 83/138/91 93/141/94
f 87/126/82 86/169/110 96/161/107 95/127/83
f 120/170/111 8/152/9 91/153/102 92/165/109
f 37/171/37 40/172/40 147/173/112 142/174/113
f 18/145/24 24/118/25 100/121/77 101/146/98
f 86/169/110 34/175/33 97/162/105 96/161/107
f 2/176/1 4/177/4 106/178/114 113/179/115
f 6/180/7 8/152/9 120/170/111 114/181/116
f 40/172/40 43/182/44 152/183/117 147/173/112
f 139/184/118 140/142/95 89/143/96 84/164/108
f 33/185/32 137/122/78 78/125/81 98/157/106
f 80/115/73 81/144/97 102/147/99 103/116/74
f 43/182/44 2/176/1 113/179/115 152/183/117
f 34/186/33 33/185/32 98/157/106 97/156/105
f 33/185/32 37/171/37 142/174/113 137/122/78
f 138/187/79 139/184/118 84/164/108 79/163/80
f 4/177/4 6/180/7 114/181/116 106/178/114
f 126/149/100 120/170/111 92/165/109 90/150/101
f 131/154/103 129/136/89 82/139/92 88/155/104
f 112/188/119 160/189/120 107/190/121 108/191/122
f 159/192/123 158/193/124 110/194/125 111/195/126
f 157/196/127 112/197/119 108/198/122 109/199/128
f 160/189/120 113/179/115 106/178/114 107/190/121
f 161/200/129 159/192/123 111/195/126
f 158/193/124 157/201/127 109/202/128 110/194/125
f 111/195/126 110/194/125 118/203/130 119/204/131
f 109/202/128 108/205/122 116/206/132 117/207/133
f 107/190/121 106/178/114 114/181/116 115/208/134
f 161/200/129 111/195/126 119/204/131
f 110/194/125 109/202/128 117/207/133 118/203/130
f 108/191/122 107/190/121 115/208/134 116/209/132
f 161/200/129 119/204/131 125/210/135
f 118/203/130 117/207/133 123/211/136 124/212/137
f 116/209/132 115/208/134 121/213/138 122/214/62
f 119/204/131 118/203/130 124/212/137 125/210/135
f 117/207/133 116/206/132 122/215/62 123/211/136
f 115/208/134 114/181/116 120/170/111 121/213/138
f 124/212/137 123/211/136 128/137/90 129/136/89
f 122/214/62 121/213/138 126/149/100 127/148/93
f 125/210/135 124/212/137 129/136/89 130/216/139
f 123/211/136 122/215/62 127/140/93 128/137/90
f 121/213/138 120/170/111 126/149/100
f 161/200/129 125/210/135 130/216/139
f 130/216/139 129/136/89 131/154/103 132/217/140
f 161/200/129 130/216/139 132/217/140
f 161/200/129 132/217/140 134/218/141
f 132/217/140 131/154/103 133/133/86 134/218/141
f 161/200/129 134/218/141 136/219/142
f 134/218/141 133/133/86 135/132/85 136/219/142
f 136/219/142 135/132/85 140/142/95 141/220/143
f 161/200/129 136/219/142 141/220/143
f 141/220/143 140/142/95 145/221/144 146/222/145
f 139/184/118 138/187/79 143/223/63 144/224/146
f 161/200/129 141/220/143 146/222/145
f 140/142/95 139/184/118 144/224/146 145/221/144
f 138/123/79 137/122/78 142/174/113 143/225/63
f 161/200/129 146/222/145 151/226/147
f 145/221/144 144/224/146 149/227/148 150/228/149
f 143/225/63 142/174/113 147/173/112 148/229/150
f 146/222/145 145/221/144 150/228/149 151/226/147
f 144/224/146 143/223/63 148/230/150 149/227/148
f 161/200/129 151/226/147 156/231/151
f 150/228/149 149/227/148 154/232/152 155/233/153
f 148/229/150 147/173/112 152/183/117 153/234/154
f 151/226/147 150/228/149 155/233/153 156/231/151
f 149/227/148 148/230/150 153/235/154 154/232/152
f 156/231/151 155/233/153 158/193/124 159/192/123
f 154/232/152 153/235/154 112/236/119 157/201/127
f 160/189/120 152/183/117 113/179/115
f 161/200/129 156/231/151 159/192/123
f 155/233/153 154/232/152 157/201/127 158/193/124
f 153/234/154 152/183/117 160/189/120 112/188/119
s 0
f 68/237/19 67/238/19 48/239/19 66/240/19 60/241/19 58/242/19
