# Blender 5.0.1
# www.blender.org
mtllib model.mtl
o categonMesh
v 1.000000 -0.000000 -0.000000
v 0.707107 -0.000000 0.707107
v 0.382683 0.000000 0.923879
v 0.000000 0.000000 1.000000
v -0.382683 0.000000 0.923879
v -0.707107 0.000000 0.707107
v -1.000000 0.000000 0.000000
v 0.923879 0.270598 0.270598
v 0.707107 0.500000 0.500000
v 0.382683 0.653281 0.653281
v 0.000000 0.707107 0.707107
v -0.382683 0.653281 0.653281
v -0.707107 0.500000 0.500000
v -0.923879 0.270598 0.270598
v 0.923879 0.382683 -0.000000
v 0.707107 0.707107 -0.000000
v 0.326558 1.091527 -0.110075
v 0.056125 1.091527 -0.110075
v -0.382683 0.923879 0.000000
v -0.707107 0.707107 0.000000
v -0.923879 0.382683 0.000000
v 0.923879 0.270598 -0.270598
v 0.707107 0.500000 -0.500000
v 0.382683 0.653281 -0.653281
v 0.000000 0.707107 -0.707107
v -0.382683 0.653281 -0.653281
v -0.707107 0.500000 -0.500000
v -0.923879 0.270598 -0.270598
v 0.923879 -0.000000 -0.382683
v 0.707107 -0.000000 -0.707107
v 0.382683 0.000000 -0.923879
v -0.000000 0.000000 -1.000000
v -0.382683 0.000000 -0.923879
v -0.707107 0.000000 -0.707107
v -0.832610 0.000000 -0.586127
v 0.923879 -0.270598 -0.270598
v 0.707107 -0.500000 -0.500000
v 0.382683 -0.653281 -0.653281
v 0.000000 -0.707107 -0.707107
v -0.382683 -0.653281 -0.653281
v -0.707107 -0.500000 -0.500000
v -0.923879 -0.270598 -0.270598
v 0.923879 -0.382683 -0.000000
v 0.707107 -0.707107 -0.000000
v 0.326558 -1.091527 -0.130047
v 0.056125 -1.091527 -0.130047
v -0.382683 -0.923879 0.000000
v -0.707107 -0.707107 0.000000
v -0.923879 -0.382683 0.000000
v 0.923879 -0.270598 0.270598
v 0.707107 -0.500000 0.500000
v 0.382683 -0.653281 0.653281
v 0.000000 -0.707107 0.707107
v -0.382683 -0.653281 0.653281
v -0.707107 -0.500000 0.500000
v -0.923879 -0.270598 0.270598
v 0.923879 -0.000000 0.382683
v -0.923879 0.000000 0.382683
v -0.707107 -0.603553 -0.250000
v -0.382683 -0.788580 -0.326641
v 0.056125 -1.091527 -0.213264
v 0.326558 -1.091527 -0.206609
v 0.707107 -0.603553 -0.250000
v 0.923879 -0.326641 -0.135299
v -0.923879 -0.326641 -0.265634
v 0.707107 0.603553 -0.250000
v 0.923879 0.326641 -0.135299
v -0.923879 0.326641 -0.265634
v -0.707107 0.603553 -0.250000
v -0.382683 0.788580 -0.326641
v 0.056125 1.091527 -0.234900
v 0.326558 1.091527 -0.224917
v -0.627929 -0.589363 -0.338279
v -0.671916 -0.589363 -0.234655
v -0.704775 -0.425976 -0.370899
v -0.748762 -0.425976 -0.267274
v -1.015089 -0.597793 -0.457803
v -0.943399 -0.750219 -0.427372
v -0.658668 -0.524008 -0.351327
v -0.674037 -0.491331 -0.357851
v -0.718024 -0.491331 -0.254226
v -0.702655 -0.524008 -0.247702
v -1.208933 -0.562896 -0.552311
v -0.697090 -0.442315 -0.367637
v -0.741077 -0.442315 -0.264012
v -1.166782 -0.780798 -0.534418
v -0.666352 -0.507670 -0.354589
v -0.710339 -0.507670 -0.250964
v -1.031024 -0.941161 -0.476791
v -0.679601 -0.573024 -0.237917
v -0.635614 -0.573024 -0.341541
v -0.751712 0.371838 -0.390823
v -0.795699 0.371838 -0.287198
v -0.651526 0.519550 -0.348296
v -0.695513 0.519550 -0.244671
v -0.940630 0.728641 -0.426197
v -1.034095 0.590839 -0.465871
v -0.711638 0.430923 -0.373812
v -0.691601 0.460465 -0.365307
v -0.735588 0.460465 -0.261682
v -0.755625 0.430923 -0.270187
v -0.996113 0.936887 -0.461972
v -0.661545 0.504779 -0.352549
v -0.705532 0.504779 -0.248924
v -1.156695 0.798523 -0.530137
v -0.701619 0.445694 -0.369559
v -0.745606 0.445694 -0.265935
v -1.228057 0.594912 -0.560429
v -0.785680 0.386609 -0.282946
v -0.741693 0.386609 -0.386570
v 0.382683 0.923879 -0.000000
v 0.000000 1.000000 0.000000
v 0.382683 0.788580 -0.326641
v 0.000000 0.853553 -0.353553
v 0.382683 -0.923879 -0.000000
v 0.000000 -1.000000 0.000000
v 0.382683 -0.788580 -0.326641
v 0.000000 -0.853553 -0.353553
v 0.191342 1.391527 -0.169992
v 0.191342 -1.391527 -0.169992
vn -0.3502 -0.0000 0.9367
vn -0.0000 -0.0000 1.0000
vn -0.0000 0.5829 0.8126
vn -0.3930 0.5383 0.7455
vn 0.3502 -0.0000 0.9367
vn 0.6568 -0.0000 0.7541
vn 0.7241 0.4132 0.5522
vn 0.3930 0.5383 0.7455
vn 0.8814 -0.0000 0.4724
vn 1.0000 -0.0000 -0.0000
vn 0.9342 0.2380 0.2658
vn -1.0000 -0.0000 -0.0056
vn -0.8814 -0.0000 0.4724
vn -0.9342 0.2380 0.2658
vn -0.6568 -0.0000 0.7541
vn -0.7241 0.4132 0.5522
vn -0.9433 0.3316 0.0126
vn -0.3947 0.9188 -0.0000
vn -0.7184 0.6954 0.0165
vn 0.5594 0.7963 0.2304
vn -0.2226 0.9373 0.2683
vn 0.9412 0.3379 -0.0000
vn 0.7276 0.6860 -0.0000
vn 0.7028 0.6573 -0.2722
vn 0.9352 0.3270 -0.1355
vn 0.9342 0.2380 -0.2658
vn 0.7241 0.4132 -0.5522
vn -0.9141 0.3673 -0.1722
vn -0.6882 0.6654 -0.2890
vn -0.6905 0.4471 -0.5686
vn -0.9527 0.1500 -0.2642
vn -0.3705 0.8581 -0.3555
vn -0.1716 0.7991 -0.5761
vn -0.0000 0.5829 -0.8126
vn -0.3930 0.5383 -0.7455
vn 0.5134 0.6895 -0.5108
vn 0.3930 0.5383 -0.7455
vn -0.6487 -0.0000 -0.7610
vn -0.8306 -0.0000 -0.5569
vn -0.0000 -0.0000 -1.0000
vn -0.3502 -0.0000 -0.9367
vn 0.6568 -0.0000 -0.7541
vn 0.3502 -0.0000 -0.9367
vn 0.8814 -0.0000 -0.4724
vn 0.9342 -0.2380 -0.2658
vn -0.9527 -0.1500 -0.2642
vn -0.3930 -0.5383 -0.7455
vn -0.6905 -0.4471 -0.5686
vn 0.3930 -0.5383 -0.7455
vn -0.0000 -0.5829 -0.8126
vn 0.7241 -0.4132 -0.5522
vn -0.6882 -0.6654 -0.2890
vn -0.3705 -0.8581 -0.3555
vn -0.3947 -0.9188 -0.0000
vn -0.7184 -0.6954 0.0165
vn -0.7237 -0.2435 -0.6457
vn 0.7831 -0.1988 -0.5892
vn -0.9801 -0.1985 -0.0082
vn 0.7028 -0.6573 -0.2722
vn 0.9352 -0.3270 -0.1355
vn 0.9412 -0.3379 -0.0000
vn 0.7276 -0.6860 -0.0000
vn -0.9141 -0.3673 -0.1722
vn -0.9433 -0.3316 0.0126
vn -0.1529 -0.8147 -0.5594
vn -0.1996 -0.9469 0.2522
vn 0.4976 -0.7093 -0.4993
vn 0.5425 -0.8112 0.2181
vn -0.7241 -0.4132 0.5522
vn -0.9342 -0.2380 0.2658
vn -0.0000 -0.5829 0.8126
vn -0.3930 -0.5383 0.7455
vn 0.7241 -0.4132 0.5522
vn 0.3930 -0.5383 0.7455
vn 0.9342 -0.2380 0.2658
vn -0.7012 0.2358 -0.6728
vn -0.8072 0.2833 0.5179
vn 0.9769 0.1919 0.0943
vn 0.5868 -0.7705 0.2491
vn 0.8197 0.4550 0.3479
vn 0.2767 0.0959 -0.9562
vn 0.2648 0.0976 -0.9593
vn 0.3379 0.0362 -0.9405
vn 0.3339 0.0396 -0.9418
vn 0.4283 0.0760 -0.9005
vn -0.3721 -0.9147 -0.1579
vn -0.5263 -0.0322 0.8497
vn -0.5266 -0.0325 0.8495
vn -0.4355 -0.0772 0.8969
vn -0.4497 -0.0402 0.8923
vn -0.4064 -0.1667 0.8984
vn -0.4125 -0.1664 0.8956
vn -0.5643 -0.1994 0.8011
vn -0.4896 -0.1598 0.8572
vn -0.4654 0.0543 0.8834
vn -0.4535 0.0076 0.8912
vn -0.5076 -0.0239 0.8612
vn -0.5433 0.0221 0.8392
vn -0.5542 0.0245 0.8320
vn 0.8197 0.4550 0.3480
vn 0.3419 0.0888 -0.9355
vn 0.3390 0.0895 -0.9365
vn 0.5320 0.1463 -0.8340
vn 0.4258 0.1076 -0.8984
vn 0.7411 -0.5932 0.3146
vn 0.3922 -0.1120 -0.9131
vn 0.2376 -0.1252 -0.9633
vn 0.4009 -0.1171 -0.9086
vn 0.4185 -0.1835 -0.8895
vn 0.3964 -0.1684 -0.9025
vn 0.4316 -0.1230 -0.8936
vn 0.4399 -0.1223 -0.8897
vn 0.3374 -0.1305 -0.9323
vn 0.1771 -0.1574 -0.9715
vn -0.5225 0.0656 0.8501
vn -0.5215 0.0655 0.8508
vn -0.4454 0.0725 0.8924
vn -0.4126 0.1093 0.9043
vn 0.3738 0.1680 -0.9122
vn 0.4210 0.1728 -0.8904
vn 0.4232 0.1185 -0.8983
vn 0.4182 0.1198 -0.9004
vn 0.2404 0.1355 -0.9612
vn -0.2282 0.9688 -0.0969
vn -0.4518 0.1322 0.8823
vn -0.5597 0.1589 0.8133
vn -0.4379 0.1425 0.8876
vn -0.3991 0.2042 0.8939
vn -0.4264 0.1881 0.8848
vn -0.4583 -0.1276 0.8796
vn -0.5689 -0.1378 0.8108
vn -0.4950 -0.1640 0.8533
vn -0.4539 -0.1709 0.8745
vn -0.4559 -0.1285 0.8807
vn 0.4541 0.1144 -0.8835
vn 0.4440 0.1155 -0.8886
vn 0.1863 0.1643 -0.9687
vn 0.3452 0.1237 -0.9304
vn 0.3414 -0.1049 -0.9340
vn 0.4116 -0.0533 -0.9098
vn 0.3413 -0.0166 -0.9398
vn 0.2633 -0.0675 -0.9624
vn 0.2532 -0.0673 -0.9651
vn 0.3329 -0.0695 -0.9404
vn 0.3347 -0.0684 -0.9398
vn 0.4178 -0.0877 -0.9043
vn 0.5083 -0.1347 -0.8506
vn -0.3927 0.1691 0.9040
vn -0.3846 0.1691 0.9075
vn -0.4779 0.1632 0.8631
vn -0.5402 0.2081 0.8154
vn 0.6957 0.6548 0.2953
vn -0.4891 0.0573 0.8703
vn -0.4527 0.0249 0.8913
vn -0.5458 0.0142 0.8378
vn -0.5546 0.0125 0.8320
vn -0.4909 0.0598 0.8691
vn 0.8426 0.2348 0.4846
vn 0.7691 0.1905 -0.6101
vn -0.8237 -0.2872 0.4889
vn 0.8575 -0.2367 0.4568
vt 0.799924 0.729492
vt 0.780445 0.729492
vt 0.783556 0.707141
vt 0.806703 0.714265
vt 0.460025 0.908624
vt 0.460025 0.874555
vt 0.538607 0.842005
vt 0.562697 0.866095
vt 0.460025 0.823567
vt 0.460025 0.763423
vt 0.502553 0.805951
vt 0.857880 0.729492
vt 0.835245 0.729492
vt 0.840736 0.724892
vt 0.817288 0.729492
vt 0.824777 0.720139
vt 0.746540 0.729492
vt 0.751908 0.694855
vt 0.857079 0.720203
vt 0.836277 0.681752
vt 0.851317 0.702925
vt 0.784080 0.640784
vt 0.812548 0.660345
vt 0.520169 0.763423
vt 0.571156 0.763423
vt 0.605225 0.763423
vt 0.148757 0.428373
vt 0.124173 0.403768
vt 0.140811 0.400047
vt 0.173578 0.410726
vt 0.376093 0.428827
vt 0.341506 0.442756
vt 0.320059 0.418609
vt 0.361893 0.415116
vt 0.297174 0.461205
vt 0.242183 0.469389
vt 0.244836 0.424576
vt 0.282510 0.423754
vt 0.188568 0.454477
vt 0.207999 0.419774
vt 0.105847 0.406859
vt 0.104543 0.388928
vt 0.869610 0.719264
vt 0.883059 0.721309
vt 0.306266 0.397347
vt 0.351237 0.399225
vt 0.246202 0.394840
vt 0.274460 0.396020
vt 0.188366 0.392426
vt 0.218412 0.393680
vt 0.152600 0.390933
vt 0.894495 0.729492
vt 0.141612 0.380870
vt 0.883059 0.737675
vt 0.284794 0.369053
vt 0.321783 0.377309
vt 0.210210 0.366809
vt 0.247319 0.365094
vt 0.175154 0.372958
vt 0.363181 0.384277
vt 0.871599 0.765893
vt 0.858325 0.796279
vt 0.836277 0.777232
vt 0.851317 0.756059
vt 0.825481 0.822084
vt 0.803933 0.836325
vt 0.773244 0.856795
vt 0.749199 0.861973
vt 0.741504 0.851468
vt 0.759027 0.837385
vt 0.869610 0.739720
vt 0.857079 0.738781
vt 0.833216 0.823030
vt 0.812548 0.798639
vt 0.802655 0.843561
vt 0.784080 0.818200
vt 0.107336 0.371168
vt 0.125341 0.375775
vt 0.824777 0.738845
vt 0.840736 0.734092
vt 0.783556 0.751844
vt 0.806703 0.744719
vt 0.314824 0.763423
vt 0.348893 0.763423
vt 0.381443 0.842005
vt 0.357352 0.866095
vt 0.399881 0.763423
vt 0.417496 0.805951
vt 0.751908 0.764129
vt 0.151890 0.353304
vt 0.193738 0.330608
vt 0.248410 0.320215
vt 0.302527 0.332954
vt 0.345168 0.355033
vt 0.378476 0.371796
vt 0.825481 0.636900
vt 0.811617 0.653519
vt 0.858325 0.662706
vt 0.871599 0.693091
vt 0.759027 0.621600
vt 0.773244 0.602189
vt 0.802655 0.615424
vt 0.833216 0.635954
vt 0.741504 0.607516
vt 0.749199 0.597011
vt 0.274670 0.050439
vt 0.192127 0.141237
vt 0.192127 0.050439
vt 0.109584 0.215525
vt 0.192127 0.215525
vt 0.192127 0.223780
vt 0.109584 0.223780
vt 0.274670 0.215525
vt 0.274670 0.223780
vt 0.201216 0.187688
vt 0.274670 0.190762
vt 0.315942 0.050439
vt 0.324196 0.061687
vt 0.324196 0.132982
vt 0.315942 0.132982
vt 0.348959 0.132982
vt 0.348959 0.050439
vt 0.357213 0.132982
vt 0.192127 0.190762
vt 0.109584 0.190763
vt 0.192127 0.182508
vt 0.201369 0.177090
vt 0.274670 0.174254
vt 0.274670 0.182508
vt 0.192127 0.149491
vt 0.192127 0.174254
vt 0.109584 0.174254
vt 0.109584 0.149491
vt 0.109584 0.182508
vt 0.192127 0.182508
vt 0.109584 0.141237
vt 0.192127 0.141237
vt 0.274670 0.149491
vt 0.192127 0.149491
vt 0.274670 0.141237
vt 0.307687 0.061687
vt 0.307687 0.132982
vt 0.192127 0.050439
vt 0.282924 0.132982
vt 0.274670 0.132982
vt 0.282924 0.050439
vt 0.791451 0.639429
vt 0.803934 0.622659
vt 0.811617 0.805465
vt 0.791451 0.819555
s 1
g categonMesh_categonMat
usemtl categonMat
f 5/1/1 4/2/2 11/3/3 12/4/4
f 3/5/5 2/6/6 9/7/7 10/8/8
f 57/9/9 1/10/10 8/11/11
f 7/12/12 58/13/13 14/14/14
f 6/15/15 5/1/1 12/4/4 13/16/16
f 4/2/2 3/17/5 10/18/8 11/3/3
f 2/6/6 57/9/9 8/11/11 9/7/7
f 58/13/13 6/15/15 13/16/16 14/14/14
f 7/12/12 14/14/14 21/19/17
f 13/16/16 12/4/4 19/20/18 20/21/19
f 11/3/3 10/18/8 111/22/20 112/23/21
f 9/7/7 8/11/11 15/24/22 16/25/23
f 14/14/14 13/16/16 20/21/19 21/19/17
f 12/4/4 11/3/3 112/23/21 19/20/18
f 10/8/8 9/7/7 16/25/23 111/26/20
f 8/11/11 1/10/10 15/24/22
f 66/27/24 67/28/25 22/29/26 23/30/27
f 68/31/28 69/32/29 27/33/30 28/34/31
f 70/35/32 114/36/33 25/37/34 26/38/35
f 113/39/36 66/27/24 23/30/27 24/40/37
f 15/41/22 1/42/10 22/29/26 67/28/25
f 7/12/12 21/19/17 68/43/28 28/44/31
f 69/32/29 70/35/32 26/38/35 27/33/30
f 114/36/33 113/39/36 24/40/37 25/37/34
f 28/34/31 27/33/30 34/45/38 35/46/39
f 26/38/35 25/37/34 32/47/40 33/48/41
f 24/40/37 23/30/27 30/49/42 31/50/43
f 22/29/26 1/42/10 29/51/44
f 7/12/12 28/44/31 35/52/39
f 27/33/30 26/38/35 33/48/41 34/45/38
f 25/37/34 24/40/37 31/50/43 32/47/40
f 23/30/27 22/29/26 29/51/44 30/49/42
f 29/51/44 1/42/10 36/53/45
f 7/12/12 35/52/39 42/54/46
f 34/45/38 33/48/41 40/55/47 41/56/48
f 32/47/40 31/50/43 38/57/49 39/58/50
f 30/49/42 29/51/44 36/53/45 37/59/51
f 35/46/39 34/45/38 41/56/48 42/60/46
f 33/48/41 32/47/40 39/58/50 40/55/47
f 31/50/43 30/49/42 37/59/51 38/57/49
f 59/61/52 60/62/53 47/63/54 48/64/55
f 61/65/56 62/66/57 120/65/58
f 63/67/59 64/68/60 43/69/61 44/70/62
f 65/71/63 59/61/52 48/64/55 49/72/64
f 60/62/53 118/73/65 116/74/66 47/63/54
f 117/75/67 63/67/59 44/70/62 115/76/68
f 36/53/45 1/42/10 43/77/61 64/78/60
f 7/12/12 42/54/46 65/71/63 49/72/64
f 49/72/64 48/64/55 55/79/69 56/80/70
f 47/63/54 116/74/66 53/81/71 54/82/72
f 115/83/68 44/84/62 51/85/73 52/86/74
f 43/87/61 1/10/10 50/88/75
f 7/12/12 49/72/64 56/80/70
f 48/64/55 47/63/54 54/82/72 55/79/69
f 116/74/66 115/76/68 52/89/74 53/81/71
f 44/84/62 43/87/61 50/88/75 51/85/73
f 54/82/72 53/81/71 4/2/2 5/1/1
f 52/86/74 51/85/73 2/6/6 3/5/5
f 50/88/75 1/10/10 57/9/9
f 7/12/12 56/80/70 58/13/13
f 55/79/69 54/82/72 5/1/1 6/15/15
f 53/81/71 52/89/74 3/17/5 4/2/2
f 51/85/73 50/88/75 57/9/9 2/6/6
f 56/80/70 55/79/69 6/15/15 58/13/13
f 38/57/49 37/59/51 63/90/59 117/91/67
f 40/55/47 39/58/50 118/92/65 60/93/53
f 42/60/46 41/56/48 59/94/52 65/95/63
f 37/59/51 36/53/45 64/78/60 63/90/59
f 39/58/50 38/57/49 117/91/67 118/92/65
f 41/56/48 40/55/47 60/93/53 59/94/52
f 71/96/76 18/97/77 119/96/78
f 20/21/19 19/20/18 70/98/32 69/99/29
f 111/22/20 16/100/23 66/101/24 113/102/36
f 19/20/18 112/23/21 114/103/33 70/98/32
f 21/19/17 20/21/19 69/99/29 68/43/28
f 16/100/23 15/104/22 67/105/25 66/101/24
s 0
f 74/106/79 89/107/79 73/108/79
f 91/109/80 90/110/80 74/111/80 73/112/80
f 91/113/81 73/114/82 89/110/83 78/115/84 79/116/85
f 93/106/86 108/107/86 92/108/86
f 105/117/87 97/118/88 101/119/89 107/120/90
f 86/117/91 78/118/92 82/119/93 88/120/94
f 90/121/95 82/119/96 78/118/97 89/122/98 74/123/99
f 82/124/100 90/110/100 91/109/100 79/125/100
f 86/126/101 77/127/102 80/128/103 87/129/104
f 85/130/80 81/131/80 80/132/80 84/133/80
f 87/134/100 88/135/100 82/124/100 79/125/100
f 110/109/105 109/110/105 93/111/105 92/112/105
f 75/136/80 76/137/80 85/130/80 84/133/80
f 84/138/106 80/128/107 77/127/108 83/139/109 75/140/110
f 80/132/80 81/131/80 88/135/80 87/134/80
f 78/115/111 86/126/112 87/129/113 79/116/114
f 77/141/115 86/117/116 88/120/117 81/142/118
f 110/113/119 92/114/120 108/110/121 97/115/122 98/116/123
f 83/143/124 76/137/124 75/136/124
f 109/121/125 101/119/126 97/118/127 108/122/128 93/123/129
f 77/141/130 81/142/131 85/144/132 76/145/133 83/146/134
f 101/124/105 109/110/105 110/109/105 98/125/105
f 105/126/135 96/127/136 99/128/137 106/129/138
f 104/130/105 100/131/105 99/132/105 103/133/105
f 106/134/105 107/135/105 101/124/105 98/125/105
f 94/136/105 95/137/105 104/130/105 103/133/105
f 103/138/139 99/128/140 96/127/141 102/139/142 94/140/143
f 99/132/105 100/131/105 107/135/105 106/134/105
f 97/115/144 105/126/145 106/129/146 98/116/147
f 96/141/148 105/117/149 107/120/150 100/142/151
f 102/143/152 95/137/152 94/136/152
f 96/141/153 100/142/154 104/144/155 95/145/156 102/146/157
s 1
f 17/147/158 18/97/77 112/23/21 111/22/20
f 72/148/159 17/147/158 111/22/20 113/102/36
f 18/97/77 71/96/76 114/103/33 112/23/21
f 71/96/76 72/148/159 113/102/36 114/103/33
f 46/149/160 45/150/161 115/76/68 116/74/66
f 45/150/161 62/66/57 117/75/67 115/76/68
f 61/65/56 46/149/160 116/74/66 118/73/65
f 62/66/57 61/65/56 118/73/65 117/75/67
f 18/97/77 17/147/158 119/97/78
f 72/148/159 71/96/76 119/148/78
f 17/147/158 72/148/159 119/147/78
f 62/66/57 45/150/161 120/66/58
f 46/149/160 61/65/56 120/149/58
f 45/150/161 46/149/160 120/150/58
