# Blender 5.0.1
# www.blender.org
mtllib model.mtl
o nertsalMesh
v -0.195090 0.980785 0.000000
v 0.000000 1.000000 -0.000000
v -0.382683 0.923879 0.000000
v -0.195090 0.980785 -0.000000
v -0.555570 0.831470 -0.000000
v -0.382683 0.923879 -0.000000
v -0.707107 0.707107 0.000000
v -0.555570 0.831470 0.000000
v -0.831470 0.555570 0.000000
v -0.707107 0.707107 0.000000
v -0.923879 0.382683 0.000000
v -0.831470 0.555570 0.000000
v -0.980785 0.195090 0.000000
v -0.923879 0.382683 0.000000
v -1.000000 0.000000 0.000000
v -0.980785 0.195090 0.000000
v -0.980785 -0.195090 0.000000
v -1.000000 0.000000 0.000000
v -0.923879 -0.382684 0.000000
v -0.980785 -0.195090 0.000000
v -0.831470 -0.555570 0.000000
v -0.923879 -0.382684 0.000000
v -0.707107 -0.707107 -0.000000
v -0.831470 -0.555570 0.000000
v -0.555570 -0.831470 -0.000000
v -0.707107 -0.707107 0.000000
v -0.382683 -0.923880 -0.000000
v -0.555570 -0.831470 0.000000
v -0.195090 -0.980785 -0.000000
v -0.382683 -0.923880 0.000000
v -0.000000 -1.000000 -0.000000
v -0.195090 -0.980785 0.000000
v 0.195090 -0.980785 -0.000000
v 0.000000 -1.000000 0.000000
v 0.382683 -0.923880 -0.000000
v 0.195090 -0.980785 0.000000
v 0.555570 -0.831470 -0.000000
v 0.382683 -0.923880 -0.000000
v 0.707107 -0.707107 -0.000000
v 0.555570 -0.831470 -0.000000
v 0.831470 -0.555570 0.000000
v 0.707107 -0.707107 -0.000000
v 0.923879 -0.382684 0.000000
v 0.831470 -0.555570 -0.000000
v 0.980785 -0.195090 0.000000
v 0.923879 -0.382684 -0.000000
v 1.000000 0.000000 0.000000
v 0.980785 -0.195090 -0.000000
v 0.980785 0.195090 0.000000
v 1.000000 0.000000 -0.000000
v 0.923879 0.382683 0.000000
v 0.980785 0.195090 -0.000000
v 0.831470 0.555570 0.000000
v 0.923879 0.382683 -0.000000
v 0.707107 0.707107 0.000000
v 0.831470 0.555570 -0.000000
v 0.555570 0.831470 -0.000000
v 0.707107 0.707107 -0.000000
v 0.382683 0.923879 0.000000
v 0.555570 0.831470 -0.000000
v 0.195090 0.980785 0.000000
v 0.382683 0.923879 -0.000000
v -0.000000 1.000000 0.000000
v 0.195090 0.980785 -0.000000
v 0.137950 0.980785 -0.137950
v -0.000000 1.000000 -0.000000
v 0.270598 0.923879 -0.270598
v 0.137950 0.980785 -0.137950
v 0.392847 0.831470 -0.392848
v 0.270598 0.923879 -0.270598
v 0.500000 0.707107 -0.500000
v 0.392847 0.831470 -0.392848
v 0.587938 0.555570 -0.587938
v 0.500000 0.707107 -0.500000
v 0.653281 0.382683 -0.653282
v 0.587938 0.555570 -0.587938
v 0.693520 0.195090 -0.693520
v 0.653281 0.382683 -0.653282
v 0.707107 0.000000 -0.707107
v 0.693520 0.195090 -0.693520
v 0.693520 -0.195090 -0.693520
v 0.707107 0.000000 -0.707107
v 0.653281 -0.382684 -0.653282
v 0.693520 -0.195090 -0.693520
v 0.587938 -0.555570 -0.587938
v 0.653281 -0.382684 -0.653282
v 0.500000 -0.707107 -0.500000
v 0.587938 -0.555570 -0.587938
v 0.392847 -0.831470 -0.392848
v 0.500000 -0.707107 -0.500000
v 0.270598 -0.923880 -0.270598
v 0.392847 -0.831470 -0.392848
v 0.137950 -0.980785 -0.137950
v 0.270598 -0.923880 -0.270598
v -0.000000 -1.000000 0.000000
v 0.137950 -0.980785 -0.137950
v -0.137950 -0.980785 0.137950
v -0.000000 -1.000000 -0.000000
v -0.270598 -0.923880 0.270598
v -0.137950 -0.980785 0.137950
v -0.392847 -0.831470 0.392848
v -0.270598 -0.923880 0.270598
v -0.500000 -0.707107 0.500000
v -0.392847 -0.831470 0.392848
v -0.587938 -0.555570 0.587938
v -0.500000 -0.707107 0.500000
v -0.653281 -0.382684 0.653281
v -0.587938 -0.555570 0.587938
v -0.693520 -0.195090 0.693520
v -0.653281 -0.382684 0.653282
v -0.707107 0.000000 0.707107
v -0.693520 -0.195090 0.693520
v -0.693520 0.195090 0.693520
v -0.707107 0.000000 0.707107
v -0.653281 0.382683 0.653281
v -0.693520 0.195090 0.693520
v -0.587938 0.555570 0.587938
v -0.653281 0.382683 0.653282
v -0.500000 0.707107 0.500000
v -0.587938 0.555570 0.587938
v -0.392847 0.831470 0.392848
v -0.500000 0.707107 0.500000
v -0.270598 0.923879 0.270598
v -0.392847 0.831470 0.392848
v -0.137950 0.980785 0.137950
v -0.270598 0.923879 0.270598
v -0.000000 1.000000 -0.000000
v -0.137950 0.980785 0.137950
v -0.000000 0.980785 -0.195090
v 0.000000 1.000000 -0.000000
v -0.000000 0.923879 -0.382683
v -0.000000 0.980785 -0.195090
v -0.000000 0.831470 -0.555570
v -0.000000 0.923879 -0.382683
v -0.000000 0.707107 -0.707107
v -0.000000 0.831470 -0.555570
v -0.000000 0.555570 -0.831470
v -0.000000 0.707107 -0.707107
v -0.000000 0.382683 -0.923880
v -0.000000 0.555570 -0.831470
v -0.000000 0.195090 -0.980785
v -0.000000 0.382683 -0.923880
v -0.000000 0.000000 -1.000000
v -0.000000 0.195090 -0.980785
v -0.000000 -0.195090 -0.980785
v -0.000000 0.000000 -1.000000
v -0.000000 -0.382684 -0.923880
v -0.000000 -0.195090 -0.980785
v -0.000000 -0.555570 -0.831470
v -0.000000 -0.382684 -0.923880
v -0.000000 -0.707107 -0.707107
v -0.000000 -0.555570 -0.831470
v -0.000000 -0.831470 -0.555570
v -0.000000 -0.707107 -0.707107
v 0.000000 -0.923880 -0.382683
v -0.000000 -0.831470 -0.555570
v -0.000000 -0.980785 -0.195090
v -0.000000 -0.923880 -0.382683
v 0.000000 -1.000000 -0.000000
v -0.000000 -0.980785 -0.195090
v 0.000000 -0.980785 0.195090
v -0.000000 -1.000000 -0.000000
v 0.000000 -0.923880 0.382683
v -0.000000 -0.980785 0.195090
v 0.000000 -0.831470 0.555570
v 0.000000 -0.923880 0.382683
v 0.000000 -0.707107 0.707107
v 0.000000 -0.831470 0.555570
v 0.000000 -0.555570 0.831469
v 0.000000 -0.707107 0.707107
v 0.000000 -0.382684 0.923879
v 0.000000 -0.555570 0.831469
v 0.000000 -0.195090 0.980785
v 0.000000 -0.382684 0.923879
v 0.000000 0.000000 1.000000
v 0.000000 -0.195090 0.980785
v 0.000000 0.195090 0.980785
v 0.000000 0.000000 1.000000
v 0.000000 0.382683 0.923879
v 0.000000 0.195090 0.980785
v 0.000000 0.555570 0.831469
v 0.000000 0.382683 0.923879
v 0.000000 0.707107 0.707107
v 0.000000 0.555570 0.831469
v 0.000000 0.831470 0.555570
v 0.000000 0.707107 0.707107
v 0.000000 0.923879 0.382683
v 0.000000 0.831470 0.555570
v -0.000000 0.980785 0.195090
v 0.000000 0.923879 0.382683
v -0.000000 1.000000 -0.000000
v 0.000000 0.980785 0.195090
v -0.137950 0.980785 -0.137950
v 0.000000 1.000000 -0.000000
v -0.270598 0.923879 -0.270598
v -0.137950 0.980785 -0.137950
v -0.392847 0.831470 -0.392847
v -0.270598 0.923879 -0.270598
v -0.500000 0.707107 -0.500000
v -0.392848 0.831470 -0.392847
v -0.587938 0.555570 -0.587938
v -0.500000 0.707107 -0.500000
v -0.653282 0.382683 -0.653281
v -0.587938 0.555570 -0.587938
v -0.693520 0.195090 -0.693520
v -0.653282 0.382683 -0.653281
v -0.707107 0.000000 -0.707107
v -0.693520 0.195090 -0.693520
v -0.693520 -0.195090 -0.693520
v -0.707107 0.000000 -0.707107
v -0.653282 -0.382684 -0.653281
v -0.693520 -0.195090 -0.693520
v -0.587938 -0.555570 -0.587938
v -0.653282 -0.382684 -0.653281
v -0.500000 -0.707107 -0.500000
v -0.587938 -0.555570 -0.587938
v -0.392847 -0.831470 -0.392847
v -0.500000 -0.707107 -0.500000
v -0.270598 -0.923880 -0.270598
v -0.392848 -0.831470 -0.392847
v -0.137950 -0.980785 -0.137950
v -0.270598 -0.923880 -0.270598
v 0.000000 -1.000000 -0.000000
v -0.137950 -0.980785 -0.137950
v 0.137950 -0.980785 0.137950
v -0.000000 -1.000000 0.000000
v 0.270598 -0.923880 0.270598
v 0.137950 -0.980785 0.137950
v 0.392848 -0.831470 0.392847
v 0.270598 -0.923880 0.270598
v 0.500000 -0.707107 0.500000
v 0.392848 -0.831470 0.392847
v 0.587938 -0.555570 0.587938
v 0.500000 -0.707107 0.500000
v 0.653281 -0.382684 0.653281
v 0.587938 -0.555570 0.587938
v 0.693520 -0.195090 0.693520
v 0.653282 -0.382684 0.653281
v 0.707107 0.000000 0.707107
v 0.693520 -0.195090 0.693520
v 0.693520 0.195090 0.693520
v 0.707107 0.000000 0.707106
v 0.653281 0.382683 0.653281
v 0.693520 0.195090 0.693520
v 0.587938 0.555570 0.587938
v 0.653282 0.382683 0.653281
v 0.500000 0.707107 0.500000
v 0.587938 0.555570 0.587938
v 0.392848 0.831470 0.392847
v 0.500000 0.707107 0.500000
v 0.270598 0.923879 0.270598
v 0.392848 0.831470 0.392847
v 0.137950 0.980785 0.137950
v 0.270598 0.923879 0.270598
v -0.000000 1.000000 0.000000
v 0.137950 0.980785 0.137950
v -0.195090 -0.000000 0.980785
v 0.000000 -0.000000 1.000000
v -0.382683 -0.000000 0.923879
v -0.195090 -0.000000 0.980785
v -0.555570 -0.000000 0.831470
v -0.382683 -0.000000 0.923879
v -0.707107 -0.000000 0.707107
v -0.555570 -0.000000 0.831470
v -0.831469 -0.000000 0.555570
v -0.707107 -0.000000 0.707107
v -0.923879 -0.000000 0.382683
v -0.831469 -0.000000 0.555570
v -0.980785 -0.000000 0.195090
v -0.923879 -0.000000 0.382683
v -1.000000 -0.000000 -0.000000
v -0.980785 -0.000000 0.195090
v -0.980785 -0.000000 -0.195090
v -1.000000 -0.000000 -0.000000
v -0.923879 -0.000000 -0.382684
v -0.980785 -0.000000 -0.195090
v -0.831469 -0.000000 -0.555570
v -0.923879 -0.000000 -0.382684
v -0.707107 0.000000 -0.707107
v -0.831469 -0.000000 -0.555570
v -0.555570 0.000000 -0.831470
v -0.707107 -0.000000 -0.707107
v -0.382683 0.000000 -0.923880
v -0.555570 -0.000000 -0.831470
v -0.195090 0.000000 -0.980785
v -0.382683 -0.000000 -0.923880
v -0.000000 0.000000 -1.000000
v -0.195090 -0.000000 -0.980785
v 0.195090 0.000000 -0.980785
v 0.000000 -0.000000 -1.000000
v 0.382683 0.000000 -0.923880
v 0.195090 0.000000 -0.980785
v 0.555570 0.000000 -0.831470
v 0.382683 0.000000 -0.923880
v 0.707107 0.000000 -0.707107
v 0.555570 0.000000 -0.831470
v 0.831469 -0.000000 -0.555570
v 0.707107 0.000000 -0.707107
v 0.923879 -0.000000 -0.382684
v 0.831469 0.000000 -0.555570
v 0.980785 -0.000000 -0.195090
v 0.923879 0.000000 -0.382684
v 1.000000 -0.000000 -0.000000
v 0.980785 0.000000 -0.195090
v 0.980785 -0.000000 0.195090
v 1.000000 0.000000 -0.000000
v 0.923879 -0.000000 0.382683
v 0.980785 0.000000 0.195090
v 0.831469 -0.000000 0.555570
v 0.923879 0.000000 0.382683
v 0.707107 -0.000000 0.707107
v 0.831469 0.000000 0.555570
v 0.555570 -0.000000 0.831470
v 0.707107 0.000000 0.707107
v 0.382683 -0.000000 0.923879
v 0.555570 -0.000000 0.831470
v 0.195090 -0.000000 0.980785
v 0.382683 -0.000000 0.923879
v -0.000000 -0.000000 1.000000
v 0.195090 -0.000000 0.980785
v 0.137950 0.137950 0.980785
v -0.000000 -0.000000 1.000000
v 0.270598 0.270598 0.923880
v 0.137950 0.137950 0.980785
v 0.392847 0.392847 0.831470
v 0.270598 0.270598 0.923880
v 0.500000 0.500000 0.707107
v 0.392847 0.392847 0.831470
v 0.587938 0.587938 0.555570
v 0.500000 0.500000 0.707107
v 0.653281 0.653282 0.382683
v 0.587938 0.587938 0.555570
v 0.693520 0.693520 0.195090
v 0.653281 0.653282 0.382683
v 0.707107 0.707107 0.000000
v 0.693520 0.693520 0.195090
v 0.693520 0.693520 -0.195090
v 0.707107 0.707107 0.000000
v 0.653281 0.653281 -0.382683
v 0.693520 0.693520 -0.195090
v 0.587938 0.587938 -0.555570
v 0.653281 0.653282 -0.382683
v 0.500000 0.500000 -0.707107
v 0.587938 0.587938 -0.555570
v 0.392847 0.392847 -0.831470
v 0.500000 0.500000 -0.707107
v 0.270598 0.270598 -0.923880
v 0.392847 0.392848 -0.831470
v 0.137950 0.137950 -0.980785
v 0.270598 0.270598 -0.923880
v -0.000000 0.000000 -1.000000
v 0.137950 0.137950 -0.980785
v -0.137950 -0.137950 -0.980785
v -0.000000 0.000000 -1.000000
v -0.270598 -0.270598 -0.923880
v -0.137950 -0.137950 -0.980785
v -0.392847 -0.392848 -0.831470
v -0.270598 -0.270598 -0.923880
v -0.500000 -0.500000 -0.707107
v -0.392847 -0.392848 -0.831470
v -0.587938 -0.587938 -0.555570
v -0.500000 -0.500000 -0.707107
v -0.653281 -0.653282 -0.382684
v -0.587938 -0.587938 -0.555570
v -0.693520 -0.693520 -0.195090
v -0.653281 -0.653282 -0.382684
v -0.707107 -0.707107 -0.000000
v -0.693520 -0.693520 -0.195090
v -0.693520 -0.693520 0.195090
v -0.707106 -0.707107 -0.000000
v -0.653281 -0.653282 0.382683
v -0.693520 -0.693520 0.195090
v -0.587938 -0.587938 0.555570
v -0.653281 -0.653282 0.382683
v -0.500000 -0.500000 0.707107
v -0.587938 -0.587938 0.555570
v -0.392847 -0.392848 0.831470
v -0.500000 -0.500000 0.707107
v -0.270598 -0.270598 0.923880
v -0.392847 -0.392848 0.831470
v -0.137950 -0.137950 0.980785
v -0.270598 -0.270598 0.923879
v -0.000000 -0.000000 1.000000
v -0.137950 -0.137950 0.980785
v -0.000000 0.195090 0.980785
v 0.000000 -0.000000 1.000000
v -0.000000 0.382683 0.923880
v -0.000000 0.195090 0.980785
v -0.000000 0.555570 0.831469
v -0.000000 0.382683 0.923880
v -0.000000 0.707107 0.707107
v -0.000000 0.555570 0.831469
v -0.000000 0.831469 0.555570
v -0.000000 0.707107 0.707107
v -0.000000 0.923879 0.382683
v -0.000000 0.831469 0.555570
v -0.000000 0.980785 0.195090
v -0.000000 0.923879 0.382683
v -0.000000 1.000000 0.000000
v -0.000000 0.980785 0.195090
v -0.000000 0.980785 -0.195090
v -0.000000 1.000000 0.000000
v -0.000000 0.923879 -0.382683
v -0.000000 0.980785 -0.195090
v -0.000000 0.831470 -0.555570
v -0.000000 0.923879 -0.382683
v -0.000000 0.707107 -0.707107
v -0.000000 0.831470 -0.555570
v -0.000000 0.555570 -0.831470
v -0.000000 0.707107 -0.707107
v -0.000000 0.382683 -0.923880
v -0.000000 0.555570 -0.831470
v -0.000000 0.195090 -0.980785
v -0.000000 0.382683 -0.923880
v 0.000000 0.000000 -1.000000
v -0.000000 0.195090 -0.980785
v 0.000000 -0.195090 -0.980785
v -0.000000 0.000000 -1.000000
v 0.000000 -0.382684 -0.923880
v -0.000000 -0.195090 -0.980785
v 0.000000 -0.555570 -0.831470
v 0.000000 -0.382684 -0.923880
v 0.000000 -0.707107 -0.707107
v 0.000000 -0.555570 -0.831470
v 0.000000 -0.831470 -0.555570
v 0.000000 -0.707107 -0.707107
v 0.000000 -0.923880 -0.382684
v 0.000000 -0.831470 -0.555570
v 0.000000 -0.980785 -0.195090
v 0.000000 -0.923880 -0.382684
v 0.000000 -1.000000 -0.000000
v 0.000000 -0.980785 -0.195090
v 0.000000 -0.980785 0.195090
v 0.000000 -1.000000 -0.000000
v 0.000000 -0.923880 0.382683
v 0.000000 -0.980785 0.195090
v 0.000000 -0.831470 0.555570
v 0.000000 -0.923880 0.382683
v 0.000000 -0.707107 0.707107
v 0.000000 -0.831470 0.555570
v 0.000000 -0.555570 0.831470
v 0.000000 -0.707107 0.707107
v 0.000000 -0.382684 0.923879
v 0.000000 -0.555570 0.831470
v -0.000000 -0.195090 0.980785
v 0.000000 -0.382684 0.923879
v -0.000000 -0.000000 1.000000
v 0.000000 -0.195090 0.980785
v -0.137950 0.137950 0.980785
v 0.000000 -0.000000 1.000000
v -0.270598 0.270598 0.923879
v -0.137950 0.137950 0.980785
v -0.392847 0.392847 0.831470
v -0.270598 0.270598 0.923879
v -0.500000 0.500000 0.707107
v -0.392848 0.392847 0.831470
v -0.587938 0.587938 0.555570
v -0.500000 0.500000 0.707107
v -0.653282 0.653281 0.382683
v -0.587938 0.587938 0.555570
v -0.693520 0.693520 0.195090
v -0.653282 0.653281 0.382683
v -0.707107 0.707107 0.000000
v -0.693520 0.693520 0.195090
v -0.693520 0.693520 -0.195090
v -0.707107 0.707107 0.000000
v -0.653282 0.653281 -0.382683
v -0.693520 0.693520 -0.195090
v -0.587938 0.587938 -0.555570
v -0.653282 0.653281 -0.382683
v -0.500000 0.500000 -0.707107
v -0.587938 0.587938 -0.555570
v -0.392847 0.392847 -0.831470
v -0.500000 0.500000 -0.707107
v -0.270598 0.270598 -0.923880
v -0.392848 0.392847 -0.831470
v -0.137950 0.137950 -0.980785
v -0.270598 0.270598 -0.923880
v 0.000000 0.000000 -1.000000
v -0.137950 0.137950 -0.980785
v 0.137950 -0.137950 -0.980785
v -0.000000 -0.000000 -1.000000
v 0.270598 -0.270598 -0.923880
v 0.137950 -0.137950 -0.980785
v 0.392848 -0.392847 -0.831470
v 0.270598 -0.270598 -0.923880
v 0.500000 -0.500000 -0.707107
v 0.392847 -0.392847 -0.831470
v 0.587938 -0.587938 -0.555570
v 0.500000 -0.500000 -0.707107
v 0.653281 -0.653281 -0.382684
v 0.587938 -0.587938 -0.555570
v 0.693520 -0.693520 -0.195090
v 0.653282 -0.653281 -0.382684
v 0.707107 -0.707107 -0.000000
v 0.693520 -0.693520 -0.195090
v 0.693520 -0.693520 0.195090
v 0.707107 -0.707107 -0.000000
v 0.653281 -0.653281 0.382683
v 0.693520 -0.693520 0.195090
v 0.587938 -0.587938 0.555570
v 0.653282 -0.653281 0.382683
v 0.500000 -0.500000 0.707107
v 0.587938 -0.587938 0.555570
v 0.392848 -0.392847 0.831470
v 0.500000 -0.500000 0.707107
v 0.270598 -0.270598 0.923879
v 0.392847 -0.392847 0.831470
v 0.137950 -0.137950 0.980785
v 0.270598 -0.270598 0.923879
v -0.000000 -0.000000 1.000000
v 0.137950 -0.137950 0.980785
v -0.000000 0.237987 -0.000000
v -0.000000 0.192536 -0.139885
v -0.000000 0.073542 -0.226339
v -0.000000 -0.073542 -0.226339
v -0.000000 -0.192536 -0.139885
v -0.000000 -0.237987 -0.000000
v 0.133039 0.192536 -0.043227
v 0.215261 0.073542 -0.069943
v 0.215261 -0.073542 -0.069943
v 0.133039 -0.192536 -0.043227
v 0.082222 0.192536 0.113170
v 0.133039 0.073542 0.183112
v 0.133039 -0.073542 0.183112
v 0.082222 -0.192536 0.113170
v -0.082223 0.192536 0.113170
v -0.133039 0.073542 0.183112
v -0.133039 -0.073542 0.183112
v -0.082223 -0.192536 0.113170
v -0.133039 0.192536 -0.043227
v -0.215261 0.073542 -0.069943
v -0.215261 -0.073542 -0.069943
v -0.133039 -0.192536 -0.043227
vn -0.0000 -0.0000 1.0000
vn -0.0000 -0.0000 -1.0000
vn -0.7071 -0.0000 -0.7071
vn 0.7071 -0.0000 0.7071
vn -1.0000 -0.0000 -0.0000
vn 1.0000 -0.0000 -0.0000
vn -0.7071 -0.0000 0.7071
vn 0.7071 -0.0000 -0.7071
vn -0.0000 -1.0000 -0.0000
vn -0.0000 1.0000 -0.0000
vn -0.7071 0.7071 -0.0000
vn 0.7071 -0.7071 -0.0000
vn -0.7071 -0.7071 -0.0000
vn 0.7071 0.7071 -0.0000
vn 0.5067 -0.5067 -0.6975
vn 0.5067 0.5067 -0.6975
vn 0.2191 -0.9280 -0.3015
vn 0.5878 -0.0000 -0.8090
vn 0.2191 0.9280 -0.3015
vn 0.8199 -0.5067 0.2664
vn 0.8199 0.5067 0.2664
vn 0.3544 -0.9280 0.1152
vn 0.9511 -0.0000 0.3090
vn 0.3544 0.9280 0.1152
vn -0.0000 -0.5067 0.8621
vn -0.0000 0.5067 0.8621
vn -0.0000 -0.9280 0.3727
vn -0.0000 0.9280 0.3727
vn -0.8199 -0.5067 0.2664
vn -0.8199 0.5067 0.2664
vn -0.3544 -0.9280 0.1152
vn -0.9511 -0.0000 0.3090
vn -0.3544 0.9280 0.1152
vn -0.5067 -0.5067 -0.6975
vn -0.5067 0.5067 -0.6975
vn -0.2191 -0.9280 -0.3015
vn -0.5878 -0.0000 -0.8090
vn -0.2191 0.9280 -0.3015
vt 0.410213 0.966559
vt 0.318834 0.938839
vt 0.234618 0.893825
vt 0.160802 0.833246
vt 0.100223 0.759430
vt 0.055209 0.675214
vt 0.027489 0.583835
vt 0.018129 0.488804
vt 0.027489 0.393772
vt 0.055209 0.302393
vt 0.100223 0.218177
vt 0.160802 0.144361
vt 0.234618 0.083782
vt 0.318834 0.038767
vt 0.410213 0.011048
vt 0.505245 0.001688
vt 0.600276 0.011048
vt 0.691655 0.038767
vt 0.775871 0.083782
vt 0.849687 0.144361
vt 0.910266 0.218177
vt 0.955280 0.302393
vt 0.983000 0.393772
vt 0.992360 0.488804
vt 0.983000 0.583835
vt 0.955280 0.675214
vt 0.910266 0.759430
vt 0.849687 0.833246
vt 0.775871 0.893825
vt 0.691655 0.938839
vt 0.600276 0.966559
vt 0.505245 0.975919
vt 0.503726 0.488823
vt 0.503726 0.496274
vt 0.496274 0.496274
vt 0.496274 0.488823
vt 0.503726 0.503726
vt 0.503726 0.511177
vt 0.496274 0.511177
vt 0.496274 0.503726
vt 0.500000 0.481371
vt 0.500000 0.518629
vt 0.488823 0.496274
vt 0.488823 0.488823
vt 0.488823 0.511177
vt 0.488823 0.503726
vt 0.492548 0.481371
vt 0.492548 0.518629
vt 0.481371 0.496274
vt 0.481371 0.488823
vt 0.481371 0.511177
vt 0.481371 0.503726
vt 0.485097 0.481371
vt 0.485097 0.518629
vt 0.518629 0.488823
vt 0.518629 0.496274
vt 0.511177 0.496274
vt 0.511177 0.488823
vt 0.518629 0.503726
vt 0.518629 0.511177
vt 0.511177 0.511177
vt 0.511177 0.503726
vt 0.514903 0.481371
vt 0.514903 0.518629
vt 0.507452 0.481371
vt 0.507452 0.518629
s 0
usemtl nertsalMat
f 1/1/1 3/2/1 5/3/1 7/4/1 9/5/1 11/6/1 13/7/1 15/8/1 17/9/1 19/10/1 21/11/1 23/12/1 25/13/1 27/14/1 29/15/1 31/16/1 33/17/1 35/18/1 37/19/1 39/20/1 41/21/1 43/22/1 45/23/1 47/24/1 49/25/1 51/26/1 53/27/1 55/28/1 57/29/1 59/30/1 61/31/1 63/32/1
f 64/31/2 62/30/2 60/29/2 58/28/2 56/27/2 54/26/2 52/25/2 50/24/2 48/23/2 46/22/2 44/21/2 42/20/2 40/19/2 38/18/2 36/17/2 34/16/2 32/15/2 30/14/2 28/13/2 26/12/2 24/11/2 22/10/2 20/9/2 18/8/2 16/7/2 14/6/2 12/5/2 10/4/2 8/3/2 6/2/2 4/1/2 2/32/2
f 65/1/3 67/2/3 69/3/3 71/4/3 73/5/3 75/6/3 77/7/3 79/8/3 81/9/3 83/10/3 85/11/3 87/12/3 89/13/3 91/14/3 93/15/3 95/16/3 97/17/3 99/18/3 101/19/3 103/20/3 105/21/3 107/22/3 109/23/3 111/24/3 113/25/3 115/26/3 117/27/3 119/28/3 121/29/3 123/30/3 125/31/3 127/32/3
f 128/31/4 126/30/4 124/29/4 122/28/4 120/27/4 118/26/4 116/25/4 114/24/4 112/23/4 110/22/4 108/21/4 106/20/4 104/19/4 102/18/4 100/17/4 98/16/4 96/15/4 94/14/4 92/13/4 90/12/4 88/11/4 86/10/4 84/9/4 82/8/4 80/7/4 78/6/4 76/5/4 74/4/4 72/3/4 70/2/4 68/1/4 66/32/4
f 129/1/5 131/2/5 133/3/5 135/4/5 137/5/5 139/6/5 141/7/5 143/8/5 145/9/5 147/10/5 149/11/5 151/12/5 153/13/5 155/14/5 157/15/5 159/16/5 161/17/5 163/18/5 165/19/5 167/20/5 169/21/5 171/22/5 173/23/5 175/24/5 177/25/5 179/26/5 181/27/5 183/28/5 185/29/5 187/30/5 189/31/5 191/32/5
f 192/31/6 190/30/6 188/29/6 186/28/6 184/27/6 182/26/6 180/25/6 178/24/6 176/23/6 174/22/6 172/21/6 170/20/6 168/19/6 166/18/6 164/17/6 162/16/6 160/15/6 158/14/6 156/13/6 154/12/6 152/11/6 150/10/6 148/9/6 146/8/6 144/7/6 142/6/6 140/5/6 138/4/6 136/3/6 134/2/6 132/1/6 130/32/6
f 193/1/7 195/2/7 197/3/7 199/4/7 201/5/7 203/6/7 205/7/7 207/8/7 209/9/7 211/10/7 213/11/7 215/12/7 217/13/7 219/14/7 221/15/7 223/16/7 225/17/7 227/18/7 229/19/7 231/20/7 233/21/7 235/22/7 237/23/7 239/24/7 241/25/7 243/26/7 245/27/7 247/28/7 249/29/7 251/30/7 253/31/7 255/32/7
f 256/31/8 254/30/8 252/29/8 250/28/8 248/27/8 246/26/8 244/25/8 242/24/8 240/23/8 238/22/8 236/21/8 234/20/8 232/19/8 230/18/8 228/17/8 226/16/8 224/15/8 222/14/8 220/13/8 218/12/8 216/11/8 214/10/8 212/9/8 210/8/8 208/7/8 206/6/8 204/5/8 202/4/8 200/3/8 198/2/8 196/1/8 194/32/8
f 257/1/9 259/2/9 261/3/9 263/4/9 265/5/9 267/6/9 269/7/9 271/8/9 273/9/9 275/10/9 277/11/9 279/12/9 281/13/9 283/14/9 285/15/9 287/16/9 289/17/9 291/18/9 293/19/9 295/20/9 297/21/9 299/22/9 301/23/9 303/24/9 305/25/9 307/26/9 309/27/9 311/28/9 313/29/9 315/30/9 317/31/9 319/32/9
f 320/31/10 318/30/10 316/29/10 314/28/10 312/27/10 310/26/10 308/25/10 306/24/10 304/23/10 302/22/10 300/21/10 298/20/10 296/19/10 294/18/10 292/17/10 290/16/10 288/15/10 286/14/10 284/13/10 282/12/10 280/11/10 278/10/10 276/9/10 274/8/10 272/7/10 270/6/10 268/5/10 266/4/10 264/3/10 262/2/10 260/1/10 258/32/10
f 321/1/11 323/2/11 325/3/11 327/4/11 329/5/11 331/6/11 333/7/11 335/8/11 337/9/11 339/10/11 341/11/11 343/12/11 345/13/11 347/14/11 349/15/11 351/16/11 353/17/11 355/18/11 357/19/11 359/20/11 361/21/11 363/22/11 365/23/11 367/24/11 369/25/11 371/26/11 373/27/11 375/28/11 377/29/11 379/30/11 381/31/11 383/32/11
f 384/31/12 382/30/12 380/29/12 378/28/12 376/27/12 374/26/12 372/25/12 370/24/12 368/23/12 366/22/12 364/21/12 362/20/12 360/19/12 358/18/12 356/17/12 354/16/12 352/15/12 350/14/12 348/13/12 346/12/12 344/11/12 342/10/12 340/9/12 338/8/12 336/7/12 334/6/12 332/5/12 330/4/12 328/3/12 326/2/12 324/1/12 322/32/12
f 385/1/5 387/2/5 389/3/5 391/4/5 393/5/5 395/6/5 397/7/5 399/8/5 401/9/5 403/10/5 405/11/5 407/12/5 409/13/5 411/14/5 413/15/5 415/16/5 417/17/5 419/18/5 421/19/5 423/20/5 425/21/5 427/22/5 429/23/5 431/24/5 433/25/5 435/26/5 437/27/5 439/28/5 441/29/5 443/30/5 445/31/5 447/32/5
f 448/31/6 446/30/6 444/29/6 442/28/6 440/27/6 438/26/6 436/25/6 434/24/6 432/23/6 430/22/6 428/21/6 426/20/6 424/19/6 422/18/6 420/17/6 418/16/6 416/15/6 414/14/6 412/13/6 410/12/6 408/11/6 406/10/6 404/9/6 402/8/6 400/7/6 398/6/6 396/5/6 394/4/6 392/3/6 390/2/6 388/1/6 386/32/6
f 449/1/13 451/2/13 453/3/13 455/4/13 457/5/13 459/6/13 461/7/13 463/8/13 465/9/13 467/10/13 469/11/13 471/12/13 473/13/13 475/14/13 477/15/13 479/16/13 481/17/13 483/18/13 485/19/13 487/20/13 489/21/13 491/22/13 493/23/13 495/24/13 497/25/13 499/26/13 501/27/13 503/28/13 505/29/13 507/30/13 509/31/13 511/32/13
f 512/31/14 510/30/14 508/29/14 506/28/14 504/27/14 502/26/14 500/25/14 498/24/14 496/23/14 494/22/14 492/21/14 490/20/14 488/19/14 486/18/14 484/17/14 482/16/14 480/15/14 478/14/14 476/13/14 474/12/14 472/11/14 470/10/14 468/9/14 466/8/14 464/7/14 462/6/14 460/5/14 458/4/14 456/3/14 454/2/14 452/1/14 450/32/14
f 517/33/15 516/34/15 521/35/15 522/36/15
f 515/37/16 514/38/16 519/39/16 520/40/16
f 518/41/17 517/33/17 522/36/17
f 516/34/18 515/37/18 520/40/18 521/35/18
f 514/38/19 513/42/19 519/39/19
f 522/36/20 521/35/20 525/43/20 526/44/20
f 520/40/21 519/39/21 523/45/21 524/46/21
f 518/47/22 522/36/22 526/44/22
f 521/35/23 520/40/23 524/46/23 525/43/23
f 519/39/24 513/48/24 523/45/24
f 526/44/25 525/43/25 529/49/25 530/50/25
f 524/46/26 523/45/26 527/51/26 528/52/26
f 518/53/27 526/44/27 530/50/27
f 525/43/1 524/46/1 528/52/1 529/49/1
f 523/45/28 513/54/28 527/51/28
f 530/55/29 529/56/29 533/57/29 534/58/29
f 528/59/30 527/60/30 531/61/30 532/62/30
f 518/63/31 530/55/31 534/58/31
f 529/56/32 528/59/32 532/62/32 533/57/32
f 527/60/33 513/64/33 531/61/33
f 534/58/34 533/57/34 516/34/34 517/33/34
f 532/62/35 531/61/35 514/38/35 515/37/35
f 518/65/36 534/58/36 517/33/36
f 533/57/37 532/62/37 515/37/37 516/34/37
f 531/61/38 513/66/38 514/38/38
