# Blender 5.0.1
# www.blender.org
mtllib model.mtl
o howlMesh
v 0.763912 -0.041569 0.556618
v 0.160229 0.000000 1.163241
v -0.229707 0.000000 1.149421
v -0.584672 0.000000 0.811270
v -0.850626 0.000000 0.525771
v -0.987080 0.000000 0.160229
v -0.811270 0.000000 -0.584672
v 0.591305 0.270598 0.759694
v 0.281319 0.500000 0.995221
v -0.071496 0.653281 0.929893
v -0.413425 0.707107 0.573654
v -0.692415 0.653281 0.306243
v -0.865990 0.500000 -0.007790
v -0.907727 0.270598 -0.320638
v 0.847959 0.296413 0.545851
v 0.573655 0.707107 0.413425
v 0.310460 0.923879 0.223744
v 0.000000 1.000000 -0.000000
v -0.310460 0.923879 -0.223744
v -0.573654 0.707107 -0.413425
v -0.749516 0.382683 -0.540166
v 0.907727 0.270598 0.320638
v 0.865990 0.500000 0.007790
v 0.692415 0.653281 -0.306243
v 0.413425 0.707107 -0.573654
v 0.071496 0.653281 -0.753732
v -0.281319 0.500000 -0.819060
v -0.591305 0.270598 -0.759694
v 0.973260 0.000000 0.229707
v 0.987080 0.000000 -0.160229
v 0.850626 0.000000 -0.525771
v 0.584672 0.000000 -0.811270
v 0.229707 0.000000 -0.973260
v -0.160229 0.000000 -0.987080
v -0.525771 0.000000 -0.850626
v 0.907727 -0.270598 0.320638
v 0.865990 -0.500000 0.007790
v 0.692415 -0.653281 -0.306243
v 0.413425 -0.707107 -0.573654
v 0.071496 -0.653281 -0.753732
v -0.281319 -0.500000 -0.819060
v -0.591305 -0.270598 -0.759694
v 0.844555 -0.333159 0.559858
v 0.573655 -0.707107 0.413425
v 0.310460 -0.923879 0.223744
v 0.000000 -1.000000 -0.000000
v -0.310460 -0.923879 -0.223744
v -0.573654 -0.707107 -0.413425
v -0.749516 -0.382683 -0.540166
v 0.591305 -0.270598 0.759694
v 0.281319 -0.500000 0.995221
v -0.071496 -0.653281 0.929893
v -0.413425 -0.707107 0.573654
v -0.692415 -0.653281 0.306243
v -0.865990 -0.500000 -0.007790
v -0.907727 -0.270598 -0.320638
v 0.525771 0.000000 0.850626
v -0.973260 0.000000 -0.229707
v 1.001942 0.176101 1.075257
v 1.040228 0.243993 0.773384
v 1.040228 -0.246378 0.773384
v 1.001942 -0.169432 1.075257
v 0.980441 0.000000 1.106469
v 1.123433 -0.007428 0.889917
v 0.947180 0.216004 0.581539
v 1.016179 0.201481 0.437910
v 1.064009 0.003981 0.371542
v 1.016179 -0.193520 0.437910
v 0.947180 -0.216058 0.581539
v 1.054159 0.024680 0.611491
v 0.475049 -0.948228 0.367554
v 0.609919 -0.688360 0.733461
v 0.043869 -0.964244 0.476566
v 0.081692 -0.711135 0.869091
v 0.458671 -0.863368 0.315243
v 0.594922 -0.610654 0.685559
v 0.027491 -0.879384 0.424254
v 0.065486 -0.627164 0.817328
v 0.162108 -1.020623 0.486812
v 0.380099 -1.012526 0.431699
v 0.471390 -0.766331 0.783762
v 0.231946 -0.775225 0.844299
v 0.346097 -0.836343 0.323092
v 0.128106 -0.844440 0.378205
v 0.194550 -0.581458 0.724851
v 0.433994 -0.572564 0.664315
v 0.200331 -0.694614 0.936869
v 0.129160 -0.677702 0.941946
v 0.100293 -0.848733 0.387389
v 0.047487 -0.862009 0.408213
v 0.070239 -0.979897 0.480885
v 0.133046 -1.018444 0.492007
v 0.099183 -0.522376 0.846196
v 0.166607 -0.519872 0.829150
v 0.236465 -1.026699 0.473850
v 0.309129 -1.024000 0.455479
v 0.460678 -0.648812 0.945889
v 0.310104 -0.654404 0.983957
v 0.272583 -0.834637 0.338747
v 0.199919 -0.837336 0.357118
v 0.275017 -0.472604 0.871887
v 0.425592 -0.467011 0.833818
v 0.407913 -1.008234 0.422515
v 0.455053 -0.965603 0.383596
v 0.503723 -0.507350 0.743920
v 0.571146 -0.504846 0.726874
v 0.601123 -0.660171 0.822624
v 0.537447 -0.682092 0.851639
v 0.432301 -0.847715 0.310924
v 0.375159 -0.838523 0.317897
v 0.423233 -0.587571 0.979497
v 0.354640 -0.590119 0.996839
v 0.335599 -0.491456 0.936019
v 0.404191 -0.488909 0.918677
v 0.035680 -0.921814 0.450410
v 0.073589 -0.669150 0.843210
v 0.466860 -0.905798 0.341398
v 0.602420 -0.649507 0.709510
v 0.213248 -0.678341 0.784575
v 0.452692 -0.669448 0.724038
v 0.126996 -0.595841 0.945410
v 0.194419 -0.593337 0.928364
v 0.294081 -0.571382 0.932778
v 0.444655 -0.565789 0.894710
v 0.531535 -0.580815 0.843134
v 0.598958 -0.578311 0.826088
v 0.347052 -0.535194 0.974897
v 0.415645 -0.532647 0.957555
v 0.606121 -0.785100 0.661203
v 0.056869 -0.805501 0.800065
v 0.027856 -0.655171 0.707395
v 0.577108 -0.634769 0.568532
v 0.143324 -0.672109 0.589481
v 0.421009 -0.661795 0.519277
v 0.463367 -0.881273 0.654574
v 0.185682 -0.891587 0.724778
v 0.065503 -0.593796 0.740884
v 0.135530 -0.591194 0.723180
v 0.182316 -0.833615 0.872620
v 0.105997 -0.803611 0.870225
v 0.434446 -0.840665 0.819718
v 0.286612 -0.846156 0.857094
v 0.236681 -0.587437 0.697607
v 0.384515 -0.581946 0.660232
v 0.596185 -0.785404 0.746295
v 0.532451 -0.820609 0.784098
v 0.485665 -0.578189 0.634659
v 0.555692 -0.575588 0.616955
v 0.591615 -0.709935 0.614867
v 0.042362 -0.730336 0.753730
v 0.380166 -1.096427 0.063246
v 0.398559 -1.063862 0.062433
v -0.042528 -1.070782 0.146169
v -0.030511 -1.143456 0.137840
v -0.036153 -0.965544 0.153684
v -0.054546 -0.998108 0.154497
v 0.386541 -0.991188 0.070761
v 0.374524 -0.918514 0.079089
v 0.055123 -1.176556 0.118725
v 0.084338 -1.176849 0.113117
v 0.231248 -1.163893 0.086111
v 0.301262 -1.136609 0.074993
v 0.288890 -0.885415 0.098204
v 0.259675 -0.885122 0.103813
v 0.112765 -0.898078 0.130818
v 0.042751 -0.925362 0.141937
v 0.015369 -0.936154 0.146275
v -0.002763 -1.167462 0.130544
v 0.158939 -1.177306 0.098819
v 0.185074 -0.884664 0.118110
v 0.328644 -1.125817 0.070655
v 0.346776 -0.894509 0.086385
v 0.380166 -0.905406 -0.254200
v 0.398559 -0.879548 -0.234389
v -0.042528 -0.937503 -0.173555
v -0.030511 -0.988843 -0.225661
v -0.036153 -0.860306 -0.101637
v -0.054546 -0.886164 -0.121448
v 0.386541 -0.828209 -0.182282
v 0.374524 -0.776869 -0.130175
v 0.055123 -1.002607 -0.261320
v 0.084338 -0.999314 -0.265869
v 0.231248 -0.972275 -0.278756
v 0.301262 -0.944058 -0.270282
v 0.288890 -0.763106 -0.094516
v 0.259675 -0.766399 -0.089967
v 0.112765 -0.793437 -0.077080
v 0.042751 -0.821654 -0.085555
v 0.015369 -0.832778 -0.088953
v -0.002764 -1.002948 -0.246411
v 0.158939 -0.990694 -0.277286
v 0.185074 -0.775018 -0.078551
v 0.328644 -0.932934 -0.266883
v 0.346776 -0.762764 -0.109425
v 0.172006 -0.638443 -0.153230
v 0.070239 0.999399 0.480885
v 0.047487 0.881511 0.408213
v 0.100293 0.868235 0.387389
v 0.129160 0.697204 0.941946
v 0.200331 0.714117 0.936869
v 0.433994 0.592066 0.664315
v 0.194550 0.600960 0.724851
v 0.128106 0.863943 0.378205
v 0.346097 0.855846 0.323092
v 0.231946 0.794728 0.844299
v 0.471390 0.785834 0.783762
v 0.380099 1.032028 0.431699
v 0.162108 1.040125 0.486812
v 0.065486 0.646667 0.817328
v 0.027491 0.898886 0.424254
v 0.594922 0.630157 0.685559
v 0.458671 0.882871 0.315243
v 0.081692 0.730638 0.869091
v 0.043869 0.983746 0.476566
v 0.609919 0.707862 0.733461
v 0.475049 0.967731 0.367554
v 0.133046 1.037946 0.492007
v 0.099183 0.541879 0.846196
v 0.166607 0.539375 0.829150
v 0.236465 1.046201 0.473850
v 0.309129 1.043502 0.455479
v 0.460678 0.668314 0.945889
v 0.310104 0.673907 0.983957
v 0.272583 0.854140 0.338747
v 0.199919 0.856838 0.357118
v 0.275017 0.492107 0.871887
v 0.425592 0.486514 0.833818
v 0.407913 1.027736 0.422515
v 0.455053 0.985106 0.383596
v 0.503723 0.526853 0.743920
v 0.571146 0.524348 0.726874
v 0.601123 0.679674 0.822624
v 0.537447 0.701595 0.851639
v 0.432301 0.867218 0.310924
v 0.375159 0.858025 0.317897
v 0.423233 0.607074 0.979497
v 0.354640 0.609621 0.996839
v 0.335599 0.510959 0.936019
v 0.404191 0.508411 0.918677
v 0.035680 0.941316 0.450410
v 0.073589 0.688652 0.843210
v 0.466860 0.925301 0.341398
v 0.602420 0.669009 0.709510
v 0.213248 0.697844 0.784575
v 0.452692 0.688950 0.724038
v 0.126996 0.615344 0.945410
v 0.194419 0.612839 0.928364
v 0.294081 0.590884 0.932778
v 0.444655 0.585291 0.894710
v 0.531535 0.600317 0.843134
v 0.598958 0.597813 0.826088
v 0.347052 0.554697 0.974897
v 0.415645 0.552149 0.957555
v 0.606121 0.804602 0.661203
v 0.056869 0.825003 0.800065
v 0.027856 0.674673 0.707395
v 0.577108 0.654272 0.568532
v 0.143324 0.691611 0.589481
v 0.421009 0.681297 0.519277
v 0.463367 0.900775 0.654574
v 0.185682 0.911090 0.724778
v 0.065503 0.613298 0.740884
v 0.135530 0.610697 0.723180
v 0.182316 0.853117 0.872620
v 0.105997 0.823114 0.870225
v 0.434446 0.860167 0.819718
v 0.286612 0.865658 0.857094
v 0.236681 0.606940 0.697607
v 0.384515 0.601449 0.660232
v 0.596185 0.804906 0.746295
v 0.532451 0.840112 0.784098
v 0.485665 0.597692 0.634659
v 0.555692 0.595090 0.616955
v 0.591615 0.729437 0.614867
v 0.042362 0.749838 0.753730
v 0.380166 1.115929 0.063246
v 0.398559 1.083365 0.062433
v -0.042528 1.090285 0.146169
v -0.030511 1.162958 0.137840
v -0.036153 0.985046 0.153684
v -0.054546 1.017611 0.154497
v 0.386541 1.010691 0.070761
v 0.374524 0.938017 0.079089
v 0.055123 1.196058 0.118725
v 0.084338 1.196351 0.113117
v 0.231248 1.183396 0.086111
v 0.301262 1.156111 0.074993
v 0.288890 0.904917 0.098204
v 0.259675 0.904624 0.103813
v 0.112765 0.917580 0.130818
v 0.042751 0.944864 0.141937
v 0.015369 0.955656 0.146275
v -0.002763 1.186964 0.130545
v 0.158939 1.196809 0.098819
v 0.185074 0.904167 0.118110
v 0.328644 1.145319 0.070655
v 0.346776 0.914011 0.086385
v 0.380166 0.924909 -0.254200
v 0.398559 0.899051 -0.234389
v -0.042528 0.957006 -0.173555
v -0.030511 1.008345 -0.225661
v -0.036153 0.879808 -0.101637
v -0.054546 0.905666 -0.121448
v 0.386541 0.847711 -0.182282
v 0.374524 0.796372 -0.130175
v 0.055123 1.022109 -0.261320
v 0.084338 1.018816 -0.265869
v 0.231248 0.991778 -0.278756
v 0.301262 0.963560 -0.270282
v 0.288890 0.782608 -0.094516
v 0.259675 0.785901 -0.089967
v 0.112765 0.812939 -0.077080
v 0.042751 0.841157 -0.085555
v 0.015369 0.852281 -0.088953
v -0.002764 1.022450 -0.246411
v 0.158939 1.010196 -0.277286
v 0.185074 0.794521 -0.078551
v 0.328644 0.952437 -0.266883
v 0.346776 0.782267 -0.109425
v 0.172006 0.657945 -0.153230
v 0.436312 0.385299 0.877458
v 0.710807 0.501760 0.479638
v 0.886859 0.385299 0.164214
v 0.980170 0.000000 0.034739
v 0.886859 -0.385299 0.164214
v 0.709105 -0.520133 0.486642
v 0.436312 -0.385299 0.877458
v 0.343000 0.000000 1.006933
v 0.516134 0.271252 0.926634
v 0.528144 0.009646 0.990957
v 0.508305 -0.291911 0.923036
vn 0.9155 0.0150 0.4020
vn 0.1676 -0.0008 0.9859
vn -0.4037 -0.0000 0.9149
vn -0.7102 -0.0000 0.7040
vn -0.8415 -0.0000 0.5403
vn -0.9814 -0.0000 0.1921
vn -0.8113 -0.0000 -0.5847
vn 0.3588 0.5439 0.7585
vn 0.3396 0.5461 0.7658
vn -0.1724 0.6876 0.7054
vn -0.4723 0.7300 0.4941
vn -0.6822 0.6578 0.3192
vn -0.8564 0.5159 0.0187
vn -0.9100 0.2988 -0.2875
vn 0.6487 0.7030 0.2915
vn 0.5903 0.7329 0.3382
vn 0.2915 0.9421 0.1657
vn -0.0115 0.9997 -0.0196
vn -0.2976 0.9303 -0.2145
vn -0.5548 0.7296 -0.3998
vn -0.7353 0.4226 -0.5299
vn 0.8649 0.5019 0.0016
vn 0.8537 0.5200 -0.0265
vn 0.6822 0.6578 -0.3192
vn 0.4134 0.7071 -0.5737
vn 0.0870 0.6578 -0.7481
vn -0.2531 0.5159 -0.8184
vn -0.5606 0.2988 -0.7723
vn 0.9766 -0.0021 -0.2149
vn 0.9814 -0.0000 -0.1921
vn 0.8415 -0.0000 -0.5403
vn 0.5847 -0.0000 -0.8113
vn 0.2464 -0.0000 -0.9692
vn -0.1282 -0.0000 -0.9917
vn -0.4882 -0.0000 -0.8727
vn 0.8762 -0.4815 -0.0202
vn 0.8519 -0.5228 -0.0319
vn 0.6822 -0.6578 -0.3192
vn 0.4134 -0.7071 -0.5737
vn 0.0870 -0.6578 -0.7481
vn -0.2531 -0.5159 -0.8184
vn -0.5606 -0.2988 -0.7723
vn 0.6800 -0.6722 0.2927
vn 0.5851 -0.7393 0.3333
vn 0.2915 -0.9421 0.1657
vn -0.0115 -0.9997 -0.0196
vn -0.2976 -0.9303 -0.2145
vn -0.5548 -0.7296 -0.3998
vn -0.7353 -0.4226 -0.5299
vn 0.3323 -0.5322 0.7786
vn 0.3352 -0.5477 0.7666
vn -0.1724 -0.6876 0.7054
vn -0.4723 -0.7300 0.4941
vn -0.6822 -0.6578 0.3192
vn -0.8564 -0.5159 0.0187
vn -0.9100 -0.2988 -0.2875
vn 0.1827 -0.0012 0.9832
vn -0.9823 -0.0000 -0.1871
vn 0.3028 0.5946 0.7449
vn 0.7228 0.6454 -0.2471
vn 0.7311 -0.6380 -0.2417
vn 0.2959 -0.5748 0.7629
vn 0.1656 -0.0017 0.9862
vn 0.9982 -0.0168 -0.0577
vn 0.3326 0.5413 0.7722
vn 0.8194 0.5682 -0.0756
vn 0.9533 -0.0004 -0.3020
vn 0.8574 -0.5099 -0.0703
vn 0.4267 -0.4735 0.7705
vn 0.6550 0.0467 0.7542
vn 0.9195 -0.3657 -0.1438
vn 1.0000 0.0014 0.0041
vn -0.8070 -0.4780 0.3469
vn -0.8724 -0.0742 0.4832
vn 0.7877 0.3621 -0.4984
vn 0.9536 0.2411 -0.1802
vn -0.9676 0.2523 -0.0035
vn -0.9394 0.1772 0.2935
vn 0.0561 -0.9108 0.4089
vn 0.2577 -0.9070 0.3330
vn 0.4255 -0.4620 0.7782
vn 0.0283 -0.4768 0.8786
vn -0.0293 0.9022 -0.4303
vn -0.3067 0.8690 -0.3883
vn -0.1441 0.9162 -0.3740
vn -0.1150 0.9173 -0.3813
vn 0.6211 -0.1487 0.7695
vn -0.4250 -0.1383 0.8945
vn -0.3892 0.8381 -0.3822
vn -0.5689 0.7545 -0.3271
vn -0.4455 -0.7782 0.4426
vn -0.1032 -0.8939 0.4363
vn -0.5141 0.8386 0.1803
vn 0.4384 0.8984 -0.0270
vn 0.0598 -0.9176 0.3931
vn 0.2475 -0.9088 0.3360
vn 0.8020 -0.1729 0.5718
vn -0.4202 -0.2183 0.8808
vn -0.1437 0.9084 -0.3927
vn -0.1831 0.9012 -0.3929
vn -0.5961 0.7877 0.1553
vn 0.5418 0.8300 -0.1324
vn 0.3980 -0.8757 0.2735
vn 0.6899 -0.7160 0.1067
vn -0.4601 0.8650 0.2002
vn 0.4788 0.8751 -0.0709
vn 0.8074 -0.0937 0.5826
vn -0.1694 -0.1780 0.9693
vn 0.2529 0.8178 -0.5169
vn 0.0566 0.8880 -0.4563
vn 0.5742 0.1151 0.8106
vn -0.1270 0.0891 0.9879
vn -0.2532 0.7367 0.6271
vn 0.4684 0.7635 0.4446
vn -0.9713 -0.1241 0.2027
vn -0.9218 0.0492 0.3844
vn 0.9367 0.0303 -0.3489
vn 0.9879 0.1194 -0.0989
vn 0.1236 0.5301 0.8389
vn 0.2528 0.5349 0.8062
vn -0.3748 0.3795 0.8459
vn 0.6475 0.4432 0.6199
vn -0.8005 0.1939 0.5671
vn 0.9580 0.2592 0.1226
vn -0.3048 0.4078 0.8607
vn 0.7043 0.4192 0.5729
vn -0.2497 0.4718 0.8456
vn 0.5876 0.5029 0.6339
vn 0.9397 -0.3326 -0.0802
vn -0.8391 -0.3994 0.3694
vn -0.9496 0.3001 -0.0907
vn 0.7696 0.3640 -0.5247
vn -0.3199 0.7691 -0.5533
vn -0.0355 0.7797 -0.6252
vn 0.1945 -0.8678 0.4572
vn 0.1069 -0.8711 0.4794
vn -0.6664 0.6897 -0.2831
vn -0.1867 0.8216 -0.5387
vn 0.2395 -0.7161 0.6556
vn -0.5251 -0.5264 0.6687
vn 0.5533 -0.6575 0.5115
vn -0.1968 -0.6853 0.7011
vn -0.1802 0.8291 -0.5292
vn -0.1509 0.8302 -0.5366
vn 0.8178 -0.4733 0.3273
vn 0.1510 -0.7194 0.6780
vn -0.1492 0.8230 -0.5481
vn 0.4084 0.7275 -0.5513
vn 0.9609 0.0151 -0.2764
vn -0.9754 -0.0568 0.2132
vn 0.6797 -0.7174 -0.1528
vn 0.9438 -0.3069 -0.1228
vn -0.9829 -0.1418 0.1178
vn -0.8235 -0.5537 0.1237
vn -0.7114 0.6971 0.0895
vn -0.9833 0.1262 0.1309
vn 0.9846 0.1340 -0.1124
vn 0.9060 0.4184 -0.0640
vn -0.1355 -0.9908 0.0050
vn 0.0020 -0.9996 -0.0264
vn 0.2486 -0.9650 -0.0833
vn 0.3402 -0.9341 -0.1081
vn 0.0893 0.9819 0.1672
vn 0.0156 0.9864 0.1639
vn -0.2498 0.9595 0.1298
vn -0.3287 0.9392 0.0990
vn -0.4115 0.9079 0.0804
vn -0.4514 -0.8902 0.0618
vn 0.0813 -0.9954 -0.0501
vn -0.0857 0.9842 0.1546
vn 0.4394 -0.8873 -0.1402
vn 0.4236 0.8996 0.1064
vn 0.5367 -0.1683 -0.8268
vn 0.8218 0.1959 -0.5351
vn -0.9036 0.1839 -0.3870
vn -0.8126 -0.1066 -0.5729
vn -0.7247 0.6754 0.1365
vn -0.9186 0.3250 -0.2248
vn 0.8514 0.4602 -0.2517
vn 0.7990 0.5992 -0.0502
vn -0.2015 -0.3949 -0.8963
vn -0.1395 -0.3850 -0.9123
vn 0.1195 -0.3606 -0.9250
vn 0.1966 -0.3195 -0.9270
vn 0.1481 0.7034 0.6952
vn 0.0642 0.6927 0.7184
vn -0.2463 0.7108 0.6589
vn -0.3321 0.7096 0.6215
vn -0.4333 0.7276 0.5318
vn -0.4646 -0.3578 -0.8100
vn -0.0482 -0.3903 -0.9194
vn -0.0328 0.7023 0.7111
vn 0.2621 -0.2999 -0.9172
vn 0.4776 0.7722 0.4191
vn -0.1193 0.9902 -0.0732
vn -0.4455 0.7782 0.4426
vn -0.5689 -0.7545 -0.3271
vn -0.3892 -0.8381 -0.3822
vn -0.4250 0.1383 0.8945
vn 0.6211 0.1487 0.7695
vn -0.1150 -0.9173 -0.3813
vn -0.1441 -0.9162 -0.3740
vn -0.3067 -0.8690 -0.3883
vn -0.0293 -0.9022 -0.4303
vn 0.0283 0.4768 0.8786
vn 0.4255 0.4620 0.7782
vn 0.2577 0.9070 0.3330
vn 0.0561 0.9108 0.4089
vn -0.9394 -0.1772 0.2935
vn -0.9676 -0.2523 -0.0035
vn 0.9536 -0.2411 -0.1802
vn 0.7877 -0.3621 -0.4984
vn -0.8724 0.0742 0.4832
vn -0.8070 0.4780 0.3469
vn 1.0000 -0.0014 0.0041
vn 0.9195 0.3657 -0.1438
vn -0.1032 0.8939 0.4363
vn -0.5141 -0.8386 0.1803
vn 0.4384 -0.8984 -0.0270
vn 0.0598 0.9176 0.3931
vn 0.2475 0.9088 0.3360
vn 0.8020 0.1729 0.5718
vn -0.4202 0.2183 0.8808
vn -0.1437 -0.9084 -0.3927
vn -0.1831 -0.9012 -0.3929
vn -0.5961 -0.7877 0.1553
vn 0.5418 -0.8300 -0.1324
vn 0.3980 0.8757 0.2735
vn 0.6899 0.7160 0.1067
vn -0.4601 -0.8650 0.2002
vn 0.4788 -0.8751 -0.0709
vn 0.8074 0.0937 0.5826
vn -0.1694 0.1780 0.9693
vn 0.2529 -0.8178 -0.5169
vn 0.0566 -0.8880 -0.4563
vn 0.5742 -0.1151 0.8106
vn -0.1270 -0.0891 0.9879
vn -0.2532 -0.7367 0.6271
vn 0.4684 -0.7635 0.4446
vn -0.9713 0.1241 0.2027
vn -0.9218 -0.0492 0.3844
vn 0.9367 -0.0303 -0.3489
vn 0.9879 -0.1194 -0.0989
vn 0.1236 -0.5301 0.8389
vn 0.2528 -0.5349 0.8062
vn -0.3748 -0.3795 0.8459
vn 0.6475 -0.4432 0.6199
vn -0.8005 -0.1939 0.5671
vn 0.9580 -0.2592 0.1226
vn -0.3048 -0.4078 0.8607
vn 0.7043 -0.4192 0.5729
vn -0.2497 -0.4718 0.8456
vn 0.5876 -0.5029 0.6339
vn 0.9397 0.3326 -0.0802
vn -0.8391 0.3994 0.3694
vn -0.9496 -0.3001 -0.0907
vn 0.7696 -0.3640 -0.5247
vn -0.3199 -0.7691 -0.5533
vn -0.0355 -0.7797 -0.6252
vn 0.1945 0.8678 0.4572
vn 0.1069 0.8711 0.4794
vn -0.6664 -0.6897 -0.2831
vn -0.1867 -0.8216 -0.5387
vn 0.2395 0.7161 0.6556
vn -0.5251 0.5264 0.6687
vn 0.5533 0.6575 0.5115
vn -0.1968 0.6853 0.7011
vn -0.1802 -0.8291 -0.5292
vn -0.1509 -0.8302 -0.5366
vn 0.8178 0.4733 0.3273
vn 0.1510 0.7194 0.6780
vn -0.1492 -0.8230 -0.5481
vn 0.4084 -0.7275 -0.5513
vn 0.9609 -0.0151 -0.2764
vn -0.9754 0.0568 0.2132
vn 0.6797 0.7174 -0.1528
vn 0.9438 0.3069 -0.1228
vn -0.9829 0.1418 0.1178
vn -0.8235 0.5537 0.1237
vn -0.7114 -0.6971 0.0895
vn -0.9833 -0.1262 0.1309
vn 0.9846 -0.1340 -0.1124
vn 0.9060 -0.4184 -0.0640
vn -0.1355 0.9908 0.0050
vn 0.0020 0.9996 -0.0264
vn 0.2486 0.9650 -0.0833
vn 0.3402 0.9341 -0.1081
vn 0.0893 -0.9819 0.1672
vn 0.0156 -0.9864 0.1639
vn -0.2498 -0.9595 0.1298
vn -0.3287 -0.9392 0.0990
vn -0.4115 -0.9079 0.0804
vn -0.4514 0.8902 0.0618
vn 0.0813 0.9954 -0.0501
vn -0.0857 -0.9842 0.1546
vn 0.4394 0.8873 -0.1402
vn 0.4236 -0.8996 0.1064
vn 0.5367 0.1683 -0.8268
vn 0.8218 -0.1959 -0.5351
vn -0.9036 -0.1839 -0.3870
vn -0.8126 0.1066 -0.5729
vn -0.7247 -0.6754 0.1365
vn -0.9186 -0.3250 -0.2248
vn 0.8514 -0.4602 -0.2517
vn 0.7990 -0.5992 -0.0502
vn -0.2015 0.3949 -0.8963
vn -0.1395 0.3850 -0.9123
vn 0.1195 0.3606 -0.9250
vn 0.1966 0.3195 -0.9270
vn 0.1481 -0.7034 0.6952
vn 0.0642 -0.6927 0.7184
vn -0.2463 -0.7108 0.6589
vn -0.3321 -0.7096 0.6215
vn -0.4333 -0.7276 0.5318
vn -0.4646 0.3578 -0.8100
vn -0.0482 0.3903 -0.9194
vn -0.0328 -0.7023 0.7111
vn 0.2621 0.2999 -0.9172
vn 0.4776 -0.7722 0.4191
vn -0.1193 -0.9902 -0.0732
vn 0.7477 0.4745 0.4647
vn 0.7320 0.5335 0.4238
vn 0.9053 0.4009 0.1403
vn 0.9994 -0.0000 0.0354
vn 0.9057 -0.4058 0.1227
vn 0.7248 -0.5483 0.4172
vn 0.7383 -0.4996 0.4531
vn 0.9043 0.0074 -0.4268
vn 0.9756 0.0624 -0.2105
vn 0.9971 -0.0218 -0.0730
vn 0.9704 -0.1151 -0.2122
vt 0.691140 0.496208
vt 0.618322 0.612315
vt 0.534444 0.483847
vt 0.619337 0.436895
vt 0.513481 0.687334
vt 0.392938 0.727286
vt 0.371408 0.521683
vt 0.452547 0.511342
vt 0.260454 0.720734
vt 0.140825 0.659808
vt 0.195499 0.507985
vt 0.287874 0.519733
vt 0.911324 0.890225
vt 0.926139 0.886046
vt 0.922274 0.950370
vt 0.897158 0.945891
vt 0.714529 0.358926
vt 0.088780 0.613202
vt 0.036735 0.566596
vt 0.083747 0.479010
vt 0.139623 0.493497
vt 0.598157 0.365565
vt 0.433960 0.374290
vt 0.508659 0.370428
vt 0.287704 0.377380
vt 0.361539 0.375775
vt 0.065507 0.367196
vt 0.135428 0.373963
vt 0.205350 0.380729
vt 0.958488 0.871448
vt 0.966044 0.919826
vt 0.274386 0.236253
vt 0.356591 0.230152
vt 0.078924 0.292994
vt 0.133277 0.274495
vt 0.522643 0.255424
vt 0.611692 0.292423
vt 0.438439 0.236139
vt 0.187631 0.255995
vt 0.932095 0.858022
vt 0.937731 0.847515
vt 0.957070 0.847022
vt 0.598792 0.112778
vt 0.674891 0.226703
vt 0.352142 0.026967
vt 0.480357 0.045059
vt 0.126128 0.118765
vt 0.230303 0.054519
vt 0.907921 0.847275
vt 0.874452 0.843829
vt 0.891495 0.820663
vt 0.910060 0.836343
vt 0.036735 0.208052
vt 0.081431 0.163409
vt 0.246445 0.719341
vt 0.125021 0.663182
vt 0.184838 0.508421
vt 0.273947 0.524364
vt 0.384977 0.981899
vt 0.399946 0.951015
vt 0.421979 0.970444
vt 0.400069 0.981899
vt 0.701663 0.383232
vt 0.667347 0.511448
vt 0.604594 0.452032
vt 0.601288 0.620543
vt 0.499495 0.701030
vt 0.439634 0.515641
vt 0.520019 0.493424
vt 0.374051 0.729345
vt 0.358715 0.528027
vt 0.073720 0.614697
vt 0.022420 0.566211
vt 0.071567 0.478236
vt 0.128202 0.493329
vt 0.587841 0.381480
vt 0.424755 0.381276
vt 0.499976 0.381632
vt 0.278705 0.379552
vt 0.352808 0.380385
vt 0.061413 0.395179
vt 0.128362 0.387910
vt 0.195311 0.380641
vt 0.415216 0.925571
vt 0.422611 0.941605
vt 0.070625 0.285249
vt 0.125636 0.269490
vt 0.519639 0.267270
vt 0.605767 0.310199
vt 0.354440 0.233314
vt 0.436203 0.243977
vt 0.180647 0.253732
vt 0.271963 0.238507
vt 0.355177 0.929520
vt 0.383407 0.914114
vt 0.598413 0.133441
vt 0.674935 0.248420
vt 0.365001 0.033278
vt 0.488509 0.060289
vt 0.122582 0.106572
vt 0.237239 0.044141
vt 0.900463 0.878513
vt 0.870962 0.938256
vt 0.022420 0.200264
vt 0.072501 0.153418
vt 0.078455 0.963605
vt 0.077666 0.851210
vt 0.155083 0.947714
vt 0.181758 0.843230
vt -0.016842 0.844088
vt 0.006526 0.946768
vt 0.356201 0.963174
vt 0.844100 0.889630
vt 0.932805 0.811266
vt 0.924662 0.841814
vt 0.921710 0.850110
vt 0.765306 0.925167
vt 0.745328 0.957401
vt 0.777314 0.927549
vt 0.797778 0.896832
vt 0.758850 0.087971
vt 0.734143 0.073429
vt 0.727001 0.084345
vt 0.746065 0.107515
vt 0.576246 0.747134
vt 0.555419 0.798958
vt 0.548796 0.775905
vt 0.571634 0.720895
vt 0.769578 0.123509
vt 0.744471 0.107645
vt 0.751080 0.097543
vt 0.782363 0.103965
vt 0.784213 0.731110
vt 0.797781 0.737158
vt 0.880935 0.564241
vt 0.867342 0.557972
vt 0.714321 0.087741
vt 0.734307 0.079367
vt 0.706419 0.061566
vt 0.729709 0.048144
vt 0.759415 0.061242
vt 0.742935 0.086433
vt 0.703608 0.072720
vt 0.717729 0.051134
vt 0.764091 0.076734
vt 0.747612 0.101925
vt 0.781411 0.663193
vt 0.748138 0.645442
vt 0.817534 0.548242
vt 0.851318 0.563184
vt 0.847214 0.166956
vt 0.854431 0.155924
vt 0.916418 0.215970
vt 0.898083 0.222147
vt 0.768643 0.849775
vt 0.740662 0.897782
vt 0.739612 0.843462
vt 0.780986 0.783528
vt 0.654630 0.788951
vt 0.613597 0.868778
vt 0.629968 0.784968
vt 0.653831 0.715693
vt 0.567407 0.831583
vt 0.556808 0.863970
vt 0.597273 0.838795
vt 0.616798 0.776662
vt 0.678670 0.896935
vt 0.651871 0.956064
vt 0.706917 0.897289
vt 0.743953 0.844497
vt 0.823143 0.855071
vt 0.791483 0.904222
vt 0.771536 0.914253
vt 0.800709 0.866882
vt 0.846009 0.128027
vt 0.838792 0.139059
vt 0.908660 0.195146
vt 0.926995 0.188969
vt 0.714121 0.628915
vt 0.782822 0.532247
vt 0.741284 0.062512
vt 0.725089 0.048830
vt 0.705102 0.057204
vt 0.711177 0.946324
vt 0.727738 0.917117
vt 0.582921 0.919280
vt 0.610975 0.860821
vt 0.682547 0.905561
vt 0.722325 0.825065
vt 0.829803 0.739312
vt 0.907782 0.577006
vt 0.839997 0.177989
vt 0.879749 0.228324
vt 0.714788 0.041392
vt 0.700667 0.062978
vt 0.686806 0.098403
vt 0.682508 0.075626
vt 0.688608 0.061401
vt 0.546268 0.762655
vt 0.535685 0.797491
vt 0.529210 0.842106
vt 0.540843 0.805419
vt 0.736293 0.069956
vt 0.713004 0.083378
vt 0.831575 0.150090
vt 0.890326 0.201323
vt 0.843205 0.740388
vt 0.920453 0.583922
vt 0.586293 0.815428
vt 0.608312 0.764241
vt 0.687268 0.056963
vt 0.697950 0.045535
vt 0.699290 0.049973
vt 0.645209 0.929569
vt 0.613799 0.912812
vt 0.597151 0.940220
vt 0.628561 0.956976
vt 0.683865 0.088661
vt 0.681168 0.071188
vt 0.813941 0.682168
vt 0.884174 0.577073
vt 0.653592 0.645307
vt 0.671917 0.670011
vt 0.753139 0.507720
vt 0.728868 0.497877
vt 0.706571 0.115390
vt 0.707888 0.119752
vt 0.731133 0.127115
vt 0.726456 0.111623
vt 0.849695 0.706564
vt 0.826417 0.690013
vt 0.897025 0.582499
vt 0.921296 0.592342
vt 0.700553 0.622867
vt 0.769229 0.525978
vt 0.698669 0.089215
vt 0.699986 0.093578
vt 0.684393 0.677857
vt 0.765990 0.513146
vt 0.716186 0.698045
vt 0.749459 0.715796
vt 0.832630 0.541977
vt 0.798846 0.527035
vt 0.673484 0.612558
vt 0.742382 0.513213
vt 0.737863 0.117747
vt 0.645763 0.635056
vt 0.719982 0.495258
vt 0.756793 0.143052
vt 0.771636 0.068428
vt 0.857524 0.716815
vt 0.660082 0.611482
vt 0.729710 0.506297
vt 0.930182 0.594961
vt 0.964364 0.406368
vt 0.953317 0.392881
vt 0.887515 0.301049
vt 0.869366 0.294346
vt 0.754989 0.404082
vt 0.766036 0.417569
vt 0.926843 0.378607
vt 0.913123 0.372855
vt 0.792509 0.431844
vt 0.878062 0.358267
vt 0.842921 0.348814
vt 0.807698 0.344496
vt 0.894550 0.279969
vt 0.912699 0.286672
vt 0.806230 0.437595
vt 0.905664 0.307751
vt 0.841290 0.452183
vt 0.876432 0.461636
vt 0.911654 0.465954
vt 0.767215 0.342820
vt 0.755838 0.350275
vt 0.925440 0.467602
vt 0.930848 0.293374
vt 0.793913 0.342848
vt 0.952138 0.467630
vt 0.963515 0.460175
vt 0.856694 0.417284
vt 0.755413 0.377178
vt 0.963939 0.433272
vt 0.760183 0.087346
vt 0.747398 0.106889
vt 0.728333 0.083720
vt 0.735475 0.072803
vt 0.770911 0.122883
vt 0.783696 0.103339
vt 0.752412 0.096917
vt 0.745804 0.107019
vt 0.715653 0.087115
vt 0.735640 0.078741
vt 0.707751 0.060941
vt 0.744267 0.085807
vt 0.760747 0.060616
vt 0.731041 0.047518
vt 0.704940 0.072095
vt 0.748944 0.101299
vt 0.765423 0.076109
vt 0.719062 0.050508
vt 0.848546 0.166331
vt 0.899416 0.221521
vt 0.917750 0.215344
vt 0.855763 0.155299
vt 0.847341 0.127401
vt 0.928327 0.188343
vt 0.909993 0.194520
vt 0.840124 0.138433
vt 0.706434 0.056578
vt 0.726421 0.048204
vt 0.742616 0.061887
vt 0.841329 0.177363
vt 0.881081 0.227698
vt 0.701999 0.062352
vt 0.716121 0.040766
vt 0.689940 0.060776
vt 0.683840 0.075001
vt 0.688139 0.097777
vt 0.714336 0.082752
vt 0.737625 0.069330
vt 0.891658 0.200697
vt 0.832907 0.149465
vt 0.688600 0.056338
vt 0.700622 0.049348
vt 0.699282 0.044910
vt 0.685198 0.088035
vt 0.682500 0.070562
vt 0.707903 0.114764
vt 0.709220 0.119126
vt 0.732465 0.126490
vt 0.727788 0.110997
vt 0.700001 0.088590
vt 0.701318 0.092952
vt 0.765990 0.513146
vt 0.832630 0.541977
vt 0.739195 0.117121
vt 0.758125 0.142426
vt 0.772968 0.067802
vt 0.870699 0.293721
vt 0.888848 0.300423
vt 0.842921 0.348814
vt 0.914032 0.286046
vt 0.895883 0.279344
vt 0.806230 0.437595
vt 0.906997 0.307126
vt 0.932180 0.292748
vt 0.487713 0.827548
vt 0.287065 0.892868
vt 0.299282 0.736140
vt 0.407042 0.731344
vt 0.106326 0.802245
vt 0.182336 0.720265
vt 0.152371 0.731416
vt 0.448341 0.748788
s 1
g howlMesh_howlMat
usemtl howlMat
f 58/1/58 6/2/6 13/3/13 14/4/14
f 5/5/5 4/6/4 11/7/11 12/8/12
f 3/9/3 2/10/2 9/11/9 10/12/10
f 57/13/57 50/14/50 62/15/62 63/16/63
f 7/17/7 58/1/58 14/4/14
f 6/2/6 5/5/5 12/8/12 13/3/13
f 4/6/4 3/9/3 10/12/10 11/7/11
f 328/18/328 57/19/57 8/20/8 321/21/321
f 7/17/7 14/4/14 21/22/21
f 13/3/13 12/8/12 19/23/19 20/24/20
f 11/7/11 10/12/10 17/25/17 18/26/18
f 321/21/321 8/20/8 15/27/15 322/28/322
f 14/4/14 13/3/13 20/24/20 21/22/21
f 12/8/12 11/7/11 18/26/18 19/23/19
f 10/12/10 9/11/9 16/29/16 17/25/17
f 50/14/50 43/30/43 61/31/61 62/15/62
f 18/26/18 17/25/17 24/32/24 25/33/25
f 322/28/322 15/27/15 22/34/22 323/35/323
f 21/22/21 20/24/20 27/36/27 28/37/28
f 19/23/19 18/26/18 25/33/25 26/38/26
f 17/25/17 16/29/16 23/39/23 24/32/24
f 43/30/43 36/40/36 68/41/68 69/42/69
f 7/17/7 21/22/21 28/37/28
f 20/24/20 19/23/19 26/38/26 27/36/27
f 28/37/28 27/36/27 34/43/34 35/44/35
f 26/38/26 25/33/25 32/45/32 33/46/33
f 24/32/24 23/39/23 30/47/30 31/48/31
f 22/49/22 15/50/15 65/51/65 66/52/66
f 7/17/7 28/37/28 35/44/35
f 27/36/27 26/38/26 33/46/33 34/43/34
f 25/33/25 24/32/24 31/48/31 32/45/32
f 323/35/323 22/34/22 29/53/29 324/54/324
f 31/55/31 30/56/30 37/57/37 38/58/38
f 15/59/15 1/60/1 70/61/70 65/62/65
f 7/63/7 35/64/35 42/65/42
f 34/66/34 33/67/33 40/68/40 41/69/41
f 32/70/32 31/55/31 38/58/38 39/71/39
f 324/72/324 29/73/29 36/74/36 325/75/325
f 35/64/35 34/66/34 41/69/41 42/65/42
f 33/67/33 32/70/32 39/71/39 40/68/40
f 7/63/7 42/65/42 49/76/49
f 41/69/41 40/68/40 47/77/47 48/78/48
f 39/71/39 38/58/38 45/79/45 46/80/46
f 325/75/325 36/74/36 43/81/43 326/82/326
f 42/65/42 41/69/41 48/78/48 49/76/49
f 40/68/40 39/71/39 46/80/46 47/77/47
f 38/58/38 37/57/37 44/83/44 45/79/45
f 1/60/1 43/84/43 69/85/69 70/61/70
f 326/82/326 43/81/43 50/86/50 327/87/327
f 49/76/49 48/78/48 55/88/55 56/89/56
f 47/77/47 46/80/46 53/90/53 54/91/54
f 45/79/45 44/83/44 51/92/51 52/93/52
f 43/84/43 1/60/1 64/94/64 61/95/61
f 7/63/7 49/76/49 56/89/56
f 48/78/48 47/77/47 54/91/54 55/88/55
f 46/80/46 45/79/45 52/93/52 53/90/53
f 56/89/56 55/88/55 6/96/6 58/97/58
f 54/91/54 53/90/53 4/98/4 5/99/5
f 52/93/52 51/92/51 2/100/2 3/101/3
f 8/102/8 57/13/57 63/16/63 59/103/59
f 7/63/7 56/89/56 58/97/58
f 55/88/55 54/91/54 5/99/5 6/96/6
f 53/90/53 52/93/52 3/101/3 4/98/4
f 327/87/327 50/86/50 57/104/57 328/105/328
f 63/106/63 64/107/64 59/108/59
f 59/108/59 64/107/64 60/109/60
f 61/110/61 64/107/64 62/111/62
f 62/111/62 64/107/64 63/106/63
f 1/60/1 15/59/15 60/112/60 64/94/64
f 15/50/15 8/102/8 59/103/59 60/113/60
f 65/51/65 70/114/70 66/52/66
f 66/52/66 70/114/70 67/115/67
f 67/115/67 70/114/70 68/41/68
f 68/41/68 70/114/70 69/42/69
f 29/116/29 22/49/22 66/52/66 67/115/67
f 36/40/36 29/116/29 67/115/67 68/41/68
f 140/117/140 88/118/88 74/119/74 130/120/130
f 150/121/150 116/122/116 78/123/78 131/124/131
f 148/125/148 106/126/106 76/127/76 132/128/132
f 149/129/149 118/130/118 72/131/72 129/132/129
f 79/133/79 92/134/92 159/135/159 160/136/160
f 126/137/126 107/138/107 72/131/72 118/130/118
f 122/139/122 87/140/87 82/141/82 119/142/119
f 124/143/124 97/144/97 81/145/81 120/146/120
f 100/147/100 99/148/99 170/149/170 165/150/165
f 117/151/117 71/152/71 152/153/152 157/154/157
f 138/155/138 94/156/94 85/157/85 133/158/133
f 144/159/144 102/160/102 86/161/86 134/162/134
f 146/163/146 108/164/108 81/165/81 135/166/135
f 142/167/142 98/168/98 82/169/82 136/170/136
f 131/171/131 78/172/78 93/173/93 137/174/137
f 137/174/137 93/173/93 94/156/94 138/155/138
f 73/175/73 115/176/115 153/177/153 154/178/154
f 99/148/99 83/179/83 164/180/164 170/149/170
f 116/122/116 74/181/74 88/182/88 121/183/121
f 121/183/121 88/182/88 87/140/87 122/139/122
f 136/170/136 82/169/82 87/184/87 139/185/139
f 139/185/139 87/184/87 88/118/88 140/117/140
f 135/166/135 81/165/81 97/186/97 141/187/141
f 141/187/141 97/186/97 98/168/98 142/167/142
f 133/158/133 85/157/85 101/188/101 143/189/143
f 143/189/143 101/188/101 102/160/102 144/159/144
f 92/134/92 91/190/91 168/191/168 159/135/159
f 75/192/75 117/151/117 157/154/157 158/193/158
f 119/142/119 82/141/82 98/194/98 123/195/123
f 124/143/124 102/196/102 114/197/114 128/198/128
f 129/199/129 72/200/72 107/201/107 145/202/145
f 145/202/145 107/201/107 108/164/108 146/163/146
f 120/146/120 81/145/81 108/203/108 125/204/125
f 125/204/125 108/203/108 107/138/107 126/137/126
f 115/176/115 77/205/77 156/206/156 153/177/153
f 91/190/91 73/207/73 154/208/154 168/191/168
f 134/162/134 86/161/86 105/209/105 147/210/147
f 147/210/147 105/209/105 106/126/106 148/125/148
f 127/211/127 112/212/112 111/213/111 128/198/128
f 102/160/102 101/188/101 113/214/113 114/215/114
f 98/168/98 97/186/97 111/216/111 112/217/112
f 123/195/123 98/194/98 112/212/112 127/211/127
f 101/218/101 123/195/123 127/211/127 113/219/113
f 113/219/113 127/211/127 128/198/128 114/197/114
f 84/220/84 100/147/100 165/150/165 166/221/166
f 104/222/104 103/223/103 171/224/171 151/225/151
f 105/226/105 125/204/125 126/137/126 106/227/106
f 86/228/86 120/146/120 125/204/125 105/226/105
f 97/144/97 124/143/124 128/198/128 111/213/111
f 85/229/85 119/142/119 123/195/123 101/218/101
f 90/230/90 89/231/89 167/232/167 155/233/155
f 83/179/83 110/234/110 163/235/163 164/180/164
f 93/236/93 121/183/121 122/139/122 94/237/94
f 78/123/78 116/122/116 121/183/121 93/236/93
f 103/223/103 80/238/80 162/239/162 171/224/171
f 96/240/96 95/241/95 169/242/169 161/243/161
f 89/231/89 84/220/84 166/221/166 167/232/167
f 110/234/110 109/244/109 172/245/172 163/235/163
f 102/196/102 124/143/124 120/146/120 86/228/86
f 94/237/94 122/139/122 119/142/119 85/229/85
f 106/227/106 126/137/126 118/130/118 76/246/76
f 71/247/71 104/222/104 151/225/151 152/248/152
f 132/249/132 76/246/76 118/130/118 149/129/149
f 130/250/130 74/181/74 116/122/116 150/121/150
f 73/175/73 130/250/130 150/121/150 115/176/115
f 75/192/75 132/249/132 149/129/149 117/151/117
f 110/234/110 147/210/147 148/125/148 109/244/109
f 83/179/83 134/162/134 147/210/147 110/234/110
f 104/222/104 145/202/145 146/163/146 103/223/103
f 71/247/71 129/199/129 145/202/145 104/222/104
f 100/147/100 143/189/143 144/159/144 99/148/99
f 84/220/84 133/158/133 143/189/143 100/147/100
f 96/240/96 141/187/141 142/167/142 95/241/95
f 80/238/80 135/166/135 141/187/141 96/240/96
f 92/134/92 139/185/139 140/117/140 91/190/91
f 79/133/79 136/170/136 139/185/139 92/134/92
f 90/230/90 137/174/137 138/155/138 89/231/89
f 77/251/77 131/171/131 137/174/137 90/230/90
f 95/241/95 142/167/142 136/170/136 79/133/79
f 103/223/103 146/163/146 135/166/135 80/238/80
f 99/148/99 144/159/144 134/162/134 83/179/83
f 89/231/89 138/155/138 133/158/133 84/220/84
f 117/151/117 149/129/149 129/132/129 71/152/71
f 109/244/109 148/125/148 132/128/132 75/252/75
f 115/176/115 150/121/150 131/124/131 77/205/77
f 91/190/91 140/117/140 130/120/130 73/207/73
f 80/238/80 96/240/96 161/243/161 162/239/162
f 109/244/109 75/252/75 158/253/158 172/245/172
f 77/251/77 90/230/90 155/233/155 156/254/156
f 95/241/95 79/133/79 160/136/160 169/242/169
f 168/191/168 154/208/154 176/255/176 190/256/190
f 158/193/158 157/154/157 179/257/179 180/258/180
f 172/245/172 158/253/158 180/259/180 194/260/194
f 159/135/159 168/191/168 190/256/190 181/261/181
f 160/136/160 159/135/159 181/261/181 182/262/182
f 163/235/163 172/245/172 194/260/194 185/263/185
f 169/242/169 160/136/160 182/262/182 191/264/191
f 162/239/162 161/243/161 183/265/183 184/266/184
f 153/177/153 156/206/156 178/267/178 175/268/175
f 161/243/161 169/242/169 191/264/191 183/265/183
f 164/180/164 163/235/163 185/263/185 186/269/186
f 157/154/157 152/153/152 174/270/174 179/257/179
f 170/149/170 164/180/164 186/269/186 192/271/192
f 166/221/166 165/150/165 187/272/187 188/273/188
f 152/248/152 151/225/151 173/274/173 174/275/174
f 165/150/165 170/149/170 192/271/192 187/272/187
f 167/232/167 166/221/166 188/273/188 189/276/189
f 154/178/154 153/177/153 175/268/175 176/277/176
f 171/224/171 162/239/162 184/266/184 193/278/193
f 155/233/155 167/232/167 189/276/189 177/279/177
f 156/254/156 155/233/155 177/279/177 178/280/178
f 151/225/151 171/224/171 193/278/193 173/274/173
f 190/256/190 176/255/176 195/281/195
f 180/259/180 179/282/179 195/281/195
f 194/260/194 180/259/180 195/281/195
f 181/261/181 190/256/190 195/281/195
f 182/262/182 181/261/181 195/281/195
f 185/263/185 194/260/194 195/281/195
f 191/264/191 182/262/182 195/281/195
f 184/266/184 183/265/183 195/281/195
f 175/283/175 178/280/178 195/281/195
f 183/265/183 191/264/191 195/281/195
f 186/269/186 185/263/185 195/281/195
f 179/282/179 174/275/174 195/281/195
f 192/271/192 186/269/186 195/281/195
f 188/273/188 187/272/187 195/281/195
f 174/275/174 173/274/173 195/281/195
f 187/272/187 192/271/192 195/281/195
f 189/276/189 188/273/188 195/281/195
f 176/255/176 175/283/175 195/281/195
f 193/278/193 184/266/184 195/281/195
f 177/279/177 189/276/189 195/281/195
f 178/280/178 177/279/177 195/281/195
f 173/274/173 193/278/193 195/281/195
f 265/117/265 255/120/255 213/119/213 199/118/199
f 275/284/275 256/285/256 209/286/209 241/287/241
f 273/125/273 257/128/257 211/127/211 231/126/231
f 274/288/274 254/289/254 215/290/215 243/291/243
f 208/133/208 285/136/285 284/135/284 217/134/217
f 251/292/251 243/291/243 215/290/215 232/293/232
f 247/294/247 244/295/244 205/296/205 200/297/200
f 249/298/249 245/299/245 206/300/206 222/301/222
f 225/147/225 290/150/290 295/149/295 224/148/224
f 242/302/242 282/303/282 277/304/277 216/305/216
f 263/155/263 258/158/258 202/157/202 219/156/219
f 269/159/269 259/162/259 201/161/201 227/160/227
f 271/163/271 260/166/260 206/165/206 233/164/233
f 267/167/267 261/170/261 205/169/205 223/168/223
f 256/171/256 262/174/262 218/173/218 209/172/209
f 262/174/262 263/155/263 219/156/219 218/173/218
f 214/306/214 279/307/279 278/308/278 240/309/240
f 224/148/224 295/149/295 289/180/289 204/179/204
f 241/287/241 246/310/246 199/311/199 213/312/213
f 246/310/246 247/294/247 200/297/200 199/311/199
f 261/170/261 264/185/264 200/184/200 205/169/205
f 264/185/264 265/117/265 199/118/199 200/184/200
f 260/166/260 266/187/266 222/186/222 206/165/206
f 266/187/266 267/167/267 223/168/223 222/186/222
f 258/158/258 268/189/268 226/188/226 202/157/202
f 268/189/268 269/159/269 227/160/227 226/188/226
f 217/134/217 284/135/284 293/191/293 196/190/196
f 212/313/212 283/314/283 282/303/282 242/302/242
f 244/295/244 248/315/248 223/316/223 205/296/205
f 249/298/249 253/317/253 239/318/239 227/319/227
f 254/199/254 270/202/270 232/201/232 215/200/215
f 270/202/270 271/163/271 233/164/233 232/201/232
f 245/299/245 250/320/250 233/321/233 206/300/206
f 250/320/250 251/292/251 232/293/232 233/321/233
f 240/309/240 278/308/278 281/322/281 210/323/210
f 196/190/196 293/191/293 279/208/279 214/207/214
f 259/162/259 272/210/272 230/209/230 201/161/201
f 272/210/272 273/125/273 231/126/231 230/209/230
f 252/324/252 253/317/253 236/325/236 237/326/237
f 227/160/227 239/215/239 238/214/238 226/188/226
f 223/168/223 237/217/237 236/216/236 222/186/222
f 248/315/248 252/324/252 237/326/237 223/316/223
f 226/327/226 238/328/238 252/324/252 248/315/248
f 238/328/238 239/318/239 253/317/253 252/324/252
f 203/220/203 291/221/291 290/150/290 225/147/225
f 229/222/229 276/225/276 296/224/296 228/223/228
f 230/329/230 231/330/231 251/292/251 250/320/250
f 201/331/201 230/329/230 250/320/250 245/299/245
f 222/301/222 236/325/236 253/317/253 249/298/249
f 202/332/202 226/327/226 248/315/248 244/295/244
f 197/230/197 280/233/280 292/232/292 198/231/198
f 204/179/204 289/180/289 288/235/288 235/234/235
f 218/333/218 219/334/219 247/294/247 246/310/246
f 209/286/209 218/333/218 246/310/246 241/287/241
f 228/223/228 296/224/296 287/335/287 207/238/207
f 221/240/221 286/243/286 294/336/294 220/241/220
f 198/231/198 292/232/292 291/221/291 203/220/203
f 235/234/235 288/235/288 297/245/297 234/244/234
f 227/319/227 201/331/201 245/299/245 249/298/249
f 219/334/219 202/332/202 244/295/244 247/294/247
f 231/330/231 211/337/211 243/291/243 251/292/251
f 216/247/216 277/248/277 276/225/276 229/222/229
f 257/338/257 274/288/274 243/291/243 211/337/211
f 255/339/255 275/284/275 241/287/241 213/312/213
f 214/306/214 240/309/240 275/284/275 255/339/255
f 212/313/212 242/302/242 274/288/274 257/338/257
f 235/234/235 234/244/234 273/125/273 272/210/272
f 204/179/204 235/234/235 272/210/272 259/162/259
f 229/222/229 228/223/228 271/163/271 270/202/270
f 216/247/216 229/222/229 270/202/270 254/199/254
f 225/147/225 224/148/224 269/159/269 268/189/268
f 203/220/203 225/147/225 268/189/268 258/158/258
f 221/240/221 220/241/220 267/167/267 266/187/266
f 207/238/207 221/240/221 266/187/266 260/166/260
f 217/134/217 196/190/196 265/117/265 264/185/264
f 208/133/208 217/134/217 264/185/264 261/170/261
f 197/230/197 198/231/198 263/155/263 262/174/262
f 210/251/210 197/230/197 262/174/262 256/171/256
f 220/241/220 208/133/208 261/170/261 267/167/267
f 228/223/228 207/238/207 260/166/260 271/163/271
f 224/148/224 204/179/204 259/162/259 269/159/269
f 198/231/198 203/220/203 258/158/258 263/155/263
f 242/302/242 216/305/216 254/289/254 274/288/274
f 234/244/234 212/252/212 257/128/257 273/125/273
f 240/309/240 210/323/210 256/285/256 275/284/275
f 196/190/196 214/207/214 255/120/255 265/117/265
f 207/238/207 287/335/287 286/243/286 221/240/221
f 234/244/234 297/245/297 283/253/283 212/252/212
f 210/251/210 281/254/281 280/233/280 197/230/197
f 220/241/220 294/336/294 285/136/285 208/133/208
f 293/191/293 315/256/315 301/255/301 279/208/279
f 283/314/283 305/340/305 304/341/304 282/303/282
f 297/245/297 319/260/319 305/259/305 283/253/283
f 284/135/284 306/261/306 315/256/315 293/191/293
f 285/136/285 307/262/307 306/261/306 284/135/284
f 288/235/288 310/263/310 319/260/319 297/245/297
f 294/336/294 316/264/316 307/262/307 285/136/285
f 287/335/287 309/266/309 308/342/308 286/243/286
f 278/308/278 300/343/300 303/344/303 281/322/281
f 286/243/286 308/342/308 316/264/316 294/336/294
f 289/180/289 311/345/311 310/263/310 288/235/288
f 282/303/282 304/341/304 299/346/299 277/304/277
f 295/149/295 317/271/317 311/345/311 289/180/289
f 291/221/291 313/273/313 312/272/312 290/150/290
f 277/248/277 299/275/299 298/274/298 276/225/276
f 290/150/290 312/272/312 317/271/317 295/149/295
f 292/232/292 314/276/314 313/273/313 291/221/291
f 279/307/279 301/347/301 300/343/300 278/308/278
f 296/224/296 318/278/318 309/266/309 287/335/287
f 280/233/280 302/279/302 314/276/314 292/232/292
f 281/254/281 303/280/303 302/279/302 280/233/280
f 276/225/276 298/274/298 318/278/318 296/224/296
f 315/256/315 320/281/320 301/255/301
f 305/259/305 320/281/320 304/282/304
f 319/260/319 320/281/320 305/259/305
f 306/261/306 320/281/320 315/256/315
f 307/262/307 320/281/320 306/261/306
f 310/263/310 320/281/320 319/260/319
f 316/264/316 320/281/320 307/262/307
f 309/266/309 320/281/320 308/342/308
f 300/283/300 320/281/320 303/280/303
f 308/342/308 320/281/320 316/264/316
f 311/345/311 320/281/320 310/263/310
f 304/282/304 320/281/320 299/275/299
f 317/271/317 320/281/320 311/345/311
f 313/273/313 320/281/320 312/272/312
f 299/275/299 320/281/320 298/274/298
f 312/272/312 320/281/320 317/271/317
f 314/276/314 320/281/320 313/273/313
f 301/255/301 320/281/320 300/283/300
f 318/278/318 320/281/320 309/266/309
f 302/279/302 320/281/320 314/276/314
f 303/280/303 320/281/320 302/279/302
f 298/274/298 320/281/320 318/278/318
f 9/348/9 2/349/2 330/350/330 329/351/329
f 44/83/44 326/82/326 327/87/327 51/92/51
f 37/57/37 325/75/325 326/82/326 44/83/44
f 30/56/30 324/72/324 325/75/325 37/57/37
f 23/39/23 323/35/323 324/54/324 30/47/30
f 16/29/16 322/28/322 323/35/323 23/39/23
f 9/11/9 321/21/321 322/28/322 16/29/16
f 2/349/2 51/352/51 331/353/331 330/350/330
f 51/352/51 327/354/327 331/353/331
f 327/87/327 328/105/328 330/105/330 331/87/331
f 321/355/321 9/348/9 329/351/329
f 328/18/328 321/21/321 329/21/329 330/18/330
