# Blender 5.0.1
# www.blender.org
mtllib model.mtl
o outline
v 0.111027 0.000000 1.347854
v 0.544131 0.000000 1.167590
v -0.148612 0.601800 1.108490
v 0.304556 0.716940 0.964684
v -0.483229 0.677424 -0.140757
v -0.086604 0.948466 -0.195481
v -0.255614 0.400430 -0.770969
v 0.231352 0.451284 -0.755641
v -0.157261 0.000000 -0.983220
v 0.348921 0.000000 -1.016826
v -0.255614 -0.400430 -0.770969
v 0.220347 -0.552543 -0.807562
v -0.483229 -0.677424 -0.140757
v -0.086604 -0.948466 -0.195481
v -0.148612 -0.601800 1.108490
v 0.304556 -0.716940 0.964684
v -0.205605 -0.180768 -0.928434
v 0.283752 -0.295854 -0.961591
v -0.003421 -0.326208 1.304826
v 0.425600 -0.373322 1.123835
v -0.003421 0.326208 1.304826
v 0.425600 0.373322 1.123835
v -0.205605 0.180768 -0.928434
v 0.283752 0.295854 -0.961591
v -0.351895 -0.510751 -0.506422
v 0.049757 -0.778296 -0.551534
v -0.303565 -0.684859 0.851054
v 0.099702 -0.951037 0.796006
v -0.303565 0.684859 0.851054
v 0.099702 0.951037 0.796006
v -0.351895 0.510751 -0.506422
v 0.085305 0.724092 -0.513546
v -0.338156 0.722115 0.795782
v -0.478693 0.797982 0.310188
v -0.436450 0.804505 0.559931
v -0.078865 1.069032 0.255483
v 0.064366 0.988326 0.737892
v -0.035068 1.074138 0.504292
v -0.478693 -0.797982 0.310188
v -0.338156 -0.722115 0.795782
v -0.436450 -0.804505 0.559931
v 0.064366 -0.988326 0.737892
v -0.078865 -1.069032 0.255483
v -0.035068 -1.074138 0.504292
v 0.366038 0.000000 1.383289
v 0.152706 0.746375 1.143091
v -0.231598 1.000530 -0.237824
v 0.029411 0.544762 -0.978957
v 0.147945 0.000000 -1.199993
v 0.032586 -0.610639 -0.939346
v -0.231598 -1.000530 -0.237824
v 0.152706 -0.746375 1.143091
v 0.259912 -0.375046 1.328762
v 0.090140 -0.311502 -1.131989
v 0.090140 0.311502 -1.131989
v 0.259912 0.375046 1.328762
v -0.028196 -0.971936 0.943859
v -0.099340 -0.817832 -0.630133
v -0.102133 0.807237 -0.646447
v -0.028196 0.971936 0.943859
v -0.222861 1.131860 0.255929
v -0.175411 1.135446 0.568127
v -0.070648 1.031081 0.855965
v -0.070648 -1.031081 0.855965
v -0.175411 -1.135446 0.568128
v -0.222861 -1.131860 0.255929
v 0.035426 0.751438 1.164054
v -0.339132 1.001746 -0.234481
v -0.074665 0.623504 -0.923214
v 0.040349 0.000000 -1.199993
v -0.074665 -0.623504 -0.923214
v -0.339132 -1.001746 -0.234481
v 0.035426 -0.751438 1.164054
v 0.140676 -0.379030 1.343617
v -0.017806 -0.320765 -1.126281
v -0.017806 0.320765 -1.126281
v 0.140676 0.379030 1.343617
v -0.141690 -0.981617 0.944424
v -0.206478 -0.821343 -0.622239
v -0.206478 0.821343 -0.622239
v -0.141690 0.981617 0.944424
v -0.333733 1.131465 0.253168
v -0.185497 -1.041026 0.848467
v 0.248808 0.000000 1.392377
v -0.288663 1.138742 0.556893
v -0.185497 1.041026 0.848467
v -0.288663 -1.138742 0.556893
v -0.333733 -1.131465 0.253168
vn 0.6876 -0.0000 -0.7261
vn -0.9546 -0.0000 -0.2978
vn 0.8253 0.0206 -0.5643
vn -0.8089 -0.5562 -0.1907
vn 0.9802 0.1772 0.0883
vn -0.5760 -0.7885 0.2158
vn 0.9548 0.0459 0.2937
vn -0.8106 -0.5334 0.2417
vn 0.9150 -0.0000 0.4035
vn -0.8898 -0.0000 0.4563
vn 0.9548 -0.0459 0.2937
vn -0.7652 0.5592 0.3190
vn 0.9802 -0.1772 0.0883
vn -0.5464 0.8106 0.2108
vn 0.8253 -0.0206 -0.5643
vn -0.8087 0.5541 -0.1973
vn 0.9410 -0.0869 0.3271
vn -0.8273 0.3653 0.4268
vn 0.7523 -0.0495 -0.6569
vn -0.8851 0.3622 -0.2923
vn 0.7523 0.0495 -0.6569
vn -0.8822 -0.3706 -0.2905
vn 0.9410 0.0869 0.3271
vn -0.8174 -0.4118 0.4028
vn 0.9235 -0.3250 0.2035
vn -0.5932 0.7712 0.2313
vn 0.8344 -0.3383 -0.4352
vn -0.6446 0.7532 -0.1314
vn 0.8344 0.3383 -0.4352
vn -0.6670 -0.7343 -0.1265
vn 0.9235 0.3250 0.2035
vn -0.6869 -0.6909 0.2257
vn 0.9014 0.1830 -0.3925
vn 0.9883 0.1247 -0.0881
vn 0.9582 0.1149 -0.2620
vn -0.5652 -0.8103 0.1550
vn -0.6136 -0.7881 -0.0491
vn -0.5737 -0.8179 0.0449
vn 0.9883 -0.1247 -0.0881
vn 0.9014 -0.1830 -0.3925
vn 0.9582 -0.1149 -0.2620
vn -0.6015 0.7972 -0.0509
vn -0.5534 0.8188 0.1526
vn -0.5621 0.8259 0.0430
vn -0.5089 -0.0000 -0.8608
vn -0.4168 -0.6288 -0.6564
vn -0.2056 -0.9258 0.3171
vn -0.3461 -0.6794 0.6470
vn -0.3717 -0.0000 0.9284
vn -0.2785 0.7002 0.6574
vn -0.1772 0.9321 0.3158
vn -0.4168 0.6288 -0.6564
vn -0.4372 0.3643 -0.8223
vn -0.3092 0.4004 0.8626
vn -0.3351 -0.4344 0.8361
vn -0.4372 -0.3643 -0.8223
vn -0.3047 0.8052 -0.5088
vn -0.2144 0.8781 0.4279
vn -0.3433 -0.8390 0.4221
vn -0.3047 -0.8052 -0.5088
vn -0.1916 -0.9701 0.1487
vn -0.2088 -0.9699 -0.1254
vn -0.2571 -0.8993 -0.3539
vn -0.2571 0.8993 -0.3539
vn -0.2088 0.9699 -0.1254
vn -0.1916 0.9701 0.1487
vn 0.2039 -0.5226 -0.8279
vn 0.5638 -0.7464 0.3536
vn 0.3573 -0.6424 0.6780
vn 0.3540 -0.0000 0.9353
vn 0.4212 0.5905 0.6885
vn 0.5660 0.7449 0.3531
vn 0.2039 0.5226 -0.8279
vn 0.1225 0.2727 -0.9543
vn 0.4196 0.3077 0.8540
vn 0.4152 -0.3106 0.8551
vn 0.1225 -0.2727 -0.9543
vn 0.3795 0.6213 -0.6855
vn 0.4976 0.6758 0.5438
vn 0.4722 -0.6915 0.5467
vn 0.3795 -0.6213 -0.6855
vn 0.5444 -0.8353 0.0768
vn 0.4433 0.7265 -0.5250
vn 0.0594 -0.0000 -0.9982
vn 0.5101 -0.8269 -0.2366
vn 0.4433 -0.7265 -0.5250
vn 0.5101 0.8269 -0.2366
vn 0.5444 0.8353 0.0768
vt 0.057903 0.732111
vt 0.074091 0.654908
vt 0.057903 0.732111
vt 0.096374 0.266373
vt 0.073819 0.185606
vt 0.073819 0.185606
vt 0.063715 0.125774
vt 0.053610 0.065942
vt 0.063715 0.125774
vt 0.063715 1.492855
vt 0.073820 1.433023
vt 0.096375 1.352255
vt 0.118930 1.271488
vt 0.118930 1.271488
vt 0.098081 1.032232
vt 0.074091 0.963721
vt 0.074091 0.963721
vt 0.098081 1.032232
vt 0.057903 0.886518
vt 0.041715 0.809314
vt 0.057903 0.886518
vt 0.518209 0.088885
vt 0.488970 0.875828
vt 0.608100 0.892800
vt 0.608100 0.068478
vt 0.916498 0.754729
vt 0.851417 0.245882
vt 0.787883 0.147303
vt 0.846361 0.816373
vt 0.364783 0.245882
vt 0.299702 0.754729
vt 0.369840 0.816373
vt 0.428317 0.147303
vt 0.518155 0.089581
vt 0.488208 0.881216
vt 0.368316 0.824018
vt 0.428211 0.148695
vt 0.727992 0.881216
vt 0.698045 0.089581
vt 0.787989 0.148695
vt 0.847884 0.824018
vt 0.727230 0.875828
vt 0.697991 0.088885
vt 0.608100 0.895931
vt 0.053611 1.552687
vt 0.298940 0.758551
vt 0.364728 0.246581
vt 0.851472 0.246581
vt 0.917260 0.758551
vt 0.118929 0.347140
vt 0.118929 0.347140
vt 0.098081 0.586397
vt 0.098081 0.586397
vt 0.166522 0.452359
vt 0.161973 0.515128
vt 0.161973 0.515128
vt 0.166522 0.452359
vt 0.148728 0.570090
vt 0.148728 1.048539
vt 0.161973 1.103501
vt 0.161973 1.103501
vt 0.166522 1.166270
vt 0.914954 0.382479
vt 0.960449 0.552650
vt 0.962910 0.646894
vt 0.931819 0.735896
vt 0.102697 0.573215
vt 0.102697 0.573215
vt 0.120923 0.455510
vt 0.960448 0.552650
vt 0.914951 0.382472
vt 0.929993 0.734694
vt 0.962375 0.646542
vt 0.284381 0.735896
vt 0.253290 0.646894
vt 0.255751 0.552650
vt 0.301246 0.382479
vt 0.120923 1.163119
vt 0.120923 1.163118
vt 0.102697 1.045414
vt 0.102697 1.045414
vt 0.301249 0.382472
vt 0.255752 0.552650
vt 0.253825 0.646542
vt 0.286207 0.734694
vt 0.143624 1.033831
vt 0.164045 1.274602
vt 0.164045 0.344027
vt 0.143624 0.584798
vt 0.122071 1.100743
vt 0.122071 1.100743
vt 0.122071 0.517885
vt 0.122071 0.517885
vt 0.119300 0.654881
vt 0.141502 0.263649
vt 0.118959 1.435357
vt 0.141502 1.354979
vt 0.086893 0.809314
vt 0.103097 0.732098
vt 0.118959 0.183272
vt 0.108848 0.123237
vt 0.098737 1.555426
vt 0.108848 1.495392
vt 0.119300 0.963747
vt 0.103097 0.886531
vt 0.098736 0.063202
vt 0.118959 0.183272
vt 0.118959 1.435357
vt 0.164045 1.274602
vt 0.143624 1.033831
vt 0.119300 0.963747
s 1
g outline_Material
usemtl Material
f 56/1/56 46/2/46 4/2/4 22/3/22
f 59/4/59 48/5/48 8/6/8 32/4/32
f 55/7/55 49/8/49 10/8/10 24/9/24
f 54/10/54 50/11/50 12/11/12 18/10/18
f 58/12/58 51/13/51 14/14/14 26/12/26
f 57/15/57 52/16/52 16/17/16 28/18/28
f 53/19/53 45/20/45 2/20/2 20/21/20
f 18/22/18 20/23/20 2/24/2 10/25/10
f 30/26/30 32/27/32 8/28/8 4/29/4
f 26/30/26 28/31/28 16/32/16 12/33/12
f 17/34/17 19/35/19 15/36/15 11/37/11
f 21/38/21 23/39/23 7/40/7 3/41/3
f 22/42/22 24/43/24 10/25/10 2/24/2
f 9/25/9 1/44/1 19/35/19 17/34/17
f 12/33/12 16/32/16 20/23/20 18/22/18
f 52/16/52 53/19/53 20/21/20 16/17/16
f 49/45/49 54/10/54 18/10/18 10/45/10
f 4/29/4 8/28/8 24/43/24 22/42/22
f 1/44/1 9/25/9 23/39/23 21/38/21
f 48/5/48 55/7/55 24/9/24 8/6/8
f 45/20/45 56/1/56 22/3/22 2/20/2
f 11/37/11 15/36/15 27/46/27 25/47/25
f 50/11/50 58/12/58 26/12/26 12/11/12
f 3/41/3 7/40/7 31/48/31 29/49/29
f 47/50/47 59/4/59 32/4/32 6/51/6
f 46/2/46 60/52/60 30/53/30 4/2/4
f 82/54/82 85/55/85 35/56/35 34/57/34
f 85/55/85 86/58/86 33/58/33 35/56/35
f 83/59/83 87/60/87 41/61/41 40/59/40
f 87/60/87 88/62/88 39/62/39 41/61/41
f 29/49/29 31/48/31 5/63/5 34/64/34 35/65/35 33/66/33
f 60/52/60 63/67/63 37/68/37 30/53/30
f 61/69/61 47/50/47 6/51/6 36/69/36
f 36/70/36 6/71/6 32/27/32 30/26/30 37/72/37 38/73/38
f 25/47/25 27/46/27 40/74/40 41/75/41 39/76/39 13/77/13
f 51/13/51 66/78/66 43/79/43 14/14/14
f 64/80/64 57/15/57 28/18/28 42/81/42
f 14/82/14 43/83/43 44/84/44 42/85/42 28/31/28 26/30/26
f 83/59/83 78/86/78 57/15/57 64/80/64
f 72/87/72 88/62/88 66/78/66 51/13/51
f 82/54/82 68/88/68 47/50/47 61/69/61
f 81/89/81 86/58/86 63/67/63 60/52/60
f 44/90/44 43/79/43 66/78/66 65/91/65
f 42/81/42 44/90/44 65/91/65 64/80/64
f 38/92/38 37/68/37 63/67/63 62/93/62
f 36/69/36 38/92/38 62/93/62 61/69/61
f 67/94/67 81/89/81 60/52/60 46/2/46
f 68/88/68 80/95/80 59/4/59 47/50/47
f 71/96/71 79/97/79 58/12/58 50/11/50
f 84/98/84 77/99/77 56/1/56 45/20/45
f 69/100/69 76/101/76 55/7/55 48/5/48
f 70/102/70 75/103/75 54/10/54 49/45/49
f 73/104/73 74/105/74 53/19/53 52/16/52
f 74/105/74 84/98/84 45/20/45 53/19/53
f 78/86/78 73/104/73 52/16/52 57/15/57
f 79/97/79 72/87/72 51/13/51 58/12/58
f 75/103/75 71/96/71 50/11/50 54/10/54
f 76/101/76 70/106/70 49/8/49 55/7/55
f 80/95/80 69/100/69 48/5/48 59/4/59
f 77/99/77 67/94/67 46/2/46 56/1/56
f 21/99/21 3/94/3 67/94/67 77/99/77
f 31/95/31 7/107/7 69/100/69 80/95/80
f 23/101/23 9/106/9 70/106/70 76/101/76
f 17/103/17 11/108/11 71/96/71 75/103/75
f 25/97/25 13/109/13 72/87/72 79/97/79
f 27/110/27 15/111/15 73/104/73 78/86/78
f 19/105/19 1/98/1 84/98/84 74/105/74
f 15/111/15 19/105/19 74/105/74 73/104/73
f 9/102/9 17/103/17 75/103/75 70/102/70
f 7/107/7 23/101/23 76/101/76 69/100/69
f 1/98/1 21/99/21 77/99/77 84/98/84
f 11/108/11 25/97/25 79/97/79 71/96/71
f 5/88/5 31/95/31 80/95/80 68/88/68
f 3/94/3 29/89/29 81/89/81 67/94/67
f 29/89/29 33/58/33 86/58/86 81/89/81
f 34/57/34 5/88/5 68/88/68 82/54/82
f 13/109/13 39/62/39 88/62/88 72/87/72
f 40/59/40 27/110/27 78/86/78 83/59/83
f 65/91/65 66/78/66 88/62/88 87/60/87
f 64/80/64 65/91/65 87/60/87 83/59/83
f 62/93/62 63/67/63 86/58/86 85/55/85
f 61/69/61 62/93/62 85/55/85 82/54/82
