# Blender 5.0.1
# www.blender.org
mtllib model.mtl
o spinMesh
v -0.281060 0.000000 -0.000000
v -0.179286 1.947265 0.000000
v -0.086852 0.000000 -0.267304
v -0.055402 1.947265 -0.170511
v 0.227382 0.000000 -0.165203
v 0.145045 1.947265 -0.105381
v 0.227382 0.000000 0.165203
v 0.145045 1.947265 0.105382
v -0.086852 0.000000 0.267304
v -0.055402 1.947265 0.170511
v -0.086852 1.700000 -0.267304
v -0.281060 1.700000 0.000000
v 0.227382 1.700000 -0.165203
v 0.227382 1.700000 0.165203
v -0.086852 1.700000 0.267304
v 0.281060 0.000000 -0.000000
v 0.179286 -1.847265 0.000000
v 0.086852 0.000000 -0.267304
v 0.055403 -1.847265 -0.170511
v -0.227382 0.000000 -0.165203
v -0.145045 -1.847265 -0.105381
v -0.227382 0.000000 0.165203
v -0.145045 -1.847265 0.105382
v 0.086852 0.000000 0.267304
v 0.055403 -1.847265 0.170511
v 0.086852 -1.600000 -0.267304
v 0.281060 -1.600000 0.000000
v -0.227382 -1.600000 -0.165203
v -0.227382 -1.600000 0.165203
v 0.086852 -1.600000 0.267304
v 0.904112 -0.000821 -0.000505
v 0.639243 -0.000821 0.638945
v 0.835275 0.172213 0.299199
v 0.639243 0.318904 0.553275
v 0.835275 0.298883 0.172529
v 0.639243 0.552959 0.319220
v 0.835275 0.345247 -0.000505
v 0.639243 0.638630 -0.000505
v 0.835275 0.298883 -0.173539
v 0.639243 0.552959 -0.320230
v 0.345861 0.722728 -0.418246
v -0.000207 0.782343 -0.452664
v 0.835275 0.172213 -0.300208
v 0.639243 0.318904 -0.554285
v 0.345861 0.416920 -0.724053
v -0.000207 0.451339 -0.783668
v -0.346275 0.416920 -0.724053
v -0.639657 0.318904 -0.554284
v 0.835275 -0.000821 -0.346573
v 0.639243 -0.000821 -0.639955
v 0.345861 -0.000821 -0.835986
v -0.000207 -0.000821 -0.904823
v -0.346275 -0.000821 -0.835986
v -0.639657 -0.000821 -0.639955
v 0.835275 -0.173854 -0.300208
v 0.639243 -0.320546 -0.554284
v 0.345861 -0.418561 -0.724053
v -0.000207 -0.452980 -0.783668
v -0.346275 -0.418561 -0.724053
v -0.639657 -0.320546 -0.554284
v 0.835275 -0.300524 -0.173539
v 0.639243 -0.554601 -0.320229
v 0.345861 -0.724369 -0.418246
v -0.000207 -0.783984 -0.452664
v 0.835275 -0.346888 -0.000505
v 0.639243 -0.640271 -0.000504
v 0.345861 -0.836302 -0.000505
v 0.835275 -0.300524 0.172529
v 0.639243 -0.554600 0.319221
v 0.345861 -0.724369 0.417236
v 0.835275 -0.173855 0.299199
v 0.639243 -0.320545 0.553275
v 0.345861 -0.418561 0.723044
v 0.835275 -0.000821 0.345563
v 0.325734 -0.286425 1.472197
v -0.325734 -0.286425 1.472197
v 0.325734 0.286425 1.472197
v -0.653242 0.000000 0.685902
v -0.325734 0.286425 1.472197
v 0.559814 -0.685205 1.038119
v -0.559814 -0.685205 1.038119
v -0.559814 0.685205 1.038119
v 0.559814 0.685205 1.038119
v 0.524144 -0.641546 0.759330
v -0.524144 -0.641546 0.759330
v -0.524144 0.641546 0.759330
v 0.524144 0.641546 0.759330
v 0.653242 0.000000 0.685902
v -0.750167 0.000000 1.202553
v 0.524144 0.641546 0.685902
v 0.750167 0.000000 1.202553
v -0.464475 0.000000 1.508409
v 0.464476 0.000000 1.508409
v 0.653242 0.000000 0.759330
v -0.653242 0.000000 0.759330
v -0.524144 0.641546 0.685902
v -0.524144 -0.641546 0.685902
v 0.524144 -0.641546 0.685902
v 0.653242 0.000000 0.586408
v 0.524144 0.641546 0.586408
v 0.524144 -0.641546 0.586408
v 0.893307 0.344296 0.585294
v 1.022404 0.000000 0.585294
v 0.893307 -0.344296 0.585294
v 0.893307 0.344296 0.485800
v 1.022404 0.000000 0.485800
v 0.893307 -0.344296 0.485800
v 0.317923 -0.809611 -0.857381
v 0.036645 -0.873584 -0.894315
v -0.346275 0.722728 -0.418245
v -0.639657 0.552959 -0.320230
v -0.536116 0.561082 -0.752201
v -0.221290 0.743259 -0.857381
v -0.221290 -0.809611 -0.857381
v -0.536116 -0.033176 -1.095296
v -0.346275 -0.724369 -0.418245
v -0.639657 -0.554601 -0.320229
v -0.536116 0.309919 -1.003363
v -0.536116 -0.627434 -0.752201
v 0.377774 0.743259 -0.857381
v 0.527185 0.608249 -0.397948
v 0.556041 0.653014 -0.409106
v 0.150074 0.807231 -0.894315
v -0.536116 -0.376271 -1.003363
v -0.471493 -0.584981 -0.717673
v -0.178111 -0.754750 -0.815688
v 0.054528 -0.814365 -0.850107
v 0.310511 -0.754750 -0.815689
v -0.471493 -0.350926 -0.951728
v -0.471493 -0.031201 -1.037398
v -0.471493 0.288524 -0.951728
v -0.471493 0.522579 -0.717673
v -0.178111 0.692347 -0.815688
v 0.167957 0.751962 -0.850107
v 0.370362 0.692347 -0.815689
v 0.668100 0.340300 0.582595
v 0.353273 0.445480 0.764772
v -0.018090 0.482414 0.828745
v -0.389454 0.445480 0.764772
v -0.704280 0.340300 0.582595
v -0.914641 0.182886 0.309947
v -0.018090 -0.002795 0.958756
v 0.668100 -0.002795 0.674527
v 0.668100 0.591462 0.331432
v 0.353273 0.773640 0.436612
v -0.018090 0.837612 0.473547
v -0.389454 0.773640 0.436612
v -0.704280 0.591463 0.331432
v -0.914641 0.318815 0.174019
v 0.668100 0.683395 -0.011663
v 0.353273 0.893755 -0.011663
v -0.018090 0.967624 -0.011663
v -0.389454 0.893755 -0.011663
v -0.704280 0.683395 -0.011663
v -0.914641 0.368568 -0.011663
v 0.353273 0.773640 -0.459938
v -0.018090 0.837612 -0.496872
v -0.389454 0.773640 -0.459938
v -0.704280 0.591462 -0.354758
v -0.914641 0.318815 -0.197344
v -0.704280 0.340300 -0.605920
v -0.914641 0.182886 -0.333273
v -0.704280 -0.002795 -0.697852
v -0.914641 -0.002795 -0.383026
v -0.704280 -0.345890 -0.605920
v -0.914640 -0.188477 -0.333273
v 0.353273 -0.779231 -0.459938
v -0.018090 -0.843203 -0.496872
v -0.389454 -0.779231 -0.459938
v -0.704280 -0.597053 -0.354757
v -0.914641 -0.324405 -0.197344
v 0.353273 -0.899346 -0.011663
v -0.018090 -0.973214 -0.011663
v -0.389454 -0.899346 -0.011663
v -0.704280 -0.688985 -0.011663
v -0.914641 -0.374159 -0.011663
v 0.353273 -0.779231 0.436612
v -0.018090 -0.843203 0.473547
v -0.389454 -0.779231 0.436612
v -0.704280 -0.597053 0.331432
v -0.914641 -0.324405 0.174019
v 0.353273 -0.451070 0.764772
v -0.018090 -0.488005 0.828745
v -0.389454 -0.451070 0.764772
v -0.704280 -0.345890 0.582595
v -0.914641 -0.188477 0.309947
v -0.389454 -0.002795 0.884887
v -0.704280 -0.002795 0.674527
v -0.914641 -0.002795 0.359701
v 0.353273 -0.002795 0.884887
v -0.988509 -0.002795 -0.011663
vn -0.8090 -0.0000 -0.5878
vn 0.3090 -0.0000 -0.9511
vn 1.0000 -0.0000 -0.0000
vn -0.0000 1.0000 -0.0000
vn 0.3090 -0.0000 0.9511
vn -0.8090 -0.0000 0.5878
vn 0.8090 -0.0000 -0.5878
vn -0.7676 0.3159 -0.5577
vn 0.2932 0.3159 -0.9023
vn 0.9488 0.3159 -0.0000
vn 0.2932 0.3159 0.9023
vn -0.7676 0.3159 0.5577
vn -0.3090 -0.0000 -0.9511
vn -1.0000 -0.0000 -0.0000
vn -0.0000 -1.0000 -0.0000
vn -0.3090 -0.0000 0.9511
vn 0.8090 -0.0000 0.5878
vn 0.7676 -0.3159 -0.5577
vn -0.2932 -0.3159 -0.9023
vn -0.9488 -0.3159 -0.0000
vn -0.2932 -0.3159 0.9023
vn 0.7676 -0.3159 0.5577
vn 0.9648 -0.2560 0.0601
vn 0.8900 -0.0000 0.4559
vn 0.9268 0.1828 0.3279
vn 0.9971 -0.0761 -0.0036
vn 0.9407 0.2905 0.1751
vn 0.9988 -0.0271 0.0399
vn 0.9421 0.3353 -0.0000
vn 0.9933 -0.0071 -0.1152
vn 0.9407 0.2905 -0.1752
vn 0.7298 0.5737 -0.3718
vn 0.1574 -0.0614 -0.9856
vn 0.7180 0.2981 -0.6289
vn 0.3913 0.3780 -0.8391
vn 0.9268 0.1828 -0.3279
vn 0.0383 -0.0551 -0.9977
vn -0.0000 0.4067 -0.9136
vn -0.3913 0.3780 -0.8391
vn -0.0000 -0.0000 -1.0000
vn -0.3551 -0.0000 -0.9348
vn 0.6653 -0.0000 -0.7466
vn 0.3551 -0.0000 -0.9348
vn 0.8900 -0.0000 -0.4559
vn 0.9248 0.0466 -0.3776
vn 0.9236 -0.0044 -0.3832
vn -0.3913 -0.3780 -0.8391
vn 0.9357 -0.0638 -0.3470
vn 0.3913 -0.3780 -0.8391
vn -0.0000 -0.4067 -0.9136
vn 0.9268 -0.1828 -0.3279
vn 0.7181 -0.2981 -0.6289
vn 0.9557 -0.1336 -0.2621
vn 0.0235 0.0486 -0.9985
vn 0.9407 -0.2905 -0.1752
vn 0.7298 -0.5737 -0.3718
vn 0.7285 -0.6850 -0.0000
vn 0.9905 -0.1371 -0.0095
vn 0.9421 -0.3353 -0.0000
vn 0.7298 -0.5737 0.3718
vn 0.9862 -0.1249 0.1088
vn 0.9407 -0.2905 0.1751
vn 0.9268 -0.1828 0.3279
vn 0.7181 -0.2981 0.6289
vn 0.9858 -0.1615 -0.0459
vn -0.0000 -0.9880 -0.1547
vn -0.9598 0.2077 -0.1888
vn -0.0000 0.9880 -0.1547
vn 0.9598 -0.2077 -0.1888
vn -0.9803 0.1973 -0.0000
vn -0.0000 -0.1254 0.9921
vn -0.0000 -0.7364 0.6765
vn -0.6611 0.3599 0.6584
vn -0.0000 0.7364 0.6765
vn 0.6611 -0.3599 0.6584
vn 0.6611 0.3599 0.6583
vn -0.6611 -0.3599 0.6584
vn -0.0000 0.1254 0.9921
vn 0.9803 0.1973 -0.0000
vn 0.9598 0.2077 -0.1888
vn -0.9598 -0.2077 -0.1888
vn 0.9803 -0.1973 -0.0000
vn -0.9803 -0.1973 -0.0000
vn 0.6272 -0.7789 -0.0000
vn -0.2906 -0.0761 -0.9538
vn 0.9363 -0.3511 -0.0000
vn 0.9363 0.3511 -0.0000
vn -0.2906 0.0761 -0.9538
vn 0.2906 -0.0761 0.9538
vn 0.2906 0.0761 0.9538
vn 0.6272 0.7789 -0.0000
vn -0.0867 -0.0701 -0.9938
vn 0.1704 -0.8549 -0.4900
vn -0.0425 -0.8472 -0.5295
vn 0.9874 -0.1198 -0.1030
vn 0.8975 0.0011 -0.4411
vn 0.9862 -0.1230 -0.1106
vn -0.0121 -0.9950 -0.0994
vn 0.0200 -0.0602 -0.9980
vn 0.6014 -0.0346 -0.7982
vn 0.5325 0.0106 -0.8464
vn 0.8276 0.5404 -0.1519
vn 0.3667 -0.7989 -0.4767
vn -0.8676 -0.2354 -0.4380
vn -0.8986 0.0018 -0.4388
vn -0.1674 -0.0009 -0.9859
vn -0.3261 -0.3353 -0.8839
vn -0.7573 0.5706 -0.3176
vn -0.4133 0.8753 -0.2510
vn -0.1639 0.0446 -0.9855
vn -0.4626 0.5986 -0.6540
vn -0.0178 0.9837 -0.1788
vn 0.0523 0.0518 -0.9973
vn -0.7647 -0.5692 -0.3020
vn -0.5084 -0.6006 -0.6171
vn 0.5331 -0.0145 -0.8459
vn 0.9882 0.1205 -0.0947
vn 0.8156 -0.5713 -0.0922
vn 0.3813 0.9128 -0.1464
vn 0.4913 0.0222 -0.8707
vn 0.3622 -0.9150 -0.1776
vn -0.8538 0.2491 -0.4571
vn -0.3182 0.3343 -0.8871
vn -0.0097 0.8054 -0.5927
vn 0.7845 0.5335 -0.3161
vn 0.1597 0.8126 -0.5605
vn -0.1799 -0.0524 -0.9823
vn 0.9482 0.0250 -0.3168
vn -0.1048 0.0630 -0.9925
vn 0.9923 0.0346 -0.1191
vn 0.9768 -0.1901 0.0990
vn 0.9824 -0.1865 0.0090
vn 0.9949 0.0956 0.0334
vn 0.9376 -0.0886 0.3362
vn 0.9984 0.0490 -0.0276
vn 0.6061 -0.4258 0.6718
vn -0.4071 -0.8969 -0.1726
vn -0.0000 -0.0000 1.0000
vn 0.3551 -0.0000 0.9348
vn 0.3913 0.3780 0.8391
vn -0.0000 0.4067 0.9136
vn -0.8900 -0.0000 0.4559
vn -0.6653 -0.0000 0.7466
vn -0.7180 0.2981 0.6289
vn -0.9268 0.1828 0.3279
vn -0.3551 -0.0000 0.9348
vn -0.3913 0.3780 0.8391
vn -0.7298 0.5737 0.3718
vn -0.9407 0.2905 0.1751
vn -0.0000 0.8392 0.5439
vn -0.3966 0.7701 0.4996
vn 0.3966 0.7701 0.4996
vn -0.9421 0.3353 -0.0000
vn -0.3953 0.9186 -0.0000
vn -0.7285 0.6850 -0.0000
vn 0.3953 0.9186 -0.0000
vn -0.9407 0.2905 -0.1751
vn -0.9268 0.1828 -0.3279
vn -0.8900 -0.0000 -0.4559
vn -0.9268 -0.1828 -0.3279
vn -0.9407 -0.2905 -0.1752
vn -0.7285 -0.6850 -0.0000
vn -0.9421 -0.3353 -0.0000
vn -0.3953 -0.9186 -0.0000
vn -0.9407 -0.2905 0.1751
vn -0.3966 -0.7701 0.4997
vn -0.7298 -0.5737 0.3718
vn -0.0000 -0.8392 0.5439
vn -0.9268 -0.1828 0.3279
vn -0.3913 -0.3780 0.8391
vn -0.7180 -0.2981 0.6289
vn -0.0000 -0.4067 0.9136
vt 0.948378 0.388751
vt 0.878561 0.388751
vt 0.878561 0.360824
vt 0.948378 0.360824
vt 0.878561 0.332897
vt 0.948378 0.332897
vt 0.878561 0.304970
vt 0.948378 0.304970
vt 0.131863 0.926581
vt 0.100150 0.882932
vt 0.131863 0.839282
vt 0.183176 0.855955
vt 0.183176 0.909908
vt 0.878561 0.277043
vt 0.948378 0.277043
vt 0.878561 0.249116
vt 0.948378 0.249116
vt 0.123812 0.951359
vt 0.074097 0.882932
vt 0.204254 0.925222
vt 0.204254 0.840641
vt 0.123812 0.814504
vt 0.432792 0.626933
vt 0.440399 0.513898
vt 0.491962 0.500016
vt 0.547703 0.599467
vt 0.441945 0.413205
vt 0.530696 0.462643
vt 0.629122 0.515820
vt 0.541418 0.410269
vt 0.652765 0.402806
vt 0.524170 0.362060
vt 0.607944 0.304060
vt 0.697348 0.234665
vt 0.531134 0.240187
vt 0.582820 0.140130
vt 0.487885 0.328519
vt 0.263749 0.852048
vt 0.254588 0.893686
vt 0.203052 0.885049
vt 0.207966 0.842700
vt 0.099102 0.769400
vt 0.072649 0.730125
vt 0.142090 0.706607
vt 0.143493 0.756936
vt 0.436578 0.219896
vt 0.436258 0.106934
vt 0.440322 0.317064
vt 0.116760 0.798524
vt 0.145030 0.790907
vt 0.150908 0.881655
vt 0.151526 0.839026
vt 0.189915 0.766951
vt 0.172475 0.798323
vt 0.098687 0.883537
vt 0.095002 0.841063
vt 0.393963 0.331219
vt 0.344165 0.247439
vt 0.212555 0.726309
vt 0.289976 0.147232
vt 0.046922 0.890676
vt 0.038972 0.848790
vt 0.359353 0.364827
vt 0.274965 0.315521
vt 0.179467 0.252522
vt 0.246824 0.408187
vt 0.131983 0.398406
vt 0.345233 0.411779
vt 0.267375 0.504106
vt 0.159964 0.550837
vt 0.357009 0.459913
vt 0.391195 0.496523
vt 0.332930 0.580975
vt 0.257088 0.674143
vt 0.845285 0.319843
vt 0.869148 0.319851
vt 0.901791 0.371697
vt 0.889027 0.397477
vt 0.967631 0.397477
vt 0.939234 0.355944
vt 0.967709 0.326633
vt 0.991572 0.326642
vt 0.935066 0.274787
vt 0.947829 0.249007
vt 0.592621 0.777970
vt 0.592621 0.902408
vt 0.400247 0.856241
vt 0.412504 0.777970
vt 0.895681 0.184161
vt 0.952031 0.171097
vt 0.959309 0.176376
vt 0.895086 0.192658
vt 0.928242 0.339165
vt 0.914569 0.342410
vt 0.900289 0.317647
vt 0.908615 0.307319
vt 0.936568 0.328837
vt 0.922288 0.304074
vt 0.592621 0.988278
vt 0.512205 0.978111
vt 0.673036 0.978111
vt 0.784995 0.856241
vt 0.952983 0.092181
vt 0.900980 0.063886
vt 0.901575 0.055389
vt 0.959309 0.087751
vt 0.772738 0.777970
vt 0.844629 0.076950
vt 0.837352 0.071671
vt 0.843677 0.155866
vt 0.837352 0.160295
vt 0.964885 0.745498
vt 0.954930 0.742432
vt 0.934597 0.723033
vt 0.940214 0.713647
vt 0.918383 0.723551
vt 0.991909 0.709212
vt 0.957986 0.753093
vt 0.918383 0.767350
vt 0.901524 0.707405
vt 0.903590 0.717999
vt 0.865665 0.725308
vt 0.874415 0.731556
vt 0.844857 0.709212
vt 0.878780 0.753093
vt 0.907641 0.715533
vt 0.991942 0.699093
vt 0.953048 0.749404
vt 0.907641 0.765751
vt 0.823340 0.699093
vt 0.862234 0.749404
vt 0.862400 0.758605
vt 0.853057 0.767204
vt 0.912571 0.757021
vt 0.915008 0.767204
vt 0.967537 0.485244
vt 0.967749 0.500635
vt 0.949061 0.492179
vt 0.951035 0.475369
vt 0.966463 0.540600
vt 0.966264 0.556912
vt 0.949084 0.552210
vt 0.949378 0.541777
vt 0.783280 0.625967
vt 0.791304 0.641216
vt 0.773508 0.643887
vt 0.777852 0.635924
vt 0.974493 0.568198
vt 0.949409 0.570256
vt 0.780868 0.501560
vt 0.766094 0.493005
vt 0.781586 0.478928
vt 0.786403 0.487439
vt 0.930925 0.554324
vt 0.933492 0.540687
vt 0.946572 0.541804
vt 0.946144 0.551985
vt 0.920787 0.516094
vt 0.926437 0.500373
vt 0.945477 0.492687
vt 0.944624 0.514168
vt 0.928180 0.482249
vt 0.947760 0.475079
vt 0.920514 0.564750
vt 0.944130 0.569755
vt 0.974493 0.513115
vt 0.965834 0.523706
vt 0.949248 0.531435
vt 0.949771 0.513487
vt 0.807507 0.476871
vt 0.798601 0.492069
vt 0.787681 0.486007
vt 0.784844 0.475079
vt 0.798561 0.516687
vt 0.790587 0.501756
vt 0.931324 0.526487
vt 0.946409 0.531707
vt 0.771648 0.640776
vt 0.776952 0.634620
vt 0.067438 0.802785
vt 0.026594 0.782722
vt 0.096957 0.819842
vt 0.948743 0.591770
vt 0.949796 0.603729
vt 0.946253 0.604280
vt 0.944900 0.591425
vt 0.792417 0.500832
vt 0.266241 0.775833
vt 0.222846 0.801101
vt 0.193241 0.817723
vt 0.967262 0.581346
vt 0.800362 0.515145
vt 0.797857 0.612801
vt 0.809788 0.598500
vt 0.811634 0.600179
vt 0.799324 0.615137
vt 0.967803 0.597686
vt 0.812362 0.558896
vt 0.810214 0.545242
vt 0.812246 0.544617
vt 0.814145 0.558582
vt 0.805747 0.530327
vt 0.807665 0.529113
vt 0.817721 0.580094
vt 0.820141 0.580832
vt 0.925876 0.581265
vt 0.782383 0.623209
vt 0.766094 0.624588
vt 0.926500 0.600547
vt 0.845038 0.565233
vt 0.828284 0.561654
vt 0.828599 0.542046
vt 0.846384 0.540386
vt 0.894615 0.540517
vt 0.881107 0.540617
vt 0.884281 0.527162
vt 0.896125 0.534090
vt 0.902449 0.612944
vt 0.905001 0.659216
vt 0.833813 0.644803
vt 0.857795 0.601103
vt 0.907366 0.540342
vt 0.863708 0.541124
vt 0.869791 0.517964
vt 0.894026 0.517524
vt 0.900724 0.529274
vt 0.857622 0.502343
vt 0.879599 0.488081
vt 0.886902 0.504500
vt 0.823307 0.522605
vt 0.840349 0.515480
vt 0.907137 0.527372
vt 0.905685 0.498953
vt 0.906876 0.514001
vt 0.813367 0.505175
vt 0.826755 0.493783
vt 0.903883 0.481703
vt 0.913782 0.528848
vt 0.918546 0.533763
vt 0.920326 0.540352
vt 0.918637 0.546856
vt 0.913842 0.551655
vt 0.906229 0.566606
vt 0.907267 0.553261
vt 0.900821 0.598979
vt 0.904519 0.581755
vt 0.810374 0.627803
vt 0.900935 0.551401
vt 0.886623 0.574511
vt 0.894033 0.562253
vt 0.825994 0.609996
vt 0.876665 0.589889
vt 0.896470 0.546707
vt 0.872559 0.561171
vt 0.885370 0.553117
vt 0.837128 0.587983
vt 0.858073 0.571482
vt 0.846384 0.549067
vt 0.827474 0.587488
vt 0.827474 0.490021
vt 0.887124 0.478018
vt 0.946773 0.490021
vt 0.946773 0.587488
vt 0.887124 0.599492
s 0
g spinMesh_badMat
usemtl badMat
f 1/1/1 12/2/1 11/3/1 3/4/1
f 3/4/2 11/3/2 13/5/2 5/6/2
f 5/6/3 13/5/3 14/7/3 7/8/3
f 4/9/4 2/10/4 10/11/4 8/12/4 6/13/4
f 7/8/5 14/7/5 15/14/5 9/15/5
f 9/15/6 15/14/6 12/16/6 1/17/6
f 16/1/7 27/2/7 26/3/7 18/4/7
f 2/10/8 4/9/8 11/18/8 12/19/8
f 4/9/9 6/13/9 13/20/9 11/18/9
f 6/13/10 8/12/10 14/21/10 13/20/10
f 8/12/11 10/11/11 15/22/11 14/21/11
f 10/11/12 2/10/12 12/19/12 15/22/12
f 18/4/13 26/3/13 28/5/13 20/6/13
f 20/6/14 28/5/14 29/7/14 22/8/14
f 19/9/15 17/10/15 25/11/15 23/12/15 21/13/15
f 22/8/16 29/7/16 30/14/16 24/15/16
f 24/15/17 30/14/17 27/16/17 16/17/17
f 17/10/18 19/9/18 26/18/18 27/19/18
f 19/9/19 21/13/19 28/20/19 26/18/19
f 21/13/20 23/12/20 29/21/20 28/20/20
f 23/12/21 25/11/21 30/22/21 29/21/21
f 25/11/22 17/10/22 27/19/22 30/22/22
s 1
f 32/23/23 74/24/24 33/25/25 34/26/26
f 74/24/24 31/27/3 33/25/25
f 33/25/25 31/27/3 35/28/27
f 34/26/26 33/25/25 35/28/27 36/29/28
f 35/28/27 31/27/3 37/30/29
f 36/29/28 35/28/27 37/30/29 38/31/30
f 38/31/30 37/30/29 39/32/31 40/33/32
f 37/30/29 31/27/3 39/32/31
f 41/34/33 40/33/32 44/35/34 45/36/35
f 39/32/31 31/27/3 43/37/36
f 42/38/37 41/39/33 45/40/35 46/41/38
f 40/33/32 39/32/31 43/37/36 44/35/34
f 47/42/39 46/43/38 52/44/40 53/45/41
f 45/36/35 44/35/34 50/46/42 51/47/43
f 43/37/36 31/27/3 49/48/44
f 48/49/45 47/42/39 53/45/41 54/50/46
f 46/41/38 45/40/35 51/51/43 52/52/40
f 44/35/34 43/37/36 49/48/44 50/46/42
f 54/50/46 53/45/41 59/53/47 60/54/48
f 52/52/40 51/51/43 57/55/49 58/56/50
f 50/46/42 49/48/44 55/57/51 56/58/52
f 53/45/41 52/44/40 58/59/50 59/53/47
f 51/47/43 50/46/42 56/58/52 57/60/49
f 49/48/44 31/27/3 55/57/51
f 58/56/50 57/55/49 63/61/53 64/62/54
f 56/58/52 55/57/51 61/63/55 62/64/56
f 57/60/49 56/58/52 62/64/56 63/65/53
f 55/57/51 31/27/3 61/63/55
f 63/65/53 62/64/56 66/66/57 67/67/58
f 61/63/55 31/27/3 65/68/59
f 62/64/56 61/63/55 65/68/59 66/66/57
f 67/67/58 66/66/57 69/69/60 70/70/61
f 65/68/59 31/27/3 68/71/62
f 66/66/57 65/68/59 68/71/62 69/69/60
f 69/69/60 68/71/62 71/72/63 72/73/64
f 70/70/61 69/69/60 72/73/64 73/74/65
f 68/71/62 31/27/3 71/72/63
f 72/73/64 71/72/63 74/24/24 32/23/23
f 71/72/63 31/27/3 74/24/24
f 84/75/66 80/76/66 81/77/66 85/78/66
f 95/79/67 89/80/67 82/81/67 86/82/67
f 86/82/68 82/81/68 83/83/68 87/84/68
f 94/85/69 91/86/69 80/87/69 84/88/69
f 95/89/70 86/90/70 96/91/70 78/92/70
f 92/93/71 76/94/71 75/95/71 93/96/71
f 75/95/72 76/94/72 81/77/72 80/76/72
f 92/93/73 79/97/73 82/81/73 89/80/73
f 79/97/74 77/98/74 83/83/74 82/81/74
f 93/99/75 75/100/75 80/87/75 91/86/75
f 77/101/76 93/99/76 91/86/76 83/102/76
f 76/94/77 92/93/77 89/80/77 81/77/77
f 79/97/78 92/93/78 93/96/78 77/98/78
f 87/103/79 94/104/79 88/105/79 90/106/79
f 87/107/80 83/102/80 91/86/80 94/85/80
f 85/78/81 81/77/81 89/80/81 95/79/81
f 94/104/82 84/108/82 98/109/82 88/105/82
f 86/90/4 87/103/4 90/106/4 96/91/4
f 84/108/15 85/110/15 97/111/15 98/109/15
f 85/110/83 95/89/83 78/92/83 97/111/83
f 98/112/84 101/113/84 107/114/84 104/115/84
f 99/116/85 100/117/85 105/118/85 106/119/85
f 103/120/86 104/115/86 107/114/86 106/121/86
f 102/122/87 103/120/87 106/121/87 105/123/87
f 101/124/88 99/116/88 106/119/88 107/125/88
f 88/126/89 98/127/89 104/128/89 103/129/89
f 90/130/90 88/126/90 103/129/90 102/131/90
f 100/132/91 90/133/91 102/122/91 105/123/91
f 100/132/83 99/134/83 88/135/83 90/133/83
f 99/134/70 101/113/70 98/112/70 88/135/70
f 72/73/64 32/23/23 73/74/65
f 41/34/33 38/31/30 40/33/32
f 42/136/37 110/137/92 133/138/93 134/139/94
f 54/140/46 60/141/48 129/142/95 130/143/96
f 167/144/97 168/145/98 109/146/99 108/147/100
f 60/141/48 117/148/101 125/149/102 129/142/95
f 41/150/33 42/151/37 134/152/94 135/153/103
f 165/154/104 163/155/105 115/156/106 124/157/107
f 159/158/108 158/159/109 113/160/110 112/161/111
f 158/159/109 157/162/112 123/163/113 113/160/110
f 170/164/114 165/154/104 124/157/107 119/165/115
f 111/166/116 48/167/45 131/168/117 132/169/118
f 157/170/112 156/171/119 120/172/120 123/173/113
f 38/174/30 41/150/33 135/153/103 121/175/121
f 163/155/105 161/176/122 118/177/123 115/156/106
f 127/178/124 128/179/125 108/147/100 109/146/99
f 110/180/92 42/181/37 46/43/38 47/42/39
f 133/138/93 132/169/118 112/161/111 113/160/110
f 111/182/116 110/180/92 47/42/39 48/49/45
f 126/183/126 127/184/124 109/185/99 114/186/127
f 131/168/117 130/143/96 115/156/106 118/177/123
f 125/149/102 126/183/126 114/186/127 119/165/115
f 121/175/121 135/153/103 120/172/120 122/187/128
f 132/169/118 131/168/117 118/177/123 112/161/111
f 59/53/47 58/59/50 64/188/54 116/189/129
f 135/153/103 134/152/94 123/173/113 120/172/120
f 60/54/48 59/53/47 116/189/129 117/190/101
f 129/142/95 125/149/102 119/165/115 124/157/107
f 130/143/96 129/142/95 124/157/107 115/156/106
f 134/139/94 133/138/93 113/160/110 123/163/113
f 117/148/101 116/191/129 126/183/126 125/149/102
f 150/192/130 38/174/30 121/175/121 122/187/128
f 67/193/58 70/194/61 177/195/131 172/196/132
f 48/167/45 54/140/46 130/143/96 131/168/117
f 116/191/129 64/197/54 127/184/124 126/183/126
f 32/198/23 34/199/26 136/200/133 143/201/134
f 36/202/28 38/174/30 150/192/130 144/203/135
f 70/194/61 73/204/65 182/205/136 177/195/131
f 169/206/137 170/164/114 119/165/115 114/186/127
f 63/207/53 167/144/97 108/147/100 128/179/125
f 110/137/92 111/166/116 132/169/118 133/138/93
f 73/204/65 32/198/23 143/201/134 182/205/136
f 64/208/54 63/207/53 128/179/125 127/178/124
f 63/207/53 67/193/58 172/196/132 167/144/97
f 168/209/98 169/206/137 114/186/127 109/185/99
f 34/199/26 36/202/28 144/203/135 136/200/133
f 156/171/119 150/192/130 122/187/128 120/172/120
f 161/176/122 159/158/108 112/161/111 118/177/123
f 142/210/138 190/211/139 137/212/140 138/213/141
f 189/214/142 188/215/143 140/216/144 141/217/145
f 187/218/146 142/219/138 138/220/141 139/221/147
f 190/211/139 143/201/134 136/200/133 137/212/140
f 191/222/14 189/214/142 141/217/145
f 188/215/143 187/223/146 139/224/147 140/216/144
f 141/217/145 140/216/144 148/225/148 149/226/149
f 139/224/147 138/227/141 146/228/150 147/229/151
f 137/212/140 136/200/133 144/203/135 145/230/152
f 191/222/14 141/217/145 149/226/149
f 140/216/144 139/224/147 147/229/151 148/225/148
f 138/213/141 137/212/140 145/230/152 146/231/150
f 191/222/14 149/226/149 155/232/153
f 148/225/148 147/229/151 153/233/154 154/234/155
f 146/231/150 145/230/152 151/235/156 152/236/4
f 149/226/149 148/225/148 154/234/155 155/232/153
f 147/229/151 146/228/150 152/237/4 153/233/154
f 145/230/152 144/203/135 150/192/130 151/235/156
f 154/234/155 153/233/154 158/159/109 159/158/108
f 152/236/4 151/235/156 156/171/119 157/170/112
f 155/232/153 154/234/155 159/158/108 160/238/157
f 153/233/154 152/237/4 157/162/112 158/159/109
f 151/235/156 150/192/130 156/171/119
f 191/222/14 155/232/153 160/238/157
f 160/238/157 159/158/108 161/176/122 162/239/158
f 191/222/14 160/238/157 162/239/158
f 191/222/14 162/239/158 164/240/159
f 162/239/158 161/176/122 163/155/105 164/240/159
f 191/222/14 164/240/159 166/241/160
f 164/240/159 163/155/105 165/154/104 166/241/160
f 166/241/160 165/154/104 170/164/114 171/242/161
f 191/222/14 166/241/160 171/242/161
f 171/242/161 170/164/114 175/243/162 176/244/163
f 169/206/137 168/209/98 173/245/15 174/246/164
f 191/222/14 171/242/161 176/244/163
f 170/164/114 169/206/137 174/246/164 175/243/162
f 168/145/98 167/144/97 172/196/132 173/247/15
f 191/222/14 176/244/163 181/248/165
f 175/243/162 174/246/164 179/249/166 180/250/167
f 173/247/15 172/196/132 177/195/131 178/251/168
f 176/244/163 175/243/162 180/250/167 181/248/165
f 174/246/164 173/245/15 178/252/168 179/249/166
f 191/222/14 181/248/165 186/253/169
f 180/250/167 179/249/166 184/254/170 185/255/171
f 178/251/168 177/195/131 182/205/136 183/256/172
f 181/248/165 180/250/167 185/255/171 186/253/169
f 179/249/166 178/252/168 183/257/172 184/254/170
f 186/253/169 185/255/171 188/215/143 189/214/142
f 184/254/170 183/257/172 142/258/138 187/223/146
f 190/211/139 182/205/136 143/201/134
f 191/222/14 186/253/169 189/214/142
f 185/255/171 184/254/170 187/223/146 188/215/143
f 183/256/172 182/205/136 190/211/139 142/210/138
f 98/259/40 97/260/40 78/261/40 96/262/40 90/263/40 88/264/40
