# Blender 5.0.1
# www.blender.org
mtllib model.mtl
o togisMesh
v -0.000000 0.000000 -1.000000
v 0.741013 0.000000 -0.707107
v 0.957847 -0.000000 -0.389718
v 1.036766 -0.000000 0.007035
v 0.923879 0.000000 0.382683
v 0.662392 -0.000000 0.713961
v 0.000000 0.000000 1.000000
v 0.270598 0.270598 -0.923880
v 0.523975 0.523975 -0.707107
v 0.677300 0.677300 -0.389718
v 0.733104 0.733104 0.007035
v 0.653282 0.653281 0.382683
v 0.468382 0.468382 0.713961
v 0.253487 0.253487 0.917026
v -0.000000 0.382683 -0.923880
v -0.000000 0.741013 -0.707107
v -0.000000 0.957847 -0.389718
v -0.000000 1.036766 0.007035
v 0.000000 0.923879 0.382684
v 0.000000 0.662392 0.713961
v 0.000000 0.358484 0.917026
v -0.270598 0.270598 -0.923880
v -0.523975 0.523975 -0.707107
v -0.677300 0.677300 -0.389718
v -0.733104 0.733104 0.007035
v -0.653281 0.653281 0.382684
v -0.468382 0.468382 0.713961
v -0.253487 0.253487 0.917026
v -0.382684 0.000000 -0.923880
v -0.741013 0.000000 -0.707107
v -0.957847 -0.000000 -0.389718
v -1.036766 -0.000000 0.007035
v -0.923879 0.000000 0.382684
v -0.662392 -0.000000 0.713961
v -0.358484 -0.000000 0.917026
v -0.270598 -0.270598 -0.923880
v -0.523975 -0.523975 -0.707107
v -0.677300 -0.677300 -0.389718
v -0.733104 -0.733104 0.007035
v -0.653281 -0.653281 0.382684
v -0.468382 -0.468382 0.713961
v -0.253487 -0.253487 0.917026
v -0.000000 -0.382683 -0.923880
v -0.000000 -0.741013 -0.707107
v -0.000000 -0.957847 -0.389718
v -0.000000 -1.036766 0.007035
v 0.000000 -0.923879 0.382684
v 0.000000 -0.662392 0.713961
v 0.000000 -0.358484 0.917026
v 0.270598 -0.270598 -0.923880
v 0.523975 -0.523975 -0.707107
v 0.677300 -0.677300 -0.389718
v 0.733104 -0.733104 0.007035
v 0.653281 -0.653281 0.382683
v 0.468382 -0.468382 0.713961
v 0.253487 -0.253487 0.917026
v 0.382683 0.000000 -0.923880
v 0.358484 -0.000000 0.917026
v 1.063860 -0.048082 0.616458
v 0.997256 -0.048082 0.821443
v 0.822886 -0.048082 0.948130
v 0.607353 -0.048082 0.948130
v 0.432983 -0.048082 0.821443
v 0.366380 -0.048082 0.616459
v 0.997256 0.146869 0.679802
v 0.822886 0.267356 0.718951
v 0.607353 0.267356 0.718951
v 0.432983 0.146869 0.679802
v 0.997256 0.072404 0.450623
v 0.822886 0.146869 0.348131
v 0.607353 0.146869 0.348131
v 0.432983 0.072404 0.450623
v 0.997256 -0.168569 0.450623
v 0.822886 -0.243034 0.348131
v 0.607353 -0.243034 0.348131
v 0.432983 -0.168569 0.450623
v 0.997256 -0.243034 0.679802
v 0.822886 -0.363520 0.718951
v 0.607353 -0.363520 0.718951
v 0.432983 -0.243034 0.679802
v 0.063188 -0.133078 0.868227
v 0.063188 -0.093620 1.888219
v -0.063188 -0.133078 0.868227
v -0.063188 -0.093620 1.888219
v 0.063188 0.133078 0.868227
v 0.063188 0.093620 1.888219
v -0.063188 0.133078 0.868227
v -0.063188 0.093620 1.888219
v 0.063188 -0.289320 1.208225
v 0.063188 -0.265542 1.548221
v -0.063188 -0.265542 1.548221
v -0.063188 -0.289320 1.208224
v -0.063188 0.265542 1.548221
v -0.063188 0.289320 1.208224
v 0.063188 0.265542 1.548221
v 0.063188 0.289320 1.208224
v 0.137308 -0.538324 -1.051957
v 0.137308 -0.538324 -0.777341
v -0.137308 -0.538324 -1.051957
v -0.137308 -0.538324 -0.777341
v 0.137308 -0.263707 -1.051957
v 0.137308 -0.263707 -0.777341
v -0.137308 -0.263707 -1.051957
v -0.137308 -0.263707 -0.777341
v -0.096024 -0.497039 -1.107771
v 0.096024 -0.497039 -1.107771
v -0.096024 -0.304992 -1.107771
v 0.096024 -0.304992 -1.107771
v 0.137308 0.289304 -1.051957
v 0.137308 0.289304 -0.777341
v -0.137308 0.289304 -1.051957
v -0.137308 0.289304 -0.777341
v 0.137308 0.563920 -1.051957
v 0.137308 0.563920 -0.777341
v -0.137308 0.563920 -1.051957
v -0.137308 0.563920 -0.777341
v -0.096024 0.330589 -1.107771
v 0.096024 0.330589 -1.107771
v -0.096024 0.522636 -1.107771
v 0.096024 0.522636 -1.107771
vn -0.0000 -0.0000 -1.0000
vn 0.7130 -0.0000 -0.7011
vn 0.9286 -0.0000 -0.3710
vn 0.9990 -0.0000 0.0452
vn 0.8960 -0.0000 0.4440
vn 0.6983 -0.0000 0.7158
vn -0.0000 -0.0000 1.0000
vn 0.2815 0.2815 -0.9174
vn 0.5042 0.5042 -0.7011
vn 0.6566 0.6566 -0.3710
vn 0.7064 0.7064 0.0452
vn 0.6336 0.6336 0.4440
vn 0.4938 0.4938 0.7158
vn 0.3064 0.3064 0.9012
vn -0.0000 0.3981 -0.9174
vn -0.0000 0.7130 -0.7011
vn -0.0000 0.9286 -0.3710
vn -0.0000 0.9990 0.0452
vn -0.0000 0.8960 0.4440
vn -0.0000 0.6983 0.7158
vn -0.0000 0.4334 0.9012
vn -0.2815 0.2815 -0.9174
vn -0.5042 0.5042 -0.7011
vn -0.6566 0.6566 -0.3710
vn -0.7064 0.7064 0.0452
vn -0.6336 0.6336 0.4440
vn -0.4938 0.4938 0.7158
vn -0.3064 0.3064 0.9012
vn -0.3981 -0.0000 -0.9174
vn -0.7130 -0.0000 -0.7011
vn -0.9286 -0.0000 -0.3710
vn -0.9990 -0.0000 0.0452
vn -0.8960 -0.0000 0.4440
vn -0.6983 -0.0000 0.7158
vn -0.4334 -0.0000 0.9012
vn -0.2815 -0.2815 -0.9174
vn -0.5042 -0.5042 -0.7011
vn -0.6566 -0.6566 -0.3710
vn -0.7064 -0.7064 0.0452
vn -0.6336 -0.6336 0.4440
vn -0.4938 -0.4938 0.7158
vn -0.3064 -0.3064 0.9012
vn -0.0000 -0.3981 -0.9174
vn -0.0000 -0.7130 -0.7011
vn -0.0000 -0.9286 -0.3710
vn -0.0000 -0.9990 0.0452
vn -0.0000 -0.8960 0.4440
vn -0.0000 -0.6983 0.7158
vn -0.0000 -0.4334 0.9012
vn 0.2815 -0.2815 -0.9174
vn 0.5042 -0.5042 -0.7011
vn 0.6566 -0.6566 -0.3710
vn 0.7064 -0.7064 0.0452
vn 0.6336 -0.6336 0.4440
vn 0.4938 -0.4938 0.7158
vn 0.3064 -0.3064 0.9012
vn 0.3981 -0.0000 -0.9174
vn 0.4334 -0.0000 0.9012
vn 1.0000 -0.0000 -0.0000
vn 0.7546 -0.0000 0.6562
vn 0.2795 -0.0000 0.9601
vn -0.2795 -0.0000 0.9601
vn -0.7546 -0.0000 0.6562
vn -1.0000 -0.0000 -0.0000
vn 0.7546 0.6240 0.2028
vn 0.2795 0.9132 0.2967
vn -0.2795 0.9132 0.2967
vn -0.7546 0.6240 0.2028
vn 0.7546 0.3857 -0.5308
vn 0.2795 0.5644 -0.7768
vn -0.2795 0.5644 -0.7768
vn -0.7546 0.3857 -0.5308
vn 0.7546 -0.3857 -0.5308
vn 0.2795 -0.5644 -0.7768
vn -0.2795 -0.5644 -0.7768
vn -0.7546 -0.3857 -0.5308
vn 0.7546 -0.6240 0.2028
vn 0.2795 -0.9132 0.2967
vn -0.2795 -0.9132 0.2967
vn -0.7546 -0.6240 0.2028
vn 0.6035 -0.4303 -0.6713
vn 0.6061 -0.4167 0.6776
vn -0.6035 -0.4303 -0.6713
vn -0.6061 -0.4167 0.6776
vn 0.6035 0.4303 -0.6713
vn 0.6061 0.4167 0.6776
vn -0.6035 0.4303 -0.6713
vn -0.6061 0.4167 0.6776
vn 0.6554 -0.7430 -0.1356
vn 0.6652 -0.7199 0.1984
vn -0.6652 -0.7199 0.1984
vn -0.6554 -0.7430 -0.1356
vn -0.6652 0.7199 0.1984
vn -0.6554 0.7430 -0.1356
vn 0.6652 0.7199 0.1984
vn 0.6554 0.7430 -0.1356
vn 0.6649 -0.6649 -0.3405
vn 0.5774 -0.5774 0.5774
vn -0.6649 -0.6649 -0.3405
vn -0.5774 -0.5774 0.5774
vn 0.6649 0.6649 -0.3405
vn 0.5774 0.5774 0.5774
vn -0.6649 0.6649 -0.3405
vn -0.5774 0.5774 0.5774
vn -0.3583 -0.3583 -0.8622
vn 0.3583 -0.3583 -0.8622
vn -0.3583 0.3583 -0.8622
vn 0.3583 0.3583 -0.8622
vn 0.7071 -0.7071 -0.0000
vn -0.7071 -0.7071 -0.0000
vn 0.7071 0.7071 -0.0000
vn -0.7071 0.7071 -0.0000
vt 0.274397 0.398482
vt 0.294900 0.439486
vt 0.253895 0.439487
vt 0.294900 0.480491
vt 0.294900 0.521495
vt 0.253895 0.521495
vt 0.253895 0.480491
vt 0.294900 0.562500
vt 0.294900 0.603505
vt 0.253895 0.603505
vt 0.253895 0.562500
vt 0.294900 0.644509
vt 0.294900 0.685514
vt 0.253895 0.685514
vt 0.253895 0.644509
vt 0.274397 0.726518
vt 0.212891 0.480491
vt 0.212891 0.439486
vt 0.212891 0.562500
vt 0.212891 0.521495
vt 0.212891 0.644509
vt 0.212891 0.603505
vt 0.233393 0.726518
vt 0.212891 0.685514
vt 0.233393 0.398482
vt 0.171886 0.562500
vt 0.171886 0.521495
vt 0.171886 0.644509
vt 0.171886 0.603505
vt 0.192388 0.726518
vt 0.171886 0.685514
vt 0.192388 0.398482
vt 0.171886 0.439487
vt 0.171886 0.480491
vt 0.151384 0.398482
vt 0.130882 0.439486
vt 0.130882 0.521495
vt 0.130882 0.480491
vt 0.130882 0.603505
vt 0.130882 0.562500
vt 0.130882 0.685514
vt 0.130882 0.644509
vt 0.151384 0.726518
vt 0.089877 0.603505
vt 0.089877 0.562500
vt 0.089877 0.685514
vt 0.089877 0.644509
vt 0.089877 0.480491
vt 0.089877 0.439487
vt 0.089877 0.521495
vt 0.110379 0.726518
vt 0.110379 0.398482
vt 0.048873 0.480491
vt 0.048873 0.439486
vt 0.048873 0.562500
vt 0.048873 0.521495
vt 0.048873 0.644509
vt 0.048873 0.603505
vt 0.069375 0.726518
vt 0.048873 0.685514
vt 0.069375 0.398482
vt 0.376909 0.603505
vt 0.376909 0.644509
vt 0.335904 0.644509
vt 0.335904 0.603505
vt 0.376909 0.685514
vt 0.356406 0.726518
vt 0.335904 0.685514
vt 0.356406 0.398482
vt 0.376909 0.439486
vt 0.335904 0.439487
vt 0.376909 0.480491
vt 0.376909 0.521495
vt 0.335904 0.521495
vt 0.335904 0.480491
vt 0.376909 0.562500
vt 0.335904 0.562500
vt 0.315402 0.398482
vt 0.315402 0.726518
vt 0.526840 0.093750
vt 0.534463 0.089938
vt 0.534463 0.097562
vt 0.542087 0.089938
vt 0.549710 0.089938
vt 0.549710 0.097562
vt 0.542087 0.097562
vt 0.280248 0.132246
vt 0.326513 0.098633
vt 0.344185 0.153021
vt 0.557334 0.089938
vt 0.557334 0.097562
vt 0.542087 0.105185
vt 0.534463 0.105185
vt 0.557334 0.105185
vt 0.549710 0.105185
vt 0.526840 0.101374
vt 0.383700 0.098633
vt 0.542087 0.112809
vt 0.534463 0.112809
vt 0.557334 0.112809
vt 0.549710 0.112809
vt 0.526840 0.108997
vt 0.344185 0.044245
vt 0.534463 0.074691
vt 0.542087 0.074691
vt 0.542087 0.082315
vt 0.534463 0.082315
vt 0.549710 0.074691
vt 0.557334 0.074691
vt 0.557334 0.082315
vt 0.549710 0.082315
vt 0.526840 0.078503
vt 0.280248 0.065019
vt 0.526840 0.086127
vt 0.718537 0.324820
vt 0.759127 0.324820
vt 0.759127 0.446589
vt 0.718537 0.446589
vt 0.759127 0.568359
vt 0.718537 0.568359
vt 0.759127 0.690129
vt 0.718537 0.690129
vt 0.759127 0.811899
vt 0.718537 0.811899
vt 0.515587 0.568359
vt 0.637357 0.568359
vt 0.637357 0.690129
vt 0.515587 0.690129
vt 0.880897 0.568359
vt 0.880897 0.690129
vt 0.677947 0.690129
vt 0.677947 0.811899
vt 0.637357 0.811899
vt 0.677947 0.568359
vt 0.637357 0.446589
vt 0.677947 0.446589
vt 0.637357 0.324820
vt 0.677947 0.324820
vt 0.162311 0.299260
vt 0.116529 0.256177
vt 0.205356 0.263407
vt 0.165881 0.303905
vt 0.201811 0.345386
vt 0.162795 0.308160
vt 0.119570 0.345386
vt 0.158069 0.304753
vt 0.164498 0.303807
vt 0.160901 0.304741
vt 0.625000 0.500000
vt 0.875000 0.500000
vt 0.875000 0.750000
vt 0.625000 0.750000
vt 0.164858 0.304849
vt 0.162762 0.306613
s 1
g togisMesh_togisMat
usemtl togisMat
f 7/1/7 58/2/58 14/3/14
f 6/4/6 5/5/5 12/6/12 13/7/13
f 4/8/4 3/9/3 10/10/10 11/11/11
f 2/12/2 57/13/57 8/14/8 9/15/9
f 58/2/58 6/4/6 13/7/13 14/3/14
f 5/5/5 4/8/4 11/11/11 12/6/12
f 3/9/3 2/12/2 9/15/9 10/10/10
f 57/13/57 1/16/1 8/14/8
f 14/3/14 13/7/13 20/17/20 21/18/21
f 12/6/12 11/11/11 18/19/18 19/20/19
f 10/10/10 9/15/9 16/21/16 17/22/17
f 8/14/8 1/23/1 15/24/15
f 7/25/7 14/3/14 21/18/21
f 13/7/13 12/6/12 19/20/19 20/17/20
f 11/11/11 10/10/10 17/22/17 18/19/18
f 9/15/9 8/14/8 15/24/15 16/21/16
f 19/20/19 18/19/18 25/26/25 26/27/26
f 17/22/17 16/21/16 23/28/23 24/29/24
f 15/24/15 1/30/1 22/31/22
f 7/32/7 21/18/21 28/33/28
f 20/17/20 19/20/19 26/27/26 27/34/27
f 18/19/18 17/22/17 24/29/24 25/26/25
f 16/21/16 15/24/15 22/31/22 23/28/23
f 21/18/21 20/17/20 27/34/27 28/33/28
f 7/35/7 28/33/28 35/36/35
f 27/34/27 26/27/26 33/37/33 34/38/34
f 25/26/25 24/29/24 31/39/31 32/40/32
f 23/28/23 22/31/22 29/41/29 30/42/30
f 28/33/28 27/34/27 34/38/34 35/36/35
f 26/27/26 25/26/25 32/40/32 33/37/33
f 24/29/24 23/28/23 30/42/30 31/39/31
f 22/31/22 1/43/1 29/41/29
f 32/40/32 31/39/31 38/44/38 39/45/39
f 30/42/30 29/41/29 36/46/36 37/47/37
f 35/36/35 34/38/34 41/48/41 42/49/42
f 33/37/33 32/40/32 39/45/39 40/50/40
f 31/39/31 30/42/30 37/47/37 38/44/38
f 29/41/29 1/51/1 36/46/36
f 7/52/7 35/36/35 42/49/42
f 34/38/34 33/37/33 40/50/40 41/48/41
f 42/49/42 41/48/41 48/53/48 49/54/49
f 40/50/40 39/45/39 46/55/46 47/56/47
f 38/44/38 37/47/37 44/57/44 45/58/45
f 36/46/36 1/59/1 43/60/43
f 7/61/7 42/49/42 49/54/49
f 41/48/41 40/50/40 47/56/47 48/53/48
f 39/45/39 38/44/38 45/58/45 46/55/46
f 37/47/37 36/46/36 43/60/43 44/57/44
f 45/62/45 44/63/44 51/64/51 52/65/52
f 43/66/43 1/67/1 50/68/50
f 7/69/7 49/70/49 56/71/56
f 48/72/48 47/73/47 54/74/54 55/75/55
f 46/76/46 45/62/45 52/65/52 53/77/53
f 44/63/44 43/66/43 50/68/50 51/64/51
f 49/70/49 48/72/48 55/75/55 56/71/56
f 47/73/47 46/76/46 53/77/53 54/74/54
f 7/78/7 56/71/56 58/2/58
f 55/75/55 54/74/54 5/5/5 6/4/6
f 53/77/53 52/65/52 3/9/3 4/8/4
f 51/64/51 50/68/50 57/13/57 2/12/2
f 56/71/56 55/75/55 6/4/6 58/2/58
f 54/74/54 53/77/53 4/8/4 5/5/5
f 52/65/52 51/64/51 2/12/2 3/9/3
f 50/68/50 1/79/1 57/13/57
f 64/80/64 63/81/63 68/82/68
f 62/83/62 61/84/61 66/85/66 67/86/67
f 60/87/60 59/88/59 65/89/65
f 63/81/63 62/83/62 67/86/67 68/82/68
f 61/84/61 60/90/60 65/91/65 66/85/66
f 68/82/68 67/86/67 71/92/71 72/93/72
f 66/85/66 65/91/65 69/94/69 70/95/70
f 64/96/64 68/82/68 72/93/72
f 67/86/67 66/85/66 70/95/70 71/92/71
f 65/89/65 59/88/59 69/97/69
f 72/93/72 71/92/71 75/98/75 76/99/76
f 70/95/70 69/94/69 73/100/73 74/101/74
f 64/102/64 72/93/72 76/99/76
f 71/92/71 70/95/70 74/101/74 75/98/75
f 69/97/69 59/88/59 73/103/73
f 76/104/76 75/105/75 79/106/79 80/107/80
f 74/108/74 73/109/73 77/110/77 78/111/78
f 64/112/64 76/104/76 80/107/80
f 75/105/75 74/108/74 78/111/78 79/106/79
f 73/103/73 59/88/59 77/113/77
f 80/107/80 79/106/79 62/83/62 63/81/63
f 78/111/78 77/110/77 60/90/60 61/84/61
f 64/114/64 80/107/80 63/81/63
f 79/106/79 78/111/78 61/84/61 62/83/62
f 77/113/77 59/88/59 60/87/60
f 90/115/90 82/116/82 84/117/84 91/118/91
f 91/118/91 84/117/84 88/119/88 93/120/93
f 93/120/93 88/119/88 86/121/86 95/122/95
f 95/122/95 86/121/86 82/123/82 90/124/90
f 83/125/83 87/126/87 85/127/85 81/128/81
f 88/119/88 84/129/84 82/130/82 86/121/86
f 85/127/85 96/131/96 89/132/89 81/133/81
f 96/131/96 95/122/95 90/124/90 89/132/89
f 87/126/87 94/134/94 96/131/96 85/127/85
f 94/134/94 93/120/93 95/122/95 96/131/96
f 83/135/83 92/136/92 94/134/94 87/126/87
f 92/136/92 91/118/91 93/120/93 94/134/94
f 81/137/81 89/138/89 92/136/92 83/135/83
f 89/138/89 90/115/90 91/118/91 92/136/92
f 97/139/97 98/140/98 100/141/100 99/142/99
f 99/142/99 100/141/100 104/143/104 103/144/103
f 103/144/103 104/143/104 102/145/102 101/146/101
f 101/146/101 102/145/102 98/140/98 97/139/97
f 101/146/101 97/139/97 106/147/106 108/148/108
f 104/149/104 100/150/100 98/151/98 102/152/102
f 105/153/105 107/154/107 108/148/108 106/147/106
f 99/142/99 103/144/103 107/154/107 105/153/105
f 97/139/97 99/142/99 105/153/105 106/147/106
f 103/144/103 101/146/101 108/148/108 107/154/107
f 109/139/97 110/140/109 112/141/110 111/142/99
f 111/142/99 112/141/110 116/143/112 115/144/103
f 115/144/103 116/143/112 114/145/111 113/146/101
f 113/146/101 114/145/111 110/140/109 109/139/97
f 113/146/101 109/139/97 118/147/106 120/148/108
f 117/153/105 119/154/107 120/148/108 118/147/106
f 111/142/99 115/144/103 119/154/107 117/153/105
f 109/139/97 111/142/99 117/153/105 118/147/106
f 115/144/103 113/146/101 120/148/108 119/154/107
