# Blender 5.0.1
# www.blender.org
mtllib model.mtl
o dragonScaleMesh
v 0.111027 0.000000 1.347855
v 0.544131 0.000000 1.167590
v -0.148612 0.601800 1.108490
v 0.304556 0.716940 0.964684
v -0.483229 0.677424 -0.140757
v -0.086604 0.948466 -0.195481
v -0.255614 0.400430 -0.770969
v 0.231352 0.451284 -0.755641
v -0.157261 0.000000 -0.983220
v 0.348921 0.000000 -1.016826
v -0.255614 -0.400430 -0.770969
v 0.220347 -0.552543 -0.807562
v -0.483229 -0.677424 -0.140757
v -0.086604 -0.948466 -0.195481
v -0.148612 -0.601800 1.108490
v 0.304556 -0.716940 0.964684
v -0.205605 -0.180768 -0.928434
v 0.283752 -0.295854 -0.961591
v -0.003421 -0.326208 1.304826
v 0.425600 -0.373322 1.123836
v -0.003421 0.326208 1.304826
v 0.425600 0.373322 1.123836
v -0.205605 0.180768 -0.928434
v 0.283752 0.295854 -0.961591
v -0.351895 -0.510751 -0.506422
v 0.049757 -0.778296 -0.551534
v -0.303565 -0.684859 0.851054
v 0.099702 -0.951037 0.796006
v -0.303565 0.684859 0.851054
v 0.099702 0.951037 0.796006
v -0.351895 0.510751 -0.506422
v 0.085305 0.724092 -0.513546
v -0.338156 0.722115 0.795782
v -0.478693 0.797982 0.310188
v -0.436450 0.804505 0.559931
v -0.078865 1.069032 0.255483
v 0.064366 0.988326 0.737892
v -0.035068 1.074138 0.504292
v -0.478693 -0.797982 0.310188
v -0.338156 -0.722115 0.795782
v -0.436450 -0.804505 0.559931
v 0.064366 -0.988326 0.737892
v -0.078865 -1.069032 0.255483
v -0.035068 -1.074138 0.504292
v 0.366038 0.000000 1.383289
v 0.152706 0.746375 1.143091
v -0.231598 1.000530 -0.237824
v 0.029411 0.544762 -0.978957
v 0.147945 0.000000 -1.199993
v 0.032586 -0.610639 -0.939346
v -0.231598 -1.000530 -0.237824
v 0.152706 -0.746375 1.143091
v 0.259912 -0.375046 1.328762
v 0.090140 -0.311502 -1.131989
v 0.090140 0.311502 -1.131989
v 0.259912 0.375046 1.328762
v -0.028196 -0.971936 0.943859
v -0.099340 -0.817832 -0.630133
v -0.102133 0.807237 -0.646447
v -0.028196 0.971936 0.943859
v -0.222861 1.131860 0.255929
v -0.175411 1.135446 0.568127
v -0.070648 1.031081 0.855965
v -0.070648 -1.031081 0.855965
v -0.175411 -1.135446 0.568128
v -0.222861 -1.131860 0.255929
v 0.035426 0.751438 1.164054
v -0.339132 1.001746 -0.234481
v -0.074665 0.623504 -0.923214
v 0.040349 0.000000 -1.199993
v -0.074665 -0.623504 -0.923214
v -0.339132 -1.001746 -0.234481
v 0.035426 -0.751438 1.164054
v 0.140676 -0.379030 1.343617
v -0.017806 -0.320765 -1.126281
v -0.017806 0.320765 -1.126281
v 0.140676 0.379030 1.343617
v -0.141690 -0.981617 0.944424
v -0.206478 -0.821343 -0.622239
v -0.206478 0.821343 -0.622239
v -0.141690 0.981617 0.944424
v -0.333733 1.131465 0.253168
v -0.185497 -1.041026 0.848467
v 0.248808 0.000000 1.392377
v -0.288663 1.138742 0.556893
v -0.185497 1.041026 0.848467
v -0.288663 -1.138742 0.556893
v -0.333733 -1.131465 0.253168
v 0.237245 0.000000 1.192712
v 0.344840 0.000000 1.184416
v 0.017403 0.635417 1.002146
v 0.124602 0.631379 0.981889
v -0.338865 0.813150 -0.167912
v -0.231269 0.813140 -0.167930
v -0.071461 0.476699 -0.787427
v 0.036135 0.476416 -0.791118
v 0.042034 0.000000 -1.000000
v 0.149630 0.000000 -1.000000
v -0.071461 -0.476699 -0.787427
v 0.036135 -0.476416 -0.791118
v -0.338865 -0.813150 -0.167912
v -0.231269 -0.813140 -0.167930
v 0.017403 -0.635417 1.002146
v 0.124602 -0.631379 0.981889
v -0.014713 -0.238349 -0.944077
v 0.092882 -0.238208 -0.945923
v 0.127324 -0.317709 1.153718
v 0.234721 -0.315690 1.139441
v 0.234721 0.315690 1.139441
v -0.014713 0.238349 -0.944077
v 0.092882 0.238208 -0.945923
v -0.205163 -0.644924 -0.528033
v -0.097567 -0.644778 -0.529888
v -0.157158 -0.819259 0.828662
v -0.047237 -0.817240 0.818533
v -0.157158 0.819259 0.828662
v -0.047237 0.817240 0.818533
v -0.205163 0.644924 -0.528033
v -0.193791 0.857841 0.768628
v -0.334329 0.933708 0.283034
v -0.292085 0.940231 0.532776
v -0.223530 0.933706 0.283034
v -0.080299 0.853001 0.765442
v -0.179733 0.938813 0.531843
v -0.334329 -0.933708 0.283034
v -0.193791 -0.857841 0.768628
v -0.292085 -0.940231 0.532776
v -0.080299 -0.853001 0.765442
v -0.223530 -0.933706 0.283034
v -0.179733 -0.938813 0.531843
v -0.097567 0.644778 -0.529888
v 0.127324 0.317709 1.153718
vn 0.6876 -0.0000 -0.7261
vn -0.9546 -0.0000 -0.2978
vn 0.8253 0.0206 -0.5643
vn -0.8089 -0.5562 -0.1907
vn 0.9802 0.1772 0.0883
vn -0.5760 -0.7885 0.2158
vn 0.9548 0.0459 0.2937
vn -0.8106 -0.5334 0.2417
vn 0.9150 -0.0000 0.4035
vn -0.8898 -0.0000 0.4563
vn 0.9548 -0.0459 0.2937
vn -0.7652 0.5592 0.3190
vn 0.9802 -0.1772 0.0883
vn -0.5464 0.8106 0.2108
vn 0.8253 -0.0206 -0.5643
vn -0.8087 0.5541 -0.1973
vn 0.9410 -0.0869 0.3271
vn -0.8273 0.3653 0.4268
vn 0.7523 -0.0495 -0.6569
vn -0.8851 0.3622 -0.2923
vn 0.7523 0.0495 -0.6569
vn -0.8822 -0.3706 -0.2905
vn 0.9410 0.0869 0.3271
vn -0.8174 -0.4118 0.4028
vn 0.9235 -0.3250 0.2035
vn -0.5932 0.7712 0.2313
vn 0.8344 -0.3383 -0.4352
vn -0.6446 0.7532 -0.1314
vn 0.8344 0.3383 -0.4352
vn -0.6670 -0.7343 -0.1265
vn 0.9235 0.3250 0.2035
vn -0.6869 -0.6909 0.2257
vn 0.9014 0.1830 -0.3925
vn 0.9883 0.1247 -0.0881
vn 0.9582 0.1149 -0.2620
vn -0.5652 -0.8103 0.1550
vn -0.6136 -0.7881 -0.0491
vn -0.5737 -0.8179 0.0449
vn 0.9883 -0.1247 -0.0881
vn 0.9014 -0.1830 -0.3925
vn 0.9582 -0.1149 -0.2620
vn -0.6015 0.7972 -0.0509
vn -0.5534 0.8188 0.1526
vn -0.5621 0.8259 0.0430
vn -0.5089 -0.0000 -0.8608
vn -0.4168 -0.6288 -0.6564
vn -0.2056 -0.9258 0.3171
vn -0.3461 -0.6794 0.6470
vn -0.3717 -0.0000 0.9284
vn -0.2785 0.7002 0.6574
vn -0.1772 0.9321 0.3158
vn -0.4168 0.6288 -0.6564
vn -0.4372 0.3643 -0.8223
vn -0.3092 0.4004 0.8626
vn -0.3351 -0.4344 0.8361
vn -0.4372 -0.3643 -0.8223
vn -0.3047 0.8052 -0.5088
vn -0.2144 0.8781 0.4279
vn -0.3433 -0.8390 0.4221
vn -0.3047 -0.8052 -0.5088
vn -0.1916 -0.9701 0.1487
vn -0.2088 -0.9699 -0.1254
vn -0.2571 -0.8993 -0.3539
vn -0.2571 0.8993 -0.3539
vn -0.2088 0.9699 -0.1254
vn -0.1916 0.9701 0.1487
vn 0.2039 -0.5226 -0.8279
vn 0.5638 -0.7464 0.3536
vn 0.3573 -0.6424 0.6780
vn 0.3540 -0.0000 0.9353
vn 0.4212 0.5905 0.6885
vn 0.5660 0.7449 0.3531
vn 0.2039 0.5226 -0.8279
vn 0.1225 0.2727 -0.9543
vn 0.4196 0.3077 0.8540
vn 0.4152 -0.3106 0.8551
vn 0.1225 -0.2727 -0.9543
vn 0.3795 0.6213 -0.6855
vn 0.4976 0.6758 0.5438
vn 0.4722 -0.6915 0.5467
vn 0.3795 -0.6213 -0.6855
vn 0.5444 -0.8353 0.0768
vn 0.4433 0.7265 -0.5250
vn 0.0594 -0.0000 -0.9982
vn 0.5101 -0.8269 -0.2366
vn 0.4433 -0.7265 -0.5250
vn 0.5101 0.8269 -0.2366
vn 0.5444 0.8353 0.0768
vn -0.5088 -0.0000 0.8609
vn 0.7983 -0.0000 0.6023
vn -0.5891 0.2488 0.7688
vn 0.6491 0.6202 0.4405
vn -0.9047 0.3440 -0.2512
vn 0.3483 0.8951 -0.2785
vn -0.7398 0.3742 -0.5591
vn 0.5552 0.6538 -0.5141
vn -0.6262 -0.0000 -0.7797
vn 0.6756 -0.0000 -0.7373
vn -0.7398 -0.3742 -0.5591
vn 0.5552 -0.6538 -0.5141
vn -0.9047 -0.3440 -0.2512
vn 0.3483 -0.8951 -0.2785
vn -0.5891 -0.2488 0.7688
vn 0.6491 -0.6202 0.4405
vn -0.7203 -0.1216 -0.6829
vn 0.5808 -0.4312 -0.6905
vn -0.6034 -0.0688 0.7945
vn 0.6866 -0.3886 0.6144
vn 0.6866 0.3886 0.6144
vn -0.7203 0.1216 -0.6829
vn 0.5808 0.4312 -0.6905
vn -0.8610 -0.2665 -0.4332
vn 0.3887 -0.8540 -0.3458
vn -0.6686 -0.1668 0.7247
vn 0.4532 -0.8314 0.3214
vn -0.6686 0.1668 0.7247
vn 0.4532 0.8314 0.3214
vn -0.8610 0.2665 -0.4332
vn -0.7422 0.2965 0.6011
vn -0.9008 0.4336 -0.0238
vn -0.8415 0.4395 0.3143
vn 0.3680 0.9179 -0.1484
vn 0.4142 0.8890 0.1952
vn 0.3724 0.9272 0.0406
vn -0.9008 -0.4336 -0.0238
vn -0.7422 -0.2965 0.6011
vn -0.8415 -0.4395 0.3143
vn 0.4142 -0.8890 0.1952
vn 0.3680 -0.9179 -0.1484
vn 0.3724 -0.9272 0.0406
vn 0.3887 0.8540 -0.3458
vn -0.6034 0.0688 0.7945
vt 0.122615 0.833590
vt 0.113270 0.848359
vt 0.120681 0.855188
vt 0.131923 0.840867
vt 0.061640 0.911590
vt 0.052787 0.926091
vt 0.063896 0.932132
vt 0.070560 0.916489
vt 0.046492 0.934754
vt 0.038696 0.945489
vt 0.048712 0.951926
vt 0.055595 0.940331
vt 0.170680 0.682839
vt 0.168134 0.696299
vt 0.177287 0.698983
vt 0.181174 0.685973
vt 0.162226 0.710635
vt 0.154840 0.727467
vt 0.161165 0.729634
vt 0.169006 0.713423
vt 0.144029 0.775548
vt 0.142630 0.789489
vt 0.152550 0.791304
vt 0.152652 0.775230
vt 0.136452 0.805846
vt 0.132560 0.821229
vt 0.143175 0.826524
vt 0.147867 0.808907
vt 0.152512 0.676404
vt 0.041398 0.765206
vt 0.056044 0.787652
vt 0.168600 0.689809
vt 0.124007 0.823127
vt 0.179636 0.751888
vt 0.176941 0.725306
vt 0.100959 0.816211
vt 0.107437 0.664630
vt 0.030201 0.715437
vt 0.034029 0.739194
vt 0.132972 0.669249
vt 0.058412 0.823548
vt 0.153535 0.943140
vt 0.162270 0.919674
vt 0.077099 0.823127
vt 0.115010 0.969657
vt 0.037267 0.838102
vt 0.030201 0.855407
vt 0.089972 0.969437
vt 0.076233 0.805279
vt 0.179636 0.707606
vt 0.045954 0.828086
vt 0.136425 0.959525
vt 0.173666 0.669651
vt 0.185328 0.672906
vt 0.159887 0.898609
vt 0.096246 0.830621
vt 0.030365 0.875968
vt 0.071147 0.959690
vt 0.071133 0.895333
vt 0.076641 0.899091
vt 0.102981 0.857855
vt 0.107909 0.864930
vt 0.080519 0.877601
vt 0.087920 0.869243
vt 0.076775 0.858427
vt 0.068902 0.867295
vt 0.095688 0.860280
vt 0.085695 0.849382
vt 0.141577 0.768257
vt 0.144067 0.756646
vt 0.128705 0.754251
vt 0.126845 0.766830
vt 0.146293 0.745689
vt 0.131052 0.742611
vt 0.030201 0.904717
vt 0.040676 0.934684
vt 0.050665 0.948722
vt 0.066255 0.958222
vt 0.100048 0.861392
vt 0.105293 0.867437
vt 0.084131 0.880037
vt 0.089095 0.883936
vt 0.160058 0.806901
vt 0.178109 0.780783
vt 0.129273 0.822822
vt 0.146802 0.817834
vt 0.160262 0.893516
vt 0.156956 0.875561
vt 0.147409 0.861218
vt 0.123158 0.840734
vt 0.150419 0.747112
vt 0.156530 0.748737
vt 0.145091 0.771074
vt 0.153083 0.771629
vt 0.079180 0.667400
vt 0.050846 0.681722
vt 0.038327 0.693493
vt 0.031169 0.710252
vt 0.140525 0.772764
vt 0.150501 0.726824
vt 0.068022 0.892274
vt 0.098653 0.856731
vt 0.154491 0.759575
vt 0.147692 0.758881
vt 0.096519 0.875801
vt 0.091881 0.870793
vt 0.108700 0.846606
vt 0.059585 0.907764
vt 0.163926 0.696886
vt 0.157839 0.710580
vt 0.128206 0.819058
vt 0.117927 0.831810
vt 0.052673 0.920719
vt 0.044024 0.931398
vt 0.168851 0.669505
vt 0.166414 0.683171
vt 0.138479 0.786891
vt 0.132208 0.803171
vt 0.035447 0.942016
vt 0.112461 0.827886
vt 0.100609 0.839500
vt 0.045875 0.900201
vt 0.040993 0.913375
vt 0.033992 0.923836
vt 0.028426 0.930616
vt 0.154083 0.680448
vt 0.150722 0.692484
vt 0.143404 0.704367
vt 0.136117 0.722132
vt 0.126171 0.770119
vt 0.127928 0.784703
vt 0.125783 0.801166
vt 0.122621 0.816273
vt 0.155564 0.671741
vt 0.055622 0.883657
vt 0.087913 0.846866
vt 0.518209 0.088885
vt 0.608100 0.068478
vt 0.608100 0.892800
vt 0.488970 0.875828
vt 0.916498 0.754729
vt 0.846361 0.816373
vt 0.787883 0.147303
vt 0.851417 0.245882
vt 0.364783 0.245882
vt 0.428317 0.147303
vt 0.369840 0.816373
vt 0.299702 0.754729
vt 0.518155 0.089581
vt 0.428211 0.148695
vt 0.368316 0.824018
vt 0.488208 0.881216
vt 0.727992 0.881216
vt 0.847884 0.824018
vt 0.787989 0.148695
vt 0.698045 0.089581
vt 0.727230 0.875828
vt 0.697991 0.088885
vt 0.608100 0.895931
vt 0.364728 0.246581
vt 0.298940 0.758551
vt 0.917260 0.758551
vt 0.851472 0.246581
vt 0.931819 0.735896
vt 0.962910 0.646894
vt 0.960449 0.552650
vt 0.914954 0.382479
vt 0.960448 0.552650
vt 0.962375 0.646542
vt 0.929993 0.734694
vt 0.914951 0.382472
vt 0.301246 0.382479
vt 0.255751 0.552650
vt 0.253290 0.646894
vt 0.284381 0.735896
vt 0.301249 0.382472
vt 0.286207 0.734694
vt 0.253825 0.646542
vt 0.255752 0.552650
vt 0.143807 0.398546
vt 0.097775 0.397387
vt 0.093160 0.392495
vt 0.138702 0.393089
vt 0.159124 0.482434
vt 0.114008 0.481278
vt 0.116002 0.441065
vt 0.161601 0.442234
vt 0.161600 0.177317
vt 0.116002 0.178486
vt 0.114008 0.138272
vt 0.159124 0.137117
vt 0.138702 0.226462
vt 0.093159 0.227055
vt 0.097775 0.222164
vt 0.143807 0.221004
vt 0.114378 0.252469
vt 0.069169 0.252478
vt 0.091453 0.108301
vt 0.136580 0.107291
vt 0.114037 0.542087
vt 0.068898 0.541220
vt 0.091453 0.511249
vt 0.136581 0.512260
vt 0.081972 0.309775
vt 0.036793 0.309775
vt 0.052981 0.281127
vt 0.098175 0.281122
vt 0.114037 0.077464
vt 0.068898 0.078330
vt 0.058793 0.056128
vt 0.103926 0.055186
vt 0.093815 0.586642
vt 0.048689 0.585625
vt 0.058794 0.563423
vt 0.103926 0.564364
vt 0.114378 0.367082
vt 0.069169 0.367072
vt 0.052981 0.338424
vt 0.098175 0.338429
vt 0.048689 0.033925
vt 0.093815 0.032909
vt 0.117150 0.417919
vt 0.157051 0.418942
vt 0.117149 0.201632
vt 0.157051 0.200609
s 1
g dragonScaleMesh_dragonScaleMat
usemtl dragonScaleMat
f 106/137/106 98/138/98 90/139/90 108/140/108
f 117/141/117 92/142/92 96/143/96 131/144/131
f 113/145/113 100/146/100 104/147/104 115/148/115
f 105/149/105 99/150/99 103/151/103 107/152/107
f 132/153/132 91/154/91 95/155/95 110/156/110
f 109/157/109 90/139/90 98/138/98 111/158/111
f 97/138/97 105/149/105 107/152/107 89/159/89
f 100/146/100 106/137/106 108/140/108 104/147/104
f 92/142/92 109/157/109 111/158/111 96/143/96
f 89/159/89 132/153/132 110/156/110 97/138/97
f 99/150/99 112/160/112 114/161/114 103/151/103
f 91/154/91 116/162/116 118/163/118 95/155/95
f 116/162/116 119/164/119 121/165/121 120/166/120 93/167/93 118/163/118
f 122/168/122 124/169/124 123/170/123 117/141/117 131/144/131 94/171/94
f 112/160/112 101/172/101 125/173/125 127/174/127 126/175/126 114/161/114
f 102/176/102 113/145/113 115/148/115 128/177/128 130/178/130 129/179/129
f 126/180/126 128/181/128 115/182/115 114/183/114
f 101/184/101 102/185/102 129/186/129 125/187/125
f 120/188/120 122/189/122 94/190/94 93/191/93
f 116/192/116 117/193/117 123/194/123 119/195/119
f 91/196/91 92/197/92 117/193/117 116/192/116
f 93/191/93 94/190/94 131/198/131 118/199/118
f 99/200/99 100/201/100 113/202/113 112/203/112
f 89/204/89 90/205/90 109/206/109 132/207/132
f 95/208/95 96/209/96 111/210/111 110/211/110
f 97/212/97 98/213/98 106/214/106 105/215/105
f 103/216/103 104/217/104 108/218/108 107/219/107
f 107/219/107 108/218/108 90/205/90 89/204/89
f 114/183/114 115/182/115 104/217/104 103/216/103
f 112/203/112 113/202/113 102/185/102 101/184/101
f 105/215/105 106/214/106 100/201/100 99/200/99
f 110/211/110 111/210/111 98/220/98 97/221/97
f 118/199/118 131/198/131 96/209/96 95/208/95
f 132/207/132 109/206/109 92/197/92 91/196/91
f 130/222/130 127/223/127 125/187/125 129/186/129
f 128/181/128 126/180/126 127/223/127 130/222/130
f 124/224/124 121/225/121 119/195/119 123/194/123
f 122/189/122 120/188/120 121/225/121 124/224/124
g dragonScaleMesh_Material
usemtl Material
f 56/1/56 46/2/46 4/3/4 22/4/22
f 59/5/59 48/6/48 8/7/8 32/8/32
f 55/9/55 49/10/49 10/11/10 24/12/24
f 54/13/54 50/14/50 12/15/12 18/16/18
f 58/17/58 51/18/51 14/19/14 26/20/26
f 57/21/57 52/22/52 16/23/16 28/24/28
f 53/25/53 45/26/45 2/27/2 20/28/20
f 18/29/18 20/30/20 2/31/2 10/32/10
f 30/33/30 32/34/32 8/35/8 4/36/4
f 26/37/26 28/38/28 16/39/16 12/40/12
f 17/41/17 19/42/19 15/43/15 11/44/11
f 21/45/21 23/46/23 7/47/7 3/48/3
f 22/49/22 24/50/24 10/32/10 2/31/2
f 9/51/9 1/52/1 19/42/19 17/41/17
f 12/40/12 16/39/16 20/30/20 18/29/18
f 52/22/52 53/25/53 20/28/20 16/23/16
f 49/53/49 54/13/54 18/16/18 10/54/10
f 4/36/4 8/35/8 24/50/24 22/49/22
f 1/52/1 9/51/9 23/46/23 21/45/21
f 48/6/48 55/9/55 24/12/24 8/7/8
f 45/26/45 56/1/56 22/4/22 2/27/2
f 11/44/11 15/43/15 27/55/27 25/56/25
f 50/14/50 58/17/58 26/20/26 12/15/12
f 3/48/3 7/47/7 31/57/31 29/58/29
f 47/59/47 59/5/59 32/8/32 6/60/6
f 46/2/46 60/61/60 30/62/30 4/3/4
f 82/63/82 85/64/85 35/65/35 34/66/34
f 85/64/85 86/67/86 33/68/33 35/65/35
f 83/69/83 87/70/87 41/71/41 40/72/40
f 87/70/87 88/73/88 39/74/39 41/71/41
f 29/58/29 31/57/31 5/75/5 34/76/34 35/77/35 33/78/33
f 60/61/60 63/79/63 37/80/37 30/62/30
f 61/81/61 47/59/47 6/60/6 36/82/36
f 36/83/36 6/84/6 32/34/32 30/33/30 37/85/37 38/86/38
f 25/56/25 27/55/27 40/87/40 41/88/41 39/89/39 13/90/13
f 51/18/51 66/91/66 43/92/43 14/19/14
f 64/93/64 57/21/57 28/24/28 42/94/42
f 14/95/14 43/96/43 44/97/44 42/98/42 28/38/28 26/37/26
f 83/69/83 78/99/78 57/21/57 64/93/64
f 72/100/72 88/73/88 66/91/66 51/18/51
f 82/63/82 68/101/68 47/59/47 61/81/61
f 81/102/81 86/67/86 63/79/63 60/61/60
f 44/103/44 43/92/43 66/91/66 65/104/65
f 42/94/42 44/103/44 65/104/65 64/93/64
f 38/105/38 37/80/37 63/79/63 62/106/62
f 36/82/36 38/105/38 62/106/62 61/81/61
f 67/107/67 81/102/81 60/61/60 46/2/46
f 68/101/68 80/108/80 59/5/59 47/59/47
f 71/109/71 79/110/79 58/17/58 50/14/50
f 84/111/84 77/112/77 56/1/56 45/26/45
f 69/113/69 76/114/76 55/9/55 48/6/48
f 70/115/70 75/116/75 54/13/54 49/53/49
f 73/117/73 74/118/74 53/25/53 52/22/52
f 74/118/74 84/111/84 45/26/45 53/25/53
f 78/99/78 73/117/73 52/22/52 57/21/57
f 79/110/79 72/100/72 51/18/51 58/17/58
f 75/116/75 71/109/71 50/14/50 54/13/54
f 76/114/76 70/119/70 49/10/49 55/9/55
f 80/108/80 69/113/69 48/6/48 59/5/59
f 77/112/77 67/107/67 46/2/46 56/1/56
f 21/120/21 3/121/3 67/107/67 77/112/77
f 31/122/31 7/123/7 69/113/69 80/108/80
f 23/124/23 9/125/9 70/119/70 76/114/76
f 17/126/17 11/127/11 71/109/71 75/116/75
f 25/128/25 13/129/13 72/100/72 79/110/79
f 27/130/27 15/131/15 73/117/73 78/99/78
f 19/132/19 1/133/1 84/111/84 74/118/74
f 15/131/15 19/132/19 74/118/74 73/117/73
f 9/134/9 17/126/17 75/116/75 70/115/70
f 7/123/7 23/124/23 76/114/76 69/113/69
f 1/133/1 21/120/21 77/112/77 84/111/84
f 11/127/11 25/128/25 79/110/79 71/109/71
f 5/135/5 31/122/31 80/108/80 68/101/68
f 3/121/3 29/136/29 81/102/81 67/107/67
f 29/136/29 33/68/33 86/67/86 81/102/81
f 34/66/34 5/135/5 68/101/68 82/63/82
f 13/129/13 39/74/39 88/73/88 72/100/72
f 40/72/40 27/130/27 78/99/78 83/69/83
f 65/104/65 66/91/66 88/73/88 87/70/87
f 64/93/64 65/104/65 87/70/87 83/69/83
f 62/106/62 63/79/63 86/67/86 85/64/85
f 61/81/61 62/106/62 85/64/85 82/63/82
