# Blender 5.0.1
# www.blender.org
mtllib model.mtl
o Unicorn
v 1.333586 0.118957 0.445925
v 0.933186 0.076838 -0.222186
v 1.333586 -0.118957 0.445925
v 0.933186 -0.076838 -0.222186
v 1.242530 0.118957 0.161218
v 1.065774 0.118957 0.009699
v 1.065774 -0.118957 0.009699
v 1.242530 -0.118957 0.161218
v 0.724450 0.094998 0.600318
v 0.724450 0.094998 0.130087
v 0.724450 -0.094998 0.130087
v 0.724450 -0.094998 0.600318
v 0.724450 -0.094998 0.272264
v 0.724450 -0.094998 0.436291
v 0.724450 0.094998 0.436291
v 0.724450 0.094998 0.272264
v 1.123808 0.048888 -0.306069
v 1.123808 -0.048888 -0.306069
v 0.724450 -0.114967 0.210980
v 0.724450 0.114967 0.210980
v 1.344210 0.075686 -0.043445
v 1.344210 -0.075686 -0.043445
v 0.724450 0.114967 0.354278
v 0.724450 -0.114967 0.354278
v 1.443300 -0.075686 0.183451
v 1.443300 0.075686 0.183451
v 0.724450 0.114967 0.518304
v 0.724450 -0.114967 0.518304
v -1.000000 -0.000000 -0.000000
v -0.707107 -0.000000 0.707106
v -0.000000 -0.000000 1.000000
v 1.000000 -0.000000 -0.000000
v -0.923880 -0.191342 0.331413
v -0.707107 -0.353553 0.612372
v -0.382684 -0.461940 0.800103
v -0.000000 -0.500000 0.866025
v 0.382683 -0.461940 0.800103
v 0.707107 -0.353553 0.612372
v 0.923879 -0.191342 0.331413
v -0.923880 -0.331414 0.191342
v -0.707107 -0.612372 0.353553
v -0.382684 -0.800103 0.461940
v -0.000000 -0.866025 0.500000
v 0.382683 -0.800103 0.461940
v 0.707107 -0.612372 0.353553
v 0.923879 -0.331414 0.191342
v -0.923880 -0.382683 -0.000000
v -0.707107 -0.707107 -0.000000
v -0.382684 -0.923880 -0.000000
v -0.000000 -1.000000 -0.000000
v 0.382683 -0.923879 -0.000000
v 0.707107 -0.707107 -0.000000
v 0.923879 -0.382683 -0.000000
v -0.923880 -0.331414 -0.191342
v -0.707107 -0.612372 -0.353553
v -0.382684 -0.800103 -0.461940
v -0.000000 -0.866025 -0.500000
v 0.382683 -0.800103 -0.461940
v 0.707106 -0.612372 -0.353553
v 0.923879 -0.331414 -0.191342
v -0.923880 -0.191342 -0.331414
v -0.707107 -0.353553 -0.612373
v -0.382684 -0.461940 -0.800103
v -0.000000 -0.500000 -0.866025
v 0.382683 -0.461940 -0.800103
v 0.707107 -0.353553 -0.612372
v 0.923879 -0.191342 -0.331414
v -0.923880 -0.000000 -0.382684
v -0.707107 0.000000 -0.707107
v -0.382684 -0.000000 -0.923880
v -0.000000 -0.000000 -1.000000
v 0.382683 -0.000000 -0.923879
v 0.707107 0.000000 -0.707107
v 0.923879 -0.000000 -0.382683
v -0.923880 0.191342 -0.331414
v -0.707107 0.353553 -0.612372
v -0.382684 0.461940 -0.800103
v -0.000000 0.500000 -0.866025
v 0.382683 0.461940 -0.800103
v 0.707107 0.353553 -0.612372
v 0.923879 0.191342 -0.331414
v -0.923880 0.331414 -0.191342
v -0.707107 0.612372 -0.353553
v -0.382684 0.800103 -0.461940
v -0.000000 0.866025 -0.500000
v 0.382683 0.800103 -0.461940
v 0.707107 0.612372 -0.353553
v 0.923879 0.331414 -0.191342
v -0.923880 0.382683 -0.000000
v -0.707107 0.707107 -0.000000
v -0.382684 0.923879 -0.000000
v -0.000000 1.000000 -0.000000
v 0.382683 0.923879 -0.000000
v 0.707107 0.707107 0.000000
v 0.923879 0.382683 -0.000000
v -0.923880 0.331414 0.191342
v -0.707107 0.612372 0.353553
v -0.382684 0.800103 0.461940
v -0.000000 0.866025 0.500000
v 0.382683 0.800103 0.461940
v 0.707107 0.612372 0.353553
v 0.923879 0.331414 0.191342
v -0.923880 0.191342 0.331413
v -0.707107 0.353553 0.612372
v -0.382684 0.461940 0.800103
v -0.000000 0.500000 0.866025
v 0.382683 0.461940 0.800103
v 0.707107 0.353553 0.612372
v 0.923879 0.191342 0.331413
v -0.923880 -0.000000 0.382683
v -0.382684 -0.000000 0.923879
v 0.382683 -0.000000 0.923879
v 0.707107 -0.000000 0.707106
v 0.923879 0.000000 0.382683
v -1.180106 -0.601909 1.083520
v -1.063370 -0.590016 1.062111
v -0.865007 -0.504531 0.908227
v -0.570965 -0.356603 0.641936
v -0.760509 -0.451909 0.813499
v -1.015420 -0.465421 1.005316
v -1.097228 -0.630611 1.002684
v -0.910014 -0.558493 0.829231
v -0.617427 -0.412310 0.560387
v -1.084670 -0.460562 0.932592
v -1.152012 -0.583796 0.969023
v -0.982837 -0.496263 0.784486
v -0.692604 -0.348068 0.514195
v -1.084670 -0.548449 0.883770
v -1.152012 -0.514268 1.007647
v -0.982837 -0.403841 0.835827
v -0.692604 -0.252658 0.567197
v -1.015420 -0.607626 0.926319
v -0.711494 -0.305912 0.732513
v -0.805997 -0.355307 0.817620
v -1.097228 -0.518112 1.065178
v -0.910014 -0.408950 0.912304
v -0.617427 -0.257933 0.646145
v -0.972621 -0.556311 1.001439
v -0.786671 -0.300637 0.653565
v -0.879598 -0.350143 0.740327
v -0.786671 -0.396047 0.600563
v -0.879598 -0.443553 0.688437
v -0.711494 -0.460289 0.646755
v -0.805997 -0.506448 0.733660
v -0.665032 -0.404582 0.728304
v -0.489690 0.104434 1.207234
v 0.570180 0.104434 1.207234
v -0.489690 -0.104434 1.207234
v 0.570180 -0.104434 1.207234
v -0.271058 0.104434 1.207234
v 0.043990 0.104434 1.207234
v 0.353638 0.104434 1.207234
v 0.353638 -0.104434 1.207234
v 0.043990 -0.104434 1.207234
v -0.271058 -0.104434 1.207234
v -0.480891 0.295967 0.805112
v 0.260356 0.295967 0.805112
v 0.260356 -0.295967 0.805112
v -0.480891 -0.295967 0.805112
v 0.075877 -0.295967 0.805112
v -0.111934 -0.295967 0.805112
v -0.296412 -0.295967 0.805112
v -0.296412 0.295967 0.805112
v -0.111934 0.295967 0.805112
v 0.075877 0.295967 0.805112
v 0.487950 0.066445 1.317158
v 0.487950 -0.066446 1.317158
v 0.169377 -0.358181 0.805112
v 0.169377 0.358181 0.805112
v 0.216949 0.066445 1.342222
v 0.216949 -0.066446 1.342222
v -0.018915 0.358181 0.805112
v -0.018915 -0.358181 0.805112
v -0.128570 0.066445 1.342222
v -0.128570 -0.066446 1.342222
v -0.204173 0.358181 0.805112
v -0.204173 -0.358181 0.805112
v -0.396270 -0.066446 1.342222
v -0.396270 0.066445 1.342222
v -0.388652 0.358181 0.805112
v -0.388652 -0.358181 0.805112
v 0.200452 -0.350841 -0.725968
v 0.237544 -0.388900 -1.007294
v 0.337664 -0.405489 -1.135740
v 0.477020 -0.409096 -1.171840
v 0.346503 -0.143326 -0.734785
v 0.383596 -0.181385 -1.016111
v 0.427930 -0.277237 -1.141189
v 0.586680 -0.214603 -0.693475
v 0.623772 -0.252662 -0.974801
v 0.576367 -0.321289 -1.115659
v 0.589065 -0.466171 -0.659127
v 0.626158 -0.504230 -0.940454
v 0.577841 -0.476766 -1.094431
v 0.350363 -0.550370 -0.679209
v 0.387455 -0.588430 -0.960535
v 0.430315 -0.528804 -1.106842
v -0.200452 -0.350841 -0.725968
v -0.237544 -0.388900 -1.007294
v -0.337665 -0.405489 -1.135740
v -0.477020 -0.409096 -1.171840
v -0.346504 -0.143326 -0.734785
v -0.383596 -0.181385 -1.016111
v -0.427930 -0.277237 -1.141189
v -0.586680 -0.214603 -0.693475
v -0.623773 -0.252662 -0.974801
v -0.576367 -0.321289 -1.115659
v -0.589065 -0.466170 -0.659127
v -0.626158 -0.504230 -0.940454
v -0.577841 -0.476766 -1.094431
v -0.350363 -0.550370 -0.679209
v -0.387455 -0.588430 -0.960535
v -0.430315 -0.528804 -1.106842
v -0.200452 0.350841 -0.725968
v -0.237544 0.388900 -1.007294
v -0.337665 0.405489 -1.135740
v -0.477020 0.409096 -1.171840
v -0.346504 0.143326 -0.734785
v -0.383596 0.181385 -1.016111
v -0.427930 0.277237 -1.141189
v -0.586680 0.214603 -0.693475
v -0.623773 0.252662 -0.974801
v -0.576367 0.321289 -1.115659
v -0.589065 0.466170 -0.659127
v -0.626158 0.504230 -0.940454
v -0.577841 0.476766 -1.094431
v -0.350363 0.550370 -0.679209
v -0.387456 0.588429 -0.960535
v -0.430315 0.528804 -1.106842
v 0.200452 0.350841 -0.725968
v 0.237544 0.388900 -1.007294
v 0.337664 0.405489 -1.135740
v 0.477020 0.409096 -1.171840
v 0.346503 0.143326 -0.734785
v 0.383596 0.181385 -1.016111
v 0.427930 0.277237 -1.141189
v 0.586680 0.214603 -0.693475
v 0.623772 0.252662 -0.974801
v 0.576367 0.321289 -1.115659
v 0.589065 0.466170 -0.659127
v 0.626158 0.504230 -0.940454
v 0.577841 0.476766 -1.094431
v 0.350363 0.550370 -0.679209
v 0.387455 0.588429 -0.960535
v 0.430315 0.528804 -1.106842
vn 0.0407 0.9968 -0.0681
vn -0.8603 -0.0000 -0.5098
vn -0.0151 -0.9973 -0.0723
vn 0.2457 -0.0000 0.9693
vn 0.9835 -0.0000 0.1808
vn 0.9226 -0.0000 0.3857
vn 0.8956 -0.0000 0.4449
vn -0.0975 -0.9845 -0.1458
vn -0.0435 -0.9944 -0.0963
vn 0.0624 0.9929 0.1017
vn 0.0743 0.9936 0.0851
vn 0.0407 -0.9968 -0.0681
vn -0.4028 -0.0000 -0.9153
vn -0.0975 0.9845 -0.1458
vn -0.0435 0.9944 -0.0963
vn 0.0743 -0.9936 0.0851
vn -0.1875 -0.0000 -0.9823
vn -0.0151 0.9973 -0.0723
vn 0.1101 -0.0000 -0.9939
vn 0.0624 -0.9929 0.1017
vn -1.0000 -0.0000 -0.0000
vn -0.0000 -0.0000 1.0000
vn -0.3718 -0.0000 0.9283
vn -0.3718 -0.4642 0.8040
vn -0.0000 -0.5000 0.8660
vn -0.6913 -0.0000 0.7226
vn -0.9122 -0.0000 0.4097
vn -0.9122 -0.2049 0.3548
vn -0.6913 -0.3613 0.6258
vn 0.9122 -0.0000 0.4097
vn 0.6913 -0.0000 0.7226
vn 0.6913 -0.3613 0.6258
vn 0.9122 -0.2049 0.3548
vn 0.3718 -0.0000 0.9283
vn 0.3718 -0.4642 0.8040
vn 1.0000 -0.0000 -0.0000
vn 0.6913 -0.6258 0.3613
vn 0.9122 -0.3548 0.2049
vn -0.0000 -0.8660 0.5000
vn 0.3718 -0.8040 0.4642
vn -0.6913 -0.6258 0.3613
vn -0.3718 -0.8040 0.4642
vn -0.9122 -0.3548 0.2049
vn -0.9122 -0.4097 -0.0000
vn 0.9122 -0.4097 -0.0000
vn 0.3718 -0.9283 -0.0000
vn 0.6913 -0.7226 -0.0000
vn -0.3718 -0.9283 -0.0000
vn -0.0000 -1.0000 -0.0000
vn -0.6913 -0.7226 -0.0000
vn 0.3718 -0.8040 -0.4642
vn 0.6913 -0.6258 -0.3613
vn -0.3718 -0.8040 -0.4642
vn -0.0000 -0.8660 -0.5000
vn -0.9122 -0.3548 -0.2049
vn -0.6913 -0.6258 -0.3613
vn 0.9122 -0.3548 -0.2049
vn 0.6913 -0.3613 -0.6258
vn 0.9122 -0.2049 -0.3548
vn -0.0000 -0.5000 -0.8660
vn 0.3718 -0.4642 -0.8040
vn -0.6913 -0.3613 -0.6258
vn -0.3718 -0.4642 -0.8040
vn -0.9122 -0.2049 -0.3548
vn -0.0000 -0.0000 -1.0000
vn 0.3718 -0.0000 -0.9283
vn -0.6913 -0.0000 -0.7226
vn -0.3718 -0.0000 -0.9283
vn -0.9122 -0.0000 -0.4097
vn 0.9122 -0.0000 -0.4097
vn 0.6913 -0.0000 -0.7226
vn 0.9122 0.2049 -0.3548
vn 0.3718 0.4642 -0.8040
vn 0.6913 0.3613 -0.6258
vn -0.3718 0.4642 -0.8040
vn -0.0000 0.5000 -0.8660
vn -0.9122 0.2049 -0.3548
vn -0.6913 0.3613 -0.6258
vn -0.3718 0.8040 -0.4642
vn -0.0000 0.8660 -0.5000
vn -0.9122 0.3548 -0.2049
vn -0.6913 0.6258 -0.3613
vn 0.6913 0.6258 -0.3613
vn 0.9122 0.3548 -0.2049
vn 0.3718 0.8040 -0.4642
vn 0.6913 0.7226 -0.0000
vn 0.9122 0.4097 -0.0000
vn -0.0000 1.0000 -0.0000
vn 0.3718 0.9283 -0.0000
vn -0.6913 0.7226 -0.0000
vn -0.3718 0.9283 -0.0000
vn -0.9122 0.4097 -0.0000
vn -0.6913 0.6258 0.3613
vn -0.3718 0.8040 0.4642
vn -0.9122 0.3548 0.2049
vn 0.9122 0.3548 0.2049
vn 0.3718 0.8040 0.4642
vn 0.6913 0.6258 0.3613
vn -0.0000 0.8660 0.5000
vn 0.9122 0.2049 0.3548
vn 0.3718 0.4642 0.8040
vn 0.6913 0.3613 0.6258
vn -0.3718 0.4642 0.8040
vn -0.0000 0.5000 0.8660
vn -0.9122 0.2049 0.3548
vn -0.6913 0.3613 0.6258
vn -0.7242 0.3349 -0.6028
vn 0.5824 -0.7865 0.2055
vn 0.1762 -0.8567 0.4848
vn -0.2317 0.9307 0.2829
vn 0.4936 -0.8231 0.2810
vn -0.3096 -0.7667 -0.5624
vn -0.2238 0.9349 0.2756
vn -0.2274 -0.7297 -0.6448
vn -0.5311 -0.8071 -0.2580
vn 0.5779 0.2388 0.7804
vn -0.8060 0.2875 -0.5175
vn 0.5859 0.2429 0.7731
vn -0.7278 0.3330 -0.5995
vn -0.9683 0.1213 -0.2184
vn 0.5695 -0.7928 0.2171
vn -0.3096 0.8826 0.3538
vn -0.2400 -0.7360 -0.6330
vn -0.2274 0.9330 0.2788
vn -0.5311 0.6455 0.5489
vn -0.7403 0.3265 -0.5877
vn 0.4936 0.1963 0.8473
vn -0.2400 0.9263 0.2904
vn 0.5824 0.2411 0.7764
vn 0.1762 0.0410 0.9835
vn 0.5695 0.2346 0.7878
vn -0.7322 0.3308 -0.5954
vn -0.2238 -0.7279 -0.6481
vn -0.2317 -0.7319 -0.6408
vn 0.5859 -0.7847 0.2022
vn 0.5779 -0.7887 0.2095
vn 0.6895 0.3517 -0.6331
vn 0.3021 0.9128 0.2749
vn 0.7921 -0.0000 -0.6103
vn -0.4063 -0.8154 0.4124
vn -0.9998 -0.0000 -0.0219
vn -0.6333 -0.0000 0.7739
vn -0.8223 -0.0000 0.5691
vn -0.6153 -0.0000 0.7883
vn -0.6877 -0.0000 0.7260
vn -0.3693 -0.7002 0.6110
vn -0.3436 -0.7690 0.5390
vn -0.3479 -0.8179 0.4582
vn 0.3551 0.8340 0.4224
vn 0.2767 0.8805 0.3848
vn 0.2785 0.9074 0.3146
vn 0.3021 -0.9128 0.2749
vn 0.8007 -0.0000 0.5990
vn -0.3693 0.7002 0.6110
vn -0.3436 0.7690 0.5390
vn 0.2785 -0.9074 0.3146
vn 0.7027 -0.0000 0.7115
vn -0.3479 0.8179 0.4582
vn 0.2767 -0.8805 0.3848
vn 0.6161 -0.0000 0.7876
vn -0.4063 0.8154 0.4124
vn 0.7332 -0.0000 0.6801
vn 0.3551 -0.8340 0.4224
vn -0.6751 0.4503 -0.5844
vn -0.2454 0.1319 -0.9604
vn -0.8077 0.5607 -0.1823
vn 0.2975 0.9505 -0.0894
vn 0.3243 0.8028 -0.5003
vn 0.2489 0.3063 -0.9188
vn 0.9915 0.0268 0.1271
vn 0.9519 -0.0326 -0.3045
vn 0.5594 -0.1069 -0.8220
vn 0.3153 -0.9340 0.1679
vn 0.3405 -0.9014 -0.2676
vn 0.2569 -0.5366 -0.8037
vn -0.7966 -0.6040 -0.0233
vn -0.6651 -0.6030 -0.4406
vn -0.2404 -0.3890 -0.8893
vn -0.1296 0.1329 0.9826
vn 0.6751 0.4503 -0.5844
vn 0.2454 0.1319 -0.9604
vn 0.8077 0.5607 -0.1823
vn -0.2975 0.9505 -0.0894
vn -0.3243 0.8028 -0.5003
vn -0.2489 0.3063 -0.9188
vn -0.9915 0.0268 0.1271
vn -0.9519 -0.0326 -0.3045
vn -0.5594 -0.1069 -0.8220
vn -0.3153 -0.9340 0.1679
vn -0.3405 -0.9014 -0.2676
vn -0.2569 -0.5366 -0.8037
vn 0.7966 -0.6040 -0.0233
vn 0.6651 -0.6030 -0.4406
vn 0.2404 -0.3890 -0.8893
vn 0.1296 0.1329 0.9826
vn 0.6751 -0.4503 -0.5844
vn 0.2454 -0.1319 -0.9604
vn 0.8077 -0.5607 -0.1823
vn -0.2975 -0.9505 -0.0894
vn -0.3243 -0.8028 -0.5003
vn -0.2489 -0.3063 -0.9188
vn -0.9915 -0.0268 0.1271
vn -0.9519 0.0326 -0.3045
vn -0.5594 0.1069 -0.8220
vn -0.3153 0.9340 0.1679
vn -0.3405 0.9014 -0.2676
vn -0.2569 0.5366 -0.8037
vn 0.7966 0.6040 -0.0233
vn 0.6651 0.6029 -0.4406
vn 0.2404 0.3890 -0.8893
vn 0.1296 -0.1329 0.9826
vn -0.6751 -0.4503 -0.5844
vn -0.2454 -0.1319 -0.9604
vn -0.8077 -0.5607 -0.1823
vn 0.2975 -0.9505 -0.0894
vn 0.3243 -0.8028 -0.5003
vn 0.2489 -0.3063 -0.9188
vn 0.9915 -0.0268 0.1271
vn 0.9519 0.0326 -0.3045
vn 0.5594 0.1069 -0.8220
vn 0.3153 0.9340 0.1679
vn 0.3405 0.9014 -0.2676
vn 0.2569 0.5366 -0.8037
vn -0.7966 0.6040 -0.0233
vn -0.6651 0.6029 -0.4406
vn -0.2404 0.3890 -0.8893
vn -0.1296 -0.1329 0.9826
vt 0.842141 0.834437
vt 0.763511 0.853582
vt 0.775842 0.862807
vt 0.842141 0.846418
vt 0.850798 0.631434
vt 0.830037 0.704979
vt 0.799500 0.704979
vt 0.778738 0.631434
vt 0.842141 0.760954
vt 0.760699 0.754386
vt 0.775842 0.743906
vt 0.842141 0.748808
vt 0.778738 0.956090
vt 0.799500 0.884500
vt 0.830037 0.884500
vt 0.850798 0.956090
vt 0.799500 0.721563
vt 0.830037 0.721563
vt 0.830037 0.742531
vt 0.799500 0.742531
vt 0.799500 0.864668
vt 0.830037 0.864668
vt 0.799500 0.818712
vt 0.830037 0.818712
vt 0.830037 0.842424
vt 0.799500 0.842424
vt 0.775842 0.838514
vt 0.842141 0.822125
vt 0.842141 0.785247
vt 0.760699 0.784418
vt 0.775842 0.768433
vt 0.842141 0.773101
vt 0.775842 0.803777
vt 0.842141 0.797393
vt 0.799500 0.792245
vt 0.830037 0.792245
vt 0.855106 0.677202
vt 0.863055 0.709404
vt 0.771525 0.709404
vt 0.779474 0.677202
vt 0.855106 0.733799
vt 0.779474 0.733799
vt 0.771525 0.766446
vt 0.863055 0.766446
vt 0.855106 0.799094
vt 0.779474 0.799094
vt 0.771525 0.831741
vt 0.863055 0.831741
vt 0.855106 0.864388
vt 0.779474 0.864388
vt 0.346870 0.978589
vt 0.346870 0.953792
vt 0.497353 0.913470
vt 0.509752 0.934945
vt 0.346870 0.883175
vt 0.346870 0.777490
vt 0.409202 0.760788
vt 0.462045 0.852314
vt 0.694052 0.285496
vt 0.694052 0.347528
vt 0.761654 0.329414
vt 0.730637 0.275693
vt 0.694052 0.388977
vt 0.694052 0.403532
vt 0.789655 0.377915
vt 0.782378 0.365310
vt 0.346870 0.652826
vt 0.694052 0.212324
vt 0.811142 0.279926
vt 0.757420 0.248910
vt 0.859642 0.307928
vt 0.847037 0.300651
vt 0.546359 0.768000
vt 0.607514 0.803309
vt 0.454832 0.715158
vt 0.628990 0.815707
vt 0.471534 0.652826
vt 0.767223 0.212324
vt 0.870704 0.212324
vt 0.829256 0.212324
vt 0.647836 0.652826
vt 0.672634 0.652826
vt 0.577220 0.652826
vt 0.885259 0.212324
vt 0.847037 0.123998
vt 0.811142 0.144722
vt 0.607514 0.502342
vt 0.628990 0.489944
vt 0.454832 0.590494
vt 0.546359 0.537651
vt 0.757420 0.175738
vt 0.859642 0.116720
vt 0.761654 0.095234
vt 0.730637 0.148955
vt 0.789655 0.046734
vt 0.782378 0.059338
vt 0.462045 0.453337
vt 0.497353 0.392181
vt 0.409202 0.544863
vt 0.509752 0.370706
vt 0.694052 0.021117
vt 0.694052 0.035672
vt 0.346870 0.422476
vt 0.346870 0.351859
vt 0.346870 0.528161
vt 0.694052 0.139152
vt 0.694052 0.077120
vt 0.346870 0.327062
vt 0.657466 0.148955
vt 0.605725 0.059338
vt 0.626449 0.095234
vt 0.196387 0.392181
vt 0.183988 0.370706
vt 0.284538 0.544863
vt 0.231695 0.453337
vt 0.598448 0.046734
vt 0.086225 0.502342
vt 0.064750 0.489944
vt 0.238907 0.590494
vt 0.147381 0.537651
vt 0.576961 0.144722
vt 0.630683 0.175738
vt 0.528461 0.116720
vt 0.541066 0.123998
vt 0.558847 0.212324
vt 0.620880 0.212324
vt 0.502844 0.212324
vt 0.517399 0.212324
vt 0.116520 0.652826
vt 0.045904 0.652826
vt 0.222206 0.652826
vt 0.021106 0.652826
vt 0.147381 0.768001
vt 0.086225 0.803309
vt 0.238907 0.715158
vt 0.630683 0.248910
vt 0.541066 0.300651
vt 0.576961 0.279926
vt 0.064750 0.815707
vt 0.528461 0.307928
vt 0.657466 0.275693
vt 0.605725 0.365310
vt 0.626450 0.329414
vt 0.196387 0.913470
vt 0.183988 0.934945
vt 0.284538 0.760788
vt 0.231695 0.852314
vt 0.598448 0.377915
vt 0.944175 0.963129
vt 0.942538 0.986142
vt 0.900650 0.954218
vt 0.921843 0.948117
vt 0.958398 0.681240
vt 0.976225 0.676108
vt 0.966049 0.719863
vt 0.955383 0.703717
vt 0.899189 0.837780
vt 0.937343 0.810059
vt 0.951917 0.854912
vt 0.933459 0.459562
vt 0.919695 0.476234
vt 0.902396 0.428367
vt 0.922646 0.435532
vt 0.952607 0.596067
vt 0.943368 0.570468
vt 0.952967 0.554328
vt 0.981249 0.556790
vt 0.940458 0.541767
vt 0.951735 0.514669
vt 0.912747 0.902201
vt 0.925428 0.921395
vt 0.921233 0.719863
vt 0.933316 0.705226
vt 0.984505 0.810059
vt 0.942200 0.395807
vt 0.940632 0.417856
vt 0.924408 0.549446
vt 0.900767 0.529784
vt 0.966026 0.902201
vt 0.951661 0.919601
vt 0.906045 0.677840
vt 0.923823 0.684130
vt 0.951917 0.765205
vt 0.776810 0.591866
vt 0.799444 0.575282
vt 0.818888 0.583921
vt 0.825503 0.605829
vt 0.926275 0.565691
vt 0.900767 0.586467
vt 0.830450 0.565192
vt 0.854996 0.568096
vt 0.940990 0.649255
vt 0.939613 0.668612
vt 0.899189 0.782338
vt 0.816594 0.547709
vt 0.828136 0.524593
vt 0.796604 0.554883
vt 0.776810 0.536853
vt 0.958594 0.457843
vt 0.970744 0.476234
vt 0.962946 0.944681
vt 0.984081 0.952159
vt 0.962029 0.432240
vt 0.982335 0.426394
vt 0.974213 0.913639
vt 0.974213 0.968423
vt 0.922110 0.985352
vt 0.889909 0.941031
vt 0.922110 0.896710
vt 0.799500 0.765739
vt 0.830037 0.765739
vt 0.842141 0.809642
vt 0.760699 0.823180
vt 0.853529 0.830351
vt 0.862277 0.817559
vt 0.761550 0.817559
vt 0.770298 0.830351
vt 0.853529 0.804412
vt 0.770298 0.804412
vt 0.761550 0.791084
vt 0.862277 0.791084
vt 0.853529 0.778004
vt 0.770298 0.778004
vt 0.761550 0.765035
vt 0.862277 0.765035
vt 0.853529 0.752065
vt 0.770298 0.752065
vt 0.761550 0.739095
vt 0.862277 0.739095
vt 0.853529 0.726126
vt 0.770298 0.726126
vt 0.786344 0.765880
vt 0.745350 0.778594
vt 0.745350 0.712021
vt 0.786344 0.724736
vt 0.818002 0.745308
vt 0.670286 0.778594
vt 0.670286 0.712021
vt 0.670286 0.645449
vt 0.745350 0.645449
vt 0.786344 0.699307
vt 0.786344 0.658163
vt 0.818002 0.678735
vt 0.745350 0.978310
vt 0.670286 0.978310
vt 0.670286 0.911738
vt 0.745350 0.911738
vt 0.786344 0.965596
vt 0.786344 0.924452
vt 0.818002 0.945024
vt 0.670286 0.845166
vt 0.745350 0.845166
vt 0.786344 0.899024
vt 0.786344 0.857880
vt 0.818002 0.878452
vt 0.786344 0.832452
vt 0.786344 0.791308
vt 0.818002 0.811880
vt 0.450812 0.234251
vt 0.406912 0.294675
vt 0.335880 0.271595
vt 0.335880 0.196908
vt 0.406912 0.173828
vt 0.335880 0.234251
vt 0.291980 0.294675
vt 0.220948 0.271595
vt 0.220948 0.196908
vt 0.291980 0.173828
vt 0.335880 0.113405
vt 0.379780 0.052982
vt 0.450812 0.076061
vt 0.450812 0.150749
vt 0.379780 0.173828
vt 0.264848 0.052982
vt 0.335880 0.076061
vt 0.335880 0.150748
vt 0.264848 0.173828
vt 0.220948 0.113405
s 0
g Unicorn_UnicornMat
usemtl UnicornMat
f 20/1/1 17/2/1 2/3/1 10/4/1
f 10/5/2 2/6/2 4/7/2 11/8/2
f 28/9/3 25/10/3 3/11/3 12/12/3
f 12/13/4 3/14/4 1/15/4 9/16/4
f 18/17/5 17/18/5 6/19/5 7/20/5
f 25/21/6 26/22/6 1/15/6 3/14/6
f 22/23/7 21/24/7 5/25/7 8/26/7
f 19/1/8 18/2/8 7/27/8 13/28/8
f 24/29/9 22/30/9 8/31/9 14/32/9
f 27/9/10 26/10/10 5/31/10 15/32/10
f 23/29/11 21/30/11 6/33/11 16/34/11
f 11/4/12 4/3/12 18/2/12 19/1/12
f 4/7/13 2/6/13 17/18/13 18/17/13
f 16/28/14 6/27/14 17/2/14 20/1/14
f 15/32/15 5/31/15 21/30/15 23/29/15
f 13/34/16 7/33/16 22/30/16 24/29/16
f 7/35/17 6/36/17 21/24/17 22/23/17
f 9/12/18 1/11/18 26/10/18 27/9/18
f 8/26/19 5/25/19 26/22/19 25/21/19
f 14/32/20 8/31/20 25/10/20 28/9/20
f 11/37/21 19/38/21 20/39/21 10/40/21
f 19/38/21 13/41/21 16/42/21 20/39/21
f 23/43/21 16/42/21 13/41/21 24/44/21
f 24/44/21 14/45/21 15/46/21 23/43/21
f 27/47/21 15/46/21 14/45/21 28/48/21
f 12/49/21 9/50/21 27/47/21 28/48/21
s 1
f 31/51/22 111/52/23 35/53/24 36/54/25
f 30/55/26 110/56/27 33/57/28 34/58/29
f 114/59/30 113/60/31 38/61/32 39/62/33
f 112/63/34 31/64/22 36/65/25 37/66/35
f 111/52/23 30/55/26 34/58/29 35/53/24
f 110/56/27 29/67/21 33/57/28
f 32/68/36 114/59/30 39/62/33
f 113/60/31 112/63/34 37/66/35 38/61/32
f 39/62/33 38/61/32 45/69/37 46/70/38
f 37/66/35 36/65/25 43/71/39 44/72/40
f 35/53/24 34/58/29 41/73/41 42/74/42
f 33/57/28 29/67/21 40/75/43
f 32/68/36 39/62/33 46/70/38
f 38/61/32 37/66/35 44/72/40 45/69/37
f 36/54/25 35/53/24 42/74/42 43/76/39
f 34/58/29 33/57/28 40/75/43 41/73/41
f 40/75/43 29/67/21 47/77/44
f 32/68/36 46/70/38 53/78/45
f 45/69/37 44/72/40 51/79/46 52/80/47
f 43/76/39 42/74/42 49/81/48 50/82/49
f 41/73/41 40/75/43 47/77/44 48/83/50
f 46/70/38 45/69/37 52/80/47 53/78/45
f 44/72/40 43/71/39 50/84/49 51/79/46
f 42/74/42 41/73/41 48/83/50 49/81/48
f 52/80/47 51/79/46 58/85/51 59/86/52
f 50/82/49 49/81/48 56/87/53 57/88/54
f 48/83/50 47/77/44 54/89/55 55/90/56
f 53/78/45 52/80/47 59/86/52 60/91/57
f 51/79/46 50/84/49 57/92/54 58/85/51
f 49/81/48 48/83/50 55/90/56 56/87/53
f 47/77/44 29/67/21 54/89/55
f 32/68/36 53/78/45 60/91/57
f 60/91/57 59/86/52 66/93/58 67/94/59
f 58/85/51 57/92/54 64/95/60 65/96/61
f 56/87/53 55/90/56 62/97/62 63/98/63
f 54/89/55 29/67/21 61/99/64
f 32/68/36 60/91/57 67/94/59
f 59/86/52 58/85/51 65/96/61 66/93/58
f 57/88/54 56/87/53 63/98/63 64/100/60
f 55/90/56 54/89/55 61/99/64 62/97/62
f 65/96/61 64/95/60 71/101/65 72/102/66
f 63/98/63 62/97/62 69/103/67 70/104/68
f 61/99/64 29/67/21 68/105/69
f 32/68/36 67/94/59 74/106/70
f 66/93/58 65/96/61 72/102/66 73/107/71
f 64/100/60 63/98/63 70/104/68 71/108/65
f 62/97/62 61/99/64 68/105/69 69/103/67
f 67/94/59 66/93/58 73/107/71 74/106/70
f 32/68/36 74/106/70 81/109/72
f 73/107/71 72/102/66 79/110/73 80/111/74
f 71/108/65 70/104/68 77/112/75 78/113/76
f 69/103/67 68/105/69 75/114/77 76/115/78
f 74/106/70 73/107/71 80/111/74 81/109/72
f 72/102/66 71/101/65 78/116/76 79/110/73
f 70/104/68 69/103/67 76/115/78 77/112/75
f 68/105/69 29/67/21 75/114/77
f 78/113/76 77/112/75 84/117/79 85/118/80
f 76/115/78 75/114/77 82/119/81 83/120/82
f 81/109/72 80/111/74 87/121/83 88/122/84
f 79/110/73 78/116/76 85/123/80 86/124/85
f 77/112/75 76/115/78 83/120/82 84/117/79
f 75/114/77 29/67/21 82/119/81
f 32/68/36 81/109/72 88/122/84
f 80/111/74 79/110/73 86/124/85 87/121/83
f 88/122/84 87/121/83 94/125/86 95/126/87
f 86/124/85 85/123/80 92/127/88 93/128/89
f 84/117/79 83/120/82 90/129/90 91/130/91
f 82/119/81 29/67/21 89/131/92
f 32/68/36 88/122/84 95/126/87
f 87/121/83 86/124/85 93/128/89 94/125/86
f 85/118/80 84/117/79 91/130/91 92/132/88
f 83/120/82 82/119/81 89/131/92 90/129/90
f 91/130/91 90/129/90 97/133/93 98/134/94
f 89/131/92 29/67/21 96/135/95
f 32/68/36 95/126/87 102/136/96
f 94/125/86 93/128/89 100/137/97 101/138/98
f 92/132/88 91/130/91 98/134/94 99/139/99
f 90/129/90 89/131/92 96/135/95 97/133/93
f 95/126/87 94/125/86 101/138/98 102/136/96
f 93/128/89 92/127/88 99/140/99 100/137/97
f 32/68/36 102/136/96 109/141/100
f 101/138/98 100/137/97 107/142/101 108/143/102
f 99/139/99 98/134/94 105/144/103 106/145/104
f 97/133/93 96/135/95 103/146/105 104/147/106
f 102/136/96 101/138/98 108/143/102 109/141/100
f 100/137/97 99/140/99 106/148/104 107/142/101
f 98/134/94 97/133/93 104/147/106 105/144/103
f 96/135/95 29/67/21 103/146/105
f 104/147/106 103/146/105 110/56/27 30/55/26
f 109/141/100 108/143/102 113/60/31 114/59/30
f 107/142/101 106/148/104 31/64/22 112/63/34
f 105/144/103 104/147/106 30/55/26 111/52/23
f 103/146/105 29/67/21 110/56/27
f 32/68/36 109/141/100 114/59/30
f 108/143/102 107/142/101 112/63/34 113/60/31
f 106/145/104 105/144/103 111/52/23 31/51/22
s 0
f 127/149/107 141/150/107 139/151/107 131/152/107
f 119/153/108 117/154/108 122/155/108 144/156/108
f 116/157/109 115/158/109 121/159/109
f 139/160/110 140/161/110 134/162/110 133/163/110
f 138/164/111 116/165/111 121/166/111 132/167/111
f 132/167/112 121/166/112 125/168/112 128/169/112
f 131/152/113 139/151/113 133/170/113 137/171/113
f 144/156/114 122/155/114 126/172/114 142/173/114
f 121/159/115 115/158/115 125/174/115
f 133/163/116 134/162/116 119/175/116 145/176/116
f 128/169/117 125/168/117 129/177/117 124/178/117
f 137/171/118 133/170/118 145/179/118 118/180/118
f 142/173/119 126/172/119 130/181/119 140/182/119
f 125/174/120 115/158/120 129/183/120
f 117/184/121 138/185/121 132/186/121 122/187/121
f 124/178/122 129/177/122 135/188/122 120/189/122
f 122/187/123 132/186/123 128/190/123 126/191/123
f 140/182/124 130/181/124 136/192/124 134/193/124
f 129/183/125 115/158/125 135/194/125
f 126/191/126 128/190/126 124/195/126 130/196/126
f 120/189/127 135/188/127 116/165/127 138/164/127
f 130/196/128 124/195/128 120/197/128 136/198/128
f 134/193/129 136/192/129 117/154/129 119/153/129
f 135/194/130 115/158/130 116/157/130
f 136/198/131 120/197/131 138/185/131 117/184/131
f 141/199/132 142/200/132 140/161/132 139/160/132
f 123/201/133 143/202/133 141/150/133 127/149/133
f 143/203/134 144/204/134 142/200/134 141/199/134
f 118/180/135 145/179/135 143/202/135 123/201/135
f 145/176/136 119/175/136 144/204/136 143/203/136
s 1
f 123/205/137 127/206/137 131/207/137 137/208/137 118/209/137
s 0
f 169/1/138 166/2/138 147/3/138 157/4/138
f 157/5/139 147/6/139 149/7/139 158/8/139
f 181/9/140 178/10/140 148/11/140 159/12/140
f 159/13/141 148/14/141 146/15/141 156/16/141
f 167/17/142 166/18/142 152/19/142 153/20/142
f 178/21/143 179/22/143 146/15/143 148/14/143
f 171/210/144 170/211/144 151/36/144 154/35/144
f 175/23/145 174/24/145 150/25/145 155/26/145
f 168/1/146 167/2/146 153/27/146 160/28/146
f 173/212/147 171/213/147 154/33/147 161/34/147
f 177/29/148 175/30/148 155/31/148 162/32/148
f 180/9/149 179/10/149 150/31/149 163/32/149
f 176/29/150 174/30/150 151/33/150 164/34/150
f 172/212/151 170/213/151 152/27/151 165/28/151
f 158/4/152 149/3/152 167/2/152 168/1/152
f 149/7/153 147/6/153 166/18/153 167/17/153
f 165/28/154 152/27/154 166/2/154 169/1/154
f 164/34/155 151/33/155 170/213/155 172/212/155
f 160/28/156 153/27/156 171/213/156 173/212/156
f 153/20/157 152/19/157 170/211/157 171/210/157
f 163/32/158 150/31/158 174/30/158 176/29/158
f 161/34/159 154/33/159 175/30/159 177/29/159
f 154/35/160 151/36/160 174/24/160 175/23/160
f 156/12/161 146/11/161 179/10/161 180/9/161
f 155/26/162 150/25/162 179/22/162 178/21/162
f 162/32/163 155/31/163 178/10/163 181/9/163
f 158/214/65 168/215/65 169/216/65 157/217/65
f 168/215/65 160/218/65 165/219/65 169/216/65
f 172/220/65 165/219/65 160/218/65 173/221/65
f 173/221/65 161/222/65 164/223/65 172/220/65
f 176/224/65 164/223/65 161/222/65 177/225/65
f 177/225/65 162/226/65 163/227/65 176/224/65
f 180/228/65 163/227/65 162/226/65 181/229/65
f 159/230/65 156/231/65 180/228/65 181/229/65
f 184/232/164 183/233/164 187/234/164 188/235/164
f 185/236/165 184/232/165 188/235/165
f 183/233/166 182/237/166 186/238/166 187/234/166
f 187/234/167 186/238/167 189/239/167 190/240/167
f 188/241/168 187/234/168 190/240/168 191/242/168
f 185/243/169 188/241/169 191/242/169
f 190/244/170 189/245/170 192/246/170 193/247/170
f 191/248/171 190/244/171 193/247/171 194/249/171
f 185/250/172 191/248/172 194/249/172
f 193/247/173 192/246/173 195/251/173 196/252/173
f 194/253/174 193/247/174 196/252/174 197/254/174
f 185/255/175 194/253/175 197/254/175
f 196/252/176 195/251/176 182/237/176 183/233/176
f 197/256/177 196/252/177 183/233/177 184/257/177
f 185/258/178 197/256/178 184/257/178
s 1
f 182/259/179 195/260/179 192/261/179 189/262/179 186/263/179
s 0
f 200/232/180 204/235/180 203/234/180 199/233/180
f 201/236/181 204/235/181 200/232/181
f 199/233/182 203/234/182 202/238/182 198/237/182
f 203/234/183 206/240/183 205/239/183 202/238/183
f 204/241/184 207/242/184 206/240/184 203/234/184
f 201/243/185 207/242/185 204/241/185
f 206/244/186 209/247/186 208/246/186 205/245/186
f 207/248/187 210/249/187 209/247/187 206/244/187
f 201/250/188 210/249/188 207/248/188
f 209/247/189 212/252/189 211/251/189 208/246/189
f 210/253/190 213/254/190 212/252/190 209/247/190
f 201/255/191 213/254/191 210/253/191
f 212/252/192 199/233/192 198/237/192 211/251/192
f 213/256/193 200/257/193 199/233/193 212/252/193
f 201/258/194 200/257/194 213/256/194
s 1
f 198/264/195 202/265/195 205/266/195 208/267/195 211/268/195
s 0
f 216/232/196 215/233/196 219/234/196 220/235/196
f 217/236/197 216/232/197 220/235/197
f 215/233/198 214/237/198 218/238/198 219/234/198
f 219/234/199 218/238/199 221/239/199 222/240/199
f 220/241/200 219/234/200 222/240/200 223/242/200
f 217/243/201 220/241/201 223/242/201
f 222/244/202 221/245/202 224/246/202 225/247/202
f 223/248/203 222/244/203 225/247/203 226/249/203
f 217/250/204 223/248/204 226/249/204
f 225/247/205 224/246/205 227/251/205 228/252/205
f 226/253/206 225/247/206 228/252/206 229/254/206
f 217/255/207 226/253/207 229/254/207
f 228/252/208 227/251/208 214/237/208 215/233/208
f 229/256/209 228/252/209 215/233/209 216/257/209
f 217/258/210 229/256/210 216/257/210
s 1
f 214/269/211 227/270/211 224/271/211 221/272/211 218/273/211
s 0
f 232/232/212 236/235/212 235/234/212 231/233/212
f 233/236/213 236/235/213 232/232/213
f 231/233/214 235/234/214 234/238/214 230/237/214
f 235/234/215 238/240/215 237/239/215 234/238/215
f 236/241/216 239/242/216 238/240/216 235/234/216
f 233/243/217 239/242/217 236/241/217
f 238/244/218 241/247/218 240/246/218 237/245/218
f 239/248/219 242/249/219 241/247/219 238/244/219
f 233/250/220 242/249/220 239/248/220
f 241/247/221 244/252/221 243/251/221 240/246/221
f 242/253/222 245/254/222 244/252/222 241/247/222
f 233/255/223 245/254/223 242/253/223
f 244/252/224 231/233/224 230/237/224 243/251/224
f 245/256/225 232/257/225 231/233/225 244/252/225
f 233/258/226 232/257/226 245/256/226
s 1
f 230/274/227 234/275/227 237/276/227 240/277/227 243/278/227
