# Blender 5.0.1
# www.blender.org
mtllib model.mtl
o unicornMesh
v -0.000918 -0.000565 1.011736
v -0.000918 0.715005 0.715338
v -0.000918 1.011403 -0.000232
v -0.000918 -0.000565 -1.012199
v 0.192713 0.334815 0.934705
v 0.356866 0.619136 0.715338
v 0.466550 0.809114 0.387032
v 0.505066 0.875825 -0.000231
v 0.466550 0.809114 -0.387495
v 0.356866 0.619137 -0.715801
v 0.192713 0.334815 -0.935168
v 0.334462 0.193067 0.934705
v 0.618783 0.357220 0.715338
v 0.808760 0.466904 0.387032
v 0.875472 0.505419 -0.000231
v 0.808760 0.466904 -0.387495
v 0.618783 0.357220 -0.715801
v 0.334462 0.193067 -0.935168
v 0.386345 -0.000565 0.934705
v 0.714651 -0.000565 0.715338
v 0.934018 -0.000565 0.387032
v 1.011050 -0.000565 -0.000232
v 0.934018 -0.000565 -0.387495
v 0.714651 -0.000565 -0.715801
v 0.386345 -0.000565 -0.935168
v 0.334462 -0.194196 0.934705
v 0.618783 -0.358349 0.715338
v 0.808760 -0.468033 0.387032
v 0.875472 -0.506548 -0.000231
v 0.808760 -0.468033 -0.387495
v 0.618783 -0.358349 -0.715801
v 0.334462 -0.194196 -0.935168
v 0.192713 -0.335944 0.934705
v 0.356866 -0.620266 0.715338
v 0.466550 -0.810243 0.387032
v 0.505066 -0.876954 -0.000232
v 0.466550 -0.810243 -0.387495
v 0.356866 -0.620266 -0.715801
v 0.192713 -0.335944 -0.935168
v -0.000918 -0.387828 0.934705
v -0.000918 -0.716134 0.715338
v -0.000918 -0.935501 0.387032
v -0.000918 -1.012532 -0.000232
v -0.000918 -0.935501 -0.387495
v -0.000918 -0.716134 -0.715801
v -0.000918 -0.387828 -0.935168
v -0.194550 -0.335944 0.934705
v -0.358703 -0.620266 0.715338
v -0.468386 -0.810243 0.387032
v -0.506902 -0.876954 -0.000232
v -0.468386 -0.810243 -0.387495
v -0.358703 -0.620266 -0.715801
v -0.194550 -0.335944 -0.935168
v -0.336298 -0.194196 0.934705
v -0.620619 -0.358349 0.715338
v -0.810597 -0.468033 0.387032
v -0.877308 -0.506548 -0.000232
v -0.810597 -0.468033 -0.387495
v -0.620619 -0.358349 -0.715801
v -0.336298 -0.194196 -0.935168
v -0.388182 -0.000565 0.934705
v -0.716487 -0.000565 0.715338
v -0.935854 -0.000565 0.387032
v -1.012886 -0.000565 -0.000231
v -0.935855 -0.000565 -0.387495
v -0.716488 -0.000565 -0.715801
v -0.388182 -0.000565 -0.935168
v -0.336298 0.193067 0.934705
v -0.620619 0.357220 0.715338
v -0.810597 0.466904 0.387032
v -0.877308 0.505419 -0.000231
v -0.810597 0.466904 -0.387495
v -0.620619 0.357220 -0.715801
v -0.336298 0.193067 -0.935168
v -0.194550 0.334815 0.934705
v -0.358703 0.619136 0.715338
v -0.468386 0.809114 0.387032
v -0.506902 0.875825 -0.000231
v -0.468386 0.809114 -0.387495
v -0.358703 0.619137 -0.715801
v -0.194550 0.334815 -0.935168
v -0.000918 0.386699 0.934705
v -0.000918 0.934372 0.387032
v -0.000918 0.934372 -0.387495
v -0.000918 0.715005 -0.715801
v -0.000918 0.386699 -0.935168
v -1.209013 -0.361158 -0.103780
v -1.209013 -0.361158 0.103780
v -1.209013 0.361158 -0.103780
v -1.209013 0.361158 0.103780
v -0.738256 -0.157108 -0.045146
v -0.738256 -0.157108 0.045146
v -0.738256 0.157108 -0.045146
v -0.738256 0.157108 0.045146
v -1.127677 0.269489 -0.096799
v -1.209013 0.216695 -0.103780
v -1.127677 0.134744 -0.096799
v -1.209013 0.072232 -0.103780
v -1.127677 -0.000000 -0.096799
v -1.209013 -0.072232 -0.103780
v -1.127677 -0.134745 -0.096799
v -1.209013 -0.216695 -0.103780
v -1.127677 -0.269489 -0.096799
v -1.127677 -0.269489 0.096799
v -1.209013 -0.216695 0.103780
v -1.127677 -0.134744 0.096799
v -1.209013 -0.072232 0.103780
v -1.127677 0.000000 0.096799
v -1.209013 0.072232 0.103780
v -1.127677 0.134745 0.096799
v -1.209013 0.216695 0.103780
v -1.127677 0.269489 0.096799
v -0.738256 -0.125686 -0.045146
v -0.738256 -0.094265 -0.045146
v -0.738256 -0.062843 -0.045146
v -0.738256 -0.031422 -0.045146
v -0.738256 0.000000 -0.045146
v -0.738256 0.031422 -0.045146
v -0.738256 0.062843 -0.045146
v -0.738256 0.094265 -0.045146
v -0.738256 0.125686 -0.045146
v -0.738256 0.125686 0.045146
v -0.738256 0.094265 0.045146
v -0.738256 0.062843 0.045146
v -0.738256 0.031422 0.045146
v -0.738256 -0.000000 0.045146
v -0.738256 -0.031422 0.045146
v -0.738256 -0.062843 0.045146
v -0.738256 -0.094265 0.045146
v -0.738256 -0.125686 0.045146
v 1.209013 -0.361158 -0.103780
v 1.209013 -0.361158 0.103780
v 1.209013 0.361158 -0.103780
v 1.209013 0.361158 0.103780
v 0.738256 -0.157108 -0.045146
v 0.738256 -0.157108 0.045146
v 0.738256 0.157108 -0.045146
v 0.738256 0.157108 0.045146
v 1.127677 0.269489 -0.096799
v 1.209013 0.216695 -0.103780
v 1.127677 0.134744 -0.096799
v 1.209013 0.072232 -0.103780
v 1.127677 -0.000000 -0.096799
v 1.209013 -0.072232 -0.103780
v 1.127677 -0.134745 -0.096799
v 1.209013 -0.216695 -0.103780
v 1.127677 -0.269489 -0.096799
v 1.127677 -0.269489 0.096799
v 1.209013 -0.216695 0.103780
v 1.127677 -0.134744 0.096799
v 1.209013 -0.072232 0.103780
v 1.127677 0.000000 0.096799
v 1.209013 0.072232 0.103780
v 1.127677 0.134745 0.096799
v 1.209013 0.216695 0.103780
v 1.127677 0.269489 0.096799
v 0.738256 -0.125686 -0.045146
v 0.738256 -0.094265 -0.045146
v 0.738256 -0.062843 -0.045146
v 0.738256 -0.031422 -0.045146
v 0.738256 0.000000 -0.045146
v 0.738256 0.031422 -0.045146
v 0.738256 0.062843 -0.045146
v 0.738256 0.094265 -0.045146
v 0.738256 0.125686 -0.045146
v 0.738256 0.125686 0.045146
v 0.738256 0.094265 0.045146
v 0.738256 0.062843 0.045146
v 0.738256 0.031422 0.045146
v 0.738256 -0.000000 0.045146
v 0.738256 -0.031422 0.045146
v 0.738256 -0.062843 0.045146
v 0.738256 -0.094265 0.045146
v 0.738256 -0.125686 0.045146
v -0.103780 1.209012 -0.361158
v 0.103780 1.209012 -0.361158
v -0.103780 1.209013 0.361158
v 0.103780 1.209013 0.361158
v -0.045146 0.738256 -0.157108
v 0.045146 0.738256 -0.157108
v -0.045146 0.738256 0.157108
v 0.045146 0.738256 0.157108
v -0.096799 1.127677 0.269489
v -0.103780 1.209013 0.216695
v -0.096799 1.127677 0.134745
v -0.103780 1.209012 0.072232
v -0.096799 1.127677 0.000000
v -0.103780 1.209013 -0.072232
v -0.096799 1.127677 -0.134744
v -0.103780 1.209013 -0.216695
v -0.096799 1.127677 -0.269489
v 0.096799 1.127677 -0.269489
v 0.103780 1.209013 -0.216695
v 0.096799 1.127677 -0.134744
v 0.103780 1.209013 -0.072232
v 0.096799 1.127677 0.000000
v 0.103780 1.209013 0.072232
v 0.096799 1.127677 0.134745
v 0.103780 1.209013 0.216695
v 0.096799 1.127677 0.269489
v -0.045146 0.738256 -0.125686
v -0.045146 0.738256 -0.094265
v -0.045146 0.738256 -0.062843
v -0.045146 0.738256 -0.031422
v -0.045146 0.738256 0.000000
v -0.045146 0.738256 0.031422
v -0.045146 0.738256 0.062843
v -0.045146 0.738256 0.094265
v -0.045146 0.738256 0.125686
v 0.045146 0.738256 0.125686
v 0.045146 0.738256 0.094265
v 0.045146 0.738256 0.062843
v 0.045146 0.738256 0.031422
v 0.045146 0.738256 -0.000000
v 0.045146 0.738256 -0.031422
v 0.045146 0.738256 -0.062843
v 0.045146 0.738256 -0.094265
v 0.045146 0.738256 -0.125686
v -0.361158 0.103780 -1.407579
v -0.361158 -0.103780 -1.407579
v 0.361158 0.103780 -1.407579
v 0.361158 -0.103780 -1.407579
v -0.157108 0.045146 -0.859506
v -0.157108 -0.045146 -0.859506
v 0.157108 0.045146 -0.859506
v 0.157108 -0.045146 -0.859506
v 0.269489 0.096799 -1.312884
v 0.216695 0.103780 -1.407579
v 0.134744 0.096799 -1.312884
v 0.072232 0.103780 -1.407579
v 0.000000 0.096799 -1.312884
v -0.072232 0.103780 -1.407579
v -0.134745 0.096799 -1.312884
v -0.216695 0.103780 -1.407579
v -0.269489 0.096799 -1.312884
v -0.269489 -0.096799 -1.312884
v -0.216695 -0.103780 -1.407579
v -0.134745 -0.096799 -1.312884
v -0.072232 -0.103780 -1.407579
v 0.000000 -0.096799 -1.312884
v 0.072232 -0.103780 -1.407579
v 0.134744 -0.096799 -1.312884
v 0.216695 -0.103780 -1.407579
v 0.269489 -0.096799 -1.312884
v -0.125686 0.045146 -0.859506
v -0.094265 0.045146 -0.859506
v -0.062843 0.045146 -0.859506
v -0.031422 0.045146 -0.859506
v 0.000000 0.045146 -0.859506
v 0.031422 0.045146 -0.859506
v 0.062843 0.045146 -0.859506
v 0.094265 0.045146 -0.859506
v 0.125686 0.045146 -0.859506
v 0.125686 -0.045146 -0.859506
v 0.094265 -0.045146 -0.859506
v 0.062843 -0.045146 -0.859506
v 0.031422 -0.045146 -0.859506
v -0.000000 -0.045146 -0.859506
v -0.031422 -0.045146 -0.859506
v -0.062843 -0.045146 -0.859506
v -0.094265 -0.045146 -0.859506
v -0.125686 -0.045146 -0.859506
v -0.485132 0.823962 -0.088300
v -0.419236 0.862761 0.044150
v -0.551029 0.785164 0.044150
v -0.588757 0.999961 -0.000000
v -0.824839 0.483640 -0.088300
v -0.786160 0.549606 0.044150
v -0.863518 0.417673 0.044150
v -1.001025 0.586945 -0.000000
v 0.475074 0.829802 -0.088300
v 0.541438 0.791808 0.044150
v 0.408711 0.867796 0.044150
v 0.576550 1.007048 -0.000000
v 0.822789 0.487119 -0.088300
v 0.861747 0.421317 0.044150
v 0.783832 0.552922 0.044150
v 0.998537 0.591168 -0.000000
v 0.796062 -0.447584 0.296679
v 0.718289 -0.474304 0.425629
v 0.797342 -0.344372 0.409534
v 0.935157 -0.512245 0.457868
v 0.482409 -0.825560 -0.088300
v 0.416385 -0.864141 0.044150
v 0.548433 -0.786979 0.044150
v 0.585451 -1.001899 -0.000000
v -0.001863 -0.956171 -0.088300
v -0.078333 -0.956022 0.044150
v 0.074607 -0.956321 0.044150
v -0.002261 -1.160410 -0.000000
v -0.477465 -0.828429 -0.088300
v -0.543719 -0.790243 0.044150
v -0.411212 -0.866614 0.044150
v -0.579452 -1.005381 -0.000000
v -0.799424 -0.449940 0.283792
v -0.801822 -0.347867 0.397661
v -0.723028 -0.478014 0.413276
v -0.940247 -0.516112 0.442855
v -0.658584 -0.309099 0.626729
v -0.631915 -0.177960 0.700769
v -0.546166 -0.301152 0.730120
v -0.742992 -0.318858 0.832375
v -0.752299 -0.402815 -0.440285
v -0.828050 -0.374095 -0.310564
v -0.749333 -0.504320 -0.325923
v -0.942434 -0.518300 -0.435590
v -0.587480 -0.237997 -0.721310
v -0.696799 -0.242844 -0.614461
v -0.611898 -0.366885 -0.642683
v -0.767067 -0.342933 -0.800351
v 0.656557 -0.308079 0.629352
v 0.543836 -0.299851 0.732391
v 0.629736 -0.176767 0.703029
v 0.740348 -0.317436 0.835269
v 0.756921 -0.408443 -0.426977
v 0.752581 -0.508596 -0.311472
v 0.831221 -0.378252 -0.296752
v 0.946901 -0.523989 -0.418773
v 0.598704 -0.250227 -0.707816
v 0.621782 -0.377797 -0.626675
v 0.706308 -0.253338 -0.599177
v 0.779452 -0.356540 -0.782233
v -0.722950 0.456339 -0.437221
v -0.735159 0.535941 -0.307201
v -0.809482 0.403194 -0.322859
v -0.917316 0.564515 -0.431751
v -0.464634 0.387123 -0.745865
v -0.527818 0.480384 -0.642420
v -0.592120 0.344952 -0.672656
v -0.641013 0.490480 -0.833719
v -0.780225 0.471685 0.301373
v -0.690329 0.523928 0.413533
v -0.764169 0.391052 0.430335
v -0.904020 0.560952 0.463288
v -0.611163 0.426385 0.605590
v -0.486039 0.469189 0.682417
v -0.551278 0.334008 0.711755
v -0.666865 0.497407 0.808970
v -0.404192 0.743022 -0.454545
v -0.377265 0.820790 -0.325635
v -0.506751 0.740886 -0.341109
v -0.521123 0.932327 -0.453599
v -0.446140 0.784970 0.326871
v -0.340519 0.784043 0.437478
v -0.469563 0.703698 0.454295
v -0.508184 0.919388 0.492982
v 0.832925 -0.469577 -0.088300
v 0.795371 -0.536191 0.044150
v 0.870480 -0.402964 0.044150
v 1.010838 -0.569879 -0.000000
v -0.832285 -0.470711 -0.088300
v -0.869930 -0.404149 0.044150
v -0.794640 -0.537273 0.044150
v -1.010061 -0.571255 -0.000000
v 0.784539 0.476870 0.281350
v 0.771522 0.397141 0.411213
v 0.696821 0.529608 0.394994
v 0.911366 0.567811 0.439953
v 0.716068 0.458524 -0.446169
v 0.804121 0.405876 -0.332742
v 0.729468 0.538355 -0.316408
v 0.910062 0.567461 -0.443093
v 0.497831 0.400047 -0.717070
v 0.621881 0.357045 -0.638629
v 0.555791 0.491819 -0.609324
v 0.677797 0.505226 -0.794917
v 0.616504 0.431845 0.596235
v 0.558062 0.339945 0.703611
v 0.492104 0.474754 0.674172
v 0.674224 0.504269 0.798556
v 0.443306 0.798034 0.297802
v 0.470020 0.720390 0.426831
v 0.339787 0.798872 0.410380
v 0.506926 0.937423 0.459150
v 0.394145 0.748873 -0.453766
v 0.497159 0.747529 -0.340731
v 0.366853 0.825939 -0.324512
v 0.508966 0.939464 -0.452677
v 0.407418 -0.750569 -0.438999
v 0.378669 -0.826425 -0.309346
v 0.508584 -0.747130 -0.324351
v 0.523737 -0.940186 -0.433941
v 0.250639 -0.593790 -0.711799
v 0.254267 -0.702023 -0.603802
v 0.378427 -0.616974 -0.631031
v 0.357338 -0.773786 -0.787477
v 0.449871 -0.793022 0.301326
v 0.346412 -0.794168 0.413957
v 0.476014 -0.714560 0.429976
v 0.514686 -0.931135 0.463295
v 0.325125 -0.668275 0.608084
v 0.195598 -0.643353 0.685494
v 0.319150 -0.557697 0.713570
v 0.339756 -0.756205 0.811958
v -0.012379 -0.916927 0.284880
v -0.102016 -0.867638 0.398574
v 0.050079 -0.864780 0.414381
v -0.026018 -1.071748 0.444111
v -0.061681 -0.732927 0.617315
v -0.161650 -0.645080 0.692680
v -0.012018 -0.633033 0.721935
v -0.095207 -0.813533 0.821983
v -0.027928 -0.858895 -0.428467
v -0.091148 -0.908195 -0.298224
v 0.061036 -0.905675 -0.313196
v -0.023479 -1.081223 -0.420669
v -0.085153 -0.645330 -0.705948
v -0.136306 -0.739665 -0.596976
v 0.013724 -0.729102 -0.624730
v -0.084036 -0.855223 -0.779800
v -0.447470 -0.798433 0.290412
v -0.474884 -0.721409 0.419665
v -0.344746 -0.800148 0.403706
v -0.512584 -0.938513 0.450562
v -0.321162 -0.672125 0.605943
v -0.315435 -0.561960 0.711875
v -0.191586 -0.646988 0.683202
v -0.335028 -0.760957 0.809479
v -0.406324 -0.757288 -0.428345
v -0.506696 -0.753220 -0.313021
v -0.376240 -0.831642 -0.298126
v -0.521549 -0.947478 -0.420509
v -0.242353 -0.593316 -0.715056
v -0.370689 -0.617214 -0.635374
v -0.246392 -0.701795 -0.607322
v -0.347670 -0.773599 -0.791976
vn -0.0000 1.0000 -0.0000
vn -0.0000 0.9283 0.3718
vn 0.4642 0.8040 0.3718
vn 0.5000 0.8660 -0.0000
vn -0.0000 0.7226 0.6913
vn -0.0000 0.4097 0.9122
vn 0.2049 0.3548 0.9122
vn 0.3613 0.6258 0.6913
vn -0.0000 0.4097 -0.9122
vn -0.0000 0.7226 -0.6913
vn 0.3613 0.6258 -0.6913
vn 0.2049 0.3548 -0.9122
vn -0.0000 0.9283 -0.3718
vn 0.4642 0.8040 -0.3718
vn -0.0000 -0.0000 1.0000
vn -0.0000 -0.0000 -1.0000
vn 0.6258 0.3613 -0.6913
vn 0.3548 0.2049 -0.9122
vn 0.8660 0.5000 -0.0000
vn 0.8040 0.4642 -0.3718
vn 0.6258 0.3613 0.6913
vn 0.8040 0.4642 0.3718
vn 0.3548 0.2049 0.9122
vn 0.4097 -0.0000 0.9122
vn 0.4097 -0.0000 -0.9122
vn 0.9283 -0.0000 -0.3718
vn 0.7226 -0.0000 -0.6913
vn 0.9283 -0.0000 0.3718
vn 1.0000 -0.0000 -0.0000
vn 0.7226 -0.0000 0.6913
vn 0.8040 -0.4642 -0.3718
vn 0.6258 -0.3613 -0.6913
vn 0.8040 -0.4642 0.3718
vn 0.8660 -0.5000 -0.0000
vn 0.3548 -0.2049 0.9122
vn 0.6258 -0.3613 0.6913
vn 0.3548 -0.2049 -0.9122
vn 0.3613 -0.6258 -0.6913
vn 0.2049 -0.3548 -0.9122
vn 0.5000 -0.8660 -0.0000
vn 0.4642 -0.8040 -0.3718
vn 0.3613 -0.6258 0.6913
vn 0.4642 -0.8040 0.3718
vn 0.2049 -0.3548 0.9122
vn -0.0000 -1.0000 -0.0000
vn -0.0000 -0.9283 -0.3718
vn -0.0000 -0.7226 0.6913
vn -0.0000 -0.9283 0.3718
vn -0.0000 -0.4097 0.9122
vn -0.0000 -0.4097 -0.9122
vn -0.0000 -0.7226 -0.6913
vn -0.2049 -0.3548 -0.9122
vn -0.4642 -0.8040 -0.3718
vn -0.3613 -0.6258 -0.6913
vn -0.4642 -0.8040 0.3718
vn -0.5000 -0.8660 -0.0000
vn -0.2049 -0.3548 0.9122
vn -0.3613 -0.6258 0.6913
vn -0.8040 -0.4642 0.3718
vn -0.8660 -0.5000 -0.0000
vn -0.3548 -0.2049 0.9122
vn -0.6258 -0.3613 0.6913
vn -0.6258 -0.3613 -0.6913
vn -0.3548 -0.2049 -0.9122
vn -0.8040 -0.4642 -0.3718
vn -0.7226 -0.0000 -0.6913
vn -0.4097 -0.0000 -0.9122
vn -1.0000 -0.0000 -0.0000
vn -0.9283 -0.0000 -0.3718
vn -0.7226 -0.0000 0.6913
vn -0.9283 -0.0000 0.3718
vn -0.4097 -0.0000 0.9122
vn -0.6258 0.3613 0.6913
vn -0.8040 0.4642 0.3718
vn -0.3548 0.2049 0.9122
vn -0.3548 0.2049 -0.9122
vn -0.8040 0.4642 -0.3718
vn -0.6258 0.3613 -0.6913
vn -0.8660 0.5000 -0.0000
vn -0.2049 0.3548 -0.9122
vn -0.4642 0.8040 -0.3718
vn -0.3613 0.6258 -0.6913
vn -0.4642 0.8040 0.3718
vn -0.5000 0.8660 -0.0000
vn -0.2049 0.3548 0.9122
vn -0.3613 0.6258 0.6913
vn -0.7480 -0.6637 -0.0000
vn 0.3977 0.9175 -0.0000
vn 0.3977 -0.9175 -0.0000
vn 0.1421 -0.0378 -0.9891
vn 0.1421 -0.0378 0.9891
vn 0.1421 0.0378 0.9891
vn 0.1176 -0.0313 0.9926
vn 0.1351 0.0359 0.9902
vn 0.1229 -0.0327 0.9919
vn 0.1287 0.0342 0.9911
vn 0.1287 -0.0342 0.9911
vn 0.1229 0.0327 0.9919
vn 0.1351 -0.0359 0.9902
vn 0.1176 0.0313 0.9926
vn 0.1421 0.0378 -0.9891
vn 0.1176 -0.0313 -0.9926
vn 0.1351 0.0359 -0.9902
vn 0.1229 -0.0327 -0.9919
vn 0.1287 0.0342 -0.9911
vn 0.1287 -0.0342 -0.9911
vn 0.1229 0.0327 -0.9919
vn 0.1351 -0.0359 -0.9902
vn 0.1176 0.0313 -0.9926
vn -0.7480 0.6637 -0.0000
vn -0.5445 -0.8388 -0.0000
vn -0.7098 0.7044 -0.0000
vn -0.6094 -0.7929 -0.0000
vn -0.6640 0.7477 -0.0000
vn -0.6640 -0.7477 -0.0000
vn -0.6094 0.7929 -0.0000
vn -0.7098 -0.7044 -0.0000
vn -0.5445 0.8388 -0.0000
vn 0.7480 -0.6637 -0.0000
vn -0.3977 0.9175 -0.0000
vn -0.3977 -0.9175 -0.0000
vn -0.1421 -0.0378 -0.9891
vn -0.1421 -0.0378 0.9891
vn -0.1421 0.0378 0.9891
vn -0.1176 -0.0313 0.9926
vn -0.1351 0.0359 0.9902
vn -0.1229 -0.0327 0.9919
vn -0.1287 0.0342 0.9911
vn -0.1287 -0.0342 0.9911
vn -0.1229 0.0327 0.9919
vn -0.1351 -0.0359 0.9902
vn -0.1176 0.0313 0.9926
vn -0.1421 0.0378 -0.9891
vn -0.1176 -0.0313 -0.9926
vn -0.1351 0.0359 -0.9902
vn -0.1229 -0.0327 -0.9919
vn -0.1287 0.0342 -0.9911
vn -0.1229 0.0327 -0.9919
vn -0.1351 -0.0359 -0.9902
vn -0.1176 0.0313 -0.9926
vn 0.7480 0.6637 -0.0000
vn 0.5445 -0.8388 -0.0000
vn 0.7098 0.7044 -0.0000
vn 0.6094 -0.7929 -0.0000
vn 0.6640 0.7477 -0.0000
vn 0.6640 -0.7477 -0.0000
vn 0.6094 0.7929 -0.0000
vn 0.7098 -0.7044 -0.0000
vn 0.5445 0.8388 -0.0000
vn -0.0000 0.7480 -0.6637
vn -0.0000 -0.3977 0.9175
vn -0.0000 -0.3977 -0.9175
vn -0.9891 -0.1421 -0.0378
vn 0.9891 -0.1421 -0.0378
vn 0.9891 -0.1421 0.0378
vn 0.9926 -0.1176 -0.0313
vn 0.9902 -0.1351 0.0359
vn 0.9919 -0.1229 -0.0327
vn 0.9911 -0.1287 0.0342
vn 0.9911 -0.1287 -0.0342
vn 0.9919 -0.1229 0.0327
vn 0.9902 -0.1351 -0.0359
vn 0.9926 -0.1176 0.0313
vn -0.9891 -0.1421 0.0378
vn -0.9926 -0.1176 -0.0313
vn -0.9902 -0.1351 0.0359
vn -0.9919 -0.1229 -0.0327
vn -0.9911 -0.1287 0.0342
vn -0.9919 -0.1229 0.0327
vn -0.9902 -0.1351 -0.0359
vn -0.9926 -0.1176 0.0313
vn -0.0000 0.7480 0.6637
vn -0.0000 0.5445 -0.8388
vn -0.0000 0.7098 0.7044
vn -0.0000 0.6094 -0.7929
vn -0.0000 0.6640 0.7477
vn -0.0000 0.6640 -0.7477
vn -0.0000 0.6094 0.7929
vn -0.0000 0.7098 -0.7044
vn -0.0000 0.5444 0.8388
vn -0.7185 -0.0000 -0.6955
vn 0.9372 -0.0000 0.3489
vn -0.9372 -0.0000 0.3489
vn -0.0379 0.9918 0.1224
vn -0.0379 -0.9918 0.1224
vn 0.0379 -0.9918 0.1224
vn -0.0313 -0.9944 0.1012
vn 0.0360 -0.9926 0.1163
vn -0.0328 -0.9939 0.1058
vn 0.0343 -0.9933 0.1108
vn -0.0343 -0.9933 0.1108
vn 0.0328 -0.9939 0.1058
vn -0.0360 -0.9926 0.1163
vn 0.0313 -0.9944 0.1012
vn 0.0379 0.9918 0.1224
vn -0.0313 0.9944 0.1012
vn 0.0360 0.9926 0.1163
vn -0.0328 0.9939 0.1058
vn 0.0343 0.9933 0.1108
vn 0.0328 0.9939 0.1058
vn -0.0360 0.9926 0.1163
vn 0.0313 0.9944 0.1012
vn 0.7185 -0.0000 -0.6955
vn -0.8734 -0.0000 -0.4870
vn 0.7562 -0.0000 -0.6544
vn -0.8346 -0.0000 -0.5509
vn 0.7951 -0.0000 -0.6065
vn -0.7951 -0.0000 -0.6065
vn 0.8346 -0.0000 -0.5509
vn -0.7562 -0.0000 -0.6544
vn 0.8734 -0.0000 -0.4870
vn 0.6222 0.6115 -0.4887
vn 0.5074 -0.8617 -0.0000
vn -0.1072 0.1821 0.9774
vn -0.8366 -0.2474 -0.4887
vn 0.2459 0.8371 -0.4887
vn 0.8626 -0.5058 -0.0000
vn -0.1823 0.1069 0.9774
vn -0.6104 -0.6233 -0.4887
vn 0.8396 -0.2372 -0.4887
vn -0.4968 -0.8678 -0.0000
vn 0.1050 0.1834 0.9774
vn -0.6296 0.6039 -0.4887
vn 0.6130 -0.6208 -0.4887
vn -0.8605 -0.5094 -0.0000
vn 0.1818 0.1076 0.9774
vn -0.2494 0.8360 -0.4887
vn -0.1261 -0.9535 -0.2737
vn -0.8059 0.4414 -0.3946
vn -0.1120 0.1890 0.9756
vn 0.7489 0.4847 -0.4518
vn -0.6242 -0.6095 -0.4887
vn -0.5045 0.8634 -0.0000
vn 0.1066 -0.1824 0.9774
vn 0.8374 0.2446 -0.4887
vn -0.8469 -0.2096 -0.4887
vn 0.0020 1.0000 -0.0000
vn -0.0004 -0.2113 0.9774
vn 0.8461 -0.2129 -0.4887
vn -0.8389 0.2396 -0.4887
vn 0.4994 0.8664 -0.0000
vn -0.1055 -0.1831 0.9774
vn 0.6279 -0.6057 -0.4887
vn -0.7438 0.4898 -0.4548
vn 0.8103 0.4448 -0.3816
vn 0.1018 0.1791 0.9786
vn 0.1284 -0.9508 -0.2819
vn -0.8665 0.3672 -0.3382
vn 0.6403 0.2748 -0.7173
vn 0.3779 0.4551 0.8062
vn 0.0827 -0.9965 -0.0133
vn -0.4730 0.7607 -0.4446
vn 0.8122 0.4467 0.3754
vn -0.4402 -0.3629 0.8213
vn 0.3984 -0.6808 -0.6146
vn -0.3628 0.8708 -0.3317
vn 0.6610 0.2955 0.6897
vn -0.6331 -0.5559 0.5386
vn 0.5770 -0.5022 -0.6441
vn -0.0832 -0.9965 -0.0114
vn -0.6380 0.2736 -0.7198
vn -0.3801 0.4571 0.8041
vn 0.8677 0.3660 -0.3364
vn -0.3919 -0.6878 -0.6111
vn -0.8160 0.4516 0.3609
vn 0.4306 -0.3535 0.8304
vn 0.4786 0.7551 -0.4481
vn -0.5670 -0.5127 -0.6447
vn -0.6717 0.3073 0.6741
vn 0.6241 -0.5471 0.5578
vn 0.3687 0.8650 -0.3404
vn 0.4265 0.7887 -0.4428
vn 0.7905 -0.4865 0.3721
vn -0.5314 0.2004 0.8231
vn -0.3962 -0.6807 -0.6161
vn 0.5909 0.7446 -0.3104
vn 0.5524 -0.4227 0.7185
vn -0.8202 0.2778 0.5000
vn -0.1208 -0.7545 -0.6451
vn 0.0486 0.8899 -0.4535
vn 0.7791 -0.4834 -0.3992
vn 0.2263 -0.0026 0.9740
vn -0.7688 -0.5809 -0.2675
vn -0.1017 0.9302 -0.3527
vn 0.5747 -0.4286 -0.6971
vn 0.5612 -0.0923 0.8225
vn -0.8238 -0.5662 -0.0279
vn 0.7613 0.4725 -0.4441
vn 0.4491 -0.8034 0.3909
vn -0.3740 0.4488 0.8116
vn -0.6720 -0.4120 -0.6153
vn 0.4700 0.7637 -0.4425
vn 0.4379 -0.7923 -0.4248
vn 0.2108 -0.1359 0.9680
vn -0.9584 -0.1256 -0.2563
vn -0.2317 -0.8411 -0.4887
vn -0.8711 0.4911 -0.0000
vn 0.1841 -0.1038 0.9774
vn 0.5998 0.6336 -0.4887
vn -0.6006 0.6328 -0.4887
vn 0.8704 0.4923 -0.0000
vn -0.1839 -0.1040 0.9774
vn 0.2328 -0.8408 -0.4887
vn 0.7652 -0.5800 -0.2794
vn -0.7854 -0.4893 -0.3791
vn -0.2057 0.0038 0.9786
vn -0.0617 0.8863 -0.4589
vn 0.3917 -0.6801 -0.6197
vn -0.7843 -0.4890 0.3818
vn 0.5400 0.2036 0.8166
vn -0.4346 0.7864 -0.4389
vn 0.1534 -0.7439 -0.6504
vn -0.5841 -0.4354 0.6850
vn 0.7950 0.2719 0.5423
vn -0.5782 0.7479 -0.3260
vn 0.8251 -0.5639 -0.0335
vn -0.5810 -0.4346 -0.6882
vn -0.5519 -0.0890 0.8292
vn 0.0950 0.9283 -0.3594
vn 0.9548 -0.1220 -0.2711
vn -0.4369 -0.8078 -0.3957
vn -0.1911 -0.1127 0.9751
vn -0.4868 0.7468 -0.4532
vn 0.6742 -0.4026 -0.6192
vn -0.4386 -0.8096 0.3901
vn 0.3721 0.4505 0.8116
vn -0.7682 0.4653 -0.4397
vn -0.7573 -0.4765 -0.4467
vn -0.4513 0.8102 0.3740
vn 0.3626 -0.4384 0.8224
vn 0.6808 0.4013 -0.6128
vn -0.8646 -0.3692 -0.3409
vn -0.3079 0.6668 0.6786
vn 0.5500 -0.6258 0.5531
vn 0.5098 0.5723 -0.6423
vn -0.4810 -0.7528 -0.4494
vn -0.4435 0.8024 -0.3992
vn -0.1916 0.1157 0.9746
vn 0.9537 0.1284 -0.2721
vn -0.3720 -0.8618 -0.3450
vn -0.2928 0.6517 -0.6997
vn -0.4381 0.3623 0.8227
vn 0.9957 0.0864 -0.0342
vn -0.7964 -0.3981 -0.4553
vn 0.0224 0.9236 -0.3827
vn -0.1050 0.1791 0.9782
vn 0.8872 -0.3665 -0.2803
vn -0.7527 -0.5612 -0.3443
vn 0.0820 0.7011 -0.7084
vn -0.2030 0.5446 0.8138
vn 0.9036 -0.4278 -0.0205
vn -0.8941 -0.0336 -0.4467
vn 0.0202 0.9318 0.3625
vn 0.0907 -0.5514 0.8293
vn 0.7905 -0.0057 -0.6124
vn -0.9337 0.1144 -0.3393
vn 0.0724 0.7370 0.6720
vn 0.1608 -0.8129 0.5598
vn 0.7270 0.2313 -0.6465
vn -0.9525 0.1260 -0.2771
vn 0.4417 0.8088 -0.3883
vn 0.1845 0.1070 0.9770
vn 0.4880 -0.7456 -0.4538
vn -0.9961 0.0824 -0.0319
vn 0.2887 0.6558 -0.6976
vn 0.4382 0.3607 0.8233
vn 0.3748 -0.8588 -0.3493
vn -0.6873 0.3912 -0.6120
vn 0.4495 0.8165 0.3624
vn -0.3543 -0.4319 0.8294
vn 0.7567 -0.4769 -0.4471
vn -0.5070 0.5715 -0.6452
vn 0.2996 0.6667 0.6825
vn -0.5517 -0.6293 0.5473
vn 0.8689 -0.3648 -0.3347
vn -0.0343 0.9933 0.1108
vn -0.1287 -0.0342 -0.9911
vn -0.9911 -0.1287 -0.0342
vt 0.388703 0.902305
vt 0.388703 0.877508
vt 0.539186 0.837186
vt 0.551585 0.858661
vt 0.388703 0.806891
vt 0.388703 0.701206
vt 0.451035 0.684504
vt 0.503878 0.776030
vt 0.782895 0.151044
vt 0.782896 0.213076
vt 0.850498 0.194963
vt 0.819481 0.141241
vt 0.782895 0.254525
vt 0.782895 0.269080
vt 0.878499 0.243463
vt 0.871222 0.230858
vt 0.388703 0.576541
vt 0.782895 0.077872
vt 0.899986 0.145474
vt 0.846264 0.114458
vt 0.948486 0.173476
vt 0.935881 0.166199
vt 0.588192 0.691716
vt 0.649348 0.727025
vt 0.496666 0.638873
vt 0.670823 0.739423
vt 0.513368 0.576541
vt 0.856067 0.077872
vt 0.959548 0.077872
vt 0.918100 0.077872
vt 0.689670 0.576541
vt 0.714467 0.576541
vt 0.619053 0.576541
vt 0.974103 0.077872
vt 0.193706 0.517829
vt 0.104046 0.464235
vt 0.186512 0.374889
vt 0.245647 0.443205
vt 0.742082 0.351319
vt 0.675529 0.426220
vt 0.586414 0.350013
vt 0.638382 0.268155
vt 0.594879 0.490646
vt 0.499459 0.535272
vt 0.472597 0.491652
vt 0.533780 0.423658
vt 0.291707 0.548856
vt 0.312959 0.504146
vt 0.028622 0.394688
vt 0.125823 0.299412
vt 0.396470 0.555629
vt 0.394744 0.559285
vt 0.312155 0.397641
vt 0.348615 0.474893
vt 0.243062 0.229080
vt 0.279959 0.318429
vt 0.461339 0.385731
vt 0.486748 0.305100
vt 0.433948 0.466584
vt 0.512998 0.208420
vt 0.379385 0.198094
vt 0.383659 0.297372
vt 0.384349 0.376434
vt 0.380789 0.292428
vt 0.390198 0.460225
vt 0.391249 0.463863
vt 0.388411 0.380458
vt 0.372610 0.195649
vt 0.434643 0.471575
vt 0.490375 0.309334
vt 0.464484 0.391795
vt 0.276736 0.317091
vt 0.238756 0.229118
vt 0.347773 0.472327
vt 0.309348 0.396272
vt 0.516748 0.218174
vt 0.183300 0.375057
vt 0.123316 0.299664
vt 0.312828 0.502352
vt 0.243418 0.442998
vt 0.535398 0.430192
vt 0.472743 0.497725
vt 0.641155 0.274728
vt 0.588641 0.358128
vt 0.595769 0.498613
vt 0.498769 0.542108
vt 0.745493 0.359674
vt 0.677573 0.434988
vt 0.193471 0.516396
vt 0.104273 0.465658
vt 0.292003 0.548648
vt 0.025208 0.397369
vt 0.087737 0.576541
vt 0.158354 0.576541
vt 0.189215 0.691716
vt 0.128059 0.727025
vt 0.264039 0.576541
vt 0.280741 0.638873
vt 0.709724 0.077872
vt 0.719527 0.114458
vt 0.647691 0.077872
vt 0.606243 0.077872
vt 0.629910 0.166199
vt 0.665805 0.145474
vt 0.062940 0.576541
vt 0.106584 0.739423
vt 0.591688 0.077872
vt 0.617305 0.173476
vt 0.746310 0.141241
vt 0.694569 0.230858
vt 0.715293 0.194963
vt 0.238220 0.837186
vt 0.225821 0.858661
vt 0.326371 0.684504
vt 0.273528 0.776030
vt 0.687292 0.243463
vt 0.929672 0.905149
vt 0.954140 0.905149
vt 0.954140 0.907595
vt 0.929672 0.907595
vt 0.954140 0.932063
vt 0.929672 0.932063
vt 0.929672 0.954084
vt 0.954140 0.954084
vt 0.954140 0.956531
vt 0.929672 0.956531
vt 0.954140 0.980998
vt 0.929672 0.980998
vt 0.905205 0.954084
vt 0.905205 0.956531
vt 0.978608 0.954084
vt 0.978608 0.956531
vt 0.978608 0.932063
vt 0.978608 0.934510
vt 0.954140 0.934510
vt 0.978608 0.936957
vt 0.954140 0.936957
vt 0.978608 0.939403
vt 0.954140 0.939403
vt 0.978608 0.941850
vt 0.954140 0.941850
vt 0.978608 0.944297
vt 0.954140 0.944297
vt 0.978608 0.946744
vt 0.954140 0.946744
vt 0.978608 0.949190
vt 0.954140 0.949190
vt 0.978608 0.951637
vt 0.954140 0.951637
vt 0.905205 0.932063
vt 0.929672 0.934510
vt 0.905205 0.934510
vt 0.929672 0.936957
vt 0.905205 0.936957
vt 0.929672 0.939403
vt 0.905205 0.939403
vt 0.929672 0.941850
vt 0.905205 0.941850
vt 0.929672 0.944297
vt 0.905205 0.944297
vt 0.929672 0.946744
vt 0.905205 0.946744
vt 0.929672 0.949190
vt 0.905205 0.949190
vt 0.929672 0.951637
vt 0.905205 0.951637
vt 0.929672 0.883128
vt 0.954140 0.883128
vt 0.954140 0.885575
vt 0.929672 0.885575
vt 0.954140 0.888021
vt 0.929672 0.888021
vt 0.954140 0.890468
vt 0.929672 0.890468
vt 0.954140 0.892915
vt 0.929672 0.892915
vt 0.954140 0.895362
vt 0.929672 0.895362
vt 0.954140 0.897808
vt 0.929672 0.897808
vt 0.954140 0.900255
vt 0.929672 0.900255
vt 0.954140 0.902702
vt 0.929672 0.902702
vt 0.250000 0.490000
vt 0.250000 0.250000
vt 0.457846 0.130000
vt 0.750000 0.490000
vt 0.957846 0.130000
vt 0.542154 0.130000
vt 0.042154 0.130000
s 1
usemtl UnicornMat
f 3/1/1 83/2/2 7/3/3 8/4/4
f 2/5/5 82/6/6 5/7/7 6/8/8
f 86/9/9 85/10/10 10/11/11 11/12/12
f 84/13/13 3/14/1 8/15/4 9/16/14
f 83/2/2 2/5/5 6/8/8 7/3/3
f 82/6/6 1/17/15 5/7/7
f 4/18/16 86/9/9 11/12/12
f 85/10/10 84/13/13 9/16/14 10/11/11
f 11/12/12 10/11/11 17/19/17 18/20/18
f 9/16/14 8/15/4 15/21/19 16/22/20
f 7/3/3 6/8/8 13/23/21 14/24/22
f 5/7/7 1/17/15 12/25/23
f 4/18/16 11/12/12 18/20/18
f 10/11/11 9/16/14 16/22/20 17/19/17
f 8/4/4 7/3/3 14/24/22 15/26/19
f 6/8/8 5/7/7 12/25/23 13/23/21
f 12/25/23 1/17/15 19/27/24
f 4/18/16 18/20/18 25/28/25
f 17/19/17 16/22/20 23/29/26 24/30/27
f 15/26/19 14/24/22 21/31/28 22/32/29
f 13/23/21 12/25/23 19/27/24 20/33/30
f 18/20/18 17/19/17 24/30/27 25/28/25
f 16/22/20 15/21/19 22/34/29 23/29/26
f 14/24/22 13/23/21 20/33/30 21/31/28
f 24/35/27 23/36/26 30/37/31 31/38/32
f 22/39/29 21/40/28 28/41/33 29/42/34
f 20/43/30 19/44/24 26/45/35 27/46/36
f 25/47/25 24/35/27 31/38/32 32/48/37
f 23/36/26 22/49/29 29/50/34 30/37/31
f 21/40/28 20/43/30 27/46/36 28/41/33
f 19/44/24 1/51/15 26/45/35
f 4/52/16 25/47/25 32/48/37
f 32/48/37 31/38/32 38/53/38 39/54/39
f 30/37/31 29/50/34 36/55/40 37/56/41
f 28/41/33 27/46/36 34/57/42 35/58/43
f 26/45/35 1/51/15 33/59/44
f 4/52/16 32/48/37 39/54/39
f 31/38/32 30/37/31 37/56/41 38/53/38
f 29/42/34 28/41/33 35/58/43 36/60/40
f 27/46/36 26/45/35 33/59/44 34/57/42
f 37/56/41 36/55/40 43/61/45 44/62/46
f 35/58/43 34/57/42 41/63/47 42/64/48
f 33/59/44 1/51/15 40/65/49
f 4/52/16 39/54/39 46/66/50
f 38/53/38 37/56/41 44/62/46 45/67/51
f 36/60/40 35/58/43 42/64/48 43/68/45
f 34/57/42 33/59/44 40/65/49 41/63/47
f 39/54/39 38/53/38 45/67/51 46/66/50
f 4/52/16 46/66/50 53/69/52
f 45/67/51 44/62/46 51/70/53 52/71/54
f 43/68/45 42/64/48 49/72/55 50/73/56
f 41/63/47 40/65/49 47/74/57 48/75/58
f 46/66/50 45/67/51 52/71/54 53/69/52
f 44/62/46 43/61/45 50/76/56 51/70/53
f 42/64/48 41/63/47 48/75/58 49/72/55
f 40/65/49 1/51/15 47/74/57
f 50/73/56 49/72/55 56/77/59 57/78/60
f 48/75/58 47/74/57 54/79/61 55/80/62
f 53/69/52 52/71/54 59/81/63 60/82/64
f 51/70/53 50/76/56 57/83/60 58/84/65
f 49/72/55 48/75/58 55/80/62 56/77/59
f 47/74/57 1/51/15 54/79/61
f 4/52/16 53/69/52 60/82/64
f 52/71/54 51/70/53 58/84/65 59/81/63
f 60/82/64 59/81/63 66/85/66 67/86/67
f 58/84/65 57/83/60 64/87/68 65/88/69
f 56/77/59 55/80/62 62/89/70 63/90/71
f 54/79/61 1/51/15 61/91/72
f 4/52/16 60/82/64 67/86/67
f 59/81/63 58/84/65 65/88/69 66/85/66
f 57/78/60 56/77/59 63/90/71 64/92/68
f 55/80/62 54/79/61 61/91/72 62/89/70
f 63/93/71 62/94/70 69/95/73 70/96/74
f 61/97/72 1/17/15 68/98/75
f 4/18/16 67/99/67 74/100/76
f 66/101/66 65/102/69 72/103/77 73/104/78
f 64/105/68 63/93/71 70/96/74 71/106/79
f 62/94/70 61/97/72 68/98/75 69/95/73
f 67/99/67 66/101/66 73/104/78 74/100/76
f 65/102/69 64/107/68 71/108/79 72/103/77
f 4/18/16 74/100/76 81/109/80
f 73/104/78 72/103/77 79/110/81 80/111/82
f 71/106/79 70/96/74 77/112/83 78/113/84
f 69/95/73 68/98/75 75/114/85 76/115/86
f 74/100/76 73/104/78 80/111/82 81/109/80
f 72/103/77 71/108/79 78/116/84 79/110/81
f 70/96/74 69/95/73 76/115/86 77/112/83
f 68/98/75 1/17/15 75/114/85
f 76/115/86 75/114/85 82/6/6 2/5/5
f 81/109/80 80/111/82 85/10/10 86/9/9
f 79/110/81 78/116/84 3/14/1 84/13/13
f 77/112/83 76/115/86 2/5/5 83/2/2
f 75/114/85 1/17/15 82/6/6
f 4/18/16 81/109/80 86/9/9
f 80/111/82 79/110/81 84/13/13 85/10/10
f 78/113/84 77/112/83 83/2/2 3/1/1
s 0
f 95/117/87 112/118/87 90/119/87 89/120/87
f 89/120/88 90/119/88 94/121/88 93/122/88
f 113/123/29 130/124/29 92/125/29 91/126/29
f 91/126/89 92/125/89 88/127/89 87/128/89
f 103/129/90 113/123/90 91/126/90 87/130/90
f 130/124/91 104/131/91 88/132/91 92/125/91
f 94/121/92 90/133/92 112/134/92 122/135/92
f 122/135/93 112/134/93 111/136/93 123/137/93
f 123/137/94 111/136/94 110/138/94 124/139/94
f 124/139/95 110/138/95 109/140/95 125/141/95
f 125/141/96 109/140/96 108/142/96 126/143/96
f 126/143/97 108/142/97 107/144/97 127/145/97
f 127/145/98 107/144/98 106/146/98 128/147/98
f 128/147/99 106/146/99 105/148/99 129/149/99
f 129/149/100 105/148/100 104/131/100 130/124/100
f 89/150/101 93/122/101 121/151/101 95/152/101
f 95/152/102 121/151/102 120/153/102 96/154/102
f 96/154/103 120/153/103 119/155/103 97/156/103
f 97/156/104 119/155/104 118/157/104 98/158/104
f 98/158/105 118/157/105 117/159/105 99/160/105
f 99/160/106 117/159/106 116/161/106 100/162/106
f 100/162/107 116/161/107 115/163/107 101/164/107
f 101/164/108 115/163/108 114/165/108 102/166/108
f 102/166/109 114/165/109 113/123/109 103/129/109
f 93/122/29 94/121/29 122/135/29 121/151/29
f 121/151/29 122/135/29 123/137/29 120/153/29
f 120/153/29 123/137/29 124/139/29 119/155/29
f 119/155/29 124/139/29 125/141/29 118/157/29
f 118/157/29 125/141/29 126/143/29 117/159/29
f 117/159/29 126/143/29 127/145/29 116/161/29
f 116/161/29 127/145/29 128/147/29 115/163/29
f 115/163/29 128/147/29 129/149/29 114/165/29
f 114/165/29 129/149/29 130/124/29 113/123/29
f 87/167/110 88/168/110 104/169/110 103/170/110
f 103/170/111 104/169/111 105/171/111 102/172/111
f 102/172/112 105/171/112 106/173/112 101/174/112
f 101/174/113 106/173/113 107/175/113 100/176/113
f 100/176/114 107/175/114 108/177/114 99/178/114
f 99/178/115 108/177/115 109/179/115 98/180/115
f 98/180/116 109/179/116 110/181/116 97/182/116
f 97/182/117 110/181/117 111/183/117 96/184/117
f 96/184/118 111/183/118 112/118/118 95/117/118
f 139/117/119 133/120/119 134/119/119 156/118/119
f 133/120/120 137/122/120 138/121/120 134/119/120
f 157/123/68 135/126/68 136/125/68 174/124/68
f 135/126/121 131/128/121 132/127/121 136/125/121
f 147/129/122 131/130/122 135/126/122 157/123/122
f 174/124/123 136/125/123 132/132/123 148/131/123
f 138/121/124 166/135/124 156/134/124 134/133/124
f 166/135/125 167/137/125 155/136/125 156/134/125
f 167/137/126 168/139/126 154/138/126 155/136/126
f 168/139/127 169/141/127 153/140/127 154/138/127
f 169/141/128 170/143/128 152/142/128 153/140/128
f 170/143/129 171/145/129 151/144/129 152/142/129
f 171/145/130 172/147/130 150/146/130 151/144/130
f 172/147/131 173/149/131 149/148/131 150/146/131
f 173/149/132 174/124/132 148/131/132 149/148/132
f 133/150/133 139/152/133 165/151/133 137/122/133
f 139/152/134 140/154/134 164/153/134 165/151/134
f 140/154/135 141/156/135 163/155/135 164/153/135
f 141/156/136 142/158/136 162/157/136 163/155/136
f 142/158/137 143/160/137 161/159/137 162/157/137
f 144/162/138 145/164/138 159/163/138 160/161/138
f 145/164/139 146/166/139 158/165/139 159/163/139
f 146/166/140 147/129/140 157/123/140 158/165/140
f 137/122/68 165/151/68 166/135/68 138/121/68
f 165/151/68 164/153/68 167/137/68 166/135/68
f 164/153/68 163/155/68 168/139/68 167/137/68
f 163/155/68 162/157/68 169/141/68 168/139/68
f 162/157/68 161/159/68 170/143/68 169/141/68
f 161/159/68 160/161/68 171/145/68 170/143/68
f 160/161/68 159/163/68 172/147/68 171/145/68
f 159/163/68 158/165/68 173/149/68 172/147/68
f 158/165/68 157/123/68 174/124/68 173/149/68
f 131/167/141 147/170/141 148/169/141 132/168/141
f 147/170/142 146/172/142 149/171/142 148/169/142
f 146/172/143 145/174/143 150/173/143 149/171/143
f 145/174/144 144/176/144 151/175/144 150/173/144
f 144/176/145 143/178/145 152/177/145 151/175/145
f 143/178/146 142/180/146 153/179/146 152/177/146
f 142/180/147 141/182/147 154/181/147 153/179/147
f 141/182/148 140/184/148 155/183/148 154/181/148
f 140/184/149 139/117/149 156/118/149 155/183/149
f 183/117/150 177/120/150 178/119/150 200/118/150
f 177/120/151 181/122/151 182/121/151 178/119/151
f 201/123/45 179/126/45 180/125/45 218/124/45
f 179/126/152 175/128/152 176/127/152 180/125/152
f 191/129/153 175/130/153 179/126/153 201/123/153
f 218/124/154 180/125/154 176/132/154 192/131/154
f 182/121/155 210/135/155 200/134/155 178/133/155
f 210/135/156 211/137/156 199/136/156 200/134/156
f 211/137/157 212/139/157 198/138/157 199/136/157
f 212/139/158 213/141/158 197/140/158 198/138/158
f 213/141/159 214/143/159 196/142/159 197/140/159
f 214/143/160 215/145/160 195/144/160 196/142/160
f 215/145/161 216/147/161 194/146/161 195/144/161
f 216/147/162 217/149/162 193/148/162 194/146/162
f 217/149/163 218/124/163 192/131/163 193/148/163
f 177/150/164 183/152/164 209/151/164 181/122/164
f 183/152/165 184/154/165 208/153/165 209/151/165
f 184/154/166 185/156/166 207/155/166 208/153/166
f 185/156/167 186/158/167 206/157/167 207/155/167
f 186/158/168 187/160/168 205/159/168 206/157/168
f 188/162/169 189/164/169 203/163/169 204/161/169
f 189/164/170 190/166/170 202/165/170 203/163/170
f 190/166/171 191/129/171 201/123/171 202/165/171
f 181/122/45 209/151/45 210/135/45 182/121/45
f 209/151/45 208/153/45 211/137/45 210/135/45
f 208/153/45 207/155/45 212/139/45 211/137/45
f 207/155/45 206/157/45 213/141/45 212/139/45
f 206/157/45 205/159/45 214/143/45 213/141/45
f 205/159/45 204/161/45 215/145/45 214/143/45
f 204/161/45 203/163/45 216/147/45 215/145/45
f 203/163/45 202/165/45 217/149/45 216/147/45
f 202/165/45 201/123/45 218/124/45 217/149/45
f 175/167/172 191/170/172 192/169/172 176/168/172
f 191/170/173 190/172/173 193/171/173 192/169/173
f 190/172/174 189/174/174 194/173/174 193/171/174
f 189/174/175 188/176/175 195/175/175 194/173/175
f 188/176/176 187/178/176 196/177/176 195/175/176
f 187/178/177 186/180/177 197/179/177 196/177/177
f 186/180/178 185/182/178 198/181/178 197/179/178
f 185/182/179 184/184/179 199/183/179 198/181/179
f 184/184/180 183/117/180 200/118/180 199/183/180
f 227/117/181 221/120/181 222/119/181 244/118/181
f 221/120/182 225/122/182 226/121/182 222/119/182
f 245/123/15 223/126/15 224/125/15 262/124/15
f 223/126/183 219/128/183 220/127/183 224/125/183
f 235/129/184 219/130/184 223/126/184 245/123/184
f 262/124/185 224/125/185 220/132/185 236/131/185
f 226/121/186 254/135/186 244/134/186 222/133/186
f 254/135/187 255/137/187 243/136/187 244/134/187
f 255/137/188 256/139/188 242/138/188 243/136/188
f 256/139/189 257/141/189 241/140/189 242/138/189
f 257/141/190 258/143/190 240/142/190 241/140/190
f 258/143/191 259/145/191 239/144/191 240/142/191
f 259/145/192 260/147/192 238/146/192 239/144/192
f 260/147/193 261/149/193 237/148/193 238/146/193
f 261/149/194 262/124/194 236/131/194 237/148/194
f 221/150/195 227/152/195 253/151/195 225/122/195
f 227/152/196 228/154/196 252/153/196 253/151/196
f 228/154/197 229/156/197 251/155/197 252/153/197
f 229/156/198 230/158/198 250/157/198 251/155/198
f 230/158/199 231/160/199 249/159/199 250/157/199
f 232/162/200 233/164/200 247/163/200 248/161/200
f 233/164/201 234/166/201 246/165/201 247/163/201
f 234/166/202 235/129/202 245/123/202 246/165/202
f 225/122/15 253/151/15 254/135/15 226/121/15
f 253/151/15 252/153/15 255/137/15 254/135/15
f 252/153/15 251/155/15 256/139/15 255/137/15
f 251/155/15 250/157/15 257/141/15 256/139/15
f 250/157/15 249/159/15 258/143/15 257/141/15
f 249/159/15 248/161/15 259/145/15 258/143/15
f 248/161/15 247/163/15 260/147/15 259/145/15
f 247/163/15 246/165/15 261/149/15 260/147/15
f 246/165/15 245/123/15 262/124/15 261/149/15
f 219/167/203 235/170/203 236/169/203 220/168/203
f 235/170/204 234/172/204 237/171/204 236/169/204
f 234/172/205 233/174/205 238/173/205 237/171/205
f 233/174/206 232/176/206 239/175/206 238/173/206
f 232/176/207 231/178/207 240/177/207 239/175/207
f 231/178/208 230/180/208 241/179/208 240/177/208
f 230/180/209 229/182/209 242/181/209 241/179/209
f 229/182/210 228/184/210 243/183/210 242/181/210
f 228/184/211 227/117/211 244/118/211 243/183/211
f 263/185/212 266/186/212 264/187/212
f 263/188/213 264/189/213 265/190/213
f 264/187/214 266/186/214 265/191/214
f 265/191/215 266/186/215 263/185/215
f 267/185/216 270/186/216 268/187/216
f 267/188/217 268/189/217 269/190/217
f 268/187/218 270/186/218 269/191/218
f 269/191/219 270/186/219 267/185/219
f 271/185/220 274/186/220 272/187/220
f 271/188/221 272/189/221 273/190/221
f 272/187/222 274/186/222 273/191/222
f 273/191/223 274/186/223 271/185/223
f 275/185/224 278/186/224 276/187/224
f 275/188/225 276/189/225 277/190/225
f 276/187/226 278/186/226 277/191/226
f 277/191/227 278/186/227 275/185/227
f 279/185/228 282/186/228 280/187/228
f 279/188/229 280/189/229 281/190/229
f 280/187/230 282/186/230 281/191/230
f 281/191/231 282/186/231 279/185/231
f 283/185/232 286/186/232 284/187/232
f 283/188/233 284/189/233 285/190/233
f 284/187/234 286/186/234 285/191/234
f 285/191/235 286/186/235 283/185/235
f 287/185/236 290/186/236 288/187/236
f 287/188/237 288/189/237 289/190/237
f 288/187/238 290/186/238 289/191/238
f 289/191/239 290/186/239 287/185/239
f 291/185/240 294/186/240 292/187/240
f 291/188/241 292/189/241 293/190/241
f 292/187/242 294/186/242 293/191/242
f 293/191/243 294/186/243 291/185/243
f 295/185/244 298/186/244 296/187/244
f 295/188/245 296/189/245 297/190/245
f 296/187/246 298/186/246 297/191/246
f 297/191/247 298/186/247 295/185/247
f 299/185/248 302/186/248 300/187/248
f 299/188/249 300/189/249 301/190/249
f 300/187/250 302/186/250 301/191/250
f 301/191/251 302/186/251 299/185/251
f 303/185/252 306/186/252 304/187/252
f 303/188/253 304/189/253 305/190/253
f 304/187/254 306/186/254 305/191/254
f 305/191/255 306/186/255 303/185/255
f 307/185/256 310/186/256 308/187/256
f 307/188/257 308/189/257 309/190/257
f 308/187/258 310/186/258 309/191/258
f 309/191/259 310/186/259 307/185/259
f 311/185/260 314/186/260 312/187/260
f 311/188/261 312/189/261 313/190/261
f 312/187/262 314/186/262 313/191/262
f 313/191/263 314/186/263 311/185/263
f 315/185/264 318/186/264 316/187/264
f 315/188/265 316/189/265 317/190/265
f 316/187/266 318/186/266 317/191/266
f 317/191/267 318/186/267 315/185/267
f 319/185/268 322/186/268 320/187/268
f 319/188/269 320/189/269 321/190/269
f 320/187/270 322/186/270 321/191/270
f 321/191/271 322/186/271 319/185/271
f 323/185/272 326/186/272 324/187/272
f 323/188/273 324/189/273 325/190/273
f 324/187/274 326/186/274 325/191/274
f 325/191/275 326/186/275 323/185/275
f 327/185/276 330/186/276 328/187/276
f 327/188/277 328/189/277 329/190/277
f 328/187/278 330/186/278 329/191/278
f 329/191/279 330/186/279 327/185/279
f 331/185/280 334/186/280 332/187/280
f 331/188/281 332/189/281 333/190/281
f 332/187/282 334/186/282 333/191/282
f 333/191/283 334/186/283 331/185/283
f 335/185/284 338/186/284 336/187/284
f 335/188/285 336/189/285 337/190/285
f 336/187/286 338/186/286 337/191/286
f 337/191/287 338/186/287 335/185/287
f 339/185/288 342/186/288 340/187/288
f 339/188/289 340/189/289 341/190/289
f 340/187/290 342/186/290 341/191/290
f 341/191/291 342/186/291 339/185/291
f 343/185/292 346/186/292 344/187/292
f 343/188/293 344/189/293 345/190/293
f 344/187/294 346/186/294 345/191/294
f 345/191/295 346/186/295 343/185/295
f 347/185/296 350/186/296 348/187/296
f 347/188/297 348/189/297 349/190/297
f 348/187/298 350/186/298 349/191/298
f 349/191/299 350/186/299 347/185/299
f 351/185/300 354/186/300 352/187/300
f 351/188/301 352/189/301 353/190/301
f 352/187/302 354/186/302 353/191/302
f 353/191/303 354/186/303 351/185/303
f 355/185/304 358/186/304 356/187/304
f 355/188/305 356/189/305 357/190/305
f 356/187/306 358/186/306 357/191/306
f 357/191/307 358/186/307 355/185/307
f 359/185/308 362/186/308 360/187/308
f 359/188/309 360/189/309 361/190/309
f 360/187/310 362/186/310 361/191/310
f 361/191/311 362/186/311 359/185/311
f 363/185/312 366/186/312 364/187/312
f 363/188/313 364/189/313 365/190/313
f 364/187/314 366/186/314 365/191/314
f 365/191/315 366/186/315 363/185/315
f 367/185/316 370/186/316 368/187/316
f 367/188/317 368/189/317 369/190/317
f 368/187/318 370/186/318 369/191/318
f 369/191/319 370/186/319 367/185/319
f 371/185/320 374/186/320 372/187/320
f 371/188/321 372/189/321 373/190/321
f 372/187/322 374/186/322 373/191/322
f 373/191/323 374/186/323 371/185/323
f 375/185/324 378/186/324 376/187/324
f 375/188/325 376/189/325 377/190/325
f 376/187/326 378/186/326 377/191/326
f 377/191/327 378/186/327 375/185/327
f 379/185/328 382/186/328 380/187/328
f 379/188/329 380/189/329 381/190/329
f 380/187/330 382/186/330 381/191/330
f 381/191/331 382/186/331 379/185/331
f 383/185/332 386/186/332 384/187/332
f 383/188/333 384/189/333 385/190/333
f 384/187/334 386/186/334 385/191/334
f 385/191/335 386/186/335 383/185/335
f 387/185/336 390/186/336 388/187/336
f 387/188/337 388/189/337 389/190/337
f 388/187/338 390/186/338 389/191/338
f 389/191/339 390/186/339 387/185/339
f 391/185/340 394/186/340 392/187/340
f 391/188/341 392/189/341 393/190/341
f 392/187/342 394/186/342 393/191/342
f 393/191/343 394/186/343 391/185/343
f 395/185/344 398/186/344 396/187/344
f 395/188/345 396/189/345 397/190/345
f 396/187/346 398/186/346 397/191/346
f 397/191/347 398/186/347 395/185/347
f 399/185/348 402/186/348 400/187/348
f 399/188/349 400/189/349 401/190/349
f 400/187/350 402/186/350 401/191/350
f 401/191/351 402/186/351 399/185/351
f 403/185/352 406/186/352 404/187/352
f 403/188/353 404/189/353 405/190/353
f 404/187/354 406/186/354 405/191/354
f 405/191/355 406/186/355 403/185/355
f 407/185/356 410/186/356 408/187/356
f 407/188/357 408/189/357 409/190/357
f 408/187/358 410/186/358 409/191/358
f 409/191/359 410/186/359 407/185/359
f 411/185/360 414/186/360 412/187/360
f 411/188/361 412/189/361 413/190/361
f 412/187/362 414/186/362 413/191/362
f 413/191/363 414/186/363 411/185/363
f 415/185/364 418/186/364 416/187/364
f 415/188/365 416/189/365 417/190/365
f 416/187/366 418/186/366 417/191/366
f 417/191/367 418/186/367 415/185/367
f 419/185/368 422/186/368 420/187/368
f 419/188/369 420/189/369 421/190/369
f 420/187/370 422/186/370 421/191/370
f 421/191/371 422/186/371 419/185/371
f 423/185/372 426/186/372 424/187/372
f 423/188/373 424/189/373 425/190/373
f 424/187/374 426/186/374 425/191/374
f 425/191/375 426/186/375 423/185/375
f 232/162/376 248/161/376 249/159/376 231/160/376
f 143/160/377 144/162/377 160/161/377 161/159/377
f 188/162/378 204/161/378 205/159/378 187/160/378
