# Blender 5.0.1
# www.blender.org
mtllib model.mtl
o aeronMesh
v 0.000000 -0.923879 0.382683
v 0.000000 -0.707107 0.707107
v 0.000000 -0.382683 0.923880
v 0.000000 0.000000 1.000000
v 0.270598 -0.270598 0.923880
v 0.500000 -0.500000 0.707107
v 0.771521 -0.545043 0.319703
v 0.742421 -0.636694 0.078163
v 0.653281 -0.653281 -0.382683
v 0.500000 -0.500000 -0.707107
v 0.270598 -0.270598 -0.923880
v 0.000000 0.000000 -1.000000
v 0.382683 0.000000 -0.923880
v 0.707107 0.000000 -0.707107
v 0.880773 0.000000 -0.382683
v 0.923879 0.000000 0.382683
v 0.707107 0.000000 0.707107
v 0.382683 0.000000 0.923880
v 0.270598 0.270598 0.923880
v 0.500000 0.500000 0.707107
v 0.771521 0.545043 0.319703
v 0.707107 0.707107 0.000000
v 0.653281 0.653281 -0.382683
v 0.500000 0.500000 -0.707107
v 0.270598 0.270598 -0.923880
v 0.000000 0.382683 -0.923880
v 0.000000 0.707107 -0.707107
v 0.000000 0.923879 -0.382683
v 0.000000 1.000000 0.000000
v 0.000000 0.923879 0.382683
v 0.000000 0.707107 0.707107
v 0.000000 0.382683 0.923880
v -0.270598 0.270598 0.923880
v -0.500000 0.500000 0.707107
v -0.653281 0.653281 0.382683
v -0.707107 0.707107 0.000000
v -0.653281 0.653281 -0.382683
v -0.500000 0.500000 -0.707107
v -0.270598 0.270598 -0.923880
v -0.707107 0.000000 -0.707107
v -0.923880 0.000000 -0.382683
v -1.000000 0.000000 0.000000
v -0.923880 0.000000 0.382683
v -0.707107 0.000000 0.707107
v 0.000000 -1.000000 0.000000
v 0.000000 -0.923879 -0.382683
v 0.000000 -0.707107 -0.707107
v 0.000000 -0.382683 -0.923880
v -0.653281 -0.653281 0.382683
v -0.500000 -0.500000 0.707107
v -0.270598 -0.270598 0.923880
v -0.707107 -0.707107 0.000000
v -0.653281 -0.653281 -0.382683
v -0.500000 -0.500000 -0.707107
v -0.270598 -0.270598 -0.923880
v -0.382683 0.000000 0.923880
v -0.382683 0.000000 -0.923880
v 0.608810 -0.608810 0.476808
v 0.860988 0.000000 0.476808
v 0.608810 0.608810 0.476808
v -0.608810 0.608810 0.476808
v 0.000000 0.860988 0.476808
v -0.860988 0.000000 0.476808
v 0.000000 -0.860988 0.476808
v -0.608810 -0.608810 0.476808
v 0.250000 -0.603553 0.707107
v 0.250000 -0.603553 -0.707107
v 0.326641 -0.788580 0.382683
v 0.135299 -0.326641 0.923880
v 0.326641 -0.788580 -0.382683
v 0.353553 -0.853553 0.000000
v 0.135299 -0.326641 -0.923880
v 0.304405 -0.734899 0.476808
v 0.250000 0.603553 -0.707107
v 0.250000 0.603553 0.707107
v 0.326641 0.788580 0.382683
v 0.135299 0.326641 -0.923880
v 0.135299 0.326641 0.923880
v 0.326641 0.788580 -0.382683
v 0.353553 0.853553 0.000000
v 0.304405 0.734899 0.476808
v 0.801778 -0.570202 -0.127730
v 0.890340 -0.000000 -0.103259
v 0.801778 0.570202 -0.127730
v 0.000000 0.961940 -0.191342
v -0.680194 0.680194 -0.191342
v -0.961940 0.000000 -0.191342
v -0.680194 -0.680194 -0.191342
v 0.000000 -0.961940 -0.191342
v 0.340097 -0.821067 -0.191342
v 0.340097 0.821067 -0.191342
v 0.890340 -0.000000 0.319372
v 0.653281 0.653281 0.382683
v 0.653281 -0.653281 0.382683
v 0.707107 -0.707107 0.000000
v 0.742421 0.636694 0.078163
v 0.680194 -0.680194 -0.191342
v 0.680194 0.680194 -0.191342
v 0.922312 -0.000000 -0.191342
v 0.607792 -0.000000 0.296522
v 0.607792 0.545043 0.296853
v 0.607792 -0.545043 0.296853
v 0.607792 -0.636694 0.055313
v 0.607792 0.636694 0.055313
v 0.607792 -0.570202 -0.150580
v 0.607792 0.570202 -0.150580
v 0.607792 -0.000000 -0.150248
v 0.801778 0.570202 -0.127730
v 0.742421 0.636694 0.078163
v 0.771521 -0.545043 0.319703
v 0.890340 -0.000000 0.319372
v 0.742421 -0.636694 0.078163
v 0.801778 -0.570202 -0.127730
v 0.771521 0.545043 0.319703
v 0.944433 -0.037021 -0.184222
v 0.944433 -0.102933 -0.046988
v 0.868219 -0.037021 -0.184222
v 0.868219 -0.102933 -0.046988
v 0.944433 0.037021 -0.184222
v 0.944433 0.102933 -0.046988
v 0.868219 0.037021 -0.184222
v 0.868219 0.102933 -0.046988
v 0.944433 -0.102933 -0.115605
v 0.868219 -0.102933 -0.115605
v 0.868219 0.102933 -0.115605
v 0.944433 0.102933 -0.115605
v 0.676047 0.251767 0.454884
v 0.764519 0.251767 0.454884
v 0.676047 0.314327 0.392324
v 0.764519 0.314327 0.392324
v 0.676047 0.477287 0.555285
v 0.676047 0.414727 0.492725
v 0.764519 0.477287 0.555285
v 0.764519 0.414727 0.492725
v 0.676047 0.414727 0.617844
v 0.676047 0.352168 0.555285
v 0.764519 0.414727 0.617844
v 0.764519 0.352168 0.555285
v 0.764519 0.577688 0.454884
v 0.764519 0.515128 0.392324
v 0.676047 0.515128 0.392324
v 0.676047 0.577688 0.454884
v 0.676047 -0.590032 0.454884
v 0.764519 -0.590032 0.454884
v 0.676047 -0.527472 0.392324
v 0.764519 -0.527472 0.392324
v 0.676047 -0.364512 0.555285
v 0.676047 -0.427072 0.492725
v 0.764519 -0.364512 0.555285
v 0.764519 -0.427072 0.492725
v 0.676047 -0.427072 0.617844
v 0.676047 -0.489631 0.555285
v 0.764519 -0.427072 0.617844
v 0.764519 -0.489631 0.555285
v 0.764519 -0.264111 0.454884
v 0.764519 -0.326671 0.392324
v 0.676047 -0.326671 0.392324
v 0.676047 -0.264111 0.454884
v 0.636188 -0.395971 0.285960
v 0.636188 -0.355451 0.281969
v 0.636188 -0.316488 0.270150
v 0.636188 -0.280580 0.250956
v 0.636188 -0.249105 0.225126
v 0.636188 -0.223275 0.193652
v 0.636188 -0.204082 0.157744
v 0.636188 -0.192262 0.118781
v 0.636188 -0.188272 0.078260
v 0.636188 -0.192262 0.037740
v 0.636188 -0.204082 -0.001223
v 0.636188 -0.223275 -0.037132
v 0.636188 -0.249105 -0.068606
v 0.636188 -0.280580 -0.094436
v 0.636188 -0.316488 -0.113629
v 0.636188 -0.355451 -0.125449
v 0.636188 -0.395971 -0.129439
v 0.636188 -0.436492 -0.125449
v 0.636188 -0.475455 -0.113629
v 0.636188 -0.511363 -0.094436
v 0.636188 -0.542837 -0.068606
v 0.636188 -0.568667 -0.037132
v 0.636188 -0.587861 -0.001223
v 0.636188 -0.599680 0.037740
v 0.636188 -0.603671 0.078260
v 0.636188 -0.599680 0.118781
v 0.636188 -0.587861 0.157744
v 0.636188 -0.568667 0.193652
v 0.636188 -0.542837 0.225126
v 0.636188 -0.511363 0.250956
v 0.636188 -0.475455 0.270150
v 0.636188 -0.436492 0.281969
v 0.636188 0.395971 0.296247
v 0.636188 0.436491 0.292256
v 0.636188 0.475455 0.280437
v 0.636188 0.511363 0.261243
v 0.636188 0.542837 0.235413
v 0.636188 0.568667 0.203939
v 0.636188 0.587861 0.168030
v 0.636188 0.599680 0.129067
v 0.636188 0.603671 0.088547
v 0.636188 0.599680 0.048027
v 0.636188 0.587861 0.009064
v 0.636188 0.568667 -0.026845
v 0.636188 0.542837 -0.058319
v 0.636188 0.511363 -0.084149
v 0.636188 0.475455 -0.103343
v 0.636188 0.436491 -0.115162
v 0.636188 0.395971 -0.119153
v 0.636188 0.355451 -0.115162
v 0.636188 0.316488 -0.103343
v 0.636188 0.280579 -0.084149
v 0.636188 0.249105 -0.058319
v 0.636188 0.223275 -0.026845
v 0.636188 0.204082 0.009064
v 0.636188 0.192262 0.048027
v 0.636188 0.188272 0.088547
v 0.636188 0.192262 0.129067
v 0.636188 0.204082 0.168030
v 0.636188 0.223275 0.203939
v 0.636188 0.249105 0.235413
v 0.636188 0.280579 0.261243
v 0.636188 0.316488 0.280437
v 0.636188 0.355451 0.292256
v 0.582896 0.830646 0.094992
v 0.552624 0.595240 0.094885
v 0.607488 0.818750 0.020269
v 0.574585 0.584617 0.028158
v 0.467778 0.895675 0.080447
v 0.266802 0.756698 0.058772
v 0.492371 0.883778 0.005724
v 0.288763 0.746075 -0.007955
v 0.660965 0.726475 0.107097
v 0.685558 0.714579 0.032374
v 0.365484 0.895385 -0.008066
v 0.340892 0.907281 0.066657
v 0.603336 0.818763 0.298434
v 0.566617 0.584417 0.262186
v 0.592549 0.824132 0.222508
v 0.556984 0.589212 0.194385
v 0.487832 0.887356 0.304844
v 0.279836 0.754726 0.278102
v 0.477045 0.892726 0.228918
v 0.270204 0.759521 0.210301
v 0.679191 0.712886 0.293166
v 0.668405 0.718256 0.217240
v 0.347258 0.908974 0.235063
v 0.358045 0.903604 0.310989
v 0.582896 -0.830646 0.094992
v 0.552624 -0.595240 0.094885
v 0.607488 -0.818750 0.020269
v 0.574585 -0.584617 0.028158
v 0.467778 -0.895675 0.080447
v 0.266802 -0.756698 0.058772
v 0.492371 -0.883778 0.005724
v 0.288763 -0.746075 -0.007955
v 0.660965 -0.726475 0.107097
v 0.685558 -0.714579 0.032374
v 0.365484 -0.895385 -0.008066
v 0.340892 -0.907281 0.066657
v 0.603336 -0.818763 0.298434
v 0.566617 -0.584417 0.262186
v 0.592549 -0.824132 0.222508
v 0.556984 -0.589212 0.194385
v 0.487832 -0.887356 0.304844
v 0.279836 -0.754726 0.278102
v 0.477045 -0.892726 0.228918
v 0.270204 -0.759521 0.210301
v 0.679191 -0.712886 0.293166
v 0.668405 -0.718256 0.217240
v 0.347258 -0.908974 0.235063
v 0.358045 -0.903604 0.310989
v 0.332828 0.695491 1.110649
v 0.433122 0.650670 1.039073
v 0.339664 0.820469 0.827410
v 0.425993 0.745074 0.825097
v 0.332828 0.640682 0.341394
v 0.432056 0.604936 0.446262
v 0.332828 0.027377 0.725447
v 0.432056 0.137328 0.739079
v 0.339664 0.386109 1.099407
v 0.425993 0.416950 1.030569
v 0.332828 -0.726403 1.090682
v 0.433122 -0.679590 1.020393
v 0.339664 -0.416828 1.088132
v 0.425993 -0.445723 1.018455
v 0.332828 -0.047737 0.724392
v 0.432056 -0.158026 0.734932
v 0.332828 -0.650015 0.323270
v 0.432056 -0.617228 0.429100
v 0.339664 -0.843378 0.804046
v 0.425993 -0.767948 0.803851
v 0.425703 0.820469 0.827410
v 0.432538 0.695491 1.110649
v 0.432538 0.640682 0.341394
v 0.432538 0.027377 0.725447
v 0.425703 0.386109 1.099407
v 0.425703 -0.416828 1.088132
v 0.432538 -0.726403 1.090682
v 0.432538 -0.047737 0.724392
v 0.432538 -0.650015 0.323270
v 0.425703 -0.843378 0.804046
v 0.382426 0.745077 0.824843
v 0.389555 0.650674 1.038819
v 0.388489 0.604939 0.446008
v 0.388489 0.137331 0.738825
v 0.382426 0.416953 1.030315
v 0.382426 -0.445719 1.018201
v 0.389555 -0.679586 1.020139
v 0.388489 -0.158023 0.734677
v 0.388489 -0.617224 0.428845
v 0.382426 -0.767944 0.803596
vn -0.0000 -0.9303 0.3668
vn -0.0000 -0.7296 0.6839
vn -0.0000 -0.4226 0.9063
vn -0.0000 -0.0000 1.0000
vn 0.2988 -0.2988 0.9063
vn 0.5159 -0.5159 0.6839
vn 0.5874 -0.3064 0.7490
vn 0.5614 -0.4779 0.6756
vn 0.6749 -0.6438 -0.3605
vn 0.5292 -0.5136 -0.6754
vn 0.2988 -0.2988 -0.9063
vn -0.0000 -0.0000 -1.0000
vn 0.4226 -0.0000 -0.9063
vn 0.7499 -0.0000 -0.6616
vn 0.9373 -0.0000 -0.3486
vn 0.8873 -0.0000 0.4613
vn 0.7296 -0.0000 0.6839
vn 0.4226 -0.0000 0.9063
vn 0.2988 0.2988 0.9063
vn 0.5159 0.5159 0.6839
vn 0.5874 0.3064 0.7490
vn 0.6002 0.7998 -0.0086
vn 0.6749 0.6438 -0.3605
vn 0.5292 0.5136 -0.6754
vn 0.2988 0.2988 -0.9063
vn -0.0000 0.4226 -0.9063
vn -0.0000 0.7296 -0.6839
vn -0.0000 0.9303 -0.3668
vn -0.0000 1.0000 -0.0000
vn -0.0000 0.9303 0.3668
vn -0.0000 0.7296 0.6839
vn -0.0000 0.4226 0.9063
vn -0.2988 0.2988 0.9063
vn -0.5159 0.5159 0.6839
vn -0.6578 0.6578 0.3668
vn -0.7071 0.7071 -0.0000
vn -0.6578 0.6578 -0.3668
vn -0.5159 0.5159 -0.6839
vn -0.2988 0.2988 -0.9063
vn -0.7296 -0.0000 -0.6839
vn -0.9303 -0.0000 -0.3668
vn -1.0000 -0.0000 -0.0000
vn -0.9303 -0.0000 0.3668
vn -0.7296 -0.0000 0.6839
vn -0.0000 -1.0000 -0.0000
vn -0.0000 -0.9303 -0.3668
vn -0.0000 -0.7296 -0.6839
vn -0.0000 -0.4226 -0.9063
vn -0.6578 -0.6578 0.3668
vn -0.5159 -0.5159 0.6839
vn -0.2988 -0.2988 0.9063
vn -0.7071 -0.7071 -0.0000
vn -0.6578 -0.6578 -0.3668
vn -0.5159 -0.5159 -0.6839
vn -0.2988 -0.2988 -0.9063
vn -0.4226 -0.0000 0.9063
vn -0.4226 -0.0000 -0.9063
vn 0.5879 -0.5879 0.5556
vn 0.8315 -0.0000 0.5556
vn 0.5879 0.5879 0.5556
vn -0.5879 0.5879 0.5556
vn -0.0000 0.8315 0.5556
vn -0.8315 -0.0000 0.5556
vn -0.0000 -0.8315 0.5556
vn -0.5879 -0.5879 0.5556
vn 0.2803 -0.6767 0.6808
vn 0.2803 -0.6767 -0.6808
vn 0.3571 -0.8622 0.3592
vn 0.1557 -0.3760 0.9135
vn 0.3571 -0.8622 -0.3592
vn 0.3827 -0.9239 -0.0000
vn 0.1557 -0.3760 -0.9135
vn 0.3256 -0.7862 0.5253
vn 0.2803 0.6767 -0.6808
vn 0.2803 0.6767 0.6808
vn 0.3571 0.8622 0.3592
vn 0.1557 0.3760 -0.9135
vn 0.1557 0.3760 0.9135
vn 0.3571 0.8622 -0.3592
vn 0.3827 0.9239 -0.0000
vn 0.3256 0.7862 0.5253
vn 0.7898 -0.3524 0.5020
vn 0.8308 -0.0000 0.5566
vn 0.7898 0.3524 0.5020
vn -0.0000 0.9808 -0.1951
vn -0.6935 0.6935 -0.1951
vn -0.9808 -0.0000 -0.1951
vn -0.6935 -0.6935 -0.1951
vn -0.0000 -0.9808 -0.1951
vn 0.3764 -0.9087 -0.1807
vn 0.3764 0.9087 -0.1807
vn 0.5683 -0.0000 0.8228
vn 0.6168 0.6921 0.3749
vn 0.6168 -0.6921 0.3749
vn 0.6002 -0.7998 -0.0086
vn 0.5614 0.4779 0.6756
vn 0.6787 -0.7079 -0.1958
vn 0.6787 0.7079 -0.1958
vn 0.9575 -0.0000 -0.2885
vn 0.7422 -0.0000 -0.6702
vn 0.6325 -0.4535 -0.6279
vn 0.6325 0.4535 -0.6279
vn 0.6400 0.7683 0.0044
vn 0.6400 -0.7683 0.0044
vn 0.5497 0.4739 0.6879
vn 0.5497 -0.4739 0.6879
vn 0.6536 -0.0000 0.7568
vn -0.0569 -0.2439 0.9681
vn 0.0068 -0.7424 0.6699
vn 0.1660 0.7954 0.5829
vn 0.5302 -0.0000 0.8479
vn 0.0068 0.7424 0.6699
vn -0.0569 0.2439 0.9681
vn 0.1660 -0.7954 0.5829
vn 0.6286 -0.3048 -0.7155
vn 0.5774 -0.5774 0.5774
vn -0.6286 -0.3048 -0.7155
vn -0.5774 -0.5774 0.5774
vn 0.6286 0.3048 -0.7155
vn 0.5774 0.5774 0.5774
vn -0.6286 0.3048 -0.7155
vn -0.5774 0.5774 0.5774
vn 0.6319 -0.7190 -0.2894
vn -0.6319 -0.7190 -0.2894
vn -0.6319 0.7190 -0.2894
vn 0.6319 0.7190 -0.2894
vn -0.5774 -0.8165 -0.0000
vn 0.5774 -0.8165 -0.0000
vn -0.5774 -0.0000 -0.8165
vn 0.5774 -0.0000 -0.8165
vn -0.7071 0.5000 0.5000
vn -0.9045 -0.0000 -0.4264
vn 0.7071 0.5000 0.5000
vn 0.9045 -0.0000 -0.4264
vn -0.5774 -0.0000 0.8165
vn -0.7071 -0.5000 0.5000
vn 0.5774 -0.0000 0.8165
vn 0.7071 -0.5000 0.5000
vn 0.5774 0.8165 -0.0000
vn -0.5774 0.8165 -0.0000
vn 1.0000 -0.0000 -0.0000
vn 0.3927 0.5916 0.7041
vn 0.0027 -0.7518 0.6594
vn 0.5879 0.5388 -0.6034
vn 0.2562 -0.8475 -0.4650
vn 0.1390 0.7620 0.6325
vn -0.8902 -0.1847 0.4164
vn 0.3123 0.6694 -0.6740
vn -0.6505 -0.3116 -0.6927
vn 0.6640 0.0361 0.7468
vn 0.9059 -0.0788 -0.4161
vn -0.2510 0.6352 -0.7304
vn -0.5001 0.7384 0.4523
vn 0.5484 0.5395 0.6389
vn 0.1658 -0.8691 0.4660
vn 0.4618 0.5640 -0.6846
vn 0.0937 -0.7314 -0.6755
vn 0.2807 0.6869 0.6704
vn -0.7622 -0.2990 0.5741
vn 0.2051 0.7284 -0.6537
vn -0.8065 -0.1653 -0.5677
vn 0.8228 -0.1002 0.5595
vn 0.7770 0.0258 -0.6290
vn -0.4138 0.7668 -0.4907
vn -0.3439 0.6258 0.7001
vn 0.3927 -0.5916 0.7041
vn 0.0027 0.7518 0.6594
vn 0.5879 -0.5388 -0.6034
vn 0.2562 0.8475 -0.4650
vn 0.1390 -0.7620 0.6325
vn -0.8902 0.1847 0.4164
vn 0.3123 -0.6694 -0.6740
vn -0.6505 0.3116 -0.6927
vn 0.6640 -0.0361 0.7468
vn 0.9059 0.0788 -0.4161
vn -0.2510 -0.6352 -0.7304
vn -0.5001 -0.7384 0.4523
vn 0.5484 -0.5395 0.6389
vn 0.1658 0.8691 0.4660
vn 0.4618 -0.5640 -0.6846
vn 0.0937 0.7314 -0.6755
vn 0.2807 -0.6869 0.6704
vn -0.7622 0.2990 0.5741
vn 0.2051 -0.7284 -0.6537
vn -0.8065 0.1653 -0.5677
vn 0.8228 0.1002 0.5595
vn 0.7770 -0.0258 -0.6290
vn -0.4138 -0.7668 -0.4907
vn -0.3439 -0.6258 0.7001
vn -0.6032 0.4233 0.6760
vn 0.8603 -0.2701 -0.4323
vn -0.6260 0.7793 0.0283
vn 0.8033 -0.5950 -0.0238
vn -0.5701 0.2639 -0.7780
vn 0.9254 -0.1128 0.3619
vn -0.5701 -0.8152 -0.1023
vn 0.9260 0.3735 0.0557
vn -0.6260 -0.3148 0.7135
vn 0.8048 0.2380 -0.5437
vn -0.6032 -0.4421 0.6638
vn 0.8603 0.2821 -0.4245
vn -0.6260 0.2946 0.7220
vn 0.8048 -0.2227 -0.5501
vn -0.5701 0.8177 -0.0794
vn 0.9260 -0.3749 0.0451
vn -0.5701 -0.2420 -0.7851
vn 0.9254 0.1026 0.3649
vn -0.6260 -0.7798 0.0065
vn 0.8033 0.5955 -0.0071
vn 0.6229 0.7820 0.0221
vn 0.6072 0.4217 0.6734
vn 0.5706 0.2657 -0.7771
vn 0.5706 -0.8151 -0.1003
vn 0.6229 -0.3216 0.7131
vn 0.6229 0.3014 0.7219
vn 0.6072 -0.4404 0.6613
vn 0.5706 0.8176 -0.0774
vn 0.5706 -0.2437 -0.7842
vn 0.6229 -0.7823 0.0001
vn 0.6381 -0.7698 -0.0173
vn 0.5961 -0.4269 -0.6800
vn 0.5623 -0.2678 0.7824
vn 0.5641 0.8194 0.1022
vn 0.6400 0.3193 -0.6989
vn 0.6400 -0.2996 -0.7075
vn 0.5961 0.4458 -0.6677
vn 0.5641 -0.8219 0.0791
vn 0.5623 0.2457 0.7896
vn 0.6381 0.7700 0.0044
vt 0.407237 0.689936
vt 0.407237 0.735593
vt 0.361580 0.735593
vt 0.361580 0.689936
vt 0.407237 0.644280
vt 0.361580 0.644280
vt 0.315923 0.689936
vt 0.315923 0.644280
vt 0.064811 0.758422
vt 0.064811 0.781250
vt 0.041982 0.781250
vt 0.041982 0.758422
vt 0.064811 0.644280
vt 0.064811 0.689936
vt 0.041982 0.689936
vt 0.041982 0.644280
vt 0.407237 0.758422
vt 0.407237 0.781250
vt 0.361580 0.781250
vt 0.361580 0.758422
vt 0.407237 0.840153
vt 0.407237 0.872564
vt 0.361580 0.872564
vt 0.361580 0.840153
vt 0.064811 0.598623
vt 0.087639 0.644280
vt 0.064811 0.840153
vt 0.064811 0.872564
vt 0.041982 0.872564
vt 0.041982 0.840153
vt 0.178953 0.918220
vt 0.156124 0.963877
vt 0.133296 0.918220
vt 0.217944 0.101253
vt 0.217944 0.167621
vt 0.084302 0.167621
vt 0.115659 0.101253
vt 0.133296 0.840153
vt 0.133296 0.872564
vt 0.087639 0.872564
vt 0.087639 0.840153
vt 0.320230 0.101253
vt 0.351587 0.167621
vt 0.087639 0.918220
vt 0.110467 0.598623
vt 0.133296 0.644280
vt 0.315923 0.735593
vt 0.156124 0.598623
vt 0.178953 0.644280
vt 0.178953 0.840153
vt 0.178953 0.872564
vt 0.315923 0.781250
vt 0.315923 0.758422
vt 0.064811 0.735593
vt 0.041982 0.735593
vt 0.178953 0.689936
vt 0.133296 0.689936
vt 0.224609 0.918220
vt 0.201781 0.963877
vt 0.201781 0.918220
vt 0.201781 0.598623
vt 0.224609 0.644280
vt 0.201781 0.644280
vt 0.201781 0.781250
vt 0.201781 0.826907
vt 0.178953 0.826907
vt 0.178953 0.781250
vt 0.338751 0.598623
vt 0.201781 0.689936
vt 0.201781 0.735593
vt 0.178953 0.735593
vt 0.201781 0.758422
vt 0.178953 0.758422
vt 0.201781 0.872564
vt 0.315923 0.872564
vt 0.315923 0.840153
vt 0.110467 0.963877
vt 0.270266 0.644280
vt 0.270266 0.689936
vt 0.224609 0.689936
vt 0.270266 0.781250
vt 0.270266 0.826907
vt 0.224609 0.826907
vt 0.224609 0.781250
vt 0.270266 0.758422
vt 0.224609 0.758422
vt 0.270266 0.918220
vt 0.247438 0.963877
vt 0.201781 0.840153
vt 0.270266 0.735593
vt 0.270266 0.840153
vt 0.270266 0.872564
vt 0.224609 0.872564
vt 0.224609 0.840153
vt 0.224609 0.735593
vt 0.315923 0.826907
vt 0.247438 0.598623
vt 0.361580 0.918220
vt 0.315923 0.918220
vt 0.087639 0.689936
vt 0.361580 0.826907
vt 0.133353 0.768880
vt 0.161466 0.768880
vt 0.293095 0.598623
vt 0.293095 0.963877
vt 0.407237 0.826907
vt 0.407237 0.918220
vt 0.338751 0.963877
vt 0.064811 0.826907
vt 0.041982 0.826907
vt 0.064811 0.963877
vt 0.041982 0.918220
vt 0.064811 0.918220
vt 0.384408 0.598623
vt 0.384408 0.963877
vt 0.133296 0.826907
vt 0.087639 0.826907
vt 0.087639 0.781250
vt 0.087639 0.735593
vt 0.087639 0.758422
vt 0.217944 0.206764
vt 0.078796 0.206764
vt 0.357093 0.206764
vt 0.133237 0.816448
vt 0.161304 0.816448
vt 0.092970 0.781276
vt 0.105252 0.816448
vt 0.173621 0.781276
vt 0.105160 0.768880
vt 0.133296 0.758422
vt 0.954146 0.060730
vt 0.960767 0.081233
vt 0.951641 0.105285
vt 0.897366 0.105252
vt 0.843091 0.105285
vt 0.833964 0.081233
vt 0.840586 0.060730
vt 0.897366 0.060763
vt 0.105160 0.768880
vt 0.885742 0.363131
vt 0.905311 0.363131
vt 0.905311 0.402268
vt 0.885742 0.402268
vt 0.905311 0.441406
vt 0.885742 0.441406
vt 0.905311 0.480544
vt 0.885742 0.480544
vt 0.905311 0.519682
vt 0.885742 0.519682
vt 0.827035 0.441406
vt 0.866173 0.441406
vt 0.866173 0.480544
vt 0.827035 0.480544
vt 0.944449 0.441406
vt 0.944449 0.480544
vt 0.866173 0.519682
vt 0.866173 0.402268
vt 0.866173 0.363131
vt 0.893880 0.424942
vt 0.893880 0.455917
vt 0.862905 0.455917
vt 0.862905 0.424942
vt 0.893880 0.393966
vt 0.924856 0.393966
vt 0.924856 0.455917
vt 0.924856 0.424942
vt 0.893880 0.486893
vt 0.924856 0.486893
vt 0.862905 0.393966
vt 0.862905 0.486893
vt 0.860366 0.274636
vt 0.850579 0.268096
vt 0.842256 0.259772
vt 0.835716 0.249985
vt 0.831211 0.239110
vt 0.828915 0.227565
vt 0.828915 0.215794
vt 0.831212 0.204249
vt 0.835716 0.193374
vt 0.842256 0.183587
vt 0.850579 0.175264
vt 0.860366 0.168724
vt 0.871241 0.164219
vt 0.882786 0.161923
vt 0.894557 0.161923
vt 0.906102 0.164220
vt 0.916977 0.168724
vt 0.926764 0.175264
vt 0.935088 0.183587
vt 0.941628 0.193374
vt 0.946132 0.204250
vt 0.948428 0.215794
vt 0.948428 0.227565
vt 0.946132 0.239110
vt 0.941627 0.249985
vt 0.935088 0.259773
vt 0.926764 0.268096
vt 0.916977 0.274636
vt 0.906102 0.279140
vt 0.894557 0.281437
vt 0.882786 0.281437
vt 0.871241 0.279140
vt 0.816852 0.825832
vt 0.804386 0.814162
vt 0.857937 0.793496
vt 0.851882 0.811559
vt 0.884619 0.847355
vt 0.875102 0.847136
vt 0.856611 0.888362
vt 0.854093 0.877641
vt 0.780154 0.879452
vt 0.860871 0.904094
vt 0.862527 0.911942
vt 0.766625 0.886844
vt 0.793934 0.872898
vt 0.812591 0.864287
vt 0.683637 0.824843
vt 0.670732 0.814437
vt 0.724101 0.793398
vt 0.718911 0.812721
vt 0.751695 0.847304
vt 0.742044 0.847154
vt 0.723369 0.888352
vt 0.720883 0.877606
vt 0.760167 0.848335
vt 0.727759 0.779782
vt 0.732277 0.766090
vt 0.766625 0.847852
vt 0.660392 0.872801
vt 0.679144 0.864129
vt 0.782352 0.796196
vt 0.861709 0.779759
vt 0.892978 0.848424
vt 0.648762 0.796601
vt 0.727588 0.904090
vt 0.646566 0.879416
vt 0.927610 0.025939
vt 0.957104 0.069374
vt 0.927610 0.112808
vt 0.838867 0.131272
vt 0.838867 0.007475
vt 0.927538 0.026916
vt 0.957031 0.070350
vt 0.927538 0.113785
vt 0.838795 0.132249
vt 0.838795 0.008452
vt 0.766625 0.783112
vt 0.866361 0.766090
vt 0.729711 0.912332
vt 0.900140 0.848273
vt 0.633063 0.886890
vt 0.633063 0.783686
s 1
g aeronMesh_aeronMat
usemtl aeronMat
f 47/1/47 46/2/46 53/3/53 54/4/54
f 48/5/48 47/1/47 54/4/54 55/6/55
f 55/6/55 54/4/54 40/7/40 57/8/57
f 90/9/90 71/10/71 45/11/45 89/12/89
f 72/13/72 67/14/67 47/15/47 48/16/48
f 89/17/89 45/18/45 52/19/52 88/20/88
f 64/21/64 2/22/2 50/23/50 65/24/65
f 12/25/12 11/26/11 72/13/72 48/16/48
f 73/27/73 66/28/66 2/29/2 64/30/64
f 19/31/19 4/32/4 18/33/18
f 14/34/14 15/35/15 9/36/9 10/37/10
f 59/38/59 17/39/17 6/40/6 58/41/58
f 24/42/24 23/43/23 15/35/15 14/34/14
f 17/39/17 18/33/18 5/44/5 6/40/6
f 12/45/12 13/46/13 11/26/11
f 54/4/54 53/3/53 41/47/41 40/7/40
f 12/48/12 25/49/25 13/46/13
f 60/50/60 20/51/20 17/39/17 59/38/59
f 88/20/88 52/19/52 42/52/42 87/53/87
f 67/14/67 70/54/70 46/55/46 47/15/47
f 25/49/25 24/56/24 14/57/14 13/46/13
f 20/51/20 19/31/19 18/33/18 17/39/17
f 32/58/32 4/59/4 19/31/19 78/60/78
f 12/61/12 26/62/26 77/63/77 25/49/25
f 80/64/80 76/65/76 93/66/93 22/67/22
f 12/68/12 55/6/55 57/8/57
f 74/69/74 79/70/79 23/71/23 24/56/24
f 91/72/91 80/64/80 22/67/22 98/73/98
f 75/74/75 78/60/78 19/31/19 20/51/20
f 65/24/65 50/23/50 44/75/44 63/76/63
f 18/33/18 4/77/4 5/44/5
f 39/78/39 38/79/38 27/80/27 26/62/26
f 36/81/36 35/82/35 30/83/30 29/84/29
f 77/63/77 74/69/74 24/56/24 25/49/25
f 86/85/86 36/81/36 29/84/29 85/86/85
f 33/87/33 4/88/4 32/58/32
f 81/89/81 75/74/75 20/51/20 60/50/60
f 40/7/40 41/47/41 37/90/37 38/79/38
f 61/91/61 34/92/34 31/93/31 62/94/62
f 38/79/38 37/90/37 28/95/28 27/80/27
f 42/52/42 43/96/43 35/82/35 36/81/36
f 12/97/12 39/78/39 26/62/26
f 34/92/34 33/87/33 32/58/32 31/93/31
f 50/23/50 51/98/51 56/99/56 44/75/44
f 13/46/13 14/57/14 10/100/10 11/26/11
f 63/76/63 44/75/44 34/92/34 61/91/61
f 87/53/87 42/52/42 36/81/36 86/85/86
f 44/75/44 56/99/56 33/87/33 34/92/34
f 52/19/52 49/101/49 43/96/43 42/52/42
f 83/102/83 108/103/108 106/103/106 107/102/107
f 57/8/57 40/7/40 38/79/38 39/78/39
f 12/104/12 57/8/57 39/78/39
f 56/99/56 4/105/4 33/87/33
f 45/18/45 1/106/1 49/101/49 52/19/52
f 2/22/2 3/107/3 51/98/51 50/23/50
f 51/98/51 4/108/4 56/99/56
f 71/10/71 68/109/68 1/110/1 45/11/45
f 5/44/5 4/111/4 3/112/3 69/113/69
f 12/114/12 48/5/48 55/6/55
f 3/107/3 4/115/4 51/98/51
f 66/28/66 69/113/69 3/112/3 2/29/2
f 43/96/43 63/76/63 61/91/61 35/82/35
f 35/82/35 61/91/61 62/94/62 30/83/30
f 76/65/76 81/89/81 60/50/60 93/66/93
f 49/101/49 65/24/65 63/76/63 43/96/43
f 93/66/93 60/50/60 59/38/59 16/116/16
f 16/116/16 59/38/59 58/41/58 94/117/94
f 68/109/68 73/27/73 64/30/64 1/110/1
f 1/106/1 64/21/64 65/24/65 49/101/49
f 94/117/94 58/41/58 73/27/73 68/109/68
f 6/40/6 5/44/5 69/113/69 66/28/66
f 95/118/95 94/117/94 68/109/68 71/10/71
f 10/100/10 9/119/9 70/54/70 67/14/67
f 58/41/58 6/40/6 66/28/66 73/27/73
f 11/26/11 10/100/10 67/14/67 72/13/72
f 97/120/97 95/118/95 71/10/71 90/9/90
f 30/83/30 62/94/62 81/89/81 76/65/76
f 62/94/62 31/93/31 75/74/75 81/89/81
f 26/62/26 27/80/27 74/69/74 77/63/77
f 31/93/31 32/58/32 78/60/78 75/74/75
f 85/86/85 29/84/29 80/64/80 91/72/91
f 27/80/27 28/95/28 79/70/79 74/69/74
f 29/84/29 30/83/30 76/65/76 80/64/80
f 28/95/28 85/86/85 91/72/91 79/70/79
f 9/119/9 97/120/97 90/9/90 70/54/70
f 41/47/41 87/53/87 86/85/86 37/90/37
f 37/90/37 86/85/86 85/86/85 28/95/28
f 79/70/79 91/72/91 98/73/98 23/71/23
f 15/35/15 99/121/99 97/122/97 9/36/9
f 53/3/53 88/20/88 87/53/87 41/47/41
f 23/43/23 98/123/98 99/121/99 15/35/15
f 46/2/46 89/17/89 88/20/88 53/3/53
f 70/54/70 90/9/90 89/12/89 46/55/46
f 92/124/92 21/125/21 93/66/93 16/116/16
f 8/126/8 7/127/7 94/117/94 95/118/95
f 21/125/21 96/128/96 22/67/22 93/66/93
f 7/127/7 92/124/92 16/116/16 94/117/94
f 82/129/82 8/126/8 95/118/95 97/120/97
f 96/128/96 84/103/84 98/73/98 22/67/22
f 83/102/83 82/129/82 97/120/97 99/130/99
f 84/103/84 83/102/83 99/130/99 98/73/98
f 106/131/106 104/132/104 101/133/101 100/134/100 102/135/102 103/136/103 105/137/105 107/138/107
f 108/103/108 109/128/109 104/128/104 106/103/106
f 111/124/111 110/127/110 102/127/102 100/124/100
f 110/127/110 112/126/112 103/126/103 102/127/102
f 113/139/113 83/102/83 107/102/107 105/129/105
f 112/126/112 113/139/113 105/129/105 103/126/103
f 109/128/109 114/125/114 101/125/101 104/128/104
f 114/125/114 111/124/111 100/124/100 101/125/101
f 21/125/21 92/124/92 111/124/111 114/125/114
f 96/128/96 21/125/21 114/125/114 109/128/109
f 8/126/8 82/129/82 113/139/113 112/126/112
f 82/129/82 83/102/83 113/139/113
f 7/127/7 8/126/8 112/126/112 110/127/110
f 92/124/92 7/127/7 110/127/110 111/124/111
f 84/103/84 96/128/96 109/128/109 108/103/108
f 83/102/83 84/103/84 108/103/108
f 123/140/123 116/141/116 118/142/118 124/143/124
f 124/143/124 118/142/118 122/144/122 125/145/125
f 125/145/125 122/144/122 120/146/120 126/147/126
f 126/147/126 120/146/120 116/148/116 123/149/123
f 117/150/117 121/151/121 119/152/119 115/153/115
f 122/144/122 118/154/118 116/155/116 120/146/120
f 119/152/119 126/147/126 123/149/123 115/156/115
f 121/151/121 125/145/125 126/147/126 119/152/119
f 117/157/117 124/143/124 125/145/125 121/151/121
f 115/158/115 123/140/123 124/143/124 117/157/117
f 131/159/131 135/160/135 137/161/137 133/162/133
f 134/163/134 132/164/132 141/164/129 140/163/130
f 138/165/138 137/160/137 135/159/135 136/166/136
f 127/167/127 129/160/129 130/165/130 128/168/128
f 134/167/134 138/160/138 128/160/128 130/167/130
f 132/164/132 134/163/134 130/163/130 129/164/129
f 138/165/138 136/166/136 127/166/127 128/165/128
f 136/159/136 135/162/135 131/169/131 132/163/132
f 134/167/134 133/170/133 137/161/137 138/160/138
f 136/159/136 132/163/132 129/163/129 127/159/127
f 141/164/129 142/166/140 139/159/139 140/163/130
f 132/163/132 131/169/131 142/169/140 141/163/129
f 131/159/131 133/162/133 139/162/139 142/159/140
f 133/170/133 134/167/134 140/167/130 139/170/139
f 147/159/131 151/160/135 153/161/137 149/162/133
f 150/163/134 148/164/132 157/164/129 156/163/130
f 154/165/138 153/160/137 151/159/135 152/166/136
f 143/167/127 145/160/129 146/165/130 144/168/128
f 150/167/134 154/160/138 144/160/128 146/167/130
f 148/164/132 150/163/134 146/163/130 145/164/129
f 154/165/138 152/166/136 143/166/127 144/165/128
f 152/159/136 151/162/135 147/169/131 148/163/132
f 150/167/134 149/170/133 153/161/137 154/160/138
f 152/159/136 148/163/132 145/163/129 143/159/127
f 157/164/129 158/166/140 155/159/139 156/163/130
f 148/163/132 147/169/131 158/169/140 157/163/129
f 147/159/131 149/162/133 155/162/139 158/159/140
f 149/170/133 150/167/134 156/167/130 155/170/139
f 160/171/141 159/172/141 190/173/141 189/174/141 188/175/141 187/176/141 186/177/141 185/178/141 184/179/141 183/180/141 182/181/141 181/182/141 180/183/141 179/184/141 178/185/141 177/186/141 176/187/141 175/188/141 174/189/141 173/190/141 172/191/141 171/192/141 170/193/141 169/194/141 168/195/141 167/196/141 166/197/141 165/198/141 164/199/141 163/200/141 162/201/141 161/202/141
f 192/171/141 191/172/141 222/173/141 221/174/141 220/175/141 219/176/141 218/177/141 217/178/141 216/179/141 215/180/141 214/181/141 213/182/141 212/183/141 211/184/141 210/185/141 209/186/141 208/187/141 207/188/141 206/189/141 205/190/141 204/191/141 203/192/141 202/193/141 201/194/141 200/195/141 199/196/141 198/197/141 197/198/141 196/199/141 195/200/141 194/201/141 193/202/141
f 231/140/150 224/141/143 226/142/145 232/143/151
f 232/143/151 226/142/145 230/144/149 233/145/152
f 233/145/152 230/144/149 228/146/147 234/147/153
f 234/147/153 228/146/147 224/148/143 231/149/150
f 225/150/144 229/151/148 227/152/146 223/153/142
f 230/144/149 226/154/145 224/155/143 228/146/147
f 227/152/146 234/147/153 231/149/150 223/156/142
f 229/151/148 233/145/152 234/147/153 227/152/146
f 225/157/144 232/143/151 233/145/152 229/151/148
f 223/158/142 231/140/150 232/143/151 225/157/144
f 243/140/162 236/141/155 238/142/157 244/143/163
f 244/143/163 238/142/157 242/144/161 245/145/164
f 245/145/164 242/144/161 240/146/159 246/147/165
f 246/147/165 240/146/159 236/148/155 243/149/162
f 237/150/156 241/151/160 239/152/158 235/153/154
f 242/144/161 238/154/157 236/155/155 240/146/159
f 239/152/158 246/147/165 243/149/162 235/156/154
f 241/151/160 245/145/164 246/147/165 239/152/158
f 237/157/156 244/143/163 245/145/164 241/151/160
f 235/158/154 243/140/162 244/143/163 237/157/156
f 255/140/174 256/143/175 250/142/169 248/141/167
f 256/143/175 257/145/176 254/144/173 250/142/169
f 257/145/176 258/147/177 252/146/171 254/144/173
f 258/147/177 255/149/174 248/148/167 252/146/171
f 249/150/168 247/153/166 251/152/170 253/151/172
f 254/144/173 252/146/171 248/155/167 250/154/169
f 251/152/170 247/156/166 255/149/174 258/147/177
f 253/151/172 251/152/170 258/147/177 257/145/176
f 249/157/168 253/151/172 257/145/176 256/143/175
f 247/158/166 249/157/168 256/143/175 255/140/174
f 267/140/186 268/143/187 262/142/181 260/141/179
f 268/143/187 269/145/188 266/144/185 262/142/181
f 269/145/188 270/147/189 264/146/183 266/144/185
f 270/147/189 267/149/186 260/148/179 264/146/183
f 261/150/180 259/153/178 263/152/182 265/151/184
f 266/144/185 264/146/183 260/155/179 262/154/181
f 263/152/182 259/156/178 267/149/186 270/147/189
f 265/151/184 263/152/182 270/147/189 269/145/188
f 261/157/180 265/151/184 269/145/188 268/143/187
f 259/158/178 261/157/180 268/143/187 267/140/186
f 271/203/190 292/204/211 291/205/210 273/206/192
f 273/206/192 291/205/210 293/207/212 275/208/194
f 275/208/194 293/207/212 294/209/213 277/210/196
f 280/211/199 278/212/197 304/213/223 305/214/224
f 277/210/196 294/209/213 295/215/214 279/216/198
f 279/216/198 295/215/214 292/204/211 271/203/190
f 271/203/190 273/206/192 275/208/194 277/210/196 279/216/198
f 281/217/200 297/218/216 296/219/215 283/220/202
f 283/220/202 296/219/215 298/221/217 285/222/204
f 285/222/204 298/221/217 299/223/218 287/224/206
f 286/225/205 284/226/203 306/227/225 308/228/227
f 287/224/206 299/223/218 300/229/219 289/230/208
f 289/230/208 300/229/219 297/218/216 281/217/200
f 281/217/200 283/220/202 285/222/204 287/224/206 289/230/208
f 272/231/191 274/232/193 291/205/210 292/204/211
f 274/232/193 276/233/195 293/207/212 291/205/210
f 276/233/195 278/212/197 294/209/213 293/207/212
f 278/212/197 280/211/199 295/215/214 294/209/213
f 280/211/199 272/231/191 292/204/211 295/215/214
f 282/234/201 284/226/203 296/219/215 297/218/216
f 284/226/203 286/225/205 298/221/217 296/219/215
f 286/225/205 288/235/207 299/223/218 298/221/217
f 288/235/207 290/236/209 300/229/219 299/223/218
f 290/236/209 282/234/201 297/218/216 300/229/219
f 301/237/220 302/238/221 305/239/224 304/240/223 303/241/222
f 306/242/225 307/243/226 310/244/229 309/245/228 308/246/227
f 274/232/193 272/231/191 302/247/221 301/248/220
f 288/235/207 286/225/205 308/228/227 309/249/228
f 272/231/191 280/211/199 305/214/224 302/247/221
f 276/233/195 274/232/193 301/248/220 303/250/222
f 290/236/209 288/235/207 309/249/228 310/251/229
f 284/226/203 282/234/201 307/252/226 306/227/225
f 278/212/197 276/233/195 303/250/222 304/213/223
f 282/234/201 290/236/209 310/251/229 307/252/226
