# Blender 5.0.1
# www.blender.org
mtllib model.mtl
o jerogmaMesh
v -0.497241 -0.100109 0.140104
v 0.354301 0.652661 0.006527
v -0.707437 -0.312993 -0.476748
v 0.495482 0.735723 -0.352436
v -0.082225 -0.509885 0.140104
v 0.647793 0.352078 0.060427
v -0.292421 -0.722769 -0.476748
v 0.796853 0.428762 -0.301606
v 0.144932 0.529435 -0.002555
v 0.144932 0.529435 -0.646625
v 0.539482 0.139867 -0.646625
v 0.539482 0.139867 -0.002555
v -0.735653 -0.551988 0.156447
v -0.578689 -0.401379 0.295755
v -0.531738 -0.752872 0.156909
v -0.383586 -0.594439 0.295434
v -0.233675 0.243429 -0.042735
v -0.233675 0.243429 -0.859653
v 0.258311 -0.242344 -0.859653
v 0.258311 -0.242344 -0.042735
v -0.522107 -0.540343 -0.531386
v 0.342207 0.334651 -0.698650
v -0.268998 -0.283997 0.206463
v 0.342207 0.334651 0.048147
v 0.675978 0.600184 -0.416868
v 0.470095 0.487794 0.117824
v -0.645166 -0.664594 0.073063
v -0.450803 -0.467523 0.335011
v 0.012318 0.000542 -0.000236
v 0.012318 0.000542 -0.923185
v -0.693114 -0.116922 -0.196247
v 0.057687 0.615578 -0.352515
v -0.104615 -0.697991 -0.196247
v 0.617164 0.063166 -0.352515
v 0.373465 0.745099 -0.207078
v 0.778127 0.332378 -0.136442
v -0.691335 -0.439506 0.198670
v -0.420471 -0.707134 0.198488
v 0.356358 -0.339153 -0.479119
v -0.341285 0.349680 -0.479119
v 0.564438 0.716058 0.023001
v 0.617821 0.759615 -0.095239
v 0.683946 0.593096 0.045966
v 0.750127 0.622157 -0.070759
v 0.690030 0.691840 -0.139234
v 0.610312 0.648564 0.071007
v 0.576050 0.749652 -0.062064
v 0.733768 0.588799 -0.034744
v -0.430834 0.029800 -0.790136
v 0.047136 -0.442135 -0.790136
v 0.166736 -0.321005 -0.030314
v -0.311235 0.150929 -0.030314
v -0.206464 -0.220970 -0.845726
v -0.062448 -0.075111 0.019505
v -0.475578 0.193589 -0.438150
v 0.202190 -0.475621 -0.438150
v -0.648031 -0.546011 0.250620
v -0.598225 -0.526676 0.294833
v -0.620268 -0.638833 0.190940
v -0.672018 -0.595615 0.265432
v -0.527466 -0.665135 0.250515
v -0.576467 -0.689677 0.265751
v -0.538932 -0.556439 0.313562
v -0.508675 -0.615291 0.294666
v -0.520142 -0.027283 -0.087322
v 0.374095 -0.728799 0.046255
v -0.742466 0.172903 0.529530
v 0.519907 -0.803435 0.405218
v -0.129881 0.406135 -0.087322
v 0.649448 -0.411515 -0.007644
v -0.352204 0.606321 0.529530
v 0.802750 -0.479322 0.354388
v 0.157858 -0.618068 0.055337
v 0.157858 -0.618068 0.699407
v 0.528874 -0.206024 0.699407
v 0.528874 -0.206024 0.055338
v -0.784653 0.409831 -0.103664
v -0.619124 0.268690 -0.242973
v -0.592875 0.622333 -0.104126
v -0.435684 0.472864 -0.242651
v -0.236876 -0.354766 0.095517
v -0.236876 -0.354766 0.912435
v 0.225764 0.159034 0.912435
v 0.225764 0.159034 0.095517
v -0.570792 0.410734 0.584168
v 0.343366 -0.412046 0.751432
v -0.303080 0.169679 -0.153681
v 0.343366 -0.412046 0.004636
v 0.692140 -0.657540 0.469650
v 0.480018 -0.557422 -0.065042
v -0.700929 0.527552 -0.020280
v -0.495339 0.342223 -0.282229
v -0.005556 -0.097866 0.053019
v -0.005556 -0.097866 0.975968
v -0.716664 -0.021989 0.249029
v 0.075817 -0.709181 0.405297
v -0.163268 0.592603 0.249029
v 0.601922 -0.124898 0.405297
v 0.398649 -0.819953 0.259860
v 0.778402 -0.384203 0.189224
v -0.733813 0.300143 -0.145888
v -0.479117 0.583201 -0.145705
v 0.317962 0.261428 0.531901
v -0.338067 -0.467147 0.531901
v 0.587590 -0.779758 0.029782
v 0.643436 -0.820109 0.148021
v 0.699679 -0.649997 0.006816
v 0.767450 -0.675125 0.123542
v 0.711545 -0.748214 0.192016
v 0.629425 -0.709690 -0.018225
v 0.601153 -0.812614 0.114847
v 0.749162 -0.642785 0.087526
v -0.446228 -0.153072 0.842919
v 0.003232 0.346091 0.842919
v 0.129732 0.232187 0.083096
v -0.319729 -0.266976 0.083096
v -0.236957 0.110429 0.898509
v -0.084631 -0.026729 0.033278
v -0.481287 -0.319204 0.490932
v 0.156054 0.388616 0.490932
v -0.696832 0.409005 -0.197838
v -0.645978 0.392626 -0.242051
v -0.674563 0.503296 -0.138158
v -0.723688 0.457117 -0.212650
v -0.583464 0.534997 -0.197733
v -0.633820 0.556622 -0.212969
v -0.588532 0.425815 -0.260780
v -0.561780 0.486341 -0.241883
vn -0.3424 0.6185 0.7072
vn -0.3779 0.6398 0.6692
vn -0.9016 -0.0884 -0.4234
vn 0.1458 0.8890 -0.4341
vn 0.6254 -0.3446 0.7001
vn 0.5105 -0.3166 0.7995
vn -0.0663 -0.9061 -0.4178
vn 0.9489 0.0549 -0.3108
vn -0.4477 0.5053 0.7377
vn -0.0753 0.7470 -0.6606
vn 0.7511 -0.1041 -0.6519
vn 0.4578 -0.4959 0.7379
vn -0.9392 -0.2812 0.1970
vn -0.4181 0.3508 0.8379
vn -0.2613 -0.9441 0.2012
vn 0.3565 -0.4194 0.8349
vn -0.4463 0.5032 0.7400
vn -0.3614 0.4905 -0.7930
vn 0.5030 -0.3627 -0.7845
vn 0.5179 -0.4473 0.7292
vn -0.5694 -0.5771 -0.5854
vn 0.3712 0.3571 -0.8571
vn 0.3180 0.3216 0.8919
vn -0.1167 -0.0867 0.9894
vn 0.6078 0.5220 -0.5984
vn -0.0678 0.0526 0.9963
vn -0.6977 -0.7076 -0.1123
vn 0.1184 0.1188 0.9858
vn 0.0185 0.0187 0.9997
vn 0.0692 0.0700 -0.9951
vn -0.8809 0.4590 0.1153
vn -0.4690 0.8829 -0.0224
vn 0.4759 -0.8721 0.1137
vn 0.8531 -0.5216 -0.0160
vn -0.2878 0.9563 0.0518
vn 0.9188 -0.3254 0.2234
vn -0.8502 0.2673 0.4536
vn 0.2849 -0.8466 0.4496
vn 0.7575 -0.6499 -0.0625
vn -0.6586 0.7495 -0.0679
vn 0.1009 0.7692 0.6310
vn 0.4162 0.9041 0.0966
vn 0.6427 0.2641 0.7192
vn 0.8664 0.4605 0.1932
vn 0.7069 0.7065 -0.0320
vn 0.2988 0.4681 0.8316
vn 0.1444 0.9433 0.2989
vn 0.8607 0.2635 0.4355
vn -0.6817 0.1726 -0.7110
vn 0.1911 -0.6853 -0.7028
vn 0.6137 -0.3659 0.6997
vn -0.3621 0.6045 0.7096
vn -0.2936 -0.2974 -0.9085
vn 0.2276 0.2304 0.9461
vn -0.7941 0.6070 -0.0309
vn 0.6200 -0.7841 -0.0272
vn -0.6297 -0.0234 0.7765
vn -0.4635 -0.1088 0.8794
vn -0.6545 -0.6639 0.3617
vn -0.6509 -0.3800 0.6572
vn -0.0137 -0.6293 0.7771
vn -0.3709 -0.6555 0.6578
vn -0.2249 -0.2289 0.9471
vn -0.1027 -0.4660 0.8788
vn -0.3055 -0.6376 -0.7072
vn -0.3397 -0.6608 -0.6692
vn -0.9052 0.0354 0.4234
vn 0.1977 -0.8789 0.4341
vn 0.6041 0.3807 -0.7001
vn 0.4910 0.3460 -0.7995
vn -0.1193 0.9007 0.4178
vn 0.9505 0.0009 0.3108
vn -0.4173 -0.5307 -0.7377
vn -0.0314 -0.7501 0.6606
vn 0.7437 0.1480 0.6519
vn 0.4279 0.5219 -0.7379
vn -0.9541 0.2256 -0.1970
vn -0.3968 -0.3747 -0.8379
vn -0.3162 0.9271 -0.2012
vn 0.3313 0.4396 -0.8349
vn -0.4160 -0.5286 -0.7400
vn -0.3320 -0.5109 0.7930
vn 0.4809 0.3916 0.7845
vn 0.4908 0.4769 -0.7292
vn -0.6023 0.5427 0.5854
vn 0.3915 -0.3347 0.8571
vn 0.3364 -0.3024 -0.8919
vn -0.1216 0.0797 -0.9894
vn 0.6373 -0.4855 0.5984
vn -0.0646 -0.0565 -0.9963
vn -0.7380 0.6654 0.1123
vn 0.1251 -0.1116 -0.9858
vn 0.0196 -0.0176 -0.9997
vn 0.0732 -0.0659 0.9951
vn -0.8525 -0.5099 -0.1153
vn -0.4164 -0.9089 0.0224
vn 0.4239 0.8985 -0.1137
vn 0.8210 0.5707 0.0160
vn -0.2312 -0.9715 -0.0518
vn 0.8981 0.3788 -0.2234
vn -0.8330 -0.3168 -0.4536
vn 0.2347 0.8618 -0.4496
vn 0.7180 0.6932 0.0625
vn -0.6134 -0.7868 0.0679
vn 0.1459 -0.7619 -0.6310
vn 0.4686 -0.8781 -0.0966
vn 0.6570 -0.2259 -0.7192
vn 0.8919 -0.4089 -0.1932
vn 0.7472 -0.6639 0.0320
vn 0.3257 -0.4498 -0.8316
vn 0.1995 -0.9332 -0.2989
vn 0.8747 -0.2126 -0.4355
vn -0.6704 -0.2123 0.7110
vn 0.1505 0.6953 0.7028
vn 0.5912 0.4013 -0.6997
vn -0.3260 -0.6247 -0.7096
vn -0.3106 0.2797 0.9085
vn 0.2407 -0.2167 -0.9461
vn -0.7571 -0.6525 0.0309
vn 0.5729 0.8192 0.0272
vn -0.6300 -0.0136 -0.7765
vn -0.4691 0.0814 -0.8794
vn -0.6924 0.6244 -0.3617
vn -0.6721 0.3412 -0.6572
vn -0.0506 0.6274 -0.7771
vn -0.4087 0.6326 -0.6578
vn -0.2379 0.2153 -0.9471
vn -0.1298 0.4592 -0.8788
vt 0.115506 0.125000
vt 0.250000 0.125000
vt 0.250000 0.250000
vt 0.115506 0.250000
vt 0.115506 0.375000
vt 0.250000 0.375000
vt 0.250000 0.500000
vt 0.115506 0.500000
vt 0.115506 0.625000
vt 0.250000 0.625000
vt 0.250000 0.750000
vt 0.115506 0.750000
vt 0.115506 0.875000
vt 0.250000 0.875000
vt 0.250000 1.000000
vt 0.115506 1.000000
vt 0.000000 0.125000
vt 0.000000 0.250000
vt 0.375000 0.558929
vt 0.441071 0.558929
vt 0.441071 0.625000
vt 0.500000 0.500000
vt 0.500000 0.625000
vt 0.308929 0.558929
vt 0.375000 0.500000
vt 0.308929 0.625000
vt 0.308929 0.691071
vt 0.375000 0.691071
vt 0.441071 0.691071
vt 0.500000 0.750000
vt 0.375000 0.750000
vt 0.000000 0.625000
vt 0.000000 0.750000
vt 0.000000 0.875000
vt 0.000000 1.000000
vt 0.000000 0.375000
vt 0.000000 0.500000
vt 0.081539 0.875000
vt 0.081539 1.000000
vt 0.081539 0.625000
vt 0.081539 0.750000
vt 0.081539 0.375000
vt 0.081539 0.500000
vt 0.081539 0.125000
vt 0.081539 0.250000
vt 0.081539 0.000000
vt 0.115506 0.000000
vt 0.000000 0.000000
vt 0.250000 0.000000
s 1
usemtl jerogmaMat
f 40/1/40 32/2/32 10/3/10 18/4/18
f 30/5/30 22/6/22 11/7/11 19/8/19
f 39/9/39 34/10/34 12/11/12 20/12/20
f 29/13/29 24/14/24 9/15/9 17/16/17
f 31/17/31 3/18/3 13/18/13 37/17/37
f 25/19/25 4/20/4 42/20/42 45/19/45
f 35/21/35 4/20/4 10/22/10 32/23/32
f 25/19/25 8/24/8 11/7/11 22/25/22
f 36/26/36 6/27/6 12/11/12 34/10/34
f 26/28/26 2/29/2 9/30/9 24/31/24
f 33/32/33 5/33/5 16/33/16 38/32/38
f 23/34/23 1/35/1 14/35/14 28/34/28
f 21/36/21 7/37/7 15/37/15 27/36/27
f 54/38/54 29/13/29 17/16/17 52/39/52
f 56/40/56 39/9/39 20/12/20 51/41/51
f 53/42/53 30/5/30 19/8/19 50/43/50
f 55/44/55 40/1/40 18/4/18 49/45/49
f 49/45/49 18/4/18 30/5/30 53/42/53
f 51/41/51 20/12/20 29/13/29 54/38/54
f 3/18/3 21/36/21 27/36/27 13/18/13
f 5/33/5 23/34/23 28/34/28 16/33/16
f 6/27/6 26/28/26 24/31/24 12/11/12
f 4/20/4 25/19/25 22/25/22 10/22/10
f 8/24/8 25/19/25 45/19/45 44/24/44
f 20/12/20 12/11/12 24/14/24 29/13/29
f 18/4/18 10/3/10 22/6/22 30/5/30
f 2/29/2 26/28/26 46/28/46 41/29/41
f 52/46/52 17/47/17 40/1/40 55/44/55
f 50/43/50 19/8/19 39/9/39 56/40/56
f 7/37/7 33/32/33 38/32/38 15/37/15
f 8/24/8 36/26/36 34/10/34 11/7/11
f 2/29/2 35/21/35 32/23/32 9/30/9
f 36/26/36 8/24/8 44/24/44 48/26/48
f 1/48/1 31/17/31 37/17/37 14/48/14
f 19/8/19 11/7/11 34/10/34 39/9/39
f 17/47/17 9/49/9 32/2/32 40/1/40
f 35/21/35 2/29/2 41/29/41 47/21/47
f 6/27/6 36/26/36 48/26/48 43/27/43
f 4/20/4 35/21/35 47/21/47 42/20/42
f 26/28/26 6/27/6 43/27/43 46/28/46
f 46/28/46 43/27/43 48/26/48 44/24/44 45/19/45 42/20/42 47/21/47 41/29/41
f 7/37/7 50/43/50 56/40/56 33/32/33
f 1/48/1 52/46/52 55/44/55 31/17/31
f 5/33/5 51/41/51 54/38/54 23/34/23
f 3/18/3 49/45/49 53/42/53 21/36/21
f 31/17/31 55/44/55 49/45/49 3/18/3
f 21/36/21 53/42/53 50/43/50 7/37/7
f 33/32/33 56/40/56 51/41/51 5/33/5
f 23/34/23 54/38/54 52/39/52 1/35/1
f 16/33/16 28/34/28 63/34/63 64/33/64
f 57/17/57 60/18/60 59/36/59 62/37/62 61/32/61 64/33/64 63/34/63 58/35/58
f 28/34/28 14/35/14 58/35/58 63/34/63
f 13/18/13 27/36/27 59/36/59 60/18/60
f 37/17/37 13/18/13 60/18/60 57/17/57
f 15/37/15 38/32/38 61/32/61 62/37/62
f 27/36/27 15/37/15 62/37/62 59/36/59
f 14/48/14 37/17/37 57/17/57 58/48/58
f 38/32/38 16/33/16 64/33/64 61/32/61
f 104/1/104 96/2/96 74/3/74 82/4/82
f 94/5/94 86/6/86 75/7/75 83/8/83
f 103/9/103 98/10/98 76/11/76 84/12/84
f 93/13/93 88/14/88 73/15/73 81/16/81
f 95/17/95 67/18/67 77/18/77 101/17/101
f 89/19/89 68/20/68 106/20/106 109/19/109
f 99/21/99 68/20/68 74/22/74 96/23/96
f 89/19/89 72/24/72 75/7/75 86/25/86
f 100/26/100 70/27/70 76/11/76 98/10/98
f 90/28/90 66/29/66 73/30/73 88/31/88
f 97/32/97 69/33/69 80/33/80 102/32/102
f 87/34/87 65/35/65 78/35/78 92/34/92
f 85/36/85 71/37/71 79/37/79 91/36/91
f 118/38/118 93/13/93 81/16/81 116/39/116
f 120/40/120 103/9/103 84/12/84 115/41/115
f 117/42/117 94/5/94 83/8/83 114/43/114
f 119/44/119 104/1/104 82/4/82 113/45/113
f 113/45/113 82/4/82 94/5/94 117/42/117
f 115/41/115 84/12/84 93/13/93 118/38/118
f 67/18/67 85/36/85 91/36/91 77/18/77
f 69/33/69 87/34/87 92/34/92 80/33/80
f 70/27/70 90/28/90 88/31/88 76/11/76
f 68/20/68 89/19/89 86/25/86 74/22/74
f 72/24/72 89/19/89 109/19/109 108/24/108
f 84/12/84 76/11/76 88/14/88 93/13/93
f 82/4/82 74/3/74 86/6/86 94/5/94
f 66/29/66 90/28/90 110/28/110 105/29/105
f 116/46/116 81/47/81 104/1/104 119/44/119
f 114/43/114 83/8/83 103/9/103 120/40/120
f 71/37/71 97/32/97 102/32/102 79/37/79
f 72/24/72 100/26/100 98/10/98 75/7/75
f 66/29/66 99/21/99 96/23/96 73/30/73
f 100/26/100 72/24/72 108/24/108 112/26/112
f 65/48/65 95/17/95 101/17/101 78/48/78
f 83/8/83 75/7/75 98/10/98 103/9/103
f 81/47/81 73/49/73 96/2/96 104/1/104
f 99/21/99 66/29/66 105/29/105 111/21/111
f 70/27/70 100/26/100 112/26/112 107/27/107
f 68/20/68 99/21/99 111/21/111 106/20/106
f 90/28/90 70/27/70 107/27/107 110/28/110
f 110/28/110 107/27/107 112/26/112 108/24/108 109/19/109 106/20/106 111/21/111 105/29/105
f 71/37/71 114/43/114 120/40/120 97/32/97
f 65/48/65 116/46/116 119/44/119 95/17/95
f 69/33/69 115/41/115 118/38/118 87/34/87
f 67/18/67 113/45/113 117/42/117 85/36/85
f 95/17/95 119/44/119 113/45/113 67/18/67
f 85/36/85 117/42/117 114/43/114 71/37/71
f 97/32/97 120/40/120 115/41/115 69/33/69
f 87/34/87 118/38/118 116/39/116 65/35/65
f 80/33/80 92/34/92 127/34/127 128/33/128
f 121/17/121 124/18/124 123/36/123 126/37/126 125/32/125 128/33/128 127/34/127 122/35/122
f 92/34/92 78/35/78 122/35/122 127/34/127
f 77/18/77 91/36/91 123/36/123 124/18/124
f 101/17/101 77/18/77 124/18/124 121/17/121
f 79/37/79 102/32/102 125/32/125 126/37/126
f 91/36/91 79/37/79 126/37/126 123/36/123
f 78/48/78 101/17/101 121/17/121 122/48/122
f 102/32/102 80/33/80 128/33/128 125/32/125
