# Blender 5.0.1
# www.blender.org
mtllib model.mtl
o lavaMesh
v -159.714661 -26.072609 10.293251
v -108.594696 -9.954073 134.644257
v -161.216354 -7.439074 10.896149
v -109.006775 -9.954073 140.269745
v -163.202133 1.339280 11.824837
v -105.218185 1.339280 141.829681
v -161.216354 10.117634 10.896149
v -109.006775 12.632631 140.269745
v -159.714661 28.751167 10.293251
v -108.594696 12.632631 134.644257
v -178.801758 -26.635546 10.293251
v -178.801758 1.339282 10.293251
v -178.801758 29.314104 10.293251
v -178.801758 29.314104 4.782570
v -178.801758 -26.635546 4.782570
v -157.008209 28.751167 4.376747
v -166.928558 1.339282 10.293251
v -157.008209 -26.072609 4.376747
v -120.464424 -13.180441 133.232513
v -128.871460 -7.439074 134.054321
v -131.350891 -7.439074 133.037216
v -134.527054 -7.439074 125.366188
v -135.232010 -7.439074 117.738739
v -136.241928 -7.439074 107.739037
v -137.726089 -7.439074 94.573418
v -139.306137 -7.439074 79.175728
v -141.238770 -7.439074 62.632210
v -144.060547 -7.439074 46.167656
v -148.067520 -12.277866 31.065445
v -152.865997 -20.298733 18.453087
v -120.994217 -13.180441 140.465149
v -129.191772 -7.439074 138.427032
v -135.319153 -7.439074 134.901596
v -138.756210 -7.439074 126.522575
v -139.610321 -7.439074 117.969963
v -140.591980 -7.439074 107.971916
v -142.033386 -7.439074 94.850136
v -143.579941 -7.439074 79.570175
v -145.491119 -7.439074 63.233124
v -148.293304 -7.439074 47.059555
v -152.264557 -7.439074 32.304810
v -156.957474 -7.439074 20.028870
v -121.049622 1.339280 141.221527
v -129.351913 1.339280 140.613373
v -137.303284 1.339280 135.833801
v -140.870804 1.339280 127.100777
v -141.799469 1.339280 118.085579
v -142.789291 1.339280 108.093216
v -144.248993 1.339280 95.002686
v -145.824265 1.339280 79.793785
v -147.748276 1.339280 63.569431
v -150.494019 1.339280 47.532356
v -154.374725 1.339280 32.928574
v -159.003204 1.339280 20.816750
v -120.994217 15.858999 140.465149
v -129.191772 10.117634 138.427032
v -135.319153 10.117634 134.901596
v -138.756210 10.117634 126.522575
v -139.610321 10.117634 117.969963
v -140.591980 10.117634 107.971916
v -142.033386 10.117634 94.850136
v -143.579941 10.117634 79.570175
v -145.491119 10.117634 63.233124
v -148.293304 10.117634 47.059555
v -152.264557 10.117634 32.304810
v -156.957474 10.117634 20.028870
v -120.464424 15.858999 133.232513
v -128.871460 10.117634 134.054321
v -131.350891 10.117634 133.037216
v -134.527054 10.117634 125.366188
v -135.232010 10.117634 117.738739
v -136.241928 10.117634 107.739037
v -137.726089 10.117634 94.573418
v -139.306137 10.117634 79.175728
v -141.238770 10.117634 62.632210
v -144.060547 10.117634 46.167656
v -148.067520 14.956427 31.065445
v -152.865997 22.977291 18.453087
v -191.468811 -22.122156 4.782562
v -191.468811 -22.122156 10.293243
v -191.468811 1.339282 10.293243
v -192.538300 28.329706 10.293243
v -192.538300 28.329706 4.782562
v -199.464752 -11.851797 4.782562
v -199.464752 -11.851797 10.293243
v -202.634308 1.339281 10.293243
v -196.627289 4.434727 10.293243
v -196.627289 4.434727 4.782562
v -204.543976 -3.429785 4.782562
v -204.543976 -3.429785 10.293243
v -204.543976 1.339281 10.293243
v -204.543976 6.108346 10.293243
v -204.543976 6.108346 4.782562
vn 0.2601 -0.9654 0.0191
vn 0.0302 -0.0519 0.9982
vn 0.0302 0.0519 0.9982
vn 0.2601 0.9654 0.0191
vn -0.7345 0.0810 0.6738
vn -0.8017 0.3172 0.5067
vn -0.6471 0.6593 0.3829
vn -0.0000 1.0000 -0.0000
vn -0.5662 0.8232 -0.0415
vn -0.8791 0.2423 0.4105
vn -0.9063 0.2423 0.3463
vn -0.9375 0.2431 0.2491
vn -0.9545 0.2482 0.1654
vn -0.9613 0.2515 0.1125
vn -0.9634 0.2488 0.0998
vn -0.9635 0.2451 0.1074
vn -0.9653 0.2429 0.0956
vn -0.9655 0.2420 0.0964
vn -0.8985 0.2406 0.3671
vn -0.5044 0.2031 0.8392
vn -0.0709 0.2423 0.9676
vn -0.8791 -0.2423 0.4105
vn -0.9063 -0.2423 0.3463
vn -0.9375 -0.2431 0.2491
vn -0.9545 -0.2482 0.1654
vn -0.9613 -0.2515 0.1125
vn -0.9634 -0.2488 0.0998
vn -0.9635 -0.2451 0.1074
vn -0.9653 -0.2429 0.0956
vn -0.9655 -0.2420 0.0964
vn -0.8985 -0.2406 0.3671
vn -0.5044 -0.2031 0.8392
vn -0.0709 -0.2423 0.9676
vn -0.7345 -0.0810 0.6738
vn -0.8017 -0.3172 0.5067
vn -0.6471 -0.6593 0.3829
vn -0.0000 -1.0000 -0.0000
vn -0.5662 -0.8232 -0.0415
vn -0.0000 -0.0000 1.0000
vn 0.0260 -0.9996 0.0119
vn 0.0295 0.9996 -0.0000
vn -0.3739 0.1808 0.9097
vn -0.1743 -0.0459 0.9836
vn -0.3356 -0.9420 -0.0000
vn -0.0715 0.9974 -0.0000
vn -0.7891 -0.6143 -0.0000
vn -0.9857 0.1687 -0.0000
vn -1.0000 -0.0000 -0.0000
vn -0.8563 -0.5164 -0.0000
vn 0.2068 0.9784 -0.0000
vn -0.0000 -0.0000 -1.0000
vn -0.0381 -0.1242 0.9915
vn -0.0381 0.1242 0.9915
vn -0.8580 0.3220 0.4001
vn -0.6937 0.6696 0.2652
vn -0.8794 0.2417 0.4101
vn -0.9062 0.2425 0.3464
vn -0.9355 0.2481 0.2518
vn -0.9540 0.2515 0.1633
vn -0.9618 0.2488 0.1141
vn -0.9646 0.2451 0.0976
vn -0.9643 0.2428 0.1059
vn -0.9656 0.2421 0.0948
vn -0.9659 0.2392 0.0995
vn -0.8977 0.2420 0.3682
vn -0.4865 0.2195 0.8456
vn -0.2745 0.0511 0.9602
vn -0.8794 -0.2417 0.4101
vn -0.9062 -0.2425 0.3464
vn -0.9355 -0.2481 0.2518
vn -0.9540 -0.2515 0.1633
vn -0.9618 -0.2488 0.1141
vn -0.9646 -0.2451 0.0976
vn -0.9643 -0.2428 0.1059
vn -0.9656 -0.2421 0.0948
vn -0.9659 -0.2392 0.0995
vn -0.8977 -0.2420 0.3682
vn -0.4865 -0.2195 0.8456
vn -0.2745 -0.0511 0.9602
vn -0.8580 -0.3220 0.4001
vn -0.6937 -0.6696 0.2652
vn 0.0295 -0.9996 -0.0000
vn 0.0260 0.9996 0.0119
vn -0.1743 0.0459 0.9836
vn -0.3739 -0.1808 0.9097
vt 7.545139 18.072210
vt 6.586745 20.850475
vt 6.248305 18.582848
vt 3.898192 18.925594
vt 1.727262 21.419437
vt 1.532805 19.135332
vt 0.153444 18.938171
vt -1.838956 -11.663515
vt -4.681783 -9.093321
vt -6.030632 -11.451092
vt -1.602422 -9.394222
vt -2.764114 -6.177377
vt -1.276540 -6.332973
vt -1.754118 -2.642715
vt -0.789203 -2.786829
vt -1.248911 1.041572
vt 0.168227 4.563350
vt -0.304345 0.914333
vt 0.594180 7.939326
vt -0.774762 4.699960
vt 0.962262 10.815840
vt -0.345381 8.099191
vt 1.316225 12.946384
vt 0.024577 11.006475
vt 0.840934 14.817963
vt 0.408711 13.191280
vt 2.071451 16.193653
vt 1.740425 14.609165
vt 2.047472 17.467390
vt 1.326309 16.524105
vt 1.243757 17.071150
vt 0.492586 -9.655533
vt 0.218775 -12.003944
vt 0.858218 -6.590663
vt 1.284317 -3.057223
vt 1.731510 0.656957
vt 2.570593 7.676286
vt 2.169540 4.312831
vt 2.909442 10.529959
vt 3.154710 12.602615
vt 3.540752 15.878376
vt 3.359900 14.341526
vt 3.725038 17.448101
vt 2.289057 -12.146692
vt 2.585291 -9.892801
vt 2.991196 -6.848086
vt 3.771006 0.424621
vt 3.362856 -3.288223
vt 4.174153 4.084473
vt 4.554159 7.468090
vt 4.870121 10.352589
vt 4.997744 14.225338
vt 5.023310 12.508343
vt 5.043502 15.844410
vt 5.361866 17.078606
vt 5.625282 -10.324139
vt 6.365019 -12.899246
vt 4.469758 -7.052019
vt 4.334774 -3.378266
vt 4.719621 0.324392
vt 5.123542 3.994911
vt 5.505734 7.402973
vt 5.827150 10.318693
vt 5.921885 14.219378
vt 5.963705 12.535002
vt 5.845500 15.993324
vt 6.052502 16.506987
vt 0.118076 -12.891184
vt -5.500976 -15.490038
vt -0.152308 -15.409458
vt 6.017032 -17.202597
vt 7.775257 -12.805231
vt -6.692570 -15.849705
vt 4.979953 -16.625248
vt -0.395274 -17.764772
vt 1.284806 -19.951849
vt 3.537107 -18.661196
vt -4.434190 -17.870275
vt 4.244550 -19.471016
vt -0.568222 -19.527567
vt -1.271829 -19.845018
vt -0.585973 -19.830845
vt -2.440045 -19.644035
vt 1.470454 -21.066759
vt -5.375598 -18.598576
vt -1.289409 -20.556822
vt 0.049653 -20.661566
vt -2.822347 -20.721281
vt 0.084397 -19.946934
vt 7.775257 20.693577
vt 4.265972 22.066759
vt 0.534899 21.541254
vt -7.422906 -11.024586
s 0
g lavaMesh_LavaMat
usemtl LavaMat
f 19/1/1 4/2/1 31/3/1
f 4/2/2 43/4/2 31/3/2
f 43/4/3 8/5/3 55/6/3
f 8/5/4 67/7/4 55/6/4
f 7/8/5 78/9/5 9/10/5
f 66/11/6 77/12/6 78/9/6
f 65/13/7 76/14/7 77/12/7
f 64/15/8 75/16/8 76/14/8
f 62/17/8 75/16/8 63/18/8
f 61/19/8 74/20/8 62/17/8
f 60/21/8 73/22/8 61/19/8
f 59/23/8 72/24/8 60/21/8
f 59/23/8 70/25/8 71/26/8
f 57/27/8 70/25/8 58/28/8
f 56/29/8 69/30/8 57/27/8
f 56/29/9 67/7/9 68/31/9
f 54/32/10 7/8/10 5/33/10
f 53/34/11 66/11/11 54/32/11
f 52/35/12 65/13/12 53/34/12
f 52/35/13 63/18/13 64/15/13
f 51/36/14 62/17/14 63/18/14
f 49/37/15 62/17/15 50/38/15
f 48/39/16 61/19/16 49/37/16
f 47/40/17 60/21/17 48/39/17
f 47/40/18 58/28/18 59/23/18
f 45/41/19 58/28/19 46/42/19
f 44/43/20 57/27/20 45/41/20
f 43/4/21 56/29/21 44/43/21
f 3/44/22 54/32/22 5/33/22
f 42/45/23 53/34/23 54/32/23
f 41/46/24 52/35/24 53/34/24
f 39/47/25 52/35/25 40/48/25
f 38/49/26 51/36/26 39/47/26
f 38/49/27 49/37/27 50/38/27
f 37/50/28 48/39/28 49/37/28
f 36/51/29 47/40/29 48/39/29
f 34/52/30 47/40/30 35/53/30
f 34/52/31 45/41/31 46/42/31
f 33/54/32 44/43/32 45/41/32
f 32/55/33 43/4/33 44/43/33
f 30/56/34 3/44/34 1/57/34
f 29/58/35 42/45/35 30/56/35
f 28/59/36 41/46/36 29/58/36
f 27/60/37 40/48/37 28/59/37
f 27/60/37 38/49/37 39/47/37
f 26/61/37 37/50/37 38/49/37
f 25/62/37 36/51/37 37/50/37
f 24/63/37 35/53/37 36/51/37
f 22/64/37 35/53/37 23/65/37
f 22/64/37 33/54/37 34/52/37
f 21/66/37 32/55/37 33/54/37
f 19/1/38 32/55/38 20/67/38
f 17/68/39 13/69/39 12/70/39
f 1/57/40 15/71/40 18/72/40
f 9/10/41 14/73/41 13/69/41
f 7/8/42 17/68/42 5/33/42
f 3/44/43 17/68/43 1/57/43
f 17/68/39 11/74/39 1/57/39
f 81/75/39 85/76/39 80/77/39
f 12/70/39 82/78/39 81/75/39
f 15/71/44 80/77/44 79/79/44
f 14/73/45 82/78/45 13/69/45
f 12/70/39 80/77/39 11/74/39
f 86/80/39 92/81/39 91/82/39
f 81/75/39 87/83/39 86/80/39
f 80/77/46 84/84/46 79/79/46
f 83/85/47 87/83/47 82/78/47
f 91/82/48 92/81/48 93/86/48
f 85/76/49 89/87/49 84/84/49
f 88/88/50 92/81/50 87/83/50
f 86/80/39 90/89/39 85/76/39
f 88/88/51 89/87/51 93/86/51
f 19/1/1 2/90/1 4/2/1
f 4/2/52 6/91/52 43/4/52
f 43/4/53 6/91/53 8/5/53
f 8/5/4 10/92/4 67/7/4
f 7/8/54 66/11/54 78/9/54
f 66/11/55 65/13/55 77/12/55
f 65/13/8 64/15/8 76/14/8
f 64/15/8 63/18/8 75/16/8
f 62/17/8 74/20/8 75/16/8
f 61/19/8 73/22/8 74/20/8
f 60/21/8 72/24/8 73/22/8
f 59/23/8 71/26/8 72/24/8
f 59/23/8 58/28/8 70/25/8
f 57/27/8 69/30/8 70/25/8
f 56/29/8 68/31/8 69/30/8
f 56/29/9 55/6/9 67/7/9
f 54/32/56 66/11/56 7/8/56
f 53/34/57 65/13/57 66/11/57
f 52/35/58 64/15/58 65/13/58
f 52/35/59 51/36/59 63/18/59
f 51/36/60 50/38/60 62/17/60
f 49/37/61 61/19/61 62/17/61
f 48/39/62 60/21/62 61/19/62
f 47/40/63 59/23/63 60/21/63
f 47/40/64 46/42/64 58/28/64
f 45/41/65 57/27/65 58/28/65
f 44/43/66 56/29/66 57/27/66
f 43/4/67 55/6/67 56/29/67
f 3/44/68 42/45/68 54/32/68
f 42/45/69 41/46/69 53/34/69
f 41/46/70 40/48/70 52/35/70
f 39/47/71 51/36/71 52/35/71
f 38/49/72 50/38/72 51/36/72
f 38/49/73 37/50/73 49/37/73
f 37/50/74 36/51/74 48/39/74
f 36/51/75 35/53/75 47/40/75
f 34/52/76 46/42/76 47/40/76
f 34/52/77 33/54/77 45/41/77
f 33/54/78 32/55/78 44/43/78
f 32/55/79 31/3/79 43/4/79
f 30/56/80 42/45/80 3/44/80
f 29/58/81 41/46/81 42/45/81
f 28/59/37 40/48/37 41/46/37
f 27/60/37 39/47/37 40/48/37
f 27/60/37 26/61/37 38/49/37
f 26/61/37 25/62/37 37/50/37
f 25/62/37 24/63/37 36/51/37
f 24/63/37 23/65/37 35/53/37
f 22/64/37 34/52/37 35/53/37
f 22/64/37 21/66/37 33/54/37
f 21/66/37 20/67/37 32/55/37
f 19/1/38 31/3/38 32/55/38
f 17/68/39 9/10/39 13/69/39
f 1/57/82 11/74/82 15/71/82
f 9/10/83 16/93/83 14/73/83
f 7/8/84 9/10/84 17/68/84
f 3/44/85 5/33/85 17/68/85
f 17/68/39 12/70/39 11/74/39
f 81/75/39 86/80/39 85/76/39
f 12/70/39 13/69/39 82/78/39
f 15/71/44 11/74/44 80/77/44
f 14/73/45 83/85/45 82/78/45
f 12/70/39 81/75/39 80/77/39
f 86/80/39 87/83/39 92/81/39
f 81/75/39 82/78/39 87/83/39
f 80/77/46 85/76/46 84/84/46
f 83/85/47 88/88/47 87/83/47
f 93/86/48 89/87/48 91/82/48
f 89/87/48 90/89/48 91/82/48
f 85/76/49 90/89/49 89/87/49
f 88/88/50 93/86/50 92/81/50
f 86/80/39 91/82/39 90/89/39
f 88/88/51 84/84/51 89/87/51
