# Blender 5.0.1
# www.blender.org
mtllib model.mtl
o krabMesh
v 0.981993 -0.000000 -0.101112
v 0.707107 -0.000000 0.707107
v 0.382683 0.000000 0.923879
v 0.000000 0.000000 1.000000
v -0.382683 0.000000 0.923879
v -0.707107 0.000000 0.707107
v -1.000000 0.000000 0.000000
v 0.923879 0.270598 0.270598
v 0.707107 0.500000 0.500000
v 0.382683 0.653281 0.653281
v 0.000000 0.707107 0.707107
v -0.382683 0.653281 0.653281
v -0.707107 0.500000 0.500000
v -0.923879 0.270598 0.270598
v 0.958207 0.167786 -0.101067
v 0.707107 0.707107 -0.000000
v 0.382683 0.923879 -0.000000
v 0.000000 1.000000 0.000000
v -0.382683 0.923879 0.000000
v -0.707107 0.707107 0.000000
v -0.923879 0.382683 0.000000
v 0.955434 0.089883 -0.213403
v 0.707107 0.500000 -0.500000
v 0.382683 0.653281 -0.653281
v 0.000000 0.707107 -0.707107
v -0.382683 0.653281 -0.653281
v -0.707107 0.500000 -0.500000
v -0.923879 0.270598 -0.270598
v 0.966367 0.000000 -0.245921
v 0.707107 -0.000000 -0.707107
v 0.382683 0.000000 -0.923879
v -0.000000 0.000000 -1.000000
v -0.382683 0.000000 -0.923879
v -0.707107 0.000000 -0.707107
v -0.923879 0.000000 -0.382683
v 0.955434 -0.089883 -0.213403
v 0.707107 -0.500000 -0.500000
v 0.382683 -0.653281 -0.653281
v 0.000000 -0.707107 -0.707107
v -0.382683 -0.653281 -0.653281
v -0.707107 -0.500000 -0.500000
v -0.923879 -0.270598 -0.270598
v 0.958207 -0.167786 -0.101067
v 0.707107 -0.707107 -0.000000
v 0.382683 -0.923879 -0.000000
v 0.000000 -1.000000 0.000000
v -0.382683 -0.923879 0.000000
v -0.707107 -0.707107 0.000000
v -0.923879 -0.382683 0.000000
v 0.923879 -0.270598 0.270598
v 0.707107 -0.500000 0.500000
v 0.382683 -0.653281 0.653281
v 0.000000 -0.707107 0.707107
v -0.382683 -0.653281 0.653281
v -0.707107 -0.500000 0.500000
v -0.923879 -0.270598 0.270598
v 0.923879 -0.000000 0.382683
v -0.923879 0.000000 0.382683
v 0.923879 0.270598 -0.270598
v 0.923879 0.382683 -0.000000
v 0.923879 -0.000000 -0.382683
v 0.923879 -0.270598 -0.270598
v 0.923879 -0.382683 -0.000000
v 1.000000 -0.000000 -0.000000
v 0.904131 -0.000000 -0.092114
v 0.877572 0.089883 -0.204405
v 0.888504 0.000000 -0.236923
v 0.877572 -0.089883 -0.204405
v 0.880345 0.167786 -0.092069
v 0.880345 -0.167786 -0.092069
v -0.373293 0.676847 0.424096
v 0.373293 0.502875 0.630931
v 0.000000 0.786287 0.972398
v 0.373293 0.397653 0.719010
v 0.000000 0.502649 0.904087
v -0.373293 0.397653 0.719010
v -0.373293 0.502875 0.630931
v 0.000000 0.419326 1.183684
v 0.373293 0.608096 0.542851
v 0.000000 0.768958 0.681165
v -0.373293 0.608096 0.542851
v -0.373293 0.268653 0.765789
v 0.373293 0.268653 0.765789
v 0.373293 0.745598 0.305341
v -0.000000 0.942962 0.380603
v -0.373293 0.745598 0.305341
v 0.373293 0.002432 0.812406
v 0.000000 0.002231 1.256720
v 0.373293 0.793574 0.035126
v -0.000000 1.003674 0.038654
v -0.373293 0.793574 0.035126
v -0.373293 0.002432 0.812406
v -0.373293 0.769586 0.170234
v 0.373293 0.769586 0.170234
v -0.000000 1.204150 0.250612
v 0.373293 0.676847 0.424096
v 0.000000 1.058854 0.648345
v 0.373293 -0.263678 0.765159
v 0.373293 -0.786868 0.033255
v -0.000000 -0.996324 0.036286
v -0.373293 -0.786868 0.033255
v 0.000000 -0.414690 1.182696
v -0.373293 -0.263678 0.765159
v 0.373293 -0.739531 0.303583
v -0.000000 -0.936422 0.378378
v -0.373293 -0.739532 0.303583
v 0.373293 -0.497580 0.629746
v 0.000000 -0.781149 0.970541
v 0.373293 -0.602593 0.541418
v 0.000000 -0.763130 0.679351
v -0.373293 -0.602593 0.541418
v -0.373293 -0.497580 0.629746
v -0.373293 -0.671062 0.422500
v 0.373293 -0.392568 0.718074
v 0.000000 -0.497350 0.902903
v -0.373293 -0.392568 0.718074
v 0.373293 -0.671062 0.422500
v 0.000000 -1.052948 0.645845
v 0.373293 -0.134789 0.812244
v 0.000000 -0.171139 1.022072
v -0.373293 -0.134789 0.812244
v 0.373293 -0.763200 0.168419
v -0.000000 -1.197302 0.247769
v 0.373293 0.139652 0.812568
v 0.000000 0.176157 1.022483
v -0.373293 0.139652 0.812568
v -0.373293 -0.763200 0.168419
v 0.600208 -0.693366 0.056574
v 0.349925 -0.877161 0.056574
v 0.197920 -1.077005 0.056574
v 0.170587 -1.209359 0.056574
v 0.290757 -1.271199 0.056574
v 0.541952 -1.278841 0.056574
v 0.841941 -1.199021 0.056574
v 0.487547 -0.811370 -0.154819
v 0.436288 -0.963050 -0.309569
v 0.445831 -1.077776 -0.366211
v 0.529125 -1.157245 -0.309569
v 0.679574 -1.213049 -0.154819
v 0.762791 -0.679787 -0.154819
v 0.913025 -0.735142 -0.309569
v 0.996319 -0.814610 -0.366211
v 1.005862 -0.929337 -0.309569
v 0.954817 -1.081466 -0.154819
v 0.861083 -0.623304 0.129171
v 1.112356 -0.639850 0.201543
v 1.232525 -0.701690 0.201543
v 1.251041 -0.807356 0.156889
v 1.094869 -1.010643 0.129331
v 0.762791 -0.679787 0.267967
v 0.913025 -0.735142 0.422717
v 0.996319 -0.814611 0.479359
v 1.005862 -0.929337 0.422717
v 0.954817 -1.081466 0.267967
v 0.487547 -0.811370 0.267966
v 0.436288 -0.963051 0.422717
v 0.445831 -1.077776 0.479359
v 0.529125 -1.157245 0.422717
v 0.679573 -1.213049 0.267967
v 1.109916 -0.641016 -0.084068
v 1.230086 -0.702856 -0.084068
v 1.240676 -0.817576 -0.036852
v 1.096884 -1.007745 0.013213
v 0.865534 -0.626108 -0.031983
v 0.832396 1.232310 0.056574
v 0.529764 1.301851 0.056574
v 0.279152 1.286481 0.056574
v 0.161062 1.220757 0.056574
v 0.192695 1.089363 0.056574
v 0.350934 0.894126 0.056574
v 0.607275 0.719043 0.056574
v 0.669457 1.240581 -0.154819
v 0.521108 1.180358 -0.309569
v 0.440449 1.098217 -0.366211
v 0.434651 0.983240 -0.309569
v 0.490627 0.832856 -0.154819
v 0.948845 1.118041 -0.154819
v 1.005020 0.968112 -0.309569
v 0.999223 0.853136 -0.366211
v 0.918564 0.770994 -0.309569
v 0.770014 0.710315 -0.154819
v 1.055806 1.080479 0.129171
v 1.207352 0.879368 0.201543
v 1.238985 0.747975 0.201543
v 1.171047 0.664953 0.156889
v 0.915105 0.650490 0.129331
v 0.948844 1.118041 0.267967
v 1.005020 0.968112 0.422717
v 0.999223 0.853136 0.479359
v 0.918563 0.770994 0.422717
v 0.770014 0.710315 0.267967
v 0.669457 1.240581 0.267966
v 0.521108 1.180358 0.422717
v 0.440449 1.098217 0.479359
v 0.434651 0.983240 0.422717
v 0.490627 0.832856 0.267967
v 1.204875 0.880454 -0.084068
v 1.236508 0.749061 -0.084068
v 1.156538 0.666130 -0.036852
v 0.918615 0.650857 0.013213
v 1.056589 1.075277 -0.031983
vn 0.3502 -0.0000 0.9367
vn 0.6568 -0.0000 0.7541
vn 0.7241 0.4132 0.5522
vn 0.3930 0.5383 0.7455
vn 0.8814 -0.0000 0.4724
vn 1.0000 -0.0000 -0.0024
vn 0.9342 0.2380 0.2658
vn -1.0000 -0.0000 -0.0000
vn -0.8814 -0.0000 0.4724
vn -0.9342 0.2380 0.2658
vn -0.6568 -0.0000 0.7541
vn -0.3502 -0.0000 0.9367
vn -0.3930 0.5383 0.7455
vn -0.7241 0.4132 0.5522
vn -0.0000 -0.0000 1.0000
vn -0.0000 0.5829 0.8126
vn -0.3947 0.9188 -0.0000
vn -0.7276 0.6860 -0.0000
vn 0.3947 0.9188 -0.0000
vn -0.0000 1.0000 -0.0000
vn 0.9435 0.3313 -0.0083
vn 0.7276 0.6860 -0.0000
vn -0.9412 0.3379 -0.0000
vn -0.7241 0.4132 -0.5522
vn -0.9342 0.2380 -0.2658
vn -0.0000 0.5829 -0.8126
vn -0.3930 0.5383 -0.7455
vn 0.7241 0.4132 -0.5522
vn 0.3930 0.5383 -0.7455
vn 0.8763 -0.0542 -0.4786
vn 0.9558 0.0934 0.2786
vn 0.9341 0.1446 0.3263
vn 0.7563 0.1629 -0.6336
vn 0.9226 0.2665 -0.2789
vn -0.0000 -0.0000 -1.0000
vn -0.3502 -0.0000 -0.9367
vn 0.6568 -0.0000 -0.7541
vn 0.3502 -0.0000 -0.9367
vn 0.7070 -0.0000 -0.7072
vn 0.4547 -0.0000 -0.8906
vn -0.8814 -0.0000 -0.4724
vn -0.6568 -0.0000 -0.7541
vn 0.8749 -0.0000 -0.4843
vn -0.9342 -0.2380 -0.2658
vn -0.3930 -0.5383 -0.7455
vn -0.7241 -0.4132 -0.5522
vn 0.3930 -0.5383 -0.7455
vn -0.0000 -0.5829 -0.8126
vn 0.9226 -0.2665 -0.2789
vn 0.7241 -0.4132 -0.5522
vn 0.9558 -0.0934 0.2786
vn 0.8763 0.0542 -0.4786
vn 0.7563 -0.1629 -0.6336
vn 0.9341 -0.1446 0.3263
vn 0.3947 -0.9188 -0.0000
vn -0.0000 -1.0000 -0.0000
vn 0.9435 -0.3313 -0.0083
vn 0.7276 -0.6860 -0.0000
vn -0.7276 -0.6860 -0.0000
vn -0.9412 -0.3379 -0.0000
vn -0.3947 -0.9188 -0.0000
vn 0.9930 -0.0000 0.1180
vn 0.5706 -0.0000 0.8212
vn -0.7241 -0.4132 0.5522
vn -0.9342 -0.2380 0.2658
vn -0.0000 -0.5829 0.8126
vn -0.3930 -0.5383 0.7455
vn 0.7241 -0.4132 0.5522
vn 0.3930 -0.5383 0.7455
vn 0.9342 -0.2380 0.2658
vn 0.5802 0.1218 0.8053
vn 0.8095 0.1472 0.5684
vn 0.6320 0.0903 0.7697
vn -0.0000 0.2226 0.9749
vn -0.5633 0.1460 0.8133
vn -0.6320 0.0903 0.7697
vn 0.2751 0.3517 0.8948
vn 0.7371 0.3428 0.5824
vn 0.6306 0.3786 0.6775
vn -0.0000 0.5803 0.8144
vn -0.6086 0.3542 0.7100
vn -0.6306 0.3786 0.6775
vn 0.2124 0.6696 0.7117
vn 0.7267 0.5512 0.4100
vn 0.6482 0.6146 0.4495
vn -0.0000 0.8527 0.5225
vn -0.6379 0.5778 0.5091
vn -0.6482 0.6146 0.4495
vn 0.2100 0.9350 0.2856
vn 0.7260 0.6647 0.1765
vn 0.6186 0.7522 -0.2270
vn -0.0000 0.9542 -0.2990
vn -0.6587 0.7079 0.2548
vn -0.6186 0.7522 -0.2270
vn 0.1986 -0.9378 0.2847
vn 0.7314 -0.6800 0.0517
vn 0.5543 -0.6794 0.4807
vn -0.0000 -0.9778 0.2094
vn -0.6725 -0.7401 -0.0068
vn -0.6903 -0.6851 0.2327
vn 0.1757 -0.6678 0.7233
vn 0.7468 -0.5968 0.2934
vn 0.5344 -0.4310 0.7271
vn -0.0000 -0.7817 0.6237
vn -0.6857 -0.6772 0.2669
vn -0.7061 -0.4834 0.5175
vn 0.3394 0.0798 0.9372
vn 0.7851 -0.1205 0.6075
vn -0.7847 -0.1206 0.6080
vn -0.7001 -0.4986 0.5112
vn -0.0000 -0.0000 -0.0000
vn -0.1611 -0.3316 0.9295
vn -0.7378 -0.2079 0.6422
vn -0.8652 -0.0901 0.4932
vn -0.0000 0.0064 1.0000
vn -0.7992 -0.0004 0.6011
vn -0.6665 -0.1627 0.7276
vn 0.4621 0.0946 0.8818
vn 0.9318 -0.0738 0.3555
vn 0.7706 -0.4112 0.4870
vn 0.5044 -0.1428 0.8516
vn -0.3505 -0.1174 0.9292
vn -0.7097 -0.3917 0.5855
vn 0.8400 -0.2646 0.4736
vn -0.0000 -0.8199 -0.5725
vn 0.5466 -0.6828 -0.4848
vn -0.5466 -0.6828 -0.4848
vn 0.0632 -0.9980 -0.0000
vn -0.3369 -0.9415 -0.0000
vn 0.0614 -0.6628 -0.7463
vn 0.2526 -0.8765 -0.4098
vn -0.9950 -0.0995 -0.0000
vn -0.9540 0.2998 -0.0000
vn -0.6882 0.3697 -0.6243
vn -0.4310 -0.0430 -0.9013
vn -0.7472 0.6646 -0.0000
vn -0.3311 0.9436 -0.0004
vn -0.5822 0.7212 -0.3755
vn 0.8377 -0.5456 -0.0235
vn -0.0020 0.6176 -0.7865
vn 0.3724 0.0565 -0.9264
vn -0.3170 0.8594 -0.4012
vn 0.5511 -0.7396 -0.3864
vn 0.6123 -0.3894 -0.6881
vn 0.1014 0.5162 0.8504
vn 0.5116 -0.1260 0.8500
vn 0.9863 0.1369 -0.0925
vn 0.8918 -0.0475 0.4498
vn 0.1709 0.7850 0.5954
vn 0.5164 -0.1685 -0.8396
vn 0.5426 -0.7396 0.3983
vn 0.8946 -0.0404 -0.4450
vn 0.9300 0.1726 0.3246
vn 0.4367 0.0353 0.8989
vn 0.6397 -0.3722 0.6725
vn 0.1082 0.6281 -0.7705
vn 0.1440 0.4536 -0.8795
vn -0.2333 0.8792 0.4153
vn -0.0134 0.6925 0.7213
vn 0.2526 -0.8765 0.4098
vn -0.4310 -0.0430 0.9013
vn 0.0614 -0.6628 0.7463
vn -0.5822 0.7212 0.3755
vn -0.6882 0.3697 0.6243
vn -0.7257 -0.6880 -0.0000
vn -0.9441 -0.3295 -0.0000
vn -0.6677 -0.3966 -0.6301
vn -0.5554 -0.7408 -0.3777
vn -0.9961 0.0880 -0.0000
vn -0.3690 0.9294 -0.0000
vn 0.0363 0.6674 -0.7439
vn -0.4373 0.0400 -0.8984
vn 0.0301 0.9995 -0.0000
vn 0.7958 0.6047 0.0322
vn 0.2229 0.8853 -0.4080
vn -0.2761 -0.9611 0.0008
vn 0.5807 0.3866 -0.7165
vn 0.3856 -0.0258 -0.9223
vn 0.4917 0.7777 -0.3917
vn -0.2433 -0.8779 -0.4123
vn -0.0833 -0.6383 -0.7653
vn 0.5010 0.3180 0.8049
vn 0.2228 -0.3151 0.9226
vn 0.9686 -0.0788 0.2357
vn 0.4234 -0.2598 0.8679
vn 0.8843 0.3464 0.3131
vn 0.2135 -0.3896 -0.8959
vn -0.2489 -0.8731 0.4193
vn 0.4750 -0.2787 -0.8347
vn 0.9979 -0.0624 -0.0176
vn 0.3521 -0.0491 0.9347
vn -0.0219 -0.6486 0.7608
vn 0.8248 0.3310 -0.4584
vn 0.4687 0.2593 -0.8444
vn 0.5465 0.7392 0.3937
vn 0.6633 0.4145 0.6231
vn -0.5554 -0.7408 0.3777
vn -0.4373 0.0400 0.8984
vn -0.6677 -0.3966 0.6301
vn 0.2229 0.8853 0.4080
vn 0.0363 0.6674 0.7439
vt 0.519262 0.815338
vt 0.519262 0.752118
vt 0.665083 0.691717
vt 0.709786 0.736420
vt 0.519262 0.657503
vt 0.519262 0.545896
vt 0.598180 0.624814
vt 0.899875 0.110358
vt 0.899875 0.140015
vt 0.878904 0.131329
vt 0.899875 0.165158
vt 0.899875 0.181957
vt 0.849246 0.160986
vt 0.861126 0.149107
vt 0.519262 0.837538
vt 0.725484 0.752118
vt 0.828275 0.110358
vt 0.845075 0.110358
vt 0.788704 0.545896
vt 0.810904 0.545896
vt 0.630869 0.545896
vt 0.725484 0.545896
vt 0.870218 0.110358
vt 0.861126 0.071608
vt 0.878904 0.089386
vt 0.725484 0.339674
vt 0.709786 0.355371
vt 0.665083 0.400075
vt 0.709786 0.355371
vt 0.057173 0.064763
vt 0.064281 0.085802
vt 0.029207 0.127951
vt 0.019230 0.037907
vt 0.849246 0.059729
vt 0.598180 0.466978
vt 0.519262 0.254254
vt 0.519262 0.276454
vt 0.519262 0.339674
vt 0.067575 0.065447
vt 0.066685 0.022586
vt 0.899875 0.080700
vt 0.899875 0.038758
vt 0.899875 0.055557
vt 0.519262 0.434289
vt 0.920846 0.089386
vt 0.950504 0.059729
vt 0.938625 0.071608
vt 0.328738 0.355371
vt 0.313040 0.339674
vt 0.440344 0.466978
vt 0.373441 0.400075
vt 0.328738 0.355371
vt 0.075972 0.084471
vt 0.081447 0.063475
vt 0.115725 0.032305
vt 0.115725 0.121792
vt 0.249820 0.545896
vt 0.227620 0.545896
vt 0.407655 0.545896
vt 0.313040 0.545896
vt 0.954675 0.110358
vt 0.929533 0.110358
vt 0.070455 0.087358
vt 0.074016 0.135617
vt 0.971475 0.110358
vt 0.938625 0.149107
vt 0.920846 0.131329
vt 0.313040 0.752118
vt 0.328738 0.736420
vt 0.373441 0.691717
vt 0.328738 0.736420
vt 0.440344 0.624814
vt 0.950504 0.160986
vt 0.579138 0.530399
vt 0.548846 0.472619
vt 0.527666 0.456883
vt 0.483565 0.472025
vt 0.459386 0.530399
vt 0.519975 0.530399
vt 0.137085 0.166918
vt 0.081833 0.166918
vt 0.117841 0.048713
vt 0.089013 0.014722
vt 0.057113 0.045848
vt 0.026826 0.161717
vt 0.912796 0.551671
vt 0.877302 0.545617
vt 0.874328 0.534981
vt 0.912796 0.538802
vt 0.948290 0.545617
vt 0.951264 0.534981
vt 0.912796 0.528536
vt 0.861202 0.509473
vt 0.856406 0.480729
vt 0.912796 0.492189
vt 0.964390 0.509473
vt 0.969186 0.480729
vt 0.912796 0.471621
vt 0.848042 0.435720
vt 0.846653 0.389703
vt 0.912796 0.401630
vt 0.977550 0.435720
vt 0.978939 0.389703
vt 0.912796 0.355018
vt 0.844341 0.335352
vt 0.845882 0.282677
vt 0.912796 0.284025
vt 0.981251 0.335352
vt 0.979709 0.282677
vt 0.912796 0.770769
vt 0.844359 0.790223
vt 0.846645 0.735865
vt 0.912796 0.723987
vt 0.981233 0.790223
vt 0.978947 0.735865
vt 0.912796 0.653865
vt 0.848007 0.689783
vt 0.856311 0.644677
vt 0.912796 0.633171
vt 0.977585 0.689783
vt 0.969281 0.644677
vt 0.912796 0.557452
vt 0.884830 0.557646
vt 0.940762 0.557646
vt 0.964494 0.615792
vt 0.912796 0.596608
vt 0.912796 0.586311
vt 0.951358 0.590162
vt 0.940783 0.567377
vt 0.912796 0.567565
vt 0.912796 0.562509
vt 0.940913 0.562509
vt 0.884809 0.567377
vt 0.884678 0.562509
vt 0.861098 0.615792
vt 0.874234 0.590162
vt 0.912796 0.573358
vt 0.948360 0.579452
vt 0.877232 0.579452
vt 0.912796 0.841623
vt 0.845917 0.842888
vt 0.979675 0.842888
vt 0.625953 0.062363
vt 0.625953 0.091817
vt 0.596500 0.091817
vt 0.596500 0.062363
vt 0.625953 0.121271
vt 0.625953 0.150724
vt 0.596500 0.150724
vt 0.596500 0.121271
vt 0.625953 0.180178
vt 0.611227 0.209631
vt 0.596500 0.180178
vt 0.611227 0.032910
vt 0.567046 0.150724
vt 0.567046 0.121271
vt 0.581773 0.209631
vt 0.567046 0.180178
vt 0.581773 0.032910
vt 0.567046 0.062363
vt 0.567046 0.091817
vt 0.552319 0.209631
vt 0.537592 0.180178
vt 0.552319 0.032910
vt 0.537592 0.062363
vt 0.537592 0.121271
vt 0.537592 0.091817
vt 0.537592 0.150724
vt 0.699588 0.032910
vt 0.714314 0.062363
vt 0.684861 0.062363
vt 0.714314 0.091817
vt 0.714314 0.121271
vt 0.684861 0.121271
vt 0.684861 0.091817
vt 0.714314 0.150724
vt 0.714314 0.180178
vt 0.684861 0.180178
vt 0.684861 0.150724
vt 0.699588 0.209631
vt 0.670134 0.032910
vt 0.655407 0.062363
vt 0.655407 0.121271
vt 0.655407 0.091817
vt 0.655407 0.180178
vt 0.655407 0.150724
vt 0.670134 0.209631
vt 0.640680 0.032910
vt 0.640680 0.209631
vt 0.522866 0.032910
s 1
g krabMesh_krabMat
usemtl krabMat
f 3/1/1 2/2/2 9/3/3 10/4/4
f 57/5/5 64/6/6 8/7/7
f 7/8/8 58/9/9 14/10/10
f 6/11/11 5/12/12 12/13/13 13/14/14
f 4/15/15 3/1/1 10/4/4 11/16/16
f 2/2/2 57/5/5 8/7/7 9/3/3
f 58/9/9 6/11/11 13/14/14 14/10/10
f 5/1/12 4/15/15 11/16/16 12/4/13
f 13/14/14 12/13/13 19/17/17 20/18/18
f 11/16/16 10/4/4 17/19/19 18/20/20
f 9/3/3 8/7/7 60/21/21 16/22/22
f 14/10/10 13/14/14 20/18/18 21/23/23
f 12/4/13 11/16/16 18/20/20 19/19/17
f 10/4/4 9/3/3 16/22/22 17/19/19
f 8/7/7 64/6/6 60/21/21
f 7/8/8 14/10/10 21/23/23
f 21/23/23 20/18/18 27/24/24 28/25/25
f 19/19/17 18/20/20 25/26/26 26/27/27
f 17/19/19 16/22/22 23/28/28 24/29/29
f 43/30/30 36/31/31 68/32/32 70/33/33
f 7/8/8 21/23/23 28/25/25
f 20/18/18 19/17/17 26/34/27 27/24/24
f 18/20/20 17/19/19 24/29/29 25/26/26
f 16/22/22 60/21/21 59/35/34 23/28/28
f 26/27/27 25/26/26 32/36/35 33/37/36
f 24/29/29 23/28/28 30/38/37 31/37/38
f 1/39/39 43/30/30 70/33/33 65/40/40
f 7/8/8 28/25/25 35/41/41
f 27/24/24 26/34/27 33/42/36 34/43/42
f 25/26/26 24/29/29 31/37/38 32/36/35
f 23/28/28 59/35/34 61/44/43 30/38/37
f 28/25/25 27/24/24 34/43/42 35/41/41
f 7/8/8 35/41/41 42/45/44
f 34/43/42 33/42/36 40/46/45 41/47/46
f 32/36/35 31/37/38 38/48/47 39/49/48
f 30/38/37 61/44/43 62/50/49 37/51/50
f 35/41/41 34/43/42 41/47/46 42/45/44
f 33/37/36 32/36/35 39/49/48 40/52/45
f 31/37/38 30/38/37 37/51/50 38/48/47
f 22/53/51 15/54/52 69/55/53 66/56/54
f 39/49/48 38/48/47 45/57/55 46/58/56
f 37/51/50 62/50/49 63/59/57 44/60/58
f 42/45/44 41/47/46 48/61/59 49/62/60
f 40/52/45 39/49/48 46/58/56 47/57/61
f 38/48/47 37/51/50 44/60/58 45/57/55
f 36/31/31 29/63/62 67/64/63 68/32/32
f 7/8/8 42/45/44 49/62/60
f 41/47/46 40/46/45 47/65/61 48/61/59
f 49/62/60 48/61/59 55/66/64 56/67/65
f 47/57/61 46/58/56 53/68/66 54/69/67
f 45/57/55 44/60/58 51/70/68 52/71/69
f 63/59/57 64/6/6 50/72/70
f 7/8/8 49/62/60 56/67/65
f 48/61/59 47/65/61 54/73/67 55/66/64
f 46/58/56 45/57/55 52/71/69 53/68/66
f 44/60/58 63/59/57 50/72/70 51/70/68
f 52/71/69 51/70/68 2/2/2 3/1/1
f 50/72/70 64/6/6 57/5/5
f 7/8/8 56/67/65 58/9/9
f 55/66/64 54/73/67 5/12/12 6/11/11
f 53/68/66 52/71/69 3/1/1 4/15/15
f 51/70/68 50/72/70 57/5/5 2/2/2
f 56/67/65 55/66/64 6/11/11 58/9/9
f 54/69/67 53/68/66 4/15/15 5/1/12
f 15/74/52 22/75/51 59/35/34 60/21/21
f 22/75/51 29/76/62 61/44/43 59/35/34
f 29/76/62 36/77/31 62/50/49 61/44/43
f 36/77/31 43/78/30 63/59/57 62/50/49
f 1/79/39 15/74/52 60/21/21 64/6/6
f 43/78/30 1/79/39 64/6/6 63/59/57
f 69/80/53 65/81/40 66/82/54
f 66/82/54 65/81/40 67/83/63
f 67/83/63 65/81/40 68/84/32
f 68/84/32 65/81/40 70/85/33
f 29/63/62 22/53/51 66/56/54 67/64/63
f 15/54/52 1/39/39 65/40/40 69/55/53
f 78/86/71 83/87/72 74/88/73 75/89/74
f 82/90/75 78/86/71 75/89/74 76/91/76
f 73/92/77 72/93/78 79/94/79 80/95/80
f 77/96/81 73/92/77 80/95/80 81/97/82
f 97/98/83 96/99/84 84/100/85 85/101/86
f 71/102/87 97/98/83 85/101/86 86/103/88
f 95/104/89 94/105/90 89/106/91 90/107/92
f 93/108/93 95/104/89 90/107/92 91/109/94
f 123/110/95 122/111/96 104/112/97 105/113/98
f 85/101/86 84/100/85 94/105/90 95/104/89
f 127/114/99 123/110/95 105/113/98 106/115/100
f 86/103/88 85/101/86 95/104/89 93/108/93
f 118/116/101 117/117/102 109/118/103 110/119/104
f 80/95/80 79/94/79 96/99/84 97/98/83
f 81/97/82 80/95/80 97/98/83 71/102/87
f 113/120/105 118/116/101 110/119/104 111/121/106
f 75/89/74 74/88/73 72/93/78 73/92/77
f 76/91/76 75/89/74 73/92/77 77/96/81
f 125/122/107 124/123/108 83/87/72 78/86/71
f 126/124/109 125/122/107 78/86/71 82/90/75
f 112/125/110 108/126/111 115/127/112 116/128/113
f 121/129/114 120/130/115 88/131/116 92/132/117
f 120/130/115 119/133/118 87/134/119 88/131/116
f 108/126/111 107/135/120 114/136/121 115/127/112
f 116/128/113 115/127/112 102/137/122 103/138/123
f 103/138/123 102/137/122 120/130/115 121/129/114
f 115/127/112 114/136/121 98/139/124 102/137/122
f 111/121/106 110/119/104 108/126/111 112/125/110
f 102/137/122 98/139/124 119/133/118 120/130/115
f 110/119/104 109/118/103 107/135/120 108/126/111
f 105/113/98 104/112/97 117/117/102 118/116/101
f 92/132/117 88/131/116 125/122/107 126/124/109
f 106/115/100 105/113/98 118/116/101 113/120/105
f 100/140/125 99/141/126 122/111/96 123/110/95
f 88/131/116 87/134/119 124/123/108 125/122/107
f 101/142/127 100/140/125 123/110/95 127/114/99
f 133/143/128 132/144/129 138/145/130 139/146/131
f 131/147/132 130/148/133 136/149/134 137/150/135
f 129/151/136 128/152/137 135/153/138
f 134/154/139 133/143/128 139/146/131
f 132/144/129 131/147/132 137/150/135 138/145/130
f 130/148/133 129/151/136 135/153/138 136/149/134
f 137/150/135 136/149/134 141/155/140 142/156/141
f 135/153/138 128/157/137 140/158/142
f 134/159/139 139/146/131 144/160/143
f 138/145/130 137/150/135 142/156/141 143/161/144
f 136/149/134 135/153/138 140/158/142 141/155/140
f 139/146/131 138/145/130 143/161/144 144/160/143
f 140/158/142 128/162/137 164/163/145
f 134/164/139 144/160/143 163/165/146
f 143/161/144 142/156/141 161/166/147 162/167/148
f 141/155/140 140/158/142 164/163/145 160/168/149
f 144/160/143 143/161/144 162/167/148 163/165/146
f 142/156/141 141/155/140 160/168/149 161/166/147
f 134/169/139 149/170/150 154/171/151
f 148/172/152 147/173/153 152/174/154 153/175/155
f 146/176/156 145/177/157 150/178/158 151/179/159
f 149/170/150 148/172/152 153/175/155 154/171/151
f 147/173/153 146/176/156 151/179/159 152/174/154
f 145/177/157 128/180/137 150/178/158
f 134/181/139 154/171/151 159/182/160
f 153/175/155 152/174/154 157/183/161 158/184/162
f 151/179/159 150/178/158 155/185/163 156/186/164
f 154/171/151 153/175/155 158/184/162 159/182/160
f 152/174/154 151/179/159 156/186/164 157/183/161
f 150/178/158 128/187/137 155/185/163
f 134/188/139 159/182/160 133/143/128
f 158/184/162 157/183/161 131/147/132 132/144/129
f 156/186/164 155/185/163 129/151/136 130/148/133
f 159/182/160 158/184/162 132/144/129 133/143/128
f 157/183/161 156/186/164 130/148/133 131/147/132
f 155/185/163 128/189/137 129/151/136
f 128/180/137 145/177/157 149/170/150 134/169/139
f 145/177/157 146/176/156 148/172/152 149/170/150
f 147/173/153 148/172/152 146/176/156
f 163/165/146 164/163/145 128/162/137 134/190/139
f 164/163/145 163/165/146 162/167/148 160/168/149
f 161/166/147 160/168/149 162/167/148
f 170/143/165 169/144/166 175/145/167 176/146/168
f 168/147/169 167/148/170 173/149/171 174/150/172
f 166/151/173 165/152/174 172/153/175
f 171/154/176 170/143/165 176/146/168
f 169/144/166 168/147/169 174/150/172 175/145/167
f 167/148/170 166/151/173 172/153/175 173/149/171
f 174/150/172 173/149/171 178/155/177 179/156/178
f 172/153/175 165/157/174 177/158/179
f 171/159/176 176/146/168 181/160/180
f 175/145/167 174/150/172 179/156/178 180/161/181
f 173/149/171 172/153/175 177/158/179 178/155/177
f 176/146/168 175/145/167 180/161/181 181/160/180
f 177/158/179 165/162/174 201/163/182
f 171/164/176 181/160/180 200/165/183
f 180/161/181 179/156/178 198/166/184 199/167/185
f 178/155/177 177/158/179 201/163/182 197/168/186
f 181/160/180 180/161/181 199/167/185 200/165/183
f 179/156/178 178/155/177 197/168/186 198/166/184
f 171/169/176 186/170/187 191/171/188
f 185/172/189 184/173/190 189/174/191 190/175/192
f 183/176/193 182/177/194 187/178/195 188/179/196
f 186/170/187 185/172/189 190/175/192 191/171/188
f 184/173/190 183/176/193 188/179/196 189/174/191
f 182/177/194 165/180/174 187/178/195
f 171/181/176 191/171/188 196/182/197
f 190/175/192 189/174/191 194/183/198 195/184/199
f 188/179/196 187/178/195 192/185/200 193/186/201
f 191/171/188 190/175/192 195/184/199 196/182/197
f 189/174/191 188/179/196 193/186/201 194/183/198
f 187/178/195 165/187/174 192/185/200
f 171/188/176 196/182/197 170/143/165
f 195/184/199 194/183/198 168/147/169 169/144/166
f 193/186/201 192/185/200 166/151/173 167/148/170
f 196/182/197 195/184/199 169/144/166 170/143/165
f 194/183/198 193/186/201 167/148/170 168/147/169
f 192/185/200 165/189/174 166/151/173
f 165/180/174 182/177/194 186/170/187 171/169/176
f 182/177/194 183/176/193 185/172/189 186/170/187
f 184/173/190 185/172/189 183/176/193
f 200/165/183 201/163/182 165/162/174 171/190/176
f 201/163/182 200/165/183 199/167/185 197/168/186
f 198/166/184 197/168/186 199/167/185
