# Blender 5.0.1
# www.blender.org
mtllib model.mtl
o mushroomMesh
v -42.882431 3.655384 21.390150
v -42.334099 4.605121 19.111853
v -51.845280 3.655384 21.390150
v -52.393612 4.605121 19.111853
v -56.326725 -4.106656 21.390150
v -57.423389 -4.106656 19.111853
v -51.845280 -11.868695 21.390150
v -52.393612 -12.818431 19.111853
v -42.882431 -11.868695 21.390150
v -42.334099 -12.818431 19.111853
v -38.400986 -4.106656 21.390150
v -37.304317 -4.106656 19.111853
v -42.531387 4.263379 17.604223
v -52.196365 4.263379 17.604223
v -57.028847 -4.106666 17.604223
v -52.196365 -12.476717 17.604223
v -42.531387 -12.476717 17.604223
v -37.698906 -4.106666 17.604223
v -45.081104 -0.152801 14.458155
v -49.646645 -0.152801 14.458155
v -51.929417 -4.106661 14.458155
v -49.646645 -8.060517 14.458155
v -45.081104 -8.060517 14.458155
v -42.798332 -4.106661 14.458155
v -45.482941 -0.848802 6.509712
v -49.244808 -0.848802 6.509712
v -51.125744 -4.106656 6.509712
v -49.244808 -7.364509 6.509712
v -45.482941 -7.364509 6.509712
v -43.602009 -4.106656 6.509712
v -45.439999 -4.106656 11.902590
v -46.401943 -2.440529 11.902590
v -49.287777 -4.106656 11.902590
v -48.325825 -5.772782 11.902590
v -46.401943 -5.772782 11.902590
v -48.325825 -2.440529 11.902590
v -158.115677 18.311794 46.701771
v -157.368912 19.605225 44.423473
v -164.770309 18.311794 46.701771
v -165.517075 19.605225 44.423473
v -168.097641 12.548726 46.701771
v -169.591171 12.548726 44.423473
v -164.770309 6.785657 46.701771
v -165.517075 5.492228 44.423473
v -158.115677 6.785657 46.701771
v -157.368912 5.492228 44.423473
v -154.788345 12.548726 46.701771
v -153.294815 12.548726 44.423473
v -157.039124 20.176414 39.679794
v -165.846893 20.176414 39.679794
v -170.250763 12.548723 39.679794
v -165.846893 4.921031 39.679794
v -157.039124 4.921031 39.679794
v -152.635254 12.548723 39.679794
v -159.363068 16.151257 36.679512
v -163.522949 16.151257 36.679512
v -165.602875 12.548725 36.679512
v -163.522949 8.946194 36.679512
v -159.363068 8.946194 36.679512
v -157.283142 12.548725 36.679512
v -160.721222 13.798884 17.169479
v -162.164795 13.798884 17.169479
v -162.886581 12.548726 17.169479
v -162.164795 11.298568 17.169479
v -160.721222 11.298568 17.169479
v -159.999435 12.548726 17.169479
v -160.447281 14.273366 4.552028
v -162.438736 14.273366 4.552028
v -163.434464 12.548726 4.552028
v -162.438736 10.824086 4.552028
v -160.447281 10.824086 4.552028
v -159.451553 12.548726 4.552028
v -175.707855 40.538361 32.744808
v -174.888840 41.956940 30.466511
v -182.362488 40.538361 32.744808
v -183.181519 41.956940 30.466511
v -185.689819 34.775291 32.744808
v -187.327866 34.775291 30.466511
v -182.362488 29.012222 32.744808
v -183.181519 27.593641 30.466511
v -175.707855 29.012222 32.744808
v -174.888840 27.593641 30.466511
v -172.380524 34.775291 32.744808
v -170.742477 34.775291 30.466511
v -174.817474 42.080509 26.523102
v -183.252899 42.080509 26.523102
v -187.470596 34.775284 26.523102
v -183.252899 27.470053 26.523102
v -174.817474 27.470053 26.523102
v -170.599777 34.775284 26.523102
v -177.340302 37.710903 23.259668
v -180.730072 37.710903 23.259668
v -182.424957 34.775288 23.259668
v -180.730072 31.839674 23.259668
v -177.340302 31.839674 23.259668
v -175.645416 34.775288 23.259668
v -178.039459 36.499931 3.212517
v -180.030914 36.499931 3.212517
v -181.026642 34.775291 3.212517
v -180.030914 33.050652 3.212517
v -178.039459 33.050652 3.212517
v -177.043732 34.775291 3.212517
v -159.479721 12.548725 32.339832
v -160.461365 14.248979 32.339832
v -163.406311 12.548725 32.339832
v -162.424667 10.848472 32.339832
v -160.461365 10.848472 32.339832
v -162.424667 14.248979 32.339832
v -177.239487 34.775291 19.297695
v -178.137344 36.330410 19.297695
v -180.830902 34.775291 19.297695
v -179.933044 33.220173 19.297695
v -178.137344 33.220173 19.297695
v -179.933044 36.330410 19.297695
v -165.938019 -37.739906 36.984951
v -165.137726 -36.353756 34.706654
v -172.592651 -37.739906 36.984951
v -173.392944 -36.353756 34.706654
v -175.919983 -43.502975 36.984951
v -177.520569 -43.502975 34.706654
v -172.592651 -49.266045 36.984951
v -173.392944 -50.652191 34.706654
v -165.938019 -49.266045 36.984951
v -165.137726 -50.652191 34.706654
v -162.610687 -43.502975 36.984951
v -161.010086 -43.502975 34.706654
v -164.861465 -35.875286 29.962975
v -173.669235 -35.875286 29.962975
v -178.073105 -43.502975 29.962975
v -173.669235 -51.130669 29.962975
v -164.861465 -51.130669 29.962975
v -160.457596 -43.502975 29.962975
v -167.185410 -39.900444 26.962692
v -171.345291 -39.900444 26.962692
v -173.425217 -43.502975 26.962692
v -171.345291 -47.105507 26.962692
v -167.185410 -47.105507 26.962692
v -165.105484 -43.502975 26.962692
v -168.543564 -42.252815 7.452660
v -169.987137 -42.252815 7.452660
v -170.708923 -43.502975 7.452660
v -169.987137 -44.753132 7.452660
v -168.543564 -44.753132 7.452660
v -167.821777 -43.502975 7.452660
v -168.269623 -41.778336 -0.448098
v -170.261078 -41.778336 -0.448098
v -171.256805 -43.502975 -0.448098
v -170.261078 -45.227615 -0.448098
v -168.269623 -45.227615 -0.448098
v -167.273895 -43.502975 -0.448098
v -167.302063 -43.502975 22.623013
v -168.283707 -41.802723 22.623013
v -171.228653 -43.502975 22.623013
v -170.247009 -45.203228 22.623013
v -168.283707 -45.203228 22.623013
v -170.247009 -41.802723 22.623013
v -135.365921 -53.477451 44.933853
v -134.477722 -51.935219 42.655556
v -142.020554 -53.477451 44.933853
v -142.914337 -51.935219 42.655556
v -145.347885 -59.240520 44.933853
v -147.132660 -59.241531 42.655556
v -142.020554 -65.003586 44.933853
v -142.914337 -66.547836 42.655556
v -135.303391 -64.980988 44.933857
v -134.398438 -66.519188 42.655560
v -132.038589 -59.240520 44.933853
v -130.259384 -59.241531 42.655556
v -134.289368 -51.612831 37.911877
v -143.097137 -51.612831 37.911877
v -147.501007 -59.240520 37.911877
v -143.097137 -66.868210 37.911877
v -134.289368 -66.868210 37.911877
v -129.885498 -59.240520 37.911877
v -136.613312 -55.637989 34.911594
v -140.773193 -55.637989 34.911594
v -142.853119 -59.240520 34.911594
v -140.773193 -62.843052 34.911594
v -136.613312 -62.843052 34.911594
v -134.533386 -59.240520 34.911594
v -137.971466 -57.990360 15.401564
v -139.415039 -57.990360 15.401564
v -140.136826 -59.240520 15.401564
v -139.415039 -60.490677 15.401564
v -137.971466 -60.490677 15.401564
v -137.249680 -59.240520 15.401564
v -137.697525 -57.515881 2.784112
v -139.688980 -57.515881 2.784112
v -140.684708 -59.240520 2.784112
v -139.688980 -60.965160 2.784112
v -137.697525 -60.965160 2.784112
v -136.701797 -59.240520 2.784112
v -136.729965 -59.240520 30.571915
v -137.711609 -57.540268 30.571915
v -140.656555 -59.240520 30.571915
v -139.674911 -60.940773 30.571915
v -137.711609 -60.940773 30.571915
v -139.674911 -57.540268 30.571915
v -95.187935 -54.197853 37.002182
v -94.311287 -52.692085 34.723881
v -101.904984 -54.247562 37.002186
v -102.770836 -52.754688 34.723888
v -105.232315 -60.010632 37.002186
v -106.961319 -60.012779 34.723888
v -101.904984 -65.773697 37.002186
v -102.770836 -67.270866 34.723888
v -95.278862 -65.806618 36.974792
v -94.389893 -67.270866 34.723888
v -91.951530 -60.043552 36.974792
v -90.199402 -60.012779 34.723888
v -94.173798 -52.382942 29.980211
v -102.981567 -52.382942 29.980211
v -107.385437 -60.010632 29.980211
v -102.981567 -67.638321 29.980211
v -94.173798 -67.638321 29.980211
v -89.769928 -60.010632 29.980211
v -96.497742 -56.408100 26.979929
v -100.657623 -56.408100 26.979929
v -102.737549 -60.010632 26.979929
v -100.657623 -63.613163 26.979929
v -96.497742 -63.613163 26.979929
v -94.417816 -60.010632 26.979929
v -97.855896 -58.760471 7.469898
v -99.299469 -58.760471 7.469898
v -100.021255 -60.010632 7.469898
v -99.299469 -61.260788 7.469898
v -97.855896 -61.260788 7.469898
v -97.134109 -60.010632 7.469898
v -97.581955 -58.285992 2.996650
v -99.573410 -58.285992 2.996650
v -100.569138 -60.010632 2.996650
v -99.573410 -61.735271 2.996650
v -97.581955 -61.735271 2.996650
v -96.586227 -60.010632 2.996650
v -96.614395 -60.010632 22.640249
v -97.596039 -58.310379 22.640249
v -100.540985 -60.010632 22.640249
v -99.559341 -61.710884 22.640249
v -97.596039 -61.710884 22.640249
v -99.559341 -58.310379 22.640249
vn 0.7994 -0.4615 0.3848
vn -0.0000 -0.9753 -0.2210
vn -0.7994 -0.4615 0.3848
vn -0.7994 0.4615 0.3848
vn -0.0000 0.9230 0.3848
vn 0.7993 0.4615 0.3848
vn -0.0000 -0.9230 0.3848
vn 0.7994 0.4615 0.3848
vn -0.0000 0.9753 -0.2211
vn -0.8446 -0.4876 -0.2210
vn 0.8446 -0.4876 -0.2211
vn 0.8446 0.4876 -0.2211
vn -0.8446 0.4876 -0.2210
vn 0.5025 0.2901 -0.8145
vn -0.5025 0.2901 -0.8145
vn 0.5025 -0.2901 -0.8145
vn -0.5025 -0.2901 -0.8145
vn -0.0000 0.5802 -0.8145
vn -0.0000 -0.5802 -0.8145
vn 0.8306 0.4795 0.2831
vn -0.8306 -0.4796 0.2831
vn -0.0000 -0.9591 0.2831
vn 0.8306 -0.4795 0.2831
vn -0.8306 0.4796 0.2831
vn -0.0000 0.9591 0.2831
vn -0.0000 0.7451 -0.6670
vn -0.6453 0.3725 -0.6670
vn 0.6452 -0.3725 -0.6670
vn -0.0000 -0.7451 -0.6670
vn -0.6452 -0.3725 -0.6670
vn 0.6452 0.3725 -0.6670
vn 0.7531 -0.4348 0.4937
vn -0.0000 -0.8696 0.4937
vn -0.7531 -0.4348 0.4937
vn -0.7531 0.4348 0.4937
vn -0.0000 0.8696 0.4937
vn 0.7531 0.4348 0.4937
vn -0.0000 0.9928 0.1195
vn -0.8598 -0.4964 0.1196
vn 0.8598 -0.4964 0.1195
vn 0.8598 0.4964 0.1196
vn -0.0000 -0.9928 0.1195
vn -0.8598 0.4964 0.1196
vn 0.5176 0.2988 -0.8018
vn -0.5176 0.2988 -0.8018
vn 0.5176 -0.2988 -0.8018
vn -0.5176 -0.2988 -0.8018
vn -0.0000 0.5976 -0.8018
vn -0.0000 -0.5976 -0.8018
vn 0.8656 0.4998 -0.0297
vn -0.8656 -0.4998 -0.0297
vn -0.0000 -0.9996 -0.0297
vn 0.8656 -0.4998 -0.0297
vn -0.8656 0.4998 -0.0297
vn -0.0000 0.9996 -0.0297
vn 0.8654 -0.4996 0.0376
vn -0.8654 0.4996 0.0376
vn -0.0000 0.9993 0.0376
vn 0.8654 0.4997 0.0376
vn -0.8654 -0.4997 0.0376
vn -0.0000 -0.9993 0.0376
vn 0.7352 -0.4244 0.5286
vn -0.0000 -0.8489 0.5286
vn -0.7352 -0.4244 0.5286
vn -0.7352 0.4244 0.5286
vn -0.0000 0.8489 0.5286
vn 0.7352 0.4245 0.5286
vn 0.7352 0.4244 0.5286
vn -0.0000 0.9995 0.0313
vn -0.8656 -0.4998 0.0313
vn 0.8656 -0.4998 0.0313
vn 0.8656 0.4998 0.0313
vn -0.0000 -0.9995 0.0313
vn -0.8656 0.4998 0.0313
vn 0.5182 0.2992 -0.8012
vn -0.5182 0.2992 -0.8012
vn 0.5182 -0.2992 -0.8012
vn -0.5182 -0.2992 -0.8012
vn -0.0000 0.5984 -0.8012
vn -0.0000 -0.5984 -0.8012
vn 0.8660 0.5000 0.0105
vn -0.8660 -0.5000 0.0105
vn -0.0000 -0.9999 0.0105
vn 0.8660 -0.5000 0.0105
vn -0.8660 0.5000 0.0105
vn -0.0000 0.9999 0.0105
vn -0.0000 0.9159 -0.4015
vn -0.7932 0.4579 -0.4015
vn 0.7932 -0.4579 -0.4015
vn -0.0000 -0.9159 -0.4015
vn -0.7932 -0.4579 -0.4015
vn 0.7932 0.4579 -0.4015
vn -0.0000 0.9443 -0.3290
vn -0.8178 0.4722 -0.3290
vn 0.8178 -0.4722 -0.3290
vn -0.0000 -0.9443 -0.3290
vn -0.8178 -0.4722 -0.3290
vn 0.8178 0.4722 -0.3290
vn -0.0000 -0.8543 0.5198
vn -0.7399 -0.4272 0.5198
vn -0.7398 0.4272 0.5198
vn -0.0000 0.8543 0.5198
vn 0.7398 0.4272 0.5198
vn -0.7399 0.4272 0.5198
vn 0.7399 0.4272 0.5198
vn -0.0000 0.9950 0.1004
vn -0.8617 -0.4975 0.1004
vn 0.8617 -0.4975 0.1004
vn 0.8617 0.4975 0.1004
vn -0.0000 -0.9950 0.1004
vn -0.8617 0.4975 0.1004
vn 0.8645 -0.4991 0.0599
vn -0.8645 0.4991 0.0599
vn -0.0000 0.9982 0.0599
vn 0.8645 0.4991 0.0599
vn -0.8645 -0.4991 0.0599
vn -0.0000 -0.9982 0.0599
vn 0.0028 -0.8283 0.5603
vn -0.7166 -0.4137 0.5616
vn -0.7167 0.4138 0.5613
vn -0.0000 0.8281 0.5606
vn 0.7174 0.4142 0.5601
vn -0.7166 -0.4137 0.5615
vn -0.0000 0.9977 0.0678
vn -0.8641 -0.4989 0.0670
vn 0.8672 -0.4932 0.0683
vn 0.8640 0.4988 0.0682
vn 0.0034 -0.9973 0.0735
vn -0.8641 0.4989 0.0672
vn 0.8654 -0.4997 0.0376
vn -0.8654 -0.4996 0.0376
vn -0.0000 -0.8382 0.5453
vn -0.7236 -0.4177 0.5495
vn -0.7239 0.4179 0.5490
vn -0.0062 0.8353 0.5497
vn 0.7280 0.4089 0.5503
vn -0.0019 -0.8354 0.5497
vn 0.7217 0.3969 0.5672
vn -0.0000 0.9969 0.0781
vn -0.8635 -0.4985 0.0770
vn 0.8634 -0.4985 0.0779
vn 0.8646 0.4992 0.0576
vn -0.0000 -0.9970 0.0772
vn -0.8634 0.4985 0.0774
vn 0.8612 -0.4972 0.1055
vn -0.8612 0.4972 0.1055
vn -0.0000 0.9944 0.1055
vn 0.8612 0.4972 0.1055
vn -0.8612 -0.4972 0.1055
vn -0.0000 -0.9944 0.1055
vn 0.7204 -0.4159 0.5551
vn 0.7191 -0.4090 0.5618
vn 0.7399 -0.4272 0.5198
vn 0.8446 -0.4876 -0.2210
vn -0.6452 0.3725 -0.6670
vn 0.8598 -0.4964 0.1196
vn 0.8598 0.4964 0.1195
vn -0.8654 0.4997 0.0376
vn 0.8654 0.4996 0.0376
vn 0.8646 -0.4992 0.0566
vn -0.0000 -0.9977 0.0674
vn -0.0074 0.9979 0.0648
vn 0.8692 0.4882 0.0789
vt 0.093684 0.505409
vt 0.927207 0.790776
vt 0.093684 0.790776
vt 0.927203 0.790775
vt 0.061039 0.987895
vt 0.093685 0.790774
vt 0.927209 0.987899
vt 0.093686 0.702531
vt 0.927209 0.702532
vt 0.927204 0.987898
vt 0.093681 0.702531
vt 0.927204 0.702531
vt 0.093689 0.505409
vt 0.927207 0.790774
vt 0.093689 0.790774
vt 0.927209 0.987898
vt 0.093686 0.702530
vt 0.927209 0.702530
vt 0.927207 0.505409
vt 0.093685 0.505409
vt 0.927203 0.505409
vt 0.093686 0.987899
vt 0.093681 0.987898
vt 0.927207 0.505409
vt 0.093686 0.987898
vt 0.959853 0.987894
vt 0.061039 0.987894
vt 0.959853 0.505409
vt 0.061039 0.987898
vt 0.959853 0.505409
vt 0.061039 0.505409
vt 0.606156 0.154206
vt 0.498913 0.282688
vt 0.500409 0.214425
vt 0.442255 0.060893
vt 0.382519 0.217520
vt 0.274877 0.154455
vt 0.439589 0.438677
vt 0.606156 0.345362
vt 0.274583 0.346461
vt 0.379964 0.286460
vt 0.439657 0.180768
vt 0.441784 0.318303
vt 0.450966 0.255671
vt 0.444846 0.249778
vt 0.452151 0.245226
vt 0.432415 0.245604
vt 0.439780 0.252787
vt 0.431226 0.257294
vt 0.442294 0.261994
vt 0.442593 0.253681
vt 0.444336 0.252058
vt 0.442561 0.247957
vt 0.440398 0.249920
vt 0.442004 0.238524
vt 0.199201 0.519731
vt 0.731778 0.657583
vt 0.199201 0.657583
vt 0.199201 0.519731
vt 0.731774 0.657583
vt 0.199201 0.657582
vt 0.731779 0.965986
vt 0.199202 0.828134
vt 0.731779 0.828134
vt 0.731775 0.965986
vt 0.199198 0.828134
vt 0.731775 0.828133
vt 0.199203 0.519731
vt 0.731776 0.657583
vt 0.199203 0.657583
vt 0.199199 0.519731
vt 0.731776 0.657584
vt 0.199199 0.657584
vt 0.731777 0.519731
vt 0.731774 0.519731
vt 0.199202 0.965986
vt 0.199198 0.965987
vt 0.731776 0.519731
vt 0.731776 0.519731
vt 0.817933 0.965983
vt 0.113044 0.965983
vt 0.817933 0.519731
vt 0.817934 0.965986
vt 0.113044 0.965986
vt 0.113044 0.965986
vt 0.113044 0.965983
vt 0.113044 0.519731
vt 0.251570 0.091535
vt 0.456587 0.114894
vt 0.371068 0.165955
vt 0.251570 0.332766
vt 0.456073 0.314697
vt 0.455221 0.454210
vt 0.662083 0.093629
vt 0.457313 -0.025262
vt 0.660269 0.335252
vt 0.538376 0.264664
vt 0.374245 0.263166
vt 0.541621 0.166999
vt 0.660898 0.365458
vt 0.462889 0.248697
vt 0.660898 0.136793
vt 0.264463 0.365563
vt 0.460631 0.252337
vt 0.462753 0.253500
vt 0.462677 0.479870
vt 0.464808 0.252245
vt 0.464923 0.249883
vt 0.462941 0.022410
vt 0.264601 0.136656
vt 0.460754 0.249930
vt 0.484338 0.218084
vt 0.484505 0.448767
vt 0.282017 0.332231
vt 0.484503 0.211842
vt 0.484302 -0.019211
vt 0.687011 0.097704
vt 0.481834 0.216537
vt 0.481876 0.213515
vt 0.281698 0.098178
vt 0.687011 0.331789
vt 0.487061 0.213435
vt 0.486925 0.216549
vt 0.187446 0.519731
vt 0.743531 0.663668
vt 0.187446 0.663668
vt 0.187446 0.519731
vt 0.743528 0.663667
vt 0.187446 0.663667
vt 0.187444 0.519731
vt 0.743530 0.663668
vt 0.187444 0.663668
vt 0.187448 0.519731
vt 0.743534 0.663669
vt 0.187449 0.663668
vt 0.187449 0.519731
vt 0.743530 0.663667
vt 0.187449 0.663667
vt 0.187444 0.519731
vt 0.743530 0.663669
vt 0.187444 0.663669
vt 0.743531 0.519731
vt 0.743528 0.519731
vt 0.743530 0.519731
vt 0.743534 0.519731
vt 0.743530 0.519731
vt 0.743530 0.519731
vt 0.817933 0.931174
vt 0.113044 0.931174
vt 0.113043 0.931178
vt 0.817933 0.931177
vt 0.113043 0.931177
vt 0.113044 0.931178
vt 0.113044 0.931174
vt 0.817933 0.931178
vt 0.113044 0.931177
vt 0.302218 0.128060
vt 0.477869 0.157096
vt 0.418310 0.194072
vt 0.302218 0.335013
vt 0.476748 0.301336
vt 0.478534 0.434683
vt 0.652399 0.123419
vt 0.476083 0.023749
vt 0.652399 0.330372
vt 0.536307 0.264360
vt 0.415918 0.264383
vt 0.538699 0.194048
vt 0.796670 0.367710
vt 0.488512 0.352401
vt 0.796356 0.350528
vt 0.796670 0.291488
vt 0.488512 0.276179
vt 0.796356 0.274306
vt 0.796356 0.239941
vt 0.488512 0.238068
vt 0.796670 0.222758
vt 0.488860 0.219012
vt 0.796356 0.316163
vt 0.488860 0.295234
vt 0.796670 0.298980
vt 0.488512 0.314290
vt 0.302229 0.113879
vt 0.465497 0.166917
vt 0.432836 0.190824
vt 0.426233 0.228798
vt 0.302229 0.315119
vt 0.636917 0.296317
vt 0.505200 0.187455
vt 0.630896 0.113802
vt 0.477667 0.404008
vt 0.500908 0.233259
vt 0.460109 0.252799
vt 0.474698 0.019820
vt 0.352174 0.354924
vt 0.481820 0.236516
vt 0.486388 0.276446
vt 0.517844 0.297262
vt 0.522134 0.447554
vt 0.676642 0.147256
vt 0.516223 0.211185
vt 0.512112 0.063496
vt 0.686697 0.345431
vt 0.551993 0.234260
vt 0.547880 0.273596
vt 0.352174 0.156163
vt 0.817933 0.965986
vt 0.345940 0.657269
vt 0.838046 0.825749
vt 0.345940 0.825749
vt 0.751347 0.877687
vt 0.237667 0.700472
vt 0.751348 0.700472
vt 0.993507 0.816928
vt 0.424667 0.622179
vt 0.993507 0.622179
vt 0.959853 0.987895
vt 0.959853 0.987898
vt 0.061039 0.505409
vt 0.113044 0.519731
vt 0.817933 0.965983
vt 0.817933 0.931178
vt 0.817933 0.931174
vt 0.488860 0.371457
vt 0.838046 0.657269
vt 0.237667 0.877687
vt 0.424666 0.816927
s 0
g mushroomMesh_mushroomMat
usemtl mushroomMat
f 11/1/1 10/2/1 12/3/1
f 8/4/2 17/5/2 10/6/2
f 7/7/3 6/8/3 8/9/3
f 5/10/4 4/11/4 6/12/4
f 3/13/5 2/14/5 4/15/5
f 1/16/6 12/17/6 2/18/6
f 11/1/1 9/19/1 10/2/1
f 9/20/7 7/21/7 8/4/7
f 7/7/3 5/22/3 6/8/3
f 5/10/4 3/23/4 4/11/4
f 3/13/5 1/24/5 2/14/5
f 1/16/8 11/25/8 12/17/8
f 4/15/9 13/26/9 14/27/9
f 6/8/10 16/28/10 8/9/10
f 10/2/11 18/29/11 12/3/11
f 12/17/12 13/30/12 2/18/12
f 9/20/7 8/4/7 10/6/7
f 6/12/13 14/31/13 15/28/13
f 13/32/14 24/33/14 19/34/14
f 14/35/15 21/36/15 15/37/15
f 17/38/16 24/33/16 18/39/16
f 16/40/17 21/36/17 22/41/17
f 13/32/18 20/42/18 14/35/18
f 16/40/19 23/43/19 17/38/19
f 31/44/20 25/45/20 32/46/20
f 33/47/21 28/48/21 34/49/21
f 35/50/22 28/48/22 29/51/22
f 31/44/23 29/51/23 30/52/23
f 33/47/24 26/53/24 27/54/24
f 32/46/25 26/53/25 36/55/25
f 20/42/26 32/46/26 36/55/26
f 20/42/27 33/47/27 21/36/27
f 23/43/28 31/44/28 24/33/28
f 22/41/29 35/50/29 23/43/29
f 22/41/30 33/47/30 34/49/30
f 19/34/31 31/44/31 32/46/31
f 47/56/32 46/57/32 48/58/32
f 45/59/33 44/60/33 46/61/33
f 43/62/34 42/63/34 44/64/34
f 41/65/35 40/66/35 42/67/35
f 39/68/36 38/69/36 40/70/36
f 37/71/37 48/72/37 38/73/37
f 47/56/32 45/74/32 46/57/32
f 45/59/33 43/75/33 44/60/33
f 43/62/34 41/76/34 42/63/34
f 41/65/35 39/77/35 40/66/35
f 39/68/36 37/78/36 38/69/36
f 37/71/37 47/79/37 48/72/37
f 40/70/38 49/80/38 50/81/38
f 42/63/39 52/82/39 44/64/39
f 48/58/40 53/83/40 54/84/40
f 48/72/41 49/85/41 38/73/41
f 44/60/42 53/86/42 46/61/42
f 42/67/43 50/87/43 51/82/43
f 49/88/44 60/89/44 55/90/44
f 50/91/45 57/92/45 51/93/45
f 53/94/46 60/89/46 54/95/46
f 52/96/47 57/92/47 58/97/47
f 49/88/48 56/98/48 50/91/48
f 52/96/49 59/99/49 53/94/49
f 103/100/50 61/101/50 104/102/50
f 106/103/51 63/104/51 64/105/51
f 107/106/52 64/105/52 65/107/52
f 103/100/53 65/107/53 66/108/53
f 108/109/54 63/104/54 105/110/54
f 104/102/55 62/111/55 108/109/55
f 66/112/56 71/113/56 72/114/56
f 63/115/57 68/116/57 69/117/57
f 61/118/58 68/116/58 62/119/58
f 66/112/59 67/120/59 61/118/59
f 63/115/60 70/121/60 64/122/60
f 64/122/61 71/113/61 65/123/61
f 83/124/62 82/125/62 84/126/62
f 81/127/63 80/128/63 82/129/63
f 79/130/64 78/131/64 80/132/64
f 77/133/65 76/134/65 78/135/65
f 75/136/66 74/137/66 76/138/66
f 73/139/67 84/140/67 74/141/67
f 83/124/62 81/142/62 82/125/62
f 81/127/63 79/143/63 80/128/63
f 79/130/64 77/144/64 78/131/64
f 77/133/65 75/145/65 76/134/65
f 75/136/66 73/146/66 74/137/66
f 73/139/68 83/147/68 84/140/68
f 76/138/69 85/148/69 86/149/69
f 78/131/70 88/150/70 80/132/70
f 84/126/71 89/151/71 90/152/71
f 84/140/72 85/153/72 74/141/72
f 80/128/73 89/154/73 82/129/73
f 78/135/74 86/155/74 87/156/74
f 85/157/75 96/158/75 91/159/75
f 86/160/76 93/161/76 87/162/76
f 89/163/77 96/158/77 90/164/77
f 88/165/78 93/161/78 94/166/78
f 85/157/79 92/167/79 86/160/79
f 88/165/80 95/168/80 89/163/80
f 109/169/81 97/170/81 110/171/81
f 111/172/82 100/173/82 112/174/82
f 113/175/83 100/173/83 101/176/83
f 109/177/84 101/176/84 102/178/84
f 114/179/85 99/180/85 111/181/85
f 110/171/86 98/182/86 114/179/86
f 56/183/87 104/184/87 108/185/87
f 56/183/88 105/186/88 57/187/88
f 59/188/89 103/189/89 60/190/89
f 58/191/90 107/192/90 59/188/90
f 58/191/91 105/186/91 106/193/91
f 55/194/92 103/189/92 104/184/92
f 92/195/93 110/196/93 114/197/93
f 92/195/94 111/198/94 93/199/94
f 95/200/95 109/201/95 96/202/95
f 94/203/96 113/204/96 95/200/96
f 93/199/97 112/205/97 94/203/97
f 91/206/98 109/201/98 110/196/98
f 123/59/99 122/60/99 124/61/99
f 121/62/100 120/63/100 122/64/100
f 119/65/101 118/66/101 120/67/101
f 117/68/102 116/69/102 118/70/102
f 115/71/103 126/72/103 116/73/103
f 123/59/99 121/75/99 122/60/99
f 121/62/100 119/76/100 120/63/100
f 119/65/104 117/77/104 118/66/104
f 117/68/102 115/78/102 116/69/102
f 115/71/105 125/79/105 126/72/105
f 118/70/106 127/80/106 128/81/106
f 120/63/107 130/82/107 122/64/107
f 126/58/108 131/83/108 132/84/108
f 126/72/109 127/85/109 116/73/109
f 122/60/110 131/86/110 124/61/110
f 120/67/111 128/87/111 129/82/111
f 127/88/44 138/89/44 133/90/44
f 128/91/45 135/92/45 129/93/45
f 131/94/46 138/89/46 132/95/46
f 130/96/47 135/92/47 136/97/47
f 127/88/48 134/98/48 128/91/48
f 130/96/49 137/99/49 131/94/49
f 151/100/50 139/101/50 152/102/50
f 154/103/51 141/104/51 142/105/51
f 155/106/52 142/105/52 143/107/52
f 151/100/53 143/107/53 144/108/53
f 156/109/54 141/104/54 153/110/54
f 152/102/55 140/111/55 156/109/55
f 143/123/112 150/114/112 144/112/112
f 141/115/113 146/116/113 147/117/113
f 139/118/114 146/116/114 140/119/114
f 144/112/115 145/120/115 139/118/115
f 141/115/116 148/121/116 142/122/116
f 142/122/117 149/113/117 143/123/117
f 134/183/87 152/184/87 156/185/87
f 134/183/88 153/186/88 135/187/88
f 137/188/89 151/189/89 138/190/89
f 136/191/90 155/192/90 137/188/90
f 136/191/91 153/186/91 154/193/91
f 133/194/92 151/189/92 152/184/92
f 165/59/118 164/60/118 166/61/118
f 163/62/119 162/63/119 164/64/119
f 161/65/120 160/66/120 162/67/120
f 159/68/121 158/69/121 160/70/121
f 157/71/122 168/72/122 158/73/122
f 165/59/118 163/75/118 164/60/118
f 163/62/123 161/76/123 162/63/123
f 161/65/120 159/77/120 160/66/120
f 159/68/121 157/78/121 158/69/121
f 157/71/122 167/79/122 168/72/122
f 160/70/124 169/80/124 170/81/124
f 162/63/125 172/82/125 164/64/125
f 166/57/126 174/84/126 168/58/126
f 168/72/127 169/85/127 158/73/127
f 164/60/128 173/86/128 166/61/128
f 162/67/129 170/87/129 171/82/129
f 169/88/44 180/89/44 175/90/44
f 170/91/45 177/92/45 171/93/45
f 173/94/46 180/89/46 174/95/46
f 172/96/47 177/92/47 178/97/47
f 169/88/48 176/98/48 170/91/48
f 172/96/49 179/99/49 173/94/49
f 193/100/50 181/101/50 194/102/50
f 196/103/51 183/104/51 184/105/51
f 197/106/52 184/105/52 185/107/52
f 193/100/53 185/107/53 186/108/53
f 198/109/54 183/104/54 195/110/54
f 194/102/55 182/111/55 198/109/55
f 185/123/130 192/114/130 186/112/130
f 183/115/57 188/116/57 189/117/57
f 181/118/58 188/116/58 182/119/58
f 186/112/59 187/120/59 181/118/59
f 183/115/131 190/121/131 184/122/131
f 184/122/61 191/113/61 185/123/61
f 176/183/87 194/184/87 198/185/87
f 176/183/88 195/186/88 177/187/88
f 179/188/89 193/189/89 180/190/89
f 178/191/90 197/192/90 179/188/90
f 178/191/91 195/186/91 196/193/91
f 175/194/92 193/189/92 194/184/92
f 207/59/132 206/60/132 208/61/132
f 205/62/133 204/63/133 206/64/133
f 203/65/134 202/66/134 204/67/134
f 201/68/135 200/69/135 202/70/135
f 199/71/136 210/72/136 200/73/136
f 207/59/137 205/75/137 206/60/137
f 205/62/133 203/76/133 204/63/133
f 203/65/134 201/77/134 202/66/134
f 201/68/135 199/78/135 200/69/135
f 199/71/138 209/79/138 210/72/138
f 202/70/139 211/80/139 212/81/139
f 204/63/140 214/82/140 206/64/140
f 210/58/141 215/83/141 216/84/141
f 200/73/142 216/207/142 211/85/142
f 206/60/143 215/86/143 208/61/143
f 204/67/144 212/87/144 213/82/144
f 211/88/44 222/89/44 217/90/44
f 212/91/45 219/92/45 213/93/45
f 215/94/46 222/89/46 216/95/46
f 214/96/47 219/92/47 220/97/47
f 211/88/48 218/98/48 212/91/48
f 214/96/49 221/99/49 215/94/49
f 235/100/50 223/101/50 236/102/50
f 238/103/51 225/104/51 226/105/51
f 239/106/52 226/105/52 227/107/52
f 235/100/53 227/107/53 228/108/53
f 240/109/54 225/104/54 237/110/54
f 236/102/55 224/111/55 240/109/55
f 227/123/145 234/114/145 228/112/145
f 225/115/146 230/116/146 231/117/146
f 223/118/147 230/116/147 224/119/147
f 228/112/148 229/120/148 223/118/148
f 225/115/149 232/121/149 226/122/149
f 226/122/150 233/113/150 227/123/150
f 218/183/87 236/184/87 240/185/87
f 218/183/88 237/186/88 219/187/88
f 221/188/89 235/189/89 222/190/89
f 220/191/90 239/192/90 221/188/90
f 220/191/91 237/186/91 238/193/91
f 217/194/92 235/189/92 236/184/92
f 208/208/151 209/209/151 207/210/151
f 166/211/152 167/212/152 165/213/152
f 124/214/153 125/215/153 123/216/153
f 8/4/2 16/217/2 17/5/2
f 4/15/9 2/14/9 13/26/9
f 6/8/10 15/31/10 16/28/10
f 10/2/154 17/218/154 18/29/154
f 12/17/12 18/219/12 13/30/12
f 6/12/13 4/11/13 14/31/13
f 13/32/14 18/39/14 24/33/14
f 14/35/15 20/42/15 21/36/15
f 17/38/16 23/43/16 24/33/16
f 16/40/17 15/37/17 21/36/17
f 13/32/18 19/34/18 20/42/18
f 16/40/19 22/41/19 23/43/19
f 31/44/20 30/52/20 25/45/20
f 33/47/21 27/54/21 28/48/21
f 35/50/22 34/49/22 28/48/22
f 31/44/23 35/50/23 29/51/23
f 33/47/24 36/55/24 26/53/24
f 32/46/25 25/45/25 26/53/25
f 20/42/26 19/34/26 32/46/26
f 20/42/155 36/55/155 33/47/155
f 23/43/28 35/50/28 31/44/28
f 22/41/29 34/49/29 35/50/29
f 22/41/30 21/36/30 33/47/30
f 19/34/31 24/33/31 31/44/31
f 40/70/38 38/69/38 49/80/38
f 42/63/39 51/220/39 52/82/39
f 48/58/156 46/57/156 53/83/156
f 48/72/157 54/207/157 49/85/157
f 44/60/42 52/221/42 53/86/42
f 42/67/43 40/66/43 50/87/43
f 49/88/44 54/95/44 60/89/44
f 50/91/45 56/98/45 57/92/45
f 53/94/46 59/99/46 60/89/46
f 52/96/47 51/93/47 57/92/47
f 49/88/48 55/90/48 56/98/48
f 52/96/49 58/97/49 59/99/49
f 103/100/50 66/108/50 61/101/50
f 106/103/51 105/110/51 63/104/51
f 107/106/52 106/103/52 64/105/52
f 103/100/53 107/106/53 65/107/53
f 108/109/54 62/111/54 63/104/54
f 104/102/55 61/101/55 62/111/55
f 66/112/130 65/123/130 71/113/130
f 63/115/158 62/119/158 68/116/158
f 61/118/58 67/120/58 68/116/58
f 66/112/159 72/114/159 67/120/159
f 63/115/131 69/117/131 70/121/131
f 64/122/61 70/121/61 71/113/61
f 76/138/69 74/137/69 85/148/69
f 78/131/70 87/155/70 88/150/70
f 84/126/71 82/125/71 89/151/71
f 84/140/72 90/222/72 85/153/72
f 80/128/73 88/223/73 89/154/73
f 78/135/74 76/134/74 86/155/74
f 85/157/75 90/164/75 96/158/75
f 86/160/76 92/167/76 93/161/76
f 89/163/77 95/168/77 96/158/77
f 88/165/78 87/162/78 93/161/78
f 85/157/79 91/159/79 92/167/79
f 88/165/80 94/166/80 95/168/80
f 109/169/81 102/224/81 97/170/81
f 111/172/82 99/180/82 100/173/82
f 113/175/83 112/174/83 100/173/83
f 109/177/84 113/175/84 101/176/84
f 114/179/85 98/182/85 99/180/85
f 110/171/86 97/170/86 98/182/86
f 56/183/87 55/194/87 104/184/87
f 56/183/88 108/185/88 105/186/88
f 59/188/89 107/192/89 103/189/89
f 58/191/90 106/193/90 107/192/90
f 58/191/91 57/187/91 105/186/91
f 55/194/92 60/190/92 103/189/92
f 92/195/93 91/206/93 110/196/93
f 92/195/94 114/197/94 111/198/94
f 95/200/95 113/204/95 109/201/95
f 94/203/96 112/205/96 113/204/96
f 93/199/97 111/198/97 112/205/97
f 91/206/98 96/202/98 109/201/98
f 118/70/106 116/69/106 127/80/106
f 120/63/107 129/220/107 130/82/107
f 126/58/108 124/57/108 131/83/108
f 126/72/109 132/207/109 127/85/109
f 122/60/110 130/221/110 131/86/110
f 120/67/111 118/66/111 128/87/111
f 127/88/44 132/95/44 138/89/44
f 128/91/45 134/98/45 135/92/45
f 131/94/46 137/99/46 138/89/46
f 130/96/47 129/93/47 135/92/47
f 127/88/48 133/90/48 134/98/48
f 130/96/49 136/97/49 137/99/49
f 151/100/50 144/108/50 139/101/50
f 154/103/51 153/110/51 141/104/51
f 155/106/52 154/103/52 142/105/52
f 151/100/53 155/106/53 143/107/53
f 156/109/54 140/111/54 141/104/54
f 152/102/55 139/101/55 140/111/55
f 143/123/112 149/113/112 150/114/112
f 141/115/113 140/119/113 146/116/113
f 139/118/114 145/120/114 146/116/114
f 144/112/115 150/114/115 145/120/115
f 141/115/116 147/117/116 148/121/116
f 142/122/117 148/121/117 149/113/117
f 134/183/87 133/194/87 152/184/87
f 134/183/88 156/185/88 153/186/88
f 137/188/89 155/192/89 151/189/89
f 136/191/90 154/193/90 155/192/90
f 136/191/91 135/187/91 153/186/91
f 133/194/92 138/190/92 151/189/92
f 160/70/124 158/69/124 169/80/124
f 162/63/125 171/220/125 172/82/125
f 166/57/160 173/83/160 174/84/160
f 168/72/127 174/207/127 169/85/127
f 164/60/161 172/221/161 173/86/161
f 162/67/129 160/66/129 170/87/129
f 169/88/44 174/95/44 180/89/44
f 170/91/45 176/98/45 177/92/45
f 173/94/46 179/99/46 180/89/46
f 172/96/47 171/93/47 177/92/47
f 169/88/48 175/90/48 176/98/48
f 172/96/49 178/97/49 179/99/49
f 193/100/50 186/108/50 181/101/50
f 196/103/51 195/110/51 183/104/51
f 197/106/52 196/103/52 184/105/52
f 193/100/53 197/106/53 185/107/53
f 198/109/54 182/111/54 183/104/54
f 194/102/55 181/101/55 182/111/55
f 185/123/56 191/113/56 192/114/56
f 183/115/158 182/119/158 188/116/158
f 181/118/58 187/120/58 188/116/58
f 186/112/159 192/114/159 187/120/159
f 183/115/60 189/117/60 190/121/60
f 184/122/61 190/121/61 191/113/61
f 176/183/87 175/194/87 194/184/87
f 176/183/88 198/185/88 195/186/88
f 179/188/89 197/192/89 193/189/89
f 178/191/90 196/193/90 197/192/90
f 178/191/91 177/187/91 195/186/91
f 175/194/92 180/190/92 193/189/92
f 202/70/162 200/69/162 211/80/162
f 204/63/140 213/220/140 214/82/140
f 210/58/141 208/57/141 215/83/141
f 200/73/163 210/72/163 216/207/163
f 206/60/143 214/221/143 215/86/143
f 204/67/144 202/66/144 212/87/144
f 211/88/44 216/95/44 222/89/44
f 212/91/45 218/98/45 219/92/45
f 215/94/46 221/99/46 222/89/46
f 214/96/47 213/93/47 219/92/47
f 211/88/48 217/90/48 218/98/48
f 214/96/49 220/97/49 221/99/49
f 235/100/50 228/108/50 223/101/50
f 238/103/51 237/110/51 225/104/51
f 239/106/52 238/103/52 226/105/52
f 235/100/53 239/106/53 227/107/53
f 240/109/54 224/111/54 225/104/54
f 236/102/55 223/101/55 224/111/55
f 227/123/145 233/113/145 234/114/145
f 225/115/146 224/119/146 230/116/146
f 223/118/147 229/120/147 230/116/147
f 228/112/148 234/114/148 229/120/148
f 225/115/149 231/117/149 232/121/149
f 226/122/150 232/121/150 233/113/150
f 218/183/87 217/194/87 236/184/87
f 218/183/88 240/185/88 237/186/88
f 221/188/89 239/192/89 235/189/89
f 220/191/90 238/193/90 239/192/90
f 220/191/91 219/187/91 237/186/91
f 217/194/92 222/190/92 235/189/92
f 208/208/151 210/225/151 209/209/151
f 166/211/152 168/226/152 167/212/152
f 124/214/153 126/227/153 125/215/153
