# Blender 5.0.1
# www.blender.org
mtllib model.mtl
o vesMesh
v 1.011736 -0.000918 -0.000565
v 0.715338 -0.000918 0.715005
v -0.000232 -0.000918 1.011403
v -1.012199 -0.000918 -0.000565
v 0.934705 0.192713 0.334815
v 0.715338 0.356866 0.619136
v 0.387032 0.466550 0.809114
v -0.000231 0.505066 0.875825
v -0.387495 0.466550 0.809114
v -0.715801 0.356866 0.619137
v -0.935168 0.192713 0.334815
v 0.934705 0.334462 0.193067
v 0.715338 0.618783 0.357220
v 0.387032 0.808760 0.466904
v -0.000231 0.875472 0.505419
v -0.387495 0.808760 0.466904
v -0.715801 0.618783 0.357220
v -0.935168 0.334462 0.193067
v 0.934705 0.386345 -0.000565
v 0.715338 0.714651 -0.000565
v 0.387032 0.934018 -0.000565
v -0.000232 1.011050 -0.000565
v -0.387495 0.934018 -0.000565
v -0.715801 0.714651 -0.000565
v -0.935168 0.386345 -0.000565
v 0.934705 0.334462 -0.194196
v 0.715338 0.618783 -0.358349
v 0.387032 0.808760 -0.468033
v -0.000231 0.875472 -0.506548
v -0.387495 0.808760 -0.468033
v -0.715801 0.618783 -0.358349
v -0.935168 0.334462 -0.194196
v 0.934705 0.192713 -0.335944
v 0.715338 0.356866 -0.620266
v 0.387032 0.466550 -0.810243
v -0.000232 0.505066 -0.876954
v -0.387495 0.466550 -0.810243
v -0.715801 0.356866 -0.620266
v -0.935168 0.192713 -0.335944
v 0.934705 -0.000918 -0.387828
v 0.715338 -0.000918 -0.716134
v 0.387032 -0.000918 -0.935501
v -0.000232 -0.000918 -1.012532
v -0.387495 -0.000918 -0.935501
v -0.715801 -0.000918 -0.716134
v -0.935168 -0.000918 -0.387828
v 0.934705 -0.194550 -0.335944
v 0.715338 -0.358703 -0.620266
v 0.387032 -0.468386 -0.810243
v -0.000232 -0.506902 -0.876954
v -0.387495 -0.468386 -0.810243
v -0.715801 -0.358703 -0.620266
v -0.935168 -0.194550 -0.335944
v 0.934705 -0.336298 -0.194196
v 0.715338 -0.620619 -0.358349
v 0.387032 -0.810597 -0.468033
v -0.000232 -0.877308 -0.506548
v -0.387495 -0.810597 -0.468033
v -0.715801 -0.620619 -0.358349
v -0.935168 -0.336298 -0.194196
v 0.934705 -0.388182 -0.000565
v 0.715338 -0.716487 -0.000565
v 0.387032 -0.935854 -0.000565
v -0.000231 -1.012886 -0.000565
v -0.387495 -0.935855 -0.000565
v -0.715801 -0.716488 -0.000565
v -0.935168 -0.388182 -0.000565
v 0.934705 -0.336298 0.193067
v 0.715338 -0.620619 0.357220
v 0.387032 -0.810597 0.466904
v -0.000231 -0.877308 0.505419
v -0.387495 -0.810597 0.466904
v -0.715801 -0.620619 0.357220
v -0.935168 -0.336298 0.193067
v 0.934705 -0.194550 0.334815
v 0.715338 -0.358703 0.619136
v 0.387032 -0.468386 0.809114
v -0.000231 -0.506902 0.875825
v -0.387495 -0.468386 0.809114
v -0.715801 -0.358703 0.619137
v -0.935168 -0.194550 0.334815
v 0.934705 -0.000918 0.386699
v 0.387032 -0.000918 0.934372
v -0.387495 -0.000918 0.934372
v -0.715801 -0.000918 0.715005
v -0.935168 -0.000918 0.386699
v -0.660449 0.000000 0.988432
v -1.165935 0.000000 0.231919
v -1.188777 0.000000 0.000000
v -1.165935 0.000000 -0.231919
v 0.000000 0.000000 -1.188777
v -0.227463 0.045245 1.165935
v -0.647759 0.128847 0.988432
v -0.824440 0.163991 0.840592
v -1.077183 0.214265 0.454925
v -1.143531 0.227463 0.231919
v -1.165935 0.231919 0.000000
v -1.143531 0.227463 -0.231919
v -1.077183 0.214265 -0.454925
v -0.214265 0.088751 1.165935
v -0.610175 0.252743 0.988432
v -0.776606 0.321681 0.840592
v -1.014684 0.420296 0.454925
v -1.077183 0.446184 0.231919
v -1.098286 0.454925 0.000000
v -1.077183 0.446184 -0.231919
v -0.936098 0.430939 -0.658421
v -0.192833 0.128847 1.165935
v -0.549143 0.366926 0.988432
v -0.698927 0.467008 0.840592
v -0.913192 0.610175 0.454925
v -0.969439 0.647759 0.231919
v -0.988431 0.660449 0.000000
v -0.969439 0.647759 -0.231919
v -0.927969 0.641723 -0.399426
v -0.163991 0.163991 1.165935
v -0.467008 0.467008 0.988432
v -0.594388 0.594388 0.840592
v -0.776606 0.776606 0.454925
v -0.824440 0.824440 0.231919
v -0.840592 0.840592 0.000000
v -0.824440 0.824440 -0.231919
v -0.776606 0.776606 -0.454925
v -0.128847 0.192833 1.165935
v -0.366926 0.549143 0.988432
v -0.467008 0.698927 0.840592
v -0.610175 0.913192 0.454925
v -0.647758 0.969439 0.231919
v -0.660449 0.988432 0.000000
v -0.647758 0.969439 -0.231919
v -0.610175 0.913192 -0.454925
v -0.549143 0.821851 -0.660449
v -0.088751 0.214265 1.165935
v -0.252743 0.610175 0.988432
v -0.321681 0.776606 0.840592
v -0.420296 1.014684 0.454925
v -0.446184 1.077183 0.231919
v -0.454925 1.098286 0.000000
v -0.446184 1.077183 -0.231919
v -0.420296 1.014684 -0.454925
v -0.045245 0.227463 1.165935
v -0.128847 0.647758 0.988432
v -0.163991 0.824440 0.840592
v -0.214265 1.077183 0.454925
v -0.227462 1.143531 0.231919
v -0.231919 1.165934 0.000000
v -0.227462 1.143531 -0.231919
v -0.214265 1.077183 -0.454925
v 0.000000 0.231919 1.165935
v 0.000000 0.660449 0.988432
v -0.000000 0.840592 0.840592
v -0.000000 1.098286 0.454925
v 0.000000 1.165934 0.231919
v 0.000000 1.188776 0.000000
v 0.000000 1.165934 -0.231919
v 0.045245 0.227462 1.165935
v 0.128847 0.647758 0.988432
v 0.163991 0.824440 0.840592
v 0.214265 1.077183 0.454925
v 0.227463 1.143531 0.231919
v 0.231919 1.165934 0.000000
v 0.121499 1.143531 -0.231919
v 0.088751 0.214265 1.165935
v 0.252743 0.610175 0.988432
v 0.321681 0.776606 0.840592
v 0.420296 1.014684 0.454925
v 0.128847 0.192833 1.165935
v 0.366926 0.549143 0.988432
v 0.467008 0.698927 0.840592
v 0.549143 0.821851 0.660449
v 0.163991 0.163991 1.165935
v 0.467008 0.467008 0.988432
v 0.608248 0.593262 0.835115
v 0.192833 0.128847 1.165935
v 0.549143 0.366926 0.988432
v 0.712787 0.465882 0.835115
v 0.214265 0.088751 1.165935
v 0.610175 0.252743 0.988432
v 0.776606 0.321681 0.840592
v 0.227462 0.045245 1.165935
v 0.647758 0.128847 0.988432
v 0.824440 0.163991 0.840592
v 0.231919 -0.000000 1.165935
v 0.660449 -0.000000 0.988432
v 0.840592 -0.000000 0.840592
v 0.866187 0.317921 0.686569
v 0.227462 -0.045245 1.165935
v 0.647758 -0.128847 0.988432
v 0.824440 -0.163991 0.840592
v 0.214265 -0.088751 1.165935
v 0.610175 -0.252743 0.988432
v 0.776606 -0.321681 0.840592
v 0.192833 -0.128847 1.165935
v 0.549143 -0.366926 0.988432
v 0.712787 -0.468134 0.835115
v 0.163991 -0.163991 1.165935
v 0.467007 -0.467008 0.988432
v 0.608248 -0.595514 0.835115
v 0.128847 -0.192833 1.165935
v 0.366925 -0.549143 0.988432
v 0.467008 -0.698927 0.840592
v 0.549143 -0.821851 0.660449
v 0.088751 -0.214265 1.165935
v 0.252742 -0.610175 0.988432
v 0.321681 -0.776606 0.840592
v 0.420296 -1.014684 0.454925
v 0.045245 -0.227462 1.165935
v 0.128847 -0.811917 0.988432
v 0.163991 -0.824440 0.840592
v 0.214265 -1.077183 0.454925
v 0.227462 -1.143531 0.231919
v 0.231918 -1.165934 0.000000
v 0.121499 -1.143531 -0.231919
v -0.000000 -0.231919 1.165935
v -0.000000 -1.074537 0.988432
v -0.000000 -0.840592 0.840592
v -0.000000 -1.098286 0.454925
v -0.000000 -1.165934 0.231919
v -0.000001 -1.188775 0.000000
v -0.000000 -1.165934 -0.231919
v -0.045245 -0.227462 1.165935
v -0.128847 -0.923578 0.988432
v -0.163991 -0.824440 0.840592
v -0.214265 -1.077183 0.454925
v -0.227463 -1.143531 0.231919
v -0.231919 -1.165933 0.000000
v -0.227463 -1.143531 -0.231919
v -0.088751 -0.214265 1.165935
v -0.252743 -0.695794 0.988432
v -0.321681 -0.776605 0.840592
v -0.420296 -1.014684 0.454925
v -0.446184 -1.077182 0.231919
v -0.454925 -1.098285 0.000000
v -0.446184 -1.077182 -0.231919
v -0.420296 -1.014684 -0.454925
v -0.128847 -0.192833 1.165935
v -0.366926 -0.549143 0.988432
v -0.467008 -0.698926 0.840592
v -0.610175 -0.913191 0.454925
v -0.647758 -0.969438 0.231919
v -0.660449 -0.988430 0.000000
v -0.647758 -0.969438 -0.231919
v -0.610175 -0.913191 -0.454925
v -0.549143 -0.821850 -0.660449
v -0.163991 -0.163991 1.165935
v -0.467008 -0.467007 0.988432
v -0.594388 -0.594388 0.840592
v -0.776605 -0.776605 0.454925
v -0.824440 -0.824440 0.231919
v -0.840591 -0.840591 0.000000
v -0.824440 -0.824440 -0.231919
v -0.776605 -0.776605 -0.454925
v -0.192833 -0.128847 1.165935
v -0.549143 -0.366925 0.988432
v -0.698927 -0.467008 0.840592
v -0.913191 -0.610175 0.454925
v -0.969439 -0.647758 0.231919
v -0.988431 -0.660448 0.000000
v -0.969439 -0.647758 -0.231919
v -0.977188 -0.618034 -0.313496
v -0.214265 -0.088751 1.165935
v -0.610175 -0.252742 0.988432
v -0.776606 -0.321680 0.840592
v -1.014684 -0.420296 0.454925
v -1.077183 -0.446183 0.231919
v -1.098285 -0.454924 0.000000
v -1.077183 -0.446183 -0.231919
v -0.970438 -0.419095 -0.575565
v -0.227462 -0.045245 1.165935
v -0.647758 -0.128847 0.988432
v -0.824440 -0.163991 0.840592
v -1.077183 -0.214265 0.454925
v -1.143531 -0.227462 0.231919
v -1.165933 -0.231918 0.000000
v -1.143531 -0.227462 -0.231919
v -1.077183 -0.214265 -0.454925
v -0.231919 0.000000 1.165935
v -0.840592 0.000000 0.840592
v -1.098286 0.000000 0.454925
v -0.997459 -0.008000 -0.727133
v 0.914021 0.160231 0.686569
v 0.930173 -0.003760 0.686569
v 0.914021 -0.167751 0.686569
v 0.866187 -0.325441 0.686569
v 1.007700 0.071783 0.408348
v 1.038745 -0.003218 0.340380
v 1.007700 -0.079320 0.408348
v 0.164662 0.827811 0.167888
v 0.167888 0.844028 0.000000
v 0.084005 0.790640 -0.160349
v 0.304255 0.734537 0.329324
v 0.397529 0.594944 0.478104
v 0.440315 0.429467 0.604546
v 0.515992 0.337255 0.604546
v 0.627039 0.230145 0.497012
v 0.515991 -0.338886 0.604546
v 0.440315 -0.431097 0.604546
v 0.397528 -0.594944 0.478104
v 0.304255 -0.734537 0.329324
v 0.164661 -0.827810 0.167888
v 0.167887 -0.844028 0.000000
v 0.084005 -0.790640 -0.160349
v 0.627039 -0.235589 0.497012
v 0.729481 0.051964 0.295606
v 0.751955 -0.002330 0.246403
v 0.729481 -0.057420 0.295606
v -0.843735 0.167829 -0.356333
v -0.733225 0.337545 -0.515727
v -0.726859 0.502648 -0.312862
v -0.608299 0.608299 -0.356333
v -0.430132 0.643738 -0.517316
v -0.329209 0.794781 -0.356333
v -0.167829 0.843735 -0.356333
v 0.000000 0.913252 -0.181657
v -0.000000 -0.913251 -0.181657
v -0.178167 -0.895703 -0.181657
v -0.329209 -0.794780 -0.356333
v -0.430132 -0.643738 -0.517316
v -0.608298 -0.608298 -0.356333
v -0.765410 -0.484093 -0.245555
v -0.760123 -0.328268 -0.450827
v -0.843734 -0.167829 -0.356333
v -0.781288 -0.006266 -0.569548
vn -0.0000 -0.0000 1.0000
vn 0.3718 -0.0000 0.9283
vn 0.3718 0.4642 0.8040
vn -0.0000 0.5000 0.8660
vn 0.6913 -0.0000 0.7226
vn 0.9122 -0.0000 0.4097
vn 0.9122 0.2049 0.3548
vn 0.6913 0.3613 0.6258
vn -0.9122 -0.0000 0.4097
vn -0.6913 -0.0000 0.7226
vn -0.6913 0.3613 0.6258
vn -0.9122 0.2049 0.3548
vn -0.3718 -0.0000 0.9283
vn -0.3718 0.4642 0.8040
vn 1.0000 -0.0000 -0.0000
vn -1.0000 -0.0000 -0.0000
vn -0.6913 0.6258 0.3613
vn -0.9122 0.3548 0.2049
vn -0.0000 0.8660 0.5000
vn -0.3718 0.8040 0.4642
vn 0.6913 0.6258 0.3613
vn 0.3718 0.8040 0.4642
vn 0.9122 0.3548 0.2049
vn 0.9122 0.4097 -0.0000
vn -0.9122 0.4097 -0.0000
vn -0.3718 0.9283 -0.0000
vn -0.6913 0.7226 -0.0000
vn 0.3718 0.9283 -0.0000
vn -0.0000 1.0000 -0.0000
vn 0.6913 0.7226 -0.0000
vn -0.3718 0.8040 -0.4642
vn -0.6913 0.6258 -0.3613
vn 0.3718 0.8040 -0.4642
vn -0.0000 0.8660 -0.5000
vn 0.9122 0.3548 -0.2049
vn 0.6913 0.6258 -0.3613
vn -0.9122 0.3548 -0.2049
vn -0.6913 0.3613 -0.6258
vn -0.9122 0.2049 -0.3548
vn -0.0000 0.5000 -0.8660
vn -0.3718 0.4642 -0.8040
vn 0.6913 0.3613 -0.6258
vn 0.3718 0.4642 -0.8040
vn 0.9122 0.2049 -0.3548
vn -0.0000 -0.0000 -1.0000
vn -0.3718 -0.0000 -0.9283
vn 0.6913 -0.0000 -0.7226
vn 0.3718 -0.0000 -0.9283
vn 0.9122 -0.0000 -0.4097
vn -0.9122 -0.0000 -0.4097
vn -0.6913 -0.0000 -0.7226
vn -0.9122 -0.2049 -0.3548
vn -0.3718 -0.4642 -0.8040
vn -0.6913 -0.3613 -0.6258
vn 0.3718 -0.4642 -0.8040
vn -0.0000 -0.5000 -0.8660
vn 0.9122 -0.2049 -0.3548
vn 0.6913 -0.3613 -0.6258
vn 0.3718 -0.8040 -0.4642
vn -0.0000 -0.8660 -0.5000
vn 0.9122 -0.3548 -0.2049
vn 0.6913 -0.6258 -0.3613
vn -0.6913 -0.6258 -0.3613
vn -0.9122 -0.3548 -0.2049
vn -0.3718 -0.8040 -0.4642
vn -0.6913 -0.7226 -0.0000
vn -0.9122 -0.4097 -0.0000
vn -0.0000 -1.0000 -0.0000
vn -0.3718 -0.9283 -0.0000
vn 0.6913 -0.7226 -0.0000
vn 0.3718 -0.9283 -0.0000
vn 0.9122 -0.4097 -0.0000
vn 0.6913 -0.6258 0.3613
vn 0.3718 -0.8040 0.4642
vn 0.9122 -0.3548 0.2049
vn -0.9122 -0.3548 0.2049
vn -0.3718 -0.8040 0.4642
vn -0.6913 -0.6258 0.3613
vn -0.0000 -0.8660 0.5000
vn -0.9122 -0.2049 0.3548
vn -0.3718 -0.4642 0.8040
vn -0.6913 -0.3613 0.6258
vn 0.3718 -0.4642 0.8040
vn -0.0000 -0.5000 0.8660
vn 0.9122 -0.2049 0.3548
vn 0.6913 -0.3613 0.6258
vn -0.7968 0.2417 0.5537
vn -0.9527 0.0938 0.2890
vn -0.9904 0.0975 0.0976
vn -0.9904 0.0975 -0.0976
vn 0.2842 -0.7816 0.5552
vn -0.9477 0.0680 -0.3119
vn 0.2417 -0.7968 0.5537
vn -0.6332 0.0624 0.7715
vn -0.6088 0.1847 0.7715
vn -0.7344 0.3925 0.5537
vn -0.9161 0.2779 0.2890
vn -0.9524 0.2889 0.0975
vn -0.9524 0.2889 -0.0975
vn -0.3389 0.1811 0.9232
vn -0.9076 0.2910 -0.3026
vn -0.8777 0.4691 0.0975
vn -0.8777 0.4691 -0.0975
vn -0.2970 0.2438 0.9232
vn -0.8637 0.4188 -0.2804
vn -0.5611 0.2999 0.7715
vn -0.6437 0.5283 0.5537
vn -0.8443 0.4513 0.2890
vn -0.4918 0.4036 0.7715
vn -0.5283 0.6437 0.5537
vn -0.7400 0.6073 0.2890
vn -0.7693 0.6314 0.0975
vn -0.7693 0.6314 -0.0975
vn -0.2438 0.2970 0.9232
vn -0.7230 0.6425 -0.2540
vn -0.6314 0.7693 0.0975
vn -0.6314 0.7693 -0.0975
vn -0.1811 0.3389 0.9232
vn -0.6073 0.7400 -0.2890
vn -0.4036 0.4918 0.7715
vn -0.3925 0.7344 0.5537
vn -0.6073 0.7400 0.2890
vn -0.2417 0.7968 0.5537
vn -0.4513 0.8443 0.2890
vn -0.4691 0.8777 0.0975
vn -0.4691 0.8777 -0.0975
vn -0.1115 0.3677 0.9232
vn -0.4513 0.8443 -0.2890
vn -0.2999 0.5611 0.7715
vn -0.2889 0.9524 -0.0975
vn -0.0377 0.3824 0.9232
vn -0.2779 0.9161 -0.2890
vn -0.1847 0.6088 0.7715
vn -0.0816 0.8287 0.5537
vn -0.2779 0.9161 0.2890
vn -0.2889 0.9524 0.0975
vn 0.0816 0.8287 0.5537
vn -0.0938 0.9527 0.2890
vn -0.0975 0.9904 0.0975
vn -0.0975 0.9904 -0.0975
vn 0.0377 0.3824 0.9232
vn -0.0624 0.6332 0.7715
vn 0.1115 0.3677 0.9232
vn 0.0624 0.6332 0.7715
vn 0.2417 0.7968 0.5537
vn 0.0938 0.9527 0.2890
vn 0.0975 0.9904 0.0975
vn 0.1260 0.9840 -0.1260
vn 0.2842 0.7816 0.5552
vn 0.1811 0.3389 0.9232
vn 0.1847 0.6088 0.7715
vn 0.2438 0.2970 0.9232
vn 0.2999 0.5611 0.7715
vn 0.3651 0.6831 0.6326
vn 0.2970 0.2438 0.9232
vn 0.4008 0.4925 0.7726
vn 0.3389 0.1811 0.9232
vn 0.4866 0.3993 0.7771
vn 0.3677 0.1115 0.9232
vn 0.5615 0.2878 0.7758
vn 0.6088 0.1847 0.7715
vn 0.3824 0.0377 0.9232
vn 0.3824 -0.0377 0.9232
vn 0.6332 0.0624 0.7715
vn 0.3677 -0.1115 0.9232
vn 0.6332 -0.0624 0.7715
vn 0.3389 -0.1811 0.9232
vn 0.6088 -0.1847 0.7715
vn 0.2970 -0.2438 0.9232
vn 0.5616 -0.2853 0.7767
vn 0.2438 -0.2970 0.9232
vn 0.4843 -0.3975 0.7794
vn 0.1811 -0.3389 0.9232
vn 0.3969 -0.4934 0.7740
vn 0.3208 -0.2498 0.9136
vn 0.2999 -0.5611 0.7715
vn 0.3651 -0.6831 0.6326
vn 0.0816 -0.8287 0.5537
vn 0.3231 -0.2106 0.9226
vn 0.5469 -0.6170 0.5659
vn -0.1884 -0.2111 0.9591
vn 0.6263 -0.6579 -0.4182
vn -0.0816 -0.8287 0.5537
vn 0.0938 -0.9527 0.2890
vn 0.0975 -0.9904 0.0975
vn 0.1260 -0.9840 -0.1260
vn -0.0938 -0.9527 0.2890
vn -0.0976 -0.9904 0.0975
vn -0.0976 -0.9904 -0.0975
vn -0.3087 -0.2144 0.9267
vn -0.3648 -0.6393 -0.6769
vn -0.2417 -0.7968 0.5537
vn -0.6857 -0.7005 0.1979
vn -0.3925 -0.7344 0.5537
vn -0.2779 -0.9161 0.2890
vn -0.2889 -0.9524 0.0975
vn -0.2889 -0.9524 -0.0975
vn -0.2803 -0.2573 0.9248
vn -0.4691 -0.8777 0.0975
vn -0.4691 -0.8777 -0.0975
vn -0.2438 -0.2970 0.9232
vn -0.4513 -0.8443 -0.2890
vn -0.4709 -0.5447 0.6940
vn -0.5283 -0.6437 0.5537
vn -0.4513 -0.8443 0.2890
vn -0.4036 -0.4918 0.7715
vn -0.6437 -0.5283 0.5537
vn -0.6073 -0.7400 0.2890
vn -0.6314 -0.7693 0.0975
vn -0.6314 -0.7693 -0.0975
vn -0.2970 -0.2438 0.9232
vn -0.6073 -0.7400 -0.2890
vn -0.7693 -0.6314 0.0975
vn -0.7693 -0.6314 -0.0975
vn -0.3389 -0.1811 0.9232
vn -0.7250 -0.6385 -0.2580
vn -0.4918 -0.4036 0.7715
vn -0.7344 -0.3925 0.5537
vn -0.7400 -0.6073 0.2890
vn -0.7968 -0.2417 0.5537
vn -0.8443 -0.4513 0.2890
vn -0.8777 -0.4691 0.0975
vn -0.3677 0.1115 0.9232
vn -0.8777 -0.4691 -0.0975
vn -0.3677 -0.1115 0.9232
vn -0.8833 -0.3915 -0.2579
vn -0.5601 -0.6825 -0.4696
vn -0.5611 -0.2999 0.7715
vn -0.9524 -0.2889 -0.0975
vn -0.3824 -0.0377 0.9232
vn -0.9103 -0.2870 -0.2985
vn -0.5601 0.6825 -0.4696
vn -0.6088 -0.1847 0.7715
vn -0.8287 -0.0816 0.5537
vn -0.9161 -0.2779 0.2890
vn -0.9524 -0.2889 0.0975
vn -0.9527 -0.0938 0.2890
vn -0.9904 -0.0976 0.0975
vn -0.9904 -0.0976 -0.0975
vn -0.3824 0.0377 0.9232
vn -0.9480 -0.0696 -0.3105
vn -0.8287 0.0816 0.5537
vn -0.6332 -0.0624 0.7715
vn 0.8336 -0.2529 0.4910
vn 0.8604 -0.0847 0.5025
vn 0.8387 0.2544 0.4816
vn 0.8622 0.0849 0.4994
vn 0.9504 -0.1039 0.2931
vn 0.9504 0.1043 0.2931
vn 0.9326 -0.2829 0.2241
vn 0.8004 -0.3665 0.4744
vn 0.9326 0.2829 0.2241
vn 0.8056 0.3740 0.4594
vn 0.4729 -0.6124 0.6335
vn 0.4792 0.6078 0.6332
vn 0.2779 0.9161 0.2890
vn 0.2779 -0.9161 0.2890
vn -0.0938 0.9527 -0.2890
vn -0.2779 -0.9161 -0.2890
vn -0.4162 -0.7786 -0.4696
vn -0.4162 0.7786 -0.4696
vn 0.8495 0.1649 -0.5011
vn 0.9808 -0.1951 -0.0000
vn 0.5429 0.4455 -0.7119
vn 0.5424 -0.4451 -0.7125
vn 0.8492 -0.1640 -0.5020
vn 0.8950 -0.1780 -0.4089
vn 0.8112 -0.0760 -0.5799
vn 0.9808 0.1951 -0.0000
vn 0.7518 -0.0158 -0.6592
vn 0.1810 -0.7805 -0.5984
vn 0.8950 0.1780 -0.4089
vn 0.8112 0.0760 -0.5799
vn 0.1679 -0.7918 -0.5872
vn 0.7518 0.0158 -0.6592
vn 0.1860 0.7809 -0.5963
vn 0.2232 0.7037 -0.6745
vn 0.1822 0.7843 -0.5930
vn 0.2210 -0.6983 -0.6809
vn -0.1090 0.5813 -0.8063
vn 0.0192 0.1951 -0.9806
vn 0.1406 -0.7249 -0.6744
vn 0.0732 -0.4486 -0.8907
vn -0.0359 -0.1950 -0.9802
vn 0.2177 0.5771 -0.7872
vn 0.5732 -0.6597 -0.4860
vn -0.3807 0.7203 -0.5799
vn 0.7404 -0.1311 -0.6592
vn 0.3650 -0.7904 -0.4920
vn -0.3807 -0.7203 -0.5799
vn 0.6275 0.5941 -0.5032
vn -0.0359 0.1950 -0.9802
vn 0.3723 0.7693 -0.5192
vn 0.1115 -0.3677 -0.9232
vt 0.370966 0.844181
vt 0.361702 0.732758
vt 0.251330 0.707769
vt 0.202295 0.812281
vt 0.358177 0.650405
vt 0.355483 0.580500
vt 0.322731 0.572195
vt 0.290578 0.632704
vt 0.117427 0.676483
vt 0.117230 0.695899
vt 0.098654 0.690755
vt 0.108131 0.674229
vt 0.118223 0.719322
vt 0.119976 0.751111
vt 0.071070 0.741209
vt 0.087545 0.711187
vt 0.353339 0.514752
vt 0.116965 0.658026
vt 0.084199 0.677811
vt 0.101110 0.667699
vt 0.036594 0.705265
vt 0.064434 0.689832
vt 0.237353 0.586474
vt 0.168961 0.630861
vt 0.297525 0.549652
vt 0.067809 0.696651
vt 0.287020 0.516903
vt 0.098605 0.658476
vt 0.055265 0.659303
vt 0.079362 0.658910
vt 0.131776 0.524300
vt 0.021891 0.529240
vt 0.217053 0.518435
vt 0.025395 0.659831
vt 0.063218 0.628227
vt 0.083497 0.639945
vt 0.158574 0.412413
vt 0.054224 0.361935
vt 0.295755 0.483807
vt 0.234536 0.450005
vt 0.100635 0.649165
vt 0.035158 0.614444
vt 0.097102 0.625300
vt 0.107370 0.642371
vt 0.066798 0.578310
vt 0.084971 0.605291
vt 0.283526 0.399128
vt 0.237324 0.330466
vt 0.318776 0.458798
vt 0.171656 0.225036
vt 0.114504 0.562153
vt 0.115468 0.596729
vt 0.350507 0.379547
vt 0.344999 0.296016
vt 0.351489 0.448677
vt 0.116466 0.639572
vt 0.116523 0.620067
vt 0.346518 0.179775
vt 0.125745 0.641791
vt 0.147359 0.603609
vt 0.135378 0.625161
vt 0.455115 0.322058
vt 0.511579 0.226455
vt 0.384397 0.457436
vt 0.418132 0.396787
vt 0.162912 0.575688
vt 0.538486 0.398071
vt 0.627672 0.342248
vt 0.409227 0.480334
vt 0.468768 0.445021
vt 0.149644 0.638489
vt 0.132708 0.648325
vt 0.199795 0.609711
vt 0.169983 0.627070
vt 0.155463 0.657651
vt 0.135509 0.657514
vt 0.211121 0.658575
vt 0.178765 0.657393
vt 0.487992 0.511369
vt 0.570233 0.505804
vt 0.419319 0.512919
vt 0.681422 0.497516
vt 0.471280 0.578007
vt 0.544291 0.613790
vt 0.410846 0.545873
vt 0.133257 0.666883
vt 0.170799 0.687879
vt 0.150115 0.676961
vt 0.649551 0.668121
vt 0.197234 0.704242
vt 0.126619 0.673811
vt 0.148948 0.710919
vt 0.136164 0.690907
vt 0.470242 0.699501
vt 0.528648 0.790413
vt 0.387473 0.569921
vt 0.423721 0.627493
vt 0.164283 0.736388
vt 0.818538 0.859335
vt 0.836157 0.841785
vt 0.842643 0.847168
vt 0.828093 0.867193
vt 0.799017 0.858371
vt 0.810439 0.849894
vt 0.808703 0.869348
vt 0.786332 0.867815
vt 0.797437 0.880729
vt 0.771373 0.878906
vt 0.784119 0.894141
vt 0.829639 0.731013
vt 0.852333 0.736345
vt 0.849166 0.757227
vt 0.741223 0.900034
vt 0.765762 0.912652
vt 0.840070 0.762902
vt 0.818279 0.741851
vt 0.830757 0.835336
vt 0.840225 0.828542
vt 0.844403 0.833472
vt 0.849399 0.837590
vt 0.849941 0.851441
vt 0.838627 0.873679
vt 0.819868 0.878707
vt 0.810471 0.891801
vt 0.799468 0.906854
vt 0.862476 0.818315
vt 0.864523 0.819356
vt 0.855045 0.840813
vt 0.782919 0.934249
vt 0.832274 0.886371
vt 0.825212 0.900528
vt 0.816853 0.917845
vt 0.866726 0.820123
vt 0.861204 0.843049
vt 0.810639 0.936092
vt 0.857894 0.854498
vt 0.850079 0.878417
vt 0.866347 0.856261
vt 0.862181 0.881428
vt 0.845763 0.891790
vt 0.840908 0.906694
vt 0.835768 0.924350
vt 0.869035 0.820449
vt 0.867745 0.844219
vt 0.832584 0.945774
vt 0.859750 0.895247
vt 0.856918 0.910379
vt 0.854213 0.927276
vt 0.871384 0.820315
vt 0.874544 0.844254
vt 0.852234 0.945436
vt 0.875156 0.856661
vt 0.874764 0.882778
vt 0.884170 0.855612
vt 0.887853 0.882529
vt 0.874008 0.896968
vt 0.872769 0.912341
vt 0.871370 0.929064
vt 0.873679 0.819721
vt 0.881406 0.843089
vt 0.871018 0.949016
vt 0.888764 0.912851
vt 0.888642 0.929222
vt 0.875887 0.818669
vt 0.888222 0.840628
vt 0.888184 0.945578
vt 0.893402 0.853082
vt 0.901410 0.880546
vt 0.888677 0.897336
vt 0.902452 0.848684
vt 0.915949 0.876358
vt 0.904071 0.896389
vt 0.904555 0.912396
vt 0.906649 0.929805
vt 0.877874 0.817181
vt 0.894723 0.836792
vt 0.879556 0.815304
vt 0.900624 0.831516
vt 0.911361 0.842395
vt 0.929858 0.869352
vt 0.922020 0.894047
vt 0.920313 0.911975
vt 0.914759 0.926636
vt 0.932171 0.846000
vt 0.880851 0.813112
vt 0.905468 0.824789
vt 0.881565 0.810593
vt 0.909017 0.816735
vt 0.919554 0.833784
vt 0.881770 0.807945
vt 0.910173 0.808034
vt 0.928541 0.821550
vt 0.881451 0.805313
vt 0.908778 0.799389
vt 0.929052 0.806343
vt 0.880627 0.802806
vt 0.905778 0.791495
vt 0.924227 0.794728
vt 0.919258 0.784646
vt 0.879297 0.800536
vt 0.901494 0.784425
vt 0.877552 0.798572
vt 0.896049 0.778226
vt 0.913411 0.775793
vt 0.875445 0.796981
vt 0.889409 0.773080
vt 0.906680 0.767590
vt 0.873083 0.795840
vt 0.881574 0.769165
vt 0.898511 0.759779
vt 0.870535 0.795395
vt 0.872903 0.767679
vt 0.888812 0.751522
vt 0.867974 0.795459
vt 0.864184 0.768700
vt 0.874199 0.747441
vt 0.865535 0.796005
vt 0.856289 0.771568
vt 0.859909 0.752245
vt 0.863278 0.797004
vt 0.843324 0.771255
vt 0.832361 0.769089
vt 0.809679 0.753508
vt 0.861449 0.798269
vt 0.836997 0.774736
vt 0.859874 0.799891
vt 0.834851 0.777328
vt 0.827719 0.777312
vt 0.803390 0.765367
vt 0.803728 0.729999
vt 0.796086 0.746021
vt 0.787366 0.726269
vt 0.781303 0.739922
vt 0.773003 0.726682
vt 0.768340 0.732466
vt 0.789746 0.759864
vt 0.774676 0.754160
vt 0.756851 0.747234
vt 0.858604 0.801844
vt 0.833904 0.787292
vt 0.824235 0.785803
vt 0.799039 0.777472
vt 0.821967 0.794444
vt 0.796383 0.790036
vt 0.785122 0.773871
vt 0.769933 0.770163
vt 0.753061 0.766322
vt 0.857726 0.804042
vt 0.834185 0.797108
vt 0.782239 0.788170
vt 0.766810 0.786122
vt 0.750169 0.783333
vt 0.857131 0.806355
vt 0.833168 0.803802
vt 0.735395 0.764129
vt 0.733837 0.779845
vt 0.820996 0.803192
vt 0.795433 0.802671
vt 0.821427 0.811854
vt 0.796325 0.815295
vt 0.781103 0.802721
vt 0.765027 0.802483
vt 0.746729 0.800879
vt 0.857001 0.808707
vt 0.833323 0.810455
vt 0.727727 0.796214
vt 0.782068 0.817528
vt 0.765652 0.819896
vt 0.745000 0.822241
vt 0.857323 0.811001
vt 0.834601 0.816898
vt 0.735763 0.826424
vt 0.823241 0.820230
vt 0.799174 0.827603
vt 0.826384 0.828121
vt 0.803933 0.839224
vt 0.785521 0.832130
vt 0.770042 0.837443
vt 0.860682 0.816901
vt 0.751638 0.844276
vt 0.858083 0.813175
vt 0.836940 0.822967
vt 0.727486 0.854519
vt 0.721287 0.776528
vt 0.859200 0.815166
vt 0.777049 0.853383
vt 0.760284 0.862424
vt 0.738684 0.874480
vt 0.851239 0.959757
vt 0.791274 0.845822
vt 0.908893 0.752191
vt 0.915900 0.760858
vt 0.922135 0.769071
vt 0.928137 0.777447
vt 0.934380 0.786732
vt 0.932685 0.755915
vt 0.936768 0.758251
vt 0.937777 0.762810
vt 0.862356 0.705285
vt 0.886538 0.713432
vt 0.957733 0.903449
vt 0.950250 0.924369
vt 0.964919 0.806715
vt 0.964932 0.820217
vt 0.899251 0.717466
vt 0.965047 0.846277
vt 0.941029 0.947760
vt 0.965942 0.875175
vt 0.784650 0.694394
vt 0.806541 0.693817
vt 0.921272 0.723200
vt 0.948924 0.740748
vt 0.759709 0.696455
vt 0.835670 0.695374
vt 0.957117 0.751803
vt 0.965942 0.783482
vt 0.953510 0.745947
vt 0.880962 0.978127
vt 0.849936 0.981964
vt 0.703745 0.828687
vt 0.699381 0.799969
vt 0.739713 0.726946
vt 0.754696 0.713441
vt 0.770421 0.957173
vt 0.746266 0.936531
vt 0.820280 0.974208
vt 0.800884 0.966206
vt 0.923117 0.948016
vt 0.709629 0.882226
vt 0.702186 0.858691
vt 0.701497 0.770748
vt 0.901376 0.967920
vt 0.719589 0.914448
vt 0.715454 0.745060
s 1
g vesMesh_vesMat
usemtl vesMat
f 3/1/1 83/2/2 7/3/3 8/4/4
f 2/5/5 82/6/6 5/7/7 6/8/8
f 86/9/9 85/10/10 10/11/11 11/12/12
f 84/13/13 3/14/1 8/15/4 9/16/14
f 83/2/2 2/5/5 6/8/8 7/3/3
f 82/6/6 1/17/15 5/7/7
f 4/18/16 86/9/9 11/12/12
f 85/10/10 84/13/13 9/16/14 10/11/11
f 11/12/12 10/11/11 17/19/17 18/20/18
f 9/16/14 8/15/4 15/21/19 16/22/20
f 7/3/3 6/8/8 13/23/21 14/24/22
f 5/7/7 1/17/15 12/25/23
f 4/18/16 11/12/12 18/20/18
f 10/11/11 9/16/14 16/22/20 17/19/17
f 8/4/4 7/3/3 14/24/22 15/26/19
f 6/8/8 5/7/7 12/25/23 13/23/21
f 12/25/23 1/17/15 19/27/24
f 4/18/16 18/20/18 25/28/25
f 17/19/17 16/22/20 23/29/26 24/30/27
f 15/26/19 14/24/22 21/31/28 22/32/29
f 13/23/21 12/25/23 19/27/24 20/33/30
f 18/20/18 17/19/17 24/30/27 25/28/25
f 16/22/20 15/21/19 22/34/29 23/29/26
f 14/24/22 13/23/21 20/33/30 21/31/28
f 24/30/27 23/29/26 30/35/31 31/36/32
f 22/32/29 21/31/28 28/37/33 29/38/34
f 20/33/30 19/27/24 26/39/35 27/40/36
f 25/28/25 24/30/27 31/36/32 32/41/37
f 23/29/26 22/34/29 29/42/34 30/35/31
f 21/31/28 20/33/30 27/40/36 28/37/33
f 19/27/24 1/17/15 26/39/35
f 4/18/16 25/28/25 32/41/37
f 32/41/37 31/36/32 38/43/38 39/44/39
f 30/35/31 29/42/34 36/45/40 37/46/41
f 28/37/33 27/40/36 34/47/42 35/48/43
f 26/39/35 1/17/15 33/49/44
f 4/18/16 32/41/37 39/44/39
f 31/36/32 30/35/31 37/46/41 38/43/38
f 29/38/34 28/37/33 35/48/43 36/50/40
f 27/40/36 26/39/35 33/49/44 34/47/42
f 37/46/41 36/45/40 43/51/45 44/52/46
f 35/48/43 34/47/42 41/53/47 42/54/48
f 33/49/44 1/17/15 40/55/49
f 4/18/16 39/44/39 46/56/50
f 38/43/38 37/46/41 44/52/46 45/57/51
f 36/50/40 35/48/43 42/54/48 43/58/45
f 34/47/42 33/49/44 40/55/49 41/53/47
f 39/44/39 38/43/38 45/57/51 46/56/50
f 4/18/16 46/56/50 53/59/52
f 45/57/51 44/52/46 51/60/53 52/61/54
f 43/58/45 42/54/48 49/62/55 50/63/56
f 41/53/47 40/55/49 47/64/57 48/65/58
f 46/56/50 45/57/51 52/61/54 53/59/52
f 44/52/46 43/51/45 50/66/56 51/60/53
f 42/54/48 41/53/47 48/65/58 49/62/55
f 40/55/49 1/17/15 47/64/57
f 50/63/56 49/62/55 56/67/59 57/68/60
f 48/65/58 47/64/57 54/69/61 55/70/62
f 53/59/52 52/61/54 59/71/63 60/72/64
f 51/60/53 50/66/56 57/73/60 58/74/65
f 49/62/55 48/65/58 55/70/62 56/67/59
f 47/64/57 1/17/15 54/69/61
f 4/18/16 53/59/52 60/72/64
f 52/61/54 51/60/53 58/74/65 59/71/63
f 60/72/64 59/71/63 66/75/66 67/76/67
f 58/74/65 57/73/60 64/77/68 65/78/69
f 56/67/59 55/70/62 62/79/70 63/80/71
f 54/69/61 1/17/15 61/81/72
f 4/18/16 60/72/64 67/76/67
f 59/71/63 58/74/65 65/78/69 66/75/66
f 57/68/60 56/67/59 63/80/71 64/82/68
f 55/70/62 54/69/61 61/81/72 62/79/70
f 63/80/71 62/79/70 69/83/73 70/84/74
f 61/81/72 1/17/15 68/85/75
f 4/18/16 67/76/67 74/86/76
f 66/75/66 65/78/69 72/87/77 73/88/78
f 64/82/68 63/80/71 70/84/74 71/89/79
f 62/79/70 61/81/72 68/85/75 69/83/73
f 67/76/67 66/75/66 73/88/78 74/86/76
f 65/78/69 64/77/68 71/90/79 72/87/77
f 4/18/16 74/86/76 81/91/80
f 73/88/78 72/87/77 79/92/81 80/93/82
f 71/89/79 70/84/74 77/94/83 78/95/84
f 69/83/73 68/85/75 75/96/85 76/97/86
f 74/86/76 73/88/78 80/93/82 81/91/80
f 72/87/77 71/90/79 78/98/84 79/92/81
f 70/84/74 69/83/73 76/97/86 77/94/83
f 68/85/75 1/17/15 75/96/85
f 76/97/86 75/96/85 82/6/6 2/5/5
f 81/91/80 80/93/82 85/10/10 86/9/9
f 79/92/81 78/98/84 3/14/1 84/13/13
f 77/94/83 76/97/86 2/5/5 83/2/2
f 75/96/85 1/17/15 82/6/6
f 4/18/16 81/91/80 86/9/9
f 80/93/82 79/92/81 84/13/13 85/10/10
f 78/95/84 77/94/83 83/2/2 3/1/1
s 0
f 95/99/87 94/100/87 102/101/87 103/102/87
f 88/103/88 279/104/88 95/99/88 96/105/88
f 89/106/89 88/103/89 96/105/89 97/107/89
f 90/108/90 89/106/90 97/107/90 98/109/90
f 206/110/91 202/111/91 205/112/91
f 280/113/92 90/108/92 98/109/92 99/114/92
f 205/112/93 209/115/93 210/116/93 206/110/93
f 278/117/94 87/118/94 93/119/94 94/100/94
f 94/100/95 93/119/95 101/120/95 102/101/95
f 103/102/96 102/101/96 110/121/96 111/122/96
f 96/105/97 95/99/97 103/102/97 104/123/97
f 97/107/98 96/105/98 104/123/98 105/124/98
f 98/109/99 97/107/99 105/124/99 106/125/99
f 101/120/100 100/126/100 108/127/100 109/128/100
f 99/114/101 98/109/101 106/125/101 107/129/101
f 105/124/102 104/123/102 112/130/102 113/131/102
f 106/125/103 105/124/103 113/131/103 114/132/103
f 109/128/104 108/127/104 116/133/104 117/134/104
f 107/129/105 106/125/105 114/132/105 115/135/105
f 102/101/106 101/120/106 109/128/106 110/121/106
f 111/122/107 110/121/107 118/136/107 119/137/107
f 104/123/108 103/102/108 111/122/108 112/130/108
f 110/121/109 109/128/109 117/134/109 118/136/109
f 119/137/110 118/136/110 126/138/110 127/139/110
f 112/130/111 111/122/111 119/137/111 120/140/111
f 113/131/112 112/130/112 120/140/112 121/141/112
f 114/132/113 113/131/113 121/141/113 122/142/113
f 117/134/114 116/133/114 124/143/114 125/144/114
f 115/135/115 114/132/115 122/142/115 123/145/115
f 121/141/116 120/140/116 128/146/116 129/147/116
f 122/142/117 121/141/117 129/147/117 130/148/117
f 125/144/118 124/143/118 133/149/118 134/150/118
f 123/145/119 122/142/119 130/148/119 131/151/119
f 118/136/120 117/134/120 125/144/120 126/138/120
f 127/139/121 126/138/121 135/152/121 136/153/121
f 120/140/122 119/137/122 127/139/122 128/146/122
f 136/153/123 135/152/123 143/154/123 144/155/123
f 128/146/124 127/139/124 136/153/124 137/156/124
f 129/147/125 128/146/125 137/156/125 138/157/125
f 130/148/126 129/147/126 138/157/126 139/158/126
f 134/150/127 133/149/127 141/159/127 142/160/127
f 131/151/128 130/148/128 139/158/128 140/161/128
f 126/138/129 125/144/129 134/150/129 135/152/129
f 139/158/130 138/157/130 146/162/130 147/163/130
f 142/160/131 141/159/131 149/164/131 150/165/131
f 140/161/132 139/158/132 147/163/132 148/166/132
f 135/152/133 134/150/133 142/160/133 143/154/133
f 143/154/134 151/167/134 152/168/134 144/155/134
f 137/156/135 136/153/135 144/155/135 145/169/135
f 138/157/136 137/156/136 145/169/136 146/162/136
f 152/168/137 151/167/137 158/170/137 159/171/137
f 145/169/138 144/155/138 152/168/138 153/172/138
f 146/162/139 145/169/139 153/172/139 154/173/139
f 147/163/140 146/162/140 154/173/140 155/174/140
f 150/165/141 149/164/141 156/175/141 157/176/141
f 143/154/142 142/160/142 150/165/142 151/167/142
f 157/176/143 156/175/143 163/177/143 164/178/143
f 151/167/144 150/165/144 157/176/144 158/170/144
f 158/170/145 165/179/145 166/180/145 159/171/145
f 153/172/146 152/168/146 159/171/146 160/181/146
f 154/173/147 153/172/147 160/181/147 161/182/147
f 155/174/148 154/173/148 161/182/148 162/183/148
f 170/184/149 166/180/149 165/179/149
f 163/177/150 167/185/150 168/186/150 164/178/150
f 158/170/151 157/176/151 164/178/151 165/179/151
f 168/186/152 167/185/152 171/187/152 172/188/152
f 165/179/153 164/178/153 168/186/153 169/189/153
f 165/179/154 169/189/154 170/184/154
f 171/187/155 174/190/155 175/191/155 172/188/155
f 169/189/156 168/186/156 172/188/156 173/192/156
f 175/191/157 174/190/157 177/193/157 178/194/157
f 173/192/158 172/188/158 175/191/158 176/195/158
f 178/194/159 177/193/159 180/196/159 181/197/159
f 176/195/160 175/191/160 178/194/160 179/198/160
f 179/198/161 178/194/161 181/197/161 182/199/161
f 181/197/162 180/196/162 183/200/162 184/201/162
f 184/201/163 183/200/163 187/202/163 188/203/163
f 182/199/164 181/197/164 184/201/164 185/204/164
f 188/203/165 187/202/165 190/205/165 191/206/165
f 185/204/166 184/201/166 188/203/166 189/207/166
f 191/206/167 190/205/167 193/208/167 194/209/167
f 189/207/168 188/203/168 191/206/168 192/210/168
f 194/209/169 193/208/169 196/211/169 197/212/169
f 192/210/170 191/206/170 194/209/170 195/213/170
f 197/212/171 196/211/171 199/214/171 200/215/171
f 195/213/172 194/209/172 197/212/172 198/216/172
f 200/215/173 199/214/173 203/217/173 204/218/173
f 198/216/174 197/212/174 200/215/174 201/219/174
f 204/218/175 203/217/175 207/220/175 208/221/175
f 201/219/176 200/215/176 204/218/176 205/112/176
f 202/111/177 201/219/177 205/112/177
f 210/116/178 209/115/178 216/222/178 217/223/178
f 207/220/179 214/224/179 215/225/179 208/221/179
f 205/112/180 204/218/180 208/221/180 209/115/180
f 215/225/181 214/224/181 221/226/181 222/227/181
f 209/115/182 208/221/182 215/225/182 216/222/182
f 217/223/183 216/222/183 223/228/183 224/229/183
f 211/230/184 210/116/184 217/223/184 218/231/184
f 212/232/185 211/230/185 218/231/185 219/233/185
f 213/234/186 212/232/186 219/233/186 220/235/186
f 218/231/187 217/223/187 224/229/187 225/236/187
f 219/233/188 218/231/188 225/236/188 226/237/188
f 220/235/189 219/233/189 226/237/189 227/238/189
f 222/227/190 221/226/190 228/239/190 229/240/190
f 216/222/191 215/225/191 222/227/191 223/228/191
f 224/229/192 223/228/192 230/241/192 231/242/192
f 223/228/193 222/227/193 229/240/193 230/241/193
f 231/242/194 230/241/194 238/243/194 239/244/194
f 225/236/195 224/229/195 231/242/195 232/245/195
f 226/237/196 225/236/196 232/245/196 233/246/196
f 227/238/197 226/237/197 233/246/197 234/247/197
f 229/240/198 228/239/198 236/248/198 237/249/198
f 233/246/199 232/245/199 240/250/199 241/251/199
f 234/247/200 233/246/200 241/251/200 242/252/200
f 237/249/201 236/248/201 245/253/201 246/254/201
f 235/255/202 234/247/202 242/252/202 243/256/202
f 230/241/203 229/240/203 237/249/203 238/243/203
f 239/244/204 238/243/204 247/257/204 248/258/204
f 232/245/205 231/242/205 239/244/205 240/250/205
f 238/243/206 237/249/206 246/254/206 247/257/206
f 248/258/207 247/257/207 255/259/207 256/260/207
f 240/250/208 239/244/208 248/258/208 249/261/208
f 241/251/209 240/250/209 249/261/209 250/262/209
f 242/252/210 241/251/210 250/262/210 251/263/210
f 246/254/211 245/253/211 253/264/211 254/265/211
f 243/256/212 242/252/212 251/263/212 252/266/212
f 250/262/213 249/261/213 257/267/213 258/268/213
f 251/263/214 250/262/214 258/268/214 259/269/214
f 254/265/215 253/264/215 261/270/215 262/271/215
f 252/266/216 251/263/216 259/269/216 260/272/216
f 247/257/217 246/254/217 254/265/217 255/259/217
f 256/260/218 255/259/218 263/273/218 264/274/218
f 249/261/219 248/258/219 256/260/219 257/267/219
f 264/274/220 263/273/220 271/275/220 272/276/220
f 257/267/221 256/260/221 264/274/221 265/277/221
f 258/268/222 257/267/222 265/277/222 266/278/222
f 93/119/223 92/279/223 100/126/223 101/120/223
f 259/269/224 258/268/224 266/278/224 267/280/224
f 262/271/225 261/270/225 269/281/225 270/282/225
f 260/272/226 259/269/226 267/280/226 268/283/226
f 243/256/227 252/266/227 244/284/227
f 255/259/228 254/265/228 262/271/228 263/273/228
f 100/126/1 92/279/1 277/285/1 269/281/1 261/270/1 253/264/1 245/253/1 236/248/1 228/239/1 221/226/1 214/224/1 207/220/1 203/217/1 199/214/1 196/211/1 193/208/1 190/205/1 187/202/1 183/200/1 180/196/1 177/193/1 174/190/1 171/187/1 167/185/1 163/177/1 156/175/1 149/164/1 141/159/1 133/149/1 124/143/1 116/133/1 108/127/1
f 267/280/229 266/278/229 274/286/229 275/287/229
f 270/282/230 269/281/230 277/285/230 87/118/230
f 268/283/231 267/280/231 275/287/231 276/288/231
f 132/289/232 123/145/232 131/151/232
f 263/273/233 262/271/233 270/282/233 271/275/233
f 272/276/234 271/275/234 278/117/234 279/104/234
f 265/277/235 264/274/235 272/276/235 273/290/235
f 266/278/236 265/277/236 273/290/236 274/286/236
f 273/290/237 272/276/237 279/104/237 88/103/237
f 274/286/238 273/290/238 88/103/238 89/106/238
f 275/287/239 274/286/239 89/106/239 90/108/239
f 87/118/240 277/285/240 92/279/240 93/119/240
f 276/288/241 275/287/241 90/108/241 280/113/241
f 279/104/242 278/117/242 94/100/242 95/99/242
f 271/275/243 270/282/243 87/118/243 278/117/243
f 189/207/244 192/210/244 284/291/244 283/292/244
f 185/204/245 189/207/245 283/292/245 282/293/245
f 179/198/246 182/199/246 281/294/246 186/295/246
f 182/199/247 185/204/247 282/293/247 281/294/247
f 282/293/248 283/292/248 287/296/248 286/297/248
f 281/294/249 282/293/249 286/297/249 285/298/249
f 283/292/250 284/291/250 287/296/250
f 195/213/251 284/291/251 192/210/251
f 281/294/252 285/298/252 186/295/252
f 179/198/253 186/295/253 176/195/253
f 202/111/254 198/216/254 201/219/254
f 169/189/255 173/192/255 170/184/255
f 159/171/256 166/180/256 160/181/256
f 211/230/257 206/110/257 210/116/257
f 147/163/258 155/174/258 148/166/258
f 235/255/259 227/238/259 234/247/259
f 244/284/260 235/255/260 243/256/260
f 131/151/261 140/161/261 132/289/261
f 198/216/262 202/111/262 298/299/262 297/300/262
f 161/182/263 160/181/263 288/301/263 289/302/263
f 173/192/264 176/195/264 294/303/264 293/304/264
f 195/213/265 198/216/265 297/300/265 296/305/265
f 170/184/266 173/192/266 293/304/266 292/306/266
f 162/183/267 161/182/267 289/302/267 290/307/267
f 166/180/268 170/184/268 292/306/268 291/308/268
f 211/230/269 212/232/269 301/309/269 300/310/269
f 160/181/270 166/180/270 291/308/270 288/301/270
f 287/296/271 284/291/271 303/311/271 306/312/271
f 212/232/272 213/234/272 302/313/272 301/309/272
f 202/111/273 206/110/273 299/314/273 298/299/273
f 284/291/274 195/213/274 296/305/274 303/311/274
f 206/110/275 211/230/275 300/310/275 299/314/275
f 186/295/276 285/298/276 304/315/276 295/316/276
f 285/298/277 286/297/277 305/317/277 304/315/277
f 176/195/278 186/295/278 295/316/278 294/303/278
f 286/297/279 287/296/279 306/312/279 305/317/279
f 132/289/273 140/161/273 312/318/273 311/319/273
f 252/266/280 260/272/280 320/320/280 319/321/280
f 220/235/281 227/238/281 316/322/281 315/323/281
f 99/114/282 107/129/282 308/324/282 307/325/282
f 115/135/283 123/145/283 310/326/283 309/327/283
f 155/174/284 162/183/284 290/307/284 314/328/284
f 268/283/285 276/288/285 322/329/285 321/330/285
f 260/272/286 268/283/286 321/330/286 320/320/286
f 244/284/287 252/266/287 319/321/287 318/331/287
f 148/166/288 155/174/288 314/328/288 313/332/288
f 276/288/289 280/113/289 323/333/289 322/329/289
f 123/145/290 132/289/290 311/319/290 310/326/290
f 227/238/270 235/255/270 317/334/270 316/322/270
f 107/129/291 115/135/291 309/327/291 308/324/291
f 213/234/292 220/235/292 315/323/292 302/313/292
f 280/113/293 99/114/293 307/325/293 323/333/293
f 140/161/294 148/166/294 313/332/294 312/318/294
f 235/255/268 244/284/268 318/331/268 317/334/268
