# Blender 5.0.1
# www.blender.org
mtllib model.mtl
o markMesh
v 1.269054 0.023107 0.089016
v 0.707107 0.000000 0.626763
v 0.923879 0.270598 0.244336
v 0.707107 0.500000 0.445316
v 0.229983 0.689568 0.571940
v 0.080702 0.710565 0.590335
v 0.923879 0.382683 0.007265
v 0.535476 0.815456 0.007265
v 0.259839 0.741922 0.448644
v 0.050846 0.772951 0.470944
v -0.382683 0.923879 0.007265
v -0.707107 0.707107 0.007265
v 0.923879 0.270598 -0.229807
v 0.707107 0.500000 -0.430786
v 0.382683 0.653281 -0.565076
v 0.000000 0.707107 -0.612233
v -0.382683 0.653281 -0.565076
v -0.707107 0.500000 -0.430786
v 1.150365 -0.000000 -0.247057
v 0.707107 0.000000 -0.612233
v 0.382683 0.000000 -0.802148
v -0.000000 -0.000000 -0.868837
v -0.382683 0.000000 -0.802148
v -0.707107 0.000000 -0.612233
v 0.923879 -0.270598 -0.229807
v 0.707107 -0.500000 -0.430786
v 0.382683 -0.653281 -0.565076
v 0.000000 -0.707107 -0.612233
v -0.382683 -0.653281 -0.565076
v -0.707107 -0.500000 -0.430786
v 0.923879 -0.382683 0.007265
v 0.485322 -0.813769 0.007265
v 0.267327 -0.733217 0.461570
v 0.053471 -0.764968 0.484389
v -0.382683 -0.923879 0.007265
v -0.707107 -0.707107 0.007265
v 0.923879 -0.270598 0.244336
v 0.707107 -0.500000 0.445316
v 0.236777 -0.679645 0.587735
v 0.084022 -0.701130 0.606559
v 0.996177 0.010304 0.225239
v 1.148813 0.153143 -0.186443
v 1.201658 0.002562 -0.196042
v 1.148813 -0.148019 -0.186443
v 1.255365 0.015421 0.057664
v 0.382683 0.923879 0.007265
v 0.000000 1.000000 0.007265
v 0.382683 -0.923879 0.007265
v 0.000000 -1.000000 0.007265
v 0.155342 0.674302 0.635632
v 0.191342 0.961940 0.007265
v 0.191342 0.680194 -0.588655
v 0.191342 -0.000000 -0.835492
v 0.191342 -0.680194 -0.588655
v 0.191342 -0.961940 0.007265
v 0.160399 -0.664023 0.652910
v 0.155342 0.810033 0.348548
v 0.160399 -0.802913 0.359145
v 0.285993 -0.850455 0.508964
v 0.096690 -0.878559 0.529163
v 0.258950 -0.803033 0.620643
v 0.123734 -0.822051 0.637305
v 0.191342 -0.789205 0.678335
v 0.191342 -0.912148 0.418299
v 0.241550 -0.901046 0.551203
v 0.141133 -0.915955 0.561918
v 0.227205 -0.875891 0.610444
v 0.155478 -0.885979 0.619283
v 0.191342 -0.868556 0.641047
v 0.191342 -0.933772 0.503109
v 0.258950 0.804033 0.612643
v 0.123734 0.823052 0.629305
v 0.285993 0.851455 0.500963
v 0.096690 0.879560 0.521163
v 0.191342 0.790205 0.670334
v 0.191342 0.913148 0.410298
v 0.229558 0.889802 0.615794
v 0.153126 0.900553 0.625212
v 0.244844 0.916608 0.552667
v 0.137840 0.932494 0.564084
v 0.191342 0.881986 0.648404
v 0.191342 0.951480 0.501418
v 0.761608 -0.000000 0.648920
v 0.416482 -0.000000 0.850954
v 0.212930 -0.000000 0.886427
v 0.009378 -0.000000 0.921899
v -0.397725 -0.000000 0.850954
v -0.742851 -0.000000 0.648920
v 0.761608 0.531906 0.455895
v 0.416482 0.694969 0.598754
v 0.179322 0.684952 0.658896
v 0.009378 0.752229 0.648920
v -0.397725 0.694969 0.598754
v -0.742851 0.531906 0.455895
v -0.973457 0.287866 0.242090
v 0.589977 0.860578 -0.010110
v 0.416482 0.982835 -0.010110
v 0.212930 1.023324 -0.010110
v 0.009378 1.063813 -0.010110
v -0.397725 0.982835 -0.010110
v -0.973457 0.407104 -0.010110
v -0.973457 0.287866 -0.262309
v -0.973457 -0.000000 -0.366774
v -0.973457 -0.287866 -0.262309
v 0.539823 -0.858892 -0.010110
v 0.416482 -0.982835 -0.010110
v 0.212930 -1.023324 -0.010110
v 0.009378 -1.063813 -0.010110
v -0.397725 -0.982835 -0.010110
v -0.973457 -0.407104 -0.010110
v 0.761608 -0.531906 0.455895
v 0.416482 -0.694969 0.598754
v 0.184642 -0.675788 0.675779
v 0.009378 -0.752229 0.648920
v -0.397725 -0.694969 0.598754
v -0.742851 -0.531906 0.455895
v -0.973457 -0.287866 0.242090
v -0.973457 -0.000000 0.346555
v -1.054435 -0.000000 -0.010110
v 0.179177 0.866614 0.353029
v 0.068011 0.827166 0.483236
v 0.099773 0.760799 0.610246
v 0.290342 0.794158 0.459513
v 0.258580 0.738462 0.590677
v 0.184788 -0.860811 0.363731
v 0.071036 -0.820444 0.496967
v 0.266039 -0.729677 0.606908
v 0.298540 -0.786668 0.472692
v 0.103536 -0.752533 0.626933
v 0.596307 0.448922 0.765578
v 0.713305 0.448922 0.769446
v 0.666632 0.686305 0.647943
v 0.757465 0.629083 0.695579
v 0.807282 0.686305 0.412672
v 0.892243 0.629083 0.470130
v 0.877607 0.448922 0.295037
v 0.936403 0.448922 0.396263
v 0.807282 0.211538 0.412672
v 0.892243 0.268761 0.470130
v 0.666632 0.211538 0.647943
v 0.757465 0.268761 0.695579
v 0.596307 -0.445487 0.765578
v 0.713305 -0.445487 0.769445
v 0.666632 -0.208104 0.647943
v 0.757465 -0.261188 0.695579
v 0.807282 -0.208104 0.412672
v 0.892243 -0.261188 0.470130
v 0.877607 -0.445487 0.295037
v 0.936403 -0.445487 0.396263
v 0.807282 -0.682871 0.412672
v 0.892243 -0.629786 0.470130
v 0.666632 -0.682871 0.647943
v 0.757465 -0.629786 0.695579
v 0.754529 0.686305 0.700490
v 0.684204 0.448922 0.818125
v 0.895179 0.686305 0.465219
v 0.965504 0.448922 0.347584
v 0.895179 0.211538 0.465219
v 0.754529 0.211538 0.700490
v 0.754529 -0.208104 0.700490
v 0.684204 -0.445487 0.818125
v 0.895179 -0.208104 0.465219
v 0.965504 -0.445487 0.347584
v 0.895179 -0.682871 0.465219
v 0.754529 -0.682871 0.700490
v 0.817434 0.601394 0.707914
v 0.780062 0.448922 0.770428
v 0.931499 0.601394 0.517114
v 0.968871 0.448922 0.454600
v 0.931499 0.296450 0.517114
v 0.817434 0.296450 0.707914
v 0.817434 -0.289513 0.707914
v 0.780062 -0.445487 0.770428
v 0.931499 -0.289513 0.517114
v 0.968871 -0.445487 0.454600
v 0.931499 -0.601461 0.517114
v 0.817434 -0.601461 0.707914
v 1.145222 0.149311 0.027931
v 1.145222 0.149311 0.041900
v 1.125456 0.149311 0.027931
v 1.125456 0.149311 0.041900
v 1.145222 0.687672 0.027931
v 1.145222 0.687672 0.041900
v 1.125456 0.687672 0.027931
v 1.125456 0.687672 0.041900
v 1.145222 -0.648561 0.034858
v 1.145222 -0.648561 0.048828
v 1.125456 -0.648561 0.034858
v 1.125456 -0.648561 0.048828
v 1.145222 -0.110200 0.034858
v 1.145222 -0.110199 0.048828
v 1.125456 -0.110200 0.034858
v 1.125456 -0.110199 0.048828
v 1.145222 -0.642823 0.190078
v 1.145222 -0.637376 0.203506
v 1.125456 -0.642823 0.190078
v 1.125456 -0.637376 0.203506
v 1.145222 -0.125305 0.085230
v 1.145222 -0.119859 0.098658
v 1.125456 -0.125305 0.085230
v 1.125456 -0.119859 0.098658
v 1.145222 0.148118 0.085193
v 1.145222 0.142812 0.098650
v 1.125456 0.148118 0.085193
v 1.125456 0.142812 0.098650
v 1.145222 0.666725 0.187315
v 1.145222 0.661420 0.200772
v 1.125456 0.666725 0.187315
v 1.125456 0.661420 0.200772
v 1.145222 0.149050 -0.021596
v 1.145222 0.152101 -0.007794
v 1.125456 0.149050 -0.021596
v 1.125456 0.152101 -0.007794
v 1.145222 0.680961 -0.080318
v 1.145222 0.684012 -0.066516
v 1.125456 0.680961 -0.080318
v 1.125456 0.684012 -0.066516
v 1.145222 -0.639850 -0.086965
v 1.145222 -0.643596 -0.073249
v 1.125456 -0.639850 -0.086965
v 1.125456 -0.643596 -0.073249
v 1.145222 -0.111244 -0.014864
v 1.145222 -0.114989 -0.001147
v 1.125456 -0.111244 -0.014864
v 1.125456 -0.114989 -0.001147
v 1.255364 0.077048 0.009723
v 1.208645 0.077048 0.057664
v 1.302084 0.077048 0.057664
v 1.255364 0.077048 0.105605
v 1.255364 -0.046207 0.009723
v 1.208645 -0.046207 0.057664
v 1.302084 -0.046207 0.057664
v 1.255364 -0.046207 0.105605
v 1.319531 0.015421 0.057664
v 1.255364 0.015421 0.123508
v 1.255364 0.015421 -0.008180
v 1.191198 0.015421 0.057664
vn 0.8296 0.0005 -0.5584
vn 0.5515 0.0013 0.8342
vn 0.7575 0.3582 0.5458
vn 0.9842 -0.0921 -0.1512
vn 0.9055 0.0145 0.4241
vn 0.7491 0.6621 -0.0209
vn 0.3608 0.1031 -0.9269
vn -0.0530 0.0855 -0.9949
vn 0.0109 0.0873 -0.9961
vn -0.0000 0.5415 -0.8407
vn -0.3629 0.5063 -0.7823
vn 0.0667 0.0904 -0.9937
vn 0.6371 0.4800 -0.6031
vn 0.3642 0.5065 -0.7816
vn 0.7152 0.5260 -0.4602
vn 0.4479 0.5114 -0.7334
vn 0.1886 0.5287 -0.8276
vn 0.0197 0.0992 -0.9949
vn 0.1779 0.5501 -0.8159
vn -0.3178 -0.0000 -0.9481
vn 0.2012 0.0001 -0.9795
vn 0.3178 -0.0000 -0.9481
vn 0.1717 -0.0000 -0.9852
vn 0.5347 -0.0018 -0.8450
vn 0.5798 -0.0000 -0.8148
vn 0.6817 0.3028 0.6660
vn 0.9914 0.1230 0.0442
vn 0.9115 -0.4030 -0.0822
vn 0.7051 -0.0375 -0.7081
vn -0.0000 -0.0000 -1.0000
vn 0.7153 -0.5373 -0.4469
vn 0.6852 -0.5480 -0.4798
vn 0.9398 -0.0200 0.3410
vn 0.3722 -0.5072 -0.7773
vn 0.1779 -0.5501 -0.8159
vn 0.6428 -0.4841 -0.5937
vn -0.0000 -0.5415 -0.8407
vn -0.3629 -0.5063 -0.7823
vn 0.6700 0.5270 -0.5229
vn 0.8458 -0.0011 -0.5336
vn 0.4664 0.0938 0.8796
vn -0.2889 -0.0016 0.9574
vn 0.2160 -0.5444 -0.8105
vn 0.0109 -0.0873 -0.9961
vn -0.0530 -0.0855 -0.9949
vn 0.3103 -0.1284 -0.9419
vn 0.0603 -0.0875 -0.9943
vn 0.7515 -0.6595 -0.0203
vn 0.9802 0.0915 -0.1758
vn 0.9754 -0.0575 -0.2127
vn 0.1785 0.4832 -0.8572
vn -0.9124 -0.1792 -0.3679
vn 0.0197 -0.0992 -0.9949
vn -0.0417 -0.3035 0.9519
vn 0.1933 -0.6360 0.7471
vn -0.9057 -0.0811 -0.4161
vn -0.1711 -0.1967 -0.9654
vn 0.7607 -0.3589 0.5409
vn 0.1108 -0.2534 -0.9610
vn -0.0114 -0.2611 -0.9652
vn 0.1251 0.2565 -0.9584
vn -0.0508 -0.2554 -0.9655
vn 0.5701 -0.7335 0.3701
vn 0.5099 -0.0936 0.8551
vn -0.2889 0.0016 0.9574
vn -0.8745 -0.3212 0.3634
vn -0.0114 0.2611 -0.9652
vn -0.1244 -0.2131 -0.9691
vn 0.2156 -0.5160 -0.8290
vn -0.1116 0.9711 0.2107
vn -0.8745 0.3212 0.3634
vn 0.9724 0.1682 -0.1619
vn 0.5358 0.7804 -0.3222
vn -0.0990 0.2420 -0.9652
vn -0.9076 0.0813 -0.4119
vn -0.0508 0.2554 -0.9655
vn -0.1532 0.1891 -0.9699
vn 0.9793 0.0575 -0.1943
vn -0.0000 -0.0000 -0.0000
vn 0.6925 -0.2763 0.6664
vn 0.7005 0.0401 -0.7125
vn 0.9868 -0.1580 -0.0344
vn 0.9115 0.4030 -0.0823
vn -0.8788 -0.3933 -0.2703
vn -0.1044 -0.1552 0.9823
vn 0.5754 -0.2426 -0.7811
vn 0.9951 -0.0506 0.0850
vn 0.8649 -0.3796 0.3284
vn -0.2898 -0.3162 0.9033
vn -0.6134 -0.7531 -0.2378
vn 0.6518 -0.6011 0.4625
vn 0.5949 -0.5801 -0.5564
vn -0.1025 -0.4715 -0.8759
vn 0.8124 -0.4778 0.3342
vn 0.1114 -0.0614 0.9919
vn 0.9221 -0.0843 0.3775
vn -0.2110 0.0985 0.9725
vn -0.7447 0.5314 0.4039
vn 0.7338 0.0814 -0.6745
vn 0.9509 0.0911 -0.2957
vn 0.7801 0.6024 -0.1688
vn 0.7837 0.6121 -0.1054
vn -0.8451 0.2547 0.4700
vn -0.7233 0.4510 0.5229
vn -0.0087 0.6953 0.7187
vn 0.5121 0.6784 -0.5269
vn -0.3374 0.1949 0.9210
vn -0.9922 -0.0000 0.1245
vn -0.8597 -0.0000 0.5107
vn -0.9231 0.2362 0.3035
vn -0.6162 -0.0000 0.7876
vn -0.3178 -0.0000 0.9481
vn -0.3629 0.5063 0.7822
vn -0.6913 0.4005 0.6014
vn 0.1652 0.0022 0.9863
vn 0.3428 0.0015 0.9394
vn 0.3794 0.5037 0.7761
vn -0.0026 0.0657 0.9978
vn -0.0291 0.0009 0.9996
vn -0.0241 0.5425 0.8397
vn -0.8817 0.2618 0.3924
vn -0.9103 0.3694 0.1871
vn -0.0075 0.9070 0.4210
vn -0.3578 0.8517 0.3828
vn 0.5239 0.7723 0.3593
vn 0.3725 0.8426 0.3888
vn -0.9922 -0.0000 -0.1245
vn -0.9150 0.3461 -0.2075
vn -0.9231 0.2362 -0.3036
vn -0.8597 -0.0000 -0.5108
vn -0.9231 -0.2362 -0.3036
vn -0.8930 -0.3859 -0.2317
vn 0.3966 -0.8407 0.3687
vn 0.5640 -0.7616 0.3193
vn 0.3985 -0.5046 0.7659
vn -0.9256 -0.3309 0.1839
vn -0.9231 -0.2362 0.3035
vn 0.7916 -0.4613 0.4007
vn -0.3788 -0.8321 0.4051
vn -0.3628 -0.5063 0.7823
vn -0.6913 -0.4005 0.6014
vn -0.0077 -0.9071 0.4209
vn -0.0424 -0.5465 0.8364
vn 0.1602 -0.0151 0.9870
vn -0.6289 0.4554 0.6302
vn 0.1746 0.8102 -0.5596
vn 0.5894 0.7956 0.1404
vn 0.1779 0.8961 0.4068
vn -0.4918 0.8314 0.2587
vn 0.8765 0.1201 0.4662
vn 0.1746 -0.8101 -0.5598
vn -0.4921 -0.8312 0.2587
vn 0.1778 -0.8962 0.4065
vn 0.8743 -0.1127 0.4721
vn 0.5926 -0.7932 0.1401
vn -0.6247 -0.4331 0.6498
vn -0.4444 0.5000 0.7433
vn -0.0000 1.0000 -0.0000
vn 0.4444 0.5000 -0.7433
vn 0.4444 -0.5000 -0.7433
vn -0.0136 0.3748 0.9270
vn -0.5131 -0.0000 0.8583
vn -0.4444 -0.5000 0.7433
vn -0.8583 -0.0000 -0.5131
vn 0.8583 -0.0000 0.5131
vn 0.8101 -0.3748 -0.4509
vn -0.0000 -1.0000 -0.0000
vn 0.8075 -0.3822 -0.4494
vn 0.3777 -0.8980 0.2258
vn -0.0136 0.3822 0.9240
vn 0.3777 0.8980 0.2258
vn 0.3708 -0.9019 0.2217
vn -0.0136 -0.3748 0.9270
vn 0.3708 0.9019 0.2217
vn 0.8101 0.3748 -0.4509
vn -0.0136 -0.3822 0.9240
vn 0.8075 0.3822 -0.4494
vn 0.5131 -0.0000 -0.8583
vn -1.0000 -0.0000 -0.0000
vn 1.0000 -0.0000 -0.0000
vn -0.0000 -0.0000 1.0000
vn -0.0000 -0.9267 0.3759
vn -0.0000 0.9267 -0.3759
vn -0.0000 -0.1986 -0.9801
vn -0.0000 0.1986 0.9801
vn -0.0000 -0.9303 -0.3668
vn -0.0000 0.9303 0.3668
vn -0.0000 0.1932 -0.9812
vn -0.0000 -0.1932 0.9812
vn -0.0000 -0.9764 0.2158
vn -0.0000 0.9764 -0.2158
vn -0.0000 -0.1097 -0.9940
vn -0.0000 0.1097 0.9940
vn -0.0000 -0.9647 -0.2634
vn -0.0000 0.9647 0.2634
vn -0.0000 0.1351 -0.9908
vn -0.0000 -0.1351 0.9908
vn 0.7019 -0.1987 0.6840
vn -0.7019 0.1987 -0.6840
vn 0.7019 -0.1987 -0.6840
vn -0.7019 0.1987 0.6840
vn -0.7019 -0.1987 0.6840
vn 0.7019 0.1987 -0.6840
vn -0.7019 -0.1987 -0.6840
vn 0.7019 0.1987 0.6840
vt 0.373834 0.701038
vt 0.376671 0.590489
vt 0.448336 0.595747
vt 0.511496 0.651082
vt 0.380196 0.552984
vt 0.479196 0.530476
vt 0.598349 0.530476
vt 0.774391 0.496722
vt 0.711085 0.549157
vt 0.648987 0.448741
vt 0.702486 0.423464
vt 0.325410 0.160283
vt 0.309784 0.160283
vt 0.264317 0.097148
vt 0.286410 0.077793
vt 0.971809 0.119052
vt 0.844699 0.147951
vt 0.932187 0.035248
vt 0.814006 0.439026
vt 0.747147 0.400643
vt 0.676786 0.568632
vt 0.642007 0.587652
vt 0.583940 0.483296
vt 0.618587 0.465273
vt 0.247409 0.160283
vt 0.231254 0.126114
vt 0.680439 0.389985
vt 0.725452 0.378303
vt 0.563578 0.420309
vt 0.602023 0.410334
vt 0.192253 0.123628
vt 0.192253 0.070996
vt 0.146514 0.958693
vt 0.193805 0.932648
vt 0.205207 0.943949
vt 0.137477 0.972081
vt 0.633001 0.402295
vt 0.192253 0.043624
vt 0.740875 0.035248
vt 0.784207 0.050577
vt 0.841982 0.136869
vt 0.550747 0.355370
vt 0.589784 0.354273
vt 0.153252 0.126114
vt 0.120189 0.097148
vt 0.624386 0.353938
vt 0.683424 0.350010
vt 0.098097 0.077793
vt 0.214325 0.132364
vt 0.192623 0.130981
vt 0.197387 0.886470
vt 0.205207 0.873764
vt 0.733545 0.348232
vt 0.629819 0.236002
vt 0.710629 0.251035
vt 0.074966 0.160283
vt 0.059096 0.160283
vt 0.701253 0.119052
vt 0.039667 0.929681
vt 0.073075 0.958971
vt 0.070103 0.963781
vt 0.034563 0.932622
vt 0.773299 0.282183
vt 0.550747 0.235955
vt 0.590382 0.235664
vt 0.137098 0.160283
vt 0.114472 0.847248
vt 0.102733 0.898384
vt 0.080724 0.903443
vt 0.095197 0.838470
vt 0.268472 0.530476
vt 0.299332 0.595747
vt 0.043625 0.874023
vt 0.206394 0.874023
vt 0.049407 0.886741
vt 0.160009 0.895352
vt 0.155564 0.857073
vt 0.157855 0.855380
vt 0.162584 0.896102
vt 0.149784 0.530476
vt 0.236172 0.651082
vt 0.043625 0.861306
vt 0.206394 0.861306
vt 0.200612 0.874023
vt 0.160692 0.914608
vt 0.163310 0.916587
vt 0.144331 0.949430
vt 0.200074 0.913949
vt 0.207019 0.925234
vt 0.133282 0.968726
vt 0.105202 0.841365
vt 0.079782 0.870328
vt 0.077238 0.869482
vt 0.104279 0.838670
vt 0.159269 0.966986
vt 0.161375 0.933864
vt 0.164036 0.937071
vt 0.161797 0.972307
vt 0.134623 0.846520
vt 0.122183 0.824794
vt 0.087786 0.903995
vt 0.101004 0.961572
vt 0.079301 0.971456
vt 0.063004 0.898299
vt 0.068274 0.885782
vt 0.064995 0.885921
vt 0.890667 0.050577
vt 0.837437 0.047184
vt 0.170920 0.132364
vt 0.056765 0.901236
vt 0.052752 0.902361
vt 0.092059 0.972089
vt 0.115133 0.972089
vt 0.114845 0.977736
vt 0.090297 0.977736
vt 0.154892 0.849805
vt 0.146865 0.837915
vt 0.196892 0.872936
vt 0.207019 0.862900
vt 0.769489 0.694278
vt 0.805624 0.597645
vt 0.820935 0.650332
vt 0.806325 0.715366
vt 0.940242 0.591210
vt 0.912761 0.638708
vt 0.940242 0.702618
vt 0.903550 0.711531
vt 0.802649 0.760082
vt 0.831332 0.741362
vt 0.879589 0.772072
vt 0.862932 0.737383
vt 0.835073 0.682682
vt 0.827602 0.711528
vt 0.874761 0.674750
vt 0.837252 0.726795
vt 0.875795 0.708539
vt 0.855355 0.724024
vt 0.871129 0.772570
vt 0.783170 0.772570
vt 0.823359 0.731457
vt 0.840186 0.741339
vt 0.938049 0.717964
vt 0.889035 0.729776
vt 0.777818 0.679255
vt 0.808653 0.711752
vt 0.821463 0.600812
vt 0.816886 0.655193
vt 0.941698 0.592664
vt 0.901537 0.639546
vt 0.828955 0.690267
vt 0.823146 0.714399
vt 0.858443 0.720639
vt 0.862381 0.684371
vt 0.827513 0.726746
vt 0.837740 0.729583
vt 0.117171 0.964283
vt 0.117171 0.946428
vt 0.121028 0.950292
vt 0.117171 0.933364
vt 0.117171 0.921037
vt 0.127577 0.924428
vt 0.124351 0.938002
vt 0.117171 0.900653
vt 0.117171 0.892369
vt 0.131508 0.889755
vt 0.131009 0.899893
vt 0.117171 0.908301
vt 0.129796 0.908757
vt 0.117171 0.870670
vt 0.133561 0.867826
vt 0.141094 0.953274
vt 0.125713 0.962708
vt 0.164420 0.914248
vt 0.155103 0.938910
vt 0.163676 0.865795
vt 0.165740 0.888247
vt 0.823587 0.352833
vt 0.825375 0.381428
vt 0.782663 0.376342
vt 0.767832 0.367305
vt 0.776396 0.352195
vt 0.811242 0.326979
vt 0.068602 0.888247
vt 0.070665 0.865795
vt 0.100780 0.867826
vt 0.102833 0.889755
vt 0.108628 0.962708
vt 0.113313 0.950291
vt 0.093247 0.953274
vt 0.079238 0.938910
vt 0.106764 0.924428
vt 0.109990 0.938002
vt 0.069921 0.914248
vt 0.104545 0.908757
vt 0.103332 0.899893
vt 0.133008 0.903190
vt 0.144963 0.900163
vt 0.139880 0.894793
vt 0.165606 0.901306
vt 0.138585 0.904888
vt 0.133827 0.896350
vt 0.089378 0.900163
vt 0.095756 0.904888
vt 0.068735 0.901306
vt 0.100514 0.896350
vt 0.094461 0.894793
vt 0.101333 0.903190
vt 0.240944 0.919061
vt 0.241446 0.917712
vt 0.255141 0.912198
vt 0.245106 0.922225
vt 0.256187 0.948377
vt 0.246150 0.937951
vt 0.241899 0.942630
vt 0.242414 0.941249
vt 0.227597 0.948387
vt 0.238165 0.938013
vt 0.502535 0.901748
vt 0.531842 0.887996
vt 0.532248 0.899463
vt 0.520937 0.908661
vt 0.221538 0.919263
vt 0.211993 0.906349
vt 0.229952 0.906933
vt 0.224548 0.918559
vt 0.237303 0.922277
vt 0.227726 0.912214
vt 0.208172 0.919802
vt 0.208726 0.918444
vt 0.222761 0.913296
vt 0.212304 0.923144
vt 0.239805 0.938604
vt 0.225423 0.925047
vt 0.212939 0.939136
vt 0.222545 0.949826
vt 0.208555 0.943679
vt 0.209109 0.942320
vt 0.194520 0.948827
vt 0.204977 0.938978
vt 0.561368 0.945909
vt 0.532061 0.959661
vt 0.531654 0.948194
vt 0.542965 0.938996
vt 0.194736 0.912296
vt 0.204343 0.922987
vt 0.241443 0.913143
vt 0.257389 0.909618
vt 0.258876 0.951240
vt 0.241899 0.947386
vt 0.224986 0.951240
vt 0.225418 0.909627
vt 0.208879 0.913775
vt 0.224986 0.911009
vt 0.224986 0.952504
vt 0.208403 0.948347
vt 0.192295 0.951113
vt 0.192295 0.909618
vt 0.579747 0.908590
vt 0.590818 0.899434
vt 0.602694 0.908358
vt 0.601302 0.938959
vt 0.590231 0.948114
vt 0.578355 0.939191
vt 0.544371 0.908420
vt 0.519531 0.939237
vt 0.619681 0.945853
vt 0.590634 0.959553
vt 0.561368 0.901170
vt 0.561368 0.901695
vt 0.590415 0.887996
vt 0.502535 0.946486
vt 0.619681 0.901126
vt 0.561368 0.946423
vt 0.222732 0.924980
vt 0.211993 0.947435
vt 0.888391 0.076512
vt 0.865406 0.076512
vt 0.865406 0.043990
vt 0.888391 0.043990
vt 0.726211 0.061308
vt 0.721646 0.053857
vt 0.371382 0.056754
vt 0.374098 0.059567
vt 0.842421 0.076512
vt 0.865406 0.076512
vt 0.865406 0.109035
vt 0.842421 0.109035
vt 0.370046 0.053479
vt 0.361373 0.059693
vt 0.726086 0.059569
vt 0.739586 0.053480
vt 0.842421 0.043990
vt 0.739447 0.093396
vt 0.739586 0.163318
vt 0.681372 0.128018
vt 0.680815 0.127958
vt 0.888391 0.109035
vt 0.865406 0.109035
vt 0.681380 0.128587
vt 0.681917 0.128327
vt 0.621828 0.163318
vt 0.624339 0.093718
vt 0.933381 0.141557
vt 0.911144 0.141557
vt 0.911144 0.109035
vt 0.933381 0.109035
vt 0.734989 0.092394
vt 0.739586 0.085027
vt 0.383440 0.085027
vt 0.380738 0.091288
vt 0.888906 0.109035
vt 0.888906 0.141557
vt 0.383473 0.087562
vt 0.389838 0.091438
vt 0.736722 0.093396
vt 0.726565 0.085378
vt 0.887683 0.141557
vt 0.865406 0.141557
vt 0.887683 0.109035
vt 0.736662 0.085027
vt 0.726668 0.077015
vt 0.383019 0.079206
vt 0.389290 0.083049
vt 0.843129 0.109035
vt 0.843129 0.141557
vt 0.382759 0.076691
vt 0.380232 0.082963
vt 0.735273 0.084027
vt 0.739586 0.076691
vt 0.911144 0.076512
vt 0.739586 0.068202
vt 0.737561 0.061650
vt 0.376314 0.062726
vt 0.377730 0.068950
vt 0.911144 0.043990
vt 0.911144 0.076512
vt 0.381287 0.064556
vt 0.384888 0.067722
vt 0.733738 0.068950
vt 0.728180 0.061308
vt 0.933778 0.076512
vt 0.933778 0.043990
vt 0.736052 0.076691
vt 0.728778 0.068950
vt 0.383492 0.072540
vt 0.388133 0.075899
vt 0.933778 0.109035
vt 0.380172 0.070442
vt 0.380173 0.076691
vt 0.739340 0.075816
vt 0.739586 0.069011
vt 0.865658 0.877670
vt 0.876530 0.877670
vt 0.876530 0.888542
vt 0.865658 0.888542
vt 0.865658 0.893978
vt 0.876530 0.893978
vt 0.876530 0.899414
vt 0.865658 0.899414
vt 0.876530 0.910286
vt 0.865658 0.910286
vt 0.865658 0.915722
vt 0.876530 0.915722
vt 0.876530 0.921158
vt 0.865658 0.921158
vt 0.860222 0.899414
vt 0.860222 0.910286
vt 0.881966 0.899414
vt 0.887402 0.899414
vt 0.887402 0.910286
vt 0.881966 0.910286
vt 0.854786 0.899414
vt 0.854786 0.910286
s 1
g markMesh_markMat
usemtl markMat
f 2/1/1 41/2/2 3/3/3 4/4/4
f 41/2/2 1/5/5 3/3/3
f 3/3/3 1/5/5 7/6/6
f 4/4/4 3/3/3 7/6/6 8/7/7
f 11/8/8 47/9/9 16/10/10 17/11/11
f 46/12/12 8/13/7 14/14/13 15/15/14
f 7/16/6 1/17/5 13/18/15
f 12/19/16 11/8/8 17/11/11 18/20/17
f 51/21/18 46/22/12 15/23/14 52/24/19
f 8/13/7 7/25/6 13/26/15 14/14/13
f 18/20/17 17/11/11 23/27/20 24/28/21
f 52/24/19 15/23/14 21/29/22 53/30/23
f 14/14/13 13/26/15 19/31/24 20/32/25
f 6/33/26 10/34/27 121/35/28 122/36/29
f 17/11/11 16/10/10 22/37/30 23/27/20
f 15/15/14 14/14/13 20/32/25 21/38/22
f 1/17/5 25/39/31 44/40/32 45/41/33
f 53/30/23 21/29/22 27/42/34 54/43/35
f 20/32/25 19/31/24 25/44/31 26/45/36
f 23/27/20 22/37/30 28/46/37 29/47/38
f 21/38/22 20/32/25 26/45/36 27/48/34
f 19/31/24 13/26/15 42/49/39 43/50/40
f 10/34/27 57/51/41 120/52/42 121/35/28
f 24/28/21 23/27/20 29/47/38 30/53/43
f 29/47/38 28/46/37 49/54/44 35/55/45
f 27/48/34 26/45/36 32/56/46 48/57/47
f 25/39/31 1/17/5 31/58/48
f 32/59/46 38/60/49 111/61/50 105/62/51
f 30/53/43 29/47/38 35/55/45 36/63/52
f 54/43/35 27/42/34 48/64/47 55/65/53
f 26/45/36 25/44/31 31/66/48 32/56/46
f 56/67/54 39/68/55 127/69/56 113/70/57
f 31/71/48 1/5/5 37/72/58
f 11/73/8 12/74/16 100/75/59
f 47/76/9 11/77/8 100/78/59 99/79/60
f 32/80/46 31/71/48 37/72/58 38/81/49
f 36/82/52 35/83/45 109/84/61
f 51/85/18 47/76/9 99/79/60 98/86/62
f 33/87/63 58/88/64 125/89/65 128/90/66
f 35/91/45 49/92/44 108/93/67 109/94/61
f 8/95/7 46/96/12 97/97/68 96/98/69
f 38/81/49 37/72/58 41/2/2 2/1/1
f 57/51/41 9/99/70 123/100/71 120/52/42
f 5/101/72 50/102/73 91/103/74 124/104/75
f 49/92/44 55/105/53 107/106/76 108/93/67
f 37/72/58 1/5/5 41/2/2
f 42/107/39 45/41/33 43/108/40
f 43/108/40 45/41/33 44/40/32
f 25/44/31 19/31/24 43/50/40 44/109/32
f 13/18/15 1/17/5 45/41/33 42/107/39
f 50/102/73 6/33/26 122/36/29 91/103/74
f 48/110/47 32/59/46 105/62/51 106/111/77
f 2/112/1 4/113/4 89/114/78 83/115/79
f 55/105/53 48/110/47 106/111/77 107/106/76
f 4/113/4 8/95/7 96/98/69 89/114/78
f 40/116/80 56/67/54 113/70/57 129/117/81
f 34/118/82 40/116/80 129/117/81 126/119/83
f 38/60/49 2/112/1 83/115/79 111/61/50
f 39/68/55 33/87/63 128/90/66 127/69/56
f 58/88/64 34/118/82 126/119/83 125/89/65
f 46/96/12 51/85/18 98/86/62 97/97/68
f 28/46/37 54/43/35 55/65/53 49/54/44
f 22/37/30 53/30/23 54/43/35 28/46/37
f 16/10/10 52/24/19 53/30/23 22/37/30
f 47/9/9 51/21/18 52/24/19 16/10/10
f 9/99/70 5/101/72 124/104/75 123/100/71
f 40/120/80 34/121/82 60/122/84 62/123/85
f 34/121/82 58/124/64 64/125/86 60/122/84
f 58/124/64 33/126/63 59/127/87 64/125/86
f 56/128/54 40/120/80 62/123/85 63/129/88
f 39/130/55 56/128/54 63/129/88 61/131/89
f 33/126/63 39/130/55 61/131/89 59/127/87
f 62/123/85 60/122/84 66/132/90 68/133/91
f 60/122/84 64/125/86 70/134/92 66/132/90
f 63/129/88 62/123/85 68/133/91 69/135/93
f 64/125/86 59/127/87 65/136/94 70/134/92
f 59/127/87 61/131/89 67/137/95 65/136/94
f 61/131/89 63/129/88 69/135/93 67/137/95
f 66/132/90 70/134/92 65/136/94 67/137/95 69/135/93 68/133/91
f 6/138/26 50/139/73 75/140/96 72/141/97
f 10/142/27 6/138/26 72/141/97 74/143/98
f 50/139/73 5/144/72 71/145/99 75/140/96
f 5/144/72 9/146/70 73/147/100 71/145/99
f 57/148/41 10/142/27 74/143/98 76/149/101
f 9/146/70 57/148/41 76/149/101 73/147/100
f 71/145/99 73/147/100 79/150/102 77/151/103
f 76/149/101 74/143/98 80/152/104 82/153/105
f 75/140/96 71/145/99 77/151/103 81/154/106
f 73/147/100 76/149/101 82/153/105 79/150/102
f 74/143/98 72/141/97 78/155/107 80/152/104
f 72/141/97 75/140/96 81/154/106 78/155/107
f 80/152/104 78/155/107 81/154/106 77/151/103 79/150/102 82/153/105
f 119/156/108 118/157/109 95/158/110
f 88/159/111 87/160/112 93/161/113 94/162/114
f 85/163/115 84/164/116 90/165/117 91/166/118
f 118/157/109 88/159/111 94/162/114 95/158/110
f 87/160/112 86/167/119 92/168/120 93/161/113
f 84/164/116 83/169/79 89/170/78 90/165/117
f 95/158/110 94/162/114 12/171/121 101/172/122
f 93/161/113 92/168/120 99/173/123 100/174/124
f 90/165/117 89/170/78 96/175/125 97/176/126
f 119/156/108 95/158/110 101/172/122
f 94/162/114 93/161/113 100/174/124 12/171/121
f 119/177/127 101/178/128 102/179/129
f 101/178/128 12/19/16 18/20/17 102/179/129
f 119/177/127 102/179/129 103/180/130
f 102/179/129 18/20/17 24/28/21 103/180/130
f 103/180/130 24/28/21 30/53/43 104/181/131
f 119/177/127 103/180/130 104/181/131
f 104/181/131 30/53/43 36/63/52 110/182/132
f 119/177/127 104/181/131 110/182/132
f 106/183/133 105/184/134 111/185/50 112/186/135
f 119/156/108 110/187/136 117/188/137
f 36/189/138 109/190/139 115/191/140 116/192/141
f 110/187/136 36/189/138 116/192/141 117/188/137
f 109/190/139 108/193/142 114/194/143 115/191/140
f 119/156/108 117/188/137 118/157/109
f 116/192/141 115/191/140 87/160/112 88/159/111
f 113/195/144 112/186/135 84/164/116 85/163/115
f 117/188/137 116/192/141 88/159/111 118/157/109
f 115/191/140 114/194/143 86/167/119 87/160/112
f 112/186/135 111/185/50 83/169/79 84/164/116
f 91/166/118 122/196/145 92/168/120
f 120/197/146 123/198/147 97/176/126 98/199/148
f 122/196/145 121/200/149 99/173/123 92/168/120
f 123/198/147 124/201/150 90/165/117 97/176/126
f 125/202/151 126/203/152 108/193/142 107/204/153
f 113/195/144 127/205/154 112/186/135
f 127/205/154 128/206/155 106/183/133 112/186/135
f 126/203/152 129/207/156 114/194/143 108/193/142
f 129/207/156 113/195/144 114/194/143
f 128/206/155 125/202/151 107/204/153 106/183/133
f 121/200/149 120/197/146 98/199/148 99/173/123
f 124/201/150 91/166/118 90/165/117
f 114/194/143 113/195/144 85/163/115 86/167/119
f 86/167/119 85/163/115 91/166/118 92/168/120
s 0
f 130/208/157 155/209/157 154/210/157 132/211/157
f 132/211/158 154/210/158 156/212/158 134/213/158
f 134/213/159 156/212/159 157/214/159 136/215/159
f 136/215/160 157/214/160 158/216/160 138/217/160
f 145/218/161 143/219/161 173/220/161 172/221/161
f 140/222/162 144/223/162 160/224/162 159/225/162
f 140/226/163 159/227/163 155/209/163 130/208/163
f 130/208/164 132/211/164 134/213/164 136/215/164 138/217/164 140/226/164
f 142/228/157 161/229/157 160/230/157 144/231/157
f 159/225/165 160/224/165 162/232/165 158/233/165
f 146/234/159 162/235/159 163/236/159 148/237/159
f 148/237/160 163/236/160 164/238/160 150/239/160
f 151/240/166 149/241/166 175/242/166 176/243/166
f 150/239/167 164/238/167 165/244/167 152/245/167
f 152/245/163 165/244/163 161/229/163 142/228/163
f 142/228/164 144/231/164 146/234/164 148/237/164 150/239/164 152/245/164
f 131/246/165 133/247/165 154/210/165 155/209/165
f 133/247/165 135/248/165 156/212/165 154/210/165
f 135/248/165 137/249/165 157/214/165 156/212/165
f 137/249/165 139/250/165 158/216/165 157/214/165
f 139/250/165 141/251/165 159/227/165 158/216/165
f 141/251/165 131/246/165 155/209/165 159/227/165
f 143/252/165 145/253/165 160/230/165 161/229/165
f 145/253/165 147/254/165 162/235/165 160/230/165
f 147/254/165 149/255/165 163/236/165 162/235/165
f 149/255/165 151/256/165 164/238/165 163/236/165
f 151/256/165 153/257/165 165/244/165 164/238/165
f 153/257/165 143/252/165 161/229/165 165/244/165
f 166/258/165 167/259/165 171/260/165 170/261/165 169/262/165 168/263/165
f 172/221/165 173/220/165 177/264/165 176/243/165 175/242/165 174/265/165
f 139/266/168 137/267/168 169/262/168 170/261/168
f 153/268/169 151/240/169 176/243/169 177/264/169
f 133/269/170 131/270/170 167/259/170 166/258/170
f 147/271/171 145/218/171 172/221/171 174/265/171
f 141/272/172 139/266/172 170/261/172 171/260/172
f 143/219/173 153/268/173 177/264/173 173/220/173
f 135/273/174 133/269/174 166/258/174 168/263/174
f 149/241/175 147/271/175 174/265/175 175/242/175
f 131/270/176 141/272/176 171/260/176 167/259/176
f 137/267/177 135/273/177 168/263/177 169/262/177
f 138/274/164 146/275/164 144/223/164 140/222/164
f 138/274/178 158/233/178 162/232/178 146/275/178
f 178/276/167 179/277/167 181/278/167 180/279/167
f 180/280/179 181/281/179 185/282/179 184/283/179
f 184/284/158 185/285/158 183/286/158 182/287/158
f 182/288/180 183/289/180 179/290/180 178/291/180
f 180/280/30 184/283/30 182/288/30 178/291/30
f 185/282/181 181/281/181 179/290/181 183/289/181
f 186/277/167 187/284/167 189/292/167 188/278/167
f 188/293/179 189/294/179 193/295/179 192/296/179
f 192/277/158 193/276/158 191/297/158 190/298/158
f 190/299/180 191/300/180 187/301/180 186/302/180
f 188/293/30 192/296/30 190/299/30 186/302/30
f 193/295/181 189/294/181 187/301/181 191/300/181
f 194/303/182 195/304/182 197/305/182 196/306/182
f 196/307/179 197/308/179 201/309/179 200/310/179
f 200/311/183 201/305/183 199/304/183 198/312/183
f 198/313/180 199/314/180 195/315/180 194/316/180
f 196/307/184 200/310/184 198/313/184 194/316/184
f 201/309/185 197/308/185 195/315/185 199/314/185
f 202/317/186 203/318/186 205/298/186 204/319/186
f 204/320/179 205/321/179 209/322/179 208/323/179
f 208/324/187 209/298/187 207/318/187 206/325/187
f 206/326/180 207/327/180 203/328/180 202/329/180
f 204/320/188 208/323/188 206/326/188 202/329/188
f 209/322/189 205/321/189 203/328/189 207/327/189
f 210/305/190 211/297/190 213/276/190 212/330/190
f 212/331/179 213/332/179 217/333/179 216/334/179
f 216/279/191 217/335/191 215/336/191 214/276/191
f 214/337/180 215/338/180 211/339/180 210/340/180
f 212/331/192 216/334/192 214/337/192 210/340/192
f 217/333/193 213/332/193 211/339/193 215/338/193
f 218/341/194 219/336/194 221/335/194 220/342/194
f 220/343/179 221/344/179 225/345/179 224/346/179
f 224/330/195 225/341/195 223/347/195 222/305/195
f 222/348/180 223/349/180 219/350/180 218/351/180
f 220/343/196 224/346/196 222/348/196 218/351/196
f 225/345/197 221/344/197 219/350/197 223/349/197
f 226/352/158 227/353/158 229/354/158 228/355/158
f 234/356/198 235/357/198 233/358/198 232/359/198
f 232/359/167 233/358/167 231/360/167 230/361/167
f 236/362/199 237/363/199 227/364/199 226/365/199
f 234/366/200 232/359/200 230/361/200 236/367/200
f 235/368/201 229/369/201 227/370/201 237/371/201
f 233/358/202 235/368/202 237/371/202 231/360/202
f 228/372/203 234/366/203 236/367/203 226/373/203
f 230/361/204 231/360/204 237/363/204 236/362/204
f 228/355/205 229/354/205 235/357/205 234/356/205
