# Blender 5.0.1
# www.blender.org
mtllib model.mtl
o wormyMesh
v 0.000000 0.000000 1.000000
v -0.500000 0.000000 0.866025
v -0.866025 0.000000 0.500000
v -1.000000 0.000000 0.000000
v -0.866025 0.000000 -0.500000
v -0.500000 0.000000 -0.866025
v 0.000000 0.000000 -1.000000
v -0.250000 0.433013 0.866025
v -0.433013 0.750000 0.500000
v -0.500000 0.866025 0.000000
v -0.433013 0.750000 -0.500000
v -0.250000 0.433013 -0.866025
v 0.250000 0.433013 0.866025
v 0.433013 0.750000 0.500000
v 0.500000 0.866025 0.000000
v 0.433013 0.750000 -0.500000
v 0.250000 0.433013 -0.866025
v 0.500000 -0.000000 0.866025
v 0.866025 -0.000000 0.500000
v 1.000000 -0.000000 0.000000
v 0.866025 -0.000000 -0.500000
v 0.500000 -0.000000 -0.866025
v 0.250000 -0.433013 0.866025
v 0.433013 -0.750000 0.500000
v 0.500000 -0.866026 0.000000
v 0.433013 -0.750000 -0.500000
v 0.250000 -0.433013 -0.866025
v -0.250000 -0.433013 0.866025
v -0.433013 -0.750000 0.500000
v -0.500000 -0.866025 0.000000
v -0.433013 -0.750000 -0.500000
v -0.250000 -0.433013 -0.866025
v -0.293172 0.033983 -0.802139
v -0.293172 0.000000 -0.777448
v -0.268126 -0.000000 -0.754664
v 0.076363 -0.000000 -0.562233
v -0.268126 0.062045 -0.793020
v 0.119047 0.058750 -0.562232
v -0.268126 0.038346 -0.869108
v 0.188113 0.036310 -0.562232
v -0.268126 -0.038346 -0.869108
v 0.188113 -0.036310 -0.562232
v -0.268126 -0.062045 -0.793020
v 0.119047 -0.058750 -0.562232
v -0.293172 0.021003 -0.842088
v -0.293172 -0.021003 -0.842088
v -0.293172 -0.033983 -0.802139
v 0.125695 0.038292 -0.529088
v 0.097874 -0.000000 -0.529088
v 0.170710 0.023665 -0.529088
v 0.170710 -0.023666 -0.529088
v 0.125695 -0.038292 -0.529088
v 0.075572 -0.000000 -0.618756
v 0.118803 0.059503 -0.618756
v 0.188753 0.036775 -0.618756
v 0.188753 -0.036775 -0.618756
v 0.118803 -0.059503 -0.618756
v 0.118812 0.059475 -0.714158
v 0.188729 0.036758 -0.714158
v 0.188729 -0.036758 -0.714158
v 0.118812 -0.059475 -0.714158
v 0.075601 -0.000000 -0.714158
v -0.163746 0.053429 -0.755658
v -0.122413 0.032818 -0.803778
v -0.122413 -0.033879 -0.803778
v -0.163746 -0.054490 -0.755658
v -0.189291 -0.000531 -0.725919
v -0.165253 -0.000216 -0.673528
v -0.083010 -0.000000 -0.622778
v -0.007717 -0.000000 -0.674221
v -0.028403 0.050112 -0.704182
v -0.083010 0.062045 -0.667856
v -0.140832 0.053924 -0.704365
v -0.061875 0.030971 -0.752660
v -0.083010 0.038346 -0.740794
v -0.101318 0.033244 -0.754260
v -0.061875 -0.030971 -0.752660
v -0.083010 -0.038346 -0.740794
v -0.101318 -0.033677 -0.754260
v -0.028403 -0.050112 -0.704182
v -0.083010 -0.062045 -0.667856
v -0.140832 -0.054357 -0.704365
v 0.018948 -0.000000 -0.726879
v 0.039245 -0.000000 -0.755602
v 0.073900 -0.000000 -0.736735
v 0.112055 0.063708 -0.762938
v 0.031006 0.062045 -0.803201
v -0.003180 0.050306 -0.755968
v 0.173793 0.039373 -0.805334
v 0.019860 0.038346 -0.868401
v -0.038986 0.031091 -0.803037
v 0.173793 -0.039373 -0.805334
v 0.019860 -0.038346 -0.868401
v -0.038986 -0.031091 -0.803037
v 0.112055 -0.063708 -0.762938
v 0.031006 -0.062045 -0.803201
v -0.003180 -0.050306 -0.755968
v -0.192255 0.062045 -0.794115
v -0.168886 0.038346 -0.866525
v -0.168886 -0.038346 -0.866525
v -0.192255 -0.062045 -0.794115
v -0.204219 -0.000000 -0.757641
v 0.070221 -0.065648 -0.803021
v 0.092785 -0.040573 -0.869108
v 0.092785 0.040573 -0.869108
v 0.070221 0.065648 -0.803021
v 0.056275 -0.000000 -0.754664
vn -0.6050 -0.0000 -0.7962
vn -0.8961 -0.0000 -0.4438
vn -0.5621 0.6401 -0.5237
vn -0.2761 0.3477 -0.8960
vn -1.0000 -0.0000 -0.0000
vn -0.8961 -0.0000 0.4438
vn -0.5621 0.6401 0.5237
vn -0.6609 0.7505 -0.0000
vn -0.6050 -0.0000 0.7962
vn -0.0000 -0.0000 1.0000
vn -0.2761 0.3477 0.8960
vn -0.0000 -0.0000 -1.0000
vn 0.5621 0.6401 0.5237
vn 0.6609 0.7505 -0.0000
vn 0.2761 0.3477 0.8960
vn 0.2761 0.3477 -0.8960
vn 0.5621 0.6401 -0.5237
vn 0.6050 -0.0000 0.7962
vn 0.6050 -0.0000 -0.7962
vn 1.0000 -0.0000 -0.0000
vn 0.8961 -0.0000 -0.4438
vn 0.8961 -0.0000 0.4438
vn 0.2761 -0.3477 -0.8960
vn 0.6609 -0.7505 -0.0000
vn 0.5621 -0.6401 -0.5237
vn 0.2761 -0.3477 0.8960
vn 0.5621 -0.6401 0.5237
vn -0.2761 -0.3477 -0.8960
vn -0.6609 -0.7505 -0.0000
vn -0.5621 -0.6401 -0.5237
vn -0.2761 -0.3477 0.8960
vn -0.5621 -0.6401 0.5237
vn 0.9381 -0.2245 0.2636
vn 0.9381 0.2245 0.2636
vn 0.5088 0.1732 0.8433
vn 0.5088 -0.1732 0.8433
vn -0.3982 -0.2083 -0.8934
vn -0.4469 -0.7413 0.5006
vn -0.9711 -0.2218 0.0877
vn -0.9215 -0.1647 -0.3517
vn -1.0000 -0.0000 0.0068
vn -0.9675 -0.0000 0.2529
vn -0.4515 0.8381 0.3062
vn -0.4464 0.8948 0.0068
vn -0.4515 -0.8381 0.3062
vn -0.1024 -0.2527 0.9621
vn -0.3066 -0.0000 0.9518
vn -0.8238 -0.0000 0.5669
vn 0.9688 0.2479 0.0064
vn -0.1024 0.2527 0.9621
vn -0.4854 0.3527 0.8000
vn -0.3982 0.2083 -0.8934
vn -0.9215 0.1647 -0.3517
vn 0.9688 -0.2479 0.0064
vn -0.9711 0.2218 0.0877
vn -0.4464 -0.8948 0.0068
vn -0.4469 0.7413 0.5006
vn -0.7163 -0.5204 0.4649
vn -0.4228 -0.9051 0.0443
vn -0.9966 -0.0000 0.0827
vn 0.9688 -0.2367 -0.0733
vn 0.9688 0.2367 -0.0733
vn -0.4228 0.9051 0.0443
vn -0.8983 -0.0000 0.4395
vn -0.2517 0.9524 0.1720
vn 0.8447 0.2090 -0.4927
vn 0.8447 -0.2090 -0.4927
vn -0.2517 -0.9524 0.1720
vn -0.0574 -0.9565 0.2860
vn -0.4452 -0.8610 0.2459
vn -0.8991 -0.0003 0.4378
vn -0.4950 0.0006 0.8689
vn 0.4548 -0.2046 -0.8668
vn 0.8513 -0.2205 -0.4761
vn 0.4558 0.2048 -0.8662
vn 0.8520 0.2198 -0.4752
vn -0.0480 0.9556 0.2907
vn -0.3316 0.9215 0.2020
vn 0.4747 -0.0000 0.8802
vn -0.4347 -0.0000 0.9006
vn -0.1165 0.9659 0.2314
vn -0.0539 0.9732 0.2235
vn -0.5056 -0.7661 0.3969
vn 0.0372 -0.8169 0.5755
vn 0.0194 0.0001 0.9998
vn -0.7565 -0.0168 0.6538
vn 0.4953 -0.8057 0.3248
vn 0.7419 -0.0000 0.6705
vn 0.7416 -0.2804 -0.6094
vn 0.0700 -0.3778 -0.9233
vn -0.6858 -0.2971 -0.6644
vn 0.7392 0.2805 -0.6122
vn 0.0673 0.3781 -0.9233
vn -0.6858 0.2971 -0.6644
vn -0.3876 0.8390 0.3819
vn 0.0346 0.8175 0.5750
vn 0.4953 0.8057 0.3248
vn 0.3302 -0.9021 0.2779
vn 0.8491 -0.0000 0.5283
vn -0.0539 -0.9732 0.2235
vn -0.1165 -0.9659 0.2314
vn -0.8235 -0.2220 -0.5221
vn -0.4103 -0.2046 -0.8887
vn 0.3137 -0.2120 -0.9256
vn -0.8235 0.2220 -0.5221
vn -0.4103 0.2046 -0.8887
vn 0.3137 0.2120 -0.9256
vn 0.3302 0.9021 0.2779
vn 0.0774 0.9250 0.3721
vn 0.0578 0.9029 0.4259
vn 0.0591 0.9302 0.3623
vn 0.0467 0.9158 0.3988
vn 0.0992 0.8645 0.4927
vn 0.0370 0.9019 0.4304
vn 0.0770 0.9172 0.3909
vt 0.447713 0.925802
vt 0.448160 0.882916
vt 0.491046 0.883363
vt 0.490599 0.926250
vt 0.448607 0.840031
vt 0.449055 0.797145
vt 0.491940 0.797592
vt 0.491493 0.840478
vt 0.449502 0.754259
vt 0.471391 0.711597
vt 0.492387 0.754706
vt 0.468709 0.968912
vt 0.534826 0.798039
vt 0.534379 0.840925
vt 0.514278 0.712044
vt 0.535273 0.755153
vt 0.511595 0.969359
vt 0.533485 0.926697
vt 0.533932 0.883811
vt 0.557163 0.712491
vt 0.578158 0.755600
vt 0.554481 0.969806
vt 0.576370 0.927144
vt 0.577264 0.841372
vt 0.576817 0.884258
vt 0.577711 0.798486
vt 0.597366 0.970253
vt 0.619257 0.927591
vt 0.620151 0.841819
vt 0.619704 0.884705
vt 0.621045 0.756048
vt 0.620598 0.798933
vt 0.600049 0.712938
vt 0.382938 0.968017
vt 0.361942 0.924908
vt 0.404827 0.925355
vt 0.362389 0.882022
vt 0.362836 0.839137
vt 0.405721 0.839584
vt 0.405274 0.882469
vt 0.363283 0.796251
vt 0.363730 0.753365
vt 0.406616 0.753812
vt 0.406168 0.796698
vt 0.385620 0.710703
vt 0.425823 0.968465
vt 0.428506 0.711150
vt 0.782262 0.611692
vt 0.793037 0.611360
vt 0.794001 0.634897
vt 0.784231 0.635792
vt 0.769323 0.157608
vt 0.731082 0.143364
vt 0.741589 0.127752
vt 0.769332 0.137185
vt 0.867082 0.576811
vt 0.866695 0.619519
vt 0.833838 0.617351
vt 0.835060 0.579518
vt 0.742096 0.622645
vt 0.751983 0.644690
vt 0.701009 0.138048
vt 0.722193 0.121079
vt 0.791545 0.581271
vt 0.173628 0.104566
vt 0.244861 0.202610
vt 0.173628 0.300654
vt 0.058370 0.263204
vt 0.058370 0.142015
vt 0.777248 0.157341
vt 0.777665 0.137900
vt 0.560327 0.360457
vt 0.559424 0.470201
vt 0.418429 0.470201
vt 0.417526 0.360457
vt 0.826563 0.640086
vt 0.244861 0.398698
vt 0.173628 0.300654
vt 0.058370 0.338104
vt 0.058370 0.459293
vt 0.173628 0.496742
vt 0.780159 0.581904
vt 0.736614 0.585010
vt 0.848661 0.643679
vt 0.844009 0.139178
vt 0.814656 0.144216
vt 0.804570 0.128986
vt 0.823439 0.122590
vt 0.709412 0.628520
vt 0.704318 0.585827
vt 0.730184 0.650759
vt 0.743101 0.525482
vt 0.711050 0.514431
vt 0.778543 0.533804
vt 0.560294 0.175228
vt 0.417559 0.175228
vt 0.822258 0.521280
vt 0.787896 0.533423
vt 0.852734 0.506892
vt 0.845630 0.489974
vt 0.812582 0.497154
vt 0.784827 0.500406
vt 0.778329 0.500921
vt 0.750213 0.500451
vt 0.716287 0.496739
vt 0.731522 0.193195
vt 0.715378 0.226882
vt 0.679377 0.215350
vt 0.699605 0.190959
vt 0.769164 0.189305
vt 0.766717 0.227986
vt 0.777169 0.188968
vt 0.779409 0.228329
vt 0.814103 0.193071
vt 0.830274 0.226147
vt 0.845280 0.190870
vt 0.865199 0.214403
vt 0.841723 0.455933
vt 0.843505 0.469310
vt 0.808019 0.471946
vt 0.806325 0.453901
vt 0.680965 0.267850
vt 0.657834 0.330368
vt 0.613084 0.333856
vt 0.644086 0.252715
vt 0.690038 0.386120
vt 0.657044 0.402796
vt 0.760705 0.289023
vt 0.756259 0.323388
vt 0.763380 0.360366
vt 0.786489 0.288063
vt 0.790707 0.322526
vt 0.787463 0.360330
vt 0.864649 0.265398
vt 0.889220 0.324755
vt 0.861274 0.380171
vt 0.899771 0.249698
vt 0.932286 0.326054
vt 0.894067 0.394123
vt 0.728375 0.424142
vt 0.696543 0.437507
vt 0.752106 0.456595
vt 0.716589 0.462083
vt 0.752232 0.474794
vt 0.716165 0.475733
vt 0.772720 0.421689
vt 0.776256 0.458316
vt 0.777420 0.475512
vt 0.782706 0.421124
vt 0.782403 0.457924
vt 0.783358 0.475199
vt 0.826768 0.419961
vt 0.858841 0.430277
vt 0.000000 0.000000
s 1
g wormyMesh_wormyMat
usemtl wormyMat
f 6/1/1 5/2/2 11/3/3 12/4/4
f 4/5/5 3/6/6 9/7/7 10/8/8
f 2/9/9 1/10/10 8/11/11
f 7/12/12 6/1/1 12/4/4
f 5/2/2 4/5/5 10/8/8 11/3/3
f 3/6/6 2/9/9 8/11/11 9/7/7
f 10/8/8 9/7/7 14/13/13 15/14/14
f 8/11/11 1/15/10 13/16/15
f 7/17/12 12/4/4 17/18/16
f 11/3/3 10/8/8 15/14/14 16/19/17
f 9/7/7 8/11/11 13/16/15 14/13/13
f 12/4/4 11/3/3 16/19/17 17/18/16
f 13/16/15 1/20/10 18/21/18
f 7/22/12 17/18/16 22/23/19
f 16/19/17 15/14/14 20/24/20 21/25/21
f 14/13/13 13/16/15 18/21/18 19/26/22
f 17/18/16 16/19/17 21/25/21 22/23/19
f 15/14/14 14/13/13 19/26/22 20/24/20
f 7/27/12 22/23/19 27/28/23
f 21/25/21 20/24/20 25/29/24 26/30/25
f 19/26/22 18/21/18 23/31/26 24/32/27
f 22/23/19 21/25/21 26/30/25 27/28/23
f 20/24/20 19/26/22 24/32/27 25/29/24
f 18/21/18 1/33/10 23/31/26
f 7/34/12 27/35/23 32/36/28
f 26/37/25 25/38/24 30/39/29 31/40/30
f 24/41/27 23/42/26 28/43/31 29/44/32
f 27/35/23 26/37/25 31/40/30 32/36/28
f 25/38/24 24/41/27 29/44/32 30/39/29
f 23/42/26 1/45/10 28/43/31
f 7/46/12 32/36/28 6/1/1
f 31/40/30 30/39/29 4/5/5 5/2/2
f 29/44/32 28/43/31 2/9/9 3/6/6
f 32/36/28 31/40/30 5/2/2 6/1/1
f 30/39/29 29/44/32 3/6/6 4/5/5
f 28/43/31 1/47/10 2/9/9
f 42/48/33 40/49/34 50/50/35 51/51/36
f 41/52/37 43/53/38 47/54/39 46/55/40
f 53/56/41 36/57/42 38/58/43 54/59/44
f 44/60/45 42/48/33 51/51/36 52/61/46
f 43/53/38 35/62/47 34/63/48 47/54/39
f 54/59/44 38/58/43 40/49/34 55/64/49
f 48/65/50 49/66/51 52/67/46 51/68/36 50/69/35
f 39/70/52 41/52/37 46/55/40 45/71/53
f 55/72/49 40/73/34 42/74/33 56/75/54
f 40/49/34 38/58/43 48/76/50 50/50/35
f 34/77/48 33/78/55 45/79/53 46/80/40 47/81/39
f 56/82/54 42/48/33 44/60/45 57/83/56
f 38/58/43 36/57/42 49/84/51 48/76/50
f 35/85/47 37/86/57 33/87/55 34/88/48
f 57/83/56 44/60/45 36/89/42 53/90/41
f 37/86/57 39/70/52 45/71/53 33/87/55
f 36/89/42 44/60/45 52/61/46 49/91/58
f 61/92/59 57/83/56 53/90/41 62/93/60
f 60/94/61 56/82/54 57/83/56 61/92/59
f 59/95/62 55/72/49 56/75/54 60/96/61
f 58/97/63 54/59/44 55/64/49 59/98/62
f 62/99/60 53/56/41 54/59/44 58/97/63
f 85/100/64 62/99/60 58/97/63 86/101/65
f 86/101/65 58/97/63 59/98/62 89/102/66
f 89/102/66 59/98/62 60/94/61 92/103/67
f 92/103/67 60/94/61 61/92/59 95/104/68
f 95/104/68 61/92/59 62/93/60 85/105/64
f 101/106/69 66/107/70 67/108/71 102/109/72
f 100/110/73 65/111/74 66/107/70 101/106/69
f 99/112/75 64/113/76 65/111/74 100/110/73
f 98/114/77 63/115/78 64/113/76 99/112/75
f 102/116/72 67/117/71 63/115/78 98/114/77
f 84/118/79 107/119/80 106/120/81 87/121/82
f 82/122/83 81/123/84 69/124/85 68/125/86
f 81/123/84 80/126/87 70/127/88 69/124/85
f 66/107/70 82/122/83 68/125/86 67/108/71
f 79/128/89 78/129/90 81/123/84 82/122/83
f 78/129/90 77/130/91 80/126/87 81/123/84
f 65/111/74 79/128/89 82/122/83 66/107/70
f 76/131/92 75/132/93 78/129/90 79/128/89
f 75/132/93 74/133/94 77/130/91 78/129/90
f 64/113/76 76/131/92 79/128/89 65/111/74
f 73/134/95 72/135/96 75/132/93 76/131/92
f 72/135/96 71/136/97 74/133/94 75/132/93
f 63/115/78 73/134/95 76/131/92 64/113/76
f 68/137/86 69/138/85 72/135/96 73/134/95
f 69/138/85 70/139/88 71/136/97 72/135/96
f 80/126/87 97/140/98 83/141/99 70/127/88
f 97/140/98 96/142/100 84/143/79 83/141/99
f 103/144/101 95/104/68 85/105/64 107/145/80
f 77/130/91 94/146/102 97/140/98 80/126/87
f 94/146/102 93/147/103 96/142/100 97/140/98
f 104/148/104 92/103/67 95/104/68 103/144/101
f 74/133/94 91/149/105 94/146/102 77/130/91
f 91/149/105 90/150/106 93/147/103 94/146/102
f 105/151/107 89/102/66 92/103/67 104/148/104
f 71/136/97 88/152/108 91/149/105 74/133/94
f 88/152/108 87/121/82 90/150/106 91/149/105
f 106/120/81 86/101/65 89/102/66 105/151/107
f 70/139/88 83/153/99 88/152/108 71/136/97
f 83/153/99 84/118/79 87/121/82 88/152/108
f 107/119/80 85/100/64 86/101/65 106/120/81
f 35/85/47 102/116/72 98/114/77 37/86/57
f 37/86/57 98/114/77 99/112/75 39/70/52
f 39/70/52 99/112/75 100/110/73 41/52/37
f 41/52/37 100/110/73 101/106/69 43/53/38
f 43/53/38 101/106/69 102/109/72 35/62/47
f 96/142/100 103/144/101 107/145/80 84/143/79
f 93/147/103 104/148/104 103/144/101 96/142/100
f 90/150/106 105/151/107 104/148/104 93/147/103
f 87/121/82 106/120/81 105/151/107 90/150/106
f 67/117/71 68/137/86 73/134/95 63/115/78
f 41/52/109 45/71/109 46/55/109 98/154/109 101/154/109 76/131/110 79/128/111 33/154/109 47/154/109 37/154/109 43/154/109 75/154/109 63/154/109 78/154/109 66/154/109 34/154/109 102/116/109 35/85/109 67/154/109 73/154/109 82/122/112 68/125/113 72/154/109 81/123/109 69/124/109 71/154/109 80/126/109 70/127/109 36/57/109 49/84/109 52/67/109 48/154/109 44/154/109 38/154/109 53/154/109 51/51/109 50/50/109 42/48/109 40/49/109 57/154/109 54/154/109 56/75/109 55/72/109 62/93/109 61/92/109 58/154/109 60/96/109 59/95/109 83/154/109 85/105/109 95/104/109 86/154/109 107/154/109 92/103/109 89/102/109 84/154/109 103/154/109 106/154/109 97/154/109 104/148/109 105/151/109 88/154/109 96/154/109 87/154/109 93/147/109 90/150/109 94/146/109 91/149/109 99/112/109 100/110/109 64/113/114 65/111/115 74/133/109 77/130/109 39/70/109
