# Blender 5.0.1
# www.blender.org
mtllib model.mtl
o LinksiderMesh
v -0.730204 0.736751 -0.737302
v -0.730204 -0.735821 -0.737302
v 0.725169 -0.735821 -0.737302
v 0.725169 0.736751 -0.737302
v 0.725169 -0.858628 0.736311
v -0.730204 -0.858628 0.736311
v -0.858178 -0.735821 -0.737302
v 0.859054 -0.735821 0.736311
v -0.859931 0.736751 0.736311
v 0.859054 -0.735821 -0.737302
v -0.858178 -0.735821 0.736311
v 0.725169 0.736751 -0.858628
v 0.725169 -0.735821 -0.858628
v 0.859054 0.736751 0.736311
v 1.000365 -0.735821 -0.858628
v -0.999635 -0.735821 -0.858628
v 0.859054 -0.735821 0.858457
v -0.999635 -0.735821 0.858457
v 1.000365 -0.735821 0.858457
v -0.858178 -0.735821 0.858457
v 0.858543 -0.735821 -1.000355
v 0.858543 -0.735821 0.999644
v 0.859054 -0.735821 -0.858628
v -0.858689 -0.735821 0.999616
v -0.858178 -0.735821 -0.858628
v -0.858689 -0.735821 -1.000384
v -0.999489 -0.858628 0.736311
v 1.000511 -0.858628 0.736311
v 0.998467 0.858457 0.736311
v -1.001533 0.858457 0.736311
v 0.859054 -0.858628 0.736311
v 0.859054 1.000021 0.736311
v 0.859054 -0.999978 0.736311
v -0.858032 -0.858629 0.736311
v -0.860076 0.858457 0.736311
v 0.859054 0.858486 0.736311
v -0.858032 0.999836 0.736311
v -0.858032 -1.000164 0.736311
v 1.000365 -0.735821 0.736311
v -0.999635 -0.735821 0.736311
v -1.001388 0.736751 -0.858628
v -1.001388 0.736751 0.858457
v -0.859931 0.736751 0.858457
v 0.858543 0.736751 0.999604
v 0.859054 0.736751 -0.858628
v -0.860442 0.736751 0.999575
v 0.998612 0.736751 -0.858628
v 0.859054 0.736751 0.858457
v 0.998612 0.736751 0.858457
v 0.858543 0.736751 -1.000396
v -0.859931 0.736751 -0.858628
v -0.860442 0.736751 -1.000425
v 0.998612 0.736751 0.736311
v -1.001388 0.736751 0.736311
v -0.999489 -0.858628 -0.737302
v 1.000511 -0.858628 -0.737302
v 0.998467 0.858457 -0.737302
v -1.001533 0.858457 -0.737302
v 0.859054 1.000021 -0.737302
v 0.859054 -0.999978 -0.737302
v -0.858032 -0.858629 -0.737302
v -0.860076 0.858457 -0.737302
v 0.859054 0.858486 -0.737302
v -0.858032 0.999836 -0.737302
v -0.858032 -1.000164 -0.737302
v 1.000365 -0.735821 -0.737302
v -0.999635 -0.735821 -0.737302
v 0.859054 -0.858628 -0.737302
v -1.001388 0.736751 -0.737302
v 0.998612 0.736751 -0.737302
v 0.725169 0.858484 0.858457
v 0.725169 -0.858628 -0.858628
v 0.725169 -0.858621 0.999646
v 0.725169 -0.858621 -1.000354
v 0.725169 1.000007 -0.858628
v 0.725169 0.858491 0.999598
v 0.725169 0.858491 -1.000401
v 0.725169 1.000007 0.858457
v 0.725169 -0.858628 0.858457
v 0.725169 0.858484 -0.858628
v 0.725169 -0.999993 -0.858628
v 0.725169 -0.999993 0.858457
v 0.725169 -0.735821 0.999642
v 0.725169 -0.735821 -1.000357
v 0.725169 -0.999993 0.736311
v 0.725169 1.000007 0.736311
v 0.725169 0.736751 0.999601
v 0.725169 0.736751 -1.000398
v 0.725169 1.000007 -0.737302
v 0.725169 -0.999993 -0.737302
v -0.730204 -0.858628 0.858457
v -0.730204 0.858459 -0.858628
v -0.730204 -1.000150 -0.858628
v -0.730204 -1.000150 0.858457
v -0.730204 -1.000150 0.736311
v -0.730204 -1.000150 -0.737302
v -0.730204 0.858459 0.858457
v -0.730204 -0.858628 -0.858628
v -0.730204 -0.858621 0.999621
v -0.730204 -0.858621 -1.000378
v -0.730204 0.999850 -0.858628
v -0.730204 0.858467 0.999574
v -0.730204 0.858467 -1.000426
v -0.730204 0.999850 0.858457
v -0.730204 -0.735821 0.999618
v -0.730204 -0.735821 -1.000382
v -0.730204 0.999850 0.736311
v -0.730204 0.736751 0.999577
v -0.730204 0.736751 -1.000422
v -0.730204 0.999850 -0.737302
v 0.725169 0.858484 0.736311
v -0.730204 0.858459 0.736311
v 0.725169 -0.735821 0.858562
v 0.725169 0.736751 0.858521
v 0.859054 0.736751 -0.737302
v -0.859931 0.736751 -0.737302
v 0.725169 -0.858628 -0.737302
v 0.725169 0.858484 -0.737302
v -0.730204 0.858459 -0.737302
v -0.730204 -0.858628 -0.737302
v -0.730204 -0.735821 0.858457
v -0.730204 -0.735821 -0.858628
v -0.730204 0.736751 0.858457
v -0.730204 0.736751 -0.858628
v 0.725169 -0.735821 0.736311
v 0.725169 0.736751 0.736311
v -0.730204 -0.735821 0.736311
v -0.730204 0.736751 0.736311
vn -0.0000 -1.0000 -0.0000
vn -0.0000 -0.0000 1.0000
vn -0.0000 -0.0000 -1.0000
vn -1.0000 -0.0000 -0.0000
vn -0.0000 1.0000 -0.0000
vn 1.0000 -0.0000 -0.0000
vn -1.0000 -0.0012 -0.0036
vn 1.0000 0.0012 -0.0000
vn 1.0000 -0.0000 0.0036
vn -1.0000 -0.0012 -0.0000
vn 0.0001 -1.0000 -0.0000
vn -0.9999 0.0145 -0.0000
vn -0.0001 1.0000 -0.0000
vn 0.0002 1.0000 -0.0000
vn -1.0000 -0.0012 0.0036
vn 1.0000 -0.0000 -0.0036
vn -0.0000 1.0000 0.0001
vn -0.0000 -1.0000 0.0001
vn -0.0000 -1.0000 -0.0001
vn -0.0000 1.0000 -0.0001
vt 0.889589 0.291957
vt 0.874307 0.291963
vt 0.874261 0.306421
vt 0.889531 0.306470
vt 0.884891 0.795973
vt 0.912397 0.826844
vt 0.954654 0.818011
vt 0.933461 0.768839
vt 0.910832 0.822763
vt 0.870011 0.830072
vt 0.870010 0.778071
vt 0.917344 0.778071
vt 0.953757 0.779052
vt 0.953757 0.832626
vt 0.911531 0.823947
vt 0.898391 0.784804
vt 0.910644 0.825777
vt 0.897827 0.786997
vt 0.852140 0.813534
vt 0.883396 0.856386
vt 0.906772 0.476654
vt 0.891428 0.476664
vt 0.891366 0.462192
vt 0.906710 0.462129
vt 0.923715 0.675516
vt 0.939025 0.675508
vt 0.939016 0.688800
vt 0.923706 0.688808
vt 0.922393 0.104872
vt 0.922478 0.118111
vt 0.907373 0.118119
vt 0.907288 0.104969
vt 0.908008 0.675666
vt 0.907986 0.662374
vt 0.923297 0.662349
vt 0.923303 0.675640
vt 0.904678 0.779337
vt 0.852855 0.799652
vt 0.881545 0.852622
vt 0.911229 0.824040
vt 0.952887 0.834619
vt 0.952887 0.781254
vt 0.923711 0.662272
vt 0.939022 0.662268
vt 0.868806 0.834160
vt 0.868575 0.848632
vt 0.853258 0.848387
vt 0.853490 0.833933
vt 0.923248 0.688880
vt 0.907953 0.688817
vt 0.911858 0.772699
vt 0.918341 0.817426
vt 0.888619 0.845959
vt 0.860003 0.792904
vt 0.955004 0.476051
vt 0.955005 0.489291
vt 0.939704 0.489283
vt 0.939704 0.476052
vt 0.891311 0.449018
vt 0.906655 0.448955
vt 0.889520 0.132573
vt 0.889455 0.118045
vt 0.874185 0.118106
vt 0.874243 0.132579
vt 0.922581 0.303937
vt 0.907477 0.303945
vt 0.907466 0.290771
vt 0.922556 0.290763
vt 0.906842 0.650564
vt 0.906793 0.663856
vt 0.891454 0.663798
vt 0.891502 0.650506
vt 0.874217 0.319713
vt 0.889499 0.319763
vt 0.853570 0.838864
vt 0.899595 0.865638
vt 0.853701 0.820695
vt 0.869017 0.820939
vt 0.911352 0.826377
vt 0.898471 0.787710
vt 0.953585 0.781947
vt 0.953585 0.834973
vt 0.888335 0.677669
vt 0.873061 0.677731
vt 0.873114 0.690905
vt 0.888387 0.690844
vt 0.905583 0.834595
vt 0.890241 0.834537
vt 0.890292 0.821245
vt 0.905634 0.821303
vt 0.952450 0.831293
vt 0.929174 0.882086
vt 0.939699 0.305369
vt 0.955016 0.305360
vt 0.955017 0.318600
vt 0.939699 0.318600
vt 0.939600 0.690810
vt 0.939601 0.677672
vt 0.954902 0.677680
vt 0.954900 0.690812
vt 0.939691 0.291429
vt 0.955010 0.291420
vt 0.888365 0.490503
vt 0.888409 0.477211
vt 0.873130 0.477160
vt 0.873086 0.490452
vt 0.888286 0.663777
vt 0.888313 0.504395
vt 0.873034 0.504393
vt 0.873012 0.663775
vt 0.157298 0.831823
vt 0.031747 0.831811
vt 0.031747 0.820423
vt 0.157299 0.820423
vt 0.951704 0.831812
vt 0.910527 0.824554
vt 0.903932 0.779856
vt 0.951704 0.779855
vt 0.656049 0.702591
vt 0.656049 0.749268
vt 0.094162 0.749268
vt 0.094162 0.702592
vt 0.939165 0.489646
vt 0.939169 0.502886
vt 0.923858 0.502890
vt 0.923855 0.489646
vt 0.891545 0.636049
vt 0.906885 0.636038
vt 0.923871 0.476472
vt 0.939181 0.476472
vt 0.923748 0.118163
vt 0.923743 0.104872
vt 0.939054 0.104885
vt 0.939058 0.118177
vt 0.907490 0.317083
vt 0.922595 0.317068
vt 0.922978 0.476449
vt 0.907684 0.476468
vt 0.922393 0.848260
vt 0.907288 0.848200
vt 0.222899 0.971937
vt 0.098722 0.971937
vt 0.098722 0.961588
vt 0.222899 0.961588
vt 0.656049 0.140371
vt 0.094162 0.140371
vt 0.549215 0.983096
vt 0.377846 0.983096
vt 0.377846 0.998076
vt 0.549215 0.998076
vt 0.872610 0.476670
vt 0.872013 0.636146
vt 0.856709 0.636089
vt 0.857306 0.476613
vt 0.939609 0.663216
vt 0.939696 0.503739
vt 0.954995 0.503747
vt 0.954908 0.663224
vt 0.549187 0.813253
vt 0.377632 0.813253
vt 0.377632 0.797702
vt 0.549187 0.797702
vt 0.923032 0.502872
vt 0.907722 0.502897
vt 0.855109 0.264516
vt 0.853258 0.105050
vt 0.868576 0.104872
vt 0.870427 0.264338
vt 0.939181 0.316995
vt 0.923871 0.316995
vt 0.954913 0.131943
vt 0.939594 0.131952
vt 0.923791 0.848285
vt 0.939101 0.848277
vt 0.047304 0.702591
vt 0.047304 0.140371
vt 0.907377 0.131294
vt 0.922467 0.131286
vt 0.222899 0.837484
vt 0.098722 0.837484
vt 0.098722 0.827226
vt 0.222899 0.827226
vt 0.702494 0.140371
vt 0.702493 0.702591
vt 0.959200 0.772699
vt 0.959198 0.824707
vt 0.872489 0.449577
vt 0.872460 0.462714
vt 0.857155 0.462674
vt 0.857184 0.449543
vt 0.935779 0.875367
vt 0.889409 0.104872
vt 0.874133 0.104932
vt 0.905389 0.278146
vt 0.905442 0.291321
vt 0.890095 0.291383
vt 0.890042 0.278209
vt 0.905348 0.104872
vt 0.905339 0.264254
vt 0.889992 0.264254
vt 0.890005 0.104872
vt 0.751465 0.850668
vt 0.650228 0.850676
vt 0.650228 0.841484
vt 0.751465 0.841486
vt 0.088412 0.961588
vt 0.088412 0.837484
vt 0.923742 0.131301
vt 0.939052 0.131308
vt 0.939171 0.290690
vt 0.923861 0.290683
vt 0.923855 0.303821
vt 0.939165 0.303821
vt 0.233124 0.961588
vt 0.233124 0.837484
vt 0.940400 0.851353
vt 0.893070 0.880576
vt 0.884510 0.854467
vt 0.852855 0.811578
vt 0.932885 0.883931
vt 0.884167 0.856971
vt 0.939586 0.118012
vt 0.954903 0.118003
vt 0.852855 0.814479
vt 0.928856 0.882455
vt 0.881024 0.853211
vt 0.907700 0.489605
vt 0.922994 0.489580
vt 0.656049 0.094079
vt 0.094162 0.094079
vt 0.939584 0.104874
vt 0.954901 0.104872
vt 0.870595 0.278810
vt 0.870727 0.291948
vt 0.855410 0.292101
vt 0.855278 0.278971
vt 0.563313 0.982631
vt 0.549187 0.982631
vt 0.563313 0.813253
vt 0.751463 0.950686
vt 0.650227 0.950796
vt 0.167674 0.956000
vt 0.157296 0.955989
vt 0.167676 0.831824
vt 0.377632 0.982631
vt 0.549215 0.798370
vt 0.377846 0.798370
vt 0.377846 0.813904
vt 0.549215 0.813904
vt 0.759906 0.950677
vt 0.759907 0.850668
vt 0.031747 0.955851
vt 0.954654 0.871373
vt 0.856405 0.663266
vt 0.871710 0.663323
vt 0.021276 0.955839
vt 0.021276 0.831810
vt 0.874313 0.848539
vt 0.889589 0.848478
vt 0.641860 0.950805
vt 0.641860 0.850677
vt 0.363389 0.982631
vt 0.363389 0.813253
vt 0.856454 0.650026
vt 0.871759 0.650100
vt 0.969157 0.798354
vt 0.932942 0.881398
vt 0.852140 0.800256
vt 0.932014 0.883472
vt 0.952450 0.779337
vt 0.890182 0.848478
vt 0.905525 0.848487
vt 0.157296 0.966982
vt 0.031747 0.966833
vt 0.549187 0.997626
vt 0.377632 0.997626
vt 0.751463 0.959541
vt 0.650227 0.959660
vt 0.563325 0.813904
vt 0.563325 0.983096
vt 0.954901 0.848263
vt 0.939584 0.848261
vt 0.363619 0.813904
vt 0.363619 0.983096
s 0
g LinksiderMesh_Material
usemtl Material
f 17/1/1 22/2/1 83/3/1 113/4/1
f 6/5/2 127/6/2 11/7/2 34/8/2
f 4/9/3 118/10/3 63/11/3 115/12/3
f 61/13/3 7/14/3 2/15/3 120/16/3
f 128/17/4 123/18/4 97/19/4 112/20/4
f 45/21/5 50/22/5 88/23/5 12/24/5
f 11/25/2 40/26/2 27/27/2 34/28/2
f 49/29/5 53/30/5 14/31/5 48/32/5
f 8/33/2 31/34/2 28/35/2 39/36/2
f 8/37/1 17/38/1 113/39/1 125/40/1
f 9/41/5 43/42/5 123/18/5 128/17/5
f 11/25/1 20/43/1 18/44/1 40/26/1
f 111/45/2 36/46/2 32/47/2 86/48/2
f 39/36/1 19/49/1 17/50/1 8/33/1
f 14/51/5 126/52/5 114/53/5 48/54/5
f 82/55/6 85/56/6 5/57/6 79/58/6
f 12/24/6 88/23/6 77/59/6 80/60/6
f 48/61/5 114/62/5 87/63/5 44/64/5
f 70/65/3 115/66/3 63/67/3 57/68/3
f 13/69/6 72/70/6 74/71/6 84/72/6
f 73/73/6 79/74/6 113/4/6 83/3/6
f 6/5/4 91/75/4 121/76/4 127/6/4
f 86/48/6 78/77/6 71/78/6 111/45/6
f 1/79/5 124/80/5 51/81/5 116/82/5
f 123/83/4 108/84/4 102/85/4 97/86/4
f 122/87/4 106/88/4 100/89/4 98/90/4
f 5/91/6 125/40/6 113/39/6 79/92/6
f 6/93/4 95/94/4 94/95/4 91/96/4
f 72/97/6 117/98/6 90/99/6 81/100/6
f 34/101/2 38/102/2 95/94/2 6/93/2
f 121/103/4 91/104/4 99/105/4 105/106/4
f 43/107/7 20/108/7 24/109/7 46/110/7
f 87/111/2 83/112/2 22/113/2 44/114/2
f 117/115/3 3/116/3 10/117/3 68/118/3
f 53/119/8 49/120/8 19/121/8 39/122/8
f 54/123/5 42/124/5 43/125/5 9/126/5
f 13/69/1 84/72/1 21/127/1 23/128/1
f 9/126/2 35/129/2 30/130/2 54/123/2
f 7/131/3 61/132/3 55/133/3 67/134/3
f 45/135/3 47/136/3 15/137/3 23/138/3
f 49/139/2 48/140/2 17/50/2 19/49/2
f 44/64/9 22/2/9 17/1/9 48/61/9
f 55/141/10 27/142/10 40/143/10 67/144/10
f 70/145/8 53/119/8 39/122/8 66/146/8
f 96/147/11 95/148/11 38/149/11 65/150/11
f 62/151/12 35/152/12 37/153/12 64/154/12
f 68/155/6 31/156/6 33/157/6 60/158/6
f 89/159/13 86/160/13 32/161/13 59/162/13
f 56/163/1 28/35/1 31/34/1 68/164/1
f 59/165/6 32/166/6 36/167/6 63/168/6
f 58/169/5 30/130/5 35/129/5 62/170/5
f 65/171/4 38/102/4 34/101/4 61/172/4
f 61/173/1 34/28/1 27/27/1 55/174/1
f 66/146/8 39/122/8 28/175/8 56/176/8
f 63/67/14 36/177/14 29/178/14 57/68/14
f 69/179/10 54/180/10 30/181/10 58/182/10
f 67/144/10 40/143/10 54/180/10 69/179/10
f 57/183/8 29/184/8 53/119/8 70/145/8
f 126/52/2 14/51/2 36/185/2 111/186/2
f 53/30/2 29/178/2 36/177/2 14/31/2
f 92/187/4 119/188/4 110/189/4 101/190/4
f 114/53/6 126/52/6 111/186/6 71/191/6
f 71/192/6 76/193/6 87/63/6 114/62/6
f 124/194/4 92/195/4 103/196/4 109/197/4
f 25/198/15 51/199/15 52/200/15 26/201/15
f 84/202/3 88/203/3 50/204/3 21/205/3
f 40/143/10 18/206/10 42/207/10 54/180/10
f 21/127/16 50/22/16 45/21/16 23/128/16
f 18/44/2 20/43/2 43/125/2 42/124/2
f 25/208/3 16/209/3 41/210/3 51/211/3
f 116/212/3 69/213/3 58/169/3 62/170/3
f 16/214/10 67/144/10 69/179/10 41/215/10
f 119/188/3 62/151/3 64/154/3 110/189/3
f 116/212/5 51/211/5 41/210/5 69/213/5
f 4/9/6 12/216/6 80/217/6 118/10/6
f 25/208/1 7/131/1 67/134/1 16/209/1
f 117/98/3 68/155/3 60/158/3 90/99/3
f 2/15/4 122/218/4 98/219/4 120/16/4
f 62/220/3 119/221/3 1/79/3 116/82/3
f 120/222/3 96/223/3 65/171/3 61/172/3
f 45/135/5 115/66/5 70/65/5 47/136/5
f 1/79/4 119/221/4 92/224/4 124/80/4
f 117/115/6 72/225/6 13/226/6 3/116/6
f 68/164/3 10/227/3 66/228/3 56/163/3
f 47/229/8 70/145/8 66/146/8 15/230/8
f 120/222/4 98/231/4 93/232/4 96/223/4
f 118/233/6 80/234/6 75/235/6 89/236/6
f 101/237/13 110/238/13 89/159/13 75/239/13
f 106/240/3 109/241/3 88/203/3 84/202/3
f 102/242/2 108/243/2 87/111/2 76/244/2
f 110/238/13 107/245/13 86/160/13 89/159/13
f 60/246/11 33/247/11 85/248/11 90/249/11
f 100/250/3 106/240/3 84/202/3 74/251/3
f 108/243/2 105/252/2 83/112/2 87/111/2
f 85/56/2 33/157/2 31/156/2 5/57/2
f 63/168/3 118/233/3 89/236/3 59/165/3
f 11/7/1 127/6/1 121/76/1 20/253/1
f 103/196/17 92/195/17 80/60/17 77/59/17
f 104/254/2 97/255/2 71/78/2 78/77/2
f 99/105/18 91/104/18 79/74/18 73/73/18
f 105/252/2 99/256/2 73/257/2 83/112/2
f 98/90/19 100/89/19 74/71/19 72/70/19
f 92/187/3 101/190/3 75/235/3 80/234/3
f 97/86/20 102/85/20 76/258/20 71/259/20
f 109/241/3 103/260/3 77/261/3 88/203/3
f 107/245/13 104/262/13 78/263/13 86/160/13
f 107/264/4 112/265/4 97/255/4 104/254/4
f 12/216/5 4/9/5 115/12/5 45/266/5
f 2/15/1 7/14/1 25/267/1 122/218/1
f 10/117/1 3/116/1 13/226/1 23/268/1
f 128/17/2 112/20/2 35/269/2 9/41/2
f 8/37/2 125/40/2 5/91/2 31/270/2
f 46/110/5 108/84/5 123/83/5 43/107/5
f 112/265/2 107/264/2 37/153/2 35/152/2
f 26/271/1 106/88/1 122/87/1 25/272/1
f 46/273/2 24/274/2 105/252/2 108/243/2
f 105/106/1 24/109/1 20/108/1 121/103/1
f 64/275/13 37/276/13 107/245/13 110/238/13
f 109/197/5 52/200/5 51/199/5 124/194/5
f 26/277/3 52/278/3 109/241/3 106/240/3
f 15/137/1 66/228/1 10/227/1 23/138/1
f 81/279/11 90/249/11 96/147/11 93/280/11
f 90/249/11 85/248/11 95/148/11 96/147/11
f 82/55/2 79/58/2 91/96/2 94/95/2
f 72/97/3 81/100/3 93/281/3 98/282/3
f 85/248/11 82/283/11 94/284/11 95/148/11
