# Blender 5.0.1
# www.blender.org
mtllib model.mtl
o jetpackMesh
v 0.045124 -0.045124 0.000000
v 0.045124 -0.045124 2.000000
v -0.045124 -0.045124 0.000000
v -0.045124 -0.045124 2.000000
v 0.045124 0.045124 0.000000
v 0.045124 0.045124 2.000000
v -0.045124 0.045124 0.000000
v -0.045124 0.045124 2.000000
v 0.022900 -0.022900 2.046981
v -0.022900 -0.022900 2.046981
v -0.022900 0.022900 2.046981
v 0.022900 0.022900 2.046981
v 0.221619 1.309801 1.878150
v 0.221619 1.309801 1.937363
v -0.221619 1.309801 1.878150
v -0.221619 1.309801 1.937363
v -0.221619 -1.309801 1.878150
v 0.221619 -1.309801 1.878150
v 0.221619 -1.309801 1.937363
v -0.221619 -1.309801 1.937363
v -0.110809 1.409801 1.937363
v -0.110809 1.409801 1.878150
v 0.110809 1.409801 1.878150
v 0.110809 1.409801 1.937363
v -0.110809 -1.409801 1.878150
v 0.110809 -1.409801 1.878150
v 0.110809 -1.409801 1.937363
v -0.110809 -1.409801 1.937363
v -1.309801 0.221619 1.878150
v -1.309801 0.221619 1.937363
v -1.309801 -0.221619 1.878150
v -1.309801 -0.221619 1.937363
v 1.309801 -0.221619 1.878150
v 1.309801 0.221619 1.878150
v 1.309801 0.221619 1.937363
v 1.309801 -0.221619 1.937363
v -1.409801 -0.110810 1.937363
v -1.409801 -0.110810 1.878150
v -1.409801 0.110809 1.878150
v -1.409801 0.110809 1.937363
v 1.409801 -0.110809 1.878150
v 1.409801 0.110810 1.878150
v 1.409801 0.110810 1.937363
v 1.409801 -0.110809 1.937363
v -0.037369 -0.037369 1.878150
v -0.037369 -0.037369 1.937363
v -0.037369 0.037369 1.878150
v -0.037369 0.037369 1.937363
v 0.037369 -0.037369 1.937363
v 0.037369 -0.037369 1.878150
v 0.037369 0.037369 1.937363
v 0.037369 0.037369 1.878150
vn -0.0000 -1.0000 -0.0000
vn -1.0000 -0.0000 -0.0000
vn -0.0000 1.0000 -0.0000
vn 1.0000 -0.0000 -0.0000
vn -0.0000 -0.0000 -1.0000
vn 0.9040 -0.0000 0.4276
vn -0.0000 -0.0000 1.0000
vn -0.9040 -0.0000 0.4276
vn -0.0000 0.9040 0.4276
vn -0.0000 -0.9040 0.4276
vn 0.9897 0.1433 -0.0000
vn -0.9897 -0.1433 -0.0000
vn -0.9897 0.1433 -0.0000
vn -0.6700 0.7424 -0.0000
vn 0.6700 0.7424 -0.0000
vn -0.6700 -0.7424 -0.0000
vn 0.6700 -0.7424 -0.0000
vn -0.1433 0.9897 -0.0000
vn 0.1433 -0.9897 -0.0000
vn -0.1433 -0.9897 -0.0000
vn -0.7424 -0.6700 -0.0000
vn -0.7424 0.6700 -0.0000
vn 0.7424 -0.6700 -0.0000
vn 0.7424 0.6700 -0.0000
vn 0.1433 0.9897 -0.0000
vn 0.9897 -0.1433 -0.0000
vt 0.759402 2.167382
vt -1.577134 -0.169155
vt -1.327578 -0.418711
vt 1.008959 1.917825
vt -1.078021 -0.668268
vt 1.258516 1.668268
vt -0.828464 -0.917825
vt 1.508072 1.418712
vt -0.578907 -1.167382
vt 1.757630 1.169155
vt 0.739026 0.270361
vt 0.883521 0.270361
vt 0.883521 0.125866
vt 0.739026 0.125866
vt 0.083839 0.709109
vt 0.316882 0.709109
vt 0.259493 0.766497
vt 0.141227 0.766497
vt 0.897799 0.871987
vt 0.854693 0.871987
vt 0.854693 0.828880
vt 0.897799 0.828880
vt 0.316882 0.942152
vt 0.083839 0.942152
vt 0.141227 0.884763
vt 0.259493 0.884763
vt 0.082528 1.000000
vt 0.041264 1.000000
vt 0.041264 0.104017
vt 0.082528 0.104017
vt 0.165056 1.000000
vt 0.123792 1.000000
vt 0.123792 0.104017
vt 0.165056 0.104017
vt 0.619280 0.721702
vt 0.700131 0.721702
vt 0.679918 0.739944
vt 0.639492 0.739944
vt 0.652889 0.489598
vt 0.666522 0.489598
vt 0.619280 0.243860
vt 0.700131 0.243860
vt 0.679918 0.225619
vt 0.639492 0.225619
vt 0.666522 0.475965
vt 0.652889 0.475965
vt -0.000000 0.000000
vt 0.041264 0.000000
vt 0.041264 0.895983
vt 0.000000 0.895983
vt 0.206320 0.000000
vt 0.247584 -0.000000
vt 0.247584 0.154442
vt 0.206320 0.154442
vt 0.123792 0.000000
vt 0.165056 -0.000000
vt 0.082528 0.895983
vt 0.123792 0.895983
vt 0.123792 1.000000
vt 0.082528 1.000000
vt 0.165056 0.154442
vt 0.165056 0.000000
vt 0.041264 1.000000
vt 0.000000 1.000000
vt 0.041264 0.000000
vt 0.082528 0.000000
vt 0.808459 -0.000000
vt 0.849723 -0.000000
vt 0.849723 0.895983
vt 0.808459 0.895983
vt 0.767195 -0.000000
vt 0.808459 -0.000000
vt 0.808459 0.895983
vt 0.767195 0.895983
vt 0.295907 0.708375
vt 0.376758 0.708375
vt 0.356546 0.726616
vt 0.316120 0.726616
vt 0.329516 0.476270
vt 0.343149 0.476270
vt 0.295907 0.230533
vt 0.376758 0.230533
vt 0.356546 0.212292
vt 0.316120 0.212292
vt 0.343149 0.462637
vt 0.329516 0.462637
vt 0.767195 1.000000
vt 0.725931 1.000000
vt 0.725931 0.104017
vt 0.767195 0.104017
vt 0.973515 0.154442
vt 0.932251 0.154442
vt 0.932251 0.000000
vt 0.973515 -0.000000
vt 0.808459 1.000000
vt 0.767195 1.000000
vt 0.849723 0.895983
vt 0.890987 0.895983
vt 0.890987 1.000000
vt 0.849723 1.000000
vt 0.890987 -0.000000
vt 0.932251 -0.000000
vt 0.932251 0.154442
vt 0.890987 0.154442
vt 0.725931 0.000000
vt 0.767195 0.000000
vt 0.849723 1.000000
vt 0.808459 1.000000
vt 0.849723 0.000000
vt 0.890987 0.000000
vt 0.082528 -0.000000
vt 0.123792 -0.000000
s 0
g jetpackMesh_jetpackMat
usemtl jetpackMat
f 1/1/1 2/2/1 4/3/1 3/4/1
f 3/4/2 4/3/2 8/5/2 7/6/2
f 7/6/3 8/5/3 6/7/3 5/8/3
f 5/8/4 6/7/4 2/9/4 1/10/4
f 3/11/5 7/12/5 5/13/5 1/14/5
f 2/15/6 6/16/6 12/17/6 9/18/6
f 11/19/7 10/20/7 9/21/7 12/22/7
f 8/23/8 4/24/8 10/25/8 11/26/8
f 6/16/9 8/23/9 11/26/9 12/17/9
f 4/24/10 2/15/10 9/18/10 10/25/10
f 50/27/11 49/28/11 19/29/11 18/30/11
f 47/31/12 48/32/12 16/33/12 15/34/12
f 16/35/7 14/36/7 24/37/7 21/38/7
f 47/39/5 15/35/5 13/36/5 52/40/5
f 17/41/5 18/42/5 26/43/5 25/44/5
f 49/45/7 46/46/7 20/41/7 19/42/7
f 45/46/5 50/45/5 18/42/5 17/41/5
f 46/47/13 45/48/13 17/49/13 20/50/13
f 22/51/3 21/52/3 24/53/3 23/54/3
f 15/34/14 16/33/14 21/55/14 22/56/14
f 14/57/15 13/58/15 23/59/15 24/60/15
f 13/36/5 15/35/5 22/38/5 23/37/5
f 26/54/1 27/61/1 28/62/1 25/51/1
f 20/50/16 17/49/16 25/63/16 28/64/16
f 18/30/17 19/29/17 27/65/17 26/66/17
f 19/42/7 20/41/7 28/44/7 27/43/7
f 52/67/18 51/68/18 35/69/18 34/70/18
f 45/71/19 46/72/19 32/73/19 31/74/19
f 32/75/7 30/76/7 40/77/7 37/78/7
f 45/79/5 31/75/5 29/76/5 47/80/5
f 33/81/5 34/82/5 42/83/5 41/84/5
f 51/85/7 49/86/7 36/81/7 35/82/7
f 50/86/5 52/85/5 34/82/5 33/81/5
f 49/87/20 50/88/20 33/89/20 36/90/20
f 38/91/2 37/92/2 40/93/2 39/94/2
f 31/74/21 32/73/21 37/95/21 38/96/21
f 30/97/22 29/98/22 39/99/22 40/100/22
f 29/76/5 31/75/5 38/78/5 39/77/5
f 42/101/4 43/102/4 44/103/4 41/104/4
f 36/90/23 33/89/23 41/105/23 44/106/23
f 34/70/24 35/69/24 43/107/24 42/108/24
f 35/82/7 36/81/7 44/84/7 43/83/7
f 32/75/7 46/79/7 48/80/7 30/76/7
f 29/98/25 30/97/25 48/109/25 47/110/25
f 16/35/7 48/39/7 51/40/7 14/36/7
f 13/58/26 14/57/26 51/111/26 52/112/26
