# Blender 5.0.1
# www.blender.org
mtllib model.mtl
o markMesh
v 1.269054 0.023107 0.093312
v 0.707107 -0.000000 0.707107
v 0.382683 0.000000 0.923879
v 0.000000 0.000000 1.000000
v -0.382683 0.000000 0.923879
v -0.707107 0.000000 0.707107
v -1.000000 0.000000 0.000000
v 0.923879 0.270598 0.270598
v 0.707107 0.500000 0.500000
v 0.326558 0.684513 0.604835
v 0.056125 0.722550 0.642872
v -0.382683 0.653281 0.653281
v -0.707107 0.500000 0.500000
v -0.923879 0.270598 0.270598
v 0.923879 0.382683 -0.000000
v 0.707107 0.707107 -0.000000
v 0.326558 0.715004 0.531223
v 0.056125 0.755153 0.564160
v -0.382683 0.923879 0.000000
v -0.707107 0.707107 0.000000
v -0.923879 0.382683 0.000000
v 0.923879 0.270598 -0.270598
v 0.707107 0.500000 -0.500000
v 0.382683 0.653281 -0.653281
v 0.000000 0.707107 -0.707107
v -0.382683 0.653281 -0.653281
v -0.707107 0.500000 -0.500000
v -0.923879 0.270598 -0.270598
v 1.150365 -0.000000 -0.290287
v 0.707107 -0.000000 -0.707107
v 0.382683 0.000000 -0.923879
v -0.000000 0.000000 -1.000000
v -0.382683 0.000000 -0.923879
v -0.707107 0.000000 -0.707107
v -0.923879 0.000000 -0.382683
v 0.923879 -0.270598 -0.270598
v 0.707107 -0.500000 -0.500000
v 0.382683 -0.653281 -0.653281
v 0.000000 -0.707107 -0.707107
v -0.382683 -0.653281 -0.653281
v -0.707107 -0.500000 -0.500000
v -0.923879 -0.270598 -0.270598
v 0.923879 -0.382683 -0.000000
v 0.707107 -0.707107 -0.000000
v 0.326558 -0.715004 0.531223
v 0.056125 -0.755153 0.564159
v -0.382683 -0.923879 0.000000
v -0.707107 -0.707107 0.000000
v -0.923879 -0.382683 0.000000
v 0.923879 -0.270598 0.270598
v 0.707107 -0.500000 0.500000
v 0.326558 -0.684513 0.604835
v 0.056125 -0.722550 0.642872
v -0.382683 -0.653281 0.653281
v -0.707107 -0.500000 0.500000
v -0.923879 -0.270598 0.270598
v 0.996177 0.010304 0.248800
v -0.923879 0.000000 0.382683
v 1.148813 0.153143 -0.221102
v 1.201658 0.002562 -0.232059
v 1.148813 -0.148019 -0.221102
v 1.255365 0.015421 0.057527
v 0.382683 0.653281 0.653281
v 0.000000 0.707107 0.707107
v 0.382683 0.923879 -0.000000
v 0.000000 1.000000 0.000000
v 0.382683 -0.923879 -0.000000
v 0.000000 -1.000000 0.000000
v 0.382683 -0.653281 0.653281
v 0.000000 -0.707107 0.707107
v 0.191342 0.000000 0.961940
v 0.191342 0.680194 0.680194
v 0.191342 0.961940 -0.000000
v 0.191342 0.680194 -0.680194
v 0.191342 0.000000 -0.961940
v 0.191342 -0.680194 -0.680194
v 0.191342 -0.961940 -0.000000
v 0.191342 -0.680194 0.680194
v 0.074200 -0.825194 0.586082
v 0.191342 0.735079 0.547691
v 0.191342 -0.735079 0.547691
v 0.209416 -0.799575 0.581857
v 0.344632 -0.784355 0.656628
v 0.344632 -0.773955 0.577633
v 0.074200 -0.836315 0.670551
v 0.209416 -0.818295 0.724051
v 0.209416 0.799575 0.581858
v 0.074200 0.825194 0.586082
v 0.074200 0.836315 0.670551
v 0.344632 0.773955 0.577633
v 0.344632 0.784355 0.656628
v 0.209416 0.818295 0.724051
v 0.362707 -0.854548 0.579178
v 0.227491 -0.880067 0.574386
v 0.227491 -0.946292 0.701601
v 0.092274 -0.944927 0.645164
v 0.092274 -0.905587 0.569593
v 0.362707 -0.891339 0.649853
v 0.227491 0.880067 0.574386
v 0.092274 0.905587 0.569593
v 0.092274 0.944927 0.645165
v 0.362707 0.854548 0.579178
v 0.362707 0.891339 0.649853
v 0.227491 0.946292 0.701601
v 0.420545 -1.133717 0.433852
v 0.299788 -1.229028 0.392728
v 0.299788 -1.295252 0.519944
v 0.150113 -1.224095 0.499838
v 0.150113 -1.184755 0.424267
v 0.420545 -1.170507 0.504527
v 0.299789 1.229028 0.392728
v 0.150113 1.184755 0.424267
v 0.150113 1.224095 0.499839
v 0.420545 1.133717 0.433852
v 0.420545 1.170507 0.504527
v 0.299789 1.295252 0.519944
vn -1.0000 -0.0000 -0.0000
vn -0.8814 -0.0000 0.4724
vn -0.9342 0.2380 0.2658
vn -0.6568 -0.0000 0.7541
vn -0.3502 -0.0000 0.9367
vn -0.3930 0.5383 0.7455
vn -0.7241 0.4132 0.5522
vn 0.1951 -0.0000 0.9808
vn 0.3502 -0.0000 0.9367
vn 0.3930 0.5383 0.7455
vn 0.0439 0.0937 0.9946
vn 0.6605 0.0003 0.7508
vn 0.5979 0.0015 0.8015
vn 0.7928 0.3475 0.5007
vn 0.7307 0.4039 0.5504
vn -0.0000 -0.0000 1.0000
vn -0.0000 0.5829 0.8126
vn 0.9245 0.0128 0.3810
vn -0.7276 0.6860 -0.0000
vn -0.9412 0.3379 -0.0000
vn -0.0000 1.0000 -0.0000
vn -0.3947 0.9188 -0.0000
vn 0.7276 0.6860 -0.0000
vn 0.3947 0.9188 -0.0000
vn 0.7877 0.6158 -0.0198
vn -0.6835 0.5226 0.5097
vn 0.2105 -0.0342 0.9770
vn -0.7058 0.0499 0.7067
vn -0.0000 0.5829 -0.8126
vn -0.3930 0.5383 -0.7455
vn 0.6605 0.4951 -0.5644
vn 0.3930 0.5383 -0.7455
vn 0.7502 0.5121 -0.4182
vn -0.9342 0.2380 -0.2658
vn -0.7241 0.4132 -0.5522
vn 0.1951 0.9808 -0.0000
vn 0.1933 0.5922 -0.7822
vn -0.8814 -0.0000 -0.4724
vn -0.3502 -0.0000 -0.9367
vn -0.6568 -0.0000 -0.7541
vn 0.3502 -0.0000 -0.9367
vn 0.1951 -0.0000 -0.9808
vn 0.5909 -0.0016 -0.8068
vn 0.6242 -0.0000 -0.7813
vn -0.0000 -0.0000 -1.0000
vn 0.7561 -0.5117 -0.4080
vn 0.7071 -0.5574 -0.4351
vn 0.9489 -0.0190 0.3150
vn 0.3930 -0.5383 -0.7455
vn 0.1933 -0.5922 -0.7822
vn 0.6605 -0.4951 -0.5644
vn -0.7241 -0.4132 -0.5522
vn -0.9342 -0.2380 -0.2658
vn -0.0000 -0.5829 -0.8126
vn -0.3930 -0.5383 -0.7455
vn 0.6947 0.5390 -0.4762
vn 0.8628 -0.0008 -0.5056
vn -0.7276 -0.6860 -0.0000
vn -0.9412 -0.3379 -0.0000
vn -0.0000 -1.0000 -0.0000
vn -0.3947 -0.9188 -0.0000
vn 0.7276 -0.6860 -0.0000
vn 0.3947 -0.9188 -0.0000
vn 0.8027 -0.5961 -0.0187
vn 0.1951 -0.9808 -0.0000
vn 0.7331 -0.4005 0.5497
vn 0.3930 -0.5383 0.7455
vn 0.7986 -0.3409 0.4960
vn -0.9342 -0.2380 0.2658
vn -0.3930 -0.5383 0.7455
vn -0.7241 -0.4132 0.5522
vn -0.3093 -0.9498 -0.0470
vn 0.0906 -0.8057 -0.5853
vn -0.0072 -0.1072 -0.9942
vn -0.8419 -0.2348 -0.4859
vn -0.0000 -0.5829 0.8126
vn 0.1917 -0.0558 0.9799
vn 0.0906 0.8057 -0.5853
vn 0.3983 0.9126 -0.0925
vn -0.3093 0.9498 -0.0470
vn 0.9029 0.1501 0.4028
vn 0.9029 -0.1501 0.4028
vn 0.3983 -0.9126 -0.0925
vn -0.6835 -0.5226 0.5097
vn 0.7099 0.1532 0.6874
vn 0.7815 0.1012 -0.6156
vn -0.8419 0.2348 -0.4859
vn -0.2120 0.0509 0.9759
vn -0.7058 -0.0499 0.7067
vn -0.8337 -0.3027 0.4620
vn 0.0475 -0.1619 0.9857
vn 0.7994 -0.0448 0.5992
vn 0.8749 0.2783 -0.3964
vn 0.7099 -0.1532 0.6874
vn 0.7994 0.0448 0.5992
vn 0.2122 0.3211 0.9230
vn -0.0072 0.1072 -0.9942
vn -0.7593 -0.0156 -0.6505
vn -0.0267 -0.2099 -0.9774
vn 0.7815 -0.1012 -0.6156
vn -0.8918 -0.4376 0.1154
vn 0.1316 -0.5547 0.8216
vn 0.9689 -0.1342 0.2078
vn 0.7271 -0.0004 -0.6865
vn -0.0267 0.2099 -0.9774
vn -0.7593 0.0156 -0.6505
vn -0.5473 0.0402 -0.8360
vn 0.0651 0.0635 -0.9959
vn 0.8749 -0.2783 -0.3964
vn 0.7271 0.0004 -0.6865
vn 0.9689 0.1342 0.2078
vn -0.8337 0.3027 0.4620
vn 0.0651 -0.0635 -0.9959
vn -0.5473 -0.0402 -0.8360
vn -0.2352 0.7333 0.6379
vn -0.8918 0.4376 0.1154
vt 0.956324 0.298599
vt 0.905044 0.324239
vt 0.905044 0.272959
vt 0.156336 0.579666
vt 0.156336 0.675816
vt -0.037278 0.675816
vt 0.008151 0.579666
vt 0.725566 0.324239
vt 0.699926 0.324239
vt 0.699926 0.272959
vt 0.725566 0.272959
vt 0.499913 0.585316
vt 0.499913 0.486234
vt 0.582556 0.452003
vt 0.652617 0.522064
vt 0.156337 0.515420
vt 0.076139 0.515420
vt 0.156336 0.789232
vt -0.053230 0.789232
vt 0.499913 0.651520
vt 0.699431 0.568877
vt 0.499913 0.369359
vt 0.853765 0.272959
vt 0.853765 0.221680
vt 0.905044 0.221680
vt 0.802485 0.272959
vt 0.751206 0.272959
vt 0.751206 0.221680
vt 0.802485 0.221680
vt 0.715869 0.369359
vt 0.782074 0.369359
vt 0.616788 0.369359
vt 0.956324 0.247320
vt 0.141108 0.874641
vt 0.141602 0.973975
vt 0.107424 0.947877
vt 0.125441 0.897681
vt 0.751206 0.170400
vt 0.802485 0.170400
vt 0.652617 0.216655
vt 0.699431 0.169841
vt 0.611248 0.342575
vt 0.505323 0.370063
vt 0.578229 0.262862
vt 0.956324 0.196040
vt 0.905044 0.170400
vt 0.853765 0.170400
vt 0.725566 0.221680
vt 0.699926 0.221680
vt 0.699926 0.170400
vt 0.725566 0.170400
vt 0.582556 0.286716
vt 0.956324 0.144760
vt 0.905044 0.119121
vt 0.345390 0.226633
vt 0.299816 0.130174
vt 0.494053 0.130174
vt 0.494053 0.226633
vt 0.698889 0.142202
vt 0.690961 0.150130
vt 0.498516 0.070416
vt 0.498516 0.059204
vt 0.645807 0.195284
vt 0.498516 0.257061
vt 0.498516 0.134274
vt 0.413597 0.291085
vt 0.494053 0.291085
vt 0.283812 0.117954
vt 0.494053 0.117954
vt 0.418802 0.262862
vt 0.454912 0.277442
vt 0.503058 0.359522
vt 0.306070 0.150130
vt 0.298142 0.142202
vt 0.351224 0.195284
vt 0.642716 0.226633
vt 0.574509 0.291085
vt 0.704295 0.117954
vt 0.688291 0.130174
vt 0.543629 0.277442
vt 0.499270 0.274215
vt 0.956324 0.093481
vt 0.905044 0.067841
vt 0.853765 0.067841
vt 0.853765 0.016561
vt 0.905044 0.016561
vt 0.802485 0.067841
vt 0.751206 0.067841
vt 0.751206 0.016561
vt 0.802485 0.016561
vt 0.300395 0.169841
vt 0.347208 0.216655
vt 0.283956 0.369359
vt 0.217752 0.369359
vt 0.385784 0.342575
vt 0.956324 0.042201
vt 0.725566 0.067841
vt 0.699926 0.067841
vt 0.699926 0.016561
vt 0.725566 0.016561
vt 0.417270 0.286716
vt 0.383038 0.369359
vt 0.347208 0.522064
vt 0.300395 0.568877
vt 0.417270 0.452002
vt 0.956324 0.401158
vt 0.905044 0.426798
vt 0.905044 0.375519
vt 0.853765 0.426798
vt 0.802485 0.426798
vt 0.802485 0.375519
vt 0.853765 0.375519
vt 0.207567 0.973975
vt 0.141602 0.922735
vt 0.154673 0.908886
vt 0.208782 0.950332
vt 0.751206 0.426798
vt 0.751206 0.375519
vt 0.956324 0.349879
vt 0.304522 0.579666
vt 0.349951 0.675816
vt 0.725566 0.375519
vt 0.699926 0.375519
vt 0.236534 0.515420
vt 0.365903 0.789232
vt 0.725566 0.268721
vt 0.743685 0.268797
vt 0.725566 0.262979
vt 0.707447 0.262923
vt 0.743685 0.263035
vt 0.707447 0.268645
vt 0.725566 0.385499
vt 0.743685 0.385443
vt 0.725566 0.426798
vt 0.725566 0.379756
vt 0.707447 0.379833
vt 0.707447 0.385555
vt 0.699926 0.426798
vt 0.743685 0.379680
vt 0.751206 0.324239
vt 0.141602 0.866848
vt 0.169357 0.847230
vt 0.187015 0.857664
vt 0.162940 0.866189
vt 0.498516 0.047992
vt 0.290214 0.134274
vt 0.706817 0.134274
vt 0.088515 0.841253
vt 0.089730 0.864896
vt 0.226476 0.867351
vt 0.244493 0.917547
vt 0.226945 0.916754
vt 0.214470 0.874006
vt 0.185353 0.865159
vt 0.171453 0.870643
vt 0.260653 0.841253
vt 0.260160 0.940588
vt 0.067963 0.957564
vt 0.066302 0.950069
vt 0.095418 0.941223
vt 0.035621 0.906342
vt 0.081363 0.885909
vt 0.041503 0.914362
vt 0.050305 0.967998
vt 0.022550 0.948380
vt 0.043888 0.949039
vt 0.022550 0.892493
vt 0.187657 0.894483
vt 0.186908 0.889347
vt 0.184376 0.887912
vt 0.183945 0.888818
vt 0.160554 0.900866
vt 0.200414 0.929319
vt 0.065981 0.921103
vt 0.064687 0.924610
vt 0.052401 0.944585
vt 0.064893 0.926410
vt 0.065324 0.927316
vt 0.107893 0.898475
vt 0.183739 0.890618
vt 0.185032 0.894125
vt 0.067856 0.925881
vt 0.068605 0.920745
s 1
g markMesh_markMat
usemtl markMat
f 7/1/1 58/2/2 14/3/3
f 6/4/4 5/5/5 12/6/6 13/7/7
f 71/8/8 3/9/9 63/10/10 72/11/11
f 2/12/12 57/13/13 8/14/14 9/15/15
f 58/16/2 6/4/4 13/7/7 14/17/3
f 5/5/5 4/18/16 64/19/17 12/6/6
f 3/20/9 2/12/12 9/15/15 63/21/10
f 57/13/13 1/22/18 8/14/14
f 14/3/3 13/23/7 20/24/19 21/25/20
f 12/26/6 64/27/17 66/28/21 19/29/22
f 63/21/10 9/15/15 16/30/23 65/31/24
f 8/14/14 1/22/18 15/32/25
f 7/33/1 14/3/3 21/25/20
f 13/23/7 12/26/6 19/29/22 20/24/19
f 11/34/26 72/35/11 92/36/27 89/37/28
f 9/15/15 8/14/14 15/32/25 16/30/23
f 19/29/22 66/28/21 25/38/29 26/39/30
f 65/31/24 16/30/23 23/40/31 24/41/32
f 15/42/25 1/43/18 22/44/33
f 7/45/1 21/25/20 28/46/34
f 20/24/19 19/29/22 26/39/30 27/47/35
f 73/48/36 65/49/24 24/50/32 74/51/37
f 16/30/23 15/32/25 22/52/33 23/40/31
f 21/25/20 20/24/19 27/47/35 28/46/34
f 7/53/1 28/46/34 35/54/38
f 27/55/35 26/56/30 33/57/39 34/58/40
f 74/59/37 24/60/32 31/61/41 75/62/42
f 23/63/31 22/44/33 29/64/43 30/65/44
f 28/66/34 27/55/35 34/58/40 35/67/38
f 26/56/30 25/68/29 32/69/45 33/57/39
f 24/60/32 23/63/31 30/65/44 31/61/41
f 1/43/18 36/70/46 61/71/47 62/72/48
f 75/62/42 31/61/41 38/73/49 76/74/50
f 30/65/44 29/64/43 36/70/46 37/75/51
f 35/67/38 34/58/40 41/76/52 42/77/53
f 33/57/39 32/69/45 39/78/54 40/79/55
f 31/61/41 30/65/44 37/75/51 38/73/49
f 29/64/43 22/44/33 59/80/56 60/81/57
f 7/82/1 35/54/38 42/83/53
f 34/58/40 33/57/39 40/79/55 41/76/52
f 42/83/53 41/84/52 48/85/58 49/86/59
f 40/87/55 39/88/54 68/89/60 47/90/61
f 38/91/49 37/92/51 44/93/62 67/94/63
f 36/70/46 1/43/18 43/95/64
f 7/96/1 42/83/53 49/86/59
f 41/84/52 40/87/55 47/90/61 48/85/58
f 76/97/50 38/98/49 67/99/63 77/100/65
f 37/92/51 36/101/46 43/102/64 44/93/62
f 67/94/63 44/93/62 51/103/66 69/104/67
f 43/102/64 1/22/18 50/105/68
f 7/106/1 49/107/59 56/108/69
f 48/109/58 47/110/61 54/111/70 55/112/71
f 46/113/72 81/114/73 82/115/74 79/116/75
f 44/93/62 43/102/64 50/105/68 51/103/66
f 49/107/59 48/109/58 55/112/71 56/108/69
f 47/110/61 68/117/60 70/118/76 54/111/70
f 7/119/1 56/108/69 58/2/2
f 55/120/71 54/121/70 5/5/5 6/4/4
f 78/122/77 69/123/67 3/9/9 71/8/8
f 51/103/66 50/105/68 57/13/13 2/12/12
f 56/124/69 55/120/71 6/4/4 58/16/2
f 54/121/70 70/125/76 4/18/16 5/5/5
f 69/104/67 51/103/66 2/12/12 3/20/9
f 50/105/68 1/22/18 57/13/13
f 59/80/56 62/72/48 60/81/57
f 60/81/57 62/72/48 61/71/47
f 36/70/46 29/64/43 60/81/57 61/71/47
f 22/44/33 1/43/18 62/72/48 59/80/56
f 72/126/11 11/127/26 64/27/17
f 80/128/78 17/129/79 65/49/24 73/48/36
f 11/127/26 18/130/80 66/28/21 64/27/17
f 17/129/79 10/131/81 63/10/10 65/49/24
f 81/132/73 46/133/72 68/117/60 77/134/65
f 78/135/77 52/136/82 69/123/67
f 52/136/82 45/137/83 67/138/63 69/123/67
f 46/133/72 53/139/84 70/118/76 68/117/60
f 53/139/84 78/122/77 70/118/76
f 45/137/83 81/132/73 77/134/65 67/138/63
f 18/130/80 80/128/78 73/48/36 66/28/21
f 10/131/81 72/11/11 63/10/10
f 70/118/76 78/122/77 71/8/8 4/140/16
f 45/141/83 52/142/82 83/143/85 84/144/86
f 39/88/54 76/97/50 77/100/65 68/89/60
f 32/145/45 75/62/42 76/74/50 39/146/54
f 25/147/29 74/59/37 75/62/42 32/145/45
f 66/28/21 73/48/36 74/51/37 25/38/29
f 18/148/80 11/34/26 89/37/28 88/149/87
f 4/140/16 71/8/8 72/11/11 64/27/17
f 86/150/88 85/151/89 96/152/90 95/153/91
f 84/144/86 83/143/85 98/154/92 93/155/93
f 81/114/73 45/141/83 84/144/86 82/115/74
f 52/142/82 78/156/77 86/150/88 83/143/85
f 53/157/84 46/113/72 79/116/75 85/151/89
f 78/156/77 53/157/84 85/151/89 86/150/88
f 92/36/27 91/158/94 103/159/95 104/160/96
f 87/161/97 88/149/87 100/162/98 99/163/99
f 10/164/81 17/165/79 90/166/100 91/158/94
f 17/165/79 80/167/78 87/161/97 90/166/100
f 80/167/78 18/148/80 88/149/87 87/161/97
f 72/35/11 10/164/81 91/158/94 92/36/27
f 95/153/91 96/152/90 108/168/101 107/169/102
f 93/155/93 98/154/92 110/170/103 105/171/104
f 82/115/74 84/144/86 93/155/93 94/172/105
f 79/116/75 82/115/74 94/172/105 97/173/106
f 85/151/89 79/116/75 97/173/106 96/152/90
f 83/143/85 86/150/88 95/153/91 98/154/92
f 99/163/99 100/162/98 112/174/107 111/175/108
f 103/159/95 102/176/109 114/177/110 115/178/111
f 90/166/100 87/161/97 99/163/99 102/176/109
f 88/149/87 89/37/28 101/179/112 100/162/98
f 89/37/28 92/36/27 104/160/96 101/179/112
f 91/158/94 90/166/100 102/176/109 103/159/95
f 106/180/113 105/171/104 110/170/103 107/169/102
f 109/181/114 106/180/113 107/169/102 108/168/101
f 97/173/106 94/172/105 106/180/113 109/181/114
f 96/152/90 97/173/106 109/181/114 108/168/101
f 94/172/105 93/155/93 105/171/104 106/180/113
f 98/154/92 95/153/91 107/169/102 110/170/103
f 116/182/115 115/178/111 114/177/110 111/175/108
f 113/183/116 116/182/115 111/175/108 112/174/107
f 104/160/96 103/159/95 115/178/111 116/182/115
f 102/176/109 99/163/99 111/175/108 114/177/110
f 100/162/98 101/179/112 113/183/116 112/174/107
f 101/179/112 104/160/96 116/182/115 113/183/116
