# Blender 5.0.1
# www.blender.org
mtllib model.mtl
o rocketMesh
v -107.284576 -1.241200 147.910736
v -109.969109 -1.241199 160.581451
v -107.748749 -2.973591 147.910736
v -110.073631 -1.631305 160.581451
v -109.016968 -4.241779 147.910736
v -110.359215 -1.916888 160.581451
v -110.749359 -4.705982 147.910736
v -110.749352 -2.021442 160.581451
v -112.481750 -4.241779 147.910736
v -111.139458 -1.916888 160.581451
v -113.982025 -2.973591 147.910736
v -111.425041 -1.631305 160.581451
v -113.982025 -1.241200 147.910736
v -111.529594 -1.241199 160.581451
v -113.982025 0.491191 147.910736
v -111.425041 -0.851062 160.581451
v -112.481750 1.759411 147.910736
v -111.139458 -0.565479 160.581451
v -110.749359 2.223583 147.910736
v -110.749352 -0.460956 160.581451
v -109.016968 1.759411 147.910736
v -110.359215 -0.565479 160.581451
v -107.748749 0.491192 147.910736
v -110.073631 -0.851062 160.581451
v -106.745667 -1.241199 150.568054
v -106.643150 -1.241199 153.225372
v -106.745659 -1.241199 155.882721
v -110.073631 -0.851062 161.260803
v -110.359215 -0.565479 161.260803
v -107.282036 -3.243030 155.882721
v -107.193260 -3.294299 153.225372
v -107.282043 -3.243030 150.568054
v -110.749352 -0.460956 161.260803
v -108.747490 -4.708484 155.882721
v -108.696251 -4.797260 153.225372
v -108.747498 -4.708484 150.568054
v -111.139458 -0.565479 161.260803
v -110.749352 -5.244892 155.882721
v -110.749352 -5.347400 153.225403
v -110.749359 -5.244892 150.568054
v -111.425041 -0.851062 161.260803
v -112.751183 -4.708484 155.882721
v -112.802452 -4.797260 153.225403
v -112.751190 -4.708484 150.568054
v -111.529594 -1.241199 161.260803
v -114.216637 -3.243030 155.882721
v -114.305412 -3.294300 153.225403
v -113.483917 -3.975757 150.568054
v -111.425041 -1.631305 161.260803
v -114.753014 -1.241199 155.882721
v -114.830833 -1.241199 153.865875
v -111.139458 -1.916888 161.260803
v -114.216637 0.760662 155.882721
v -114.305412 0.811901 153.225403
v -113.483917 1.493389 150.568054
v -110.749352 -2.021442 161.260803
v -112.751183 2.226116 155.882721
v -112.802452 2.314892 153.225403
v -112.751190 2.226116 150.568054
v -110.359215 -1.916888 161.260803
v -110.749352 2.762493 155.882721
v -110.749352 2.865001 153.225403
v -110.749359 2.762492 150.568054
v -109.969109 -1.241199 161.260803
v -108.747490 2.226116 155.882721
v -108.696251 2.314892 153.225372
v -108.747498 2.226116 150.568054
v -110.073631 -1.631305 161.260803
v -107.282036 0.760662 155.882721
v -107.193260 0.811901 153.225372
v -107.282043 0.760662 150.568054
v -108.029015 -1.241199 159.276917
v -107.284569 -1.241199 157.510437
v -107.748741 -2.973590 157.510437
v -108.393456 -2.601367 159.276917
v -109.016960 -4.241779 157.510437
v -109.389183 -3.597064 159.276917
v -110.749352 -4.705982 157.510437
v -110.749352 -3.961535 159.276917
v -112.481743 -4.241779 157.510437
v -112.109520 -3.597064 159.276917
v -113.749931 -2.973591 157.510437
v -113.105217 -2.601368 159.276917
v -114.214134 -1.241199 157.510468
v -113.469688 -1.241199 159.276917
v -113.749931 0.491192 157.510437
v -113.105217 0.118969 159.276917
v -112.481743 1.759411 157.510437
v -112.109520 1.114697 159.276917
v -110.749352 2.223583 157.510437
v -110.749352 1.479138 159.276917
v -109.016960 1.759412 157.510437
v -109.389183 1.114697 159.276917
v -107.748741 0.491192 157.510437
v -108.393456 0.118970 159.276917
v -110.526970 -1.112811 161.497192
v -110.620964 -1.018817 161.497192
v -110.749352 -0.984424 161.497192
v -110.877739 -1.018817 161.497192
v -110.971703 -1.112811 161.497192
v -111.006096 -1.241199 161.497192
v -110.971703 -1.369586 161.497192
v -110.877739 -1.463550 161.497192
v -110.749352 -1.497943 161.497192
v -110.620964 -1.463550 161.497192
v -110.526970 -1.369586 161.497192
v -110.492577 -1.241199 161.497192
v -110.492577 -1.241198 166.992554
v -110.526970 -1.112811 166.992554
v -110.749352 -0.984423 166.992554
v -110.877739 -1.018817 166.992554
v -110.526970 -1.369586 166.992554
v -110.620964 -1.463549 166.992554
v -110.971703 -1.369586 166.992554
v -110.877739 -1.463549 166.992554
v -110.971703 -1.112811 166.992554
v -111.006096 -1.241198 166.992554
v -110.620964 -1.018817 166.992554
v -110.749352 -1.497943 166.992554
v -107.284576 -1.241200 146.858948
v -107.748749 -2.973591 146.858948
v -109.016968 -4.241779 146.858948
v -110.749359 -4.705982 146.858948
v -112.481750 -4.241779 146.858948
v -113.749939 -2.973592 146.858948
v -114.214142 -1.241200 146.858948
v -113.749939 0.491191 146.858948
v -112.481750 1.759411 146.858948
v -110.749359 2.223583 146.858948
v -109.016968 1.759411 146.858948
v -107.748749 0.491192 146.858948
v -120.488464 -2.973592 143.613586
v -120.488464 -1.241201 143.613586
v -120.488464 0.491191 143.613586
v -109.108429 -3.975757 150.582092
v -107.719360 -2.973591 147.924744
v -107.719360 -1.241200 147.924744
v -107.679443 -1.241199 150.582062
v -107.719360 0.491192 147.924744
v -109.108429 1.493389 150.582092
v -109.929924 -3.294300 153.239380
v -108.479027 -1.241199 153.879883
v -109.929924 0.811901 153.239380
v -114.208031 -1.241199 153.879883
v -112.799133 5.574840 145.686646
v -112.382172 5.686565 145.686646
v -112.662048 5.164867 145.717773
v -112.295959 5.262981 145.717773
v -112.382172 -8.168934 145.686646
v -112.799133 -8.057209 145.686646
v -112.295959 -7.745350 145.717773
v -112.662048 -7.647267 145.717773
v -105.566162 -6.119129 145.686646
v -105.871399 -6.424366 145.686646
v -105.889862 -5.832660 145.717773
v -106.157867 -6.100666 145.717773
v -105.871399 3.941997 145.686646
v -105.566162 3.636760 145.686646
v -106.157867 3.618296 145.717773
v -105.889862 3.350291 145.717773
v -112.775024 5.536479 134.802856
v -112.462860 5.620127 134.802856
v -112.672363 5.229594 134.802856
v -112.398315 5.303019 134.802856
v -112.462860 -8.102530 134.802856
v -112.775024 -8.018879 134.802856
v -112.398315 -7.785420 134.802856
v -112.672363 -7.711964 134.802856
v -105.685181 -6.119160 134.802856
v -105.913696 -6.347676 134.802856
v -105.927521 -5.904683 134.802856
v -106.128174 -6.105336 134.802856
v -105.913696 3.865274 134.802856
v -105.685181 3.636759 134.802856
v -106.128174 3.622935 134.802856
v -105.927521 3.422312 134.802856
v -112.571289 1.493389 150.570984
v -112.675751 0.491191 147.913666
v -113.392754 -3.294299 153.228333
v -113.505974 -1.241199 153.868805
v -112.675751 -1.241200 147.913666
v -113.392754 0.811901 153.228333
v -112.571289 -3.975757 150.570984
v -112.675751 -2.973591 147.913666
v -110.231590 -1.241198 166.992554
v -110.300957 -0.982318 166.992554
v -110.749352 -0.723437 166.992554
v -111.008202 -0.792804 166.992554
v -110.300957 -1.500079 166.992554
v -110.490471 -1.689563 166.992554
v -111.197716 -1.500079 166.992554
v -111.008202 -1.689563 166.992554
v -111.197716 -0.982318 166.992554
v -111.267082 -1.241198 166.992554
v -110.490471 -0.792804 166.992554
v -110.749352 -1.758929 166.992554
v -110.749352 -1.241198 168.491821
v -115.005821 1.051159 155.255066
v -115.005821 0.741589 156.715363
v -114.573753 1.051159 155.255066
v -114.840294 0.741589 156.715363
v -115.005821 -3.025501 154.850281
v -115.005821 -3.466907 156.869202
v -114.734367 -3.025501 154.850281
v -114.857109 -3.466907 156.869202
v -112.762962 -1.241199 156.721680
v -115.173943 -1.241199 156.721680
v -112.762962 -1.344898 156.646301
v -115.173943 -1.344898 156.646332
v -112.762962 -1.305286 156.524414
v -115.173943 -1.305286 156.524414
v -112.762962 -1.177082 156.524414
v -115.173943 -1.177082 156.524414
v -112.762962 -1.137470 156.646301
v -115.173943 -1.137470 156.646332
v -115.282310 -1.606586 156.731354
v -115.282310 -1.241199 156.996826
v -115.282310 -1.466999 156.301819
v -115.282310 -1.015369 156.301819
v -115.282310 -0.875812 156.731354
vn -0.2995 -0.2995 0.9059
vn 0.4091 0.1096 0.9059
vn -0.7071 0.7071 -0.0000
vn 0.7070 -0.7072 -0.0000
vn -0.9659 0.2589 -0.0000
vn -0.2588 0.9659 -0.0000
vn 0.2994 -0.2995 0.9059
vn 0.2589 -0.9659 -0.0000
vn 0.9659 -0.2588 -0.0000
vn -0.2589 -0.9659 -0.0000
vn -0.9659 -0.2589 -0.0000
vn 0.2995 0.2995 0.9059
vn -0.4091 -0.1096 0.9059
vn 0.9659 0.2588 -0.0000
vn 0.9479 0.2540 -0.1922
vn 0.9597 0.2571 -0.1135
vn 0.9521 0.2551 0.1685
vn 0.2588 0.9659 -0.0000
vn 0.6939 0.6939 -0.1922
vn 0.7025 0.7025 -0.1135
vn 0.7071 0.7071 -0.0000
vn 0.6970 0.6970 0.1685
vn -0.1096 0.4091 0.9059
vn 0.2540 0.9479 -0.1922
vn 0.2571 0.9597 -0.1135
vn 0.2551 0.9521 0.1685
vn -0.2540 0.9479 -0.1922
vn -0.2571 0.9597 -0.1135
vn -0.2551 0.9521 0.1685
vn -0.7071 -0.7071 -0.0000
vn -0.8431 -0.4466 0.2995
vn -0.9689 -0.2291 -0.0936
vn -0.6842 0.7217 -0.1048
vn -0.6571 0.7333 -0.1744
vn -0.8398 0.1300 -0.5271
vn -0.6970 0.6970 0.1685
vn 0.1096 -0.4091 0.9059
vn 0.0026 -0.0000 -1.0000
vn 0.0019 -0.7250 -0.6887
vn -0.3065 -0.7096 -0.6345
vn -0.6595 -0.0000 -0.7517
vn -0.0022 -0.0000 1.0000
vn -0.8297 -0.0000 -0.5582
vn -0.9521 0.2551 0.1685
vn 0.1096 0.4091 0.9059
vn -0.0001 -0.9985 0.0549
vn -0.0009 -0.9357 0.3528
vn -0.7397 -0.6726 0.0213
vn -0.4608 -0.8863 -0.0450
vn 0.0019 0.7250 -0.6887
vn -0.3065 0.7096 -0.6345
vn -0.8398 -0.1300 -0.5271
vn -0.9521 -0.2551 0.1685
vn -0.4091 0.1096 0.9059
vn -0.6571 -0.7333 -0.1744
vn -0.6842 -0.7217 -0.1048
vn -0.9689 0.2291 -0.0936
vn -0.8432 0.4466 0.2994
vn -0.6970 -0.6970 0.1685
vn -0.2540 -0.9479 -0.1922
vn -0.2572 -0.9597 -0.1135
vn -0.2588 -0.9659 -0.0000
vn -0.2551 -0.9521 0.1685
vn 0.4091 -0.1096 0.9059
vn 0.2540 -0.9479 -0.1922
vn 0.2571 -0.9597 -0.1135
vn 0.2588 -0.9659 -0.0000
vn 0.2551 -0.9521 0.1685
vn -0.1096 -0.4091 0.9059
vn 0.6939 -0.6939 -0.1922
vn 0.7025 -0.7025 -0.1135
vn 0.7071 -0.7071 -0.0000
vn 0.6970 -0.6970 0.1685
vn -0.2995 0.2994 0.9059
vn 0.9479 -0.2540 -0.1922
vn 0.9597 -0.2571 -0.1135
vn 0.9521 -0.2551 0.1685
vn 0.7981 0.4608 0.3884
vn 0.9215 -0.0000 0.3884
vn 0.4608 0.7981 0.3884
vn -0.0000 0.9215 0.3884
vn -0.4608 0.7981 0.3884
vn -0.7981 0.4608 0.3884
vn -0.7980 0.4608 0.3884
vn -0.9215 -0.0000 0.3884
vn -0.7980 -0.4608 0.3884
vn -0.4608 -0.7980 0.3884
vn -0.0000 -0.9215 0.3884
vn 0.4608 -0.7981 0.3884
vn 0.7981 -0.4608 0.3884
vn 0.4832 0.2790 0.8298
vn 0.5580 -0.0000 0.8298
vn 0.9200 -0.2465 0.3046
vn 0.4832 -0.2790 0.8298
vn 0.9200 0.2465 0.3046
vn 0.2790 -0.4832 0.8298
vn 0.6735 -0.6735 0.3046
vn -0.0000 -0.5580 0.8298
vn 0.2465 -0.9200 0.3046
vn -0.2790 -0.4832 0.8298
vn -0.2465 -0.9200 0.3046
vn -0.4832 -0.2790 0.8298
vn -0.6735 -0.6735 0.3046
vn -0.5580 -0.0000 0.8298
vn -0.9200 -0.2465 0.3046
vn -0.4832 0.2790 0.8298
vn -0.9200 0.2465 0.3046
vn -0.2790 0.4832 0.8298
vn -0.6735 0.6735 0.3046
vn -0.0000 0.5580 0.8298
vn -0.2465 0.9200 0.3046
vn 0.2790 0.4832 0.8298
vn 0.2465 0.9200 0.3046
vn 0.6735 0.6735 0.3046
vn -0.0000 -0.0000 -1.0000
vn -0.7072 0.7070 -0.0000
vn -0.9660 0.2587 -0.0000
vn -0.9660 -0.2587 -0.0000
vn 0.3595 0.3595 0.8611
vn 0.3595 -0.3595 0.8611
vn 0.9122 0.4000 -0.0890
vn -0.6737 0.7353 -0.0743
vn -0.5511 -0.0000 0.8344
vn -0.0000 -1.0000 -0.0000
vn -0.6737 -0.7353 -0.0743
vn 0.0838 0.3126 -0.9462
vn 0.2033 0.7586 -0.6190
vn 0.2036 0.7596 -0.6177
vn -0.0000 1.0000 -0.0000
vn 0.4456 0.0597 -0.8933
vn 0.4456 -0.0597 -0.8933
vn -0.9818 -0.0000 -0.1900
vn -0.9674 -0.0000 -0.2531
vn -0.7397 0.6726 0.0213
vn -0.4608 0.8863 -0.0450
vn -0.0001 0.9985 0.0549
vn -0.0009 0.9357 0.3528
vn -0.7489 0.6627 -0.0018
vn 0.0838 -0.3126 -0.9462
vn 0.2036 -0.7596 -0.6177
vn 0.2033 -0.7586 -0.6190
vn -0.9900 -0.1097 -0.0889
vn -0.1316 0.4910 0.8611
vn -0.7489 -0.6627 -0.0018
vn -0.9900 0.1097 -0.0889
vn 0.9122 -0.4000 -0.0890
vn -0.1316 -0.4910 0.8611
vn 0.6625 -0.7490 -0.0072
vn -0.5900 -0.8025 -0.0889
vn 0.8025 0.5900 -0.0889
vn -0.2289 0.2289 -0.9462
vn -0.5562 0.5562 -0.6175
vn -0.5567 0.5567 -0.6165
vn -0.9484 0.3172 -0.0010
vn -0.2289 -0.2289 -0.9462
vn -0.5567 -0.5567 -0.6165
vn -0.5562 -0.5562 -0.6175
vn -0.5900 0.8025 -0.0889
vn 0.8025 -0.5900 -0.0889
vn -0.2588 0.9659 -0.0040
vn -0.2588 -0.9659 -0.0040
vn 0.2588 -0.9659 -0.0060
vn 0.7071 -0.7071 -0.0077
vn 0.2588 0.9659 -0.0060
vn 0.7071 0.7071 -0.0077
vn 0.9799 0.1991 -0.0085
vn -0.7071 0.7071 -0.0022
vn 0.9799 -0.1991 -0.0085
vn -0.7071 -0.7071 -0.0022
vn -0.9484 -0.3172 -0.0010
vn 0.6625 0.7490 -0.0072
vn 0.9163 -0.2455 0.3164
vn -0.6708 0.6708 0.3164
vn 0.2455 0.9163 0.3164
vn 0.6707 -0.6708 0.3164
vn -0.2456 -0.9163 0.3164
vn 0.9163 0.2455 0.3164
vn 0.6708 0.6708 0.3164
vn -0.6707 -0.6708 0.3164
vn 0.2455 -0.9163 0.3164
vn -0.2456 0.9163 0.3164
vn -0.9163 -0.2455 0.3164
vn -0.9163 0.2455 0.3164
vn -0.0000 0.9783 0.2074
vn 0.9941 -0.0245 0.1059
vn -0.0000 -0.9769 -0.2136
vn -1.0000 -0.0000 -0.0000
vn -0.0000 0.0988 -0.9951
vn -0.0000 0.0365 0.9993
vn -0.0000 -0.5879 0.8089
vn -0.0000 -0.9510 -0.3090
vn 0.8991 -0.0000 -0.4377
vn -0.0000 0.9510 -0.3090
vn -0.0000 0.5878 0.8090
vn 0.8991 0.4163 -0.1353
vn 0.8991 -0.4163 -0.1353
vn 0.8991 0.2573 0.3541
vn 0.8991 -0.2573 0.3541
vt 0.941926 0.907888
vt 0.949535 0.912754
vt 0.940892 0.920882
vt 0.938491 0.919316
vt 0.940337 0.941600
vt 0.931327 0.941171
vt 0.935116 0.929887
vt 0.937971 0.929982
vt 0.893036 0.912914
vt 0.904648 0.892648
vt 0.924871 0.911614
vt 0.920084 0.919309
vt 0.080826 0.378249
vt 0.084806 0.378249
vt 0.084806 0.542811
vt 0.080826 0.542811
vt 0.924882 0.880889
vt 0.932893 0.907479
vt 0.893037 0.936270
vt 0.919578 0.928318
vt 0.953185 0.929821
vt 0.948343 0.937454
vt 0.940480 0.928635
vt 0.942030 0.926250
vt 0.980274 0.912831
vt 0.980227 0.936236
vt 0.953667 0.920775
vt 0.968536 0.956472
vt 0.948301 0.968160
vt 0.968581 0.892545
vt 0.948295 0.880851
vt 0.923733 0.936295
vt 0.932688 0.928362
vt 0.935612 0.919154
vt 0.814388 0.696897
vt 0.814388 0.683222
vt 0.822407 0.683222
vt 0.822407 0.696897
vt 0.666664 0.892384
vt 0.647473 0.892755
vt 0.647298 0.878910
vt 0.666645 0.878914
vt 0.629819 0.892979
vt 0.629673 0.878953
vt 0.612164 0.892800
vt 0.612071 0.879065
vt 0.904720 0.956476
vt 0.667014 0.905750
vt 0.647827 0.906727
vt 0.629898 0.907142
vt 0.611931 0.906762
vt 0.931497 0.922917
vt 0.931352 0.925801
vt 0.667907 0.918993
vt 0.648660 0.920956
vt 0.630077 0.921786
vt 0.611358 0.921190
vt 0.924940 0.968154
vt 0.669712 0.932021
vt 0.650183 0.935759
vt 0.630349 0.937309
vt 0.610061 0.936654
vt 0.790857 0.809397
vt 0.779902 0.848577
vt 0.765365 0.850133
vt 0.763256 0.811935
vt 0.798805 0.884288
vt 0.768985 0.887480
vt 0.801682 0.920513
vt 0.773713 0.924538
vt 0.942182 0.923423
vt 0.787604 0.241780
vt 0.766405 0.204338
vt 0.814809 0.180667
vt 0.836321 0.194283
vt 1.281082 0.657356
vt 1.249149 0.657356
vt 1.249149 0.565993
vt 1.281082 0.565993
vt 0.829134 0.891714
vt 0.829114 0.919364
vt 0.766405 0.145645
vt 0.772416 0.087387
vt 0.869919 0.111988
vt 0.825828 0.147146
vt 0.824497 0.263918
vt 0.849386 0.216133
vt 0.859481 0.884342
vt 0.856526 0.920539
vt 0.933021 0.920454
vt 0.894166 0.813069
vt 0.892234 0.850635
vt 0.877934 0.849160
vt 0.867017 0.810676
vt 0.888813 0.887370
vt 0.884659 0.924028
vt 0.668218 0.837668
vt 0.647781 0.836153
vt 0.648573 0.820587
vt 0.669712 0.823630
vt 0.628838 0.836038
vt 0.628153 0.820441
vt 0.610332 0.837259
vt 0.608269 0.822599
vt 0.667363 0.851570
vt 0.647442 0.850796
vt 0.629282 0.850727
vt 0.611422 0.851345
vt 0.666876 0.865316
vt 0.647303 0.864973
vt 0.629567 0.864938
vt 0.612034 0.865279
vt 0.771216 0.451071
vt 0.781279 0.467533
vt 0.757466 0.490870
vt 0.741041 0.458682
vt 0.772169 0.431488
vt 0.741454 0.423764
vt 0.782399 0.414947
vt 0.759198 0.393053
vt 0.799381 0.405806
vt 0.790120 0.375135
vt 0.818636 0.406406
vt 0.825986 0.375135
vt 0.835018 0.416578
vt 0.857062 0.393149
vt 0.844132 0.433596
vt 0.874953 0.424305
vt 0.843543 0.452894
vt 0.874906 0.460219
vt 0.833452 0.469277
vt 0.856979 0.491345
vt 0.816427 0.478348
vt 0.825772 0.509446
vt 0.797172 0.477801
vt 0.789422 0.509572
vt 0.798599 0.444106
vt 0.800884 0.448346
vt 0.600117 0.879203
vt 0.599556 0.865650
vt 0.805015 0.450857
vt 0.599953 0.892614
vt 0.809891 0.450983
vt 0.599182 0.852036
vt 0.814182 0.448649
vt 0.598206 0.838692
vt 0.816655 0.444472
vt 0.596037 0.825678
vt 0.816687 0.439643
vt 0.879299 0.947660
vt 0.854335 0.943813
vt 0.814304 0.435457
vt 0.829108 0.942927
vt 0.810162 0.433021
vt 0.803878 0.943805
vt 0.805372 0.432972
vt 0.779298 0.947660
vt 0.801213 0.435306
vt 0.596699 0.934070
vt 0.598518 0.920048
vt 0.798784 0.439393
vt 0.599463 0.906225
vt 0.554347 0.879758
vt 0.558610 0.872374
vt 0.574780 0.876707
vt 0.566185 0.891595
vt 0.096746 0.378249
vt 0.100726 0.378249
vt 0.100726 0.542811
vt 0.096746 0.542811
vt 0.104706 0.378249
vt 0.108687 0.378249
vt 0.108687 0.542811
vt 0.104706 0.542811
vt 0.112667 0.378249
vt 0.112667 0.542811
vt 0.072866 0.378249
vt 0.076846 0.378249
vt 0.076846 0.542811
vt 0.072866 0.542811
vt 0.092766 0.378249
vt 0.092766 0.542811
vt 0.088786 0.378249
vt 0.088786 0.542811
vt 0.064906 0.378249
vt 0.068886 0.378249
vt 0.068886 0.542811
vt 0.064906 0.542811
vt 0.887689 0.664520
vt 0.901025 0.656821
vt 0.916424 0.656821
vt 0.929759 0.664520
vt 0.937459 0.677855
vt 0.937459 0.693254
vt 0.929759 0.706590
vt 0.916424 0.714289
vt 0.901025 0.714289
vt 0.887689 0.706590
vt 0.879990 0.693254
vt 0.879990 0.677855
vt 0.814388 0.669547
vt 0.822407 0.669547
vt 0.810741 0.692731
vt 0.810744 0.676752
vt 0.820115 0.676754
vt 0.820112 0.692733
vt 0.544582 0.677938
vt 0.544582 0.648752
vt 0.615779 0.659832
vt 0.615779 0.666857
vt 0.544582 0.619565
vt 0.615779 0.630646
vt 0.615779 0.637671
vt 0.812263 0.690059
vt 0.812261 0.674106
vt 0.821616 0.674105
vt 0.821619 0.690058
vt 0.831775 0.720390
vt 0.831821 0.724245
vt 0.813562 0.691363
vt 0.814196 0.673373
vt 0.823829 0.673656
vt 0.823348 0.690082
vt 0.562019 0.764083
vt 0.527122 0.764083
vt 0.527122 0.607011
vt 0.562019 0.607011
vt 0.638461 0.719331
vt 0.629009 0.641694
vt 0.862532 0.682733
vt 0.811867 0.692936
vt 0.811627 0.675517
vt 0.821069 0.676959
vt 0.821193 0.692863
vt 0.660703 0.760253
vt 0.660006 0.625320
vt 0.684433 0.690892
vt 0.682167 0.692541
vt 0.826146 0.682686
vt 0.839850 0.740256
vt 0.593066 0.739848
vt 0.593066 0.682686
vt 0.596917 0.764083
vt 0.596917 0.607011
vt 0.839850 0.625117
vt 0.593065 0.625525
vt 0.896543 0.135573
vt 0.863269 0.168011
vt 0.919440 0.162789
vt 0.883174 0.205968
vt 0.883166 0.265405
vt 0.941549 0.260875
vt 1.217215 0.657356
vt 1.217215 0.565993
vt 0.831761 0.643769
vt 0.831806 0.639915
vt 0.928486 0.634840
vt 0.928659 0.637713
vt 0.725516 0.760265
vt 0.723078 0.625518
vt 0.747806 0.691121
vt 0.746225 0.693607
vt 0.835360 0.638760
vt 0.835196 0.642728
vt 0.544586 0.736311
vt 0.544586 0.707124
vt 0.615783 0.718205
vt 0.615783 0.725230
vt 0.830318 0.726978
vt 0.830273 0.723117
vt 0.927327 0.729183
vt 0.927153 0.732061
vt 0.831549 0.723023
vt 0.831624 0.726865
vt 0.830333 0.642513
vt 0.830287 0.646373
vt 0.544586 0.677938
vt 0.615783 0.689019
vt 0.615783 0.696043
vt 0.831147 0.726204
vt 0.831108 0.722899
vt 0.914175 0.728048
vt 0.914027 0.730511
vt 0.831148 0.640241
vt 0.831109 0.643545
vt 0.789482 0.760265
vt 0.787044 0.625519
vt 0.811773 0.691122
vt 0.810191 0.693607
vt 0.928175 0.728654
vt 0.928025 0.731520
vt 0.598382 0.760365
vt 0.596146 0.625475
vt 0.620769 0.691003
vt 0.619187 0.693545
vt 0.709893 0.722682
vt 0.709893 0.727942
vt 0.709893 0.692166
vt 0.709893 0.697425
vt 0.665343 0.676633
vt 0.666257 0.678941
vt 0.929753 0.677590
vt 0.929934 0.676633
vt 0.709893 0.633972
vt 0.709893 0.639231
vt 0.664208 0.674316
vt 0.665123 0.676633
vt 0.929653 0.675253
vt 0.929944 0.674316
vt 0.709893 0.664132
vt 0.709893 0.669391
vt 0.928659 0.726735
vt 0.928487 0.729609
vt 0.689971 0.681259
vt 0.689149 0.683360
vt 0.930512 0.683360
vt 0.929985 0.681877
vt 0.927154 0.637140
vt 0.927327 0.640018
vt 0.666386 0.678941
vt 0.665466 0.681259
vt 0.929780 0.681259
vt 0.929974 0.680309
vt 0.935051 0.636090
vt 0.935143 0.639054
vt 0.914027 0.635933
vt 0.914175 0.638396
vt 0.072523 0.250259
vt 0.072523 0.154061
vt 0.102444 0.161532
vt 0.096430 0.229818
vt 0.178454 0.070312
vt 0.236679 0.084745
vt 0.211516 0.117572
vt 0.173492 0.111669
vt 0.254896 0.185504
vt 0.222346 0.180002
vt 0.212212 0.277767
vt 0.197570 0.249198
vt 0.135134 0.300549
vt 0.143219 0.259476
vt 0.120779 0.075309
vt 0.135903 0.106656
vt 0.493672 0.432827
vt 0.513812 0.397943
vt 0.568835 0.452967
vt 0.538438 0.884021
vt 0.546964 0.884021
vt 0.551297 0.900191
vt 0.534105 0.900191
vt 0.558610 0.863849
vt 0.554347 0.856466
vt 0.566185 0.844628
vt 0.574780 0.859516
vt 0.546964 0.852203
vt 0.551297 0.836032
vt 0.531055 0.879758
vt 0.519217 0.891595
vt 0.538438 0.852203
vt 0.531055 0.856466
vt 0.519217 0.844628
vt 0.534105 0.836032
vt 0.526792 0.872374
vt 0.510622 0.876707
vt 0.526792 0.863849
vt 0.510622 0.859516
vt 0.643999 0.432827
vt 0.643999 0.473107
vt 0.588975 0.377803
vt 0.623859 0.397943
vt 0.493672 0.473107
vt 0.548696 0.528130
vt 0.513812 0.507990
vt 0.548696 0.377803
vt 0.588975 0.528130
vt 0.623859 0.507990
vt 0.940215 0.239459
vt 0.936543 0.161210
vt 0.948385 0.153548
vt 0.965192 0.260401
vt 0.800408 0.096688
vt 0.875225 0.105335
vt 0.902485 0.312724
vt 0.800408 0.300323
vt 0.737163 0.262165
vt 0.727781 0.124403
vt 0.740307 0.135776
vt 0.751830 0.243674
vt 0.425867 0.705461
vt 0.446965 0.917030
vt 0.018718 0.851253
vt 0.004449 0.698341
vt 0.970614 0.627868
vt 0.946595 0.645606
vt 0.946595 0.610322
vt 0.970860 0.627674
vt 0.980111 0.599438
vt 0.971112 0.627860
vt 1.000836 0.627939
vt 0.971017 0.628172
vt 0.980131 0.656484
vt 0.970700 0.628184
vt 1.005023 0.743734
vt 0.968549 0.770234
vt 0.932075 0.743734
vt 0.946007 0.700856
vt 0.991091 0.700856
s 1
g rocketMesh_rocketMat
usemtl rocketMat
f 49/1/1 52/2/1 103/3/1 102/4/1
f 64/5/2 28/6/2 96/7/2 107/8/2
f 18/9/3 16/10/3 41/11/3 37/12/3
f 105/13/4 106/14/4 112/15/4 113/16/4
f 16/10/5 14/17/5 45/18/5 41/11/5
f 20/19/6 18/9/6 37/12/6 33/20/6
f 60/21/7 68/22/7 106/23/7 105/24/7
f 8/25/8 6/26/8 60/21/8 56/27/8
f 4/28/9 2/29/9 64/5/9 68/22/9
f 10/30/10 8/25/10 56/27/10 52/2/10
f 14/17/11 12/31/11 49/1/11 45/18/11
f 28/6/12 29/32/12 97/33/12 96/7/12
f 45/18/13 49/1/13 102/4/13 101/34/13
f 23/35/14 1/36/14 120/37/14 131/38/14
f 23/39/15 71/40/16 25/41/16 1/42/15
f 71/40/16 70/43/14 26/44/14 25/41/16
f 70/43/14 69/45/17 27/46/17 26/44/14
f 22/47/18 20/19/18 33/20/18 29/32/18
f 21/48/19 67/49/20 71/40/20 23/39/19
f 67/49/20 66/50/21 70/43/21 71/40/20
f 66/50/21 65/51/22 69/45/22 70/43/21
f 33/20/23 37/12/23 99/52/23 98/53/23
f 19/54/24 63/55/25 67/49/25 21/48/24
f 63/55/25 62/56/18 66/50/18 67/49/25
f 62/56/18 61/57/26 65/51/26 66/50/18
f 24/58/21 22/47/21 29/32/21 28/6/21
f 17/59/27 59/60/28 63/55/28 19/54/27
f 59/60/28 58/61/6 62/56/6 63/55/28
f 58/61/6 57/62/29 61/57/29 62/56/6
f 12/31/30 10/30/30 52/2/30 49/1/30
f 15/63/31 55/64/32 59/65/33 17/66/34
f 55/64/32 54/67/35 58/68/3 59/65/33
f 54/67/35 53/69/36 57/70/36 58/68/3
f 56/27/37 60/21/37 105/24/37 104/71/37
f 180/72/38 182/73/39 143/74/40 142/75/41
f 178/76/42 181/77/42 137/78/42 139/79/42
f 51/80/43 50/81/44 53/69/44 54/67/35
f 29/32/45 33/20/45 98/53/45 97/33/45
f 177/82/46 178/83/47 139/84/48 140/85/49
f 179/86/50 180/72/38 142/75/41 141/87/51
f 47/88/52 46/89/53 50/81/53 51/80/43
f 41/11/54 45/18/54 101/34/54 100/90/54
f 9/91/55 44/92/56 48/93/57 11/94/58
f 44/92/56 43/95/30 47/88/52 48/93/57
f 43/95/30 42/96/59 46/89/59 47/88/52
f 2/29/14 24/58/14 28/6/14 64/5/14
f 7/97/60 40/98/61 44/99/61 9/100/60
f 40/98/61 39/101/62 43/102/62 44/99/61
f 39/101/62 38/103/63 42/104/63 43/102/62
f 68/22/64 64/5/64 107/8/64 106/23/64
f 5/105/65 36/106/66 40/98/66 7/97/65
f 36/106/66 35/107/67 39/101/67 40/98/66
f 35/107/67 34/108/68 38/103/68 39/101/67
f 52/2/69 56/27/69 104/71/69 103/3/69
f 3/109/70 32/110/71 36/106/71 5/105/70
f 32/110/71 31/111/72 35/107/72 36/106/71
f 31/111/72 30/112/73 34/108/73 35/107/72
f 37/12/74 41/11/74 100/90/74 99/52/74
f 1/42/75 25/41/76 32/110/76 3/109/75
f 25/41/76 26/44/9 31/111/9 32/110/76
f 26/44/9 27/46/77 30/112/77 31/111/9
f 6/26/72 4/28/72 68/22/72 60/21/72
f 95/113/78 72/114/79 73/115/79 94/116/78
f 93/117/80 95/113/78 94/116/78 92/118/80
f 91/119/81 93/117/80 92/118/80 90/120/81
f 89/121/82 91/119/81 90/120/81 88/122/82
f 87/123/83 89/121/82 88/122/82 86/124/84
f 85/125/85 87/123/83 86/124/84 84/126/85
f 83/127/86 85/125/85 84/126/85 82/128/86
f 81/129/87 83/127/86 82/128/86 80/130/87
f 79/131/88 81/129/87 80/130/87 78/132/88
f 77/133/89 79/131/88 78/132/88 76/134/89
f 75/135/90 77/133/89 76/134/89 74/136/90
f 72/114/79 75/135/90 74/136/90 73/115/79
f 95/113/91 24/137/91 2/138/92 72/114/92
f 27/46/77 73/139/93 74/140/93 30/112/77
f 72/114/92 2/138/92 4/141/94 75/135/94
f 69/45/17 94/142/95 73/139/95 27/46/17
f 75/135/94 4/141/94 6/143/96 77/133/96
f 30/112/73 74/140/97 76/144/97 34/108/73
f 77/133/96 6/143/96 8/145/98 79/131/98
f 34/108/68 76/144/99 78/146/99 38/103/68
f 79/131/98 8/145/98 10/147/100 81/129/100
f 38/103/63 78/146/101 80/148/101 42/104/63
f 81/129/100 10/147/100 12/149/102 83/127/102
f 42/96/59 80/150/103 82/151/103 46/89/59
f 83/127/102 12/149/102 14/152/104 85/125/104
f 46/89/53 82/151/105 84/153/105 50/81/53
f 85/125/104 14/152/104 16/154/106 87/123/106
f 50/81/44 84/153/107 86/155/107 53/69/44
f 87/123/106 16/154/106 18/156/108 89/121/108
f 53/69/36 86/155/109 88/157/109 57/70/36
f 89/121/108 18/156/108 20/158/110 91/119/110
f 57/62/29 88/159/111 90/160/111 61/57/29
f 91/119/110 20/158/110 22/161/112 93/117/112
f 61/57/26 90/160/113 92/162/113 65/51/26
f 93/117/112 22/161/112 24/137/91 95/113/91
f 65/51/22 92/162/114 94/142/114 69/45/22
f 113/163/115 112/164/115 189/165/115 190/166/115
f 97/167/18 98/168/18 110/169/18 118/170/18
f 99/171/116 100/172/116 116/173/116 111/174/116
f 100/172/117 101/175/117 117/176/117 116/173/117
f 103/177/62 104/178/62 119/179/62 115/180/62
f 96/181/21 97/167/21 118/170/21 109/182/21
f 98/168/6 99/171/6 111/174/6 110/169/6
f 104/178/67 105/13/67 113/16/67 119/179/67
f 107/183/14 96/181/14 109/182/14 108/184/14
f 101/185/118 102/186/118 114/187/118 117/188/118
f 106/14/9 107/183/9 108/184/9 112/15/9
f 102/186/30 103/177/30 115/180/30 114/187/30
f 120/189/115 121/190/115 122/191/115 123/192/115 124/193/115 125/194/115 126/195/115 127/196/115 128/197/115 129/198/115 130/199/115 131/200/115
f 1/36/9 3/201/9 121/202/9 120/37/9
f 5/203/67 7/204/67 123/205/67 122/206/67
f 21/207/119 23/208/119 158/209/119 157/210/119
f 3/208/120 5/211/120 154/212/120 153/213/120
f 19/214/18 21/215/18 130/216/18 129/217/18
f 19/214/121 129/217/121 148/218/121 146/219/121
f 15/220/122 17/221/122 128/222/122 127/223/122
f 13/224/123 15/225/123 134/226/123 133/227/123
f 125/228/124 11/229/124 132/230/124
f 9/231/125 11/232/125 125/233/125 124/234/125
f 124/235/126 123/236/126 151/237/127 152/238/128
f 15/229/129 127/228/129 134/230/129
f 126/239/130 125/240/130 132/241/130 133/242/130
f 11/243/123 13/224/123 133/227/123 132/244/123
f 127/245/131 126/239/131 133/242/131 134/246/131
f 137/247/132 138/248/133 140/85/49 139/84/48
f 138/248/133 142/75/41 143/74/40 140/85/49
f 136/249/134 135/250/135 138/248/133 137/247/132
f 135/250/135 141/87/51 142/75/41 138/248/133
f 183/251/136 179/86/50 141/87/51 135/250/135
f 184/252/137 183/251/136 135/250/135 136/249/134
f 181/77/42 184/253/42 136/254/42 137/78/42
f 182/73/39 177/82/46 140/85/49 143/74/40
f 159/255/138 157/256/138 173/257/138 175/258/138
f 129/259/139 128/260/139 147/261/140 148/262/141
f 128/222/142 17/221/142 145/263/142 147/264/142
f 17/265/143 19/266/143 146/267/143 145/268/143
f 154/269/144 156/270/144 172/271/144 170/272/144
f 9/231/145 124/234/145 152/273/145 150/274/145
f 123/205/146 7/204/146 149/275/146 151/276/146
f 7/266/147 9/277/147 150/278/147 149/279/147
f 158/280/148 160/281/148 176/282/148 174/283/148
f 5/203/149 122/206/149 156/270/149 154/269/149
f 121/202/150 3/201/150 153/284/150 155/285/150
f 122/286/151 121/287/151 155/288/152 156/289/153
f 150/274/154 152/273/154 168/290/154 166/291/154
f 131/292/155 130/293/155 159/294/156 160/295/157
f 130/216/158 21/215/158 157/256/158 159/255/158
f 23/35/159 131/38/159 160/281/159 158/280/159
f 145/268/160 146/267/160 162/296/160 161/297/160
f 149/279/161 150/278/161 166/298/161 165/299/161
f 148/300/141 147/301/140 163/302/162 164/303/162
f 153/213/163 154/212/163 170/304/163 169/305/163
f 152/306/128 151/307/127 167/308/164 168/309/164
f 157/210/165 158/209/165 174/310/165 173/311/165
f 146/219/166 148/218/166 164/312/166 162/313/166
f 156/314/153 155/315/152 171/316/167 172/317/167
f 151/276/168 149/275/168 165/318/168 167/319/168
f 160/320/157 159/321/156 175/322/169 176/323/169
f 147/264/170 145/263/170 161/324/170 163/325/170
f 155/285/171 153/284/171 169/326/171 171/327/171
f 54/328/35 55/329/32 177/330/46 182/331/39
f 13/332/42 11/333/42 184/334/42 181/335/42
f 11/333/58 48/336/57 183/337/136 184/334/137
f 48/336/57 47/338/52 179/339/50 183/337/136
f 47/338/52 51/340/43 180/341/38 179/339/50
f 55/329/32 15/342/31 178/343/47 177/330/46
f 15/342/42 13/332/42 181/335/42 178/343/42
f 51/340/43 54/328/35 182/331/39 180/341/38
f 189/344/172 185/345/172 197/346/172
f 115/347/115 119/348/115 196/349/115 192/350/115
f 108/351/115 109/352/115 186/353/115 185/354/115
f 109/352/115 118/355/115 195/356/115 186/353/115
f 114/357/115 115/347/115 192/350/115 191/358/115
f 119/348/115 113/163/115 190/166/115 196/349/115
f 110/359/115 111/360/115 188/361/115 187/362/115
f 117/363/115 114/357/115 191/358/115 194/364/115
f 116/365/115 117/363/115 194/364/115 193/366/115
f 112/164/115 108/351/115 185/354/115 189/165/115
f 111/360/115 116/365/115 193/366/115 188/361/115
f 118/355/115 110/359/115 187/362/115 195/356/115
f 188/367/173 193/368/173 197/346/173
f 195/369/174 187/370/174 197/346/174
f 190/371/175 189/344/175 197/346/175
f 192/372/176 196/373/176 197/346/176
f 185/345/177 186/374/177 197/346/177
f 186/374/178 195/369/178 197/346/178
f 191/375/179 192/372/179 197/346/179
f 196/373/180 190/371/180 197/346/180
f 187/370/181 188/367/181 197/346/181
f 194/376/182 191/375/182 197/346/182
f 193/368/183 194/376/183 197/346/183
f 198/377/184 199/378/184 201/379/184 200/380/184
f 200/381/185 201/382/185 205/383/185 204/384/185
f 204/385/186 205/386/186 203/387/186 202/388/186
f 202/389/187 203/390/187 199/391/187 198/392/187
f 200/380/188 204/385/188 202/388/188 198/377/188
f 205/386/189 201/379/189 199/378/189 203/387/189
f 206/393/190 207/394/190 209/395/190 208/396/190
f 208/396/191 209/395/191 211/397/191 210/398/191
f 210/398/115 211/397/115 213/399/115 212/400/115
f 213/399/192 211/397/192 218/397/192 219/399/192
f 212/400/193 213/399/193 215/401/193 214/402/193
f 214/402/194 215/401/194 207/394/194 206/393/194
f 216/403/187 217/404/187 220/405/187 219/406/187 218/407/187
f 215/401/195 213/399/195 219/399/195 220/401/195
f 211/397/196 209/395/196 216/395/196 218/397/196
f 207/394/197 215/401/197 220/401/197 217/394/197
f 209/395/198 207/394/198 217/394/198 216/395/198
l 142 144
