# Blender 5.0.1
# www.blender.org
mtllib model.mtl
o gobMesh
v 1.000000 -0.000000 -0.000000
v 0.707107 -0.000000 0.707107
v 0.382683 0.000000 0.923879
v 0.000000 0.000000 1.000000
v -0.382683 0.000000 0.923879
v -0.707107 0.000000 0.707107
v -1.000000 0.000000 0.000000
v 0.923879 0.270598 0.270598
v 0.707107 0.500000 0.500000
v 0.382683 0.653281 0.653281
v 0.000000 0.707107 0.707107
v -0.382683 0.653281 0.653281
v -0.707107 0.500000 0.500000
v -0.923879 0.270598 0.270598
v 0.923879 0.382683 -0.000000
v 0.707107 0.707107 -0.000000
v 0.382683 0.923879 -0.000000
v 0.000000 1.000000 0.000000
v -0.382683 0.923879 0.000000
v -0.707107 0.707107 0.000000
v -0.923879 0.382683 0.000000
v 0.923879 0.270598 -0.270598
v 0.707107 0.500000 -0.500000
v 0.382683 0.653281 -0.653281
v 0.000000 0.707107 -0.707107
v -0.382683 0.653281 -0.653281
v -0.707107 0.500000 -0.500000
v -0.923879 0.270598 -0.270598
v 0.923879 -0.000000 -0.382683
v 0.707107 -0.000000 -0.707107
v 0.382683 0.000000 -0.923879
v -0.000000 0.000000 -1.000000
v -0.382683 0.000000 -0.923879
v -0.707107 0.000000 -0.707107
v -0.923879 0.000000 -0.382683
v 0.923879 -0.270598 -0.270598
v 0.707107 -0.500000 -0.500000
v 0.382683 -0.653281 -0.653281
v 0.000000 -0.707107 -0.707107
v -0.382683 -0.653281 -0.653281
v -0.707107 -0.500000 -0.500000
v -0.923879 -0.270598 -0.270598
v 0.923879 -0.382683 -0.000000
v 0.707107 -0.707107 -0.000000
v 0.382683 -0.923879 -0.000000
v 0.000000 -1.000000 0.000000
v -0.382683 -0.923879 0.000000
v -0.707107 -0.707107 0.000000
v -0.923879 -0.382683 0.000000
v 0.923879 -0.270598 0.270598
v 0.707107 -0.500000 0.500000
v 0.382683 -0.653281 0.653281
v 0.000000 -0.707107 0.707107
v -0.382683 -0.653281 0.653281
v -0.707107 -0.500000 0.500000
v -0.923879 -0.270598 0.270598
v 0.923879 -0.000000 0.382683
v -0.923879 0.000000 0.382683
v 0.462272 0.249789 0.681633
v 0.462272 0.370239 0.985932
v 0.327152 0.249789 0.681633
v 0.327152 0.370239 0.985932
v 0.462272 0.554088 0.561184
v 0.462272 0.674538 0.865483
v 0.327152 0.554088 0.561184
v 0.327152 0.674538 0.865483
v 0.325831 0.400761 0.618433
v 0.325831 0.534996 0.945828
v 0.463594 0.400761 0.618433
v 0.463594 0.534996 0.945828
v 0.326168 0.323879 0.649744
v 0.463256 0.457512 0.975619
v 0.326168 0.457512 0.975619
v 0.463256 0.323879 0.649744
v 0.326168 0.611877 0.914517
v 0.463256 0.478244 0.588643
v 0.326168 0.478244 0.588643
v 0.463256 0.611877 0.914517
v 0.484007 0.234534 0.786125
v 0.484007 0.287600 0.920189
v 0.305417 0.287600 0.920189
v 0.305418 0.234534 0.786125
v 0.305417 0.689793 0.760991
v 0.305417 0.636727 0.626927
v 0.484007 0.689793 0.760991
v 0.484007 0.636727 0.626927
v 0.487126 0.489624 0.842932
v 0.487126 0.434703 0.704184
v 0.302298 0.489624 0.842932
v 0.302298 0.434703 0.704184
v 0.303108 0.386234 0.883153
v 0.303108 0.331796 0.745621
v 0.486316 0.386234 0.883153
v 0.486316 0.331796 0.745621
v 0.486316 0.592531 0.801495
v 0.486316 0.538093 0.663964
v 0.303108 0.592531 0.801495
v 0.303108 0.538093 0.663964
v 0.462272 -0.478274 0.546144
v 0.462272 -0.687501 0.797798
v 0.327152 -0.478274 0.546144
v 0.327152 -0.687501 0.797798
v 0.462272 -0.226619 0.755371
v 0.462272 -0.435846 1.007025
v 0.327152 -0.226619 0.755371
v 0.327152 -0.435846 1.007025
v 0.325831 -0.350400 0.648296
v 0.325831 -0.584293 0.925446
v 0.463594 -0.350400 0.648296
v 0.463594 -0.584293 0.925446
v 0.326168 -0.414753 0.595857
v 0.463256 -0.647600 0.871749
v 0.326168 -0.647600 0.871749
v 0.463256 -0.414753 0.595857
v 0.326168 -0.519941 0.977886
v 0.463256 -0.287093 0.701994
v 0.326168 -0.287094 0.701994
v 0.463256 -0.519941 0.977886
v 0.484007 -0.577277 0.582881
v 0.484007 -0.669456 0.693752
v 0.305417 -0.669456 0.693752
v 0.305418 -0.577277 0.582881
v 0.305417 -0.336843 0.970288
v 0.305417 -0.244664 0.859417
v 0.484007 -0.336843 0.970288
v 0.484007 -0.244664 0.859417
v 0.487126 -0.504760 0.833957
v 0.487126 -0.409360 0.719212
v 0.302298 -0.504760 0.833957
v 0.302298 -0.409360 0.719212
v 0.303108 -0.589645 0.762532
v 0.303108 -0.495082 0.648794
v 0.486316 -0.589645 0.762532
v 0.486316 -0.495082 0.648794
v 0.486316 -0.419038 0.904375
v 0.486316 -0.324475 0.790637
v 0.303108 -0.419038 0.904375
v 0.303108 -0.324475 0.790637
vn -0.3502 -0.0000 0.9367
vn -0.0000 -0.0000 1.0000
vn -0.0000 0.5829 0.8126
vn -0.3930 0.5383 0.7455
vn 0.3502 -0.0000 0.9367
vn 0.6568 -0.0000 0.7541
vn 0.7241 0.4132 0.5522
vn 0.3930 0.5383 0.7455
vn 0.8814 -0.0000 0.4724
vn 1.0000 -0.0000 -0.0000
vn 0.9342 0.2380 0.2658
vn -1.0000 -0.0000 -0.0000
vn -0.8814 -0.0000 0.4724
vn -0.9342 0.2380 0.2658
vn -0.6568 -0.0000 0.7541
vn -0.7241 0.4132 0.5522
vn -0.9412 0.3379 -0.0000
vn -0.3947 0.9188 -0.0000
vn -0.7276 0.6860 -0.0000
vn 0.3947 0.9188 -0.0000
vn -0.0000 1.0000 -0.0000
vn 0.9412 0.3379 -0.0000
vn 0.7276 0.6860 -0.0000
vn 0.9342 0.2380 -0.2658
vn 0.7241 0.4132 -0.5522
vn -0.7241 0.4132 -0.5522
vn -0.9342 0.2380 -0.2658
vn -0.0000 0.5829 -0.8126
vn -0.3930 0.5383 -0.7455
vn 0.3930 0.5383 -0.7455
vn -0.6568 -0.0000 -0.7541
vn -0.8814 -0.0000 -0.4724
vn -0.0000 -0.0000 -1.0000
vn -0.3502 -0.0000 -0.9367
vn 0.6568 -0.0000 -0.7541
vn 0.3502 -0.0000 -0.9367
vn 0.8814 -0.0000 -0.4724
vn 0.9342 -0.2380 -0.2658
vn -0.9342 -0.2380 -0.2658
vn -0.3930 -0.5383 -0.7455
vn -0.7241 -0.4132 -0.5522
vn 0.3930 -0.5383 -0.7455
vn -0.0000 -0.5829 -0.8126
vn 0.7241 -0.4132 -0.5522
vn -0.3947 -0.9188 -0.0000
vn -0.7276 -0.6860 -0.0000
vn 0.3947 -0.9188 -0.0000
vn -0.0000 -1.0000 -0.0000
vn 0.9412 -0.3379 -0.0000
vn 0.7276 -0.6860 -0.0000
vn -0.9412 -0.3379 -0.0000
vn -0.7241 -0.4132 0.5522
vn -0.9342 -0.2380 0.2658
vn -0.0000 -0.5829 0.8126
vn -0.3930 -0.5383 0.7455
vn 0.7241 -0.4132 0.5522
vn 0.3930 -0.5383 0.7455
vn 0.9342 -0.2380 0.2658
vn 0.9075 -0.2257 0.3542
vn 0.5056 -0.0903 0.8580
vn -0.5056 -0.0903 0.8580
vn -0.9075 -0.2257 0.3542
vn -0.9937 0.0631 0.0926
vn -0.7775 0.2928 0.5565
vn -0.8266 0.4208 0.3737
vn -0.9529 0.3033 -0.0091
vn 0.8266 0.4208 0.3737
vn 0.9529 0.3033 -0.0091
vn 0.9942 0.0219 0.1055
vn 0.6442 0.1681 0.7462
vn -0.7293 -0.2296 -0.6445
vn -0.4625 0.0349 -0.8859
vn 0.4625 0.0349 -0.8859
vn 0.7293 -0.2296 -0.6445
vn -0.6442 0.1681 0.7462
vn -0.7567 0.2378 0.6090
vn 0.7567 0.2378 0.6090
vn 0.7775 0.2928 0.5565
vn -0.7383 -0.2646 -0.6205
vn -0.7343 -0.2470 -0.6323
vn 0.7343 -0.2470 -0.6323
vn 0.7383 -0.2646 -0.6205
vn 0.9937 0.0631 0.0926
vn 0.9949 0.0370 0.0940
vn -0.9942 0.0219 0.1055
vn -0.9949 0.0370 0.0940
vn -0.7791 -0.3840 -0.4955
vn 0.7791 -0.3840 -0.4955
vn -0.9926 -0.0446 -0.1129
vn -0.9924 -0.0308 -0.1195
vn 0.9089 0.2112 -0.3596
vn 0.9924 -0.0308 -0.1195
vn 0.9926 -0.0446 -0.1129
vn 0.9926 -0.0583 -0.1065
vn -0.9540 -0.2997 0.0041
vn -0.9926 -0.0583 -0.1065
vn 0.9540 -0.2997 0.0041
vn -0.9089 0.2112 -0.3596
vn 0.9456 -0.2973 -0.1319
vn 0.8448 -0.5062 0.1736
vn -0.8448 -0.5062 0.1736
vn -0.9456 -0.2973 -0.1319
vn -0.9951 -0.0469 0.0866
vn -0.7536 -0.3015 0.5841
vn -0.4439 -0.0095 0.8960
vn -0.8506 0.1665 0.4987
vn 0.4439 -0.0095 0.8960
vn 0.8506 0.1665 0.4987
vn 0.9944 -0.0869 0.0603
vn 0.8508 -0.3880 0.3543
vn -0.8050 0.3914 -0.4459
vn -0.8240 0.4851 -0.2926
vn 0.8240 0.4851 -0.2926
vn 0.8050 0.3914 -0.4459
vn -0.8508 -0.3880 0.3543
vn -0.8385 -0.3454 0.4214
vn 0.8385 -0.3454 0.4214
vn 0.7536 -0.3015 0.5841
vn -0.8033 0.3625 -0.4726
vn -0.8045 0.3767 -0.4592
vn 0.8045 0.3767 -0.4592
vn 0.8033 0.3625 -0.4726
vn 0.9951 -0.0469 0.0866
vn 0.9958 -0.0581 0.0705
vn -0.9944 -0.0869 0.0603
vn -0.9958 -0.0581 0.0705
vn -0.4248 0.0473 -0.9040
vn 0.4248 0.0473 -0.9040
vn -0.9933 0.0738 -0.0894
vn -0.9933 0.0848 -0.0789
vn 0.9468 0.2958 0.1268
vn 0.9933 0.0848 -0.0789
vn 0.9933 0.0738 -0.0894
vn 0.9930 0.0628 -0.1001
vn -0.8494 -0.1501 -0.5059
vn -0.9930 0.0628 -0.1001
vn 0.8494 -0.1501 -0.5059
vn -0.9468 0.2958 0.1268
vt 0.085198 0.486456
vt 0.110691 0.486456
vt 0.110691 0.511948
vt 0.085198 0.511948
vt 0.136183 0.486456
vt 0.161676 0.486456
vt 0.161676 0.511948
vt 0.136183 0.511948
vt 0.525610 0.518947
vt 0.525610 0.357475
vt 0.636173 0.471653
vt 0.126004 0.805389
vt 0.109334 0.865302
vt 0.101013 0.844132
vt 0.059706 0.486456
vt 0.059706 0.511948
vt 0.505732 0.907143
vt 0.505732 0.779978
vt 0.611798 0.736044
vt 0.701717 0.825963
vt 0.088974 0.938477
vt 0.061518 0.889993
vt 0.105822 0.799773
vt 0.085198 0.537441
vt 0.059706 0.537441
vt 0.136183 0.537441
vt 0.110691 0.537441
vt 0.729905 0.568448
vt 0.681970 0.357475
vt 0.814527 0.357475
vt 0.061518 0.787446
vt 0.792534 0.633125
vt 0.903099 0.357475
vt 0.636173 0.243297
vt 0.729905 0.146502
vt 0.114484 0.699636
vt 0.124616 0.759305
vt 0.110691 0.562933
vt 0.085198 0.562933
vt 0.792534 0.081826
vt 0.059706 0.562933
vt 0.136183 0.562933
vt 0.163035 0.672301
vt 0.142675 0.745475
vt 0.110691 0.588426
vt 0.085198 0.588426
vt 0.525610 0.059114
vt 0.525610 -0.032352
vt 0.525610 0.196003
vt 0.059706 0.588426
vt 0.136183 0.588426
vt 0.415046 0.243297
vt 0.150996 0.766645
vt 0.085198 0.613918
vt 0.059706 0.613918
vt 0.136183 0.613918
vt 0.110691 0.613918
vt 0.321314 0.146502
vt 0.190491 0.720784
vt 0.258685 0.081826
vt 0.085198 0.639411
vt 0.059706 0.639411
vt 0.136183 0.639411
vt 0.110691 0.639411
vt 0.369249 0.357475
vt 0.236692 0.357475
vt 0.190491 0.823331
vt 0.146187 0.811004
vt 0.148121 0.357475
vt 0.137525 0.911141
vt 0.127393 0.851472
vt 0.085198 0.435471
vt 0.110691 0.435471
vt 0.110691 0.460963
vt 0.085198 0.460963
vt 0.321314 0.568448
vt 0.258685 0.633125
vt 0.415046 0.471653
vt 0.059706 0.435471
vt 0.059706 0.460963
vt 0.136183 0.435471
vt 0.136183 0.460963
vt 0.161676 0.460963
vt 0.309746 0.825963
vt 0.399665 0.736044
vt 0.833648 0.768432
vt 0.802913 0.704483
vt 0.850989 0.686790
vt 0.869070 0.692993
vt 0.870466 0.671632
vt 0.850561 0.672457
vt 0.851285 0.667624
vt 0.871018 0.664230
vt 0.799944 0.657656
vt 0.826782 0.591145
vt 0.878797 0.909959
vt 0.896739 0.933234
vt 0.874770 0.935830
vt 0.853969 0.919282
vt 0.922640 0.677365
vt 0.922104 0.672800
vt 0.970210 0.655096
vt 0.973624 0.667461
vt 0.850454 0.682229
vt 0.799502 0.692127
vt 0.850284 0.677414
vt 0.798061 0.680565
vt 0.798240 0.668921
vt 0.922533 0.687148
vt 0.922810 0.682186
vt 0.975067 0.679031
vt 0.974888 0.690683
vt 0.930726 0.889404
vt 0.935596 0.917854
vt 0.916243 0.925735
vt 0.904822 0.899835
vt 0.869562 0.685705
vt 0.870011 0.678666
vt 0.921809 0.691985
vt 0.973183 0.701956
vt 0.955209 0.879208
vt 0.951369 0.905511
vt 0.903062 0.680930
vt 0.903518 0.673881
vt 0.921049 0.828913
vt 0.941851 0.845462
vt 0.917023 0.854784
vt 0.901958 0.835825
vt 0.882453 0.843323
vt 0.890997 0.864909
vt 0.865093 0.875339
vt 0.863101 0.851205
vt 0.902059 0.695384
vt 0.902612 0.687981
vt 0.840611 0.885535
vt 0.844451 0.859232
vt 0.904009 0.666591
vt 0.939430 0.591145
vt 0.946319 0.768501
vt 0.871844 0.875905
vt 0.857256 0.903397
vt 0.847212 0.884782
vt 0.851754 0.858592
vt 0.914790 0.911610
vt 0.889390 0.930114
vt 0.873191 0.916914
vt 0.893212 0.893884
vt 0.935480 0.928201
vt 0.910559 0.937449
vt 0.963225 0.874102
vt 0.958683 0.900293
vt 0.938593 0.882980
vt 0.948003 0.860666
vt 0.932067 0.847149
vt 0.917226 0.865000
vt 0.895648 0.847275
vt 0.915868 0.833950
vt 0.910632 0.836301
vt 0.892143 0.850336
vt 0.871297 0.835788
vt 0.894541 0.825354
vt 0.874958 0.830683
s 1
g gobMesh_gobMat
usemtl gobMat
f 5/1/1 4/2/2 11/3/3 12/4/4
f 3/5/5 2/6/6 9/7/7 10/8/8
f 57/9/9 1/10/10 8/11/11
f 7/12/12 58/13/13 14/14/14
f 6/15/15 5/1/1 12/4/4 13/16/16
f 4/2/2 3/5/5 10/8/8 11/3/3
f 2/17/6 57/18/9 8/19/11 9/20/7
f 58/13/13 6/21/15 13/22/16 14/14/14
f 7/12/12 14/14/14 21/23/17
f 13/16/16 12/4/4 19/24/18 20/25/19
f 11/3/3 10/8/8 17/26/20 18/27/21
f 9/28/7 8/11/11 15/29/22 16/30/23
f 14/14/14 13/22/16 20/31/19 21/23/17
f 12/4/4 11/3/3 18/27/21 19/24/18
f 10/32/8 9/28/7 16/30/23 17/33/20
f 8/11/11 1/10/10 15/29/22
f 16/30/23 15/29/22 22/34/24 23/35/25
f 21/23/17 20/31/19 27/36/26 28/37/27
f 19/24/18 18/27/21 25/38/28 26/39/29
f 17/33/20 16/30/23 23/35/25 24/40/30
f 15/29/22 1/10/10 22/34/24
f 7/12/12 21/23/17 28/37/27
f 20/25/19 19/24/18 26/39/29 27/41/26
f 18/27/21 17/26/20 24/42/30 25/38/28
f 28/37/27 27/36/26 34/43/31 35/44/32
f 26/39/29 25/38/28 32/45/33 33/46/34
f 24/40/30 23/35/25 30/47/35 31/48/36
f 22/34/24 1/10/10 29/49/37
f 7/12/12 28/37/27 35/44/32
f 27/41/26 26/39/29 33/46/34 34/50/31
f 25/38/28 24/42/30 31/51/36 32/45/33
f 23/35/25 22/34/24 29/49/37 30/47/35
f 29/49/37 1/10/10 36/52/38
f 7/12/12 35/44/32 42/53/39
f 34/50/31 33/46/34 40/54/40 41/55/41
f 32/45/33 31/51/36 38/56/42 39/57/43
f 30/47/35 29/49/37 36/52/38 37/58/44
f 35/44/32 34/43/31 41/59/41 42/53/39
f 33/46/34 32/45/33 39/57/43 40/54/40
f 31/48/36 30/47/35 37/58/44 38/60/42
f 41/55/41 40/54/40 47/61/45 48/62/46
f 39/57/43 38/56/42 45/63/47 46/64/48
f 37/58/44 36/52/38 43/65/49 44/66/50
f 42/53/39 41/59/41 48/67/46 49/68/51
f 40/54/40 39/57/43 46/64/48 47/61/45
f 38/60/42 37/58/44 44/66/50 45/69/47
f 36/52/38 1/10/10 43/65/49
f 7/12/12 42/53/39 49/68/51
f 49/68/51 48/67/46 55/70/52 56/71/53
f 47/72/45 46/73/48 53/74/54 54/75/55
f 45/69/47 44/66/50 51/76/56 52/77/57
f 43/65/49 1/10/10 50/78/58
f 7/12/12 49/68/51 56/71/53
f 48/79/46 47/72/45 54/75/55 55/80/52
f 46/73/48 45/81/47 52/82/57 53/74/54
f 44/66/50 43/65/49 50/78/58 51/76/56
f 54/75/55 53/74/54 4/2/2 5/1/1
f 52/82/57 51/83/56 2/6/6 3/5/5
f 50/78/58 1/10/10 57/9/9
f 7/12/12 56/71/53 58/13/13
f 55/80/52 54/75/55 5/1/1 6/15/15
f 53/74/54 52/82/57 3/5/5 4/2/2
f 51/84/56 50/85/58 57/18/9 2/17/6
f 56/71/53 55/70/52 6/21/15 58/13/13
f 80/86/59 60/87/60 62/88/61 81/89/62
f 97/90/63 75/91/64 66/92/65 83/93/66
f 83/93/66 66/92/65 64/94/67 85/95/68
f 93/96/69 72/97/70 60/98/60 80/99/59
f 77/100/71 65/101/72 63/102/73 76/103/74
f 73/104/75 62/88/61 60/87/60 72/105/70
f 75/91/64 68/106/76 70/107/77 78/108/78
f 71/109/79 67/110/80 69/111/81 74/112/82
f 95/113/83 78/114/78 70/115/77 87/116/84
f 91/117/85 73/104/75 68/106/76 89/118/86
f 81/89/62 62/88/61 73/104/75 91/117/85
f 61/119/87 71/109/79 74/112/82 59/120/88
f 68/106/76 73/104/75 72/105/70 70/107/77
f 87/116/84 70/115/77 72/97/70 93/96/69
f 85/121/68 64/122/67 78/114/78 95/113/83
f 66/92/65 75/91/64 78/108/78 64/94/67
f 67/110/80 77/100/71 76/103/74 69/111/81
f 89/118/86 68/106/76 75/91/64 97/90/63
f 67/110/80 90/123/89 98/124/90 77/100/71
f 90/123/89 89/118/86 97/90/63 98/124/90
f 63/125/73 86/126/91 96/127/92 76/128/74
f 86/126/91 85/121/68 95/113/83 96/127/92
f 69/129/81 88/130/93 94/131/94 74/132/82
f 88/130/93 87/116/84 93/96/69 94/131/94
f 61/119/87 82/133/95 92/134/96 71/109/79
f 82/133/95 81/89/62 91/117/85 92/134/96
f 71/109/79 92/134/96 90/123/89 67/110/80
f 92/134/96 91/117/85 89/118/86 90/123/89
f 76/128/74 96/127/92 88/130/93 69/129/81
f 96/127/92 95/113/83 87/116/84 88/130/93
f 74/132/82 94/131/94 79/135/97 59/136/88
f 94/131/94 93/96/69 80/99/59 79/135/97
f 65/101/72 84/137/98 86/138/91 63/102/73
f 84/137/98 83/93/66 85/95/68 86/138/91
f 77/100/71 98/124/90 84/137/98 65/101/72
f 98/124/90 97/90/63 83/93/66 84/137/98
f 59/120/88 79/139/97 82/133/95 61/119/87
f 79/139/97 80/86/59 81/89/62 82/133/95
f 120/86/99 100/87/100 102/88/101 121/89/102
f 137/90/103 115/91/104 106/92/105 123/93/106
f 123/93/106 106/92/105 104/94/107 125/95/108
f 133/140/109 112/141/110 100/142/100 120/143/99
f 117/100/111 105/101/112 103/102/113 116/103/114
f 113/104/115 102/88/101 100/87/100 112/105/110
f 115/91/104 108/106/116 110/107/117 118/108/118
f 111/109/119 107/110/120 109/111/121 114/112/122
f 135/144/123 118/145/118 110/146/117 127/147/124
f 131/117/125 113/104/115 108/106/116 129/118/126
f 121/89/102 102/88/101 113/104/115 131/117/125
f 101/119/127 111/109/119 114/112/122 99/120/128
f 108/106/116 113/104/115 112/105/110 110/107/117
f 127/147/124 110/146/117 112/141/110 133/140/109
f 125/148/108 104/149/107 118/145/118 135/144/123
f 106/92/105 115/91/104 118/108/118 104/94/107
f 107/110/120 117/100/111 116/103/114 109/111/121
f 129/118/126 108/106/116 115/91/104 137/90/103
f 107/110/120 130/123/129 138/124/130 117/100/111
f 130/123/129 129/118/126 137/90/103 138/124/130
f 103/150/113 126/151/131 136/152/132 116/153/114
f 126/151/131 125/148/108 135/144/123 136/152/132
f 109/154/121 128/155/133 134/156/134 114/157/122
f 128/155/133 127/147/124 133/140/109 134/156/134
f 101/119/127 122/133/135 132/134/136 111/109/119
f 122/133/135 121/89/102 131/117/125 132/134/136
f 111/109/119 132/134/136 130/123/129 107/110/120
f 132/134/136 131/117/125 129/118/126 130/123/129
f 116/153/114 136/152/132 128/155/133 109/154/121
f 136/152/132 135/144/123 127/147/124 128/155/133
f 114/158/122 134/159/134 119/160/137 99/161/128
f 134/156/134 133/140/109 120/143/99 119/162/137
f 105/101/112 124/137/138 126/138/131 103/102/113
f 124/137/138 123/93/106 125/95/108 126/138/131
f 117/100/111 138/124/130 124/137/138 105/101/112
f 138/124/130 137/90/103 123/93/106 124/137/138
f 99/120/128 119/139/137 122/133/135 101/119/127
f 119/139/137 120/86/99 121/89/102 122/133/135
