# Blender 5.0.1
# www.blender.org
mtllib model.mtl
o LinksiderMesh
v 0.839250 1.000000 0.839250
v 0.839250 0.839250 1.000000
v 1.000000 0.839250 0.839250
v 0.839250 0.952917 0.952917
v 0.932059 0.932059 0.932059
v 0.952917 0.839250 0.952917
v 0.952917 0.952917 0.839250
v 0.839250 0.839250 -1.000000
v 0.839250 1.000000 -0.839250
v 1.000000 0.839250 -0.839250
v 0.839250 0.952917 -0.952917
v 0.932059 0.932059 -0.932059
v 0.952917 0.952917 -0.839250
v 0.952917 0.839250 -0.952917
v 1.000000 -0.839250 0.839250
v 0.839250 -0.839250 1.000000
v 0.839250 -1.000000 0.839250
v 0.952917 -0.839250 0.952917
v 0.932059 -0.932059 0.932059
v 0.839250 -0.952917 0.952917
v 0.952917 -0.952917 0.839250
v 1.000000 -0.839250 -0.839250
v 0.839250 -1.000000 -0.839250
v 0.839250 -0.839250 -1.000000
v 0.952917 -0.952917 -0.839250
v 0.932059 -0.932059 -0.932059
v 0.839250 -0.952917 -0.952917
v 0.952917 -0.839250 -0.952917
v -0.839250 1.000000 0.839250
v -1.000000 0.839250 0.839250
v -0.839250 0.839250 1.000000
v -0.952917 0.952917 0.839250
v -0.932059 0.932059 0.932059
v -0.952917 0.839250 0.952917
v -0.839250 0.952917 0.952917
v -1.000000 0.839250 -0.839250
v -0.839250 1.000000 -0.839250
v -0.839250 0.839250 -1.000000
v -0.952917 0.952917 -0.839250
v -0.932059 0.932059 -0.932059
v -0.839250 0.952917 -0.952917
v -0.952917 0.839250 -0.952917
v -1.000000 -0.839250 0.839250
v -0.839250 -1.000000 0.839250
v -0.839250 -0.839250 1.000000
v -0.952917 -0.952917 0.839250
v -0.932059 -0.932059 0.932059
v -0.839250 -0.952917 0.952917
v -0.952917 -0.839250 0.952917
v -0.839250 -0.839250 -1.000000
v -0.839250 -1.000000 -0.839250
v -1.000000 -0.839250 -0.839250
v -0.839250 -0.952917 -0.952917
v -0.932059 -0.932059 -0.932059
v -0.952917 -0.952917 -0.839250
v -0.952917 -0.839250 -0.952917
vn 0.1794 0.9673 0.1794
vn 0.1794 0.1794 0.9673
vn 0.9673 0.1794 0.1794
vn 0.1726 0.6965 0.6965
vn 0.5774 0.5774 0.5774
vn 0.6965 0.1726 0.6965
vn 0.6965 0.6965 0.1726
vn 0.1794 0.1794 -0.9673
vn 0.1794 0.9673 -0.1794
vn 0.9673 0.1794 -0.1794
vn 0.1726 0.6965 -0.6965
vn 0.5774 0.5774 -0.5774
vn 0.6965 0.6965 -0.1726
vn 0.6965 0.1726 -0.6965
vn 0.9673 -0.1794 0.1794
vn 0.1794 -0.1794 0.9673
vn 0.1794 -0.9673 0.1794
vn 0.6965 -0.1726 0.6965
vn 0.5774 -0.5774 0.5774
vn 0.1726 -0.6965 0.6965
vn 0.6965 -0.6965 0.1726
vn 0.9673 -0.1794 -0.1794
vn 0.1794 -0.9673 -0.1794
vn 0.1794 -0.1794 -0.9673
vn 0.6965 -0.6965 -0.1726
vn 0.5774 -0.5774 -0.5774
vn 0.1726 -0.6965 -0.6965
vn 0.6965 -0.1726 -0.6965
vn -0.1794 0.9673 0.1794
vn -0.9673 0.1794 0.1794
vn -0.1794 0.1794 0.9673
vn -0.6965 0.6965 0.1726
vn -0.5774 0.5774 0.5774
vn -0.6965 0.1726 0.6965
vn -0.1726 0.6965 0.6965
vn -0.9673 0.1794 -0.1794
vn -0.1794 0.9673 -0.1794
vn -0.1794 0.1794 -0.9673
vn -0.6965 0.6965 -0.1726
vn -0.5774 0.5774 -0.5774
vn -0.1726 0.6965 -0.6965
vn -0.6965 0.1726 -0.6965
vn -0.9673 -0.1794 0.1794
vn -0.1794 -0.9673 0.1794
vn -0.1794 -0.1794 0.9673
vn -0.6965 -0.6965 0.1726
vn -0.5774 -0.5774 0.5774
vn -0.1726 -0.6965 0.6965
vn -0.6965 -0.1726 0.6965
vn -0.1794 -0.1794 -0.9673
vn -0.1794 -0.9673 -0.1794
vn -0.9673 -0.1794 -0.1794
vn -0.1726 -0.6965 -0.6965
vn -0.5774 -0.5774 -0.5774
vn -0.6965 -0.6965 -0.1726
vn -0.6965 -0.1726 -0.6965
vt 0.207809 0.960784
vt 0.207809 0.971383
vt 0.216463 0.969438
vt 0.218408 0.960784
vt 0.207809 0.804271
vt 0.218408 0.804271
vt 0.216463 0.795617
vt 0.207809 0.793672
vt 0.051295 0.960784
vt 0.051295 0.971383
vt 0.042641 0.969438
vt 0.040696 0.960784
vt 0.683302 0.713679
vt 0.725097 0.713679
vt 0.717427 0.747804
vt 0.683302 0.755473
vt 0.051295 0.804271
vt 0.040696 0.804271
vt 0.042641 0.795617
vt 0.051295 0.793672
vt 0.683302 0.096515
vt 0.683302 0.054721
vt 0.717427 0.062390
vt 0.725097 0.096515
vt 0.066138 0.713679
vt 0.066138 0.755473
vt 0.032014 0.747804
vt 0.024344 0.713679
vt 0.066138 0.096515
vt 0.024344 0.096515
vt 0.032014 0.062390
vt 0.066138 0.054721
s 1
g LinksiderMesh_Material
usemtl Material
f 1/1/1 4/2/4 5/3/5 7/4/7
f 2/1/2 6/4/6 5/3/5 4/2/4
f 3/1/3 7/4/7 5/3/5 6/2/6
f 8/1/8 11/2/11 12/3/12 14/4/14
f 9/5/9 13/6/13 12/7/12 11/8/11
f 10/5/10 14/8/14 12/7/12 13/6/13
f 15/9/15 18/10/18 19/11/19 21/12/21
f 16/5/16 20/8/20 19/7/19 18/6/18
f 17/13/17 21/14/21 19/15/19 20/16/20
f 22/17/22 25/18/25 26/19/26 28/20/28
f 23/21/23 27/22/27 26/23/26 25/24/25
f 24/5/24 28/6/28 26/7/26 27/8/27
f 29/9/29 32/12/32 33/11/33 35/10/35
f 30/1/30 34/2/34 33/3/33 32/4/32
f 31/9/31 35/10/35 33/11/33 34/12/34
f 36/5/36 39/6/39 40/7/40 42/8/42
f 37/17/37 41/20/41 40/19/40 39/18/39
f 38/9/38 42/12/42 40/11/40 41/10/41
f 43/9/43 46/12/46 47/11/47 49/10/49
f 44/25/44 48/26/48 47/27/47 46/28/46
f 45/17/45 49/18/49 47/19/47 48/20/48
f 50/17/50 53/20/53 54/19/54 56/18/56
f 51/29/51 55/30/55 54/31/54 53/32/53
f 52/17/52 56/20/56 54/19/54 55/18/55
f 38/9/38 50/17/50 56/18/56 42/12/42
f 42/8/42 56/20/56 52/17/52 36/5/36
f 8/1/8 38/9/38 41/10/41 11/2/11
f 11/8/11 41/20/41 37/17/37 9/5/9
f 3/1/3 10/5/10 13/6/13 7/4/7
f 7/4/7 13/6/13 9/5/9 1/1/1
f 51/29/51 44/25/44 46/28/46 55/30/55
f 55/18/55 46/12/46 43/9/43 52/17/52
f 17/13/17 23/21/23 25/24/25 21/14/21
f 21/12/21 25/18/25 22/17/22 15/9/15
f 29/9/29 37/17/37 39/18/39 32/12/32
f 32/4/32 39/6/39 36/5/36 30/1/30
f 16/5/16 45/17/45 48/20/48 20/8/20
f 20/16/20 48/26/48 44/25/44 17/13/17
f 2/1/2 16/5/16 18/6/18 6/4/6
f 6/2/6 18/10/18 15/9/15 3/1/3
f 50/17/50 24/5/24 27/8/27 53/20/53
f 53/32/53 27/22/27 23/21/23 51/29/51
f 45/17/45 31/9/31 34/12/34 49/18/49
f 49/10/49 34/2/34 30/1/30 43/9/43
f 31/9/31 2/1/2 4/2/4 35/10/35
f 35/10/35 4/2/4 1/1/1 29/9/29
f 24/5/24 8/1/8 14/4/14 28/6/28
f 28/20/28 14/8/14 10/5/10 22/17/22
f 37/17/37 29/9/29 1/1/1 9/5/9
f 10/5/10 3/1/3 15/9/15 22/17/22
f 2/1/2 31/9/31 45/17/45 16/5/16
f 38/9/38 8/1/8 24/5/24 50/17/50
f 23/21/23 17/13/17 44/25/44 51/29/51
f 52/17/52 43/9/43 30/1/30 36/5/36
